<svg width="54" height="54" viewBox="0 0 54 54" fill="none" xmlns="http://www.w3.org/2000/svg">
<g id="calendar-svgrepo-com 1">
<path id="Vector" d="M37.7578 10.0671V6.4917H35.4375V10.0671H18.5625V6.4917H16.2422V10.0671H4.85156V47.5085H49.1484V10.0671H37.7578ZM7.17188 12.3874H16.2422V16.0366H18.5625V12.3874H35.4375V16.0366H37.7578V12.3874H46.8281V20.3661H7.17188V12.3874ZM46.8281 45.1882H7.17188V21.2099H46.8281V45.1882Z" fill="#39393A"/>
<path id="Vector_2" d="M15.082 29.8318C15.082 30.2933 15.2654 30.736 15.5917 31.0623C15.9181 31.3887 16.3607 31.572 16.8223 31.572C17.2838 31.572 17.7264 31.3887 18.0528 31.0623C18.3792 30.736 18.5625 30.2933 18.5625 29.8318C18.5625 29.3702 18.3792 28.9276 18.0528 28.6013C17.7264 28.2749 17.2838 28.0916 16.8223 28.0916C16.3607 28.0916 15.9181 28.2749 15.5917 28.6013C15.2654 28.9276 15.082 29.3702 15.082 29.8318Z" fill="#E73B37"/>
<path id="Vector_3" d="M25.1563 29.8318C25.1562 30.0603 25.2013 30.2866 25.2887 30.4977C25.3762 30.7089 25.5044 30.9007 25.666 31.0623C25.8275 31.2239 26.0194 31.3521 26.2305 31.4396C26.4417 31.527 26.668 31.572 26.8965 31.572C27.125 31.572 27.3513 31.527 27.5624 31.4396C27.7736 31.3521 27.9654 31.2239 28.127 31.0623C28.2886 30.9007 28.4168 30.7089 28.5043 30.4977C28.5917 30.2866 28.6367 30.0603 28.6367 29.8318C28.6367 29.6033 28.5917 29.377 28.5043 29.1658C28.4168 28.9547 28.2886 28.7629 28.127 28.6013C27.9654 28.4397 27.7736 28.3115 27.5624 28.224C27.3513 28.1366 27.125 28.0916 26.8965 28.0916C26.668 28.0916 26.4417 28.1366 26.2305 28.224C26.0194 28.3115 25.8275 28.4397 25.666 28.6013C25.5044 28.7629 25.3762 28.9547 25.2887 29.1658C25.2013 29.377 25.1562 29.6033 25.1563 29.8318Z" fill="#E73B37"/>
<path id="Vector_4" d="M35.2305 29.8318C35.2305 30.2933 35.4138 30.736 35.7402 31.0623C36.0665 31.3887 36.5092 31.572 36.9707 31.572C37.4322 31.572 37.8749 31.3887 38.2012 31.0623C38.5276 30.736 38.7109 30.2933 38.7109 29.8318C38.7109 29.3702 38.5276 28.9276 38.2012 28.6013C37.8749 28.2749 37.4322 28.0916 36.9707 28.0916C36.5092 28.0916 36.0665 28.2749 35.7402 28.6013C35.4138 28.9276 35.2305 29.3702 35.2305 29.8318Z" fill="#E73B37"/>
<path id="Vector_5" d="M15.082 36.5659C15.082 37.0275 15.2654 37.4701 15.5917 37.7964C15.9181 38.1228 16.3607 38.3062 16.8223 38.3062C17.2838 38.3062 17.7264 38.1228 18.0528 37.7964C18.3792 37.4701 18.5625 37.0275 18.5625 36.5659C18.5625 36.1044 18.3792 35.6617 18.0528 35.3354C17.7264 35.009 17.2838 34.8257 16.8223 34.8257C16.3607 34.8257 15.9181 35.009 15.5917 35.3354C15.2654 35.6617 15.082 36.1044 15.082 36.5659Z" fill="#E73B37"/>
<path id="Vector_6" d="M25.1563 36.5659C25.1562 36.7944 25.2013 37.0207 25.2887 37.2319C25.3762 37.443 25.5044 37.6349 25.666 37.7964C25.8275 37.958 26.0194 38.0862 26.2305 38.1737C26.4417 38.2611 26.668 38.3062 26.8965 38.3062C27.125 38.3062 27.3513 38.2611 27.5624 38.1737C27.7736 38.0862 27.9654 37.958 28.127 37.7964C28.2886 37.6349 28.4168 37.443 28.5043 37.2319C28.5917 37.0207 28.6367 36.7944 28.6367 36.5659C28.6367 36.3374 28.5917 36.1111 28.5043 35.9C28.4168 35.6888 28.2886 35.497 28.127 35.3354C27.9654 35.1738 27.7736 35.0456 27.5624 34.9582C27.3513 34.8707 27.125 34.8257 26.8965 34.8257C26.668 34.8257 26.4417 34.8707 26.2305 34.9582C26.0194 35.0456 25.8275 35.1738 25.666 35.3354C25.5044 35.497 25.3762 35.6888 25.2887 35.9C25.2013 36.1111 25.1562 36.3374 25.1563 36.5659Z" fill="#E73B37"/>
<path id="Vector_7" d="M35.2305 36.5659C35.2305 37.0275 35.4138 37.4701 35.7402 37.7964C36.0665 38.1228 36.5092 38.3062 36.9707 38.3062C37.4322 38.3062 37.8749 38.1228 38.2012 37.7964C38.5276 37.4701 38.7109 37.0275 38.7109 36.5659C38.7109 36.1044 38.5276 35.6617 38.2012 35.3354C37.8749 35.009 37.4322 34.8257 36.9707 34.8257C36.5092 34.8257 36.0665 35.009 35.7402 35.3354C35.4138 35.6617 35.2305 36.1044 35.2305 36.5659Z" fill="#E73B37"/>
</g>
</svg>
