<svg width="54" height="54" viewBox="0 0 54 54" fill="none" xmlns="http://www.w3.org/2000/svg">
<g id="cell-phone-svgrepo-com 1">
<path id="Vector" d="M27.3061 42.7676C28.2078 42.7676 28.9408 43.5006 28.9408 44.3971C28.9408 45.2988 28.2078 46.0266 27.3061 46.0266C26.4043 46.0266 25.6713 45.2936 25.6713 44.3971C25.6713 43.5006 26.4043 42.7676 27.3061 42.7676ZM27.3061 41.7129C25.8242 41.7129 24.6166 42.9152 24.6166 44.3971C24.6166 45.8789 25.819 47.0813 27.3061 47.0813C28.7932 47.0813 29.9955 45.8789 29.9955 44.3971C29.9903 42.9152 28.7879 41.7129 27.3061 41.7129ZM17.625 16.0564L21.0891 12.5923L21.8349 13.3381L18.3708 16.8022L17.625 16.0564ZM18.5673 20.4503L25.4843 13.5332L26.23 14.279L19.313 21.1961L18.5673 20.4503Z" fill="#E73B37"/>
<path id="Vector_2" d="M42.6094 5.71631V48.2835H11.3906V5.71631H42.6094ZM44.9297 3.396H9.07031V50.6038H44.9297V3.396Z" fill="#39393A"/>
<path id="Vector_3" d="M39.3992 9.14404V39.3556H14.7617V9.14404H39.3992ZM40.5594 7.98389H13.6016V40.5157H40.5594V7.98389Z" fill="#39393A"/>
</g>
</svg>
