<svg width="54" height="54" viewBox="0 0 54 54" fill="none" xmlns="http://www.w3.org/2000/svg">
<g id="computer-svgrepo-com (1) 1">
<path id="Vector" d="M26.4375 35.6958C26.4375 35.7651 26.4511 35.8336 26.4776 35.8976C26.5041 35.9616 26.543 36.0197 26.592 36.0687C26.6409 36.1177 26.6991 36.1565 26.763 36.183C26.827 36.2095 26.8956 36.2231 26.9648 36.2231C27.0341 36.2231 27.1027 36.2095 27.1666 36.183C27.2306 36.1565 27.2888 36.1177 27.3377 36.0687C27.3867 36.0197 27.4255 35.9616 27.452 35.8976C27.4785 35.8336 27.4922 35.7651 27.4922 35.6958C27.4922 35.5559 27.4366 35.4218 27.3377 35.3229C27.2388 35.224 27.1047 35.1685 26.9648 35.1685C26.825 35.1685 26.6909 35.224 26.592 35.3229C26.4931 35.4218 26.4375 35.5559 26.4375 35.6958Z" fill="#E73B37"/>
<path id="Vector_2" d="M50.625 39.8672V7.30371H3.375V39.8672H20.2553V44.376H13.5105V46.6963H40.5053V44.376H33.7553V39.8672H50.625ZM5.69531 9.62402H48.3047V32.1469H5.69531V9.62402ZM31.435 44.376H22.5756V39.8672H31.435V44.376ZM5.69531 37.5469V33.1963H48.3047V37.5469H5.69531Z" fill="#39393A"/>
<path id="Vector_3" d="M8.83594 17.2812L13.62 12.4971L14.3658 13.2428L9.58171 18.0269L8.83594 17.2812ZM9.12192 22.3313L18.6752 12.778L19.421 13.5238L9.86763 23.0771L9.12192 22.3313Z" fill="#E73B37"/>
</g>
</svg>
