<svg width="54" height="54" viewBox="0 0 54 54" fill="none" xmlns="http://www.w3.org/2000/svg">
<g id="creativity-svgrepo-com 1">
<path id="Vector" d="M26.9967 10.5259C18.7596 10.5259 12.0781 17.2021 12.0781 25.4444C12.0781 30.9183 15.026 35.7065 19.424 38.3011V43.0366C19.424 43.1052 19.424 43.1685 19.4293 43.237C19.4346 43.4058 19.4451 43.5745 19.4609 43.7433C19.8195 47.5823 23.0785 50.6145 27.0072 50.6145C29.0902 50.6145 30.9834 49.7603 32.3598 48.3892C33.5727 47.1763 34.3795 45.552 34.5535 43.7538C34.5693 43.5851 34.5799 43.4163 34.5852 43.2476C34.5852 43.179 34.5904 43.1052 34.5904 43.0366V38.2905L34.6221 38.2747C38.9937 35.6749 41.9258 30.9024 41.9258 25.4444C41.9152 17.2021 35.2391 10.5259 26.9967 10.5259ZM32.2596 43.0366C32.2596 43.3425 32.2332 43.6431 32.1805 43.9331C32.1225 44.2759 32.0275 44.6081 31.901 44.9298C31.6373 45.5995 31.2365 46.2218 30.7092 46.7491C29.7125 47.7458 28.3941 48.2942 26.9967 48.2942C25.5992 48.2942 24.2809 47.7458 23.2842 46.7491C22.7568 46.2218 22.3508 45.5995 22.0871 44.9245C21.9605 44.6028 21.8709 44.2706 21.8129 43.9278C21.7602 43.6378 21.7391 43.3372 21.7391 43.0366V42.5726H32.2543V43.0366H32.2596ZM32.2596 41.7288H21.7443V39.2134H32.2596V41.7288ZM35.9035 34.3513C35.4922 34.7626 35.065 35.137 34.6115 35.4798C33.8891 36.0282 33.1139 36.4976 32.2912 36.8772L32.2596 36.8931V36.8983H21.7443C20.9322 36.5239 20.1676 36.0704 19.4557 35.5378C18.9758 35.1792 18.5223 34.7837 18.0898 34.3513C16.9297 33.1911 16.0227 31.8464 15.3898 30.3487C14.7307 28.7983 14.3984 27.1478 14.3984 25.4444C14.3984 23.7411 14.7307 22.0958 15.3898 20.5401C16.0227 19.0425 16.935 17.6925 18.0898 16.5323C19.25 15.3722 20.5947 14.4651 22.0977 13.8323C23.648 13.1784 25.2986 12.8462 27.002 12.8462C28.7053 12.8462 30.3559 13.1784 31.9062 13.8323C33.4039 14.4651 34.7539 15.3774 35.9141 16.5323C37.0742 17.6925 37.9813 19.0372 38.6141 20.5401C39.268 22.0905 39.6055 23.7411 39.6055 25.4444C39.6055 27.1478 39.2732 28.7931 38.6141 30.3487C37.9707 31.8464 37.0637 33.1911 35.9035 34.3513Z" fill="#39393A"/>
<path id="Vector_2" d="M26.9961 22.7971C24.9025 22.7971 23.1992 24.5004 23.1992 26.594C23.1992 28.561 24.7074 30.1852 26.627 30.375V36.8983H27.3652V30.375C29.2848 30.1905 30.793 28.5663 30.793 26.594C30.793 24.5004 29.0896 22.7971 26.9961 22.7971ZM26.9961 29.5471C25.3666 29.5471 24.043 28.2235 24.043 26.594C24.043 24.9645 25.3666 23.6409 26.9961 23.6409C28.6256 23.6409 29.9492 24.9645 29.9492 26.594C29.9492 28.2235 28.6256 29.5471 26.9961 29.5471Z" fill="#E73B37"/>
<path id="Vector_3" d="M24.9219 5.46323C24.9219 6.01428 25.1408 6.54276 25.5304 6.93241C25.9201 7.32206 26.4486 7.54097 26.9996 7.54097C27.5507 7.54097 28.0791 7.32206 28.4688 6.93241C28.8584 6.54276 29.0773 6.01428 29.0773 5.46323C29.0773 4.91218 28.8584 4.3837 28.4688 3.99405C28.0791 3.6044 27.5507 3.3855 26.9996 3.3855C26.4486 3.3855 25.9201 3.6044 25.5304 3.99405C25.1408 4.3837 24.9219 4.91218 24.9219 5.46323Z" fill="#E73B37"/>
<path id="Vector_4" d="M10.8008 11.3116C10.8008 11.5845 10.8545 11.8547 10.9589 12.1067C11.0634 12.3588 11.2164 12.5879 11.4093 12.7808C11.6023 12.9737 11.8313 13.1268 12.0834 13.2312C12.3355 13.3356 12.6057 13.3894 12.8785 13.3894C13.1514 13.3894 13.4215 13.3356 13.6736 13.2312C13.9257 13.1268 14.1548 12.9737 14.3477 12.7808C14.5406 12.5879 14.6937 12.3588 14.7981 12.1067C14.9025 11.8547 14.9563 11.5845 14.9563 11.3116C14.9563 10.7606 14.7373 10.2321 14.3477 9.84244C13.958 9.45279 13.4296 9.23389 12.8785 9.23389C12.3275 9.23389 11.799 9.45279 11.4093 9.84244C11.0197 10.2321 10.8008 10.7606 10.8008 11.3116Z" fill="#E73B37"/>
<path id="Vector_5" d="M4.95313 25.4286C4.95312 25.7014 5.00687 25.9716 5.11128 26.2237C5.2157 26.4758 5.36874 26.7048 5.56168 26.8977C5.75461 27.0907 5.98366 27.2437 6.23574 27.3481C6.48783 27.4526 6.75801 27.5063 7.03086 27.5063C7.30371 27.5063 7.57389 27.4526 7.82597 27.3481C8.07806 27.2437 8.3071 27.0907 8.50004 26.8977C8.69297 26.7048 8.84602 26.4758 8.95044 26.2237C9.05485 25.9716 9.10859 25.7014 9.10859 25.4286C9.10859 24.8775 8.88969 24.349 8.50004 23.9594C8.11039 23.5697 7.58191 23.3508 7.03086 23.3508C6.47981 23.3508 5.95133 23.5697 5.56168 23.9594C5.17203 24.349 4.95313 24.8775 4.95313 25.4286Z" fill="#E73B37"/>
<path id="Vector_6" d="M44.8945 25.4286C44.8945 25.7014 44.9483 25.9716 45.0527 26.2237C45.1571 26.4758 45.3101 26.7048 45.5031 26.8977C45.696 27.0907 45.9251 27.2437 46.1772 27.3481C46.4292 27.4526 46.6994 27.5063 46.9723 27.5063C47.2451 27.5063 47.5153 27.4526 47.7674 27.3481C48.0195 27.2437 48.2485 27.0907 48.4414 26.8977C48.6344 26.7048 48.7874 26.4758 48.8918 26.2237C48.9963 25.9716 49.05 25.7014 49.05 25.4286C49.05 25.1557 48.9963 24.8855 48.8918 24.6335C48.7874 24.3814 48.6344 24.1523 48.4414 23.9594C48.2485 23.7664 48.0195 23.6134 47.7674 23.509C47.5153 23.4046 47.2451 23.3508 46.9723 23.3508C46.6994 23.3508 46.4292 23.4046 46.1772 23.509C45.9251 23.6134 45.696 23.7664 45.5031 23.9594C45.3101 24.1523 45.1571 24.3814 45.0527 24.6335C44.9483 24.8855 44.8945 25.1557 44.8945 25.4286Z" fill="#E73B37"/>
<path id="Vector_7" d="M39.043 11.3116C39.043 11.8627 39.2619 12.3911 39.6515 12.7808C40.0412 13.1705 40.5697 13.3894 41.1207 13.3894C41.6718 13.3894 42.2002 13.1705 42.5899 12.7808C42.9795 12.3911 43.1984 11.8627 43.1984 11.3116C43.1984 10.7606 42.9795 10.2321 42.5899 9.84244C42.2002 9.45279 41.6718 9.23389 41.1207 9.23389C40.5697 9.23389 40.0412 9.45279 39.6515 9.84244C39.2619 10.2321 39.043 10.7606 39.043 11.3116Z" fill="#E73B37"/>
</g>
</svg>
