<svg width="54" height="54" viewBox="0 0 54 54" fill="none" xmlns="http://www.w3.org/2000/svg">
<g id="document-svgrepo-com (1) 1">
<path id="Vector" d="M37.4297 34.3723C37.4297 34.5122 37.4852 34.6463 37.5841 34.7452C37.683 34.8441 37.8172 34.8997 37.957 34.8997C38.0969 34.8997 38.231 34.8441 38.3299 34.7452C38.4288 34.6463 38.4844 34.5122 38.4844 34.3723C38.4844 34.2325 38.4288 34.0983 38.3299 33.9994C38.231 33.9005 38.0969 33.845 37.957 33.845C37.8172 33.845 37.683 33.9005 37.5841 33.9994C37.4852 34.0983 37.4297 34.2325 37.4297 34.3723Z" fill="#E73B37"/>
<path id="Vector_2" d="M27.0053 3.375H9.07031V50.625H44.9297V20.3344L27.0053 3.375ZM41.7076 20.4768H26.942V6.50215L41.7076 20.4768ZM42.6094 48.3047H11.3906V5.69531H26.0824L26.093 5.70586V21.3258H42.5936L42.6041 21.3363V48.3047H42.6094Z" fill="#39393A"/>
<path id="Vector_3" d="M14.793 27.9492H31.9791V28.793H14.793V27.9492Z" fill="#39393A"/>
<path id="Vector_4" d="M33.7227 27.9492H38.4793V28.793H33.7227V27.9492Z" fill="#E73B37"/>
<path id="Vector_5" d="M21.2773 33.845H35.8848V34.6887H21.2773V33.845Z" fill="#39393A"/>
<path id="Vector_6" d="M14.7969 33.845H19.6062V34.6887H14.7969V33.845Z" fill="#E73B37"/>
<path id="Vector_7" d="M14.7617 39.7458H31.9795V40.5896H14.7617V39.7458Z" fill="#39393A"/>
<path id="Vector_8" d="M34.582 39.7458H38.4791V40.5896H34.582V39.7458Z" fill="#E73B37"/>
</g>
</svg>
