<svg width="54" height="54" viewBox="0 0 54 54" fill="none" xmlns="http://www.w3.org/2000/svg">
<g id="network-svgrepo-com 1">
<path id="Vector" d="M44.5131 11.148C44.3232 10.9371 44.1281 10.7314 43.933 10.5311C41.0959 7.60957 37.5047 5.42109 33.4811 4.27148C32.6848 4.04473 31.8727 3.86016 31.0447 3.71777C29.7264 3.49102 28.3764 3.375 27 3.375C20.3555 3.375 14.349 6.11719 10.0564 10.5363C9.86133 10.7367 9.66621 10.9424 9.47637 11.1533C5.68477 15.3404 3.375 20.9039 3.375 27C3.375 33.0961 5.68477 38.649 9.47109 42.8414C9.66094 43.0523 9.85078 43.258 10.0512 43.4584C12.8936 46.3852 16.49 48.5789 20.5242 49.7285C21.3205 49.9553 22.1326 50.1398 22.9605 50.2822C24.2736 50.509 25.6236 50.625 27 50.625C28.3764 50.625 29.7264 50.509 31.0447 50.2822C31.8727 50.1398 32.6848 49.9553 33.4811 49.7285C37.5152 48.5842 41.1064 46.3904 43.9488 43.4637C44.1439 43.258 44.3391 43.0576 44.5289 42.8467C48.3152 38.6543 50.625 33.0961 50.625 27C50.625 20.8986 48.31 15.3404 44.5131 11.148ZM48.2994 27.4324C48.2467 30.1588 47.6877 32.8008 46.633 35.2951C45.7154 37.4678 44.4551 39.4506 42.8836 41.2014C42.699 41.4123 42.5039 41.618 42.3088 41.8184C42.2297 41.9027 42.1453 41.9818 42.0662 42.0662C40.1098 44.0227 37.8316 45.5625 35.2951 46.633C33.4072 47.4293 31.4402 47.9461 29.41 48.1729C28.7508 48.2467 28.0916 48.2889 27.4219 48.2994C27.2848 48.3047 27.1424 48.3047 27 48.3047C26.8576 48.3047 26.7205 48.3047 26.5781 48.2994C25.9137 48.2889 25.2492 48.2467 24.59 48.1729C22.565 47.9461 20.5928 47.4293 18.7049 46.633C16.1684 45.5572 13.8902 44.0227 11.9338 42.0662C11.8494 41.9818 11.765 41.8975 11.6859 41.8131C11.4908 41.6127 11.2957 41.4018 11.1111 41.1961C9.53965 39.4453 8.28457 37.4625 7.36699 35.2951C6.3123 32.8008 5.75332 30.1588 5.70059 27.4324H11.4645C11.4645 27.29 11.4592 27.1477 11.4592 27C11.4592 26.8629 11.4592 26.7258 11.4645 26.5887H5.70059C5.75332 23.857 6.3123 21.2098 7.37227 18.7102C8.28984 16.5375 9.5502 14.5494 11.127 12.7986C11.3115 12.5877 11.5066 12.382 11.7018 12.1816C11.7809 12.1025 11.86 12.0182 11.9391 11.9391C13.8955 9.98262 16.1736 8.44277 18.7102 7.37227C20.598 6.57598 22.565 6.05918 24.5953 5.83242C25.2545 5.75859 25.9137 5.71641 26.5834 5.70059C26.7258 5.69531 26.8629 5.69531 27.0053 5.69531C27.1477 5.69531 27.2848 5.69531 27.4271 5.70059C28.0969 5.71113 28.7561 5.75859 29.4152 5.83242C31.4402 6.05918 33.4125 6.57598 35.2951 7.37227C37.8316 8.44277 40.1098 9.98262 42.0662 11.9391C42.1453 12.0182 42.2244 12.0973 42.2982 12.1764C42.4934 12.3768 42.6885 12.5824 42.873 12.7934C44.4498 14.5494 45.7102 16.5322 46.633 18.7102C47.6877 21.2098 48.252 23.857 48.2994 26.5887H42.5355C42.5355 26.7258 42.5408 26.8629 42.5408 27C42.5408 27.1424 42.5408 27.2848 42.5355 27.4324H48.2994Z" fill="#39393A"/>
<path id="Vector_2" d="M41.6988 27C41.6988 27.1424 41.6988 27.2848 41.6936 27.4324H27.4236V35.0631C27.2813 35.0578 27.1389 35.0578 26.9965 35.0578C26.8594 35.0578 26.717 35.0578 26.5799 35.0631V27.4324H12.31C12.3047 27.29 12.3047 27.1477 12.3047 27C12.3047 26.8629 12.3047 26.7258 12.31 26.5887H26.5799V18.9211C26.717 18.9211 26.8594 18.9264 26.9965 18.9264C27.1389 18.9264 27.2813 18.9264 27.4236 18.9211V26.5887H41.6936C41.6936 26.7258 41.6988 26.8629 41.6988 27ZM27.4236 5.85879V18.0721C27.2813 18.0773 27.1389 18.0773 26.9965 18.0773C26.8594 18.0773 26.717 18.0773 26.5799 18.0721V5.85879C26.7223 5.80078 26.8594 5.74805 27.0018 5.69531C27.1441 5.74805 27.2813 5.80605 27.4236 5.85879ZM27.4236 35.9068V48.1412C27.2813 48.1992 27.1441 48.252 27.0018 48.3047C26.8594 48.252 26.7223 48.1939 26.5799 48.1412V35.9068C26.717 35.9016 26.8594 35.9016 26.9965 35.9016C27.1389 35.9016 27.2813 35.9016 27.4236 35.9068Z" fill="#39393A"/>
<path id="Vector_3" d="M39.4818 38.6279C41.3592 35.3109 42.4613 31.4982 42.5299 27.4324C42.5299 27.29 42.5352 27.1477 42.5352 27C42.5352 26.8629 42.5352 26.7258 42.5299 26.5887C42.4613 22.5123 41.3592 18.6838 39.4713 15.3615C40.6842 14.6074 41.818 13.7479 42.8674 12.7934C42.6775 12.5824 42.4877 12.3768 42.2926 12.1764C41.2801 13.0992 40.1937 13.9219 39.0389 14.6391C36.7238 10.8738 33.3805 7.80996 29.399 5.83242C28.7398 5.75859 28.0807 5.71641 27.4109 5.70059C27.2686 5.69531 27.1314 5.69531 26.9891 5.69531C27.1314 5.74805 27.2686 5.80605 27.4109 5.85879C27.5322 5.90625 27.6482 5.95898 27.7695 6.00645C30.4801 7.15605 32.9164 8.79609 35.01 10.8896C36.2809 12.1605 37.383 13.558 38.3164 15.0662C37.5254 15.5197 36.7027 15.9311 35.8537 16.2896C33.1748 17.4234 30.3377 18.0246 27.4162 18.0773C27.2738 18.0826 27.1314 18.0826 26.9891 18.0826C26.852 18.0826 26.7096 18.0826 26.5725 18.0773C23.6457 18.0246 20.8033 17.4234 18.1191 16.2896C17.2754 15.9311 16.4527 15.525 15.6617 15.0715C16.5898 13.5633 17.6973 12.1605 18.9682 10.8896C21.0617 8.79609 23.498 7.15605 26.2086 6.00645C26.3299 5.95898 26.4459 5.90625 26.5672 5.85879C26.7096 5.80078 26.8467 5.74805 26.9891 5.69531C26.8467 5.69531 26.7096 5.69531 26.5672 5.70059C25.8975 5.71113 25.2383 5.75859 24.5791 5.83242C20.5977 7.80996 17.2543 10.8738 14.9393 14.6443C13.7844 13.9271 12.698 13.1045 11.6855 12.1816C11.4904 12.382 11.2953 12.593 11.1107 12.7986C12.1602 13.7531 13.2992 14.6127 14.5121 15.3668C12.6295 18.6891 11.5273 22.5123 11.4588 26.5887C11.4588 26.7258 11.4535 26.8629 11.4535 27C11.4535 27.1424 11.4535 27.2848 11.4588 27.4324C11.5326 31.493 12.6295 35.3057 14.5068 38.6227C13.2939 39.3768 12.1549 40.2416 11.1055 41.1961C11.29 41.407 11.4852 41.6127 11.6803 41.8131C12.6928 40.8902 13.7791 40.0676 14.934 39.3451C17.249 43.1209 20.5977 46.19 24.5844 48.1729C25.2436 48.2467 25.9027 48.2889 26.5725 48.2994C26.7148 48.3047 26.852 48.3047 26.9943 48.3047C26.852 48.252 26.7148 48.1939 26.5725 48.1412C26.4512 48.0938 26.3352 48.041 26.2139 47.9936C23.5033 46.8439 21.067 45.2039 18.9734 43.1104C17.6973 41.8342 16.5898 40.4314 15.6617 38.918C16.4527 38.4645 17.2754 38.0531 18.1244 37.6945C20.8033 36.5607 23.6457 35.9596 26.5777 35.9068C26.7148 35.9016 26.8572 35.9016 26.9943 35.9016C27.1367 35.9016 27.2791 35.9016 27.4215 35.9068C30.3482 35.9596 33.1854 36.5607 35.859 37.6945C36.7133 38.0531 37.5359 38.4645 38.3322 38.9232C37.4041 40.4367 36.2967 41.8395 35.0205 43.1156C32.927 45.2092 30.4906 46.8492 27.7801 47.9988C27.6588 48.0516 27.5428 48.099 27.4215 48.1465C27.2791 48.2045 27.142 48.2572 26.9996 48.31C27.142 48.31 27.2791 48.31 27.4215 48.3047C28.0912 48.2941 28.7504 48.252 29.4096 48.1781C33.3963 46.2006 36.7396 43.1314 39.0547 39.3557C40.2043 40.0728 41.2959 40.9008 42.3084 41.8236C42.5035 41.6232 42.6934 41.4176 42.8832 41.2066C41.8338 40.2416 40.6947 39.382 39.4818 38.6279ZM27.4215 35.0631C27.2791 35.0578 27.1367 35.0578 26.9943 35.0578C26.8572 35.0578 26.7148 35.0578 26.5777 35.0631C22.4539 35.1369 18.5885 36.2654 15.2346 38.1902C14.8127 37.4414 14.433 36.6662 14.0955 35.8699C12.9617 33.191 12.3605 30.3592 12.3078 27.4324C12.3025 27.29 12.3025 27.1477 12.3025 27C12.3025 26.8629 12.3025 26.7258 12.3078 26.5887C12.3605 23.6566 12.9617 20.8143 14.0955 18.1354C14.433 17.3338 14.818 16.5533 15.2451 15.7992C18.5938 17.724 22.4592 18.8525 26.5777 18.9211C26.7148 18.9211 26.8572 18.9264 26.9943 18.9264C27.1367 18.9264 27.2791 18.9264 27.4215 18.9211C31.54 18.8473 35.4055 17.7188 38.7541 15.7939C39.1813 16.548 39.5662 17.3285 39.9037 18.1354C41.0375 20.8195 41.6387 23.6619 41.6914 26.5887C41.6914 26.7258 41.6967 26.8629 41.6967 27C41.6967 27.1424 41.6967 27.2848 41.6914 27.4324C41.6387 30.3539 41.0375 33.191 39.9037 35.8699C39.5662 36.6715 39.1865 37.4467 38.7594 38.1955C35.4107 36.2654 31.5453 35.1369 27.4215 35.0631Z" fill="#E73B37"/>
</g>
</svg>
