<?xml version="1.0" encoding="utf-8" standalone="yes"?>
<!DOCTYPE svg PUBLIC "-//W3C//DTD SVG 1.1//EN" "http://www.w3.org/Graphics/SVG/1.1/DTD/svg11.dtd">
<svg width="672" height="577" viewBox="0 0 672 577" style="fill:none;stroke:none;fill-rule:evenodd;clip-rule:evenodd;stroke-linecap:round;stroke-linejoin:round;stroke-miterlimit:1.5;" version="1.1" xmlns="http://www.w3.org/2000/svg" xmlns:xlink="http://www.w3.org/1999/xlink"><style id="fontImports">@import url("https://fonts.googleapis.com/css2?family=Libre+Baskerville:wght@400;700&amp;display=block");</style><g id="items" style="isolation: isolate"><g id="blend" style="mix-blend-mode:normal"><g id="g-root--1.cu_sy_1q8ui2e9quqkk-fill" data-item-order="999876452" data-item-id="-1.cu_sy_1q8ui2e9quqkk" data-item-class="Part Fill Stroke" data-item-index="-1" data-renderer-id="0" transform="translate(302, 86)"></g><g id="g-root--1.cu_sy_1q8ui2e9quqkk-fill" data-item-order="999876452" data-item-id="-1.cu_sy_1q8ui2e9quqkk" data-item-class="Part Fill Stroke" data-item-index="-1" data-renderer-id="0" transform="translate(302, 86)"></g><g id="g-root-6.line_sy_18hkhkm9qusxu-fill" data-item-order="999876455" data-item-id="6.line_sy_18hkhkm9qusxu" data-item-class="Curve Stroke Part Indexed" data-item-index="6" data-renderer-id="0" transform="translate(218, 361.99993896484375)"></g><g id="g-root-6.line_sy_18hkhkm9qusxu-fill" data-item-order="999876455" data-item-id="6.line_sy_18hkhkm9qusxu" data-item-class="Curve Stroke Part Indexed" data-item-index="6" data-renderer-id="0" transform="translate(218, 361.99993896484375)"></g><g id="g-root-5.line_sy_1cxdzp29qus5l-fill" data-item-order="999876457" data-item-id="5.line_sy_1cxdzp29qus5l" data-item-class="Curve Stroke Part Indexed" data-item-index="5" data-renderer-id="0" transform="translate(218, 348)"></g><g id="g-root-5.line_sy_1cxdzp29qus5l-fill" data-item-order="999876457" data-item-id="5.line_sy_1cxdzp29qus5l" data-item-class="Curve Stroke Part Indexed" data-item-index="5" data-renderer-id="0" transform="translate(218, 348)"></g><g id="g-root-4.line_sy_1cxdzp29qus5k-fill" data-item-order="999876459" data-item-id="4.line_sy_1cxdzp29qus5k" data-item-class="Curve Stroke Part Indexed" data-item-index="4" data-renderer-id="0" transform="translate(218, 330)"></g><g id="g-root-4.line_sy_1cxdzp29qus5k-fill" data-item-order="999876459" data-item-id="4.line_sy_1cxdzp29qus5k" data-item-class="Curve Stroke Part Indexed" data-item-index="4" data-renderer-id="0" transform="translate(218, 330)"></g><g id="g-root-3.line_sy_1cxdzp29qus5j-fill" data-item-order="999876461" data-item-id="3.line_sy_1cxdzp29qus5j" data-item-class="Curve Stroke Part Indexed" data-item-index="3" data-renderer-id="0" transform="translate(218.109375, 278)"></g><g id="g-root-3.line_sy_1cxdzp29qus5j-fill" data-item-order="999876461" data-item-id="3.line_sy_1cxdzp29qus5j" data-item-class="Curve Stroke Part Indexed" data-item-index="3" data-renderer-id="0" transform="translate(218.109375, 278)"></g><g id="g-root-2.line_sy_1hd7hti9qurda-fill" data-item-order="999876463" data-item-id="2.line_sy_1hd7hti9qurda" data-item-class="Curve Stroke Part Indexed" data-item-index="2" data-renderer-id="0" transform="translate(218, 194)"></g><g id="g-root-2.line_sy_1hd7hti9qurda-fill" data-item-order="999876463" data-item-id="2.line_sy_1hd7hti9qurda" data-item-class="Curve Stroke Part Indexed" data-item-index="2" data-renderer-id="0" transform="translate(218, 194)"></g><g id="g-root-1.line_sy_1hd7hti9qurd9-fill" data-item-order="999876465" data-item-id="1.line_sy_1hd7hti9qurd9" data-item-class="Curve Stroke Part Indexed Indexed_1" data-item-index="1" data-renderer-id="0" transform="translate(218, 110)"></g><g id="g-root-1.line_sy_1hd7hti9qurd9-fill" data-item-order="999876465" data-item-id="1.line_sy_1hd7hti9qurd9" data-item-class="Curve Stroke Part Indexed Indexed_1" data-item-index="1" data-renderer-id="0" transform="translate(218, 110)"></g><g id="g-root-mega_141qzg69qw7wu-fill" data-item-order="1000000000" data-item-id="mega_141qzg69qw7wu" data-item-class="Icon Stroke Indexed" data-item-index="2" data-renderer-id="0" transform="translate(158, 170)"></g><g id="g-root-mega_141qzg69qw7wu-fill" data-item-order="1000000000" data-item-id="mega_141qzg69qw7wu" data-item-class="Icon Stroke Indexed" data-item-index="2" data-renderer-id="0" transform="translate(158, 170)"></g><g id="g-root-tx_invoicin_hu0zqu9quqrk-fill" data-item-order="1000000000" data-item-id="tx_invoicin_hu0zqu9quqrk" data-item-class="Label Stroke Indexed" data-item-index="3" data-renderer-id="0" transform="translate(38, 266)"><g id="tx_invoicin_hu0zqu9quqrk-fill" stroke="none" fill="#F99539"><g><text style="font: 20px &quot;Libre Baskerville&quot;, serif; white-space: pre;" font-weight="20px" font-size="&quot;Libre" font-family="Baskerville', serif"><tspan x="19.33" y="34" dominant-baseline="ideographic">Invoicing</tspan></text></g></g></g><g id="g-root-tx_invoicin_hu0zqu9quqrk-fill" data-item-order="1000000000" data-item-id="tx_invoicin_hu0zqu9quqrk" data-item-class="Label Stroke Indexed" data-item-index="3" data-renderer-id="0" transform="translate(38, 266)"><g id="tx_invoicin_hu0zqu9quqrk-fill" stroke="none" fill="#F99539"><g><text style="font: 20px &quot;Libre Baskerville&quot;, serif; white-space: pre;" font-weight="20px" font-size="&quot;Libre" font-family="Baskerville', serif"><tspan x="19.33" y="34" dominant-baseline="ideographic">Invoicing</tspan></text></g></g></g><g id="g-root-prin_dfgfsm9ra80f-fill" data-item-order="1000000000" data-item-id="prin_dfgfsm9ra80f" data-item-class="Icon Stroke Indexed" data-item-index="3" data-renderer-id="0" transform="translate(158, 254)"></g><g id="g-root-prin_dfgfsm9ra80f-fill" data-item-order="1000000000" data-item-id="prin_dfgfsm9ra80f" data-item-class="Icon Stroke Indexed" data-item-index="3" data-renderer-id="0" transform="translate(158, 254)"></g><g id="g-root-tx_salescam_8ydzhy9qurk9-fill" data-item-order="1000000000" data-item-id="tx_salescam_8ydzhy9qurk9" data-item-class="Label Stroke Indexed" data-item-index="2" data-renderer-id="0" transform="translate(26, 170)"><g id="tx_salescam_8ydzhy9qurk9-fill" stroke="none" fill="#F99539"><g><text style="font: 20px &quot;Libre Baskerville&quot;, serif; white-space: pre;" font-weight="20px" font-size="&quot;Libre" font-family="Baskerville', serif"><tspan x="76.97" y="34" dominant-baseline="ideographic">Sales </tspan><tspan x="13.09" y="58" dominant-baseline="ideographic">Campaigns</tspan></text></g></g></g><g id="g-root-tx_salescam_8ydzhy9qurk9-fill" data-item-order="1000000000" data-item-id="tx_salescam_8ydzhy9qurk9" data-item-class="Label Stroke Indexed" data-item-index="2" data-renderer-id="0" transform="translate(26, 170)"><g id="tx_salescam_8ydzhy9qurk9-fill" stroke="none" fill="#F99539"><g><text style="font: 20px &quot;Libre Baskerville&quot;, serif; white-space: pre;" font-weight="20px" font-size="&quot;Libre" font-family="Baskerville', serif"><tspan x="76.97" y="34" dominant-baseline="ideographic">Sales </tspan><tspan x="13.09" y="58" dominant-baseline="ideographic">Campaigns</tspan></text></g></g></g><g id="g-root-box_2qz929qyyva-fill" data-item-order="1000000000" data-item-id="box_2qz929qyyva" data-item-class="Icon Stroke" data-item-index="none" data-renderer-id="0" transform="translate(482, 296)"></g><g id="g-root-box_2qz929qyyva-fill" data-item-order="1000000000" data-item-id="box_2qz929qyyva" data-item-class="Icon Stroke" data-item-index="none" data-renderer-id="0" transform="translate(482, 296)"></g><g id="g-root-tx_business_140i19y9quqrw-fill" data-item-order="1000000000" data-item-id="tx_business_140i19y9quqrw" data-item-class="Label Stroke" data-item-index="none" data-renderer-id="0" transform="translate(542, 296)"><g id="tx_business_140i19y9quqrw-fill" stroke="none" fill="#F99539"><g><text style="font: 20px &quot;Libre Baskerville&quot;, serif; white-space: pre;" font-weight="20px" font-size="&quot;Libre" font-family="Baskerville', serif"><tspan x="12" y="34" dominant-baseline="ideographic">Business </tspan><tspan x="12" y="58" dominant-baseline="ideographic">Growth</tspan></text></g></g></g><g id="g-root-tx_business_140i19y9quqrw-fill" data-item-order="1000000000" data-item-id="tx_business_140i19y9quqrw" data-item-class="Label Stroke" data-item-index="none" data-renderer-id="0" transform="translate(542, 296)"><g id="tx_business_140i19y9quqrw-fill" stroke="none" fill="#F99539"><g><text style="font: 20px &quot;Libre Baskerville&quot;, serif; white-space: pre;" font-weight="20px" font-size="&quot;Libre" font-family="Baskerville', serif"><tspan x="12" y="34" dominant-baseline="ideographic">Business </tspan><tspan x="12" y="58" dominant-baseline="ideographic">Growth</tspan></text></g></g></g><g id="g-root-tx_delivery_m980s69qut53-fill" data-item-order="1000000000" data-item-id="tx_delivery_m980s69qut53" data-item-class="Label Stroke Indexed" data-item-index="4" data-renderer-id="0" transform="translate(50, 338)"><g id="tx_delivery_m980s69qut53-fill" stroke="none" fill="#F99539"><g><text style="font: 20px &quot;Libre Baskerville&quot;, serif; white-space: pre;" font-weight="20px" font-size="&quot;Libre" font-family="Baskerville', serif"><tspan x="16.09" y="34" dominant-baseline="ideographic">Delivery </tspan><tspan x="13.13" y="58" dominant-baseline="ideographic">Tracking</tspan></text></g></g></g><g id="g-root-tx_delivery_m980s69qut53-fill" data-item-order="1000000000" data-item-id="tx_delivery_m980s69qut53" data-item-class="Label Stroke Indexed" data-item-index="4" data-renderer-id="0" transform="translate(50, 338)"><g id="tx_delivery_m980s69qut53-fill" stroke="none" fill="#F99539"><g><text style="font: 20px &quot;Libre Baskerville&quot;, serif; white-space: pre;" font-weight="20px" font-size="&quot;Libre" font-family="Baskerville', serif"><tspan x="16.09" y="34" dominant-baseline="ideographic">Delivery </tspan><tspan x="13.13" y="58" dominant-baseline="ideographic">Tracking</tspan></text></g></g></g><g id="g-root-moni_dfgfsm9qyzgg-fill" data-item-order="1000000000" data-item-id="moni_dfgfsm9qyzgg" data-item-class="Icon Stroke Indexed" data-item-index="4" data-renderer-id="0" transform="translate(158, 338)"></g><g id="g-root-moni_dfgfsm9qyzgg-fill" data-item-order="1000000000" data-item-id="moni_dfgfsm9qyzgg" data-item-class="Icon Stroke Indexed" data-item-index="4" data-renderer-id="0" transform="translate(158, 338)"></g><g id="g-root-stor_1ursdme9quqyz-fill" data-item-order="1000000000" data-item-id="stor_1ursdme9quqyz" data-item-class="Icon Stroke Indexed Indexed_1" data-item-index="1" data-renderer-id="0" transform="translate(158, 86)"></g><g id="g-root-stor_1ursdme9quqyz-fill" data-item-order="1000000000" data-item-id="stor_1ursdme9quqyz" data-item-class="Icon Stroke Indexed Indexed_1" data-item-index="1" data-renderer-id="0" transform="translate(158, 86)"></g><g id="g-root-tx_inventor_4ikhdi9qusci-fill" data-item-order="1000000000" data-item-id="tx_inventor_4ikhdi9qusci" data-item-class="Label Stroke Indexed Indexed_1" data-item-index="1" data-renderer-id="0" transform="translate(2, 86)"><g id="tx_inventor_4ikhdi9qusci-fill" stroke="none" fill="#F99539"><g><text style="font: 20px &quot;Libre Baskerville&quot;, serif; white-space: pre;" font-weight="20px" font-size="&quot;Libre" font-family="Baskerville', serif"><tspan x="50.33" y="34" dominant-baseline="ideographic">Inventory </tspan><tspan x="16.66" y="58" dominant-baseline="ideographic">Management</tspan></text></g></g></g><g id="g-root-tx_inventor_4ikhdi9qusci-fill" data-item-order="1000000000" data-item-id="tx_inventor_4ikhdi9qusci" data-item-class="Label Stroke Indexed Indexed_1" data-item-index="1" data-renderer-id="0" transform="translate(2, 86)"><g id="tx_inventor_4ikhdi9qusci-fill" stroke="none" fill="#F99539"><g><text style="font: 20px &quot;Libre Baskerville&quot;, serif; white-space: pre;" font-weight="20px" font-size="&quot;Libre" font-family="Baskerville', serif"><tspan x="50.33" y="34" dominant-baseline="ideographic">Inventory </tspan><tspan x="16.66" y="58" dominant-baseline="ideographic">Management</tspan></text></g></g></g><g id="g-root-tx_business_1uo1j3q9qusy3-fill" data-item-order="1000000000" data-item-id="tx_business_1uo1j3q9qusy3" data-item-class="Label Stroke Title" data-item-index="none" data-renderer-id="0" transform="translate(164, 2)"><g id="tx_business_1uo1j3q9qusy3-fill" stroke="none" fill="#F99539"><g><text style="font: bold 25px &quot;Libre Baskerville&quot;, serif; white-space: pre;" font-weight="bold" font-size="25" font-family="'Libre Baskerville', serif"><tspan x="17.28" y="43" dominant-baseline="ideographic">Business Growth Platform</tspan></text></g></g></g><g id="g-root-tx_seotools_qp1iwm9quscu-fill" data-item-order="1000000000" data-item-id="tx_seotools_qp1iwm9quscu" data-item-class="Label Stroke Indexed" data-item-index="5" data-renderer-id="0" transform="translate(26, 434)"><g id="tx_seotools_qp1iwm9quscu-fill" stroke="none" fill="#F99539"><g><text style="font: 20px &quot;Libre Baskerville&quot;, serif; white-space: pre;" font-weight="20px" font-size="&quot;Libre" font-family="Baskerville', serif"><tspan x="20.95" y="34" dominant-baseline="ideographic">SEO Tools</tspan></text></g></g></g><g id="g-root-tx_seotools_qp1iwm9quscu-fill" data-item-order="1000000000" data-item-id="tx_seotools_qp1iwm9quscu" data-item-class="Label Stroke Indexed" data-item-index="5" data-renderer-id="0" transform="translate(26, 434)"><g id="tx_seotools_qp1iwm9quscu-fill" stroke="none" fill="#F99539"><g><text style="font: 20px &quot;Libre Baskerville&quot;, serif; white-space: pre;" font-weight="20px" font-size="&quot;Libre" font-family="Baskerville', serif"><tspan x="20.95" y="34" dominant-baseline="ideographic">SEO Tools</tspan></text></g></g></g><g id="g-root-lapt_1hd7hti9qw6bx-fill" data-item-order="1000000000" data-item-id="lapt_1hd7hti9qw6bx" data-item-class="Icon Stroke Indexed" data-item-index="5" data-renderer-id="0" transform="translate(158, 422)"></g><g id="g-root-line_4ikhdi9qw7b7-fill" data-item-order="1000000000" data-item-id="line_4ikhdi9qw7b7" data-item-class="Icon Stroke Indexed" data-item-index="6" data-renderer-id="0" transform="translate(158, 506)"></g><g id="g-root-tx_advanced_qp1iwm9qusct-fill" data-item-order="1000000000" data-item-id="tx_advanced_qp1iwm9qusct" data-item-class="Label Stroke Indexed" data-item-index="6" data-renderer-id="0" transform="translate(38, 506)"><g id="tx_advanced_qp1iwm9qusct-fill" stroke="none" fill="#F99539"><g><text style="font: 20px &quot;Libre Baskerville&quot;, serif; white-space: pre;" font-weight="20px" font-size="&quot;Libre" font-family="Baskerville', serif"><tspan x="14.95" y="34" dominant-baseline="ideographic">Advanced </tspan><tspan x="22.36" y="58" dominant-baseline="ideographic">Analytics</tspan></text></g></g></g><g id="g-root-tx_advanced_qp1iwm9qusct-fill" data-item-order="1000000000" data-item-id="tx_advanced_qp1iwm9qusct" data-item-class="Label Stroke Indexed" data-item-index="6" data-renderer-id="0" transform="translate(38, 506)"><g id="tx_advanced_qp1iwm9qusct-fill" stroke="none" fill="#F99539"><g><text style="font: 20px &quot;Libre Baskerville&quot;, serif; white-space: pre;" font-weight="20px" font-size="&quot;Libre" font-family="Baskerville', serif"><tspan x="14.95" y="34" dominant-baseline="ideographic">Advanced </tspan><tspan x="22.36" y="58" dominant-baseline="ideographic">Analytics</tspan></text></g></g></g><g id="g-root-line_4ikhdi9qw7b7-fill" data-item-order="1000000000" data-item-id="line_4ikhdi9qw7b7" data-item-class="Icon Stroke Indexed" data-item-index="6" data-renderer-id="0" transform="translate(158, 506)"></g><g id="g-root-tx_business_1uo1j3q9qusy3-fill" data-item-order="1000000000" data-item-id="tx_business_1uo1j3q9qusy3" data-item-class="Label Stroke Title" data-item-index="none" data-renderer-id="0" transform="translate(164, 2)"><g id="tx_business_1uo1j3q9qusy3-fill" stroke="none" fill="#F99539"><g><text style="font: bold 25px &quot;Libre Baskerville&quot;, serif; white-space: pre;" font-weight="bold" font-size="25" font-family="'Libre Baskerville', serif"><tspan x="17.28" y="43" dominant-baseline="ideographic">Business Growth Platform</tspan></text></g></g></g><g id="g-root-lapt_1hd7hti9qw6bx-fill" data-item-order="1000000000" data-item-id="lapt_1hd7hti9qw6bx" data-item-class="Icon Stroke Indexed" data-item-index="5" data-renderer-id="0" transform="translate(158, 422)"></g><g id="g-root--1.cu_sy_1q8ui2e9quqkk-stroke" data-item-order="999876452" data-item-id="-1.cu_sy_1q8ui2e9quqkk" data-item-class="Part Fill Stroke" data-item-index="-1" data-renderer-id="0" transform="translate(302, 86)"><g id="-1.cu_sy_1q8ui2e9quqkk-stroke" fill="none" stroke-linecap="round" stroke-linejoin="round" stroke-miterlimit="4" stroke="#000000" stroke-width="2" stroke-dasharray="0.1, 6.0"><g><path d="M 65.8 478C 69.6 476.8 73.2 470 79.3 457.1C 85.2 444.6 89.8 425.6 92.8 402.6C 95.3 383.4 97.4 361.3 101.6 337.4C 106.6 309.1 106.8 277.2 106 244C 105.2 213.6 105 184.5 102.3 157.9C 99.1 126.9 93.7 99.3 91 76.2C 88.4 53.4 81.2 36.2 76.8 24.5C 73.3 15 69 9.4 65.8 10C 69.3 9.1 72.6 16.1 75.9 27C 79.7 39.4 83.3 58.2 85.3 81.9C 87.2 102.6 89.8 126.9 90.8 153.7C 91.9 181.5 92.2 212 92.9 244C 94 291 93.2 335.1 88.5 371.6C 84.4 404.5 80.7 431.6 78.5 450.5C 76.5 468.4 70.4 477.7 65.8 478M 65.8 478C 69.3 477.4 71.5 471.8 75.8 461.6C 80 451.5 81.9 436.1 84 417.4C 86.4 396 89.7 370.2 90.5 341C 91.3 311.4 94.6 278.5 92.9 244C 91.5 213.9 93 185 91.1 158.5C 89 131 89.5 105.7 85.6 84.6C 81.4 61.3 78.6 42.3 76.5 29C 74.5 16.5 69.5 10.6 65.8 10C 61.2 9.3 56.4 11.2 52 10C 55.3 11.6 59.9 18.4 61 29.5C 62.3 41.4 66.6 57.4 69.1 77.2C 71.6 97.2 73.6 120.8 74.8 146.9C 76.1 176.5 76.5 209.4 77.2 244C 78 285.2 74.7 323.9 73.6 357.6C 72.7 388.1 69.1 414.5 65.4 434.7C 60.8 459.2 57.1 476.4 51.3 478C 56.1 478 61 479 65.8 478M 77.2 244C 78.6 276.8 77.2 308.1 74.9 336.5C 72.7 363.4 71.8 387.8 69 408.4C 66.5 427.6 64.2 443.6 61.2 455.5C 58.1 468 55.1 476.6 51.3 478C 50.9 478 50.5 478.1 50.1 478C 46.3 476.8 40.8 470.9 36.7 457.6C 33.1 445.7 29.9 429.1 24.4 409.4C 19 389.9 15.4 366.3 14.6 340.2C 13.8 310.8 9.4 278.3 10 244C 10.4 221.1 11.8 199 12.2 178C 12.5 159.2 16.2 141.6 17.2 125.1C 18.3 106.8 23.4 90.5 25 75.7C 26.3 63 31.7 52.5 32.7 42.9C 34 31.1 39.2 22.6 42.6 17.1C 45.3 12.5 47.8 10 50.1 10C 50.7 10 52 10 52 10C 55.7 12 57.8 20.9 62.1 33.8C 66.4 46.7 69.4 65.1 70.2 87C 71 109.7 73.1 136.2 75.6 165.2C 77.7 189.8 76.5 216.4 77.2 244"></path><path d="M 65.766602 478C 80.754802 478 106.000002 373.2347 106.000002 244C 106.000002 114.7654 80.754802 10 65.766602 10C 80.775202 10.0122 92.941702 115.0836 92.941702 244C 92.941702 372.9165 80.775202 477.9878 65.766602 478ZM 65.765897 478C 80.774597 477.9878 92.941097 372.9165 92.941097 244C 92.941097 115.0836 80.774597 10.0122 65.765897 10L 51.957397 10C 66.060697 18.3945 77.199297 120.2626 77.199297 244C 77.199297 367.7375 65.382597 469.6055 51.279297 478L 65.765897 478ZM 77.2 244C 77.2 367.7375 65.3833 469.6055 51.28 478L 50.0615 478C 35.0734 478 10 373.2347 10 244C 10 114.7654 35.0734 10 50.0615 10C 50.6991 10 51.9581 10 51.9581 10C 66.0614 18.3945 77.2 120.2626 77.2 244Z"></path></g></g></g><g id="g-root--1.cu_sy_1q8ui2e9quqkk-stroke" data-item-order="999876452" data-item-id="-1.cu_sy_1q8ui2e9quqkk" data-item-class="Part Fill Stroke" data-item-index="-1" data-renderer-id="0" transform="translate(302, 86)"><g id="-1.cu_sy_1q8ui2e9quqkk-stroke" fill="none" stroke-linecap="round" stroke-linejoin="round" stroke-miterlimit="4" stroke="#000000" stroke-width="2" stroke-dasharray="0.1, 6.0"><g><path d="M 65.8 478C 69.6 476.8 73.2 470 79.3 457.1C 85.2 444.6 89.8 425.6 92.8 402.6C 95.3 383.4 97.4 361.3 101.6 337.4C 106.6 309.1 106.8 277.2 106 244C 105.2 213.6 105 184.5 102.3 157.9C 99.1 126.9 93.7 99.3 91 76.2C 88.4 53.4 81.2 36.2 76.8 24.5C 73.3 15 69 9.4 65.8 10C 69.3 9.1 72.6 16.1 75.9 27C 79.7 39.4 83.3 58.2 85.3 81.9C 87.2 102.6 89.8 126.9 90.8 153.7C 91.9 181.5 92.2 212 92.9 244C 94 291 93.2 335.1 88.5 371.6C 84.4 404.5 80.7 431.6 78.5 450.5C 76.5 468.4 70.4 477.7 65.8 478M 65.8 478C 69.3 477.4 71.5 471.8 75.8 461.6C 80 451.5 81.9 436.1 84 417.4C 86.4 396 89.7 370.2 90.5 341C 91.3 311.4 94.6 278.5 92.9 244C 91.5 213.9 93 185 91.1 158.5C 89 131 89.5 105.7 85.6 84.6C 81.4 61.3 78.6 42.3 76.5 29C 74.5 16.5 69.5 10.6 65.8 10C 61.2 9.3 56.4 11.2 52 10C 55.3 11.6 59.9 18.4 61 29.5C 62.3 41.4 66.6 57.4 69.1 77.2C 71.6 97.2 73.6 120.8 74.8 146.9C 76.1 176.5 76.5 209.4 77.2 244C 78 285.2 74.7 323.9 73.6 357.6C 72.7 388.1 69.1 414.5 65.4 434.7C 60.8 459.2 57.1 476.4 51.3 478C 56.1 478 61 479 65.8 478M 77.2 244C 78.6 276.8 77.2 308.1 74.9 336.5C 72.7 363.4 71.8 387.8 69 408.4C 66.5 427.6 64.2 443.6 61.2 455.5C 58.1 468 55.1 476.6 51.3 478C 50.9 478 50.5 478.1 50.1 478C 46.3 476.8 40.8 470.9 36.7 457.6C 33.1 445.7 29.9 429.1 24.4 409.4C 19 389.9 15.4 366.3 14.6 340.2C 13.8 310.8 9.4 278.3 10 244C 10.4 221.1 11.8 199 12.2 178C 12.5 159.2 16.2 141.6 17.2 125.1C 18.3 106.8 23.4 90.5 25 75.7C 26.3 63 31.7 52.5 32.7 42.9C 34 31.1 39.2 22.6 42.6 17.1C 45.3 12.5 47.8 10 50.1 10C 50.7 10 52 10 52 10C 55.7 12 57.8 20.9 62.1 33.8C 66.4 46.7 69.4 65.1 70.2 87C 71 109.7 73.1 136.2 75.6 165.2C 77.7 189.8 76.5 216.4 77.2 244"></path><path d="M 65.766602 478C 80.754802 478 106.000002 373.2347 106.000002 244C 106.000002 114.7654 80.754802 10 65.766602 10C 80.775202 10.0122 92.941702 115.0836 92.941702 244C 92.941702 372.9165 80.775202 477.9878 65.766602 478ZM 65.765897 478C 80.774597 477.9878 92.941097 372.9165 92.941097 244C 92.941097 115.0836 80.774597 10.0122 65.765897 10L 51.957397 10C 66.060697 18.3945 77.199297 120.2626 77.199297 244C 77.199297 367.7375 65.382597 469.6055 51.279297 478L 65.765897 478ZM 77.2 244C 77.2 367.7375 65.3833 469.6055 51.28 478L 50.0615 478C 35.0734 478 10 373.2347 10 244C 10 114.7654 35.0734 10 50.0615 10C 50.6991 10 51.9581 10 51.9581 10C 66.0614 18.3945 77.2 120.2626 77.2 244Z"></path></g></g></g><g id="g-root-6.line_sy_18hkhkm9qusxu-stroke" data-item-order="999876455" data-item-id="6.line_sy_18hkhkm9qusxu" data-item-class="Curve Stroke Part Indexed" data-item-index="6" data-renderer-id="0" transform="translate(218, 361.99993896484375)"><g id="6.line_sy_18hkhkm9qusxu-stroke" fill="none" stroke-linecap="round" stroke-linejoin="round" stroke-miterlimit="4" stroke="#F99539" stroke-width="2" stroke-dasharray="0.1, 6.0"><g><path d="M 272.7 11.520081C 256.7 31.620081 240 51.320081 222.5 70.120081C 205.3 88.420081 189.6 108.120081 173.4 127.320081C 159.1 144.320081 144.3 160.920081 130 178.020081C 110.9 178.320081 91.7 176.320081 72.7 178.020081C 51.9 179.820081 30.9 178.920081 10 178.020081"></path><path d="M 272.7 11.520081L 130 178.000081L 10 178.000081"></path><path d="M 273.7 20.320081C 272.6 17.420081 272.1 14.020081 273 11.120081C 270 11.620081 266.9 11.420081 263.9 11.820081" stroke-dasharray="none"></path><path d="M 273.7 20.320081L 273 11.120081L 263.9 11.820081" stroke-dasharray="none"></path></g></g></g><g id="g-root-6.line_sy_18hkhkm9qusxu-stroke" data-item-order="999876455" data-item-id="6.line_sy_18hkhkm9qusxu" data-item-class="Curve Stroke Part Indexed" data-item-index="6" data-renderer-id="0" transform="translate(218, 361.99993896484375)"><g id="6.line_sy_18hkhkm9qusxu-stroke" fill="none" stroke-linecap="round" stroke-linejoin="round" stroke-miterlimit="4" stroke="#F99539" stroke-width="2" stroke-dasharray="0.1, 6.0"><g><path d="M 272.7 11.520081C 256.7 31.620081 240 51.320081 222.5 70.120081C 205.3 88.420081 189.6 108.120081 173.4 127.320081C 159.1 144.320081 144.3 160.920081 130 178.020081C 110.9 178.320081 91.7 176.320081 72.7 178.020081C 51.9 179.820081 30.9 178.920081 10 178.020081"></path><path d="M 272.7 11.520081L 130 178.000081L 10 178.000081"></path><path d="M 273.7 20.320081C 272.6 17.420081 272.1 14.020081 273 11.120081C 270 11.620081 266.9 11.420081 263.9 11.820081" stroke-dasharray="none"></path><path d="M 273.7 20.320081L 273 11.120081L 263.9 11.820081" stroke-dasharray="none"></path></g></g></g><g id="g-root-5.line_sy_1cxdzp29qus5l-stroke" data-item-order="999876457" data-item-id="5.line_sy_1cxdzp29qus5l" data-item-class="Curve Stroke Part Indexed" data-item-index="5" data-renderer-id="0" transform="translate(218, 348)"><g id="5.line_sy_1cxdzp29qus5l-stroke" fill="none" stroke-linecap="round" stroke-linejoin="round" stroke-miterlimit="4" stroke="#F99539" stroke-width="2" stroke-dasharray="0.1, 6.0"><g><path d="M 257.4 11.209961C 244.4 22.309961 229.7 31.309961 216.6 42.209961C 202.8 53.709961 188.8 65.209961 173.6 74.809961C 158.2 84.709961 144.1 96.409961 130 108.009961C 115.8 107.509961 101.7 108.509961 87.5 108.009961C 73.6 107.509961 59.7 108.409961 45.9 108.009961C 33.9 107.609961 21.9 106.609961 10 108.009961"></path><path d="M 257.41 11.209961L 130 107.999961L 10 107.999961"></path><path d="M 256.6 20.009961C 256.4 16.909961 257.6 14.009961 257.8 10.909961C 254.8 10.609961 251.4 11.009961 248.7 9.709961" stroke-dasharray="none"></path><path d="M 256.6 20.009961L 257.8 10.909961L 248.7 9.709961" stroke-dasharray="none"></path></g></g></g><g id="g-root-5.line_sy_1cxdzp29qus5l-stroke" data-item-order="999876457" data-item-id="5.line_sy_1cxdzp29qus5l" data-item-class="Curve Stroke Part Indexed" data-item-index="5" data-renderer-id="0" transform="translate(218, 348)"><g id="5.line_sy_1cxdzp29qus5l-stroke" fill="none" stroke-linecap="round" stroke-linejoin="round" stroke-miterlimit="4" stroke="#F99539" stroke-width="2" stroke-dasharray="0.1, 6.0"><g><path d="M 257.4 11.209961C 244.4 22.309961 229.7 31.309961 216.6 42.209961C 202.8 53.709961 188.8 65.209961 173.6 74.809961C 158.2 84.709961 144.1 96.409961 130 108.009961C 115.8 107.509961 101.7 108.509961 87.5 108.009961C 73.6 107.509961 59.7 108.409961 45.9 108.009961C 33.9 107.609961 21.9 106.609961 10 108.009961"></path><path d="M 257.41 11.209961L 130 107.999961L 10 107.999961"></path><path d="M 256.6 20.009961C 256.4 16.909961 257.6 14.009961 257.8 10.909961C 254.8 10.609961 251.4 11.009961 248.7 9.709961" stroke-dasharray="none"></path><path d="M 256.6 20.009961L 257.8 10.909961L 248.7 9.709961" stroke-dasharray="none"></path></g></g></g><g id="g-root-4.line_sy_1cxdzp29qus5k-stroke" data-item-order="999876459" data-item-id="4.line_sy_1cxdzp29qus5k" data-item-class="Curve Stroke Part Indexed" data-item-index="4" data-renderer-id="0" transform="translate(218, 330)"><g id="4.line_sy_1cxdzp29qus5k-stroke" fill="none" stroke-linecap="round" stroke-linejoin="round" stroke-miterlimit="4" stroke="#F99539" stroke-width="2" stroke-dasharray="0.1, 6.0"><g><path d="M 250.1 10.51001C 235.9 13.81001 222.1 19.01001 207.8 21.61001C 195.8 23.81001 184.2 28.01001 172.3 30.91001C 158.1 34.31001 144.2 38.91001 130 42.01001C 110 41.11001 89.9 42.91001 70 42.01001C 50 41.01001 30 42.91001 10 42.01001"></path><path d="M 250.07 10.51001L 130 42.00001L 10 42.00001"></path><path d="M 245.9 18.31001C 247.5 15.71001 248.8 12.91001 250.5 10.41001C 247.9 8.71001 245.1 7.51001 242.6 5.71001" stroke-dasharray="none"></path><path d="M 245.9 18.31001L 250.5 10.41001L 242.6 5.71001" stroke-dasharray="none"></path></g></g></g><g id="g-root-4.line_sy_1cxdzp29qus5k-stroke" data-item-order="999876459" data-item-id="4.line_sy_1cxdzp29qus5k" data-item-class="Curve Stroke Part Indexed" data-item-index="4" data-renderer-id="0" transform="translate(218, 330)"><g id="4.line_sy_1cxdzp29qus5k-stroke" fill="none" stroke-linecap="round" stroke-linejoin="round" stroke-miterlimit="4" stroke="#F99539" stroke-width="2" stroke-dasharray="0.1, 6.0"><g><path d="M 250.1 10.51001C 235.9 13.81001 222.1 19.01001 207.8 21.61001C 195.8 23.81001 184.2 28.01001 172.3 30.91001C 158.1 34.31001 144.2 38.91001 130 42.01001C 110 41.11001 89.9 42.91001 70 42.01001C 50 41.01001 30 42.91001 10 42.01001"></path><path d="M 250.07 10.51001L 130 42.00001L 10 42.00001"></path><path d="M 245.9 18.31001C 247.5 15.71001 248.8 12.91001 250.5 10.41001C 247.9 8.71001 245.1 7.51001 242.6 5.71001" stroke-dasharray="none"></path><path d="M 245.9 18.31001L 250.5 10.41001L 242.6 5.71001" stroke-dasharray="none"></path></g></g></g><g id="g-root-3.line_sy_1cxdzp29qus5j-stroke" data-item-order="999876461" data-item-id="3.line_sy_1cxdzp29qus5j" data-item-class="Curve Stroke Part Indexed" data-item-index="3" data-renderer-id="0" transform="translate(218.109375, 278)"><g id="3.line_sy_1cxdzp29qus5j-stroke" fill="none" stroke-linecap="round" stroke-linejoin="round" stroke-miterlimit="4" stroke="#F99539" stroke-width="2" stroke-dasharray="0.1, 6.0"><g><path d="M 250.00061 41.5C 230.60061 36.6 211.60061 30.7 192.10061 26.3C 171.20061 21.6 150.90061 14.5 129.90061 10C 116.70061 9.8 103.50061 8.8 90.30061 10C 76.40061 11.3 62.40061 9.9 48.40061 10C 35.60061 10.1 22.80061 9.6 10.00061 10"></path><path d="M 249.96061 41.49L 129.89061 10L 10.00061 10"></path><path d="M 242.50061 46.3C 245.00061 44.6 248.20061 43.7 250.40061 41.6C 248.60061 39.1 248.00061 35.8 245.80061 33.7" stroke-dasharray="none"></path><path d="M 242.50061 46.3L 250.40061 41.6L 245.80061 33.7" stroke-dasharray="none"></path></g></g></g><g id="g-root-3.line_sy_1cxdzp29qus5j-stroke" data-item-order="999876461" data-item-id="3.line_sy_1cxdzp29qus5j" data-item-class="Curve Stroke Part Indexed" data-item-index="3" data-renderer-id="0" transform="translate(218.109375, 278)"><g id="3.line_sy_1cxdzp29qus5j-stroke" fill="none" stroke-linecap="round" stroke-linejoin="round" stroke-miterlimit="4" stroke="#F99539" stroke-width="2" stroke-dasharray="0.1, 6.0"><g><path d="M 250.00061 41.5C 230.60061 36.6 211.60061 30.7 192.10061 26.3C 171.20061 21.6 150.90061 14.5 129.90061 10C 116.70061 9.8 103.50061 8.8 90.30061 10C 76.40061 11.3 62.40061 9.9 48.40061 10C 35.60061 10.1 22.80061 9.6 10.00061 10"></path><path d="M 249.96061 41.49L 129.89061 10L 10.00061 10"></path><path d="M 242.50061 46.3C 245.00061 44.6 248.20061 43.7 250.40061 41.6C 248.60061 39.1 248.00061 35.8 245.80061 33.7" stroke-dasharray="none"></path><path d="M 242.50061 46.3L 250.40061 41.6L 245.80061 33.7" stroke-dasharray="none"></path></g></g></g><g id="g-root-2.line_sy_1hd7hti9qurda-stroke" data-item-order="999876463" data-item-id="2.line_sy_1hd7hti9qurda" data-item-class="Curve Stroke Part Indexed" data-item-index="2" data-renderer-id="0" transform="translate(218, 194)"><g id="2.line_sy_1hd7hti9qurda-stroke" fill="none" stroke-linecap="round" stroke-linejoin="round" stroke-miterlimit="4" stroke="#F99539" stroke-width="2" stroke-dasharray="0.1, 6.0"><g><path d="M 257.4 106.8C 241.6 96.3 226.4 84.9 212.2 72.4C 198.2 60.2 182.9 49.7 167.9 38.8C 155.1 29.4 143.5 18.3 130 10C 117.6 10.4 105.1 12 92.8 10C 79.5 7.8 65.7 11.3 52.2 10C 38.2 8.7 24 11.3 10 10"></path><path d="M 257.41 106.79L 130 10L 10 10"></path><path d="M 248.7 108.3C 251.4 106.9 254.8 106.9 257.8 107.1C 257.1 104.1 257.2 101 256.6 98" stroke-dasharray="none"></path><path d="M 248.7 108.3L 257.8 107.1L 256.6 98" stroke-dasharray="none"></path></g></g></g><g id="g-root-2.line_sy_1hd7hti9qurda-stroke" data-item-order="999876463" data-item-id="2.line_sy_1hd7hti9qurda" data-item-class="Curve Stroke Part Indexed" data-item-index="2" data-renderer-id="0" transform="translate(218, 194)"><g id="2.line_sy_1hd7hti9qurda-stroke" fill="none" stroke-linecap="round" stroke-linejoin="round" stroke-miterlimit="4" stroke="#F99539" stroke-width="2" stroke-dasharray="0.1, 6.0"><g><path d="M 257.4 106.8C 241.6 96.3 226.4 84.9 212.2 72.4C 198.2 60.2 182.9 49.7 167.9 38.8C 155.1 29.4 143.5 18.3 130 10C 117.6 10.4 105.1 12 92.8 10C 79.5 7.8 65.7 11.3 52.2 10C 38.2 8.7 24 11.3 10 10"></path><path d="M 257.41 106.79L 130 10L 10 10"></path><path d="M 248.7 108.3C 251.4 106.9 254.8 106.9 257.8 107.1C 257.1 104.1 257.2 101 256.6 98" stroke-dasharray="none"></path><path d="M 248.7 108.3L 257.8 107.1L 256.6 98" stroke-dasharray="none"></path></g></g></g><g id="g-root-1.line_sy_1hd7hti9qurd9-stroke" data-item-order="999876465" data-item-id="1.line_sy_1hd7hti9qurd9" data-item-class="Curve Stroke Part Indexed Indexed_1" data-item-index="1" data-renderer-id="0" transform="translate(218, 110)"><g id="1.line_sy_1hd7hti9qurd9-stroke" fill="none" stroke-linecap="round" stroke-linejoin="round" stroke-miterlimit="4" stroke="#F99539" stroke-width="2" stroke-dasharray="0.1, 6.0"><g><path d="M 272.7 176.5C 255.4 157.4 238.2 138.1 222.3 117.7C 208.2 99.6 193.2 82.2 177.5 65.4C 160.8 47.7 145.8 28.5 130 10C 111 11 92 10.8 73 10C 52 9.2 31 10.2 10 10"></path><path d="M 272.7 176.48L 130 10L 10 10"></path><path d="M 263.9 176.2C 266.9 176 270.1 175.9 273 176.9C 273.3 173.8 273.8 170.8 273.7 167.7" stroke-dasharray="none"></path><path d="M 263.9 176.2L 273 176.9L 273.7 167.7" stroke-dasharray="none"></path></g></g></g><g id="g-root-1.line_sy_1hd7hti9qurd9-stroke" data-item-order="999876465" data-item-id="1.line_sy_1hd7hti9qurd9" data-item-class="Curve Stroke Part Indexed Indexed_1" data-item-index="1" data-renderer-id="0" transform="translate(218, 110)"><g id="1.line_sy_1hd7hti9qurd9-stroke" fill="none" stroke-linecap="round" stroke-linejoin="round" stroke-miterlimit="4" stroke="#F99539" stroke-width="2" stroke-dasharray="0.1, 6.0"><g><path d="M 272.7 176.5C 255.4 157.4 238.2 138.1 222.3 117.7C 208.2 99.6 193.2 82.2 177.5 65.4C 160.8 47.7 145.8 28.5 130 10C 111 11 92 10.8 73 10C 52 9.2 31 10.2 10 10"></path><path d="M 272.7 176.48L 130 10L 10 10"></path><path d="M 263.9 176.2C 266.9 176 270.1 175.9 273 176.9C 273.3 173.8 273.8 170.8 273.7 167.7" stroke-dasharray="none"></path><path d="M 263.9 176.2L 273 176.9L 273.7 167.7" stroke-dasharray="none"></path></g></g></g><g id="g-root-mega_141qzg69qw7wu-stroke" data-item-order="1000000000" data-item-id="mega_141qzg69qw7wu" data-item-class="Icon Stroke Indexed" data-item-index="2" data-renderer-id="0" transform="translate(158, 170)"><g id="mega_141qzg69qw7wu-stroke" fill="none" stroke-linecap="round" stroke-linejoin="round" stroke-miterlimit="4" stroke="#F99539" stroke-width="2"><g><path d="M 35.599998 41.200001C 28.799999 39.200001 21.4 42.799999 14.6 41.200001C 12.8 40.799999 11.8 39.799999 11.6 38.200001C 10.4 30.200001 9.4 21.799999 11.6 14.2C 12 12.6 13 10.8 14.6 11.2C 26 14.4 38.799999 13.8 50.599998 11.2C 52.200001 10.8 53.400002 12.6 53.599998 14.2C 54.200001 20.4 51.400002 27.200001 53.599998 33.200001M 52.799999 12.2C 48.599998 17.6 41 19.6 36.599998 24.799999C 34.599998 27 30.799999 26.6 28.4 24.799999C 23 20.6 18.4 15 12.2 12.2M 40.799999 52.599998C 40 53 39.400002 53.599998 38.599998 53.799999C 36.200001 54.200001 34.599998 53.400002 33 51.799999C 31.4 50 32.599998 46.400002 35 46.200001C 35.799999 46 36.599998 45.599998 37.200001 45.200001C 39 47.200001 39.599998 50.200001 40.799999 52.599998M 40.799999 52.599998C 45.200001 50.599998 50.599998 48.200001 55 50.599998C 55.400002 50.799999 56 50.599998 56.400002 50.799999C 55 44.799999 52 39.400002 48.599998 34.200001C 48.200001 34.400002 48 35 47.799999 35.400002C 45.799999 40 41.200001 42.200001 37.200001 45.200001C 38.799999 47.400002 39.599998 50.200001 40.799999 52.599998M 40.799999 52.599998C 41.400002 54.799999 43.400002 56.599998 45.599998 56.799999M 35.5 41.16L 14.5 41.16C 12.843145 41.160004 11.5 39.816856 11.5 38.160004L 11.5 14.16C 11.5 12.503145 12.843145 11.16 14.5 11.16L 50.5 11.16C 52.156857 11.16 53.5 12.503145 53.5 14.16L 53.5 33.16M 52.821999 12.26L 36.534 24.788C 34.156044 26.618189 30.843956 26.618189 28.466 24.788L 12.177999 12.26M 40.799999 52.636002L 38.540001 53.706001C 36.458992 54.690723 33.973724 53.80201 32.988998 51.721001C 32.004276 49.639992 32.89299 47.154724 34.973999 46.170002L 37.234001 45.099998ZM 40.799999 52.636002C 45.220486 50.543758 50.161369 49.806801 55 50.518002L 56.498001 50.737999L 48.653999 34.16L 47.874001 35.458C 45.355865 39.652473 41.652206 43.007477 37.23 45.099998ZM 40.799999 52.636002C 41.744301 54.628212 43.464001 56.146229 45.557999 56.835999"></path></g></g></g><g id="g-root-mega_141qzg69qw7wu-stroke" data-item-order="1000000000" data-item-id="mega_141qzg69qw7wu" data-item-class="Icon Stroke Indexed" data-item-index="2" data-renderer-id="0" transform="translate(158, 170)"><g id="mega_141qzg69qw7wu-stroke" fill="none" stroke-linecap="round" stroke-linejoin="round" stroke-miterlimit="4" stroke="#F99539" stroke-width="2"><g><path d="M 35.599998 41.200001C 28.799999 39.200001 21.4 42.799999 14.6 41.200001C 12.8 40.799999 11.8 39.799999 11.6 38.200001C 10.4 30.200001 9.4 21.799999 11.6 14.2C 12 12.6 13 10.8 14.6 11.2C 26 14.4 38.799999 13.8 50.599998 11.2C 52.200001 10.8 53.400002 12.6 53.599998 14.2C 54.200001 20.4 51.400002 27.200001 53.599998 33.200001M 52.799999 12.2C 48.599998 17.6 41 19.6 36.599998 24.799999C 34.599998 27 30.799999 26.6 28.4 24.799999C 23 20.6 18.4 15 12.2 12.2M 40.799999 52.599998C 40 53 39.400002 53.599998 38.599998 53.799999C 36.200001 54.200001 34.599998 53.400002 33 51.799999C 31.4 50 32.599998 46.400002 35 46.200001C 35.799999 46 36.599998 45.599998 37.200001 45.200001C 39 47.200001 39.599998 50.200001 40.799999 52.599998M 40.799999 52.599998C 45.200001 50.599998 50.599998 48.200001 55 50.599998C 55.400002 50.799999 56 50.599998 56.400002 50.799999C 55 44.799999 52 39.400002 48.599998 34.200001C 48.200001 34.400002 48 35 47.799999 35.400002C 45.799999 40 41.200001 42.200001 37.200001 45.200001C 38.799999 47.400002 39.599998 50.200001 40.799999 52.599998M 40.799999 52.599998C 41.400002 54.799999 43.400002 56.599998 45.599998 56.799999M 35.5 41.16L 14.5 41.16C 12.843145 41.160004 11.5 39.816856 11.5 38.160004L 11.5 14.16C 11.5 12.503145 12.843145 11.16 14.5 11.16L 50.5 11.16C 52.156857 11.16 53.5 12.503145 53.5 14.16L 53.5 33.16M 52.821999 12.26L 36.534 24.788C 34.156044 26.618189 30.843956 26.618189 28.466 24.788L 12.177999 12.26M 40.799999 52.636002L 38.540001 53.706001C 36.458992 54.690723 33.973724 53.80201 32.988998 51.721001C 32.004276 49.639992 32.89299 47.154724 34.973999 46.170002L 37.234001 45.099998ZM 40.799999 52.636002C 45.220486 50.543758 50.161369 49.806801 55 50.518002L 56.498001 50.737999L 48.653999 34.16L 47.874001 35.458C 45.355865 39.652473 41.652206 43.007477 37.23 45.099998ZM 40.799999 52.636002C 41.744301 54.628212 43.464001 56.146229 45.557999 56.835999"></path></g></g></g><g id="g-root-tx_invoicin_hu0zqu9quqrk-stroke" data-item-order="1000000000" data-item-id="tx_invoicin_hu0zqu9quqrk" data-item-class="Label Stroke Indexed" data-item-index="3" data-renderer-id="0" transform="translate(38, 266)"></g><g id="g-root-tx_invoicin_hu0zqu9quqrk-stroke" data-item-order="1000000000" data-item-id="tx_invoicin_hu0zqu9quqrk" data-item-class="Label Stroke Indexed" data-item-index="3" data-renderer-id="0" transform="translate(38, 266)"></g><g id="g-root-prin_dfgfsm9ra80f-stroke" data-item-order="1000000000" data-item-id="prin_dfgfsm9ra80f" data-item-class="Icon Stroke Indexed" data-item-index="3" data-renderer-id="0" transform="translate(158, 254)"><g id="prin_dfgfsm9ra80f-stroke" fill="none" stroke-linecap="round" stroke-linejoin="round" stroke-miterlimit="4" stroke="#F99539" stroke-width="2"><g><path d="M 57 47.400002C 57 47.200001 56.799999 46.799999 56.799999 46.599998C 55.599998 42.400002 53.400002 38.599998 51 35C 39.799999 37.200001 28.4 35.400002 17 35C 14.6 38.599998 14.4 43.599998 11.2 46.599998C 11 46.799999 11 47.200001 11 47.400002C 11 50 11.2 52.599998 11 55C 11 56.200001 11.8 57 13 57C 27 58.200001 41.200001 59.599998 55 57C 56 56.799999 57 56 57 55C 57 52.400002 57.400002 50 57 47.400002M 27 53C 27 52.599998 26.799999 52.200001 27 52C 27.200001 51.400002 27.4 50.799999 28 51C 31.799999 52.400002 36 51 40 51C 40.599998 51 40.799999 51.400002 41 52C 41 52.400002 41 52.599998 41 53M 51 35C 39.799999 33.200001 28.4 35 17 35C 17 31.6 16.799999 28.4 17 25C 17 23.799999 18 23.200001 19 23C 28.799999 21.4 39.400002 20.200001 49 23C 50 23.4 51.200001 24 51 25C 50.200001 28.200001 50 31.799999 51 35M 21 27C 24.4 25.6 28.6 25.6 32 27C 32.200001 28.4 32.200001 29.6 32 31C 28.4 31 24.6 32 21 31C 20.6 29.799999 20.799999 28.4 21 27M 38 29C 41 29.4 44 29.200001 47 29M 29 19C 28.799999 17.4 29 15.6 29 14C 29 13.6 28.799999 13.4 28.6 13.2C 28.4 13 28 13 27.799999 13C 25.799999 13.2 23.799999 14 21.799999 14.6C 21.4 14.6 21 15 21 15.6C 21 16.6 21.200001 17.799999 21 19M 39 11C 43 11.2 47 11.2 51 11C 51.200001 13 50.200001 15.2 51 17C 47.200001 15.8 43 17.799999 39 17C 38.400002 15 39 13 39 11M 45 17C 45.200001 19 44.799999 21 45 23M 24 39C 24.6 38.799999 25.4 39.200001 26 39M 30 39C 30.6 38.799999 31.4 38.799999 32 39M 36 39C 36.599998 39.200001 37.400002 39.200001 38 39M 42 39C 42.599998 39.200001 43.400002 38.799999 44 39M 18 43C 18.6 42.799999 19.4 42.799999 20 43M 24 43C 24.6 43.200001 25.4 43 26 43M 30 43C 30.6 43.200001 31.4 43 32 43M 36 43C 36.599998 43.200001 37.400002 43.200001 38 43M 42 43C 42.599998 43.200001 43.400002 43 44 43M 48 43C 48.599998 43 49.400002 42.799999 50 43M 11 47C 26.4 46.400002 41.799999 45.400002 57 47M 57 47.472C 57.000183 47.161522 56.927574 46.855331 56.787998 46.577999L 51 35L 17 35L 11.212 46.577999C 11.072425 46.855331 10.999815 47.161522 11 47.471996L 11 55C 11 56.104568 11.895431 57 13 57L 55 57C 56.104568 57 57 56.104568 57 55ZM 27 53L 27 52C 27 51.447716 27.447716 51 28 51L 40 51C 40.552284 51 41 51.447716 41 52L 41 53M 51 35L 17 35L 17 25C 17 23.895432 17.895432 23 19 23L 49 23C 50.104568 23 51 23.895432 51 25ZM 21 27L 32 27L 32 31L 21 31ZM 38 29L 47 29M 29 19L 29 14C 28.999914 13.69221 28.858097 13.401607 28.61552 13.212155C 28.372946 13.022705 28.056641 12.955515 27.757999 13.03L 21.757999 14.530001C 21.312672 14.641071 21.000126 15.041029 21 15.5L 21 19M 39 11L 51 11L 51 17L 39 17ZM 45 17L 45 23M 24 39L 26 39M 30 39L 32 39M 36 39L 38 39M 42 39L 44 39M 18 43L 20 43M 24 43L 26 43M 30 43L 32 43M 36 43L 38 43M 42 43L 44 43M 48 43L 50 43M 11.046 47L 56.950001 47"></path></g></g></g><g id="g-root-prin_dfgfsm9ra80f-stroke" data-item-order="1000000000" data-item-id="prin_dfgfsm9ra80f" data-item-class="Icon Stroke Indexed" data-item-index="3" data-renderer-id="0" transform="translate(158, 254)"><g id="prin_dfgfsm9ra80f-stroke" fill="none" stroke-linecap="round" stroke-linejoin="round" stroke-miterlimit="4" stroke="#F99539" stroke-width="2"><g><path d="M 57 47.400002C 57 47.200001 56.799999 46.799999 56.799999 46.599998C 55.599998 42.400002 53.400002 38.599998 51 35C 39.799999 37.200001 28.4 35.400002 17 35C 14.6 38.599998 14.4 43.599998 11.2 46.599998C 11 46.799999 11 47.200001 11 47.400002C 11 50 11.2 52.599998 11 55C 11 56.200001 11.8 57 13 57C 27 58.200001 41.200001 59.599998 55 57C 56 56.799999 57 56 57 55C 57 52.400002 57.400002 50 57 47.400002M 27 53C 27 52.599998 26.799999 52.200001 27 52C 27.200001 51.400002 27.4 50.799999 28 51C 31.799999 52.400002 36 51 40 51C 40.599998 51 40.799999 51.400002 41 52C 41 52.400002 41 52.599998 41 53M 51 35C 39.799999 33.200001 28.4 35 17 35C 17 31.6 16.799999 28.4 17 25C 17 23.799999 18 23.200001 19 23C 28.799999 21.4 39.400002 20.200001 49 23C 50 23.4 51.200001 24 51 25C 50.200001 28.200001 50 31.799999 51 35M 21 27C 24.4 25.6 28.6 25.6 32 27C 32.200001 28.4 32.200001 29.6 32 31C 28.4 31 24.6 32 21 31C 20.6 29.799999 20.799999 28.4 21 27M 38 29C 41 29.4 44 29.200001 47 29M 29 19C 28.799999 17.4 29 15.6 29 14C 29 13.6 28.799999 13.4 28.6 13.2C 28.4 13 28 13 27.799999 13C 25.799999 13.2 23.799999 14 21.799999 14.6C 21.4 14.6 21 15 21 15.6C 21 16.6 21.200001 17.799999 21 19M 39 11C 43 11.2 47 11.2 51 11C 51.200001 13 50.200001 15.2 51 17C 47.200001 15.8 43 17.799999 39 17C 38.400002 15 39 13 39 11M 45 17C 45.200001 19 44.799999 21 45 23M 24 39C 24.6 38.799999 25.4 39.200001 26 39M 30 39C 30.6 38.799999 31.4 38.799999 32 39M 36 39C 36.599998 39.200001 37.400002 39.200001 38 39M 42 39C 42.599998 39.200001 43.400002 38.799999 44 39M 18 43C 18.6 42.799999 19.4 42.799999 20 43M 24 43C 24.6 43.200001 25.4 43 26 43M 30 43C 30.6 43.200001 31.4 43 32 43M 36 43C 36.599998 43.200001 37.400002 43.200001 38 43M 42 43C 42.599998 43.200001 43.400002 43 44 43M 48 43C 48.599998 43 49.400002 42.799999 50 43M 11 47C 26.4 46.400002 41.799999 45.400002 57 47M 57 47.472C 57.000183 47.161522 56.927574 46.855331 56.787998 46.577999L 51 35L 17 35L 11.212 46.577999C 11.072425 46.855331 10.999815 47.161522 11 47.471996L 11 55C 11 56.104568 11.895431 57 13 57L 55 57C 56.104568 57 57 56.104568 57 55ZM 27 53L 27 52C 27 51.447716 27.447716 51 28 51L 40 51C 40.552284 51 41 51.447716 41 52L 41 53M 51 35L 17 35L 17 25C 17 23.895432 17.895432 23 19 23L 49 23C 50.104568 23 51 23.895432 51 25ZM 21 27L 32 27L 32 31L 21 31ZM 38 29L 47 29M 29 19L 29 14C 28.999914 13.69221 28.858097 13.401607 28.61552 13.212155C 28.372946 13.022705 28.056641 12.955515 27.757999 13.03L 21.757999 14.530001C 21.312672 14.641071 21.000126 15.041029 21 15.5L 21 19M 39 11L 51 11L 51 17L 39 17ZM 45 17L 45 23M 24 39L 26 39M 30 39L 32 39M 36 39L 38 39M 42 39L 44 39M 18 43L 20 43M 24 43L 26 43M 30 43L 32 43M 36 43L 38 43M 42 43L 44 43M 48 43L 50 43M 11.046 47L 56.950001 47"></path></g></g></g><g id="g-root-tx_salescam_8ydzhy9qurk9-stroke" data-item-order="1000000000" data-item-id="tx_salescam_8ydzhy9qurk9" data-item-class="Label Stroke Indexed" data-item-index="2" data-renderer-id="0" transform="translate(26, 170)"></g><g id="g-root-tx_salescam_8ydzhy9qurk9-stroke" data-item-order="1000000000" data-item-id="tx_salescam_8ydzhy9qurk9" data-item-class="Label Stroke Indexed" data-item-index="2" data-renderer-id="0" transform="translate(26, 170)"></g><g id="g-root-box_2qz929qyyva-stroke" data-item-order="1000000000" data-item-id="box_2qz929qyyva" data-item-class="Icon Stroke" data-item-index="none" data-renderer-id="0" transform="translate(482, 296)"><g id="box_2qz929qyyva-stroke" fill="none" stroke-linecap="round" stroke-linejoin="round" stroke-miterlimit="4" stroke="#F99539" stroke-width="2"><g><path d="M 15 30.799999C 21.6 31.6 27.799999 34.200001 34 36.799999M 44.200001 28.4C 47 29.4 50.200001 29.6 53 30.799999M 34 36.799999C 39.799999 33.599998 47 33.599998 53 30.799999M 34 54.799999C 27.6 52.799999 20 52.200001 15 47.799999C 13.6 42.200001 13.8 36.200001 15 30.799999M 53 30.799999C 54.799999 36.200001 52.200001 42.200001 53 47.799999C 47.200001 51.200001 40.799999 54 34 54.799999C 33 48.799999 32.599998 42.599998 34 36.799999M 34 27.799999C 33.799999 25.799999 34.400002 23.799999 34 21.799999M 51 14.4C 49.599998 20.799999 41.400002 25.799999 36 22.200001C 35.400002 21.799999 34.599998 21.6 34 21.6C 35.400002 15 43 11.4 49 13.8C 49.799999 14 50.400002 14.4 51 14.4M 17 14.4C 17.799999 21 26 24.6 32 22.200001C 32.799999 22 33.400002 21.6 34 21.6C 31.4 15.6 25 11 19 13.8C 18.200001 14 17.6 14.2 17 14.4M 23.799999 28.4C 20.799999 28.200001 17.799999 29.4 15 30.799999M 15 30.761999L 34 36.762001M 44.158001 28.346001L 53 30.761999M 34 36.762001L 53 30.761999M 34 54.762001L 15 47.762001L 15 30.761999M 53 30.761999L 53 47.762001L 34 54.762001L 34 36.762001M 34 27.761999L 34 21.762001M 51 14.43C 48.971848 20.739162 42.213284 24.209776 35.903999 22.181999L 34 21.57C 36.028152 15.260839 42.786716 11.790225 49.096001 13.818ZM 17 14.43C 19.028152 20.739162 25.786716 24.209776 32.096001 22.181999L 34 21.57C 31.971848 15.260839 25.213284 11.790225 18.903999 13.818ZM 23.841999 28.346001L 15 30.761999"></path></g></g></g><g id="g-root-box_2qz929qyyva-stroke" data-item-order="1000000000" data-item-id="box_2qz929qyyva" data-item-class="Icon Stroke" data-item-index="none" data-renderer-id="0" transform="translate(482, 296)"><g id="box_2qz929qyyva-stroke" fill="none" stroke-linecap="round" stroke-linejoin="round" stroke-miterlimit="4" stroke="#F99539" stroke-width="2"><g><path d="M 15 30.799999C 21.6 31.6 27.799999 34.200001 34 36.799999M 44.200001 28.4C 47 29.4 50.200001 29.6 53 30.799999M 34 36.799999C 39.799999 33.599998 47 33.599998 53 30.799999M 34 54.799999C 27.6 52.799999 20 52.200001 15 47.799999C 13.6 42.200001 13.8 36.200001 15 30.799999M 53 30.799999C 54.799999 36.200001 52.200001 42.200001 53 47.799999C 47.200001 51.200001 40.799999 54 34 54.799999C 33 48.799999 32.599998 42.599998 34 36.799999M 34 27.799999C 33.799999 25.799999 34.400002 23.799999 34 21.799999M 51 14.4C 49.599998 20.799999 41.400002 25.799999 36 22.200001C 35.400002 21.799999 34.599998 21.6 34 21.6C 35.400002 15 43 11.4 49 13.8C 49.799999 14 50.400002 14.4 51 14.4M 17 14.4C 17.799999 21 26 24.6 32 22.200001C 32.799999 22 33.400002 21.6 34 21.6C 31.4 15.6 25 11 19 13.8C 18.200001 14 17.6 14.2 17 14.4M 23.799999 28.4C 20.799999 28.200001 17.799999 29.4 15 30.799999M 15 30.761999L 34 36.762001M 44.158001 28.346001L 53 30.761999M 34 36.762001L 53 30.761999M 34 54.762001L 15 47.762001L 15 30.761999M 53 30.761999L 53 47.762001L 34 54.762001L 34 36.762001M 34 27.761999L 34 21.762001M 51 14.43C 48.971848 20.739162 42.213284 24.209776 35.903999 22.181999L 34 21.57C 36.028152 15.260839 42.786716 11.790225 49.096001 13.818ZM 17 14.43C 19.028152 20.739162 25.786716 24.209776 32.096001 22.181999L 34 21.57C 31.971848 15.260839 25.213284 11.790225 18.903999 13.818ZM 23.841999 28.346001L 15 30.761999"></path></g></g></g><g id="g-root-tx_business_140i19y9quqrw-stroke" data-item-order="1000000000" data-item-id="tx_business_140i19y9quqrw" data-item-class="Label Stroke" data-item-index="none" data-renderer-id="0" transform="translate(542, 296)"></g><g id="g-root-tx_business_140i19y9quqrw-stroke" data-item-order="1000000000" data-item-id="tx_business_140i19y9quqrw" data-item-class="Label Stroke" data-item-index="none" data-renderer-id="0" transform="translate(542, 296)"></g><g id="g-root-tx_delivery_m980s69qut53-stroke" data-item-order="1000000000" data-item-id="tx_delivery_m980s69qut53" data-item-class="Label Stroke Indexed" data-item-index="4" data-renderer-id="0" transform="translate(50, 338)"></g><g id="g-root-tx_delivery_m980s69qut53-stroke" data-item-order="1000000000" data-item-id="tx_delivery_m980s69qut53" data-item-class="Label Stroke Indexed" data-item-index="4" data-renderer-id="0" transform="translate(50, 338)"></g><g id="g-root-moni_dfgfsm9qyzgg-stroke" data-item-order="1000000000" data-item-id="moni_dfgfsm9qyzgg" data-item-class="Icon Stroke Indexed" data-item-index="4" data-renderer-id="0" transform="translate(158, 338)"><g id="moni_dfgfsm9qyzgg-stroke" fill="none" stroke-linecap="round" stroke-linejoin="round" stroke-miterlimit="4" stroke="#F99539" stroke-width="2"><g><path d="M 40.400002 56C 36.799999 56.400002 33 55.799999 29.4 56C 31.4 54 31.4 50.799999 32.400002 48C 34 47.400002 35.799999 47.400002 37.400002 48C 37.400002 51 39.200001 53.400002 40.400002 56M 26 56C 31.799999 55 38.200001 53.799999 43.799999 56M 55 48C 41 48 26.6 44.599998 13 48C 12 48.200001 11 47 11 46C 10.6 35.400002 12.2 24.6 11 14C 10.8 13 12 11.6 13 12C 26.200001 16.6 41 12.2 55 12C 56.200001 12 56.799999 13 57 14C 59.799999 24.4 55.200001 35.400002 57 46C 57.200001 47 56 48 55 48M 11 42C 26.4 42.400002 42 39.200001 57 42M 22 37C 22 32.799999 21 28.6 22 24.4C 22 24.200001 22.200001 23.799999 22.4 23.799999C 23.6 22 24.799999 20.200001 25.799999 18.200001C 26 18.200001 26.200001 18 26.4 18C 31.4 18 36.799999 16.799999 41.599998 18C 41.799999 18 42 18.200001 42.200001 18.200001C 43 20.200001 44.400002 22 45.599998 23.799999C 46 23.799999 46 24.200001 46 24.4C 47.400002 28.4 47.200001 33 46 37M 45.799999 24C 38 24.4 30 23.6 22.200001 24M 34 18C 34.799999 19.799999 33.400002 22 34 24M 35 32C 36.799999 31.200001 39.200001 32.599998 41 32C 41 32 42 32 42 33C 42 33.599998 42 34.400002 42 35C 42 35 42 36.400002 41 36C 39.200001 35.400002 36.799999 35.400002 35 36C 35 36 34 36 34 35C 34 34.400002 34 33.599998 34 33C 34 33 34 31.799999 35 32M 40.440002 56L 29.360001 56C 31.133989 53.689739 32.184761 50.906239 32.380001 48L 37.379997 48C 37.591537 50.909462 38.655876 53.692051 40.439999 56ZM 26 56L 43.82 56M 55 48L 13 48C 11.895431 48 11 47.104568 11 46L 11 14C 11 12.895431 11.895431 12 13 12L 55 12C 56.104568 12 57 12.895431 57 14L 57 46C 57 47.104568 56.104568 48 55 48ZM 11 42L 57 42M 22 37L 22 24.48C 21.998402 24.175037 22.138868 23.886711 22.380001 23.700001L 25.799999 18.220001C 25.973419 18.074379 26.193581 17.996258 26.42 18L 41.580002 18C 41.806419 17.996258 42.026581 18.074379 42.200001 18.220001L 45.619999 23.700001C 45.861134 23.886711 46.001598 24.175037 46 24.48L 46 37M 45.880001 24L 22.119999 24M 34 18L 34 24M 35 32L 41 32C 41 32 42 32 42 33L 42 35C 42 35 42 36 41 36L 35 36C 35 36 34 36 34 35L 34 33C 34 33 34 32 35 32"></path></g></g></g><g id="g-root-moni_dfgfsm9qyzgg-stroke" data-item-order="1000000000" data-item-id="moni_dfgfsm9qyzgg" data-item-class="Icon Stroke Indexed" data-item-index="4" data-renderer-id="0" transform="translate(158, 338)"><g id="moni_dfgfsm9qyzgg-stroke" fill="none" stroke-linecap="round" stroke-linejoin="round" stroke-miterlimit="4" stroke="#F99539" stroke-width="2"><g><path d="M 40.400002 56C 36.799999 56.400002 33 55.799999 29.4 56C 31.4 54 31.4 50.799999 32.400002 48C 34 47.400002 35.799999 47.400002 37.400002 48C 37.400002 51 39.200001 53.400002 40.400002 56M 26 56C 31.799999 55 38.200001 53.799999 43.799999 56M 55 48C 41 48 26.6 44.599998 13 48C 12 48.200001 11 47 11 46C 10.6 35.400002 12.2 24.6 11 14C 10.8 13 12 11.6 13 12C 26.200001 16.6 41 12.2 55 12C 56.200001 12 56.799999 13 57 14C 59.799999 24.4 55.200001 35.400002 57 46C 57.200001 47 56 48 55 48M 11 42C 26.4 42.400002 42 39.200001 57 42M 22 37C 22 32.799999 21 28.6 22 24.4C 22 24.200001 22.200001 23.799999 22.4 23.799999C 23.6 22 24.799999 20.200001 25.799999 18.200001C 26 18.200001 26.200001 18 26.4 18C 31.4 18 36.799999 16.799999 41.599998 18C 41.799999 18 42 18.200001 42.200001 18.200001C 43 20.200001 44.400002 22 45.599998 23.799999C 46 23.799999 46 24.200001 46 24.4C 47.400002 28.4 47.200001 33 46 37M 45.799999 24C 38 24.4 30 23.6 22.200001 24M 34 18C 34.799999 19.799999 33.400002 22 34 24M 35 32C 36.799999 31.200001 39.200001 32.599998 41 32C 41 32 42 32 42 33C 42 33.599998 42 34.400002 42 35C 42 35 42 36.400002 41 36C 39.200001 35.400002 36.799999 35.400002 35 36C 35 36 34 36 34 35C 34 34.400002 34 33.599998 34 33C 34 33 34 31.799999 35 32M 40.440002 56L 29.360001 56C 31.133989 53.689739 32.184761 50.906239 32.380001 48L 37.379997 48C 37.591537 50.909462 38.655876 53.692051 40.439999 56ZM 26 56L 43.82 56M 55 48L 13 48C 11.895431 48 11 47.104568 11 46L 11 14C 11 12.895431 11.895431 12 13 12L 55 12C 56.104568 12 57 12.895431 57 14L 57 46C 57 47.104568 56.104568 48 55 48ZM 11 42L 57 42M 22 37L 22 24.48C 21.998402 24.175037 22.138868 23.886711 22.380001 23.700001L 25.799999 18.220001C 25.973419 18.074379 26.193581 17.996258 26.42 18L 41.580002 18C 41.806419 17.996258 42.026581 18.074379 42.200001 18.220001L 45.619999 23.700001C 45.861134 23.886711 46.001598 24.175037 46 24.48L 46 37M 45.880001 24L 22.119999 24M 34 18L 34 24M 35 32L 41 32C 41 32 42 32 42 33L 42 35C 42 35 42 36 41 36L 35 36C 35 36 34 36 34 35L 34 33C 34 33 34 32 35 32"></path></g></g></g><g id="g-root-stor_1ursdme9quqyz-stroke" data-item-order="1000000000" data-item-id="stor_1ursdme9quqyz" data-item-class="Icon Stroke Indexed Indexed_1" data-item-index="1" data-renderer-id="0" transform="translate(158, 86)"><g id="stor_1ursdme9quqyz-stroke" fill="none" stroke-linecap="round" stroke-linejoin="round" stroke-miterlimit="4" stroke="#F99539" stroke-width="2"><g><path d="M 48 55C 43.400002 56 38.599998 54.400002 34 55C 33.200001 51.799999 33.200001 48.200001 34 45C 38.400002 45 42.799999 45.599998 47 45C 47.599998 45 48.200001 45.400002 48 46C 47.400002 49 47.200001 52 48 55M 41 45C 40.799999 46.400002 40.599998 47.799999 41 49M 34 55C 29.4 55.599998 24.4 53.200001 20 55C 20.6 52 19 48.799999 20 46C 20.200001 45.400002 20.4 44.799999 21 45C 25.200001 46 29.799999 43.799999 34 45C 34.200001 48.400002 33.200001 51.799999 34 55M 27 45C 27.200001 46.400002 27.4 47.799999 27 49M 41 45C 36.400002 45 31.6 45.799999 27 45C 27.799999 42 27 39 27 36C 27 35.400002 27.4 35 28 35C 32 35.200001 36 35.400002 40 35C 40.599998 35 41.200001 35.400002 41 36C 40.400002 39 40.799999 42 41 45M 34 35C 33.599998 36.200001 34.200001 37.599998 34 39M 31 21C 32.799999 20.4 35 20.6 37 21M 11 28C 10.4 36.400002 9.8 44.799999 11 53C 11.2 54 11.8 54.799999 13 55C 27 56.599998 41.200001 57.599998 55 55C 56 54.799999 56.799999 54 57 53C 58 44.799999 57.200001 36.400002 57 28M 57 28C 41.799999 28.799999 26.4 28.6 11 28C 11 28 12 13.8 34 13C 56 12.2 57 28 57 28M 48 55L 34 55L 34 45L 47 45C 47.552284 45 48 45.447716 48 46ZM 41 45L 41 49M 34 55L 20 55L 20 46C 20 45.447716 20.447716 45 21 45L 34 45ZM 27 45L 27 49M 41 45L 27 45L 27 36C 27 35.447716 27.447716 35 28 35L 40 35C 40.552284 35 41 35.447716 41 36ZM 34 35L 34 39M 31 21L 37 21M 11 28L 11 53C 11 54.104568 11.895431 55 13 55L 55 55C 56.104568 55 57 54.104568 57 53L 57 28M 57 28L 11 28C 11 28 12 13 34 13C 56 13 57 28 57 28Z"></path></g></g></g><g id="g-root-stor_1ursdme9quqyz-stroke" data-item-order="1000000000" data-item-id="stor_1ursdme9quqyz" data-item-class="Icon Stroke Indexed Indexed_1" data-item-index="1" data-renderer-id="0" transform="translate(158, 86)"><g id="stor_1ursdme9quqyz-stroke" fill="none" stroke-linecap="round" stroke-linejoin="round" stroke-miterlimit="4" stroke="#F99539" stroke-width="2"><g><path d="M 48 55C 43.400002 56 38.599998 54.400002 34 55C 33.200001 51.799999 33.200001 48.200001 34 45C 38.400002 45 42.799999 45.599998 47 45C 47.599998 45 48.200001 45.400002 48 46C 47.400002 49 47.200001 52 48 55M 41 45C 40.799999 46.400002 40.599998 47.799999 41 49M 34 55C 29.4 55.599998 24.4 53.200001 20 55C 20.6 52 19 48.799999 20 46C 20.200001 45.400002 20.4 44.799999 21 45C 25.200001 46 29.799999 43.799999 34 45C 34.200001 48.400002 33.200001 51.799999 34 55M 27 45C 27.200001 46.400002 27.4 47.799999 27 49M 41 45C 36.400002 45 31.6 45.799999 27 45C 27.799999 42 27 39 27 36C 27 35.400002 27.4 35 28 35C 32 35.200001 36 35.400002 40 35C 40.599998 35 41.200001 35.400002 41 36C 40.400002 39 40.799999 42 41 45M 34 35C 33.599998 36.200001 34.200001 37.599998 34 39M 31 21C 32.799999 20.4 35 20.6 37 21M 11 28C 10.4 36.400002 9.8 44.799999 11 53C 11.2 54 11.8 54.799999 13 55C 27 56.599998 41.200001 57.599998 55 55C 56 54.799999 56.799999 54 57 53C 58 44.799999 57.200001 36.400002 57 28M 57 28C 41.799999 28.799999 26.4 28.6 11 28C 11 28 12 13.8 34 13C 56 12.2 57 28 57 28M 48 55L 34 55L 34 45L 47 45C 47.552284 45 48 45.447716 48 46ZM 41 45L 41 49M 34 55L 20 55L 20 46C 20 45.447716 20.447716 45 21 45L 34 45ZM 27 45L 27 49M 41 45L 27 45L 27 36C 27 35.447716 27.447716 35 28 35L 40 35C 40.552284 35 41 35.447716 41 36ZM 34 35L 34 39M 31 21L 37 21M 11 28L 11 53C 11 54.104568 11.895431 55 13 55L 55 55C 56.104568 55 57 54.104568 57 53L 57 28M 57 28L 11 28C 11 28 12 13 34 13C 56 13 57 28 57 28Z"></path></g></g></g><g id="g-root-tx_inventor_4ikhdi9qusci-stroke" data-item-order="1000000000" data-item-id="tx_inventor_4ikhdi9qusci" data-item-class="Label Stroke Indexed Indexed_1" data-item-index="1" data-renderer-id="0" transform="translate(2, 86)"></g><g id="g-root-tx_inventor_4ikhdi9qusci-stroke" data-item-order="1000000000" data-item-id="tx_inventor_4ikhdi9qusci" data-item-class="Label Stroke Indexed Indexed_1" data-item-index="1" data-renderer-id="0" transform="translate(2, 86)"></g><g id="g-root-tx_business_1uo1j3q9qusy3-stroke" data-item-order="1000000000" data-item-id="tx_business_1uo1j3q9qusy3" data-item-class="Label Stroke Title" data-item-index="none" data-renderer-id="0" transform="translate(164, 2)"></g><g id="g-root-tx_seotools_qp1iwm9quscu-stroke" data-item-order="1000000000" data-item-id="tx_seotools_qp1iwm9quscu" data-item-class="Label Stroke Indexed" data-item-index="5" data-renderer-id="0" transform="translate(26, 434)"></g><g id="g-root-tx_seotools_qp1iwm9quscu-stroke" data-item-order="1000000000" data-item-id="tx_seotools_qp1iwm9quscu" data-item-class="Label Stroke Indexed" data-item-index="5" data-renderer-id="0" transform="translate(26, 434)"></g><g id="g-root-lapt_1hd7hti9qw6bx-stroke" data-item-order="1000000000" data-item-id="lapt_1hd7hti9qw6bx" data-item-class="Icon Stroke Indexed" data-item-index="5" data-renderer-id="0" transform="translate(158, 422)"><g id="lapt_1hd7hti9qw6bx-stroke" fill="none" stroke-linecap="round" stroke-linejoin="round" stroke-miterlimit="4" stroke="#F99539" stroke-width="2"><g><path d="M 26.200001 52C 28.6 53 31.6 52.400002 34.200001 52M 37 30C 36.799999 35 41 39.799999 46 39C 51 38.200001 55.400002 35 55 30C 54.599998 25 50.799999 22.200001 46 21C 41.200001 19.799999 36.200001 25.200001 37 30M 35 40C 30.6 40 26.4 40.200001 22 40C 22.4 38.799999 22.200001 37.400002 22 36C 25.6 36.400002 29.4 35.599998 33 36M 51.799999 36.799999C 53 39 55.799999 39.799999 57 42M 46 16C 46 14.6 46.200001 13.4 46 12M 39 17C 38.400002 16.4 37.599998 15.8 37 15M 53 17C 53.599998 16.4 54.400002 15.6 55 15M 32.200001 28C 27.4 28.6 22.4 29.4 18 28C 17 27.6 15.6 29 16 30C 18.200001 35.599998 15.2 42 16 48C 25.4 47.200001 34.799999 50 44 48C 43.799999 46.799999 44.400002 45.200001 44 44M 48.799999 52.599998C 49.400002 53.200001 49.599998 54 49.200001 54.799999C 48.799999 55.400002 48 55.799999 47.400002 56C 36.599998 60 24.4 56.799999 13 56C 12.2 56 11.6 55.400002 11.2 54.799999C 10.8 54 11 53 11.6 52.599998C 13.2 51.400002 14.6 49.599998 16 48C 25.4 47.200001 34.799999 49.200001 44 48C 45.799999 49.200001 47.200001 51 48.799999 52.599998M 26.18 52L 34.18 52M 37 30C 37 34.970562 41.029438 39 46 39C 50.970562 39 55 34.970562 55 30C 55 25.029438 50.970562 21 46 21C 41.029438 21 37 25.029438 37 30M 35 40L 22 40L 22 36L 33 36M 51.84 36.84L 57 42M 46 16L 46 12M 39 17L 37 15M 53 17L 55 15M 32.18 28L 18 28C 16.895432 28 16 28.89543 16 30L 16 48L 44 48L 44 44M 48.759998 52.580002C 49.334412 53.150616 49.508118 54.011261 49.200001 54.759998C 48.890427 55.513588 48.154686 56.004082 47.34 56L 13 56C 12.192596 55.995968 11.466807 55.506851 11.16 54.759998C 10.846807 54.015205 11.012511 53.155121 11.58 52.580002L 16 48L 44 48Z"></path></g></g></g><g id="g-root-line_4ikhdi9qw7b7-stroke" data-item-order="1000000000" data-item-id="line_4ikhdi9qw7b7" data-item-class="Icon Stroke Indexed" data-item-index="6" data-renderer-id="0" transform="translate(158, 506)"><g id="line_4ikhdi9qw7b7-stroke" fill="none" stroke-linecap="round" stroke-linejoin="round" stroke-miterlimit="4" stroke="#F99539" stroke-width="2"><g><path d="M 11 34C 12.4 46.599998 21.4 58.200001 34 57C 46.599998 55.799999 55.799999 46.599998 57 34C 58.200001 21.4 46.799999 10.6 34 11C 21.4 11.4 11.4 21.4 11 34M 47 45C 38.400002 44.799999 29.6 46.799999 21 45C 20.6 38.400002 21.6 31.6 21 25M 21 35C 22.4 33.400002 24.6 33 26.4 32C 27.4 31.4 28.6 31.6 29 32.599998C 30.200001 34.599998 32.200001 36.200001 32.799999 38.200001C 33 38.799999 33.599998 39.200001 34 39C 34.400002 38.799999 34.799999 38.599998 35 38.200001C 35.799999 35.200001 38 32.599998 39.599998 29.799999C 39.799999 29.4 40.400002 29 41 28.799999C 43 28.6 45 27.799999 47 28M 11.008 34C 11.008 46.702549 21.30545 57 34.008003 57C 46.710548 57 57.007999 46.702549 57.007999 34C 57.007999 21.297451 46.710548 11 34.008003 11C 21.30545 11 11.008 21.297451 11.008 34ZM 47.007999 45L 21.007999 45L 21.007999 25M 21 35L 26.378 31.926001C 27.291264 31.403624 28.453098 31.678127 29.035999 32.554001L 32.860001 38.290001C 33.044575 38.730682 33.483971 39.00988 33.961323 38.989807C 34.438675 38.96973 34.853073 38.654621 35 38.199997L 39.528 29.879999C 39.830055 29.326275 40.375626 28.947491 41 28.858L 47 28"></path></g></g></g><g id="g-root-tx_advanced_qp1iwm9qusct-stroke" data-item-order="1000000000" data-item-id="tx_advanced_qp1iwm9qusct" data-item-class="Label Stroke Indexed" data-item-index="6" data-renderer-id="0" transform="translate(38, 506)"></g><g id="g-root-tx_advanced_qp1iwm9qusct-stroke" data-item-order="1000000000" data-item-id="tx_advanced_qp1iwm9qusct" data-item-class="Label Stroke Indexed" data-item-index="6" data-renderer-id="0" transform="translate(38, 506)"></g><g id="g-root-line_4ikhdi9qw7b7-stroke" data-item-order="1000000000" data-item-id="line_4ikhdi9qw7b7" data-item-class="Icon Stroke Indexed" data-item-index="6" data-renderer-id="0" transform="translate(158, 506)"><g id="line_4ikhdi9qw7b7-stroke" fill="none" stroke-linecap="round" stroke-linejoin="round" stroke-miterlimit="4" stroke="#F99539" stroke-width="2"><g><path d="M 11 34C 12.4 46.599998 21.4 58.200001 34 57C 46.599998 55.799999 55.799999 46.599998 57 34C 58.200001 21.4 46.799999 10.6 34 11C 21.4 11.4 11.4 21.4 11 34M 47 45C 38.400002 44.799999 29.6 46.799999 21 45C 20.6 38.400002 21.6 31.6 21 25M 21 35C 22.4 33.400002 24.6 33 26.4 32C 27.4 31.4 28.6 31.6 29 32.599998C 30.200001 34.599998 32.200001 36.200001 32.799999 38.200001C 33 38.799999 33.599998 39.200001 34 39C 34.400002 38.799999 34.799999 38.599998 35 38.200001C 35.799999 35.200001 38 32.599998 39.599998 29.799999C 39.799999 29.4 40.400002 29 41 28.799999C 43 28.6 45 27.799999 47 28M 11.008 34C 11.008 46.702549 21.30545 57 34.008003 57C 46.710548 57 57.007999 46.702549 57.007999 34C 57.007999 21.297451 46.710548 11 34.008003 11C 21.30545 11 11.008 21.297451 11.008 34ZM 47.007999 45L 21.007999 45L 21.007999 25M 21 35L 26.378 31.926001C 27.291264 31.403624 28.453098 31.678127 29.035999 32.554001L 32.860001 38.290001C 33.044575 38.730682 33.483971 39.00988 33.961323 38.989807C 34.438675 38.96973 34.853073 38.654621 35 38.199997L 39.528 29.879999C 39.830055 29.326275 40.375626 28.947491 41 28.858L 47 28"></path></g></g></g><g id="g-root-tx_business_1uo1j3q9qusy3-stroke" data-item-order="1000000000" data-item-id="tx_business_1uo1j3q9qusy3" data-item-class="Label Stroke Title" data-item-index="none" data-renderer-id="0" transform="translate(164, 2)"></g><g id="g-root-lapt_1hd7hti9qw6bx-stroke" data-item-order="1000000000" data-item-id="lapt_1hd7hti9qw6bx" data-item-class="Icon Stroke Indexed" data-item-index="5" data-renderer-id="0" transform="translate(158, 422)"><g id="lapt_1hd7hti9qw6bx-stroke" fill="none" stroke-linecap="round" stroke-linejoin="round" stroke-miterlimit="4" stroke="#F99539" stroke-width="2"><g><path d="M 26.200001 52C 28.6 53 31.6 52.400002 34.200001 52M 37 30C 36.799999 35 41 39.799999 46 39C 51 38.200001 55.400002 35 55 30C 54.599998 25 50.799999 22.200001 46 21C 41.200001 19.799999 36.200001 25.200001 37 30M 35 40C 30.6 40 26.4 40.200001 22 40C 22.4 38.799999 22.200001 37.400002 22 36C 25.6 36.400002 29.4 35.599998 33 36M 51.799999 36.799999C 53 39 55.799999 39.799999 57 42M 46 16C 46 14.6 46.200001 13.4 46 12M 39 17C 38.400002 16.4 37.599998 15.8 37 15M 53 17C 53.599998 16.4 54.400002 15.6 55 15M 32.200001 28C 27.4 28.6 22.4 29.4 18 28C 17 27.6 15.6 29 16 30C 18.200001 35.599998 15.2 42 16 48C 25.4 47.200001 34.799999 50 44 48C 43.799999 46.799999 44.400002 45.200001 44 44M 48.799999 52.599998C 49.400002 53.200001 49.599998 54 49.200001 54.799999C 48.799999 55.400002 48 55.799999 47.400002 56C 36.599998 60 24.4 56.799999 13 56C 12.2 56 11.6 55.400002 11.2 54.799999C 10.8 54 11 53 11.6 52.599998C 13.2 51.400002 14.6 49.599998 16 48C 25.4 47.200001 34.799999 49.200001 44 48C 45.799999 49.200001 47.200001 51 48.799999 52.599998M 26.18 52L 34.18 52M 37 30C 37 34.970562 41.029438 39 46 39C 50.970562 39 55 34.970562 55 30C 55 25.029438 50.970562 21 46 21C 41.029438 21 37 25.029438 37 30M 35 40L 22 40L 22 36L 33 36M 51.84 36.84L 57 42M 46 16L 46 12M 39 17L 37 15M 53 17L 55 15M 32.18 28L 18 28C 16.895432 28 16 28.89543 16 30L 16 48L 44 48L 44 44M 48.759998 52.580002C 49.334412 53.150616 49.508118 54.011261 49.200001 54.759998C 48.890427 55.513588 48.154686 56.004082 47.34 56L 13 56C 12.192596 55.995968 11.466807 55.506851 11.16 54.759998C 10.846807 54.015205 11.012511 53.155121 11.58 52.580002L 16 48L 44 48Z"></path></g></g></g></g></g></svg>