<svg width="124" height="14" viewBox="0 0 124 14" fill="none" xmlns="http://www.w3.org/2000/svg">
<path d="M0.954007 13.1955C0.773463 13.1955 0.624344 13.1579 0.507539 13.0829C0.390437 12.9971 0.332031 12.874 0.332031 12.7133V1.12149C0.332031 0.971504 0.374427 0.853486 0.459511 0.767736C0.555268 0.681986 0.672367 0.63926 0.810518 0.63926H4.71875C5.31434 0.63926 5.85687 0.773114 6.34603 1.04112C6.83519 1.29837 7.22859 1.6575 7.52653 2.11822C7.82417 2.56848 7.97329 3.08836 7.97329 3.67786C7.97329 4.29932 7.80846 4.84609 7.4785 5.31756C7.15951 5.77858 6.73943 6.12696 6.21855 6.3627C6.94161 6.56647 7.52119 6.94144 7.95729 7.4882C8.40376 8.03467 8.62729 8.72068 8.62729 9.54591C8.62729 10.2534 8.46779 10.8856 8.1485 11.4432C7.84018 11.9896 7.40943 12.4184 6.85653 12.7294C6.30363 13.0401 5.67069 13.1955 4.9583 13.1955H0.954007ZM1.289 12.2307H4.9583C5.48985 12.2307 5.95796 12.1184 6.36203 11.8931C6.76611 11.6574 7.0851 11.3413 7.31901 10.9448C7.55321 10.5376 7.67002 10.0712 7.67002 9.54591C7.67002 9.03141 7.55321 8.57606 7.31901 8.17928C7.0851 7.7828 6.76611 7.47207 6.36203 7.24709C5.95796 7.02181 5.48985 6.90947 4.9583 6.90947H1.289V12.2307ZM1.289 5.94471H4.71875C5.38875 5.94471 5.93661 5.74094 6.36203 5.3337C6.79813 4.9157 7.01602 4.36386 7.01602 3.67786C7.01602 3.01337 6.79813 2.50425 6.36203 2.15049C5.93661 1.78598 5.38875 1.60372 4.71875 1.60372H1.289V5.94471ZM11.1297 13.1955C10.9275 13.1955 10.784 13.1151 10.6989 12.9544C10.6245 12.7936 10.6245 12.6437 10.6989 12.5041L15.5324 0.976881C15.6175 0.751601 15.7717 0.63926 15.9952 0.63926C16.2078 0.63926 16.3619 0.751601 16.4577 0.976881L21.3072 12.5041C21.3923 12.6541 21.3869 12.8098 21.2912 12.9705C21.1957 13.1205 21.0573 13.1955 20.8764 13.1955C20.7703 13.1955 20.6799 13.174 20.6055 13.1313C20.5414 13.0775 20.483 12.9971 20.43 12.8902L15.74 1.61986H16.2505L11.5762 12.8902C11.5338 12.9971 11.4754 13.0775 11.4007 13.1313C11.3263 13.174 11.2358 13.1955 11.1297 13.1955ZM12.3102 10.0443L12.6929 9.17632H19.3292L19.6959 10.0443H12.3102ZM24.9676 13.1955C24.8291 13.1955 24.7123 13.1528 24.6166 13.067C24.5315 12.9705 24.4891 12.8525 24.4891 12.7133V1.12149C24.4891 0.98226 24.5315 0.86962 24.6166 0.78387C24.7123 0.687364 24.8291 0.63926 24.9676 0.63926C25.1164 0.63926 25.2388 0.692742 25.3343 0.800005L33.4383 11.427V1.12149C33.4383 0.98226 33.4807 0.86962 33.5658 0.78387C33.6616 0.687364 33.7787 0.63926 33.9168 0.63926C34.0443 0.63926 34.1561 0.687364 34.2518 0.78387C34.3476 0.86962 34.3953 0.98226 34.3953 1.12149V12.7133C34.3953 12.8525 34.3476 12.9705 34.2518 13.067C34.1561 13.1528 34.0443 13.1955 33.9168 13.1955C33.8424 13.1955 33.7733 13.1848 33.7093 13.1632C33.6562 13.1313 33.6085 13.0936 33.5658 13.0509L25.4461 2.40774V12.7133C25.4461 12.8525 25.3983 12.9705 25.3026 13.067C25.2175 13.1528 25.1057 13.1955 24.9676 13.1955ZM44.5194 13.3563C43.6686 13.3563 42.8655 13.1901 42.1104 12.8579C41.366 12.5149 40.7066 12.0488 40.1324 11.4593C39.5582 10.859 39.1061 10.173 38.7764 9.40129C38.4467 8.61879 38.2819 7.78818 38.2819 6.90947C38.2819 6.04121 38.4414 5.22136 38.7604 4.44961C39.0794 3.6671 39.5208 2.9811 40.0844 2.39161C40.6589 1.79136 41.3236 1.32526 42.0787 0.993016C42.8338 0.650016 43.6472 0.478516 44.5194 0.478516C45.2532 0.478516 45.9495 0.596237 46.6092 0.832273C47.2685 1.06801 47.8851 1.42685 48.4597 1.90938C48.5551 1.98437 48.6032 2.09163 48.6032 2.23086C48.6032 2.35934 48.5605 2.47736 48.4754 2.58462C48.3903 2.68113 48.2735 2.72923 48.1244 2.72923C48.082 2.72923 48.0396 2.72385 47.9969 2.7131C47.9545 2.69188 47.9118 2.67037 47.8694 2.64886C47.8267 2.61659 47.779 2.57924 47.7256 2.53622C47.3002 2.15049 46.8164 1.87173 46.2742 1.70023C45.7316 1.52873 45.1467 1.44298 44.5194 1.44298C43.8067 1.44298 43.1314 1.59327 42.4934 1.89324C41.8551 2.18276 41.2916 2.58462 40.8024 3.09912C40.3132 3.60286 39.9302 4.1816 39.6539 4.83533C39.3773 5.48906 39.2392 6.18044 39.2392 6.90947C39.2392 7.6597 39.3773 8.36692 39.6539 9.03141C39.9302 9.6959 40.3079 10.2803 40.7864 10.7841C41.2756 11.2878 41.8394 11.6843 42.4774 11.9738C43.1154 12.2523 43.7961 12.3918 44.5194 12.3918C45.1467 12.3918 45.7316 12.2953 46.2742 12.1023C46.8271 11.9093 47.3429 11.6147 47.8214 11.2179C47.9065 11.1429 48.0076 11.1163 48.1244 11.1375C48.2415 11.159 48.3426 11.2128 48.4277 11.2986C48.5127 11.384 48.5551 11.4966 48.5551 11.6359C48.5551 11.7004 48.5498 11.7593 48.5394 11.8128C48.5288 11.8665 48.4967 11.92 48.4437 11.9738C47.9225 12.4988 47.3162 12.8633 46.6249 13.067C45.9445 13.2597 45.2425 13.3563 44.5194 13.3563ZM48.5551 11.6359L47.5982 11.427V7.9543H44.9182C44.7797 7.9543 44.6629 7.91158 44.5672 7.82583C44.4821 7.74008 44.4394 7.63281 44.4394 7.50404C44.4394 7.38632 44.4821 7.28982 44.5672 7.21482C44.6629 7.12907 44.7797 7.08605 44.9182 7.08605H48.0766C48.2255 7.08605 48.3426 7.12907 48.4277 7.21482C48.5127 7.30057 48.5551 7.41321 48.5551 7.55244V11.6359ZM52.957 13.1955C52.8295 13.1955 52.7177 13.1528 52.622 13.067C52.5262 12.9705 52.4785 12.8525 52.4785 12.7133V1.12149C52.4785 0.98226 52.5262 0.86962 52.622 0.78387C52.7177 0.687364 52.8295 0.63926 52.957 0.63926C53.0954 0.63926 53.2069 0.687364 53.292 0.78387C53.3877 0.86962 53.4355 0.98226 53.4355 1.12149V12.3273H59.992C60.1408 12.3273 60.2579 12.3703 60.343 12.456C60.4281 12.531 60.4705 12.6329 60.4705 12.7614C60.4705 12.8902 60.4281 12.9971 60.343 13.0829C60.2579 13.1579 60.1408 13.1955 59.992 13.1955H52.957ZM62.98 13.1955C62.7778 13.1955 62.6343 13.1151 62.5492 12.9544C62.4748 12.7936 62.4748 12.6437 62.5492 12.5041L67.3827 0.976881C67.4678 0.751601 67.622 0.63926 67.8455 0.63926C68.0581 0.63926 68.2122 0.751601 68.308 0.976881L73.1575 12.5041C73.2426 12.6541 73.2372 12.8098 73.1415 12.9705C73.046 13.1205 72.9076 13.1955 72.7267 13.1955C72.6206 13.1955 72.5302 13.174 72.4557 13.1313C72.3917 13.0775 72.3333 12.9971 72.2803 12.8902L67.5902 1.61986H68.1008L63.4265 12.8902C63.3841 12.9971 63.3257 13.0775 63.2513 13.1313C63.1766 13.174 63.0861 13.1955 62.98 13.1955ZM64.1605 10.0443L64.5432 9.17632H71.1795L71.5462 10.0443H64.1605ZM76.8182 13.1955C76.6797 13.1955 76.5629 13.1528 76.4672 13.067C76.3821 12.9705 76.3394 12.8525 76.3394 12.7133V1.12149C76.3394 0.971504 76.3821 0.853486 76.4672 0.767736C76.5629 0.681986 76.6797 0.63926 76.8182 0.63926H79.6894C80.6043 0.63926 81.4391 0.794625 82.1942 1.10536C82.9596 1.40563 83.6193 1.83976 84.1722 2.40774C84.7357 2.96497 85.1665 3.62408 85.4641 4.38507C85.7727 5.14607 85.9269 5.98743 85.9269 6.90947C85.9269 7.8312 85.7727 8.67795 85.4641 9.4494C85.1665 10.2104 84.7357 10.8752 84.1722 11.4432C83.6193 12.0004 82.9596 12.4345 82.1942 12.7452C81.4391 13.0455 80.6043 13.1955 79.6894 13.1955H76.8182ZM77.2967 12.3273H79.6894C80.7211 12.3273 81.6303 12.0915 82.4174 11.62C83.2149 11.1483 83.8372 10.5053 84.2839 9.69082C84.7411 8.87604 84.9696 7.94892 84.9696 6.90947C84.9696 5.86971 84.7411 4.94797 84.2839 4.14396C83.8372 3.32948 83.2149 2.6865 82.4174 2.21473C81.6303 1.74325 80.7211 1.50752 79.6894 1.50752H77.2967V12.3273ZM90.2831 13.1955C90.1446 13.1955 90.0278 13.1528 89.9321 13.067C89.847 12.9705 89.8043 12.8525 89.8043 12.7133V1.12149C89.8043 0.98226 89.847 0.86962 89.9321 0.78387C90.0278 0.687364 90.1446 0.63926 90.2831 0.63926H97.9561C98.0836 0.63926 98.1953 0.687364 98.2911 0.78387C98.3868 0.86962 98.4346 0.98226 98.4346 1.12149C98.4346 1.25027 98.3868 1.36261 98.2911 1.45911C98.1953 1.55562 98.0836 1.60372 97.9561 1.60372H90.7616V6.42694H96.0418C96.18 6.42694 96.2917 6.47534 96.3768 6.57185C96.4726 6.6576 96.5203 6.76994 96.5203 6.90947C96.5203 7.0487 96.4726 7.16642 96.3768 7.26292C96.2917 7.35943 96.18 7.40783 96.0418 7.40783H90.7616V12.2307H97.9561C98.0836 12.2307 98.1953 12.2791 98.2911 12.3757C98.3868 12.4722 98.4346 12.5845 98.4346 12.7133C98.4346 12.8525 98.3868 12.9705 98.2911 13.067C98.1953 13.1528 98.0836 13.1955 97.9561 13.1955H90.2831ZM105.803 13.3563C105.133 13.3563 104.516 13.2651 103.952 13.0829C103.399 12.8902 102.921 12.6221 102.517 12.2792C102.112 11.9254 101.793 11.5128 101.56 11.0413C101.496 10.9125 101.49 10.7894 101.544 10.6714C101.607 10.5534 101.708 10.473 101.847 10.4303C101.964 10.3873 102.08 10.3926 102.198 10.4464C102.315 10.4999 102.405 10.5857 102.469 10.7037C102.66 11.0464 102.91 11.3467 103.219 11.6039C103.538 11.8612 103.91 12.0592 104.335 12.1988C104.771 12.3273 105.26 12.3918 105.803 12.3918C106.409 12.3918 106.93 12.2899 107.366 12.0861C107.813 11.8827 108.153 11.5824 108.387 11.1859C108.632 10.7894 108.754 10.3069 108.754 9.73892C108.754 9.03141 108.499 8.43653 107.988 7.9543C107.488 7.46132 106.723 7.1452 105.691 7.00567C104.5 6.83417 103.57 6.44845 102.9 5.8482C102.23 5.23719 101.895 4.49771 101.895 3.62946C101.895 2.99724 102.049 2.44509 102.357 1.97361C102.676 1.50214 103.117 1.13763 103.681 0.880376C104.255 0.61237 104.915 0.478516 105.659 0.478516C106.212 0.478516 106.723 0.569644 107.191 0.751601C107.659 0.933858 108.068 1.17497 108.419 1.47525C108.77 1.76447 109.041 2.07012 109.233 2.39161C109.307 2.50963 109.323 2.6381 109.28 2.77733C109.249 2.90611 109.163 2.99724 109.025 3.05072C108.908 3.09374 108.791 3.09912 108.674 3.06685C108.557 3.02413 108.461 2.94883 108.387 2.84187C108.238 2.61659 108.047 2.39699 107.813 2.18276C107.579 1.96824 107.286 1.79136 106.935 1.65213C106.585 1.5126 106.159 1.44298 105.659 1.44298C104.787 1.44298 104.101 1.64137 103.601 2.03785C103.101 2.43463 102.852 2.99724 102.852 3.72596C102.852 4.11199 102.953 4.46544 103.155 4.78723C103.367 5.09796 103.697 5.36597 104.144 5.59095C104.59 5.81593 105.159 5.98743 105.851 6.10545C107.223 6.34119 108.206 6.76994 108.802 7.3917C109.408 8.0027 109.711 8.78491 109.711 9.73892C109.711 10.2961 109.615 10.7999 109.424 11.2501C109.243 11.7004 108.977 12.0808 108.626 12.3918C108.286 12.7025 107.877 12.9436 107.398 13.1151C106.92 13.2759 106.388 13.3563 105.803 13.3563ZM114.144 13.1955C114.006 13.1955 113.889 13.1528 113.793 13.067C113.708 12.9705 113.666 12.8525 113.666 12.7133V1.12149C113.666 0.98226 113.708 0.86962 113.793 0.78387C113.889 0.687364 114.006 0.63926 114.144 0.63926C114.282 0.63926 114.394 0.687364 114.479 0.78387C114.575 0.86962 114.623 0.98226 114.623 1.12149V6.42694H122.679V1.12149C122.679 0.98226 122.721 0.86962 122.807 0.78387C122.902 0.687364 123.019 0.63926 123.157 0.63926C123.285 0.63926 123.396 0.687364 123.492 0.78387C123.588 0.86962 123.636 0.98226 123.636 1.12149V12.7133C123.636 12.8525 123.588 12.9705 123.492 13.067C123.396 13.1528 123.28 13.1955 123.142 13.1955C123.014 13.1955 122.902 13.1528 122.807 13.067C122.721 12.9705 122.679 12.8525 122.679 12.7133V7.29519H114.623V12.7133C114.623 12.8525 114.575 12.9705 114.479 13.067C114.394 13.1528 114.282 13.1955 114.144 13.1955Z" fill="#F8F8F8"/>
</svg>
