<svg width="128" height="55" viewBox="0 0 128 55" fill="none" xmlns="http://www.w3.org/2000/svg">
<g clip-path="url(#clip0_2540_12692)">
<path d="M24.354 22.0177C23.3406 22.317 22.5327 22.9496 21.7583 23.6311C20.2228 24.9821 18.9332 26.5535 17.6786 28.2109C17.3078 28.697 16.9519 29.1436 16.6285 29.6128C15.8124 30.7965 15.0103 31.99 14.205 33.1812C14.1469 33.267 14.1077 33.3656 14.0405 33.4682C13.6535 33.9287 13.2795 34.3744 12.9196 34.8312C12.4491 35.4284 11.8826 35.9189 11.2704 36.3619C11.0491 36.5221 10.8297 36.6848 10.5863 36.849C10.2196 36.9934 9.87605 37.1352 9.53248 37.2769C8.15325 37.7075 6.84363 37.2964 6.13128 35.9798C5.73894 35.2547 5.58593 34.4697 5.5504 33.654C5.47167 31.8465 5.89593 30.1312 6.5381 28.466C7.29841 26.4944 8.28292 24.6394 9.59187 22.9197C10.0898 22.3431 10.5496 21.7884 11.0294 21.2515C11.3107 20.9367 11.6269 20.6532 11.9218 20.3501C12.5447 19.7098 13.2333 19.1434 13.9451 18.6099C14.9898 17.827 16.0851 17.119 17.2635 16.5477C17.4341 16.4649 17.5978 16.368 17.7647 16.2776C19.2191 15.5842 20.7317 15.0691 22.3168 14.7667C23.5659 14.5285 24.8256 14.4562 26.0888 14.554C27.5174 14.6647 28.8915 15.0188 30.1816 15.655C31.0426 16.0795 31.8371 16.6081 32.5506 17.255C34.5012 19.0237 35.6531 21.2357 36.1814 23.7934C36.2349 24.0524 36.2677 24.3156 36.309 24.6169C36.3128 24.6745 36.3225 24.6887 36.3371 24.6996C36.342 24.729 36.347 24.7585 36.3259 24.8096C36.2205 24.7839 36.1319 24.7471 36.0636 24.6871C35.8166 24.4706 35.584 24.2373 35.3323 24.0267C34.7537 23.5426 34.1248 23.1306 33.4602 22.775C32.6434 22.3378 31.7851 22.0034 30.8864 21.7788C30.1785 21.6019 29.4647 21.4567 28.7304 21.4424C28.5943 21.4398 28.4589 21.3991 28.3227 21.3965C28.1055 21.3924 27.8812 21.3177 27.6433 21.4441C26.9262 21.4105 26.2499 21.5103 25.5826 21.6509C25.1658 21.7387 24.7631 21.8932 24.354 22.0177Z" fill="#2D2D2D"/>
<path d="M17.7396 16.2634C17.597 16.3684 17.4333 16.4654 17.2627 16.5481C16.0844 17.1195 14.9891 17.8275 13.9444 18.6104C13.2325 19.1439 12.5439 19.7103 11.921 20.3506C11.6262 20.6537 11.31 20.9371 11.0286 21.252C10.5489 21.7889 10.089 22.3435 9.60327 22.9025C9.58281 22.8187 9.57737 22.723 9.57736 22.6273C9.57697 16.6521 9.57687 10.6769 9.57812 4.70164C9.57814 4.58564 9.56647 4.45805 9.60881 4.35602C9.70009 4.13601 9.87096 3.99749 10.1245 3.99735C10.688 3.99704 11.2518 3.98782 11.815 4.00212C12.5977 4.02199 13.3545 4.17921 14.069 4.50627C15.9586 5.37127 17.1303 6.82338 17.5666 8.85311C17.655 9.26445 17.6848 9.695 17.6875 10.117C17.6999 12.0448 17.6925 13.9727 17.6939 15.9005C17.694 16.0166 17.7078 16.1327 17.7396 16.2634Z" fill="#2D2D2D"/>
<path d="M41.4014 20.1008C41.4014 19.3256 41.4014 18.5824 41.4014 17.8095C41.8656 17.7777 42.3069 17.7282 42.7489 17.7209C44.1527 17.6977 45.557 17.6662 46.9605 17.6859C47.7549 17.697 48.5497 17.7894 49.2823 18.1542C49.8251 18.4245 50.1849 18.8444 50.3717 19.4211C50.4905 19.7879 50.5674 20.1602 50.5601 20.546C50.5507 21.0445 50.6008 21.5453 50.4848 22.0397C50.3552 22.5925 50.1375 23.0865 49.657 23.4302C49.3731 23.6332 49.0521 23.7331 48.7166 23.8008C48.6501 23.8142 48.5836 23.8278 48.5133 23.8924C48.6106 23.9089 48.708 23.9245 48.805 23.9423C49.8869 24.1399 50.5778 24.761 50.8282 25.8394C51.0398 26.7504 51.0528 27.664 50.8261 28.5782C50.6253 29.3884 50.1232 29.9143 49.3509 30.2028C48.8078 30.4056 48.2411 30.4818 47.6686 30.5181C47.2345 30.5456 46.7987 30.566 46.364 30.5614C45.1842 30.5491 44.0044 30.5289 42.8251 30.497C42.3605 30.4844 41.8969 30.4324 41.4014 30.3961C41.4014 26.9637 41.4014 23.5482 41.4014 20.1008ZM44.1495 27.0994C44.1495 27.5311 44.1495 27.9629 44.1495 28.3925C44.2179 28.4036 44.2483 28.4128 44.2786 28.4128C45.0548 28.4138 45.8311 28.4188 46.6073 28.4107C46.8071 28.4086 47.0093 28.379 47.2054 28.3378C47.7002 28.234 48.0103 27.9404 48.1086 27.4314C48.2044 26.9353 48.1878 26.4412 48.1044 25.9474C48.0122 25.4009 47.7012 25.0456 47.1586 24.9133C46.9848 24.8709 46.8036 24.8417 46.6251 24.8383C45.8496 24.8235 45.0739 24.8201 44.2982 24.8137C44.2583 24.8134 44.2184 24.8235 44.1495 24.8325C44.1495 25.5736 44.1495 26.3045 44.1495 27.0994ZM47.16 19.9236C46.8466 19.8777 46.5343 19.803 46.2197 19.792C45.6144 19.7709 45.0077 19.785 44.4016 19.7868C44.321 19.787 44.2405 19.8 44.1639 19.8068C44.1078 20.6735 44.1331 22.7036 44.2123 22.9797C45.0595 22.9567 45.9203 22.9681 46.7745 22.8988C47.4196 22.8465 47.7221 22.5847 47.833 21.9874C47.9127 21.5581 47.9113 21.1214 47.8241 20.6896C47.7518 20.331 47.5589 20.0708 47.16 19.9236Z" fill="#2D2D2D"/>
<path d="M44.5535 40.096C44.5535 39.362 44.555 38.659 44.5529 37.956C44.5515 37.4656 44.3888 37.3028 43.9053 37.3005C43.7029 37.2995 43.5003 37.2935 43.2983 37.3021C42.989 37.3153 42.8247 37.4716 42.8128 37.777C42.8012 38.0748 42.802 38.3737 42.8118 38.6716C42.8218 38.9732 42.9411 39.0936 43.2547 39.1551C43.3574 39.1753 43.4595 39.1984 43.5611 39.2199C43.5611 39.42 43.5611 39.6086 43.5611 39.8133C43.2131 39.8711 42.8938 39.8207 42.5989 39.6595C42.2859 39.4885 42.1205 39.2075 42.1089 38.8537C42.0957 38.4493 42.0989 38.0442 42.1069 37.6396C42.1119 37.386 42.209 37.1625 42.3934 36.9841C42.4464 36.9328 42.5126 36.8952 42.5795 36.8464C42.0764 36.227 42.1503 35.5188 42.1154 34.794C41.8857 34.794 41.6591 34.794 41.4175 34.794C41.4175 34.5652 41.4175 34.3774 41.4175 34.1416C42.2001 34.1415 42.9823 34.1412 43.7646 34.1411C44.5527 34.141 45.3409 34.1411 46.129 34.1411C46.9141 34.1411 47.6992 34.1411 48.5084 34.1411C48.5084 33.7932 48.5084 33.4763 48.5084 33.1391C48.7619 33.1391 48.9913 33.1391 49.2583 33.1391C49.2583 33.4643 49.2583 33.7879 49.2583 34.1256C49.7269 34.1256 50.1583 34.1256 50.599 34.1256C50.623 33.8213 50.6275 33.5241 50.673 33.2334C50.8062 32.3827 51.2751 32.061 52.0216 31.9994C52.9386 31.9238 53.7885 32.1821 54.5921 32.61C54.6101 32.6196 54.6238 32.6373 54.6441 32.6554C54.6441 32.8554 54.6441 33.0561 54.6441 33.2863C54.5641 33.2588 54.4979 33.2423 54.4371 33.2141C53.9832 33.0028 53.5227 32.8029 53.0239 32.7343C52.7103 32.6912 52.3882 32.6722 52.0727 32.6902C51.7365 32.7093 51.4865 32.891 51.4215 33.2438C51.3703 33.5214 51.3463 33.8041 51.3035 34.137C52.0724 34.1384 52.7911 34.1403 53.5099 34.1409C54.2341 34.1416 54.9583 34.1411 55.6826 34.1411C56.4068 34.1411 57.131 34.1411 57.8553 34.1411C58.5795 34.1411 59.3037 34.1411 60.028 34.1411C60.7416 34.1411 61.4551 34.1411 62.1687 34.1411C62.893 34.1411 63.6172 34.1411 64.3414 34.1411C65.0657 34.1411 65.7899 34.1411 66.5141 34.1411C67.2384 34.1411 67.9626 34.1411 68.6868 34.1411C69.4098 34.1411 70.1327 34.1411 70.866 34.1411C70.866 34.3631 70.866 34.5598 70.866 34.7862C70.5872 34.7862 70.3256 34.7862 70.0366 34.7862C70.0366 36.675 70.0366 38.5339 70.0366 40.4042C69.6792 40.4602 69.3782 40.454 69.0894 40.2243C68.6574 39.8807 68.1902 39.5817 67.7516 39.2459C67.3088 38.9068 67.1065 38.4384 67.1145 37.8848C67.1194 37.5459 67.1283 37.2052 67.1686 36.8693C67.2054 36.5622 67.359 36.2963 67.6354 36.144C68.0904 35.8934 68.5583 35.6663 69.0213 35.4303C69.1156 35.3822 69.2121 35.3383 69.3153 35.2887C69.3153 35.1345 69.3153 34.9873 69.3153 34.8397C69.0943 34.772 65.0536 34.7451 64.4297 34.8097C64.4297 35.0468 64.4297 35.2869 64.4297 35.5495C64.692 35.5697 64.964 35.5837 65.2344 35.613C65.9572 35.6912 66.34 36.1133 66.3464 36.8385C66.351 37.3604 66.3492 37.8824 66.3468 38.4043C66.3435 39.1492 65.9465 39.5377 65.1935 39.5373C65.0996 39.5372 65.0056 39.5373 64.8939 39.5373C64.8939 39.3139 64.8939 39.1156 64.8939 38.891C64.9801 38.8833 65.0729 38.8802 65.1638 38.8658C65.4626 38.8184 65.6124 38.6882 65.6224 38.3864C65.64 37.8551 65.639 37.3221 65.6161 36.791C65.6024 36.4721 65.3973 36.2869 65.0827 36.2631C64.8726 36.2473 64.6604 36.2601 64.4093 36.2601C64.4093 36.9652 64.4093 37.6537 64.4093 38.3422C64.4093 39.0226 64.4093 39.703 64.4093 40.4033C64.0675 40.4497 63.7622 40.4772 63.4697 40.2451C63.1372 39.9812 62.7678 39.7644 62.4257 39.512C62.0705 39.2498 61.7556 38.9482 61.6552 38.4911C61.6281 38.3676 61.6001 38.2412 61.5983 38.1158C61.5915 37.6579 61.59 37.1997 61.597 36.7418C61.6061 36.1409 61.9783 35.71 62.5755 35.6304C62.9322 35.5829 63.2942 35.5742 63.6795 35.5461C63.6795 35.3121 63.6795 35.0656 63.6795 34.809C63.6319 34.8007 63.5916 34.7876 63.5512 34.7876C62.7311 34.7861 61.911 34.7833 61.0909 34.7874C60.7984 34.7889 60.6291 34.9103 60.5502 35.1889C60.5017 35.3602 60.4726 35.5429 60.4714 35.7207C60.4644 36.8071 60.4664 37.8936 60.4686 38.9801C60.4698 39.5937 60.5799 39.7255 61.2005 39.866C61.2005 40.0392 61.2005 40.2155 61.2005 40.3894C60.4138 40.5797 59.9228 40.1583 59.8127 39.4706C59.7843 39.2933 59.7662 39.1124 59.7652 38.9331C59.7605 38.0277 59.761 37.1223 59.7645 36.2169C59.7654 35.9732 59.7651 35.7271 59.7984 35.4867C59.8298 35.2596 59.9046 35.0386 59.9636 34.8016C58.9772 34.8016 57.9827 34.8016 56.9539 34.8016C56.9539 34.9941 56.9459 35.1727 56.9559 35.3502C56.9677 35.5589 57.0321 35.6337 57.2453 35.6595C57.424 35.681 57.6064 35.672 57.7872 35.6749C58.3652 35.6841 58.6701 35.9597 58.6747 36.5308C58.6853 37.8302 58.6769 39.1297 58.6755 40.4292C58.6755 40.4498 58.6654 40.4704 58.6539 40.5145C58.4444 40.5145 58.2286 40.5145 57.9893 40.5145C57.9839 40.4053 57.9745 40.3021 57.9744 40.1988C57.9733 39.1656 57.9741 38.1324 57.9732 37.0992C57.9731 36.9822 57.971 36.8648 57.9603 36.7485C57.9272 36.3887 57.8488 36.3074 57.4897 36.2806C57.3202 36.268 57.1489 36.2825 56.9787 36.2766C56.5515 36.2617 56.3006 36.05 56.2529 35.6231C56.2237 35.3622 56.2475 35.0954 56.2475 34.79C55.9009 34.79 55.5961 34.7784 55.2928 34.7942C55.0995 34.8043 55.0212 34.9182 55.0168 35.1531C55.0108 35.4725 55.0151 35.7921 55.0151 36.1117C55.0151 36.4845 55.0124 36.8573 55.0159 37.2301C55.0192 37.5741 55.1789 37.7341 55.5211 37.7454C55.5849 37.7475 55.6491 37.7485 55.7128 37.7449C56.0393 37.7265 56.1981 37.5776 56.2249 37.2544C56.2352 37.1304 56.2266 37.0048 56.2266 36.8656C56.4771 36.8656 56.6959 36.8656 56.9531 36.8656C56.9531 36.9991 56.9544 37.1235 56.9529 37.2479C56.9466 37.7695 56.9445 38.2912 56.9294 38.8125C56.9248 38.9701 56.898 39.1307 56.8561 39.283C56.6384 40.0732 56.1619 40.3479 55.4553 40.4217C55.0373 40.4654 54.6066 40.4668 54.189 40.4205C53.3116 40.3233 52.7564 39.8936 52.5914 38.9556C52.5529 38.7369 52.5265 38.5133 52.524 38.2916C52.5158 37.546 52.5206 36.8004 52.5214 36.0547C52.5215 35.9923 52.5285 35.9298 52.5335 35.8481C52.761 35.8481 52.9793 35.8481 53.2261 35.8481C53.2327 35.9339 53.2454 36.0249 53.2456 36.116C53.2473 36.8403 53.2384 37.5648 53.2513 38.2889C53.2554 38.5191 53.2989 38.7523 53.3533 38.9771C53.4497 39.3758 53.7246 39.6149 54.1112 39.7191C54.5394 39.8345 54.9779 39.8223 55.4098 39.7526C55.7885 39.6915 56.0473 39.463 56.1318 39.0789C56.1858 38.8334 56.211 38.5815 56.25 38.3269C55.9193 38.3487 55.6299 38.3833 55.3404 38.3836C54.6931 38.3845 54.2785 37.9787 54.2696 37.3316C54.2594 36.5968 54.2659 35.8617 54.2687 35.1267C54.2691 35.0241 54.2899 34.9215 54.3031 34.8022C53.3213 34.8022 52.3454 34.8022 51.3415 34.8022C51.3415 36.669 51.3415 38.5284 51.3415 40.4098C51.0972 40.4098 50.8803 40.4098 50.6344 40.4098C50.6344 38.5495 50.6344 36.6905 50.6344 34.8087C50.1756 34.8087 49.7445 34.8087 49.2699 34.8087C49.256 35.1637 49.2656 35.5323 49.2639 35.9003C49.2622 36.2731 49.2635 36.6459 49.2635 37.0187C49.2635 37.4022 49.2635 37.7857 49.2635 38.1691C49.2635 38.542 49.2635 38.9148 49.2635 39.2876C49.2635 39.6578 49.2636 40.0281 49.2636 40.4149C49.0056 40.4149 48.7775 40.4149 48.5204 40.4149C48.5204 38.5436 48.5204 36.6846 48.5204 34.7871C48.1454 34.7871 47.7978 34.78 47.451 34.7933C47.3841 34.7959 47.2997 34.8644 47.2585 34.9261C47.0333 35.2633 46.9979 35.6439 47.0751 36.0274C47.165 36.4739 47.2848 36.9146 47.3975 37.3562C47.576 38.0556 47.6244 38.7592 47.4853 39.4714C47.4195 39.808 47.2981 40.1218 47.1137 40.4187C46.8589 40.4187 46.6084 40.4187 46.3332 40.4187C46.3866 40.3042 46.4275 40.2084 46.4748 40.1159C46.854 39.3749 46.9213 38.5975 46.738 37.7943C46.653 37.4219 46.5496 37.0536 46.4573 36.6828C46.3011 36.0558 46.2195 35.4298 46.5177 34.7985C46.1142 34.7985 45.7335 34.7985 45.3097 34.7985C45.2918 35.1618 45.304 35.5303 45.3019 35.898C45.2997 36.2708 45.3014 36.6436 45.3014 37.0164C45.3014 37.3999 45.3014 37.7833 45.3014 38.1668C45.3014 38.5396 45.3014 38.9124 45.3014 39.2852C45.3014 39.6557 45.3014 40.0261 45.3014 40.414C45.0451 40.414 44.8169 40.414 44.5692 40.414C44.5637 40.3125 44.5586 40.2197 44.5535 40.096ZM63.7052 37.4535C63.7052 37.0629 63.7052 36.6722 63.7052 36.288C63.6381 36.2717 63.608 36.2584 63.5777 36.258C63.3649 36.2556 63.152 36.2508 62.9393 36.2562C62.5438 36.266 62.3215 36.4686 62.3052 36.862C62.2902 37.223 62.2973 37.5855 62.3078 37.947C62.3197 38.3538 62.4863 38.6823 62.8287 38.9179C63.0649 39.0804 63.292 39.2559 63.5253 39.4227C63.579 39.461 63.6413 39.4873 63.7052 39.5222C63.7052 38.8354 63.7052 38.1764 63.7052 37.4535ZM67.8595 37.2081C67.8595 37.4595 67.8601 37.7109 67.8593 37.9623C67.8585 38.209 67.9374 38.4393 68.1187 38.5932C68.5113 38.9266 68.9274 39.2322 69.3296 39.5459C69.3296 38.375 69.3296 37.2371 69.3296 36.0392C68.9237 36.241 68.5697 36.4039 68.2291 36.5912C68.016 36.7083 67.8845 36.9019 67.8595 37.2081ZM44.5537 35.3461C44.5537 35.1683 44.5537 34.9904 44.5537 34.8115C43.9746 34.8115 43.4303 34.8115 42.8835 34.8115C42.856 35.4769 42.8 36.1225 43.3063 36.6297C43.7103 36.6644 44.1187 36.6995 44.5537 36.737C44.5537 36.319 44.5537 35.8644 44.5537 35.3461Z" fill="#2D2D2D"/>
<path d="M95.8053 25.72C95.9033 25.9909 96.0053 26.236 96.0778 26.4896C96.4278 27.7132 96.77 28.9391 97.1138 30.1645C97.1307 30.2247 97.1365 30.2881 97.1517 30.3743C96.1642 30.3743 95.1924 30.3743 94.202 30.3743C94.0561 29.7924 93.9081 29.2064 93.7625 28.6198C93.5889 27.9205 93.4282 27.2176 93.2387 26.5226C93.1786 26.3018 93.0676 26.0853 92.938 25.8955C92.7893 25.6778 92.5507 25.5435 92.2877 25.538C91.5347 25.5224 90.7812 25.5325 90.0025 25.5325C90.0025 27.1477 90.0025 28.7511 90.0025 30.3755C89.0788 30.3755 88.1804 30.3755 87.2627 30.3755C87.2627 26.1962 87.2627 22.0186 87.2627 17.8114C87.6464 17.78 88.0235 17.7299 88.4016 17.7216C89.7726 17.6915 91.1437 17.6653 92.5149 17.6583C93.2161 17.6547 93.9131 17.7335 94.5895 17.933C95.3083 18.145 95.9147 18.5222 96.26 19.2117C96.4053 19.5019 96.5117 19.8218 96.5766 20.1403C96.7388 20.9364 96.7455 21.7392 96.5764 22.5383C96.3489 23.6134 95.684 24.2406 94.6134 24.451C94.5209 24.4692 94.4293 24.4917 94.2572 24.53C94.9586 24.7492 95.4768 25.1002 95.8053 25.72ZM93.8692 21.716C93.8503 21.4518 93.8454 21.1857 93.8095 20.9238C93.7262 20.3167 93.4487 20.0229 92.8471 19.8907C92.6927 19.8568 92.5329 19.8317 92.3753 19.8303C91.6618 19.8239 90.9481 19.827 90.2345 19.8284C90.163 19.8285 90.0915 19.8405 90.0243 19.8466C89.9637 20.2567 89.9798 23.1002 90.0466 23.342C90.7214 23.342 91.402 23.3529 92.0821 23.3368C92.366 23.3301 92.6533 23.286 92.9309 23.223C93.3565 23.1264 93.6533 22.8693 93.7535 22.4286C93.8026 22.2127 93.8311 21.9922 93.8692 21.716Z" fill="#2D2D2D"/>
<path d="M108.888 23.8073C108.902 22.7438 108.975 21.7185 109.226 20.7135C109.382 20.0902 109.607 19.4957 110.001 18.9789C110.423 18.4269 110.983 18.073 111.64 17.8746C112.201 17.7052 112.78 17.6242 113.366 17.615C113.95 17.6058 114.535 17.5984 115.119 17.6169C115.756 17.637 116.386 17.7291 117.004 17.8888C117.044 17.8989 117.078 17.9252 117.12 17.9465C117.071 18.5491 117.023 19.1458 116.972 19.78C116.521 19.7617 116.109 19.7376 115.697 19.73C115.176 19.7205 114.654 19.7111 114.133 19.7274C113.795 19.738 113.456 19.7788 113.123 19.8345C112.563 19.9278 112.181 20.2584 111.976 20.7837C111.713 21.4555 111.642 22.1602 111.632 22.9167C111.732 22.8507 111.808 22.8054 111.879 22.7521C112.377 22.3759 112.947 22.1962 113.56 22.1284C114.25 22.0521 114.936 22.072 115.62 22.1919C116.966 22.428 117.609 23.2209 117.836 24.4839C117.963 25.1877 117.996 25.9004 117.957 26.6111C117.916 27.3515 117.847 28.0909 117.537 28.7855C117.251 29.4283 116.792 29.8901 116.155 30.1754C115.557 30.4435 114.923 30.5616 114.27 30.5881C113.952 30.601 113.633 30.6391 113.317 30.6249C112.693 30.5968 112.069 30.5615 111.458 30.3978C110.396 30.1128 109.705 29.4453 109.351 28.4127C109.112 27.7148 108.996 26.9923 108.957 26.2605C108.915 25.4544 108.91 24.6464 108.888 23.8073ZM115.261 25.356C115.248 25.2833 115.237 25.2102 115.221 25.138C115.106 24.6061 114.77 24.2844 114.231 24.1936C114.127 24.176 114.02 24.1692 113.915 24.1567C113.051 24.0538 112.287 24.3014 111.571 24.8224C111.6 25.4592 111.62 26.0956 111.662 26.7305C111.678 26.972 111.729 27.2151 111.795 27.4485C111.94 27.9579 112.254 28.3174 112.801 28.3896C113.167 28.4379 113.545 28.4816 113.91 28.4434C114.855 28.3442 115.188 28.0028 115.271 27.0044C115.315 26.4769 115.276 25.9425 115.261 25.356Z" fill="#2D2D2D"/>
<path d="M55.4273 18.3401C55.6246 17.9556 55.9466 17.8117 56.3289 17.8072C57.2019 17.7968 58.0751 17.7983 58.9481 17.806C59.4679 17.8106 59.7889 18.0597 59.9376 18.5472C60.9871 21.9878 62.0357 25.4286 63.0854 28.8691C63.2185 29.3054 63.3569 29.7401 63.4912 30.1761C63.5094 30.2353 63.5179 30.2974 63.5351 30.3781C62.5861 30.3781 61.6542 30.3781 60.695 30.3781C60.3965 29.302 60.0969 28.2216 59.7943 27.1305C58.359 27.1305 56.9374 27.1305 55.5039 27.1305C55.2033 28.2152 54.9065 29.2866 54.6047 30.3756C53.6595 30.3756 52.7167 30.3756 51.7358 30.3756C51.8227 30.0771 51.9035 29.7862 51.9918 29.4977C53.079 25.9464 54.1671 22.3955 55.2558 18.8447C55.3055 18.6824 55.3625 18.5224 55.4273 18.3401ZM57.1017 24.9397C57.4417 24.9397 57.7819 24.9457 58.1218 24.938C58.4654 24.9303 58.812 24.9718 59.1674 24.9091C58.7207 23.2503 58.2813 21.6184 57.8377 19.9711C57.7123 19.9711 57.5686 19.9711 57.4408 19.9711C56.9949 21.6314 56.5544 23.2714 56.1064 24.9397C56.4446 24.9397 56.7413 24.9397 57.1017 24.9397Z" fill="#2D2D2D"/>
<path d="M77.1912 29.8088C77.1381 30.0078 77.0882 30.1809 77.0323 30.3748C76.0845 30.3748 75.1314 30.3748 74.1562 30.3748C74.3354 29.7924 74.5135 29.2159 74.6899 28.6388C75.3132 26.5998 75.9356 24.5606 76.5587 22.5216C76.9647 21.1929 77.3689 19.8637 77.7788 18.5362C77.9235 18.0677 78.2506 17.8138 78.7457 17.8078C79.629 17.7969 80.5126 17.7975 81.396 17.8075C81.9145 17.8133 82.2197 18.0698 82.3704 18.5642C82.9891 20.5937 83.6115 22.6221 84.2321 24.651C84.7938 26.4874 85.3553 28.3239 85.9155 30.1607C85.9362 30.2285 85.9428 30.3006 85.9585 30.3848C85.0151 30.3848 84.0908 30.3848 83.1249 30.3848C82.8282 29.3145 82.5289 28.2349 82.224 27.135C80.8043 27.135 79.3825 27.135 77.9329 27.135C77.6885 28.0112 77.4414 28.897 77.1912 29.8088ZM81.5095 24.5712C81.0947 23.0387 80.6798 21.5062 80.266 19.9774C80.129 19.9774 79.985 19.9774 79.8601 19.9774C79.6371 20.8232 79.4239 21.6436 79.204 22.4623C78.9848 23.2784 78.7588 24.0928 78.5331 24.9174C79.5716 24.9174 80.5752 24.9174 81.5972 24.9174C81.571 24.8011 81.5503 24.7099 81.5095 24.5712Z" fill="#2D2D2D"/>
<path d="M65.3007 26.8002C66.3139 25.3927 67.3125 24.0029 68.3105 22.6126C68.8993 21.7923 69.4873 20.9714 70.0754 20.1506C70.1042 20.1104 70.1309 20.0686 70.1859 19.9869C68.2435 19.9869 66.345 19.9869 64.4282 19.9869C64.4282 19.2512 64.4282 18.5446 64.4282 17.8223C67.3841 17.8223 70.3292 17.8223 73.2978 17.8223C73.3034 17.9087 73.3131 17.99 73.3133 18.0714C73.3146 18.6253 73.3083 19.1793 73.3172 19.7331C73.3201 19.9141 73.2637 20.0548 73.1595 20.2C71.3049 22.7808 69.4548 25.3649 67.6041 27.9486C67.5504 28.0236 67.4997 28.1008 67.418 28.2204C69.46 28.2204 71.4542 28.2204 73.4664 28.2204C73.4664 28.9499 73.4664 29.6483 73.4664 30.348C73.237 30.4136 65.0601 30.4425 64.3009 30.3774C64.2948 30.3003 64.2831 30.2193 64.2829 30.1383C64.2812 29.5738 64.2861 29.0092 64.2794 28.4447C64.2775 28.2881 64.3146 28.1612 64.41 28.0335C64.7089 27.6334 64.9949 27.2237 65.3007 26.8002Z" fill="#2D2D2D"/>
<path d="M120.008 20.1595C120.054 19.3672 120.099 18.6057 120.146 17.8252C122.607 17.8252 125.062 17.8252 127.557 17.8252C127.529 18.5292 127.502 19.2333 127.474 19.9688C125.764 19.9688 124.066 19.9688 122.327 19.9688C122.276 20.7393 122.227 21.4812 122.177 22.2336C122.843 22.3154 123.472 22.395 124.102 22.4694C124.695 22.5394 125.275 22.6618 125.828 22.8911C126.922 23.3442 127.597 24.1435 127.827 25.3099C127.995 26.164 127.992 27.0192 127.807 27.8686C127.521 29.1873 126.705 30.026 125.417 30.3851C124.605 30.6113 123.772 30.6833 122.927 30.5956C122.442 30.5453 121.951 30.5505 121.466 30.4994C120.792 30.4282 120.121 30.3281 119.448 30.2385C119.419 30.2346 119.393 30.2114 119.345 30.1869C119.428 29.4786 119.511 28.7667 119.595 28.042C120.139 28.0916 120.663 28.1404 121.188 28.1869C121.326 28.1991 121.464 28.2074 121.601 28.2122C122.258 28.2348 122.914 28.3191 123.571 28.2214C123.739 28.1964 123.907 28.1698 124.072 28.1297C124.673 27.9833 125.042 27.6065 125.113 26.9896C125.151 26.668 125.187 26.3463 125.152 26.0115C125.066 25.1946 124.632 24.9632 124.123 24.8421C123.599 24.7175 123.06 24.6545 122.525 24.584C121.916 24.5037 121.302 24.4548 120.693 24.3737C120.137 24.2996 119.824 23.9349 119.841 23.3675C119.857 22.7957 119.909 22.2249 119.94 21.6534C119.966 21.1659 119.985 20.678 120.008 20.1595Z" fill="#2D2D2D"/>
<path d="M102.539 28.3259C102.788 28.2864 103.01 28.2611 103.226 28.2122C103.778 28.0875 104.117 27.7498 104.226 27.1859C104.315 26.7309 104.311 26.277 104.214 25.8267C104.115 25.3604 103.833 25.0426 103.364 24.9328C103.088 24.8682 102.8 24.8274 102.516 24.8214C101.793 24.8061 101.069 24.8163 100.345 24.8163C100.241 24.8163 100.138 24.8163 100.02 24.8163C100.02 24.1677 100.02 23.5544 100.02 22.9197C100.105 22.9122 100.186 22.8993 100.267 22.8991C100.97 22.8975 101.672 22.9057 102.375 22.8941C102.628 22.89 102.884 22.8594 103.131 22.8067C103.756 22.6732 103.997 22.2978 104.045 21.739C104.068 21.4643 104.063 21.185 104.046 20.9093C104.01 20.3053 103.724 19.9865 103.125 19.9224C102.471 19.8525 101.814 19.7994 101.156 19.8907C101.062 19.9037 100.964 19.8948 100.869 19.8949C100.18 19.8951 99.4905 19.895 98.7612 19.895C98.7258 19.259 98.6885 18.5901 98.6502 17.9034C99.05 17.8459 99.4035 17.7875 99.759 17.7453C101.07 17.5894 102.386 17.5436 103.704 17.6206C104.34 17.6578 104.97 17.7614 105.545 18.068C106.185 18.4089 106.534 18.9607 106.647 19.6583C106.78 20.4727 106.746 21.2865 106.547 22.0891C106.345 22.9019 105.856 23.4373 105.027 23.6385C104.968 23.653 104.912 23.6833 104.833 23.7148C105.06 23.7763 105.267 23.818 105.464 23.8883C106.252 24.1694 106.725 24.7455 106.899 25.5455C107.107 26.4998 107.115 27.4648 106.883 28.4187C106.641 29.4145 105.991 30.0321 105.031 30.3463C104.482 30.5261 103.914 30.6009 103.342 30.6275C102.832 30.6511 102.318 30.6616 101.809 30.6263C100.795 30.5559 99.7828 30.4508 98.77 30.3583C98.6653 30.3487 98.5616 30.3276 98.4226 30.3066C98.4011 29.6115 98.5163 28.9237 98.4943 28.242C99.8602 28.2717 101.185 28.3005 102.539 28.3259Z" fill="#2D2D2D"/>
<path d="M28.9437 39.7197C28.0943 40.29 27.1815 40.7411 26.2381 41.1275C25.6301 41.3765 25.0082 41.5927 24.3864 41.8056C24.1788 41.8766 23.9534 41.9162 23.7339 41.9279C22.7752 41.9793 21.8242 41.9721 20.9307 41.5323C20.0996 41.1233 19.6142 40.4456 19.3784 39.5743C19.1756 38.8254 19.1747 38.061 19.2817 37.2989C19.3508 36.8064 19.4676 36.3207 19.5458 35.8293C19.5802 35.6136 19.6937 35.5036 19.8843 35.4172C20.9019 34.9562 21.8766 34.4139 22.8542 33.8506C22.8736 34.029 22.9867 34.1135 23.0942 34.2014C23.1842 34.2751 23.279 34.3434 23.3639 34.4225C23.7364 34.7699 24.1048 35.1218 24.4774 35.4692C24.7178 35.6933 24.9608 35.9146 25.2062 36.1331C25.7598 36.6262 26.3199 37.1122 26.8691 37.6101C27.2622 37.9664 27.6415 38.338 28.0286 38.7011C28.0822 38.7515 28.1499 38.787 28.203 38.8379C28.4818 39.1048 28.8202 39.3222 28.9437 39.7197Z" fill="#2D2D2D"/>
<path d="M100.346 37.2026C100.436 36.6239 100.72 36.255 101.299 36.1725C101.9 36.0867 102.429 36.2256 102.783 36.7499C102.979 37.0383 103.133 37.3569 103.281 37.6738C103.449 38.0367 103.589 38.4129 103.761 38.7794C103.681 37.4593 103.764 36.1406 103.722 34.7889C103.623 34.7889 103.541 34.7889 103.46 34.7888C102.309 34.7888 101.159 34.7882 100.009 34.7892C99.5532 34.7896 99.3669 34.9461 99.3077 35.3921C99.28 35.6017 99.2639 35.8143 99.2627 36.0256C99.2579 36.9203 99.2583 37.8151 99.2626 38.7098C99.2635 38.8996 99.2806 39.0904 99.3054 39.2788C99.3553 39.6564 99.4362 39.7377 99.8136 39.8232C99.865 39.8349 99.9172 39.8434 99.9873 39.8569C99.9873 40.0338 99.9873 40.2092 99.9873 40.3863C99.35 40.5636 98.8396 40.2954 98.6647 39.6643C98.6003 39.4322 98.5637 39.1852 98.5609 38.9444C98.5495 37.9646 98.558 36.9846 98.5553 36.0047C98.5542 35.5983 98.603 35.203 98.796 34.8091C98.3133 34.8091 97.8524 34.8091 97.3435 34.8091C97.3435 35.7394 97.3435 36.6718 97.3435 37.6041C97.3435 38.5382 97.3435 39.4723 97.3435 40.4206C97.0934 40.4206 96.8748 40.4206 96.6263 40.4206C96.6263 38.5541 96.6263 36.6958 96.6263 34.8009C96.4014 34.7965 96.2038 34.7913 96.0062 34.7892C95.8171 34.7873 95.6279 34.7888 95.4107 34.7888C95.4107 36.6761 95.4107 38.5349 95.4107 40.4141C95.0465 40.4467 94.7416 40.4525 94.4256 40.239C93.3069 39.4832 92.1659 38.7604 91.0275 38.0213C91.0275 37.7864 91.0275 37.5554 91.0275 37.2793C91.2788 37.2793 91.5194 37.2793 91.7601 37.2793C91.9305 37.2793 92.1009 37.2821 92.2713 37.2788C92.7477 37.2696 92.999 37.0372 93.0384 36.5678C93.0462 36.4747 93.0395 36.3804 93.0395 36.3076C92.7851 36.3417 92.5363 36.3983 92.2862 36.4043C91.4688 36.4236 91.0952 36.0197 91.0216 35.2452C90.9887 34.8984 91.016 34.5459 91.016 34.172C91.252 34.172 91.4676 34.172 91.7198 34.172C91.7198 34.2876 91.7152 34.4015 91.7207 34.515C91.7335 34.7795 91.7444 35.0444 91.7707 35.3077C91.7798 35.3984 91.8102 35.5044 91.8686 35.5697C92.0903 35.8176 92.3843 35.7907 92.6698 35.7316C92.8987 35.6842 93.0181 35.5143 93.0376 35.2363C93.054 35.003 93.0544 34.7686 93.0598 34.5346C93.0624 34.4195 93.0602 34.3043 93.0602 34.1687C93.2931 34.1687 93.4998 34.1687 93.7249 34.1687C93.7315 34.256 93.7429 34.3384 93.7431 34.4207C93.7445 35.0918 93.7495 35.7629 93.7403 36.4338C93.7377 36.6229 93.7076 36.8153 93.6625 36.9994C93.5307 37.5374 93.1314 37.7647 92.6255 37.8525C92.502 37.8739 92.3752 37.8766 92.1669 37.8953C93.023 38.4711 93.8324 38.9909 94.6929 39.5442C94.6929 37.3742 94.6929 35.2715 94.6929 33.147C94.9372 33.147 95.1532 33.147 95.3973 33.147C95.3973 33.4703 95.3973 33.7862 95.3973 34.1246C95.8105 34.1246 96.1966 34.1246 96.6112 34.1246C96.6112 33.7976 96.6112 33.4826 96.6112 33.1466C96.8567 33.1466 97.0753 33.1466 97.3327 33.1466C97.3327 33.4587 97.3327 33.7822 97.3327 34.1262C100.772 34.1262 104.173 34.1262 107.607 34.1262C107.607 33.9466 107.622 33.7778 107.604 33.6125C107.567 33.2632 107.401 33.109 107.041 33.0879C106.818 33.0747 106.594 33.0952 106.371 33.0819C106.181 33.0707 105.988 33.0509 105.806 33.0022C105.514 32.9244 105.33 32.7115 105.27 32.4242C105.225 32.2135 105.238 31.9907 105.225 31.7578C105.464 31.7578 105.661 31.7578 105.846 31.7578C105.863 31.7827 105.873 31.7906 105.874 31.7994C105.942 32.3608 106.023 32.4443 106.584 32.4826C106.807 32.4978 107.031 32.4837 107.255 32.4862C107.917 32.4935 108.254 32.8032 108.313 33.4649C108.332 33.6757 108.337 33.8877 108.35 34.1293C108.562 34.1401 108.77 34.1507 109.017 34.1633C109.017 34.2729 109.02 34.3758 109.017 34.4786C109.014 34.5717 109.007 34.6646 109 34.7814C107.484 34.7814 105.985 34.7814 104.447 34.7814C104.427 35.172 104.44 35.5403 104.438 35.9078C104.435 36.2805 104.437 36.6534 104.437 37.0262C104.437 37.4096 104.437 37.7931 104.437 38.1765C104.437 38.5493 104.437 38.9221 104.437 39.2949C104.437 39.665 104.437 40.035 104.437 40.4197C104.199 40.4197 103.991 40.4197 103.76 40.4197C103.519 39.8706 103.278 39.3172 103.034 38.7654C102.823 38.2897 102.617 37.8117 102.393 37.3425C102.271 37.0886 102.093 36.885 101.79 36.821C101.415 36.7418 101.144 36.8827 101.073 37.2504C101.038 37.4345 101.044 37.6334 101.069 37.8207C101.097 38.0381 101.234 38.184 101.463 38.2219C101.545 38.2356 101.628 38.2478 101.721 38.2623C101.721 38.4498 101.721 38.6286 101.721 38.8047C101.044 39.0074 100.452 38.6476 100.354 37.9623C100.32 37.7229 100.346 37.475 100.346 37.2026Z" fill="#2D2D2D"/>
<path d="M34.0012 34.804C33.8267 35.0673 33.6724 35.347 33.4737 35.5907C32.9982 36.1741 32.5036 36.742 32.012 37.3122C31.9369 37.3992 31.837 37.465 31.7093 37.539C31.3269 37.2216 30.9869 36.9024 30.6402 36.5907C30.066 36.0741 29.4839 35.5661 28.9118 35.0472C28.535 34.7054 28.1713 34.3491 27.7989 34.0023C27.5509 33.7713 27.298 33.5457 27.0472 33.3178C26.6006 32.912 26.1517 32.5087 25.7098 32.0979C25.6446 32.0374 25.6121 31.9417 25.5645 31.8623C25.7976 31.6322 26.0313 31.4026 26.2639 31.1719C26.8535 30.5872 27.3729 29.9461 27.8438 29.252C28.2106 29.5821 28.5427 29.9094 28.8874 30.2226C29.4514 30.7349 30.027 31.2344 30.5911 31.7465C30.9678 32.0886 31.3317 32.4448 31.7041 32.7916C31.9522 33.0226 32.2059 33.2475 32.4559 33.4764C32.9007 33.8838 33.343 34.2939 33.7908 34.6979C33.8471 34.7487 33.9304 34.7694 34.0012 34.804Z" fill="#2D2D2D"/>
<path d="M9.55713 37.2822C9.87605 37.1361 10.2196 36.9943 10.587 36.875C10.6115 37.0465 10.7033 37.0833 10.8342 37.1114C11.4847 37.2514 12.1318 37.4072 12.782 37.5487C13.9376 37.8002 15.094 38.0476 16.251 38.2922C16.7257 38.3926 17.2029 38.4815 17.6789 38.5757C17.6838 39.5969 17.6951 40.6182 17.69 41.6394C17.6884 41.9757 17.4318 42.2631 17.0894 42.2732C15.8145 42.3108 14.533 42.3576 13.3244 41.8335C11.4147 41.0054 10.1963 39.5875 9.70357 37.5561C9.68073 37.4619 9.62317 37.3761 9.55713 37.2822Z" fill="#2D2D2D"/>
<path d="M25.5427 31.8682C25.6108 31.941 25.6434 32.0367 25.7085 32.0973C26.1505 32.5081 26.5993 32.9114 27.0459 33.3172C27.2967 33.5451 27.5497 33.7707 27.7977 34.0017C28.1701 34.3484 28.5337 34.7047 28.9106 35.0466C29.4827 35.5655 30.0647 36.0735 30.639 36.59C30.9856 36.9018 31.3256 37.221 31.6883 37.5466C31.2685 37.9485 30.8457 38.3617 30.3847 38.7266C29.9386 39.0797 29.4531 39.383 28.9634 39.7142C28.8185 39.3228 28.4801 39.1053 28.2013 38.8384C28.1482 38.7876 28.0805 38.752 28.0268 38.7017C27.6398 38.3386 27.2605 37.967 26.8674 37.6107C26.3181 37.1128 25.7581 36.6268 25.2044 36.1337C24.959 35.9152 24.716 35.6938 24.4757 35.4698C24.1031 35.1224 23.7347 34.7705 23.3621 34.4231C23.2773 34.344 23.1824 34.2756 23.0925 34.202C22.985 34.114 22.8718 34.0296 22.8741 33.8435C23.7949 33.2246 24.6894 32.5918 25.5427 31.8682Z" fill="#2D2D2D"/>
<path d="M24.3809 22.0191C24.7628 21.8919 25.1656 21.7374 25.5824 21.6496C26.2497 21.509 26.9259 21.4092 27.6453 21.4649C27.6982 21.5232 27.7113 21.5677 27.7407 21.5942C28.0951 21.9132 28.4553 22.226 28.8072 22.5477C29.1599 22.87 29.5038 23.2018 29.8538 23.5269C30.0947 23.7507 30.3382 23.9718 30.583 24.1912C31.1749 24.7219 31.7712 25.2476 32.36 25.7817C32.7217 26.1097 33.0719 26.4506 33.4292 26.7835C33.6931 27.0294 33.9557 27.277 34.227 27.5146C34.8398 28.0513 35.461 28.5784 36.0229 29.1706C36.0663 29.2163 36.1557 29.2182 36.2237 29.2405C36.1246 29.6448 36.0339 30.0514 35.9243 30.4529C35.7925 30.9353 35.6446 31.4133 35.4642 31.9069C35.3497 31.8641 35.2693 31.8133 35.2003 31.7499C34.8802 31.4556 34.5675 31.1529 34.2441 30.8623C33.6926 30.3668 33.1325 29.881 32.5808 29.3858C32.0918 28.9468 31.6073 28.5027 31.1242 28.0572C30.5238 27.5036 29.9278 26.9453 29.3277 26.3913C29.1889 26.2631 29.0552 26.121 28.8471 26.1082C28.8429 25.9562 28.8388 25.8041 28.8456 25.6169C28.8477 25.566 28.8388 25.5503 28.8299 25.5347C28.7294 24.7522 28.488 24.0228 27.9886 23.4002C27.1759 22.3869 26.1286 21.8773 24.8164 21.961C24.6796 21.9697 24.5441 22.001 24.3809 22.0191Z" fill="#2D2D2D"/>
<path d="M28.84 26.1369C29.0543 26.1214 29.188 26.2635 29.3268 26.3916C29.9269 26.9456 30.5229 27.504 31.1233 28.0576C31.6064 28.503 32.0909 28.9472 32.5799 29.3861C33.1316 29.8813 33.6917 30.3672 34.2432 30.8626C34.5666 31.1532 34.8793 31.4559 35.1994 31.7503C35.2684 31.8136 35.3488 31.8645 35.4459 31.9236C35.1973 32.5324 34.9424 33.1462 34.6504 33.7419C34.4743 34.1012 34.2406 34.4323 34.0158 34.7893C33.928 34.768 33.8447 34.7473 33.7884 34.6966C33.3406 34.2925 32.8983 33.8824 32.4535 33.475C32.2035 33.2461 31.9498 33.0212 31.7017 32.7903C31.3293 32.4434 30.9654 32.0872 30.5887 31.7451C30.0246 31.233 29.449 30.7336 28.885 30.2212C28.5403 29.908 28.2082 29.5808 27.8604 29.2389C28.0657 28.7585 28.3032 28.3077 28.4908 27.837C28.7033 27.3041 28.8218 26.7435 28.84 26.1369Z" fill="#2D2D2D"/>
<path d="M36.2332 29.2162C36.1554 29.2185 36.0659 29.2165 36.0226 29.1709C35.4607 28.5786 34.8395 28.0515 34.2266 27.5148C33.9553 27.2772 33.6928 27.0296 33.4289 26.7837C33.0715 26.4508 32.7214 26.11 32.3597 25.7819C31.7708 25.2479 31.1746 24.7221 30.5826 24.1915C30.3378 23.972 30.0944 23.7509 29.8535 23.5272C29.5034 23.202 29.1595 22.8702 28.8069 22.5479C28.4549 22.2262 28.0948 21.9135 27.7403 21.5944C27.711 21.568 27.6978 21.5234 27.6748 21.4651C27.8805 21.3167 28.1049 21.3913 28.3221 21.3954C28.4582 21.398 28.5937 21.4387 28.7298 21.4414C29.4641 21.4556 30.1779 21.6008 30.8858 21.7777C31.7845 22.0024 32.6428 22.3368 33.4596 22.7739C34.1242 23.1296 34.7531 23.5415 35.3316 24.0256C35.5834 24.2362 35.816 24.4695 36.063 24.6861C36.1313 24.746 36.2199 24.7828 36.3213 24.8309C36.3751 25.1573 36.4077 25.4831 36.4386 25.8091C36.4545 25.9773 36.4789 26.1458 36.4796 26.3143C36.4833 27.28 36.4113 28.2399 36.2332 29.2162Z" fill="#2D2D2D"/>
<path d="M17.6846 38.5444C17.2021 38.4797 16.725 38.3908 16.2503 38.2904C15.0933 38.0457 13.9368 37.7984 12.7813 37.5469C12.1311 37.4054 11.484 37.2495 10.8335 37.1096C10.7025 37.0815 10.6108 37.0446 10.6094 36.8706C10.8289 36.6839 11.0484 36.5212 11.2697 36.361C11.8818 35.918 12.4484 35.4275 12.9189 34.8303C13.2787 34.3735 13.6528 33.9278 14.0407 33.4922C14.0702 33.7539 14.282 33.7386 14.432 33.7726C15.1808 33.9423 15.9318 34.1033 16.6842 34.257C17.013 34.3242 17.347 34.3666 17.6786 34.4203C17.6831 35.0444 17.69 35.6684 17.6917 36.2925C17.6938 37.0334 17.6914 37.7742 17.6846 38.5444Z" fill="#2D2D2D"/>
<path d="M76.4968 40.4965C76.0434 40.5113 75.6177 40.5529 75.1951 40.5319C74.7635 40.5104 74.3266 40.4627 73.9068 40.3639C73.1233 40.1797 72.784 39.7192 72.7809 38.9257C72.7799 38.6826 72.7807 38.4395 72.7807 38.1829C73.0286 38.1829 73.2492 38.1829 73.5065 38.1829C73.5065 38.4221 73.5056 38.6528 73.5067 38.8834C73.509 39.3885 73.7099 39.6462 74.1987 39.7702C74.2706 39.7885 74.3437 39.8073 74.4173 39.8131C75.2025 39.875 75.9895 39.9128 76.7707 39.7871C77.3229 39.6982 77.5077 39.4542 77.5097 38.8928C77.5104 38.6905 77.5172 38.4878 77.5077 38.2859C77.4908 37.9258 77.3034 37.7383 76.9459 37.7293C76.6175 37.7209 76.2888 37.7275 75.9364 37.7275C75.9364 37.5 75.9364 37.2932 75.9364 37.0636C76.0099 37.0575 76.0914 37.046 76.1731 37.045C76.4074 37.0423 76.642 37.0517 76.8759 37.042C77.2508 37.0264 77.4344 36.8865 77.4613 36.5128C77.493 36.0715 77.4714 35.6258 77.4605 35.1823C77.4566 35.0231 77.3639 34.9056 77.2102 34.8421C77.0029 34.7564 76.7867 34.7572 76.5863 34.8317C76.3915 34.9041 76.3002 35.0774 76.2989 35.2889C76.2975 35.5232 76.2979 35.7575 76.2976 35.9918C76.2974 36.0961 76.2975 36.2005 76.2975 36.3237C76.0649 36.3237 75.858 36.3237 75.6134 36.3237C75.6134 36.2049 75.6134 36.0912 75.6134 35.9776C75.6134 35.7859 75.6154 35.5941 75.613 35.4025C75.6062 34.8499 75.0977 34.5552 74.6158 34.8272C74.4646 34.9124 74.3925 35.0606 74.3894 35.2261C74.3811 35.6731 74.3734 36.1208 74.391 36.5671C74.4019 36.8441 74.5693 36.9898 74.8682 37.0336C74.9917 37.0518 75.1182 37.0506 75.2586 37.0591C75.2586 37.2717 75.2586 37.4693 75.2586 37.6969C74.7987 37.7766 74.3934 37.6992 74.03 37.3717C73.6966 37.6935 73.2888 37.7641 72.822 37.7074C72.822 37.4817 72.822 37.2851 72.822 37.0628C72.9332 37.0546 73.0466 37.0506 73.159 37.0374C73.508 36.9963 73.6686 36.8232 73.6742 36.4709C73.6797 36.1195 73.6813 35.7679 73.6738 35.4166C73.6651 35.0067 73.4464 34.7953 73.0342 34.7881C72.8015 34.7841 72.5687 34.7874 72.3135 34.7874C72.3135 34.5683 72.3135 34.3724 72.3135 34.1492C72.8888 34.1619 73.4869 34.0206 74.0026 34.5006C74.2246 34.1659 74.5833 34.1227 74.9318 34.1124C75.2818 34.102 75.6302 34.1665 75.9129 34.4275C76.2975 34.1333 76.7224 34.0811 77.1839 34.1384C77.9447 34.2329 78.1832 34.7312 78.2104 35.2696C78.2314 35.6839 78.2218 36.1003 78.2124 36.5154C78.2046 36.8578 78.0901 37.1607 77.7933 37.3789C78.134 37.6056 78.2302 37.9237 78.2336 38.2788C78.2366 38.5979 78.2379 38.918 78.2161 39.236C78.1805 39.7535 77.9065 40.1161 77.4211 40.286C77.1334 40.3867 76.825 40.4279 76.4968 40.4965Z" fill="#2D2D2D"/>
<path d="M82.5058 34.1445C83.2597 34.1445 83.9817 34.1445 84.7182 34.1445C84.7182 34.3624 84.7182 34.5506 84.7182 34.7866C83.8197 34.7932 82.9215 34.7862 82.006 34.7906C81.998 34.8928 81.9861 34.9744 81.986 35.0561C81.9846 35.9182 82.0021 36.7808 81.9798 37.6423C81.9612 38.3623 82.4388 38.517 83.0185 38.4062C83.2949 38.3534 83.4446 38.1554 83.461 37.89C83.4833 37.5296 83.4811 37.1663 83.4643 36.8054C83.4517 36.5342 83.2749 36.3834 82.9798 36.3482C82.8772 36.336 82.7731 36.3366 82.657 36.3307C82.657 36.1234 82.657 35.9348 82.657 35.7471C83.4258 35.4715 84.1665 35.9674 84.1778 36.7658C84.1831 37.1383 84.1828 37.5109 84.1778 37.8834C84.1681 38.6199 83.7145 39.0874 82.9845 39.0887C82.6607 39.0892 82.3368 39.0398 81.9875 39.011C81.9875 39.4472 81.9875 39.9216 81.9875 40.4103C81.6329 40.46 81.3317 40.4589 81.0428 40.2288C80.6114 39.8851 80.1444 39.5865 79.7061 39.251C79.2639 38.9126 79.0599 38.4462 79.0662 37.8924C79.0698 37.5747 79.0811 37.2564 79.1079 36.9399C79.143 36.5251 79.3725 36.2235 79.7298 36.0341C80.1325 35.8205 80.55 35.6348 80.9613 35.4374C81.0568 35.3916 81.153 35.3476 81.2623 35.2965C81.2623 35.1388 81.2623 34.9846 81.2623 34.7946C80.3463 34.7946 79.437 34.7946 78.5088 34.7946C78.5088 34.5729 78.5088 34.386 78.5088 34.1908C78.5092 34.1902 78.5134 34.1805 78.5207 34.1743C78.5286 34.1676 78.5394 34.1601 78.5489 34.1601C79.8572 34.1545 81.1655 34.1495 82.5058 34.1445ZM80.4229 36.4568C80.394 36.4703 80.3654 36.4843 80.3362 36.4972C79.9788 36.6552 79.7864 36.9151 79.8094 37.3202C79.8207 37.5182 79.814 37.7173 79.8109 37.9158C79.8052 38.2752 79.9622 38.547 80.2463 38.757C80.5451 38.9778 80.8394 39.2046 81.1374 39.4265C81.19 39.4657 81.2511 39.4935 81.2876 39.5146C81.2876 38.3718 81.2876 37.2392 81.2876 36.0536C80.9783 36.1962 80.7214 36.3147 80.4229 36.4568Z" fill="#2D2D2D"/>
<path d="M17.6847 34.572C17.3465 34.5478 17.0126 34.5054 16.6837 34.4382C15.9314 34.2845 15.1804 34.1235 14.4315 33.9538C14.2816 33.9198 14.0697 33.9351 14.0596 33.6635C14.1066 33.5459 14.1458 33.4473 14.2038 33.3614C15.0092 32.1703 15.8112 30.9768 16.6273 29.793C16.9507 29.3239 17.3067 28.8772 17.6657 28.4102C17.6867 29.6624 17.6907 30.9248 17.6927 32.1873C17.6939 32.9724 17.6919 33.7575 17.6847 34.572Z" fill="#2D2D2D"/>
<path d="M88.5002 37.6485C88.5013 37.8246 88.5013 37.9731 88.5013 38.1176C87.6874 38.3117 87.035 37.8517 87.0293 37.2265C87.0231 36.5595 87.0025 35.8912 87.0323 35.2255C87.0573 34.6681 87.4074 34.3365 87.934 34.2084C88.4517 34.0824 88.9679 34.0873 89.4481 34.3615C89.788 34.5555 89.9844 34.8623 89.987 35.2467C89.9984 36.9594 89.9919 38.6723 89.9919 40.4084C89.9007 40.4168 89.82 40.4303 89.7392 40.4306C89.2072 40.4326 88.675 40.4382 88.1431 40.4282C87.943 40.4245 87.7381 40.4039 87.5452 40.3533C87.1329 40.2453 86.8668 39.9849 86.7707 39.5545C86.6909 39.1974 86.7081 38.8415 86.7233 38.4659C86.9562 38.4659 87.1744 38.4659 87.436 38.4659C87.436 38.5914 87.4333 38.715 87.4368 38.8385C87.4401 38.9549 87.4379 39.0734 87.4592 39.187C87.5298 39.5632 87.6993 39.7366 88.0744 39.7583C88.4655 39.781 88.8589 39.7634 89.2676 39.7634C89.2752 39.6609 89.2867 39.578 89.2868 39.4951C89.2879 38.186 89.29 36.877 89.2843 35.5679C89.2836 35.4224 89.2688 35.261 89.2052 35.1348C89.0431 34.8127 88.7355 34.7714 88.4126 34.7853C88.1267 34.7976 87.8877 34.8882 87.7856 35.1821C87.7516 35.2798 87.738 35.3889 87.7369 35.493C87.7319 35.9613 87.7325 36.4296 87.7354 36.8979C87.7379 37.3072 87.8345 37.4164 88.2327 37.505C88.3255 37.5256 88.4106 37.5813 88.5002 37.6485Z" fill="#2D2D2D"/>
<path d="M106.267 36.7325C106.266 36.9644 106.265 37.1666 106.262 37.3688C106.262 37.3883 106.249 37.4077 106.235 37.4487C106.026 37.4487 105.81 37.4487 105.58 37.4487C105.58 37.0449 105.531 36.6465 105.59 36.2648C105.709 35.4987 106.157 35.3216 106.787 35.2619C107.024 35.2395 107.276 35.2824 107.509 35.3433C108.02 35.477 108.26 35.8771 108.293 36.3584C108.33 36.9067 108.322 37.4658 108.259 38.0114C108.185 38.6425 107.77 38.9784 107.14 39.0264C106.929 39.0425 106.719 39.0638 106.454 39.0876C106.644 39.3166 106.847 39.4921 107.031 39.6852C107.214 39.8779 107.393 40.0742 107.579 40.2637C107.772 40.4601 107.971 40.6502 108.177 40.8524C108.023 40.9095 107.427 40.9521 107.318 40.9146C107.271 40.8984 107.226 40.8645 107.191 40.8282C106.672 40.2945 106.158 39.7566 105.636 39.2262C105.539 39.1274 105.487 39.0298 105.496 38.8903C105.506 38.7436 105.498 38.5958 105.498 38.4233C105.929 38.4233 106.333 38.4266 106.736 38.4213C106.862 38.4197 106.992 38.4088 107.113 38.3774C107.35 38.3162 107.5 38.1507 107.544 37.9144C107.641 37.399 107.641 36.8792 107.553 36.3629C107.504 36.0772 107.311 35.9125 106.983 35.9062C106.677 35.9003 106.429 35.9755 106.343 36.2667C106.301 36.4072 106.291 36.5571 106.267 36.7325Z" fill="#2D2D2D"/>
<path d="M79.929 40.468C79.9367 40.546 79.9418 40.5989 79.9388 40.6514C79.922 40.9462 79.7673 41.0834 79.4671 41.0718C79.1924 41.0612 79.0443 40.9063 79.042 40.6271C79.0395 40.3184 79.1718 40.1885 79.4778 40.173C79.694 40.162 79.8474 40.2321 79.929 40.468Z" fill="#2D2D2D"/>
<path d="M68.0012 40.7766C67.8338 41.0392 67.6855 41.1038 67.4378 41.0465C67.2326 40.999 67.1405 40.8345 67.1566 40.5438C67.1683 40.3312 67.281 40.1989 67.4782 40.1781C67.9039 40.1331 68.0712 40.3323 68.0012 40.7766Z" fill="#2D2D2D"/>
<path d="M28.8286 25.5508C28.84 25.5505 28.8486 25.5656 28.8491 25.5871C28.8359 25.5845 28.8309 25.5753 28.8286 25.5508Z" fill="#2D9C32"/>
<path d="M36.339 24.6849C36.3212 24.688 36.3119 24.6743 36.3057 24.645C36.3235 24.639 36.3364 24.6519 36.339 24.6849Z" fill="#1D8F2C"/>
</g>
<defs>
<clipPath id="clip0_2540_12692">
<rect width="127.844" height="54.4224" fill="white" transform="translate(0.078125 0.289062)"/>
</clipPath>
</defs>
</svg>
