<svg width="176" height="143" viewBox="0 0 176 143" fill="none" xmlns="http://www.w3.org/2000/svg">
<mask id="mask0_1222_3533" style="mask-type:luminance" maskUnits="userSpaceOnUse" x="0" y="0" width="176" height="143">
<path d="M175.9 0H0V142.343H175.9V0Z" fill="white"/>
</mask>
<g mask="url(#mask0_1222_3533)">
<path d="M1.375 44.5919L12.5683 80.9175C12.6767 81.2555 12.8896 81.5509 13.176 81.7616C13.4624 81.9724 13.8083 82.0878 14.1643 82.0919H36.6499M1.375 44.5919L20.2275 21.2067M1.375 44.5919L36.6499 82.0919M36.6499 82.0919L33.2626 96.3288C33.1884 96.6629 33.2166 97.0117 33.3435 97.3302C33.4704 97.6486 33.6903 97.9219 33.9745 98.114L52.1647 109.978M36.6499 82.0919L60.6084 51.0008L20.2275 21.2067M36.6499 82.0919H60.6084M20.2275 21.2067L67.9729 1.63728M20.2275 21.2067L72.2195 35.8837M72.2195 35.8837L60.6084 50.9519M72.2195 35.8837L74.6744 60.541M72.2195 35.8837L109.95 25.3161M72.2195 35.8837L119.695 45.9864L138.819 17.2925M60.6084 50.9519V82.0429M60.6084 50.9519L74.6744 60.541M74.6744 60.541L60.6084 82.0429M109.95 25.3161L67.9729 1.61279M109.95 25.3161L119.77 45.9864M138.819 17.2925L67.9729 1.61279M138.819 17.2925L162.556 55.1105M138.819 17.2925L143.948 75.0225M60.6084 82.0429L52.1647 109.929L79.8296 105.746L60.6084 82.0429ZM67.9729 1.61279L72.2195 35.8592M147.116 110.051L74.7485 60.6634L79.9037 105.869L99.8358 76.0006M147.116 110.051L167.637 93.9806C167.87 93.7968 168.049 93.5555 168.157 93.2805C168.265 93.0048 168.297 92.706 168.251 92.4146L162.63 55.2327M147.116 110.051L144.022 75.1446M147.116 110.051V124.582C147.116 124.924 147.009 125.258 146.812 125.539C146.614 125.819 146.334 126.031 146.011 126.147L120.039 135.688L147.041 110.051M99.8358 76.0006L119.77 46.1085M99.8358 76.0006L103.936 118.05L144.022 75.1446M99.8358 76.0006L125.219 69.0291M162.63 55.2327L119.77 46.1085M162.63 55.2327L144.022 75.1446M144.022 75.1446L125.219 69.0291M119.77 46.1085L125.219 69.0291M103.936 117.953L120.039 135.589L102.365 133.828C102.131 133.806 101.904 133.735 101.701 133.619C101.497 133.502 101.32 133.344 101.183 133.154C101.045 132.964 100.95 132.746 100.904 132.517C100.859 132.287 100.863 132.05 100.917 131.823L103.936 117.953ZM103.936 117.953L79.9037 105.722L99.3942 132.923C99.5326 133.118 99.7122 133.28 99.9198 133.398C100.127 133.516 100.359 133.588 100.597 133.608L120.039 135.541" stroke="#F7F0DC" stroke-width="2.28654"/>
</g>
</svg>
