<svg width="1001" height="161" viewBox="0 0 1001 161" fill="none" xmlns="http://www.w3.org/2000/svg">
<path d="M49.4129 123.449C47.7548 123.449 46.163 122.802 44.979 121.646C43.8187 120.466 43.167 118.878 43.1673 117.226V0H55.5655V117.226C55.5658 118.878 54.9166 120.466 53.7562 121.646C53.1993 122.233 52.5249 122.696 51.7766 123.008C51.0287 123.316 50.2231 123.468 49.4129 123.449ZM5.70523 11.4548C4.93679 11.482 4.17006 11.3519 3.45401 11.0736C2.73793 10.7922 2.08818 10.3717 1.543 9.83007C1.04197 9.31572 0.647214 8.71062 0.38315 8.04499C0.11909 7.37937 -0.0105303 6.66833 0.00316195 5.95429C-0.0472301 4.42335 0.506391 2.93479 1.543 1.80322C2.09263 1.27677 2.74633 0.868309 3.46285 0.602059C4.17935 0.338834 4.94272 0.226907 5.70523 0.272291H93.2088C93.9589 0.21783 94.7126 0.323713 95.4159 0.589963C96.1195 0.853188 96.755 1.26769 97.2804 1.80322C97.8227 2.34783 98.2485 2.99531 98.5288 3.70935C98.8091 4.42338 98.939 5.18882 98.9108 5.95429C98.929 6.67741 98.7917 7.39749 98.5112 8.06614C98.2303 8.73479 97.8109 9.33388 97.2804 9.83007C96.7593 10.3777 96.1277 10.8043 95.4247 11.0857C94.722 11.367 93.9649 11.4911 93.2088 11.4548H5.70523ZM117.553 88.2802C116.701 88.3105 115.85 88.1652 115.056 87.8566C114.262 87.545 113.542 87.076 112.938 86.4769C112.383 85.887 111.951 85.1911 111.672 84.4347C111.392 83.6753 111.268 82.8675 111.307 82.0596V6.40211C111.263 5.59428 111.385 4.78644 111.665 4.02702C111.945 3.2676 112.379 2.57171 112.938 1.98475C113.55 1.40384 114.274 0.950016 115.067 0.656535C115.861 0.363055 116.707 0.229933 117.553 0.272291C118.343 0.235984 119.132 0.372125 119.866 0.668631C120.599 0.962112 121.261 1.41292 121.805 1.98475C122.394 2.55356 122.852 3.24339 123.149 4.00583C123.445 4.76828 123.573 5.58823 123.524 6.40211V82.2382C123.568 83.0551 123.436 83.872 123.14 84.6314C122.843 85.3938 122.39 86.0837 121.805 86.6585C121.25 87.2092 120.583 87.6388 119.85 87.9202C119.117 88.1985 118.336 88.3226 117.553 88.2802ZM185.6 123.449C184.775 123.468 183.957 123.319 183.194 123.008C182.43 122.699 181.74 122.233 181.165 121.646C180.591 121.102 180.141 120.442 179.844 119.713C179.548 118.981 179.412 118.194 179.447 117.407V76.3776C179.666 70.7833 178.353 65.2344 175.647 60.3269C173.24 56.3876 169.712 53.2471 165.511 51.3107C160.994 49.1565 156.04 48.0763 151.034 48.155C146.193 48.0824 141.399 49.102 137.007 51.1292C133.064 52.9717 129.665 55.7976 127.143 59.3345C124.761 62.8139 123.499 66.9348 123.524 71.1494H114.475C114.483 64.7503 116.337 58.4904 119.815 53.1139C123.15 47.8918 127.798 43.6348 133.298 40.7605C139.017 37.6684 145.432 36.086 151.937 36.1617C158.957 36.0618 165.891 37.7047 172.116 40.939C177.976 43.9797 182.795 48.6906 185.962 54.4664C189.642 61.1741 191.455 68.738 191.211 76.3776V117.407C191.246 118.194 191.11 118.981 190.813 119.713C190.517 120.442 190.067 121.102 189.492 121.646C188.469 122.714 187.078 123.356 185.6 123.449ZM117.553 123.449C115.861 123.525 114.206 122.944 112.938 121.825C111.835 120.624 111.248 119.035 111.307 117.407V43.2839C111.263 42.476 111.385 41.6682 111.665 40.9088C111.945 40.1494 112.379 39.4535 112.938 38.8665C113.55 38.2826 114.274 37.8318 115.067 37.5383C115.861 37.2418 116.707 37.1117 117.553 37.1541C118.343 37.1178 119.132 37.2508 119.866 37.5474C120.599 37.8439 121.261 38.2917 121.805 38.8665C122.394 39.4353 122.852 40.1252 123.149 40.8876C123.445 41.65 123.573 42.47 123.524 43.2839V117.407C123.556 118.221 123.42 119.032 123.124 119.795C122.829 120.554 122.38 121.247 121.805 121.825C121.243 122.369 120.577 122.793 119.846 123.071C119.115 123.35 118.335 123.477 117.553 123.449ZM222.973 123.449C221.281 123.525 219.626 122.944 218.358 121.825C217.236 120.563 216.652 118.911 216.73 117.226V43.2839C216.685 42.476 216.805 41.6682 217.085 40.9088C217.366 40.1494 217.799 39.4535 218.358 38.8665C218.971 38.2826 219.694 37.8318 220.488 37.5383C221.281 37.2418 222.127 37.1117 222.973 37.1541C223.764 37.1178 224.552 37.2508 225.286 37.5474C226.02 37.8439 226.682 38.2917 227.226 38.8665C227.815 39.4353 228.273 40.1252 228.569 40.8876C228.866 41.65 228.994 42.47 228.945 43.2839V117.226C228.986 118.07 228.856 118.911 228.56 119.701C228.265 120.493 227.81 121.217 227.226 121.825C226.664 122.369 225.997 122.793 225.266 123.071C224.535 123.35 223.755 123.477 222.973 123.449ZM222.973 20.7403C221.843 20.7585 220.72 20.5406 219.677 20.108C218.634 19.6723 217.694 19.0309 216.911 18.217C215.316 16.568 214.409 14.3745 214.377 12.0841C214.324 10.9404 214.522 9.79979 214.96 8.73782C215.398 7.67886 216.065 6.72884 216.911 5.95429C218.603 4.37494 220.837 3.5036 223.154 3.51873C224.234 3.5157 225.303 3.73049 226.298 4.14802C227.293 4.56858 228.193 5.17975 228.945 5.95429C229.844 6.69556 230.559 7.63655 231.03 8.69853C231.501 9.76353 231.717 10.9223 231.66 12.0841C231.689 13.2248 231.48 14.3624 231.043 15.4183C230.607 16.4742 229.953 17.4273 229.126 18.217C228.312 19.0641 227.327 19.7267 226.234 20.1624C225.141 20.5981 223.968 20.7978 222.792 20.7403H222.973ZM330.206 123.449C329.383 123.468 328.56 123.319 327.798 123.008C327.035 122.699 326.343 122.233 325.769 121.646C325.183 121.108 324.718 120.451 324.406 119.719C324.093 118.99 323.941 118.2 323.959 117.407V76.3776C324.178 70.7833 322.866 65.2344 320.16 60.3269C317.813 56.3725 314.306 53.2259 310.115 51.3107C305.596 49.1565 300.643 48.0763 295.637 48.155C290.797 48.0824 286.003 49.102 281.611 51.1292C277.668 52.9717 274.269 55.7976 271.747 59.3345C269.326 62.7958 268.061 66.9287 268.128 71.1494H259.079C259.087 64.7503 260.941 58.4904 264.418 53.1139C267.753 47.8918 272.402 43.6348 277.902 40.7605C283.621 37.6684 290.036 36.086 296.541 36.1617C303.533 36.0497 310.443 37.6956 316.632 40.939C322.535 43.9525 327.388 48.6664 330.564 54.4664C334.245 61.1741 336.057 68.738 335.814 76.3776V117.407C335.851 118.194 335.714 118.981 335.417 119.713C335.119 120.442 334.67 121.102 334.096 121.646C333.03 122.757 331.566 123.401 330.023 123.449H330.206ZM262.156 123.449C260.465 123.525 258.809 122.944 257.541 121.825C256.439 120.624 255.852 119.035 255.911 117.407V43.2839C255.867 42.476 255.989 41.6682 256.269 40.9088C256.549 40.1494 256.982 39.4535 257.541 38.8665C258.154 38.2826 258.877 37.8318 259.671 37.5383C260.464 37.2418 261.311 37.1117 262.156 37.1541C262.947 37.1178 263.735 37.2508 264.469 37.5474C265.203 37.8439 265.865 38.2917 266.409 38.8665C266.998 39.4353 267.455 40.1252 267.752 40.8876C268.049 41.65 268.177 42.47 268.128 43.2839V117.407C268.16 118.221 268.024 119.032 267.728 119.795C267.432 120.554 266.984 121.247 266.409 121.825C265.826 122.391 265.13 122.829 264.366 123.108C263.602 123.389 262.787 123.504 261.975 123.449H262.156ZM368.841 94.5946L361.335 86.4769L415.628 37.7834C416.126 37.2539 416.73 36.8394 417.401 36.558C418.069 36.2796 418.792 36.1435 419.518 36.1617C420.249 36.1889 420.969 36.3734 421.625 36.7002C422.278 37.027 422.855 37.4868 423.319 38.0556C423.86 38.5972 424.285 39.2447 424.568 39.9587C424.847 40.6728 424.977 41.4382 424.95 42.2037C424.926 42.9087 424.741 43.5985 424.413 44.2218C424.082 44.8481 423.614 45.3897 423.046 45.8102L368.841 94.5946ZM364.86 123.449C363.227 123.507 361.635 122.923 360.427 121.825C359.324 120.624 358.741 119.035 358.799 117.407V6.22358C358.766 5.44298 358.89 4.66542 359.17 3.93626C359.452 3.20709 359.877 2.54145 360.427 1.98475C361.01 1.41292 361.705 0.965137 362.467 0.668631C363.23 0.37515 364.043 0.239009 364.86 0.272291C365.653 0.229933 366.445 0.36303 367.18 0.659536C367.915 0.956043 368.574 1.40686 369.115 1.98475C369.695 2.5233 370.15 3.18288 370.448 3.91507C370.742 4.64726 370.876 5.43391 370.837 6.22358V117.407C370.867 118.221 370.73 119.032 370.436 119.795C370.141 120.554 369.689 121.247 369.115 121.825C368.535 122.397 367.839 122.835 367.074 123.117C366.312 123.395 365.492 123.51 364.681 123.449H364.86ZM423.408 122.636C422.849 123.171 422.178 123.577 421.443 123.825C420.708 124.076 419.928 124.161 419.156 124.079C418.397 123.997 417.665 123.752 417.012 123.365C416.356 122.974 415.792 122.451 415.357 121.825L380.065 78.6317L388.571 71.0586L424.224 114.703C424.716 115.268 425.093 115.925 425.327 116.639C425.561 117.353 425.646 118.103 425.582 118.851C425.476 119.61 425.211 120.339 424.807 120.993C424.404 121.643 423.863 122.203 423.228 122.636H423.408ZM475.894 124.17C468.095 124.306 460.406 122.345 453.635 118.491C447.218 114.651 441.916 109.211 438.251 102.709C434.497 95.8562 432.597 88.1501 432.73 80.3472C432.606 72.5079 434.44 64.7594 438.069 57.8036C441.5 51.3833 446.593 45.9978 452.818 42.2037C459.289 38.2432 466.762 36.21 474.357 36.3401C480.597 36.2252 486.786 37.5201 492.456 40.1282C498.049 42.7816 502.969 46.6664 506.84 51.4892C507.378 52.0247 507.776 52.6843 507.997 53.4074C508.216 54.1305 508.255 54.896 508.11 55.6373C507.645 57.1138 506.685 58.3875 505.395 59.2438C504.83 59.6613 504.183 59.9578 503.497 60.1121C502.814 60.2694 502.103 60.2815 501.414 60.1484C499.974 59.7974 498.696 58.9715 497.791 57.8036C494.967 54.4664 491.429 51.8039 487.436 50.0097C483.443 48.2125 479.097 47.3351 474.718 47.4319C469.198 47.2897 463.753 48.7632 459.064 51.6707C454.567 54.5208 450.935 58.5448 448.566 63.3041C446.055 68.6291 444.819 74.4624 444.947 80.3472C444.859 86.2077 446.225 92.0017 448.928 97.2087C451.466 102.047 455.284 106.098 459.966 108.93C464.913 111.783 470.543 113.247 476.255 113.169C480.06 113.22 483.847 112.669 487.475 111.547C490.816 110.467 493.895 108.718 496.525 106.406C497.636 105.411 499.024 104.779 500.506 104.603C501.888 104.534 503.245 104.984 504.308 105.865C504.888 106.361 505.358 106.969 505.702 107.65C506.042 108.331 506.248 109.072 506.3 109.834C506.424 110.527 506.364 111.241 506.124 111.907C505.887 112.57 505.477 113.16 504.942 113.619C496.947 120.79 486.461 124.575 475.711 124.17H475.894ZM532.27 70.0662C532.497 63.9092 534.24 57.9034 537.338 52.5724C540.362 47.5923 544.556 43.4139 549.554 40.3974C554.641 37.4687 560.42 35.9438 566.292 35.9801C570.146 35.7925 573.987 36.5035 577.516 38.0556C578.685 38.5034 579.642 39.3718 580.194 40.4913C580.747 41.6137 580.859 42.8996 580.501 44.0977C580.401 44.7513 580.152 45.3745 579.775 45.9191C579.402 46.4667 578.907 46.9206 578.33 47.2534C577.194 47.7617 575.949 47.9795 574.71 47.8827H569.915C564.562 47.2776 559.138 47.9281 554.079 49.7767C549.767 51.3198 545.992 54.0761 543.22 57.7128C540.523 61.398 539.126 65.8668 539.239 70.4263L532.27 70.0662ZM533.266 123.268C532.455 123.322 531.638 123.207 530.876 122.926C530.11 122.648 529.415 122.212 528.832 121.646C528.273 121.056 527.839 120.363 527.56 119.604C527.28 118.845 527.156 118.034 527.201 117.226V42.9238C527.156 42.116 527.28 41.3082 527.56 40.5487C527.839 39.7863 528.273 39.0934 528.832 38.5065C530.05 37.4324 531.644 36.8787 533.266 36.9725C534.055 36.9241 534.848 37.033 535.595 37.2963C536.342 37.5595 537.025 37.9709 537.608 38.5065C538.167 39.0934 538.598 39.7863 538.88 40.5487C539.16 41.3082 539.281 42.116 539.239 42.9238V117.226C539.281 118.034 539.16 118.845 538.88 119.604C538.598 120.363 538.167 121.056 537.608 121.646C537.04 122.267 536.336 122.751 535.552 123.062C534.769 123.374 533.928 123.507 533.083 123.449L533.266 123.268ZM610.364 160.779C609.368 160.761 608.381 160.546 607.467 160.15C606.711 159.929 606.012 159.539 605.429 159.009C604.849 158.48 604.397 157.823 604.108 157.094C603.82 156.362 603.701 155.575 603.768 154.791C603.832 154.008 604.075 153.248 604.482 152.574L655.61 40.3097C655.853 39.5715 656.26 38.8998 656.798 38.337C657.335 37.7773 657.994 37.3447 658.723 37.0693C659.449 36.791 660.229 36.6821 661.007 36.7426C661.784 36.8031 662.534 37.036 663.208 37.4233C663.973 37.6018 664.684 37.9588 665.279 38.4671C665.874 38.9785 666.339 39.6229 666.631 40.346C666.925 41.0722 667.037 41.8588 666.961 42.6364C666.886 43.414 666.624 44.1613 666.196 44.8178L614.98 157.173C614.691 158.232 614.069 159.169 613.206 159.853C612.341 160.534 611.284 160.921 610.182 160.961L610.364 160.779ZM627.919 120.563C626.495 121.129 624.906 121.129 623.485 120.563C622.025 119.946 620.834 118.826 620.136 117.407L584.844 44.5455C584.534 43.8527 584.373 43.0993 584.373 42.3369C584.373 41.5744 584.534 40.824 584.844 40.1282C585.132 39.4171 585.56 38.7697 586.104 38.2281C586.647 37.6835 587.297 37.2569 588.014 36.9725C588.709 36.6609 589.465 36.5005 590.228 36.5005C590.993 36.5005 591.749 36.6609 592.447 36.9725C593.17 37.1903 593.829 37.5746 594.379 38.0889C594.928 38.6063 595.351 39.2417 595.612 39.9497L630.272 112.809C631.047 114.143 631.335 115.704 631.086 117.226C630.904 118.061 630.491 118.829 629.902 119.45C629.313 120.07 628.563 120.518 627.737 120.745L627.919 120.563ZM684.113 160.15C683.281 160.177 682.455 160.041 681.677 159.747C680.9 159.454 680.189 159.006 679.588 158.434C679.029 157.847 678.598 157.154 678.319 156.395C678.039 155.633 677.915 154.825 677.96 154.017V79.5333C677.951 71.7848 679.977 64.1664 683.842 57.4405C687.614 50.9779 693.007 45.6015 699.497 41.8407C706.28 38.0194 713.963 36.0588 721.755 36.1617C729.718 36.0437 737.564 38.0678 744.47 42.0222C750.996 45.7285 756.404 51.1171 760.124 57.6221C764.062 64.478 766.064 72.2689 765.918 80.1656C766.021 87.9776 764.087 95.6838 760.306 102.528C756.811 109.008 751.661 114.451 745.375 118.309C738.724 122.139 731.157 124.1 723.477 123.991C716.787 124.088 710.173 122.572 704.2 119.571C698.701 116.754 693.979 112.636 690.447 107.577V154.377C690.484 155.2 690.344 156.023 690.031 156.785C689.718 157.548 689.242 158.235 688.637 158.797C688.024 159.393 687.28 159.844 686.463 160.107C685.646 160.374 684.781 160.449 683.931 160.331L684.113 160.15ZM721.755 112.99C727.528 113.078 733.219 111.61 738.226 108.751C743.033 105.959 746.978 101.904 749.629 97.0271C752.55 91.8897 754.05 86.0715 753.972 80.1656C754.072 74.2567 752.572 68.4324 749.629 63.3041C746.999 58.4359 743.049 54.4028 738.226 51.6707C733.267 48.6724 727.555 47.1385 721.755 47.2534C716.019 47.1717 710.377 48.7057 705.47 51.6707C700.687 54.4543 696.748 58.4753 694.067 63.3041C691.294 68.4869 689.888 74.2899 689.995 80.1656C689.913 86.0382 691.316 91.8352 694.067 97.0271C696.767 101.868 700.699 105.91 705.47 108.751C710.353 111.613 715.91 113.138 721.576 113.169L721.755 112.99ZM819.485 123.268C814.21 123.341 809.014 121.967 804.465 119.301C800.141 116.69 796.582 112.987 794.15 108.57C791.557 103.717 790.251 98.2858 790.348 92.7913V15.6906C790.29 14.0628 790.873 12.4775 791.976 11.2733C792.559 10.7015 793.254 10.2536 794.016 9.95712C794.779 9.66364 795.592 9.52753 796.412 9.55778C797.229 9.52753 798.046 9.66364 798.808 9.95712C799.57 10.2536 800.263 10.7015 800.846 11.2733C801.42 11.8542 801.869 12.544 802.167 13.3034C802.461 14.0628 802.598 14.8767 802.565 15.6906V92.7913C802.395 97.6595 804.11 102.407 807.362 106.046C808.905 107.698 810.785 109.005 812.877 109.874C814.966 110.745 817.22 111.16 819.485 111.093H823.83C824.593 111.069 825.352 111.208 826.056 111.505C826.761 111.801 827.389 112.246 827.903 112.809C828.981 114.022 829.533 115.61 829.442 117.226C829.46 118.055 829.302 118.881 828.975 119.643C828.647 120.406 828.158 121.087 827.541 121.646C826.226 122.745 824.55 123.322 822.834 123.268H819.485ZM780.123 51.1292C779.398 51.1624 778.672 51.0505 777.989 50.8054C777.305 50.5573 776.677 50.1761 776.142 49.686C775.623 49.2049 775.219 48.6149 774.955 47.9614C774.688 47.3079 774.569 46.6029 774.603 45.898C774.569 45.196 774.688 44.4911 774.955 43.8376C775.219 43.184 775.623 42.594 776.142 42.113C777.214 41.0994 778.648 40.5487 780.123 40.579H820.484C821.957 40.5669 823.381 41.1145 824.465 42.113C824.966 42.6061 825.361 43.1961 825.625 43.8466C825.889 44.5001 826.017 45.196 826.002 45.898C826.017 46.6029 825.889 47.3018 825.625 47.9523C825.361 48.6028 824.966 49.1928 824.465 49.686C823.372 50.6602 821.948 51.1776 820.484 51.1292H780.123ZM847.993 126.245C846.779 126.251 845.576 126.015 844.459 125.549C843.338 125.086 842.327 124.403 841.477 123.537C840.611 122.693 839.925 121.683 839.457 120.566C838.993 119.453 838.756 118.255 838.762 117.047C838.744 115.822 838.974 114.609 839.439 113.477C839.907 112.346 840.599 111.32 841.477 110.464C842.327 109.601 843.338 108.918 844.459 108.452C845.576 107.986 846.779 107.75 847.993 107.759C849.202 107.738 850.401 107.977 851.51 108.458C852.618 108.942 853.611 109.656 854.416 110.554C855.281 111.399 855.971 112.409 856.435 113.526C856.903 114.642 857.14 115.837 857.131 117.047C857.14 118.255 856.903 119.453 856.435 120.566C855.971 121.683 855.281 122.693 854.416 123.537C853.566 124.406 852.53 125.074 851.388 125.495C850.247 125.915 849.023 126.079 847.811 125.973L847.993 126.245ZM883.735 123.719C882.044 123.797 880.389 123.214 879.119 122.097C878.069 120.796 877.525 119.165 877.583 117.498V43.5562C877.501 41.9375 878.05 40.3551 879.119 39.1358C879.733 38.5549 880.455 38.101 881.251 37.8075C882.044 37.5141 882.891 37.3809 883.735 37.4233C884.528 37.3688 885.323 37.4959 886.058 37.7924C886.796 38.089 887.455 38.5488 887.989 39.1358C888.594 39.6986 889.07 40.3853 889.383 41.1478C889.696 41.9102 889.836 42.7302 889.796 43.5562V117.498C889.827 118.345 889.684 119.193 889.371 119.982C889.061 120.775 888.588 121.495 887.989 122.097C887.391 122.63 886.687 123.026 885.921 123.259C885.156 123.492 884.348 123.555 883.553 123.449L883.735 123.719ZM883.735 21.0126C882.621 21.0217 881.512 20.8008 880.486 20.3682C879.459 19.9325 878.53 19.294 877.762 18.4862C876.936 17.6965 876.283 16.7435 875.846 15.6876C875.411 14.6317 875.202 13.4971 875.229 12.3564C875.156 11.2098 875.348 10.06 875.788 8.99806C876.225 7.93608 876.899 6.98603 877.762 6.22358C879.432 4.66541 881.631 3.79709 883.917 3.78802C885.01 3.78499 886.091 3.99978 887.103 4.41731C888.111 4.83484 889.028 5.44904 889.796 6.22358C890.698 6.96485 891.412 7.9058 891.882 8.96777C892.353 10.0328 892.569 11.1946 892.514 12.3564C892.481 14.6468 891.576 16.8373 889.978 18.4862C889.101 19.3062 888.056 19.9325 886.917 20.3197C885.782 20.71 884.573 20.8523 883.374 20.7403L883.735 21.0126ZM956.127 124.442C948.219 124.551 940.418 122.593 933.506 118.76C926.959 115.078 921.545 109.683 917.849 103.16C913.98 96.2798 912.013 88.5011 912.149 80.6164C912.007 72.6743 913.974 64.835 917.849 57.8944C921.572 51.3894 926.977 46.0008 933.506 42.2915C940.418 38.4611 948.219 36.5005 956.127 36.6125C964.013 36.4673 971.793 38.4278 978.659 42.2915C985.188 46.0008 990.596 51.3894 994.316 57.8944C998.163 64.8532 1000.18 72.6682 1000.19 80.6164C1000.32 88.5222 998.285 96.3131 994.316 103.16C990.62 109.683 985.206 115.078 978.659 118.76C971.659 122.593 963.749 124.463 955.765 124.17L956.127 124.442ZM956.127 113.438C961.899 113.526 967.59 112.064 972.597 109.202C977.408 106.409 981.352 102.355 984 97.4779C986.803 92.3012 988.233 86.4981 988.16 80.6164C988.233 74.7347 986.803 68.9316 984 63.7549C981.404 58.8141 977.447 54.7175 972.597 51.94C967.608 49.0355 961.905 47.5711 956.127 47.7042C950.354 47.5923 944.657 49.0597 939.659 51.94C934.818 54.7629 930.846 58.8474 928.165 63.7549C925.319 68.9135 923.886 74.7286 924.004 80.6164C923.886 86.5042 925.319 92.3163 928.165 97.4779C930.901 102.322 934.864 106.364 939.659 109.202C944.593 111.886 950.144 113.253 955.765 113.169L956.127 113.438Z" fill="#F7F0DC"/>
</svg>
