<svg width="44" height="36" viewBox="0 0 44 36" fill="none" xmlns="http://www.w3.org/2000/svg">
<path id="Vector 16" d="M0.661624 11.3322L5.05784 5.85813L14.9068 13.1516L9.25905 20.5027L0.661624 11.3322ZM10.3116 20.7741L15.1134 14.5241V20.7741H10.3116ZM19.987 25.895L16.2308 21.2428L18.9809 17.0278L19.987 25.895ZM21.0199 26.1279L19.9412 16.6219L25.0246 20.1026L21.0199 26.1279ZM21.4049 27.3551L25.5681 21.0915L26.4234 29.908L21.4049 27.3551ZM27.2919 31.8196L30.0095 34.8021L26.7146 34.4744L27.2919 31.8196ZM26.4385 31.0376L25.8196 33.8841L22.2723 28.9183L26.4385 31.0376ZM15.8184 22.3239L19.7409 27.182L14.0919 28.0354L15.8184 22.3239ZM14.9399 21.7741L13.0991 27.8636L8.90242 25.1162L9.69249 21.7741H14.9399ZM8.84146 25.3741L8.8416 25.3735L8.84146 25.3741ZM33.3568 34.1222L37.8898 29.8131V32.4524L33.3568 34.1222ZM43.4621 24.0273L38.8066 27.6847L38.0922 19.5976L42.1374 15.2531L43.4621 24.0273ZM41.5103 14.4592L37.9738 18.2573L37.5638 13.616L41.5103 14.4592ZM41.4279 13.419L37.4717 12.5738L36.9075 6.18696L41.4279 13.419ZM6.49397 5.08418L17.1361 0.711409L18.0851 8.38168L6.49397 5.08418ZM19.0987 8.43007L18.1702 0.925436L27.3225 6.11555L19.0987 8.43007ZM20.7558 9.00253L28.3397 6.86812L30.3011 11.0418L20.7558 9.00253ZM30.359 12.0768L25.5782 19.2697L19.7956 15.3103L19.2391 9.70106L30.359 12.0768ZM27.0871 18.806L30.9615 12.9768L32.0215 17.4452L27.0871 18.806ZM26.6086 19.9753L32.607 18.3211L36.6754 19.6518L32.5722 24.0586L26.6086 19.9753ZM36.5406 13.3974L37.0098 18.709L33.0411 17.4109L31.8514 12.3956L36.5406 13.3974ZM36.4485 12.3552L32.0056 11.406L35.8532 5.61702L36.4485 12.3552ZM35.4062 4.48303L31.2573 10.7253L29.0645 6.05938L28.9969 5.91552L28.8587 5.83711L20.7056 1.21359L35.4062 4.48303ZM33.4066 24.6299L37.1753 20.5823L37.7986 27.6372L33.4066 24.6299ZM26.5801 21.1677L31.883 24.7987L27.3996 29.6138L26.5801 21.1677ZM27.6889 30.7706L32.7174 25.37L37.5974 28.7114L31.2825 34.7143L27.6889 30.7706ZM17.8288 9.34843L15.5162 12.3585L7.47321 6.40243L17.8288 9.34843ZM16.3316 12.9384L18.3011 10.3751L18.7175 14.5721L16.3316 12.9384ZM16.1134 14.001L18.6351 15.7276L16.1134 19.5927V14.001ZM43.495 24.2449C43.4949 24.2444 43.4948 24.244 43.4948 24.2436L43.495 24.2449ZM1.11176 13.2744L8.14278 20.7741H3.41503L1.11176 13.2744Z" stroke="#222222"/>
</svg>
