<svg width="213" height="29" viewBox="0 0 213 29" fill="none" xmlns="http://www.w3.org/2000/svg">
<g clip-path="url(#clip0_2540_12523)">
<path d="M4.10645 14.6609C4.10645 16.1807 4.89174 17.6382 6.28956 18.7128C7.68736 19.7874 9.58326 20.3911 11.56 20.3911H22.2543C22.5371 20.3754 22.8211 20.4046 23.0885 20.477C23.356 20.5494 23.6011 20.6633 23.8087 20.8118C24.0163 20.9602 24.1819 21.1399 24.2951 21.3398C24.4083 21.5396 24.4668 21.7552 24.4668 21.9732C24.4668 22.1912 24.4083 22.4068 24.2951 22.6066C24.1819 22.8065 24.0163 22.9862 23.8087 23.1347C23.6011 23.2831 23.356 23.3971 23.0885 23.4695C22.8211 23.5418 22.5371 23.571 22.2543 23.5552H11.56C10.0441 23.5575 8.54238 23.3298 7.14103 22.8851C5.73969 22.4405 4.4662 21.7877 3.3935 20.9642C2.32771 20.1523 1.47986 19.1873 0.898168 18.124C0.29922 17.0275 -0.00927734 15.8502 -0.00927734 14.6609C-0.00927734 13.4717 0.29922 12.2943 0.898168 11.1979C1.48835 10.1455 2.33541 9.1898 3.3935 8.38257C4.4318 7.55832 5.67785 6.90557 7.05551 6.46419C8.48365 6.00855 10.0138 5.7716 11.56 5.7666H22.2543C22.8035 5.76878 23.3294 5.93748 23.7177 6.23603C24.1061 6.53456 24.3255 6.93888 24.3284 7.36112C24.3227 7.78034 24.1013 8.18079 23.7126 8.47492C23.324 8.76904 22.7997 8.93292 22.2543 8.93067H11.56C9.58496 8.93505 7.69247 9.54018 6.29586 10.6139C4.89927 11.6875 4.11215 13.1425 4.10645 14.6609Z" fill="#2D2D2D"/>
<path d="M128.635 21.9608C128.637 22.1705 128.584 22.3783 128.481 22.5723C128.377 22.7662 128.224 22.9424 128.031 23.0907C127.838 23.2389 127.609 23.3564 127.357 23.4361C127.104 23.5159 126.834 23.5563 126.561 23.5552H116.418C115.188 23.5563 113.969 23.3709 112.832 23.0094C111.696 22.6479 110.662 22.1176 109.792 21.4488C108.922 20.78 108.233 19.9859 107.763 19.1118C107.292 18.2377 107.051 17.3009 107.052 16.3551V7.36112C107.05 6.94185 107.263 6.53875 107.645 6.23996C108.028 5.94117 108.549 5.77098 109.094 5.7666C109.643 5.76878 110.169 5.93748 110.557 6.23603C110.946 6.53456 111.165 6.93888 111.168 7.36112V16.3551C111.174 17.4242 111.728 18.4482 112.712 19.2042C113.695 19.9601 115.028 20.3868 116.418 20.3911H126.561C127.107 20.389 127.631 20.5528 128.02 20.847C128.409 21.1411 128.629 21.5415 128.635 21.9608Z" fill="#2D2D2D"/>
<path d="M156.539 7.36112C156.534 7.78034 156.312 8.18079 155.923 8.47492C155.535 8.76904 155.01 8.93292 154.465 8.93067H134.243C133.975 8.93176 133.708 8.89194 133.461 8.81344C133.212 8.73495 132.986 8.6194 132.797 8.47344C132.607 8.32747 132.457 8.15398 132.354 7.96304C132.252 7.77215 132.2 7.56754 132.202 7.36112C132.199 6.94185 132.412 6.53875 132.795 6.23996C133.177 5.94117 133.698 5.77098 134.243 5.7666H154.465C155.014 5.76878 155.541 5.93748 155.929 6.23603C156.317 6.53456 156.537 6.93888 156.539 7.36112ZM156.539 14.6609C156.537 15.0831 156.317 15.4874 155.929 15.786C155.541 16.0846 155.014 16.2532 154.465 16.2554H134.243C133.698 16.251 133.177 16.0808 132.795 15.7821C132.412 15.4833 132.199 15.0802 132.202 14.6609C132.2 14.4545 132.252 14.2499 132.354 14.059C132.457 13.868 132.607 13.6946 132.797 13.5486C132.986 13.4027 133.212 13.287 133.461 13.2086C133.708 13.1301 133.975 13.0902 134.243 13.0913H154.465C155.01 13.0891 155.535 13.253 155.923 13.5471C156.312 13.8412 156.534 14.2417 156.539 14.6609ZM156.539 21.9608C156.541 22.1705 156.488 22.3783 156.384 22.5723C156.281 22.7662 156.128 22.9424 155.935 23.0907C155.742 23.2389 155.513 23.3564 155.261 23.4361C155.008 23.5159 154.738 23.5563 154.465 23.5552H134.243C133.723 23.5263 133.237 23.347 132.882 23.0535C132.527 22.76 132.329 22.374 132.329 21.9732C132.329 21.5724 132.527 21.1864 132.882 20.8929C133.237 20.5994 133.723 20.4201 134.243 20.3911H154.465C155.01 20.389 155.535 20.5528 155.923 20.847C156.312 21.1411 156.534 21.5415 156.539 21.9608Z" fill="#2D2D2D"/>
<path d="M185.414 7.35811V21.9578C185.417 22.2684 185.302 22.5729 185.084 22.8341C184.865 23.0952 184.552 23.3015 184.183 23.4277C183.924 23.5048 183.65 23.5469 183.372 23.5523C182.846 23.5494 182.338 23.3988 181.947 23.1288L165.192 11.0205V21.9578C165.196 22.1688 165.145 22.3784 165.042 22.5739C164.939 22.7694 164.785 22.947 164.591 23.0958C164.396 23.2446 164.164 23.3618 163.909 23.4402C163.654 23.5186 163.381 23.5568 163.107 23.5523C162.834 23.5534 162.564 23.5129 162.312 23.4331C162.06 23.3534 161.83 23.236 161.637 23.0877C161.445 22.9394 161.291 22.7632 161.188 22.5693C161.084 22.3753 161.032 22.1675 161.033 21.9578V7.35811C161.035 7.04826 161.156 6.74569 161.381 6.4885C161.605 6.23136 161.925 6.03115 162.297 5.9131C162.655 5.79432 163.052 5.75933 163.436 5.81249C163.82 5.86567 164.175 6.00463 164.458 6.21207L181.298 18.2705V7.35811C181.277 7.14074 181.315 6.9224 181.41 6.71682C181.504 6.51118 181.652 6.32272 181.846 6.16312C182.038 6.00352 182.272 5.87623 182.532 5.78919C182.792 5.70215 183.073 5.65723 183.356 5.65723C183.639 5.65723 183.92 5.70215 184.18 5.78919C184.44 5.87623 184.674 6.00352 184.867 6.16312C185.06 6.32272 185.208 6.51118 185.302 6.71682C185.396 6.9224 185.435 7.14074 185.414 7.35811Z" fill="#2D2D2D"/>
<path d="M212.992 7.36112C212.994 7.56754 212.942 7.77215 212.84 7.96304C212.738 8.15398 212.587 8.32747 212.397 8.47344C212.208 8.6194 211.982 8.73495 211.733 8.81344C211.486 8.89194 211.219 8.93176 210.951 8.93067H202.881V21.9608C202.886 22.169 202.836 22.3758 202.735 22.569C202.635 22.7624 202.485 22.9384 202.295 23.0868C202.105 23.2351 201.878 23.353 201.629 23.4334C201.379 23.5139 201.111 23.5553 200.839 23.5552C200.566 23.5575 200.294 23.5178 200.041 23.4385C199.788 23.3593 199.557 23.242 199.363 23.0937C199.169 22.9453 199.015 22.7687 198.911 22.5742C198.806 22.3797 198.753 22.1712 198.755 21.9608V8.93067H190.718C190.172 8.93292 189.648 8.76904 189.259 8.47492C188.871 8.18079 188.649 7.78034 188.644 7.36112C188.647 6.93888 188.866 6.53456 189.254 6.23603C189.643 5.93748 190.168 5.76878 190.718 5.7666H210.94C211.211 5.76769 211.479 5.80979 211.729 5.89052C211.978 5.97123 212.205 6.08899 212.396 6.23705C212.586 6.38511 212.737 6.5606 212.84 6.75348C212.942 6.9463 212.994 7.15278 212.992 7.36112Z" fill="#2D2D2D"/>
<path d="M48.7645 21.9578C48.7681 22.2212 48.8533 22.4803 49.0129 22.7135C50.1293 20.0555 51.4348 17.4467 52.9233 14.8988V7.35811C52.9221 7.14338 52.8647 6.93097 52.7546 6.73358C52.6445 6.53618 52.4839 6.35786 52.2824 6.20913C52.0808 6.06039 51.8425 5.94431 51.5814 5.86778C51.3204 5.79125 51.0421 5.75583 50.7629 5.76362C50.2176 5.768 49.6967 5.93819 49.3141 6.23698C48.9315 6.5358 48.7184 6.93883 48.7213 7.35811V13.2876H32.6582V7.35811C32.6787 7.14074 32.6407 6.9224 32.5466 6.71682C32.4525 6.51118 32.3042 6.32272 32.1111 6.16312C31.918 6.00352 31.6842 5.87623 31.4243 5.78919C31.1644 5.70215 30.8839 5.65723 30.6004 5.65723C30.3168 5.65723 30.0364 5.70215 29.7765 5.78919C29.5165 5.87623 29.2827 6.00352 29.0896 6.16312C28.8966 6.32272 28.7483 6.51118 28.6541 6.71682C28.56 6.9224 28.522 7.14074 28.5425 7.35811V21.9578C28.522 22.1752 28.56 22.3935 28.6541 22.5991C28.7483 22.8047 28.8966 22.9932 29.0896 23.1528C29.2827 23.3124 29.5165 23.4396 29.7765 23.5267C30.0364 23.6138 30.3168 23.6587 30.6004 23.6587C30.8839 23.6587 31.1644 23.6138 31.4243 23.5267C31.6842 23.4396 31.918 23.3124 32.1111 23.1528C32.3042 22.9932 32.4525 22.8047 32.5466 22.5991C32.6407 22.3935 32.6787 22.1752 32.6582 21.9578V16.4517H48.7645V21.9578Z" fill="#2D2D2D"/>
<path d="M103.036 20.3911H92.8923C91.5016 20.3868 90.1692 19.9601 89.1861 19.2042C88.2031 18.4482 87.648 17.4242 87.6421 16.3551V7.36112C87.6394 6.93888 87.4199 6.53456 87.0319 6.23603C86.6433 5.93748 86.1176 5.76878 85.5684 5.7666C85.0231 5.77098 84.5021 5.94117 84.1194 6.23996C83.7366 6.53875 83.5236 6.94185 83.5269 7.36112V12.809C85.4708 16.0497 87.159 19.3776 88.5819 22.7746C89.9149 23.3142 91.3968 23.5991 92.9028 23.6051H103.046C103.329 23.6208 103.613 23.5916 103.881 23.5193C104.148 23.4469 104.393 23.333 104.601 23.1845C104.809 23.0361 104.974 22.8563 105.087 22.6565C105.2 22.4566 105.259 22.241 105.259 22.0231C105.259 21.8051 105.2 21.5894 105.087 21.3896C104.974 21.1898 104.809 21.01 104.601 20.8616C104.393 20.7131 104.148 20.5992 103.881 20.5268C103.613 20.4544 103.329 20.4252 103.046 20.441L103.036 20.3911Z" fill="#2D2D2D"/>
<path fill-rule="evenodd" clip-rule="evenodd" d="M81.0088 13.2878C82.0732 15.8606 82.4408 18.574 82.0889 21.2603C81.0088 20.5211 79.9825 19.9066 79.0427 19.3419C76.8825 18.0796 74.7217 16.8505 72.4102 15.7044C73.62 15.1231 74.841 14.5584 76.0725 14.0019L76.18 13.9604H76.2776C76.9363 13.7301 77.5235 13.3937 77.9986 12.9739C78.4738 12.5541 78.8264 12.0607 79.0322 11.5271C79.179 10.3805 78.8343 9.22835 78.0491 8.2468C76.8504 6.32466 75.4446 4.48291 73.8468 2.74079C73.4889 2.2996 73.0918 1.87784 72.6586 1.47848C70.0875 -0.639216 67.0308 -0.664129 63.7792 2.69927C62.3524 4.23256 61.095 5.85486 60.0199 7.54919C59.2746 8.68695 58.2375 10.1818 58.6048 11.4856C58.8106 12.0192 59.163 12.5126 59.6382 12.9324C60.1135 13.3521 60.7004 13.6886 61.3594 13.9189C62.6557 14.5002 63.9412 15.1148 65.2266 15.7376C61.8446 17.4327 58.5981 19.2825 55.5046 21.2769C55.1476 18.5905 55.5153 15.8765 56.5848 13.3044C53.8626 18.0132 50.7732 23.5192 49.855 29.0002C52.7824 25.994 62.4289 20.9364 68.856 17.5979C69.1477 17.7557 69.4505 17.8968 69.7421 18.0463C72.3781 19.4498 74.9701 20.8782 77.5307 22.3066C81.8517 24.7316 85.9452 27.2147 87.6741 29.0002C86.788 23.5192 83.6985 18.0132 81.0088 13.2878ZM59.9551 8.08072C59.9393 7.90202 59.9612 7.72254 60.0199 7.54919C59.9775 7.72454 59.9558 7.90241 59.9551 8.08072ZM63.9628 11.4026C62.7745 10.7963 62.753 10.3645 63.2606 9.47588C64.5022 7.43454 65.9927 5.48808 67.7111 3.66262C67.829 3.53575 67.985 3.43237 68.1653 3.36103C68.3455 3.2897 68.5454 3.25249 68.7479 3.25249C68.9511 3.25249 69.151 3.2897 69.3312 3.36103C69.5114 3.43237 69.6674 3.53575 69.7854 3.66262C71.125 5.15746 73.3821 7.81495 74.1063 8.86965C74.9917 10.1984 75.1864 10.7133 73.5119 11.4856C71.8374 12.2579 70.2717 12.9971 68.7158 13.7611L63.9628 11.4026Z" fill="#2D2D2D"/>
</g>
<defs>
<clipPath id="clip0_2540_12523">
<rect width="213" height="29" fill="white"/>
</clipPath>
</defs>
</svg>
