<svg width="1093" height="152" viewBox="0 0 1093 152" fill="none" xmlns="http://www.w3.org/2000/svg">
<g clip-path="url(#clip0_3_33)">
<path d="M21.1197 76.4926C21.1197 84.4234 25.1494 92.0297 32.3222 97.6376C39.495 103.246 49.2237 106.396 59.3674 106.396H114.245C115.696 106.314 117.153 106.466 118.525 106.844C119.898 107.222 121.156 107.816 122.221 108.591C123.286 109.366 124.136 110.304 124.717 111.347C125.298 112.389 125.598 113.515 125.598 114.652C125.598 115.79 125.298 116.915 124.717 117.958C124.136 119.001 123.286 119.939 122.221 120.713C121.156 121.488 119.898 122.083 118.525 122.461C117.153 122.838 115.696 122.991 114.245 122.908H59.3674C51.5882 122.92 43.8824 121.731 36.6915 119.411C29.5006 117.091 22.9657 113.684 17.4612 109.387C11.9921 105.15 7.64145 100.114 4.65652 94.5648C1.58304 88.8425 0 82.6988 0 76.4926C0 70.2864 1.58304 64.1424 4.65652 58.4204C7.685 52.9285 12.0316 47.9411 17.4612 43.7285C22.7892 39.4271 29.1833 36.0207 36.2526 33.7173C43.5811 31.3395 51.4329 30.103 59.3674 30.0769H114.245C117.063 30.0883 119.762 30.9686 121.754 32.5266C123.747 34.0845 124.873 36.1945 124.888 38.398C124.858 40.5857 123.722 42.6755 121.728 44.2104C119.734 45.7453 117.043 46.6006 114.245 46.5888H59.3674C49.2324 46.6117 39.5212 49.7696 32.3545 55.3728C25.188 60.9757 21.1489 68.5685 21.1197 76.4926Z" fill="black"/>
<path d="M660.135 114.587C660.142 115.682 659.873 116.766 659.342 117.778C658.807 118.79 658.023 119.71 657.035 120.484C656.046 121.258 654.869 121.87 653.574 122.287C652.279 122.703 650.894 122.914 649.491 122.908H597.441C591.128 122.914 584.876 121.946 579.041 120.06C573.21 118.173 567.906 115.406 563.443 111.916C558.977 108.425 555.439 104.281 553.028 99.7197C550.613 95.1584 549.376 90.2695 549.382 85.3338V38.398C549.369 36.21 550.462 34.1064 552.426 32.5472C554.39 30.9879 557.06 30.0998 559.858 30.0769C562.677 30.0883 565.377 30.9686 567.368 32.5266C569.363 34.0845 570.489 36.1945 570.503 38.398V85.3338C570.533 90.9128 573.378 96.2567 578.426 100.202C583.471 104.147 590.308 106.374 597.441 106.396H649.491C652.293 106.385 654.983 107.24 656.977 108.775C658.972 110.31 660.105 112.4 660.135 114.587Z" fill="black"/>
<path d="M803.315 38.398C803.285 40.5857 802.148 42.6755 800.154 44.2104C798.159 45.7453 795.469 46.6006 792.671 46.5888H688.903C687.527 46.5945 686.159 46.3867 684.887 45.9771C683.613 45.5674 682.453 44.9644 681.481 44.2027C680.505 43.441 679.735 42.5356 679.21 41.5391C678.686 40.543 678.42 39.4752 678.427 38.398C678.413 36.21 679.506 34.1064 681.47 32.5472C683.431 30.9879 686.105 30.0998 688.903 30.0769H792.671C795.489 30.0883 798.189 30.9686 800.18 32.5266C802.175 34.0845 803.301 36.1945 803.315 38.398ZM803.315 76.4926C803.301 78.6958 802.175 80.8058 800.18 82.3639C798.189 83.922 795.489 84.8021 792.671 84.8135H688.903C686.105 84.7907 683.431 83.9025 681.47 82.3434C679.506 80.7839 678.413 78.6806 678.427 76.4926C678.42 75.4154 678.686 74.3476 679.21 73.3512C679.735 72.3547 680.505 71.4497 681.481 70.6879C682.453 69.9262 683.613 69.3229 684.887 68.9132C686.159 68.5036 687.527 68.2958 688.903 68.3015H792.671C795.469 68.2901 798.159 69.145 800.154 70.6799C802.148 72.2148 803.285 74.3046 803.315 76.4926ZM803.315 114.587C803.322 115.682 803.052 116.766 802.518 117.778C801.986 118.79 801.203 119.71 800.214 120.484C799.225 121.258 798.048 121.87 796.753 122.287C795.459 122.703 794.07 122.914 792.671 122.908H688.903C686.236 122.757 683.741 121.822 681.918 120.29C680.095 118.758 679.083 116.744 679.083 114.652C679.083 112.561 680.095 110.546 681.918 109.015C683.741 107.483 686.236 106.547 688.903 106.396H792.671C795.469 106.385 798.159 107.24 800.154 108.775C802.148 110.31 803.285 112.4 803.315 114.587Z" fill="black"/>
<path d="M951.485 38.3979V114.587C951.502 116.208 950.91 117.797 949.79 119.16C948.667 120.523 947.059 121.6 945.166 122.258C943.837 122.66 942.432 122.88 941.006 122.908C938.305 122.893 935.702 122.107 933.691 120.698L847.714 57.5103V114.587C847.737 115.688 847.475 116.782 846.947 117.802C846.416 118.823 845.629 119.749 844.63 120.526C843.631 121.303 842.441 121.914 841.132 122.323C839.824 122.733 838.425 122.932 837.016 122.908C835.617 122.914 834.231 122.703 832.936 122.286C831.642 121.87 830.465 121.258 829.476 120.484C828.487 119.71 827.7 118.791 827.169 117.778C826.637 116.766 826.368 115.682 826.375 114.587V38.3979C826.382 36.7809 827.004 35.202 828.158 33.8598C829.311 32.5179 830.949 31.4731 832.859 30.857C834.699 30.2372 836.733 30.0545 838.704 30.332C840.675 30.6095 842.498 31.3347 843.947 32.4172L930.365 95.3449V38.3979C930.257 37.2635 930.452 36.1241 930.937 35.0513C931.421 33.9781 932.181 32.9947 933.173 32.1618C934.162 31.3289 935.362 30.6646 936.694 30.2104C938.029 29.7562 939.469 29.5217 940.925 29.5217C942.378 29.5217 943.817 29.7562 945.152 30.2104C946.484 30.6646 947.685 31.3289 948.677 32.1618C949.666 32.9947 950.429 33.9781 950.91 35.0513C951.394 36.1241 951.589 37.2635 951.485 38.3979Z" fill="black"/>
<path d="M1093 38.398C1093.01 39.4752 1092.74 40.543 1092.22 41.5391C1091.7 42.5356 1090.92 43.441 1089.95 44.2027C1088.97 44.9644 1087.81 45.5674 1086.54 45.9771C1085.27 46.3867 1083.9 46.5945 1082.52 46.5888H1041.11V114.587C1041.14 115.674 1040.88 116.753 1040.37 117.762C1039.85 118.771 1039.08 119.689 1038.11 120.464C1037.13 121.238 1035.97 121.853 1034.69 122.272C1033.41 122.692 1032.03 122.908 1030.64 122.908C1029.24 122.92 1027.84 122.713 1026.54 122.299C1025.24 121.886 1024.06 121.274 1023.06 120.499C1022.07 119.725 1021.28 118.803 1020.74 117.789C1020.21 116.774 1019.93 115.685 1019.94 114.587V46.5888H978.699C975.901 46.6006 973.211 45.7453 971.217 44.2104C969.222 42.6755 968.085 40.5857 968.059 38.398C968.072 36.1945 969.199 34.0845 971.19 32.5266C973.184 30.9686 975.881 30.0883 978.699 30.0769H1082.47C1083.86 30.0826 1085.23 30.3023 1086.52 30.7236C1087.8 31.1448 1088.96 31.7593 1089.94 32.532C1090.92 33.3047 1091.69 34.2204 1092.22 35.227C1092.74 36.2332 1093.01 37.3107 1093 38.398Z" fill="black"/>
<path d="M250.273 114.587C250.292 115.962 250.729 117.314 251.548 118.531C257.277 104.66 263.976 91.0458 271.614 77.7496V38.3979C271.608 37.2773 271.313 36.1688 270.748 35.1387C270.183 34.1086 269.359 33.178 268.325 32.4019C267.291 31.6257 266.068 31.0199 264.729 30.6205C263.389 30.2211 261.961 30.0363 260.528 30.0769C257.73 30.0998 255.057 30.988 253.094 32.5472C251.131 34.1066 250.037 36.2099 250.052 38.3979V69.3415H167.625V38.3979C167.73 37.2635 167.535 36.1241 167.052 35.0513C166.569 33.9781 165.808 32.9947 164.818 32.1618C163.826 31.3289 162.627 30.6646 161.293 30.2104C159.959 29.7562 158.52 29.5217 157.065 29.5217C155.61 29.5217 154.171 29.7562 152.837 30.2104C151.503 30.6646 150.304 31.3289 149.313 32.1618C148.322 32.9947 147.561 33.9781 147.078 35.0513C146.595 36.1241 146.4 37.2635 146.505 38.3979V114.587C146.4 115.722 146.595 116.861 147.078 117.934C147.561 119.007 148.322 119.99 149.313 120.824C150.304 121.656 151.503 122.32 152.837 122.775C154.171 123.229 155.61 123.464 157.065 123.464C158.52 123.464 159.959 123.229 161.293 122.775C162.627 122.32 163.826 121.656 164.818 120.824C165.808 119.99 166.569 119.007 167.052 117.934C167.535 116.861 167.73 115.722 167.625 114.587V85.8536H250.273V114.587Z" fill="black"/>
<path d="M528.763 106.396H476.713C469.576 106.374 462.739 104.147 457.695 100.202C452.65 96.2567 449.802 90.9128 449.771 85.3338V38.398C449.758 36.1945 448.631 34.0845 446.64 32.5266C444.646 30.9686 441.949 30.0883 439.13 30.0769C436.332 30.0998 433.659 30.9879 431.695 32.5472C429.731 34.1064 428.638 36.21 428.654 38.398V66.8281C438.629 83.7397 447.293 101.107 454.594 118.834C461.434 121.65 469.038 123.137 476.767 123.168H528.817C530.27 123.25 531.726 123.098 533.098 122.72C534.47 122.343 535.728 121.748 536.794 120.973C537.86 120.199 538.708 119.261 539.29 118.218C539.871 117.175 540.171 116.05 540.171 114.912C540.171 113.775 539.871 112.649 539.29 111.607C538.708 110.564 537.86 109.626 536.794 108.851C535.728 108.076 534.47 107.482 533.098 107.104C531.726 106.726 530.27 106.574 528.817 106.656L528.763 106.396Z" fill="black"/>
<path fill-rule="evenodd" clip-rule="evenodd" d="M415.737 69.3417C421.198 82.7684 423.085 96.928 421.279 110.947C415.737 107.09 410.47 103.883 405.647 100.935C394.563 94.3482 383.475 87.9338 371.613 81.9532C377.821 78.9194 384.087 75.9723 390.406 73.0687L390.957 72.8521H391.459C394.838 71.6501 397.852 69.8942 400.29 67.7035C402.728 65.5128 404.538 62.9384 405.594 60.1538C406.347 54.1698 404.578 48.1573 400.549 43.035C394.398 33.0043 387.184 23.393 378.985 14.3016C377.149 11.9992 375.111 9.79819 372.888 7.71412C359.694 -3.33722 344.009 -3.46724 327.323 14.0849C320.002 22.0865 313.55 30.5525 308.033 39.3945C304.208 45.332 298.887 53.133 300.772 59.9372C301.828 62.7215 303.636 65.2962 306.074 67.487C308.513 69.6777 311.525 71.4335 314.907 72.6355C321.558 75.669 328.155 78.876 334.751 82.1264C317.396 90.9723 300.737 100.625 284.863 111.033C283.031 97.0144 284.918 82.8512 290.406 69.4285C276.437 94.0015 260.584 122.735 255.872 151.338C270.894 135.65 320.394 109.256 353.375 91.8343C354.872 92.6579 356.425 93.3944 357.922 94.1747C371.448 101.499 384.749 108.953 397.889 116.407C420.062 129.062 441.067 142.02 449.939 151.338C445.392 122.735 429.539 94.0015 415.737 69.3417ZM307.7 42.1684C307.619 41.2358 307.732 40.2992 308.033 39.3945C307.815 40.3096 307.704 41.2378 307.7 42.1684ZM328.266 59.5037C322.168 56.34 322.057 54.0864 324.662 49.4491C331.034 38.7962 338.682 28.6385 347.5 19.1122C348.105 18.4501 348.906 17.9106 349.83 17.5383C350.755 17.1661 351.781 16.9719 352.82 16.9719C353.863 16.9719 354.888 17.1661 355.813 17.5383C356.738 17.9106 357.539 18.4501 358.144 19.1122C365.018 26.9131 376.6 40.7814 380.317 46.2855C384.86 53.2198 385.859 55.9065 377.266 59.9372C368.674 63.9675 360.639 67.825 352.655 71.8119L328.266 59.5037Z" fill="#3C00FF"/>
</g>
<defs>
<clipPath id="clip0_3_33">
<rect width="1093" height="151.338" fill="white"/>
</clipPath>
</defs>
</svg>
