<?xml version="1.0" encoding="UTF-8"?>
<svg width="1200pt" height="1200pt" version="1.1" viewBox="0 0 1200 1200" xmlns="http://www.w3.org/2000/svg">
 <g>
  <path d="m1087.5 18.75h-825c-24.414 0-45.039 15.73-52.801 37.5h-59.699c-10.352 0-18.75 8.3984-18.75 18.75v131.25h-18.75c-31.012 0-56.25 25.238-56.25 56.25v187.5c0 31.012 25.238 56.25 56.25 56.25h525c10.332 0 18.75 8.418 18.75 18.75v131.25h-56.25c-10.352 0-18.75 8.3984-18.75 18.75v487.5c0 10.352 8.3984 18.75 18.75 18.75h150c10.352 0 18.75-8.3984 18.75-18.75v-487.5c0-10.352-8.3984-18.75-18.75-18.75h-56.25v-131.25c0-31.012-25.238-56.25-56.25-56.25h-525c-10.332 0-18.75-8.418-18.75-18.75v-187.5c0-10.332 8.418-18.75 18.75-18.75h18.75v131.25c0 10.352 8.3984 18.75 18.75 18.75h59.699c7.7617 21.77 28.387 37.5 52.801 37.5h506.25v93.75c0 31.012 25.238 56.25 56.25 56.25 10.332 0 18.75 8.418 18.75 18.75v112.5c0 31.012 25.238 56.25 56.25 56.25s56.25-25.238 56.25-56.25v-37.5c0-10.332 8.418-18.75 18.75-18.75s18.75 8.418 18.75 18.75v75c0 31.012 25.238 56.25 56.25 56.25s56.25-25.238 56.25-56.25v-322.2c21.77-7.7617 37.5-28.387 37.5-52.801v-300c0-31.012-25.238-56.25-56.25-56.25zm-468.75 1125v-375h112.5v375zm112.5-412.5h-112.5v-37.5h112.5zm-562.5-637.5h37.5v262.5h-37.5zm881.25 675c-10.332 0-18.75-8.418-18.75-18.75v-75c0-31.012-25.238-56.25-56.25-56.25s-56.25 25.238-56.25 56.25v37.5c0 10.332-8.418 18.75-18.75 18.75s-18.75-8.418-18.75-18.75v-112.5c0-31.012-25.238-56.25-56.25-56.25-10.332 0-18.75-8.418-18.75-18.75v-93.75h262.5v318.75c0 10.332-8.418 18.75-18.75 18.75zm56.25-393.75c0 10.332-8.418 18.75-18.75 18.75h-825c-10.332 0-18.75-8.418-18.75-18.75v-300c0-10.332 8.418-18.75 18.75-18.75h825c10.332 0 18.75 8.418 18.75 18.75z"/>
  <path d="m656.25 1068.8h37.5v37.5h-37.5z"/>
  <path d="m1031.2 318.75h-356.25v37.5h375c10.352 0 18.75-8.3984 18.75-18.75v-93.75h-37.5z"/>
  <path d="m675 93.75h-375c-10.352 0-18.75 8.3984-18.75 18.75v93.75h37.5v-75h356.25z"/>
  <path d="m1068.8 843.75c-31.012 0-56.25 25.238-56.25 56.25v37.5c0 31.012 25.238 56.25 56.25 56.25s56.25-25.238 56.25-56.25v-37.5c0-31.012-25.238-56.25-56.25-56.25zm18.75 93.75c0 10.332-8.418 18.75-18.75 18.75s-18.75-8.418-18.75-18.75v-37.5c0-10.332 8.418-18.75 18.75-18.75s18.75 8.418 18.75 18.75z"/>
  <path d="m393.75 543.75c-31.012 0-56.25 25.238-56.25 56.25s25.238 56.25 56.25 56.25 56.25-25.238 56.25-56.25-25.238-56.25-56.25-56.25zm0 75c-10.332 0-18.75-8.418-18.75-18.75s8.418-18.75 18.75-18.75 18.75 8.418 18.75 18.75-8.418 18.75-18.75 18.75z"/>
  <path d="m281.25 656.25c-51.695 0-93.75 42.055-93.75 93.75s42.055 93.75 93.75 93.75 93.75-42.055 93.75-93.75-42.055-93.75-93.75-93.75zm0 150c-31.012 0-56.25-25.238-56.25-56.25s25.238-56.25 56.25-56.25 56.25 25.238 56.25 56.25-25.238 56.25-56.25 56.25z"/>
 </g>
</svg>
