<svg width="130" height="130" viewBox="0 0 130 130" fill="none" xmlns="http://www.w3.org/2000/svg">
<path d="M70.4249 37.0166C70.512 37.1628 70.5711 37.4072 70.6901 37.4404C71.6664 37.7134 71.9803 38.4947 71.9907 39.3364C72.0245 42.0989 71.9615 44.8621 71.9563 47.6252C71.9517 49.9288 71.9738 52.2324 71.9901 54.5354C71.9914 54.6914 72.0421 54.8474 72.1084 55.2224C72.9319 54.7479 73.6827 54.3495 74.3977 53.8951C75.372 53.2763 76.2911 52.5685 77.2856 51.9854C78.2294 51.4316 79.2356 50.9812 80.221 50.5002C81.5243 49.8638 82.9627 49.7527 84.3381 49.4036C85.7441 49.0468 87.1201 49.0364 88.5059 49.0851C89.9743 49.1371 91.4621 49.2808 92.8902 49.6077C94.0394 49.8703 95.1236 50.4397 96.2156 50.9201C97.3856 51.4349 98.6063 51.8899 99.6671 52.5815C100.853 53.355 101.91 54.3365 102.973 55.2835C103.559 55.8055 104.098 56.4022 104.563 57.0353C105.396 58.1702 106.217 59.3226 106.931 60.5342C107.51 61.5183 108.003 62.5707 108.388 63.6451C108.714 64.5558 108.738 65.5737 109.059 66.4876C109.866 68.7853 109.485 71.1409 109.427 73.4621C109.395 74.7218 108.929 75.9815 108.577 77.2184C108.282 78.2506 107.983 79.3088 107.48 80.2468C106.775 81.5637 105.961 82.8429 105.042 84.02C104.142 85.1731 103.143 86.2873 102.021 87.218C100.734 88.286 99.2933 89.1804 97.8653 90.0611C96.7746 90.7339 95.5799 91.1895 94.3403 91.5873C92.7472 92.0982 91.1787 92.5324 89.4939 92.5402C89.0181 92.5428 88.5352 92.9023 88.0691 92.8737C86.632 92.7853 85.1877 92.6663 83.7733 92.4109C82.5799 92.1951 81.3676 91.9 80.2613 91.4164C77.0978 90.0345 74.2196 88.2385 71.8932 85.5976C70.642 84.1767 69.4908 82.7109 68.4261 81.147C67.117 79.2243 65.9119 77.2535 64.8771 75.1729C64.2349 73.882 63.5758 72.5976 62.8777 71.3359C62.1445 70.0112 61.3424 68.7249 60.5956 67.4073C59.8572 66.1047 59.1942 64.7579 58.4168 63.48C57.7869 62.4446 57.0927 61.4364 56.3251 60.4998C55.4034 59.3753 54.47 58.2241 53.3624 57.2985C52.2743 56.3885 50.9528 55.76 49.7497 54.9826C47.9843 53.8425 45.9478 53.509 43.953 53.2107C42.6244 53.0118 41.2236 53.2913 39.8554 53.3712C39.5323 53.3901 39.2138 53.4798 38.8908 53.5129C37.4205 53.6624 36.0886 54.2149 34.801 54.8981C33.735 55.4642 32.5702 55.9036 31.6296 56.6316C30.4915 57.5117 29.4606 58.5673 28.535 59.6736C27.6055 60.7851 26.8001 62.0162 26.0643 63.2675C25.7127 63.8655 25.6535 64.6325 25.4527 65.3208C25.1732 66.2757 24.8755 67.2253 24.607 68.1828C24.5349 68.4395 24.5167 68.7177 24.5128 68.9868C24.4959 70.1523 24.4991 71.3177 24.4848 72.4825C24.4679 73.8612 24.8787 75.1391 25.3565 76.4092C25.5989 77.054 25.753 77.7313 25.9844 78.3806C26.104 78.7154 26.2834 79.0358 26.4758 79.3374C27.6549 81.186 28.9588 82.9593 30.6598 84.3418C31.7271 85.2089 33.0232 85.7945 34.2179 86.505C35.6057 87.3298 37.1507 87.6626 38.6912 88.0916C40.8239 88.6851 42.9474 88.5102 45.0456 88.3211C46.41 88.1982 47.7444 87.5398 49.0496 87.0159C50.152 86.5732 51.2986 86.1182 52.2359 85.4156C53.4326 84.5179 54.4804 83.4058 55.51 82.3086C56.1385 81.6391 56.6657 80.8578 57.1408 80.0674C57.6459 79.2282 58.0274 78.3156 58.4772 77.4427C58.8139 76.7894 58.8939 75.9542 59.7707 75.6227C60.6404 76.9539 61.6557 78.2227 62.3532 79.6475C63.2463 81.4707 63.9548 83.3993 63.9457 85.4942C63.9372 87.5274 63.9171 89.56 63.9346 91.5932C63.9405 92.2464 63.713 92.5227 63.0376 92.4967C62.0646 92.459 61.0889 92.4869 59.9638 92.4869C59.9638 89.8031 59.9638 87.1504 59.9638 84.4984C59.8812 84.4594 59.7993 84.4211 59.7168 84.3821C59.187 84.8339 58.6631 85.2927 58.1256 85.7347C56.6956 86.9106 55.3007 88.1339 53.8102 89.2278C53.0478 89.7875 52.1144 90.117 51.2512 90.5382C50.2918 91.0062 49.3395 91.4931 48.3567 91.9065C47.7925 92.1444 47.1815 92.3589 46.5783 92.4018C44.6043 92.5422 42.666 93.2318 40.6672 92.886C39.5219 92.6878 38.4013 92.3426 37.2716 92.056C36.5833 91.8811 35.8754 91.7524 35.2183 91.495C33.9677 91.0056 32.695 90.533 31.5302 89.8785C30.3361 89.207 29.274 88.3068 28.1307 87.5417C26.8716 86.6993 25.8602 85.6132 24.9905 84.3983C24.1962 83.2888 23.439 82.1493 22.7363 80.9806C22.3795 80.3872 22.1754 79.7014 21.9089 79.0547C21.7405 78.6458 21.5592 78.2389 21.4311 77.8171C21.1185 76.7875 20.8266 75.7514 20.5419 74.7133C20.4854 74.5079 20.4828 74.2837 20.4821 74.0679C20.475 72.1705 20.3658 70.2654 20.5088 68.3797C20.6024 67.1428 21.0502 65.9299 21.3661 64.7131C21.4974 64.2067 21.684 63.7134 21.8738 63.2246C22.254 62.2463 22.5719 61.2317 23.0678 60.3145C23.6197 59.294 24.2723 58.3086 25.0029 57.4071C26.5512 55.4961 28.1957 53.6871 30.3823 52.4339C31.3274 51.8925 32.2588 51.3692 33.2631 50.9324C34.19 50.5294 35.1416 50.2759 36.0802 49.949C38.5073 49.104 40.9857 48.959 43.4947 49.078C44.8298 49.141 46.2169 49.2236 47.4695 49.6337C49.465 50.287 51.4501 51.0715 53.2883 52.0764C55.4034 53.2328 57.1779 54.9137 58.7886 56.7044C59.7577 57.7815 60.6073 58.9879 61.3691 60.2235C62.5014 62.0598 63.5128 63.9708 64.5671 65.8551C65.3952 67.3358 66.1856 68.838 67.0377 70.305C67.7885 71.5972 68.6211 72.8426 69.3823 74.129C70.2903 75.6643 71.0807 77.2743 72.0655 78.757C73.5546 80.9988 75.1211 83.2095 77.2167 84.9437C78.2723 85.8173 79.4904 86.4471 80.7436 87.0542C83.9137 88.5896 87.2475 88.6838 90.6041 88.351C92.0062 88.2119 93.3627 87.5398 94.7193 87.0523C95.5955 86.7377 96.5139 86.4374 97.2744 85.9252C99.3603 84.5212 101.252 82.8942 102.518 80.6543C102.948 79.8932 103.509 79.2022 103.904 78.4255C104.189 77.8671 104.29 77.2171 104.491 76.6139C104.762 75.8001 105.062 74.9954 105.323 74.179C105.405 73.9262 105.429 73.6467 105.431 73.3789C105.444 71.6447 105.544 69.9027 105.409 68.1789C105.332 67.1987 104.868 66.2484 104.571 65.287C104.376 64.6559 104.216 64.0065 103.949 63.4066C103.676 62.7949 103.357 62.1807 102.942 61.6594C102.001 60.4751 101.005 59.3317 99.9979 58.202C99.5143 57.6599 98.9989 57.1243 98.4158 56.6979C97.7905 56.241 97.0833 55.8848 96.3839 55.5422C95.4096 55.0651 94.4196 54.6179 93.4167 54.2045C92.8297 53.9627 92.2129 53.6813 91.596 53.6455C89.5661 53.5279 87.5771 52.7264 85.4912 53.3914C84.4051 53.7378 83.1844 53.6943 82.1301 54.1005C80.6897 54.6556 79.2967 55.3862 77.985 56.2046C77.0282 56.8013 76.1845 57.6105 75.385 58.4178C74.5342 59.2771 73.6801 60.1741 73.0372 61.1875C72.2371 62.4485 71.6592 63.8486 70.9696 65.1804C70.8272 65.4547 70.6725 65.8005 70.4268 65.9286C69.7346 66.29 69.7729 65.4372 69.5792 65.1999C69.2055 64.7423 69.1736 64.0215 68.9299 63.4391C68.7128 62.921 68.3761 62.4537 68.1401 61.9415C68.0218 61.6841 67.9594 61.3773 67.9588 61.0926C67.9484 57.786 67.9412 54.4795 67.9594 51.1729C67.9789 47.6766 68.001 44.1796 68.0784 40.6845C68.0998 39.703 68.2916 38.7202 68.4677 37.7498C68.5158 37.4839 68.7908 37.2584 68.9611 37.0146C69.4479 37.0166 69.9361 37.0166 70.4249 37.0166Z" fill="#2D2D2D"/>
<path d="M88.0479 85.4823C86.1843 85.5694 84.5177 85.2457 82.8511 84.5677C81.2047 83.8982 79.607 83.1813 78.3401 81.9495C77.1669 80.8088 75.9267 79.6362 75.1246 78.2432C74.2198 76.6709 73.406 74.9607 73.4034 73.0224C73.4027 72.3627 73.0134 71.6834 73.0888 71.0471C73.2753 69.463 73.5639 67.8842 73.9266 66.3294C74.5448 63.6787 76.1334 61.5909 78.1061 59.8131C79.1858 58.8407 80.3831 58.0048 81.7832 57.4452C82.8901 57.0032 84.0244 56.7425 85.1424 56.3993C86.3605 56.0256 87.5305 56.0977 88.7245 56.06C90.1363 56.0152 91.4636 56.4227 92.7656 56.9427C93.4058 57.1982 94.1507 57.243 94.7344 57.5804C95.8115 58.2024 96.8638 58.8992 97.8193 59.6929C99.3293 60.9474 100.551 62.495 101.366 64.2682C101.937 65.5117 102.408 66.8065 102.605 68.2326C102.751 69.2843 103.058 70.3418 102.923 71.3929C102.755 72.7098 102.437 74.0176 102.068 75.2955C101.782 76.2854 101.45 77.3092 100.898 78.1639C100.137 79.3437 99.2084 80.4318 98.2418 81.4568C97.5476 82.1933 96.7306 82.8543 95.8654 83.3795C95.0438 83.8781 94.0779 84.1329 93.1939 84.5352C91.5241 85.2957 89.7762 85.5772 88.0479 85.4823ZM81.0155 64.029C80.177 63.8197 80.0899 64.458 80.0841 64.9722C80.049 67.7906 80.0483 70.6096 80.086 73.428C80.0906 73.7433 80.3792 74.2899 80.5995 74.3244C81.3295 74.4388 82.0887 74.3673 82.8362 74.3673C82.8511 74.2282 82.8661 74.0897 82.8804 73.9506C82.27 73.7751 81.6603 73.599 80.9986 73.4085C80.9986 70.2866 80.9986 67.149 80.9986 64.0108C81.5992 63.9842 82.2005 63.9582 82.8011 63.9315C82.7855 63.8126 82.7699 63.6936 82.7536 63.5747C82.1933 63.8373 81.4653 63.0911 81.0155 64.029ZM78.5143 65.5377C78.5143 69.0301 78.5143 72.4777 78.5143 75.9968C78.8751 75.976 79.1741 75.9949 79.4562 75.9351C79.9443 75.8317 80.4162 75.5997 80.9057 75.5633C82.0653 75.4775 83.2314 75.4781 84.3942 75.4339C84.5801 75.4268 84.7641 75.3644 84.9493 75.328C84.9422 75.2357 84.9344 75.144 84.9272 75.0517C83.4062 75.0517 81.8826 74.9952 80.3662 75.0758C79.6154 75.1154 79.3502 74.9497 79.3606 74.1801C79.3957 71.5287 79.3671 68.8767 79.3912 66.2247C79.3964 65.615 79.2014 65.3622 78.5143 65.5377ZM93.4916 74.3491C93.9434 74.3712 94.3607 74.405 94.7773 74.4102C95.6665 74.4206 95.9291 74.1606 95.9311 73.2577C95.9369 70.5485 95.9434 67.84 95.9337 65.1308C95.9291 63.8815 94.7416 63.2237 93.4682 63.8041C93.5904 63.8665 93.673 63.9367 93.764 63.9517C94.9925 64.1506 95.0003 64.1564 95.0003 65.3628C94.9996 67.5033 94.9268 69.6463 95.0263 71.7816C95.0815 72.9711 94.8807 73.8174 93.5969 74.0975C93.569 74.104 93.5579 74.1866 93.4916 74.3491ZM98.4511 67.0561C98.4511 67.3609 98.4511 67.645 98.4511 67.929C98.4505 70.4439 98.4674 72.9581 98.4368 75.4723C98.429 76.0911 98.2646 76.7086 98.1599 77.4073C98.4433 77.4073 98.8736 77.4073 99.2916 77.4073C99.328 77.3235 99.3676 77.2754 99.3676 77.2273C99.3728 74.0371 99.3722 70.8475 99.3806 67.6573C99.3826 67.0743 99.0348 67.0171 98.4511 67.0561ZM77.8026 77.3891C77.6888 76.459 77.5172 75.6445 77.5023 74.8262C77.4607 72.5544 77.4834 70.282 77.4808 68.0096C77.4802 67.6957 77.4808 67.3811 77.4808 67.058C76.5741 67.0106 76.5832 67.5605 76.5819 68.0837C76.576 70.8696 76.5721 73.6562 76.5767 76.4421C76.578 77.5451 76.849 77.7109 77.8026 77.3891ZM93.1068 75.0816C93.1068 75.1486 93.1062 75.2149 93.1062 75.2812C94.5271 75.5067 95.948 75.7323 97.4248 75.9669C97.4248 72.4433 97.4248 68.9729 97.4248 65.5078C96.7793 65.4155 96.4407 65.6092 96.5382 66.2397C96.635 66.8656 96.856 67.4831 96.8723 68.1084C96.9223 70.0838 96.9262 72.0617 96.897 74.0377C96.8853 74.8255 96.4446 75.1141 95.634 75.0881C94.7923 75.0602 93.9492 75.0816 93.1068 75.0816Z" fill="#2D2D2D"/>
<path d="M42.2025 85.4833C41.5245 85.4833 40.8258 85.5886 40.1738 85.4599C39.061 85.2402 37.9625 84.9198 36.8874 84.5545C36.0275 84.2626 35.1688 83.9162 34.3888 83.4586C33.6134 83.0036 32.901 82.4205 32.2237 81.8225C30.7891 80.555 29.7647 78.9963 28.8346 77.3135C27.2564 74.4587 27.272 71.4134 27.5476 68.3662C27.6555 67.1741 28.0026 65.9021 28.7403 64.8192C29.3715 63.8916 29.8401 62.8536 30.4706 61.9254C31.5555 60.329 33.083 59.1622 34.6748 58.145C35.579 57.5671 36.7327 57.3897 37.75 56.9737C39.321 56.3321 40.9844 56.1625 42.6373 56.13C43.7963 56.1072 45.0085 56.2756 46.1155 56.6207C48.3879 57.3286 50.5576 58.3478 52.2697 60.0384C53.1114 60.8698 54.0715 61.6283 54.5583 62.8282C55.0367 64.006 55.9396 65.02 56.3582 66.2108C57.0686 68.231 57.17 70.3656 57.003 72.5093C56.8541 74.4158 56.2704 76.2195 55.3695 77.8478C54.6253 79.192 53.5619 80.3932 52.4874 81.5105C51.437 82.6032 50.1383 83.3832 48.7675 84.1131C47.6592 84.7033 46.4756 84.9555 45.3491 85.3585C44.4125 85.6933 43.2607 85.4274 42.2044 85.4274C42.2025 85.4463 42.2025 85.4645 42.2025 85.4833ZM47.4551 63.0531L47.4772 63.0317C46.5594 63.0278 46.0882 63.369 45.9913 64.1061C45.7112 64.3681 45.4317 64.63 45.1515 64.892C44.7498 64.8998 44.1161 65.0688 43.988 64.8861C43.548 64.2569 43.1989 63.5296 42.9786 62.7912C42.727 61.9494 42.6581 61.0544 42.4924 60.1853C42.4579 60.004 42.3448 59.8369 42.2681 59.6634C41.9847 60.2633 41.9412 60.847 41.8008 61.4067C41.5395 62.4454 41.2223 63.4698 40.9278 64.5L40.9512 64.476C40.7172 64.6625 40.4826 64.8491 40.0711 65.1773C39.765 64.9167 39.4003 64.5442 38.9765 64.2602C38.3415 63.8338 38.0431 62.8679 37.0369 63.0278L37.0577 63.0544C36.8341 62.0827 36.0671 62.6495 35.5484 62.5409C35.1292 62.4538 34.8919 62.6833 34.9192 63.1331C34.7613 63.2351 34.6033 63.3365 34.446 63.4386C33.9423 63.4431 33.9143 63.8156 33.9475 64.1568C34.0079 64.7769 34.1243 65.3912 34.227 66.0067C34.2276 66.0093 34.3732 65.9879 34.4506 65.9781L34.42 65.9443C34.5396 66.2563 34.5936 66.6203 34.7925 66.8693C35.1513 67.3178 35.6056 67.6876 36.0021 68.1069C36.3525 68.4774 36.879 68.8479 36.0229 69.4277C37.3132 69.3451 38.426 69.7657 38.4487 70.9643C38.4643 71.7924 37.5608 72.4755 36.8712 72.523C36.3538 73.1639 36.0463 73.6377 35.6492 74.018C34.5825 75.0404 33.6465 76.0759 33.9293 77.7405C34.0885 78.6785 34.42 79.0243 35.4236 78.9703C35.3554 79.6359 35.8851 79.4955 36.1763 79.4292C36.7282 79.3031 37.3814 79.229 37.5199 78.4815C38.2342 78.6538 38.5111 78.0226 38.9297 77.6846C39.3886 77.3148 39.7825 76.8643 40.2661 76.3885C40.5729 77.1432 40.7939 77.7269 41.0552 78.2924C41.1027 78.3951 41.3133 78.4224 41.4485 78.4841C41.6194 79.5813 41.7852 80.6798 41.9724 81.7744C41.9873 81.8635 42.1446 81.9616 42.2525 81.9876C42.311 82.0019 42.4618 81.8797 42.4722 81.8056C42.6217 80.7 42.7543 79.5917 42.8915 78.4848C43.0605 78.3756 43.3062 78.3047 43.3848 78.1494C43.652 77.6222 43.86 77.0652 44.1655 76.3417C44.5529 76.7116 44.7771 76.9989 45.0664 77.1874C45.7151 77.6092 45.914 78.7006 46.9884 78.4854C46.7674 79.3512 47.6508 79.036 47.9654 79.3161C48.5029 79.7945 49.8088 79.1523 49.8972 78.4867C50.347 78.3775 50.9398 77.4019 50.7883 76.9781C50.4373 75.9966 49.8913 75.1561 49.1432 74.4034C48.5848 73.8412 47.5487 73.42 48.0889 72.2786C48.3671 72.211 48.6453 72.144 48.9235 72.0764C50.1331 71.86 51.3421 71.6435 52.5518 71.4271C52.6044 71.4173 52.6707 71.4258 52.7084 71.3965C52.9821 71.1885 53.2499 70.9734 53.5196 70.7602C52.6064 70.5249 51.8283 70.5021 51.0607 70.4014C50.503 70.3286 49.9583 70.1531 49.4077 70.0231L49.437 70.0471C49.2439 69.8768 49.0775 69.6155 48.8539 69.5518C48.0505 69.3217 47.8711 68.8888 48.3859 68.2882C49.2283 67.3041 50.2228 66.4546 50.6466 65.137C50.9268 64.2667 50.3632 63.1396 49.4025 63.0265L49.4285 63.0531C49.3798 62.8932 49.3388 62.5988 49.2803 62.5955C48.7259 62.5604 48.1675 62.5598 47.6137 62.5962C47.5513 62.5994 47.5078 62.8939 47.4551 63.0531ZM31.0361 70.4794C31.2383 71.4979 32.0657 71.6032 33.9462 71.4121C34.0352 70.7966 33.8662 70.4384 33.1486 70.4722C32.4531 70.5054 31.7557 70.4794 31.0361 70.4794Z" fill="#2D2D2D"/>
<path d="M49.4033 63.0264C49.6146 63.5015 49.8733 63.9617 50.0286 64.4544C50.3887 65.5997 49.4761 66.2146 48.8762 66.916C48.3952 67.4782 47.7809 67.9274 47.2629 68.3941C46.6818 68.1146 46.1384 67.8533 45.5982 67.5939C45.502 67.501 45.4039 67.4061 45.3051 67.3112C44.7792 66.5364 44.8124 65.7258 45.1517 64.8945C45.4331 64.6312 45.7133 64.3693 45.9928 64.1073C46.6798 64.0137 47.1946 63.6822 47.4787 63.0329L47.4566 63.0543C48.1144 63.0543 48.7728 63.0543 49.4306 63.0543L49.4033 63.0264Z" fill="#2D2D2D"/>
<path d="M37.0367 63.0273C37.5001 63.5109 37.9759 63.9841 38.4231 64.482C38.8027 64.9052 39.3039 65.3062 39.4729 65.81C39.6965 66.4788 39.0959 66.9774 38.661 67.4083C38.2554 67.8107 37.7335 68.096 37.088 68.5575C36.3522 67.7444 35.6411 66.9442 34.9086 66.1642C34.7955 66.044 34.5855 66.0147 34.4204 65.9432L34.451 65.977C34.449 65.1307 34.4477 64.2838 34.4458 63.4375C34.6037 63.3354 34.7617 63.234 34.919 63.132C35.632 63.106 36.3444 63.08 37.0575 63.0533L37.0367 63.0273Z" fill="#2D2D2D"/>
<path d="M48.0903 72.2781C47.3844 72.8176 46.908 72.247 46.5089 71.8498C46.1806 71.5235 45.4858 71.0705 46.0643 70.5186C47.0945 69.5345 47.1082 69.1055 48.3536 69.8277C48.6558 70.0032 49.0738 69.9791 49.4384 70.0474L49.4092 70.0233C49.3435 70.9073 50.325 70.1865 50.5421 70.9106C50.1697 71.0984 49.7485 71.2739 49.3715 71.5177C49.1817 71.6405 49.0712 71.8862 48.9249 72.076C48.6461 72.1436 48.3685 72.2105 48.0903 72.2781Z" fill="#2D2D2D"/>
<path d="M37.5419 78.5001C37.1896 78.6164 36.8425 78.7581 36.4824 78.8407C36.1308 78.9213 35.7648 78.9408 35.4054 78.9876C35.3475 78.8355 35.3339 78.6047 35.2253 78.5449C34.3023 78.034 34.0605 76.5611 34.7924 75.8071C35.3651 75.2176 35.9475 74.6358 36.4922 74.0209C36.9218 73.5367 37.4405 73.4047 38.0483 73.4814L38.0216 73.4541C38.1016 73.64 38.1542 73.8448 38.2667 74.0079C38.6729 74.5955 39.4906 74.8854 39.5147 75.7519C39.54 76.6671 38.6996 76.9511 38.2465 77.5186C37.9963 77.8332 37.7759 78.1718 37.5419 78.5001Z" fill="#2D2D2D"/>
<path d="M49.9162 78.5007C49.8915 78.4909 49.8577 78.4656 49.8434 78.474C48.8898 79.0116 47.9291 78.6807 46.9697 78.4994C46.7487 78.1926 46.5609 77.8526 46.2989 77.5861C45.9271 77.2078 45.4364 76.9335 45.114 76.5221C44.7402 76.0463 44.7734 75.5055 45.2128 75.0147C45.673 74.5012 46.0981 73.9559 46.5381 73.4248L46.5115 73.4495C47.2336 73.3618 47.7062 73.7654 48.1501 74.2549C48.4621 74.5987 48.7839 74.9426 49.1466 75.2292C50.0663 75.954 50.1989 76.89 49.9669 77.9514C49.9279 78.1302 49.9318 78.3174 49.9162 78.5007Z" fill="#2D2D2D"/>
<path d="M44.1697 69.7505C44.6059 70.8568 45.0258 70.823 43.5197 72.3297C43.1239 72.7255 42.6819 73.0759 42.221 73.4821C41.4813 72.7931 40.7208 72.1574 40.0695 71.4255C39.9103 71.2468 40.0799 70.7463 40.1495 70.4037C40.2073 70.1184 40.3406 69.848 40.4407 69.5711L40.4153 69.5984C40.7611 69.3806 41.1479 69.2077 41.443 68.9354C42.052 68.3738 42.3842 68.377 43.001 68.9451C43.3221 69.2409 43.7336 69.4385 44.1041 69.6803C44.134 69.7147 44.1561 69.7381 44.1697 69.7505Z" fill="#2D2D2D"/>
<path d="M44.1697 69.75C44.156 69.737 44.1339 69.7136 44.104 69.6805C43.8349 69.3048 43.6211 68.8654 43.2824 68.567C42.7871 68.1302 42.7254 67.7688 43.2259 67.3268C43.404 67.1695 43.5749 67.0005 43.7309 66.8211C44.0182 66.4903 44.2548 66.2706 44.587 66.814C44.7241 67.0382 45.0556 67.1442 45.302 67.3067C45.4034 67.4048 45.5022 67.4997 45.5984 67.5927C45.8824 67.9541 46.2386 68.283 46.4401 68.6886C46.7495 69.3106 46.0527 69.5472 45.8109 69.9535C45.6926 70.1524 45.4196 70.2596 45.2311 70.3974C44.8775 70.1823 44.5233 69.9665 44.1697 69.75Z" fill="#2D2D2D"/>
<path d="M40.9279 64.4997C41.0989 64.4107 41.3569 64.3639 41.4245 64.2248C41.6858 63.684 41.886 63.1146 42.3072 62.5088C42.5302 63.0691 42.7304 63.6398 42.9826 64.1871C43.2322 64.7292 43.5338 65.2466 44.0928 66.0558C43.4844 66.5258 42.876 66.9957 42.2039 67.5151C41.8932 67.1758 41.6416 66.8137 41.3082 66.5589C40.8369 66.1988 40.6439 65.8485 40.9377 65.2667C41.0449 65.0548 40.9533 64.7428 40.952 64.4757C40.9513 64.4757 40.9279 64.4997 40.9279 64.4997Z" fill="#2D2D2D"/>
<path d="M42.9142 78.501C42.6776 78.7493 42.4403 78.9976 42.1875 79.2621C41.7435 79.2459 42.2226 78.215 41.4302 78.5023C41.3035 77.9927 41.2534 77.4467 41.0311 76.9832C40.7308 76.356 40.9629 75.4434 41.4816 74.95C42.166 74.2994 42.5853 74.5704 43.0819 75.1496C43.663 75.8275 43.6857 76.3807 43.2808 77.0677C43.0403 77.4766 43.0286 78.0187 42.9142 78.501Z" fill="#2D2D2D"/>
<path d="M40.4404 69.5712C40.0192 69.8331 39.5973 70.0951 39.1683 70.3622C38.8784 70.1113 38.5248 69.8299 38.2005 69.5185C37.8462 69.1786 37.7617 68.8432 38.2284 68.487C38.6106 68.1951 38.9584 67.8532 39.2938 67.5061C39.6006 67.1883 39.8703 66.8347 40.1966 66.4492C40.3695 66.6 40.5093 66.7437 40.6698 66.8587C41.7657 67.642 41.7963 68.1197 40.8265 69.0044C40.6536 69.1617 40.5515 69.397 40.4163 69.5972C40.4144 69.5985 40.4404 69.5712 40.4404 69.5712Z" fill="#2D2D2D"/>
<path d="M38.0483 73.4819C37.9456 72.8546 38.5566 71.7041 39.1182 71.5267C39.2254 71.4929 39.4178 71.5852 39.5121 71.6788C40.0633 72.2267 40.6288 72.7669 41.1215 73.3649C41.3184 73.6034 41.5232 74.1117 41.4081 74.2755C41.1299 74.6714 40.6996 75.0107 40.257 75.2096C40.1211 75.2707 39.7532 74.7968 39.4809 74.5817C38.9986 74.2001 38.5078 73.829 38.021 73.4539C38.0216 73.4546 38.0483 73.4819 38.0483 73.4819Z" fill="#2D2D2D"/>
<path d="M46.5379 73.4261C45.7358 73.4008 45.3738 74.0222 44.9955 74.5474C44.6841 74.9796 44.3351 75.2565 43.8632 74.9874C43.4127 74.7307 42.7439 74.3972 42.9363 73.8031C43.102 73.2922 43.6578 72.9068 44.0465 72.4706C44.077 72.4362 44.1576 72.4492 44.1966 72.418C44.5678 72.1229 44.9194 71.6191 45.3075 71.5905C45.6065 71.5684 46.0101 72.1001 46.2545 72.4615C46.4339 72.728 46.4313 73.1174 46.5106 73.4508C46.5113 73.4508 46.5379 73.4261 46.5379 73.4261Z" fill="#2D2D2D"/>
</svg>
