<svg width="541" height="171" viewBox="0 0 541 171" fill="none" xmlns="http://www.w3.org/2000/svg">
<path d="M138.8 101.072C143.536 101.072 147.675 102.011 151.216 103.888C154.757 105.765 157.488 108.411 159.408 111.824C161.371 115.195 162.352 119.099 162.352 123.536C162.352 127.931 161.371 131.835 159.408 135.248C157.488 138.661 154.736 141.307 151.152 143.184C147.611 145.061 143.493 146 138.8 146H121.968V101.072H138.8ZM138.096 136.528C142.235 136.528 145.456 135.397 147.76 133.136C150.064 130.875 151.216 127.675 151.216 123.536C151.216 119.397 150.064 116.176 147.76 113.872C145.456 111.568 142.235 110.416 138.096 110.416H132.912V136.528H138.096ZM202.132 127.568C202.132 128.592 202.068 129.659 201.94 130.768H177.172C177.343 132.987 178.047 134.693 179.284 135.888C180.564 137.04 182.121 137.616 183.956 137.616C186.687 137.616 188.585 136.464 189.652 134.16H201.3C200.703 136.507 199.615 138.619 198.036 140.496C196.5 142.373 194.559 143.845 192.212 144.912C189.865 145.979 187.241 146.512 184.34 146.512C180.841 146.512 177.727 145.765 174.996 144.272C172.265 142.779 170.132 140.645 168.596 137.872C167.06 135.099 166.292 131.856 166.292 128.144C166.292 124.432 167.039 121.189 168.532 118.416C170.068 115.643 172.201 113.509 174.932 112.016C177.663 110.523 180.799 109.776 184.34 109.776C187.796 109.776 190.868 110.501 193.556 111.952C196.244 113.403 198.335 115.472 199.828 118.16C201.364 120.848 202.132 123.984 202.132 127.568ZM190.932 124.688C190.932 122.811 190.292 121.317 189.012 120.208C187.732 119.099 186.132 118.544 184.212 118.544C182.377 118.544 180.82 119.077 179.54 120.144C178.303 121.211 177.535 122.725 177.236 124.688H190.932ZM222.434 146.512C219.319 146.512 216.546 145.979 214.114 144.912C211.682 143.845 209.762 142.395 208.354 140.56C206.946 138.683 206.156 136.592 205.986 134.288H216.802C216.93 135.525 217.506 136.528 218.53 137.296C219.554 138.064 220.812 138.448 222.306 138.448C223.671 138.448 224.716 138.192 225.442 137.68C226.21 137.125 226.594 136.421 226.594 135.568C226.594 134.544 226.06 133.797 224.994 133.328C223.927 132.816 222.199 132.261 219.81 131.664C217.25 131.067 215.116 130.448 213.41 129.808C211.703 129.125 210.231 128.08 208.994 126.672C207.756 125.221 207.138 123.28 207.138 120.848C207.138 118.8 207.692 116.944 208.802 115.28C209.954 113.573 211.618 112.229 213.794 111.248C216.012 110.267 218.636 109.776 221.666 109.776C226.146 109.776 229.666 110.885 232.226 113.104C234.828 115.323 236.322 118.267 236.706 121.936H226.594C226.423 120.699 225.868 119.717 224.93 118.992C224.034 118.267 222.839 117.904 221.346 117.904C220.066 117.904 219.084 118.16 218.402 118.672C217.719 119.141 217.378 119.803 217.378 120.656C217.378 121.68 217.911 122.448 218.978 122.96C220.087 123.472 221.794 123.984 224.098 124.496C226.743 125.179 228.898 125.861 230.562 126.544C232.226 127.184 233.676 128.251 234.914 129.744C236.194 131.195 236.855 133.157 236.898 135.632C236.898 137.723 236.3 139.6 235.106 141.264C233.954 142.885 232.268 144.165 230.05 145.104C227.874 146.043 225.335 146.512 222.434 146.512ZM265.545 109.904C269.641 109.904 272.926 111.269 275.401 114C277.876 116.688 279.113 120.4 279.113 125.136V146H268.233V126.608C268.233 124.219 267.614 122.363 266.377 121.04C265.14 119.717 263.476 119.056 261.385 119.056C259.294 119.056 257.63 119.717 256.393 121.04C255.156 122.363 254.537 124.219 254.537 126.608V146H243.593V98.6401H254.537V115.088C255.646 113.509 257.161 112.251 259.081 111.312C261.001 110.373 263.156 109.904 265.545 109.904ZM292.222 106.576C290.302 106.576 288.723 106.021 287.486 104.912C286.291 103.76 285.694 102.352 285.694 100.688C285.694 98.9814 286.291 97.5734 287.486 96.4641C288.723 95.3121 290.302 94.7361 292.222 94.7361C294.099 94.7361 295.635 95.3121 296.83 96.4641C298.067 97.5734 298.686 98.9814 298.686 100.688C298.686 102.352 298.067 103.76 296.83 104.912C295.635 106.021 294.099 106.576 292.222 106.576ZM297.662 110.288V146H286.718V110.288H297.662ZM322.425 101.072C327.161 101.072 331.3 102.011 334.841 103.888C338.382 105.765 341.113 108.411 343.033 111.824C344.996 115.195 345.977 119.099 345.977 123.536C345.977 127.931 344.996 131.835 343.033 135.248C341.113 138.661 338.361 141.307 334.777 143.184C331.236 145.061 327.118 146 322.425 146H305.593V101.072H322.425ZM321.721 136.528C325.86 136.528 329.081 135.397 331.385 133.136C333.689 130.875 334.841 127.675 334.841 123.536C334.841 119.397 333.689 116.176 331.385 113.872C329.081 111.568 325.86 110.416 321.721 110.416H316.537V136.528H321.721ZM357.597 106.576C355.677 106.576 354.098 106.021 352.861 104.912C351.666 103.76 351.069 102.352 351.069 100.688C351.069 98.9814 351.666 97.5734 352.861 96.4641C354.098 95.3121 355.677 94.7361 357.597 94.7361C359.474 94.7361 361.01 95.3121 362.205 96.4641C363.442 97.5734 364.061 98.9814 364.061 100.688C364.061 102.352 363.442 103.76 362.205 104.912C361.01 106.021 359.474 106.576 357.597 106.576ZM363.037 110.288V146H352.093V110.288H363.037ZM368.792 128.08C368.792 124.411 369.475 121.189 370.84 118.416C372.248 115.643 374.147 113.509 376.536 112.016C378.925 110.523 381.592 109.776 384.536 109.776C387.053 109.776 389.251 110.288 391.128 111.312C393.048 112.336 394.52 113.68 395.544 115.344V110.288H406.488V146H395.544V140.944C394.477 142.608 392.984 143.952 391.064 144.976C389.187 146 386.989 146.512 384.472 146.512C381.571 146.512 378.925 145.765 376.536 144.272C374.147 142.736 372.248 140.581 370.84 137.808C369.475 134.992 368.792 131.749 368.792 128.08ZM395.544 128.144C395.544 125.413 394.776 123.259 393.24 121.68C391.747 120.101 389.912 119.312 387.736 119.312C385.56 119.312 383.704 120.101 382.168 121.68C380.675 123.216 379.928 125.349 379.928 128.08C379.928 130.811 380.675 132.987 382.168 134.608C383.704 136.187 385.56 136.976 387.736 136.976C389.912 136.976 391.747 136.187 393.24 134.608C394.776 133.029 395.544 130.875 395.544 128.144ZM425.35 116.24C426.63 114.277 428.23 112.741 430.15 111.632C432.07 110.48 434.203 109.904 436.55 109.904V121.488H433.542C430.811 121.488 428.763 122.085 427.398 123.28C426.032 124.432 425.35 126.48 425.35 129.424V146H414.406V110.288H425.35V116.24ZM478.261 110.288L455.861 162.96H444.085L452.277 144.784L437.748 110.288H449.973L458.229 132.624L466.421 110.288H478.261Z" fill="#474747"/>
<mask id="mask0_3_4" style="mask-type:luminance" maskUnits="userSpaceOnUse" x="1" y="63" width="101" height="101">
<path d="M98.7976 88.0214L31.1493 63.3695C29.0737 62.6132 26.7779 63.6826 26.0216 65.7582L1.36966 133.406C0.613283 135.482 1.68273 137.778 3.75835 138.534L71.4066 163.186C73.4822 163.943 75.778 162.873 76.5344 160.797L101.186 93.1492C101.943 91.0736 100.873 88.7778 98.7976 88.0214Z" fill="white"/>
</mask>
<g mask="url(#mask0_3_4)">
<path d="M58.9814 92.1378L41.0061 141.465M58.9814 92.1378C58.9814 92.1378 47.675 72.0526 26.9529 77.8053L8.12158 129.481C28.8437 123.728 41.0061 141.465 41.0061 141.465M58.9814 92.1378C58.9814 92.1378 80.5595 84.0362 92.722 101.772L73.8907 153.448C61.7282 135.712 41.0061 141.465 41.0061 141.465" stroke="#424242" stroke-width="4" stroke-linecap="round" stroke-linejoin="round"/>
</g>
<path d="M80.0243 71.4636C80.1739 71.003 80.8257 71.003 80.9753 71.4636L82.0714 74.837C82.1383 75.043 82.3303 75.1825 82.5469 75.1825H86.0939C86.5782 75.1825 86.7796 75.8023 86.3878 76.087L83.5182 78.1718C83.343 78.2992 83.2697 78.5248 83.3366 78.7308L84.4327 82.1042C84.5823 82.5649 84.0551 82.9479 83.6632 82.6632L80.7937 80.5784C80.6184 80.451 80.3812 80.451 80.2059 80.5784L77.3364 82.6632C76.9445 82.9479 76.4173 82.5649 76.5669 82.1042L77.663 78.7308C77.7299 78.5248 77.6566 78.2992 77.4814 78.1718L74.6118 76.087C74.22 75.8023 74.4214 75.1825 74.9057 75.1825H78.4527C78.6693 75.1825 78.8613 75.043 78.9282 74.837L80.0243 71.4636Z" fill="#008080"/>
<path d="M92.5245 47.4636C92.6741 47.003 93.3259 47.003 93.4755 47.4636L95.1329 52.5644C95.1998 52.7704 95.3918 52.9099 95.6084 52.9099H100.972C101.456 52.9099 101.657 53.5297 101.266 53.8144L96.9266 56.9669C96.7514 57.0942 96.678 57.3199 96.745 57.5259L98.4023 62.6267C98.552 63.0874 98.0248 63.4705 97.6329 63.1858L93.2939 60.0333C93.1186 59.906 92.8814 59.906 92.7061 60.0333L88.3671 63.1858C87.9752 63.4705 87.448 63.0874 87.5977 62.6267L89.255 57.5259C89.322 57.3199 89.2486 57.0942 89.0734 56.9669L84.7344 53.8144C84.3425 53.5297 84.5439 52.9099 85.0283 52.9099H90.3916C90.6082 52.9099 90.8002 52.7704 90.8671 52.5644L92.5245 47.4636Z" fill="#008080"/>
<path d="M115.573 26.3905C116.022 25.0085 117.978 25.0085 118.427 26.3905L120.031 31.3282C120.232 31.9462 120.808 32.3646 121.458 32.3646H126.649C128.102 32.3646 128.707 34.2241 127.531 35.0782L123.331 38.1298C122.805 38.5118 122.585 39.1889 122.786 39.8069L124.39 44.7446C124.839 46.1265 123.258 47.2757 122.082 46.4216L117.882 43.37C117.356 42.988 116.644 42.988 116.118 43.37L111.918 46.4216C110.742 47.2757 109.161 46.1265 109.61 44.7446L111.214 39.8069C111.415 39.1889 111.195 38.5118 110.669 38.1298L106.469 35.0782C105.293 34.2241 105.898 32.3646 107.351 32.3646H112.542C113.192 32.3646 113.768 31.9462 113.969 31.3282L115.573 26.3905Z" fill="#008080"/>
<path d="M148.573 4.39047C149.022 3.00851 150.978 3.00851 151.427 4.39048L154.154 12.7831C154.354 13.4011 154.93 13.8196 155.58 13.8196H164.405C165.858 13.8196 166.462 15.679 165.286 16.5331L158.147 21.72C157.621 22.102 157.401 22.779 157.602 23.3971L160.329 31.7897C160.778 33.1716 159.196 34.3208 158.021 33.4667L150.882 28.2798C150.356 27.8978 149.644 27.8978 149.118 28.2798L141.979 33.4667C140.804 34.3208 139.222 33.1716 139.671 31.7897L142.398 23.3971C142.599 22.779 142.379 22.102 141.853 21.72L134.714 16.5331C133.538 15.679 134.142 13.8196 135.595 13.8196H144.42C145.07 13.8196 145.646 13.4011 145.846 12.7831L148.573 4.39047Z" fill="#008080"/>
</svg>
