<svg width="238" height="75" viewBox="0 0 238 75" fill="none" xmlns="http://www.w3.org/2000/svg">
<path d="M60.8857 44.3326C62.9628 44.3326 64.7781 44.7444 66.3312 45.5676C67.8842 46.3909 69.082 47.5514 69.9241 49.0483C70.785 50.5267 71.2152 52.239 71.2152 54.185C71.2152 56.1126 70.785 57.8248 69.9241 59.3217C69.082 60.8186 67.875 61.9791 66.3031 62.8023C64.7501 63.6255 62.944 64.0373 60.8857 64.0373H53.5034V44.3326H60.8857ZM60.5769 59.8831C62.3922 59.8831 63.8049 59.387 64.8154 58.3954C65.8259 57.4037 66.3312 56.0003 66.3312 54.185C66.3312 52.3697 65.8259 50.957 64.8154 49.9465C63.8049 48.936 62.3922 48.4307 60.5769 48.4307H58.3033V59.8831H60.5769ZM88.6622 55.9533C88.6622 56.4025 88.6341 56.8704 88.578 57.3568H77.7151C77.7901 58.33 78.0988 59.0783 78.6414 59.6024C79.2028 60.1076 79.8856 60.3602 80.6904 60.3602C81.8882 60.3602 82.7207 59.855 83.1886 58.8445H88.2973C88.0354 59.8739 87.5583 60.8002 86.8657 61.6234C86.1921 62.4466 85.3408 63.0922 84.3114 63.5602C83.282 64.0281 82.1312 64.2619 80.8589 64.2619C79.3242 64.2619 77.9585 63.9343 76.7607 63.2795C75.5629 62.6247 74.6274 61.6887 73.9538 60.4725C73.2801 59.2563 72.9433 57.834 72.9433 56.206C72.9433 54.5779 73.2709 53.1556 73.9257 51.9394C74.5994 50.7232 75.5349 49.7873 76.7327 49.1325C77.9304 48.4777 79.3058 48.15 80.8589 48.15C82.3746 48.15 83.7219 48.468 84.9009 49.1044C86.0798 49.7408 86.9969 50.6482 87.6517 51.8271C88.3253 53.0061 88.6622 54.3815 88.6622 55.9533ZM83.75 54.6902C83.75 53.867 83.4693 53.2117 82.9079 52.7254C82.3465 52.239 81.6448 51.9955 80.8027 51.9955C79.9979 51.9955 79.315 52.2293 78.7536 52.6973C78.2111 53.1653 77.8743 53.8293 77.7431 54.6902H83.75ZM97.5663 64.2619C96.2001 64.2619 94.9839 64.0281 93.9173 63.5602C92.8507 63.0922 92.0086 62.4562 91.391 61.6514C90.7735 60.8282 90.427 59.9111 90.3525 58.9006H95.0962C95.1524 59.4432 95.405 59.8831 95.8541 60.2199C96.3032 60.5567 96.8549 60.7252 97.5102 60.7252C98.1089 60.7252 98.5672 60.6129 98.8856 60.3883C99.2224 60.1449 99.3908 59.8361 99.3908 59.462C99.3908 59.0129 99.1566 58.6853 98.6891 58.4796C98.2211 58.255 97.4633 58.0116 96.4155 57.7498C95.2927 57.488 94.3568 57.2165 93.6085 56.9358C92.8599 56.6362 92.2143 56.1779 91.6717 55.5604C91.1288 54.924 90.8577 54.0727 90.8577 53.0061C90.8577 52.1078 91.1007 51.2938 91.5875 50.564C92.0928 49.8153 92.8226 49.2259 93.777 48.7956C94.7497 48.3654 95.9006 48.15 97.2295 48.15C99.1944 48.15 100.738 48.6364 101.861 49.6096C103.002 50.5829 103.657 51.8741 103.826 53.4832H99.3908C99.3158 52.9407 99.0724 52.51 98.661 52.192C98.2681 51.8741 97.744 51.7149 97.0891 51.7149C96.5278 51.7149 96.0971 51.8271 95.798 52.0517C95.4984 52.2574 95.3488 52.5477 95.3488 52.9218C95.3488 53.371 95.5826 53.7078 96.0506 53.9323C96.537 54.1569 97.2856 54.3815 98.2961 54.606C99.4562 54.9056 100.401 55.2047 101.131 55.5042C101.861 55.7849 102.497 56.2529 103.04 56.9077C103.601 57.5441 103.891 58.4046 103.91 59.4901C103.91 60.4072 103.648 61.2304 103.124 61.9602C102.619 62.6712 101.879 63.2325 100.907 63.6444C99.9522 64.0562 98.8387 64.2619 97.5663 64.2619ZM116.474 48.2062C118.271 48.2062 119.711 48.8048 120.797 50.0026C121.882 51.1815 122.425 52.8096 122.425 54.8867V64.0373H117.653V55.5323C117.653 54.4845 117.382 53.6705 116.839 53.0903C116.297 52.51 115.567 52.2201 114.65 52.2201C113.733 52.2201 113.003 52.51 112.46 53.0903C111.918 53.6705 111.646 54.4845 111.646 55.5323V64.0373H106.846V43.2659H111.646V50.4798C112.133 49.7873 112.797 49.2355 113.639 48.8237C114.481 48.4119 115.426 48.2062 116.474 48.2062ZM128.174 46.7466C127.332 46.7466 126.64 46.5031 126.097 46.0168C125.573 45.5115 125.311 44.894 125.311 44.1642C125.311 43.4156 125.573 42.7981 126.097 42.3116C126.64 41.8063 127.332 41.5537 128.174 41.5537C128.998 41.5537 129.671 41.8063 130.195 42.3116C130.738 42.7981 131.009 43.4156 131.009 44.1642C131.009 44.894 130.738 45.5115 130.195 46.0168C129.671 46.5031 128.998 46.7466 128.174 46.7466ZM130.56 48.3746V64.0373H125.76V48.3746H130.56ZM141.421 44.3326C143.498 44.3326 145.313 44.7444 146.866 45.5676C148.419 46.3909 149.617 47.5514 150.459 49.0483C151.32 50.5267 151.75 52.239 151.75 54.185C151.75 56.1126 151.32 57.8248 150.459 59.3217C149.617 60.8186 148.41 61.9791 146.838 62.8023C145.285 63.6255 143.479 64.0373 141.421 64.0373H134.039V44.3326H141.421ZM141.112 59.8831C142.927 59.8831 144.34 59.387 145.351 58.3954C146.361 57.4037 146.866 56.0003 146.866 54.185C146.866 52.3697 146.361 50.957 145.351 49.9465C144.34 48.936 142.927 48.4307 141.112 48.4307H138.839V59.8831H141.112ZM156.847 46.7466C156.005 46.7466 155.312 46.5031 154.77 46.0168C154.246 45.5115 153.984 44.894 153.984 44.1642C153.984 43.4156 154.246 42.7981 154.77 42.3116C155.312 41.8063 156.005 41.5537 156.847 41.5537C157.67 41.5537 158.344 41.8063 158.868 42.3116C159.41 42.7981 159.682 43.4156 159.682 44.1642C159.682 44.894 159.41 45.5115 158.868 46.0168C158.344 46.5031 157.67 46.7466 156.847 46.7466ZM159.233 48.3746V64.0373H154.433V48.3746H159.233ZM161.757 56.1779C161.757 54.5687 162.056 53.1556 162.655 51.9394C163.273 50.7232 164.105 49.7873 165.153 49.1325C166.201 48.4777 167.371 48.15 168.662 48.15C169.766 48.15 170.73 48.3746 171.553 48.8237C172.395 49.2728 173.041 49.8623 173.49 50.5921V48.3746H178.29V64.0373H173.49V61.8199C173.022 62.5497 172.367 63.1391 171.525 63.5882C170.702 64.0373 169.738 64.2619 168.634 64.2619C167.361 64.2619 166.201 63.9343 165.153 63.2795C164.105 62.6058 163.273 61.6607 162.655 60.4445C162.056 59.2094 161.757 57.7871 161.757 56.1779ZM173.49 56.206C173.49 55.0082 173.153 54.0635 172.479 53.371C171.825 52.6784 171.02 52.3324 170.065 52.3324C169.111 52.3324 168.297 52.6784 167.623 53.371C166.969 54.0446 166.641 54.9801 166.641 56.1779C166.641 57.3757 166.969 58.33 167.623 59.041C168.297 59.7335 169.111 60.0796 170.065 60.0796C171.02 60.0796 171.825 59.7335 172.479 59.041C173.153 58.3485 173.49 57.4037 173.49 56.206ZM186.562 50.985C187.124 50.1241 187.825 49.4504 188.668 48.964C189.51 48.4588 190.445 48.2062 191.474 48.2062V53.2867H190.155C188.957 53.2867 188.059 53.5486 187.461 54.0727C186.861 54.5779 186.562 55.4762 186.562 56.7674V64.0373H181.762V48.3746H186.562V50.985ZM209.768 48.3746L199.944 71.4758H194.779L198.372 63.504L192 48.3746H197.362L200.983 58.1708L204.575 48.3746H209.768Z" fill="#2D2D2D"/>
<mask id="mask0_2540_12735" style="mask-type:luminance" maskUnits="userSpaceOnUse" x="0" y="27" width="45" height="45">
<path d="M43.3398 38.605L13.6703 27.793C12.7599 27.4613 11.753 27.9304 11.4213 28.8407L0.609345 58.5102C0.277608 59.4205 0.746653 60.4274 1.65699 60.7592L31.3265 71.5711C32.2368 71.9029 33.2437 71.4338 33.5755 70.5235L44.3874 40.854C44.7192 39.9436 44.2501 38.9367 43.3398 38.605Z" fill="white"/>
</mask>
<g mask="url(#mask0_2540_12735)">
<path d="M25.8772 40.4132L17.9935 62.0474M25.8772 40.4132C25.8772 40.4132 20.9184 31.6041 11.8299 34.1271L3.5708 56.7913C12.6592 54.2682 17.9935 62.0474 17.9935 62.0474M25.8772 40.4132C25.8772 40.4132 35.341 36.8599 40.6753 44.6386L32.4162 67.3029C27.0819 59.5242 17.9935 62.0474 17.9935 62.0474" stroke="#2D2D2D" stroke-width="1.75434" stroke-linecap="round" stroke-linejoin="round"/>
</g>
<path d="M35.1092 31.3449C35.1748 31.1429 35.4607 31.1429 35.5263 31.3449L36.007 32.8244C36.0363 32.9147 36.1205 32.9759 36.2155 32.9759H37.7712C37.9836 32.9759 38.0719 33.2478 37.9001 33.3726L36.6415 34.287C36.5647 34.3429 36.5326 34.4418 36.5619 34.5322L37.0426 36.0117C37.1082 36.2137 36.877 36.3817 36.7051 36.2568L35.4466 35.3425C35.3697 35.2866 35.2657 35.2866 35.1888 35.3425L33.9303 36.2568C33.7584 36.3817 33.5272 36.2137 33.5928 36.0117L34.0735 34.5322C34.1029 34.4418 34.0707 34.3429 33.9939 34.287L32.7353 33.3726C32.5635 33.2478 32.6518 32.9759 32.8642 32.9759H34.4199C34.5149 32.9759 34.5991 32.9147 34.6284 32.8244L35.1092 31.3449Z" fill="#2D2D2D"/>
<path d="M40.5895 20.8165C40.6551 20.6145 40.941 20.6145 41.0066 20.8165L41.7335 23.0537C41.7628 23.144 41.847 23.2052 41.942 23.2052H44.2944C44.5067 23.2052 44.5949 23.4771 44.4234 23.6019L42.5202 24.9846C42.4433 25.0404 42.4111 25.1394 42.4405 25.2297L43.1674 27.4669C43.2331 27.6689 43.0018 27.8369 42.83 27.7121L40.9269 26.3294C40.85 26.2736 40.746 26.2736 40.6691 26.3294L38.7661 27.7121C38.5942 27.8369 38.363 27.6689 38.4287 27.4669L39.1555 25.2297C39.1849 25.1394 39.1527 25.0404 39.0759 24.9846L37.1729 23.6019C37.001 23.4771 37.0893 23.2052 37.3018 23.2052H39.654C39.749 23.2052 39.8332 23.144 39.8626 23.0537L40.5895 20.8165Z" fill="#2D2D2D"/>
<path d="M50.6955 11.5776C50.8925 10.9715 51.7503 10.9715 51.9473 11.5776L52.6507 13.7432C52.7389 14.0143 52.9915 14.1978 53.2766 14.1978H55.5533C56.1906 14.1978 56.4559 15.0133 55.9401 15.3879L54.0981 16.7263C53.8674 16.8939 53.7709 17.1908 53.8591 17.4619L54.5625 19.6275C54.7595 20.2336 54.0661 20.7376 53.5503 20.363L51.7082 19.0246C51.4775 18.8571 51.1653 18.8571 50.9346 19.0246L49.0925 20.363C48.5767 20.7376 47.8833 20.2336 48.0803 19.6275L48.7837 17.4619C48.8719 17.1908 48.7754 16.8939 48.5447 16.7263L46.7027 15.3879C46.1869 15.0133 46.4522 14.1978 47.0895 14.1978H49.3662C49.6513 14.1978 49.9039 14.0143 49.992 13.7432L50.6955 11.5776Z" fill="#2D2D2D"/>
<path d="M65.1737 1.92724C65.3706 1.32113 66.2285 1.32113 66.4254 1.92724L67.6215 5.60812C67.7092 5.87917 67.9618 6.06271 68.2469 6.06271H72.1174C72.7547 6.06271 73.0196 6.87822 72.5038 7.25281L69.3727 9.52771C69.142 9.69525 69.0456 9.99217 69.1337 10.2633L70.3297 13.9441C70.5266 14.5502 69.8328 15.0542 69.3175 14.6796L66.1864 12.4047C65.9557 12.2372 65.6434 12.2372 65.4127 12.4047L62.2817 14.6796C61.7664 15.0542 61.0725 14.5502 61.2694 13.9441L62.4655 10.2633C62.5536 9.99217 62.4571 9.69525 62.2264 9.52771L59.0954 7.25281C58.5796 6.87822 58.8445 6.06271 59.4818 6.06271H63.3523C63.6374 6.06271 63.89 5.87917 63.9777 5.60812L65.1737 1.92724Z" fill="#2D2D2D"/>
</svg>
