<svg width="222" height="58" viewBox="0 0 222 58" fill="none" xmlns="http://www.w3.org/2000/svg">
<path d="M10.9803 25.2868H25.1621V31.745H10.9803V25.2868ZM11.5912 37.3305H27.5621V44.0068H3.03844V13.4613H26.9949V20.1377H11.5912V37.3305ZM34.7669 44.0068L21.7196 13.4613H31.0578L42.0542 39.905H36.556L47.8142 13.4613H56.367L43.276 44.0068H34.7669ZM59.5514 25.2868H73.7333V31.745H59.5514V25.2868ZM60.1623 37.3305H76.1333V44.0068H51.6096V13.4613H75.566V20.1377H60.1623V37.3305ZM74.3824 44.0068V13.4613H81.4951L98.3388 33.7959H94.9788V13.4613H103.444V44.0068H96.3315L79.4878 23.6722H82.8478V44.0068H74.3824ZM109.495 44.0068V20.3122H100.113V13.4613H127.473V20.3122H118.135V44.0068H109.495Z" fill="black"/>
<path d="M136.454 44.0068V13.4613H150.417C153.21 13.4613 155.61 13.9122 157.617 14.814C159.654 15.7159 161.224 17.025 162.33 18.7413C163.435 20.4286 163.988 22.4359 163.988 24.7632C163.988 27.0613 163.435 29.0541 162.33 30.7413C161.224 32.4286 159.654 33.7377 157.617 34.6686C155.61 35.5705 153.21 36.0214 150.417 36.0214H141.254L145.094 32.2686V44.0068H136.454ZM145.094 33.185L141.254 29.2141H149.894C151.697 29.2141 153.035 28.8213 153.908 28.0359C154.81 27.2504 155.261 26.1595 155.261 24.7632C155.261 23.3377 154.81 22.2322 153.908 21.4468C153.035 20.6613 151.697 20.2686 149.894 20.2686H141.254L145.094 16.2977V33.185ZM161.655 44.0068V13.4613H175.619C178.412 13.4613 180.812 13.9122 182.819 14.814C184.855 15.7159 186.426 17.025 187.532 18.7413C188.637 20.4286 189.19 22.4359 189.19 24.7632C189.19 27.0613 188.637 29.0541 187.532 30.7413C186.426 32.3995 184.855 33.6795 182.819 34.5814C180.812 35.4541 178.412 35.8905 175.619 35.8905H166.455L170.295 32.2686V44.0068H161.655ZM180.55 44.0068L172.957 32.8795H182.164L189.801 44.0068H180.55ZM170.295 33.185L166.455 29.2141H175.095C176.899 29.2141 178.237 28.8213 179.11 28.0359C180.012 27.2504 180.463 26.1595 180.463 24.7632C180.463 23.3377 180.012 22.2322 179.11 21.4468C178.237 20.6613 176.899 20.2686 175.095 20.2686H166.455L170.295 16.2977V33.185ZM202.815 44.6177C200.371 44.6177 198.117 44.225 196.051 43.4396C193.986 42.6541 192.182 41.5486 190.64 40.1232C189.127 38.6686 187.949 36.9814 187.106 35.0614C186.262 33.1414 185.84 31.0323 185.84 28.7341C185.84 26.4359 186.262 24.3268 187.106 22.4068C187.949 20.4868 189.127 18.814 190.64 17.3886C192.182 15.934 193.986 14.814 196.051 14.0286C198.117 13.2431 200.371 12.8504 202.815 12.8504C205.287 12.8504 207.542 13.2431 209.578 14.0286C211.644 14.814 213.433 15.934 214.946 17.3886C216.458 18.814 217.637 20.4868 218.48 22.4068C219.353 24.3268 219.789 26.4359 219.789 28.7341C219.789 31.0323 219.353 33.1559 218.48 35.105C217.637 37.025 216.458 38.6977 214.946 40.1232C213.433 41.5486 211.644 42.6541 209.578 43.4396C207.542 44.225 205.287 44.6177 202.815 44.6177ZM202.815 37.4614C203.978 37.4614 205.055 37.2577 206.044 36.8505C207.062 36.4432 207.935 35.8614 208.662 35.105C209.418 34.3195 210 33.3886 210.407 32.3123C210.844 31.2359 211.062 30.0432 211.062 28.7341C211.062 27.3959 210.844 26.2032 210.407 25.1559C210 24.0795 209.418 23.1631 208.662 22.4068C207.935 21.6213 207.062 21.025 206.044 20.6177C205.055 20.2104 203.978 20.0068 202.815 20.0068C201.651 20.0068 200.56 20.2104 199.542 20.6177C198.553 21.025 197.68 21.6213 196.924 22.4068C196.197 23.1631 195.615 24.0795 195.178 25.1559C194.771 26.2032 194.567 27.3959 194.567 28.7341C194.567 30.0432 194.771 31.2359 195.178 32.3123C195.615 33.3886 196.197 34.3195 196.924 35.105C197.68 35.8614 198.553 36.4432 199.542 36.8505C200.56 37.2577 201.651 37.4614 202.815 37.4614Z" fill="#474747"/>
</svg>
