<svg width="118" height="66" viewBox="0 0 118 66" fill="none" xmlns="http://www.w3.org/2000/svg">
<path d="M55.7217 16.3895C55.7217 20.8145 56.5411 24.584 57.3606 24.584C58.3439 24.584 58.9995 20.8145 58.9995 16.3895C58.9995 11.8007 58.3439 8.1951 57.3606 8.1951C56.5411 8.1951 55.7217 11.8007 55.7217 16.3895Z" fill="black"/>
<path d="M65.5553 11.4729C65.5553 13.2757 64.4081 14.7507 63.097 14.7507C61.7859 14.7507 60.6387 15.4062 60.6387 16.3895C60.6387 17.209 61.7859 18.0284 63.097 18.0284C64.4081 18.0284 65.5553 19.5034 65.5553 21.3062C65.5553 23.109 66.3748 24.584 67.1942 24.584C68.1776 24.584 68.8331 20.8145 68.8331 16.3895C68.8331 11.8007 68.1776 8.1951 67.1942 8.1951C66.3748 8.1951 65.5553 9.6701 65.5553 11.4729Z" fill="black"/>
<path d="M72.1108 16.3895C72.1108 20.8145 72.9303 24.584 73.7497 24.584C74.7331 24.584 75.3886 20.8145 75.3886 16.3895C75.3886 11.8007 74.7331 8.1951 73.7497 8.1951C72.9303 8.1951 72.1108 11.8007 72.1108 16.3895Z" fill="black"/>
<path d="M80.6332 10.1618C79.4859 11.309 78.6665 14.0951 78.6665 16.3895C78.6665 21.9618 81.4526 24.584 87.1887 24.584C90.9582 24.584 91.7776 23.9284 91.7776 20.4868C91.7776 18.1923 91.1221 16.3895 90.1387 16.3895C89.3193 16.3895 88.4998 17.5368 88.4998 19.0118C88.4998 20.4868 87.3526 21.3062 85.7137 20.9784C83.7471 20.6507 82.7637 19.0118 82.7637 16.3895C82.7637 13.1118 83.7471 12.1284 87.3526 11.8006C89.8109 11.4729 91.7776 10.4895 91.7776 9.67009C91.7776 7.53954 82.9276 7.86732 80.6332 10.1618Z" fill="black"/>
<path d="M96.6943 16.3892C96.6943 21.142 97.3499 24.4198 98.1693 23.7642C100.136 22.617 100.136 10.1615 98.1693 8.85034C97.3499 8.35868 96.6943 11.8003 96.6943 16.3892Z" fill="black"/>
<path d="M106.528 11.4729C106.528 13.2757 105.38 14.7507 104.069 14.7507C102.758 14.7507 101.611 15.4062 101.611 16.3895C101.611 17.209 102.758 18.0284 104.069 18.0284C105.38 18.0284 106.528 19.5034 106.528 21.3062C106.528 23.109 107.347 24.584 108.166 24.584C109.15 24.584 109.805 20.8145 109.805 16.3895C109.805 11.8007 109.15 8.1951 108.166 8.1951C107.347 8.1951 106.528 9.6701 106.528 11.4729Z" fill="black"/>
<path d="M22.9443 29.5005C21.1415 31.3033 19.6665 34.4172 19.6665 36.5478C19.6665 40.645 23.9276 47.5283 26.3859 47.5283C27.2054 47.5283 26.3859 46.0533 24.5832 44.2505C19.3387 39.0061 21.3054 30.8117 28.3526 27.8617C31.1387 26.7144 31.3026 26.3867 29.1721 26.3867C27.5332 26.2228 24.7471 27.6978 22.9443 29.5005Z" fill="black"/>
<path d="M38.1857 30.8114C43.1024 36.2198 41.1357 43.1031 33.5968 47.2003C31.794 48.1837 31.1385 49.167 32.1218 49.167C35.8912 49.167 42.6107 42.2837 42.6107 38.3503C42.6107 33.2698 39.8246 27.8614 37.3662 27.8614C36.3829 27.8614 36.7107 29.1726 38.1857 30.8114Z" fill="black"/>
<path d="M7.21072 36.3837C9.83295 45.7254 13.9302 46.5448 16.2246 38.1865C18.3552 30.6476 18.3552 29.5004 16.5524 29.5004C15.8968 29.5004 14.4218 31.9587 13.6024 34.7448C11.9635 40.317 11.4718 39.9893 8.84961 31.467C8.52183 30.4837 7.5385 29.5004 6.71906 29.5004C5.73572 29.5004 5.89961 32.2865 7.21072 36.3837Z" fill="black"/>
<path d="M29.008 34.4173C27.3691 37.0395 26.7135 39.334 27.6969 39.334C29.6635 39.334 33.2691 33.2701 32.4497 30.9757C32.1219 30.1562 30.6469 31.6312 29.008 34.4173Z" fill="black"/>
<path d="M45.8887 36.876C45.8887 43.9232 46.0526 44.251 50.8053 44.251C53.5914 44.251 55.722 43.4315 55.722 42.6121C55.722 41.6288 54.247 40.9732 52.4442 40.9732C49.822 40.9732 49.1664 39.826 49.1664 35.2371C49.1664 32.1232 48.5109 29.501 47.5276 29.501C46.7081 29.501 45.8887 32.7788 45.8887 36.876Z" fill="black"/>
<path d="M55.7217 31.14C55.7217 31.9594 56.5411 32.7788 57.3606 32.7788C58.3439 32.7788 58.9995 35.2372 58.9995 38.3511C58.9995 41.465 59.8189 44.5788 60.6383 45.0705C61.6217 45.7261 62.2772 43.4316 62.2772 39.4983C62.2772 34.5816 62.9328 32.7788 64.7356 32.7788C66.0467 32.7788 67.1939 31.9594 67.1939 31.14C67.1939 30.1566 64.5717 29.5011 61.4578 29.5011C58.3439 29.5011 55.7217 30.1566 55.7217 31.14Z" fill="black"/>
<path d="M68.9966 35.5643C68.0133 39.006 67.1938 42.1199 67.1938 42.6116C67.1938 43.1032 69.98 43.5949 73.5855 43.5949L79.8133 43.7588L77.8466 37.0393C75.2244 28.0255 71.2911 27.3699 68.9966 35.5643ZM74.5688 39.1699C73.0938 41.7921 70.4716 39.6616 71.6188 36.7116C72.2744 35.0727 73.0938 34.7449 74.0772 35.7282C75.0605 36.7116 75.2244 38.1866 74.5688 39.1699Z" fill="black"/>
<path d="M82.5999 31.7952C82.1082 33.1063 81.9443 36.2202 82.2721 38.8424C82.5999 42.7758 83.5832 43.4313 88.1721 43.923C92.761 44.4146 93.4165 43.923 93.4165 40.6452C93.4165 37.8591 92.9249 37.5313 91.9415 39.0063C89.9749 42.2841 84.4026 40.6452 84.4026 36.8758C84.4026 34.5813 85.7138 33.4341 88.9915 33.1063C91.4499 32.7785 93.4165 31.7952 93.4165 30.9758C93.4165 28.5174 83.5832 29.3369 82.5999 31.7952Z" fill="black"/>
<path d="M98.333 36.875C98.333 44.25 98.333 44.25 104.069 44.25C107.183 44.25 109.805 43.4306 109.805 42.6111C109.805 41.6278 108.002 40.9722 105.872 40.9722C101.939 40.9722 99.1525 37.2028 100.955 34.2528C101.447 33.4333 103.577 32.7778 105.872 32.7778C108.002 32.7778 109.805 31.9583 109.805 31.1389C109.805 30.1556 107.183 29.5 104.069 29.5C98.333 29.5 98.333 29.5 98.333 36.875Z" fill="black"/>
<path d="M30.9747 40.3172C28.6802 46.5449 30.483 47.0366 33.5969 41.1366C35.0719 38.1866 35.3997 36.0561 34.4163 36.0561C33.433 36.0561 31.958 38.0227 30.9747 40.3172Z" fill="black"/>
<path d="M104.561 37.2034C105.544 37.5312 107.511 37.5312 108.658 37.2034C109.641 36.7117 108.822 36.3839 106.527 36.3839C104.233 36.3839 103.414 36.7117 104.561 37.2034Z" fill="black"/>
<path d="M73.0939 52.7728C73.5856 53.5922 74.7328 53.7561 75.5522 53.2645C77.6828 51.7895 77.355 51.2978 74.5689 51.2978C73.2578 51.2978 72.6022 51.9533 73.0939 52.7728Z" fill="black"/>
</svg>
