<svg width="445" height="179" viewBox="0 0 445 179" fill="none" xmlns="http://www.w3.org/2000/svg">
<mask id="mask0_63_21" style="mask-type:luminance" maskUnits="userSpaceOnUse" x="0" y="0" width="445" height="179">
<path d="M444.44 0H0V178.17H444.44V0Z" fill="white"/>
</mask>
<g mask="url(#mask0_63_21)">
<path d="M26.57 0.710147C27.05 -0.389853 36.11 -0.0198412 40.51 0.550159C87.66 6.66016 134.79 12.9701 181.92 19.2101L386.51 46.3001C412.13 49.6901 429.89 66.3001 427.51 85.0101C423.75 114.51 419.78 144.01 415.86 173.48C415.22 178.31 414.58 178.66 408.14 177.81L167.34 145.9C161.18 145.08 160.6 144.53 161.2 139.97C164.8 112.62 168.36 85.2701 172.13 57.9701C172.55 54.9701 171.64 53.4901 167.81 51.8801C148.35 43.6901 128.26 40.1301 107.18 43.0501C97.4308 44.3238 87.5487 44.1824 77.84 42.6301C63.38 40.4501 48.84 38.7401 34.35 36.7801C24.21 35.4201 19.27 30.6501 20.18 23.1801C20.76 18.4901 21.05 13.7401 22.18 9.18015C22.78 6.42015 24.8 3.97015 26.57 0.710147Z" fill="#C42727"/>
<path d="M177.699 15.6346L173.971 15.1406L168.273 58.1346L172 58.6286L177.699 15.6346Z" fill="white"/>
<path d="M19.7 63.1702V123.79H31.7V138.96H0V63.1702H19.7Z" fill="#C42727"/>
<path d="M56.17 63.1702V138.96H36.46V63.1702H56.17Z" fill="#C42727"/>
<path d="M110.94 63.1702L100.94 138.96H70.9701L59.5901 63.1702H80.3401C82.7468 84.0502 84.4701 101.717 85.5101 116.17C86.5301 101.57 87.6101 88.6069 88.7501 77.2803L90.1201 63.1803L110.94 63.1702Z" fill="#C42727"/>
<path d="M114.26 63.1702H147.12V78.3403H133.97V92.7103H146.28V107.13H133.97V123.79H148.43V138.96H114.26V63.1702Z" fill="#C42727"/>
<path d="M183.25 63.1702H216.62V78.3403H202.95V92.7103H215.12V107.13H202.95V138.96H183.25V63.1702Z" fill="white"/>
<path d="M221.4 63.1702H235.34C244.633 63.1702 250.927 63.5303 254.22 64.2503C257.515 64.9699 260.402 66.9421 262.27 69.7503C264.35 72.7036 265.39 77.4069 265.39 83.8602C265.39 89.7602 264.657 93.7236 263.19 95.7503C261.723 97.7769 258.837 98.9936 254.53 99.4003C258.43 100.373 261.05 101.67 262.39 103.29C263.548 104.575 264.406 106.102 264.9 107.76C265.22 109.12 265.39 112.85 265.39 118.97V138.97H247.09V113.77C247.09 109.723 246.773 107.213 246.14 106.24C245.507 105.267 243.84 104.783 241.14 104.79V138.96H221.44L221.4 63.1702ZM241.1 76.1702V93.0203C243.32 93.0203 244.87 92.7202 245.76 92.1102C246.65 91.5002 247.09 89.5303 247.09 86.1903V82.0203C247.09 79.6202 246.67 78.0203 245.81 77.2903C244.95 76.5603 243.34 76.1402 241.1 76.1402V76.1702Z" fill="white"/>
<path d="M273.03 63.1702H305.89V78.3403H292.73V92.7103H305.04V107.13H292.73V123.79H307.2V138.96H273.03V63.1702Z" fill="white"/>
<path d="M354.62 86.1102H336.34V80.4902C336.34 77.8702 336.11 76.2002 335.64 75.4902C335.376 75.1241 335.022 74.833 334.612 74.6454C334.201 74.4578 333.749 74.3802 333.3 74.4202C332.763 74.3987 332.23 74.5219 331.757 74.777C331.283 75.0321 330.887 75.4096 330.61 75.8702C329.914 77.2274 329.599 78.7482 329.7 80.2702C329.582 82.2288 329.925 84.1877 330.7 85.9902C331.36 87.2702 333.21 88.8102 336.27 90.6202C345.037 95.8269 350.563 100.1 352.85 103.44C355.137 106.78 356.27 112.153 356.25 119.56C356.25 124.96 355.62 128.937 354.36 131.49C353.1 134.043 350.657 136.19 347.03 137.93C343.065 139.735 338.745 140.624 334.39 140.53C329.711 140.665 325.072 139.634 320.89 137.53C317.157 135.53 314.713 132.987 313.56 129.9C312.407 126.813 311.83 122.43 311.83 116.75V111.75H330.13V120.97C330.13 123.81 330.39 125.63 330.91 126.45C331.22 126.873 331.635 127.206 332.114 127.419C332.593 127.631 333.119 127.714 333.64 127.66C334.222 127.695 334.803 127.57 335.32 127.298C335.836 127.027 336.268 126.619 336.57 126.12C337.312 124.709 337.658 123.122 337.57 121.53C337.57 117.07 336.96 114.153 335.74 112.78C334.52 111.407 331.447 109.113 326.52 105.9C323.123 103.762 319.873 101.4 316.79 98.8302C315.024 97.12 313.658 95.0403 312.79 92.7402C311.647 89.5617 311.115 86.1962 311.22 82.8202C311.22 77.0202 311.963 72.7769 313.45 70.0902C315.089 67.2611 317.612 65.0479 320.63 63.7902C324.421 62.1817 328.514 61.4075 332.63 61.5202C337.121 61.3988 341.585 62.2446 345.72 64.0002C349.32 65.6602 351.707 67.7435 352.88 70.2502C354.053 72.7569 354.64 77.0235 354.64 83.0502L354.62 86.1102Z" fill="white"/>
<path d="M407.74 63.1702V138.96H388.04V107.13H382.14V138.96H362.43V63.1702H382.14V90.2803H388.04V63.1702H407.74Z" fill="white"/>
<path d="M46.32 29.1802C51.76 29.1802 56.17 25.106 56.17 20.0802C56.17 15.0544 51.76 10.9802 46.32 10.9802C40.88 10.9802 36.47 15.0544 36.47 20.0802C36.47 25.106 40.88 29.1802 46.32 29.1802Z" fill="white"/>
<path d="M444.44 56.2202C444.407 58.0976 443.819 59.9232 442.75 61.4672C441.682 63.0113 440.18 64.2048 438.435 64.8979C436.69 65.591 434.779 65.7525 432.942 65.3621C431.106 64.9717 429.425 64.0469 428.113 62.704C426.801 61.3611 425.915 59.6601 425.567 57.815C425.219 55.9698 425.424 54.063 426.157 52.3342C426.89 50.6054 428.117 49.132 429.686 48.0993C431.254 47.0666 433.092 46.5207 434.97 46.5302C436.23 46.5393 437.475 46.7978 438.634 47.2907C439.793 47.7836 440.844 48.5012 441.724 49.4021C442.604 50.303 443.298 51.3693 443.764 52.5395C444.23 53.7098 444.46 54.9607 444.44 56.2202ZM426.98 56.3202C426.941 57.3983 427.119 58.4732 427.503 59.4813C427.887 60.4895 428.469 61.4105 429.214 62.1899C429.96 62.9693 430.855 63.5913 431.845 64.019C432.835 64.4467 433.901 64.6716 434.98 64.6802C439.42 64.6802 442.88 61.0002 442.88 56.2202C442.921 55.1479 442.749 54.0779 442.373 53.0728C441.997 52.0677 441.425 51.1475 440.689 50.3657C439.954 49.584 439.071 48.9563 438.09 48.5193C437.11 48.0823 436.053 47.8446 434.98 47.8202C430.44 47.8202 426.98 51.5602 426.98 56.3202ZM438.81 52.6402C437.864 52.1619 436.82 51.9119 435.76 51.9102C435.168 51.8581 434.572 51.9364 434.014 52.1397C433.456 52.343 432.949 52.6664 432.529 53.0869C432.11 53.5075 431.788 54.015 431.586 54.5737C431.384 55.1324 431.307 55.7286 431.36 56.3202C431.322 56.9119 431.41 57.5049 431.619 58.0597C431.829 58.6145 432.154 59.1183 432.573 59.5375C432.992 59.9568 433.496 60.2818 434.051 60.4909C434.605 60.7 435.198 60.7884 435.79 60.7502C436.905 60.7732 438.005 60.4896 438.97 59.9302L439.34 61.1302C438.174 61.8218 436.835 62.1686 435.48 62.1302C434.717 62.1762 433.952 62.0606 433.237 61.7912C432.521 61.5219 431.87 61.1046 431.327 60.5668C430.783 60.0289 430.359 59.3826 430.083 58.6698C429.806 57.9571 429.682 57.1939 429.72 56.4302C429.713 55.6472 429.864 54.8709 430.165 54.148C430.466 53.4251 430.91 52.7706 431.471 52.224C432.032 51.6773 432.697 51.2499 433.427 50.9674C434.158 50.6849 434.938 50.5532 435.72 50.5802C436.932 50.5195 438.135 50.815 439.18 51.4302L438.81 52.6402Z" fill="#C42727"/>
</g>
</svg>
