<svg width="271" height="110" viewBox="0 0 271 110" fill="none" xmlns="http://www.w3.org/2000/svg">
<path d="M16.6996 1.3109C16.9912 0.642644 22.4952 0.867428 25.1682 1.21371C53.812 4.92556 82.4437 8.75889 111.075 12.5497L235.365 29.007C250.929 31.0665 261.718 41.1571 260.272 52.5235C257.988 70.4449 255.576 88.3663 253.195 106.269C252.806 109.204 252.417 109.416 248.505 108.9L102.218 89.5145C98.4757 89.0163 98.1234 88.6822 98.4879 85.9119C100.675 69.2967 102.838 52.6815 105.128 36.0966C105.383 34.2741 104.83 33.375 102.503 32.3969C90.6815 27.4214 78.4767 25.2587 65.6705 27.0326C59.7478 27.8064 53.7444 27.7205 47.8463 26.7775C39.0618 25.4531 30.2287 24.4143 21.426 23.2236C15.2659 22.3974 12.2648 19.4996 12.8176 14.9615C13.17 12.1123 13.3461 9.22667 14.0326 6.45646C14.3971 4.77975 15.6243 3.29137 16.6996 1.3109Z" fill="#C42727"/>
<path d="M108.511 10.3775L106.246 10.0774L102.785 36.1964L105.049 36.4965L108.511 10.3775Z" fill="white"/>
<path d="M12.5259 39.2556V76.0825H19.816V85.2984H0.558105V39.2556H12.5259Z" fill="#C42727"/>
<path d="M34.6814 39.2556V85.2984H22.7075V39.2556H34.6814Z" fill="#C42727"/>
<path d="M67.9546 39.2556L61.8795 85.2984H43.6727L36.7593 39.2556H49.365C50.8271 51.9403 51.874 62.6731 52.5058 71.4534C53.1254 62.5838 53.7816 54.7085 54.4741 47.8276L55.3064 39.2618L67.9546 39.2556Z" fill="#C42727"/>
<path d="M69.9717 39.2556H89.9343V48.4715H81.9456V57.2014H89.424V65.9615H81.9456V76.0825H90.7301V85.2984H69.9717V39.2556Z" fill="#C42727"/>
<path d="M111.883 39.2556H132.156V48.4715H123.851V57.2014H131.244V65.9615H123.851V85.2984H111.883V39.2556Z" fill="white"/>
<path d="M135.06 39.2556H143.528C149.174 39.2556 152.997 39.4744 154.998 39.9118C157 40.3489 158.753 41.5471 159.888 43.2531C161.152 45.0472 161.784 47.9045 161.784 51.8249C161.784 55.4092 161.338 57.8169 160.447 59.0482C159.556 60.2793 157.803 61.0185 155.186 61.2656C157.555 61.8566 159.147 62.6445 159.961 63.6287C160.665 64.4093 161.186 65.337 161.486 66.3442C161.68 67.1704 161.784 69.4364 161.784 73.1544V85.3045H150.666V69.9953C150.666 67.5368 150.474 66.0119 150.089 65.4208C149.705 64.8297 148.692 64.5357 147.052 64.54V85.2984H135.084L135.06 39.2556ZM147.027 47.1532V57.3897C148.376 57.3897 149.318 57.2074 149.858 56.8368C150.399 56.4662 150.666 55.2695 150.666 53.2404V50.7071C150.666 49.2491 150.411 48.2771 149.889 47.8336C149.366 47.3902 148.388 47.1349 147.027 47.1349V47.1532Z" fill="white"/>
<path d="M166.425 39.2556H186.387V48.4715H178.393V57.2014H185.871V65.9615H178.393V76.0825H187.183V85.2984H166.425V39.2556Z" fill="white"/>
<path d="M215.991 53.1918H204.886V49.7776C204.886 48.186 204.746 47.1715 204.461 46.7401C204.3 46.5177 204.085 46.3409 203.836 46.2269C203.587 46.1129 203.312 46.0658 203.039 46.0901C202.713 46.077 202.389 46.1519 202.102 46.3069C201.814 46.4618 201.573 46.6912 201.405 46.971C200.982 47.7955 200.791 48.7194 200.852 49.644C200.781 50.8339 200.989 52.0239 201.46 53.1189C201.861 53.8965 202.985 54.8321 204.844 55.9317C210.17 59.0948 213.527 61.6908 214.916 63.7199C216.305 65.7489 216.994 69.0131 216.981 73.5128C216.981 76.7934 216.599 79.2094 215.833 80.7604C215.068 82.3113 213.584 83.6156 211.38 84.6727C208.972 85.7692 206.347 86.3093 203.701 86.2522C200.859 86.3342 198.041 85.7079 195.5 84.4297C193.232 83.2147 191.748 81.6698 191.047 79.7944C190.347 77.9191 189.996 75.2564 189.996 71.8058V68.7682H201.113V74.3694C201.113 76.0947 201.271 77.2004 201.587 77.6986C201.776 77.9555 202.028 78.1578 202.319 78.2872C202.61 78.416 202.929 78.4664 203.246 78.4336C203.599 78.4549 203.952 78.379 204.266 78.2137C204.58 78.0491 204.842 77.8012 205.026 77.4981C205.477 76.6409 205.687 75.6768 205.633 74.7096C205.633 72.0002 205.263 70.2281 204.522 69.394C203.78 68.5599 201.914 67.1663 198.92 65.2143C196.857 63.9155 194.882 62.4806 193.009 60.9193C191.937 59.8803 191.107 58.6169 190.579 57.2196C189.885 55.2886 189.562 53.2441 189.626 51.1931C189.626 47.6696 190.077 45.0918 190.98 43.4596C191.976 41.7409 193.509 40.3964 195.342 39.6323C197.645 38.6552 200.132 38.1848 202.632 38.2533C205.361 38.1795 208.072 38.6934 210.584 39.7599C212.771 40.7684 214.222 42.034 214.934 43.5568C215.647 45.0796 216.003 47.6716 216.003 51.3329L215.991 53.1918Z" fill="white"/>
<path d="M248.262 39.2556V85.2984H236.294V65.9615H232.71V85.2984H220.736V39.2556H232.71V55.7251H236.294V39.2556H248.262Z" fill="white"/>
<path d="M28.6978 18.6066C32.0026 18.6066 34.6817 16.1315 34.6817 13.0783C34.6817 10.0251 32.0026 7.55005 28.6978 7.55005C25.393 7.55005 22.7139 10.0251 22.7139 13.0783C22.7139 16.1315 25.393 18.6066 28.6978 18.6066Z" fill="white"/>
<path d="M270.557 35.0335C270.537 36.1741 270.18 37.2831 269.531 38.2211C268.882 39.1591 267.969 39.8843 266.909 40.3053C265.849 40.7263 264.688 40.8244 263.572 40.5873C262.457 40.3501 261.436 39.7883 260.639 38.9725C259.842 38.1566 259.303 37.1233 259.092 36.0024C258.881 34.8814 259.005 33.723 259.45 32.6728C259.896 31.6225 260.641 30.7274 261.594 30.1C262.547 29.4727 263.663 29.141 264.804 29.1468C265.57 29.1523 266.326 29.3094 267.03 29.6088C267.734 29.9082 268.373 30.3442 268.907 30.8915C269.442 31.4388 269.864 32.0866 270.147 32.7975C270.43 33.5084 270.57 34.2684 270.557 35.0335ZM259.95 35.0943C259.927 35.7492 260.035 36.4022 260.268 37.0147C260.501 37.6271 260.855 38.1867 261.308 38.6601C261.761 39.1336 262.304 39.5115 262.906 39.7713C263.507 40.0312 264.155 40.1678 264.81 40.173C267.508 40.173 269.61 37.9374 269.61 35.0335C269.635 34.3821 269.53 33.7321 269.302 33.1215C269.073 32.5109 268.726 31.9518 268.279 31.4769C267.832 31.002 267.296 30.6207 266.7 30.3552C266.104 30.0897 265.462 29.9453 264.81 29.9305C262.052 29.9305 259.95 32.2026 259.95 35.0943ZM267.137 32.8587C266.562 32.5681 265.928 32.4162 265.284 32.4152C264.925 32.3835 264.563 32.4311 264.224 32.5546C263.885 32.6781 263.577 32.8746 263.321 33.13C263.067 33.3855 262.871 33.6939 262.749 34.0333C262.626 34.3727 262.579 34.7349 262.611 35.0943C262.588 35.4537 262.642 35.814 262.769 36.151C262.896 36.4881 263.094 36.7941 263.348 37.0488C263.603 37.3035 263.909 37.501 264.246 37.628C264.583 37.755 264.943 37.8087 265.302 37.7855C265.98 37.7995 266.648 37.6272 267.234 37.2874L267.459 38.0164C266.751 38.4365 265.937 38.6472 265.114 38.6239C264.651 38.6518 264.186 38.5816 263.752 38.4179C263.317 38.2543 262.921 38.0008 262.591 37.6741C262.261 37.3473 262.003 36.9547 261.835 36.5217C261.667 36.0887 261.592 35.625 261.615 35.1611C261.611 34.6854 261.702 34.2138 261.885 33.7747C262.068 33.3355 262.338 32.9379 262.679 32.6058C263.019 32.2737 263.423 32.014 263.867 31.8424C264.311 31.6708 264.785 31.5908 265.26 31.6072C265.996 31.5703 266.727 31.7498 267.362 32.1236L267.137 32.8587Z" fill="#C42727"/>
</svg>
