<svg width="153" height="61" viewBox="0 0 153 61" fill="none" xmlns="http://www.w3.org/2000/svg">
<path d="M9.09779 0.237488C9.26195 -0.138714 12.3605 -0.0121695 13.8653 0.182772C29.9907 2.27241 46.1093 4.43043 62.2279 6.56453L132.198 15.8294C140.96 16.9888 147.034 22.6694 146.22 29.0683C144.934 39.1574 143.577 49.2464 142.236 59.3253C142.017 60.9771 141.798 61.0968 139.596 60.8061L57.2415 49.8928C55.1348 49.6124 54.9364 49.4243 55.1416 47.8648C56.3728 38.511 57.5904 29.1572 58.8797 19.8205C59.0233 18.7945 58.7121 18.2884 57.4022 17.7378C50.7469 14.9367 43.876 13.7192 36.6666 14.7179C33.3324 15.1535 29.9527 15.1051 26.6323 14.5742C21.6869 13.8287 16.7142 13.2438 11.7586 12.5735C8.29066 12.1084 6.60117 10.477 6.91239 7.92228C7.11075 6.31828 7.20993 4.69377 7.5964 3.13425C7.8016 2.19032 8.49244 1.35242 9.09779 0.237488Z" fill="#474747"/>
<path d="M60.7843 5.3418L59.5093 5.17285L57.5605 19.8769L58.8352 20.0459L60.7843 5.3418Z" fill="white"/>
<path d="M6.75161 21.5986V42.3308H10.8556V47.519H0.0141602V21.5986H6.75161Z" fill="#474747"/>
<path d="M19.2204 21.5986V47.519H12.4795V21.5986H19.2204Z" fill="#474747"/>
<path d="M37.9598 21.5986L34.5397 47.519H24.2899L20.3979 21.5986H27.4945C28.3176 28.7396 28.907 34.7818 29.2627 39.7248C29.6115 34.7315 29.9809 30.298 30.3707 26.4243L30.8393 21.6021L37.9598 21.5986Z" fill="#474747"/>
<path d="M39.0942 21.5986H50.3324V26.7868H45.8351V31.7014H50.0452V36.6331H45.8351V42.3308H50.7805V47.519H39.0942V21.5986Z" fill="#474747"/>
<path d="M62.6797 21.6006H74.0923V26.7888H69.4171V31.7034H73.5793V36.635H69.4171V47.521H62.6797V21.6006Z" fill="white"/>
<path d="M75.7339 21.5986H80.5014C83.6796 21.5986 85.8322 21.7218 86.9584 21.968C88.0853 22.2141 89.0727 22.8886 89.7115 23.849C90.4229 24.8591 90.7786 26.4676 90.7786 28.6747C90.7786 30.6925 90.5279 32.048 90.0262 32.7411C89.5245 33.4342 88.5374 33.8503 87.0644 33.9894C88.3982 34.3222 89.2943 34.7657 89.7526 35.3198C90.1486 35.7592 90.4421 36.2815 90.611 36.8485C90.7204 37.3137 90.7786 38.5893 90.7786 40.6824V47.5224H84.5199V38.904C84.5199 37.5199 84.4115 36.6615 84.195 36.3287C83.9785 35.9959 83.4084 35.8304 82.485 35.8328V47.519H75.7476L75.7339 21.5986ZM82.4713 26.0447V31.8074C83.2306 31.8074 83.7607 31.7048 84.0651 31.4962C84.3695 31.2876 84.5199 30.6139 84.5199 29.4716V28.0454C84.5199 27.2246 84.3763 26.6774 84.0822 26.4277C83.7881 26.1781 83.2374 26.0344 82.4713 26.0344V26.0447Z" fill="white"/>
<path d="M93.3926 21.5986H104.631V26.7868H100.13V31.7014H104.34V36.6331H100.13V42.3308H105.079V47.519H93.3926V21.5986Z" fill="white"/>
<path d="M121.291 29.444H115.039V27.522C115.039 26.6259 114.96 26.0548 114.8 25.812C114.709 25.6868 114.588 25.5872 114.448 25.523C114.307 25.4589 114.153 25.4323 113.999 25.446C113.816 25.4387 113.633 25.4808 113.472 25.568C113.309 25.6553 113.174 25.7844 113.079 25.9419C112.841 26.4061 112.733 26.9262 112.768 27.4467C112.728 28.1166 112.845 28.7865 113.11 29.403C113.336 29.8408 113.968 30.3674 115.015 30.9865C118.013 32.7672 119.903 34.2286 120.685 35.3709C121.468 36.5132 121.855 38.3508 121.848 40.884C121.848 42.7308 121.633 44.091 121.202 44.9641C120.771 45.8372 119.935 46.5715 118.695 47.1666C117.339 47.7839 115.861 48.088 114.372 48.0558C112.772 48.102 111.185 47.7494 109.755 47.0298C108.478 46.3458 107.642 45.4761 107.248 44.4203C106.854 43.3646 106.656 41.8656 106.656 39.923V38.213H112.915V41.3662C112.915 42.3375 113.004 42.96 113.182 43.2404C113.288 43.3851 113.43 43.499 113.594 43.5718C113.757 43.6443 113.937 43.6727 114.116 43.6542C114.315 43.6662 114.513 43.6235 114.69 43.5304C114.867 43.4378 115.014 43.2982 115.118 43.1276C115.371 42.645 115.49 42.1022 115.46 41.5578C115.46 40.0324 115.251 39.0348 114.834 38.5652C114.416 38.0957 113.365 37.3111 111.68 36.2123C110.519 35.4811 109.407 34.6733 108.353 33.7943C107.749 33.2094 107.282 32.4981 106.985 31.7115C106.594 30.6245 106.412 29.4734 106.448 28.3188C106.448 26.3352 106.702 24.884 107.21 23.9651C107.771 22.9976 108.634 22.2407 109.666 21.8105C110.963 21.2604 112.362 20.9956 113.77 21.0342C115.306 20.9927 116.833 21.2819 118.247 21.8824C119.478 22.4501 120.294 23.1626 120.696 24.0199C121.097 24.8772 121.298 26.3364 121.298 28.3975L121.291 29.444Z" fill="white"/>
<path d="M139.46 21.6006V47.521H132.723V36.635H130.705V47.521H123.964V21.6006H130.705V30.8723H132.723V21.6006H139.46Z" fill="white"/>
<path d="M15.8585 9.97445C17.719 9.97445 19.2272 8.58106 19.2272 6.86222C19.2272 5.14339 17.719 3.75 15.8585 3.75C13.998 3.75 12.4897 5.14339 12.4897 6.86222C12.4897 8.58106 13.998 9.97445 15.8585 9.97445Z" fill="white"/>
<path d="M152.014 19.2213C152.003 19.8634 151.802 20.4877 151.436 21.0158C151.071 21.5438 150.557 21.9521 149.96 22.1891C149.363 22.4261 148.71 22.4813 148.082 22.3478C147.454 22.2143 146.879 21.898 146.43 21.4388C145.981 20.9795 145.678 20.3977 145.559 19.7667C145.44 19.1356 145.51 18.4835 145.761 17.8923C146.012 17.301 146.431 16.7971 146.968 16.4439C147.504 16.0907 148.133 15.904 148.775 15.9073C149.206 15.9104 149.632 15.9988 150.028 16.1674C150.425 16.3359 150.784 16.5814 151.085 16.8895C151.386 17.1976 151.623 17.5623 151.783 17.9625C151.942 18.3627 152.021 18.7905 152.014 19.2213ZM146.043 19.2555C146.029 19.6242 146.09 19.9918 146.221 20.3366C146.353 20.6814 146.552 20.9964 146.807 21.2629C147.062 21.5295 147.368 21.7422 147.706 21.8885C148.045 22.0348 148.41 22.1117 148.779 22.1146C150.297 22.1146 151.48 20.856 151.48 19.2213C151.494 18.8545 151.436 18.4886 151.307 18.1449C151.178 17.8011 150.983 17.4864 150.731 17.219C150.48 16.9517 150.178 16.737 149.842 16.5875C149.507 16.4381 149.146 16.3568 148.779 16.3485C147.226 16.3485 146.043 17.6275 146.043 19.2555ZM150.089 17.9969C149.765 17.8333 149.408 17.7478 149.045 17.7472C148.843 17.7294 148.639 17.7562 148.448 17.8257C148.257 17.8953 148.084 18.0059 147.94 18.1497C147.797 18.2935 147.687 18.4671 147.618 18.6582C147.549 18.8492 147.522 19.0531 147.541 19.2555C147.528 19.4578 147.558 19.6606 147.629 19.8504C147.701 20.0401 147.812 20.2124 147.955 20.3558C148.099 20.4992 148.271 20.6104 148.461 20.6819C148.65 20.7534 148.853 20.7836 149.056 20.7705C149.437 20.7784 149.813 20.6814 150.143 20.4901L150.27 20.9005C149.871 21.137 149.413 21.2556 148.95 21.2425C148.689 21.2582 148.427 21.2187 148.183 21.1266C147.938 21.0345 147.715 20.8918 147.529 20.7078C147.343 20.5239 147.198 20.3028 147.104 20.059C147.009 19.8153 146.967 19.5543 146.98 19.2931C146.977 19.0253 147.029 18.7598 147.132 18.5126C147.235 18.2653 147.387 18.0415 147.579 17.8546C147.77 17.6676 147.998 17.5214 148.248 17.4248C148.498 17.3282 148.764 17.2831 149.032 17.2924C149.446 17.2716 149.858 17.3727 150.215 17.5831L150.089 17.9969Z" fill="#474747"/>
</svg>
