<svg width="104" height="104" viewBox="0 0 104 104" fill="none" xmlns="http://www.w3.org/2000/svg">
<path d="M60.2501 47.7815C60.4571 47.4344 60.6262 47.1529 60.7953 46.8715C60.9236 46.8905 61.0519 46.9096 61.1803 46.9286C61.1803 47.5542 61.1804 48.1798 61.1802 48.8054C61.1787 54.4545 61.176 60.1035 61.1771 65.7525C61.1772 66.3067 61.1618 66.865 61.2204 67.4143C61.3288 68.4311 61.9067 68.9799 62.9329 68.9877C66.1903 69.0123 69.4481 69.0216 72.7056 69.0014C73.8708 68.9942 74.4146 68.4163 74.4608 67.2696C74.4831 66.7159 74.4786 66.1608 74.4786 65.6064C74.4785 52.1943 74.4775 38.7822 74.476 25.3701C74.4758 23.92 73.9514 23.3256 72.4901 23.3063C69.7527 23.27 67.0142 23.3222 64.2769 23.2836C62.8455 23.2634 61.9339 23.9991 61.2721 25.1411C58.0953 30.6233 54.9339 36.1145 51.7612 41.5992C51.5432 41.976 51.2777 42.3254 50.9049 42.8802C50.3279 41.9405 49.8342 41.174 49.3775 40.3862C46.425 35.294 43.4861 30.1939 40.5294 25.1041C39.8613 23.9541 38.9164 23.2756 37.4951 23.297C34.9313 23.3357 32.3662 23.2848 29.8018 23.2923C27.9138 23.2978 27.3725 23.8375 27.3719 25.7155C27.3678 38.5038 27.371 51.2921 27.371 64.0804C27.371 65.0161 27.3488 65.9521 27.3646 66.8875C27.3896 68.369 27.9889 69.0053 29.4473 69.0154C32.4969 69.0365 35.5469 69.0358 38.5965 69.0102C40.1447 68.9972 40.5879 68.5497 40.5932 67.0175C40.6148 60.7102 40.6163 54.4028 40.6299 48.0954C40.6308 47.7052 40.672 47.315 40.6944 46.9249C40.7963 46.8983 40.8982 46.8718 41 46.8453C41.7442 48.1079 42.493 49.3679 43.2316 50.6338C44.3655 52.5773 45.4894 54.5268 46.6237 56.47C47.295 57.6199 48.2595 58.1929 49.6336 58.0785C50.4596 58.0098 51.3041 57.9915 52.1261 58.0813C53.6448 58.2471 54.6275 57.575 55.3464 56.3113C56.9556 53.4827 58.5888 50.6677 60.2501 47.7815Z" fill="#605757"/>
<path d="M35.1885 72.6387C35.1503 72.6692 35.1307 72.7134 35.1111 72.7575C35.1431 72.7224 35.175 72.6874 35.1885 72.6387Z" fill="#480F3C"/>
<path d="M26.2803 76.875C26.2774 76.8423 26.2159 76.7839 26.0949 76.7021C26.0974 76.7357 26.1596 76.7925 26.2803 76.875Z" fill="#571641"/>
</svg>
