<svg width="174" height="34" viewBox="0 0 174 34" fill="none" xmlns="http://www.w3.org/2000/svg">
<g clip-path="url(#clip0_2540_13340)">
<rect width="173.12" height="33.9815" fill="#F8F8F8"/>
<path d="M16.3097 34.0489C10.9989 34.0733 5.70768 34.0698 0.416466 34.0823C0.104694 34.083 0.0518177 34.0094 0.0524245 33.7119C0.0631592 28.4488 0.0602009 23.1857 0.0602009 17.883C0.195515 17.7306 0.32055 17.7904 0.448136 17.8627C1.09036 18.2263 1.71175 18.1758 2.269 17.7253C2.49898 17.5394 2.75303 17.3844 3.01044 17.2421C3.44406 17.0023 3.87862 17.0356 4.28565 17.3182C4.48204 17.4546 4.70316 17.5676 4.86874 17.7338C5.19104 18.0571 5.57774 18.0665 5.99462 18.0942C6.56198 18.132 6.96312 17.5148 6.95711 17.0724C6.95094 16.6187 6.53736 16.0421 6.01663 16.0709C5.58401 16.0948 5.17173 16.0943 4.85648 16.4475C4.82015 16.4882 4.76036 16.5055 4.71623 16.5407C3.61841 17.4158 3.24142 17.1399 2.25719 16.4215C1.70918 16.0215 1.05435 15.9404 0.466473 16.2905C0.353905 16.3575 0.244873 16.4147 0.0855548 16.3414C0.0602009 11.0305 0.063733 5.73927 0.0512749 0.448055C0.0505409 0.136282 0.124175 0.0834066 0.421668 0.0840133C5.68475 0.0947484 10.9479 0.0917899 16.2506 0.0917899C16.4164 0.245998 16.3387 0.383511 16.2495 0.514368C15.8854 1.04835 15.9281 1.80104 16.4185 2.33807C16.4939 2.42056 16.5622 2.51156 16.6275 2.60315C17.1574 3.34611 17.1433 3.95013 16.5554 4.67751C16.3226 4.96542 16.1198 5.25487 16.0364 5.62635C15.9422 6.04619 16.0124 6.4098 16.3354 6.69859C16.6817 7.00821 17.0861 7.09653 17.5075 6.88025C17.9103 6.67348 18.1369 6.33806 18.1344 5.86242C18.1316 5.33666 17.7939 4.97378 17.506 4.60539C16.9348 3.87449 16.9049 3.40376 17.4507 2.67758C17.6193 2.45332 17.7689 2.21424 17.9192 1.97682C18.2308 1.48462 18.2327 1.00028 17.8703 0.528921C17.7823 0.414485 17.7123 0.293394 17.7922 0.116213C69.4626 0.0917899 121.113 0.0923413 172.764 0.0810547C173.14 0.0809727 173.192 0.18111 173.189 0.521194C173.171 2.52115 173.18 4.52135 173.18 6.56108C172.935 6.7604 172.791 6.56992 172.636 6.43768C172.301 6.15093 171.595 6.09091 171.223 6.32437C170.822 6.57587 170.57 7.20333 170.69 7.65287C170.813 8.11568 171.279 8.49784 171.762 8.52793C172.076 8.54747 172.374 8.52542 172.633 8.30276C172.768 8.18613 172.932 8.08486 173.157 8.18725C173.18 16.7004 173.178 25.1941 173.187 33.6877C173.188 33.9951 173.134 34.082 172.805 34.082C121.167 34.0729 69.529 34.0733 17.8514 34.0733C17.6753 33.8965 17.7824 33.7561 17.8841 33.6191C18.2263 33.1577 18.2322 32.684 17.9283 32.2065C17.755 31.9342 17.5839 31.6597 17.3845 31.4044C16.94 30.8352 16.9409 30.2167 17.415 29.6742C17.6109 29.4499 17.7709 29.2019 17.9319 28.9587C18.3978 28.2551 18.0463 27.3855 17.2463 27.2026C16.5614 27.046 15.869 27.7049 16.0065 28.3951C16.0781 28.7546 16.2148 29.0836 16.4577 29.3777C17.2037 30.2813 17.2117 30.8443 16.4776 31.7405C15.967 32.3639 15.8293 32.9978 16.2848 33.7043C16.3476 33.8017 16.3804 33.9087 16.3097 34.0489Z" fill="#F8F8F8"/>
<path d="M17.7665 0.0810547C17.7106 0.203024 17.8435 0.239347 17.8947 0.29512C18.4094 0.85549 18.4873 1.36518 18.0931 2.0234C17.9175 2.31667 17.7468 2.61892 17.5084 2.87651C17.0755 3.34443 17.1253 3.99217 17.6068 4.41543C18.2 4.93683 18.4541 5.74614 18.2268 6.38995C18.0421 6.91294 17.2321 7.3336 16.7304 7.14631C16.0254 6.88312 15.7105 6.35028 15.8335 5.60418C15.9367 4.97816 16.4427 4.64611 16.6787 4.12993C16.9324 3.57509 16.811 2.98441 16.2777 2.41247C15.6364 1.72474 15.6327 0.900679 16.2668 0.225557C16.2954 0.19508 16.3162 0.157209 16.3126 0.101919C16.7653 0.0810547 17.2461 0.0810547 17.7665 0.0810547Z" fill="#474747"/>
<path d="M16.3225 34.0655C16.143 33.7197 15.8379 33.4553 15.8122 33.05C15.7824 32.5797 15.8574 32.1331 16.1882 31.7936C16.5181 31.4551 16.7569 31.0616 16.8475 30.6229C16.9253 30.246 16.6563 29.9054 16.4279 29.6217C16.1679 29.2989 15.9436 28.9877 15.8453 28.5691C15.7152 28.0146 15.8771 27.5016 16.3698 27.1781C16.7646 26.9189 17.2763 26.8198 17.821 27.2778C18.4422 27.7999 18.4746 28.5852 17.9821 29.2165C17.7444 29.5211 17.4571 29.8002 17.299 30.1677C17.1398 30.5375 17.1953 30.8871 17.4324 31.1877C17.5791 31.3738 17.7107 31.5637 17.8417 31.7607C18.5341 32.8018 18.5303 33.0853 17.7767 34.0449C17.3237 34.0655 16.8429 34.0655 16.3225 34.0655Z" fill="#474747"/>
<path d="M0.0512695 16.3467C0.0889232 16.3875 0.143573 16.3536 0.171708 16.3108C0.448994 15.8882 0.858847 15.8684 1.31362 15.8732C1.75601 15.8778 2.10952 15.9613 2.41358 16.3203C2.58913 16.5276 2.87271 16.6526 3.1233 16.785C3.48774 16.9776 3.85235 16.933 4.18211 16.6931C4.46227 16.4893 4.72977 16.2679 5.00053 16.0514C5.30154 15.8107 6.4543 15.7936 6.67246 16.0502C7.17988 16.6471 7.36345 17.1862 6.85384 17.8279C6.41291 18.3831 5.42009 18.4336 4.86607 17.9596C4.62554 17.7537 4.34887 17.5906 4.09348 17.4016C3.77351 17.1647 3.39908 17.1592 3.12035 17.3698C2.85349 17.5714 2.53028 17.6764 2.29629 17.9489C1.90627 18.4032 0.740462 18.3802 0.312722 17.9631C0.242776 17.8949 0.165161 17.8345 0.0711798 17.7996C0.0512695 17.3479 0.0512695 16.8671 0.0512695 16.3467Z" fill="#474747"/>
<path d="M173.175 8.1589C172.96 8.12424 172.855 8.33854 172.764 8.42539C172.08 9.07538 170.809 8.61288 170.524 7.80202C170.276 7.09565 170.883 5.95898 171.725 5.96684C172.367 5.97284 172.754 6.2369 173.155 6.62011C173.175 7.10137 173.175 7.61035 173.175 8.1589Z" fill="#474747"/>
<path d="M134.38 22.9039C134.379 22.27 134.379 21.6783 134.377 21.0866C134.377 21.0622 134.362 21.0379 134.331 20.942C132.892 23.6393 130.67 25.1276 127.664 25.2536C124.654 25.3797 122.322 24.065 120.625 21.5559C120.17 22.265 119.67 22.9314 118.997 23.4561C118.195 24.0827 117.357 24.6284 116.36 24.9036C115.43 25.1602 114.494 25.3237 113.525 25.2744C113.12 25.2538 112.722 25.1902 112.332 25.098C111.001 24.784 109.793 24.2443 108.763 23.3025C108.23 22.8144 107.759 22.3004 107.422 21.6664C107.293 21.4224 107.212 21.6139 107.171 21.6982C106.767 22.5192 106.135 23.1741 105.429 23.6944C104.364 24.4795 103.147 24.9825 101.814 25.1955C100.457 25.4123 99.1358 25.2386 97.878 24.7903C96.7758 24.3975 95.7783 23.7612 94.9805 22.8609C94.67 22.5105 94.5919 22.5568 94.394 23.0007C93.9975 23.8906 93.3052 24.4494 92.4295 24.8808C91.6181 25.2805 90.7946 25.2723 89.9469 25.2715C87.8478 25.2697 85.7486 25.2716 83.6495 25.2704C83.1023 25.27 82.6488 24.7913 82.6468 24.2188C82.6449 23.6692 83.1188 23.1593 83.6452 23.1587C85.8712 23.1562 88.0971 23.1633 90.3231 23.155C91.2589 23.1515 92.0569 22.8446 92.5014 21.9586C92.6934 21.5757 92.8155 21.1815 92.7331 20.7027C92.6328 20.1191 92.3847 19.6685 91.9437 19.3195C91.4432 18.9234 90.8765 18.7339 90.2144 18.7518C88.9333 18.7866 87.6501 18.7402 86.3689 18.7726C85.8549 18.7856 85.4261 18.5844 84.9793 18.4099C84.3102 18.1485 83.785 17.6687 83.3369 17.1395C82.9052 16.6296 82.6238 16.009 82.4808 15.3421C82.2773 14.3936 82.3297 13.4354 82.6863 12.557C83.0643 11.6257 83.6847 10.8516 84.6053 10.3249C85.4512 9.84097 86.352 9.73118 87.2803 9.72261C89.2103 9.70478 91.1405 9.72211 93.0705 9.71136C93.3269 9.70993 93.5775 9.74556 93.8083 9.81872C94.1583 9.92964 94.3703 10.1755 94.4035 10.5838C94.4734 11.4441 94.2342 11.8396 93.1713 11.8337C91.1708 11.8224 89.1702 11.8339 87.1697 11.8291C86.0376 11.8264 84.9011 12.589 84.5847 13.7148C84.3349 14.6035 84.645 15.2975 85.2569 15.9488C85.8377 16.5669 86.5338 16.6613 87.305 16.6522C88.4319 16.639 89.5604 16.6148 90.6857 16.6605C91.4634 16.6921 92.2224 16.8819 92.9549 17.3228C92.9024 16.7512 93.1062 16.2277 93.1298 15.6781C93.148 15.2511 93.3876 14.8969 93.5381 14.5151C93.7697 13.9273 94.084 13.3843 94.4688 12.8783C95.0936 12.0567 95.8568 11.419 96.7454 10.8852C97.4801 10.4439 98.2539 10.1487 99.0712 9.97434C99.9268 9.79181 100.795 9.79333 101.68 9.85282C102.527 9.9098 103.292 10.167 104.01 10.5269C105.306 11.1771 106.424 12.07 107.161 13.3627C107.27 13.5527 107.379 13.5777 107.491 13.377C108.089 12.2979 108.994 11.5598 110.034 10.9172C110.797 10.4457 111.603 10.1418 112.455 9.96615C113.296 9.79253 114.154 9.80125 115.025 9.84808C115.805 9.89002 116.471 10.1978 117.166 10.4324C117.65 10.5956 118.086 10.9294 118.51 11.2327C118.909 11.5181 119.326 11.8162 119.626 12.1948C119.978 12.6384 120.437 13.0134 120.615 13.6071C122.44 10.7838 125.306 9.52322 128.182 9.82521C131.404 10.1636 133.469 12.0814 134.707 14.9951C134.829 14.8995 134.854 14.7354 134.907 14.579C135.203 13.7134 135.708 12.9582 136.29 12.2751C136.789 11.6893 137.415 11.2243 138.078 10.8095C138.706 10.417 139.387 10.0853 140.075 9.94842C140.973 9.76966 141.904 9.59904 142.853 9.76701C143.558 9.89174 144.268 9.94386 144.945 10.2221C146.03 10.6684 147.011 11.2933 147.79 12.1441C148.295 12.6965 148.815 13.3008 149.027 14.0737C149.089 14.2979 149.268 14.4656 149.353 14.6924C149.688 15.5841 149.831 16.5113 149.841 17.4501C149.866 19.6898 149.846 21.9301 149.85 24.1701C149.852 25.0295 149.087 25.5542 148.373 25.2718C148.022 25.133 147.736 24.7427 147.736 24.377C147.736 22.0947 147.742 19.8123 147.733 17.5301C147.729 16.383 147.344 15.3657 146.736 14.3905C146.376 13.814 145.917 13.3558 145.412 12.9574C144.711 12.404 143.864 12.1125 142.99 11.9125C141.911 11.6656 140.873 11.912 139.906 12.3071C139.187 12.6005 138.517 13.0628 138.002 13.7025C137.753 14.0112 137.518 14.3172 137.306 14.6557C136.746 15.5524 136.503 16.5276 136.497 17.5651C136.484 19.7769 136.493 21.9888 136.493 24.2007C136.493 24.7505 136.233 25.1418 135.725 25.3116C135.271 25.4635 134.912 25.267 134.605 24.9452C134.409 24.7401 134.395 24.4709 134.384 24.2138C134.368 23.7918 134.38 23.3688 134.38 22.9039Z" fill="#474747"/>
<path d="M52.9182 17.1179C52.9415 16.0067 52.4931 15.1194 51.9102 14.2463C51.3226 13.3661 50.5382 12.7393 49.6074 12.3354C48.59 11.8939 47.5181 11.6817 46.3757 11.9405C44.7954 12.2986 43.5599 13.1398 42.6668 14.4579C42.1502 15.2203 41.8354 16.1014 41.8252 17.0343C41.7999 19.3584 41.8172 21.683 41.8163 24.0073C41.8162 24.3587 41.7544 24.6765 41.5084 24.9662C41.1237 25.4195 40.5091 25.4613 40.0493 25.0807C39.7726 24.8517 39.6946 24.6118 39.6965 24.2687C39.7098 21.8176 39.7216 19.3662 39.6922 16.9154C39.6838 16.2161 39.8467 15.5729 40.0523 14.9247C40.3014 14.1393 40.7031 13.4316 41.1833 12.7707C41.6922 12.07 42.3359 11.5001 43.0408 11.003C43.685 10.5488 44.3953 10.1944 45.1533 10.0123C46.289 9.73942 47.4421 9.63106 48.623 9.80929C49.5242 9.9453 50.3543 10.2398 51.1434 10.6594C52.1025 11.1694 52.9029 11.8932 53.5698 12.7396C54.0552 13.3556 54.3753 14.0848 54.7071 14.7963C54.773 14.9376 54.7579 15.1168 54.7941 15.3804C56.0208 12.0439 58.3096 10.1092 61.7802 9.82512C65.3488 9.53301 67.7516 11.3574 69.4592 14.4853C69.4592 14.245 69.4592 14.1052 69.4592 13.9654C69.4591 11.1903 69.4784 8.41488 69.4454 5.64012C69.437 4.93308 70.039 4.57446 70.5645 4.58014C71.1735 4.58674 71.6002 5.1189 71.5841 5.63113C71.5461 6.84142 71.5821 8.05386 71.5647 9.26509C71.5604 9.5639 71.6447 9.63902 71.9395 9.63726C74.0666 9.62451 76.1938 9.63513 78.3209 9.62591C78.6815 9.62435 79.0014 9.7359 79.314 9.88138C79.6092 10.0187 79.7814 10.6887 79.6379 11.0694C79.44 11.5945 79.2261 11.7425 78.6385 11.743C76.4269 11.7446 74.2152 11.752 72.0036 11.7351C71.6544 11.7324 71.559 11.8165 71.563 12.1717C71.5827 13.9323 71.5398 15.6941 71.5825 17.454C71.6141 18.7569 71.9665 19.9575 72.8239 21.0101C73.5704 21.9266 74.4689 22.5791 75.5815 22.8987C76.4585 23.1506 77.3525 23.2093 78.2875 23.0359C79.276 22.8525 80.0502 22.3411 80.8356 21.7972C81.0225 21.6678 81.0899 21.4512 81.3387 21.3371C81.8427 21.1061 82.3136 21.1756 82.6627 21.4791C83.0109 21.7817 82.9234 22.2872 82.8573 22.7342C82.794 23.1634 82.4 23.3182 82.1457 23.5499C81.6187 24.0301 80.9852 24.3973 80.3237 24.6746C79.5875 24.9831 78.8098 25.1513 78.0163 25.2807C76.7486 25.4874 75.5581 25.187 74.3884 24.8008C73.8001 24.6067 73.2715 24.2431 72.735 23.9093C72.1433 23.5412 71.7012 23.0326 71.2242 22.5637C70.8732 22.2187 70.6547 21.7349 70.394 21.3027C69.9476 20.5627 69.728 19.7392 69.542 18.905C69.4817 18.6348 69.4295 18.3683 69.0385 18.575C68.9385 18.6279 68.7894 18.59 68.6628 18.59C64.8311 18.5904 60.9994 18.5903 57.1678 18.5903C57.0557 18.5903 56.9437 18.5903 56.817 18.5903C56.9631 19.4995 57.3491 20.2506 57.9033 20.971C58.5807 21.8515 59.4408 22.4267 60.4385 22.812C61.3154 23.1506 62.2377 23.1603 63.1752 23.0565C64.2317 22.9396 65.0968 22.4195 65.9021 21.8136C66.2499 21.5519 66.5219 21.2973 66.9919 21.2854C67.9229 21.2618 68.0766 21.8464 68.0003 22.6128C67.9506 23.1123 67.5109 23.3339 67.2177 23.6228C66.9092 23.9266 66.5389 24.199 66.1324 24.4121C64.6809 25.1732 63.1194 25.3684 61.5298 25.249C60.2846 25.1554 59.0923 24.745 58.034 24.0689C56.9261 23.361 56.0393 22.4178 55.4337 21.2346C55.3515 21.0739 55.2741 20.9131 55.1327 20.7799C55.0262 20.8451 55.0927 20.9685 55.0921 21.0635C55.0862 22.1341 55.089 23.2047 55.0881 24.2753C55.0876 24.8892 54.607 25.3692 54.0124 25.3524C53.4507 25.3365 52.9755 24.8509 52.9753 24.2881C52.9745 22.0623 52.9758 19.8366 52.9733 17.6108C52.9731 17.4583 53.0071 17.3009 52.9182 17.1179Z" fill="#474747"/>
<path d="M154.153 15.2143C154.297 14.5329 154.6 13.9411 154.959 13.4088C155.462 12.6622 156.045 11.9696 156.799 11.4306C157.251 11.107 157.725 10.8335 158.22 10.6014C158.978 10.2466 159.753 9.93159 160.609 9.88277C161.261 9.84556 161.906 9.81041 162.565 9.86948C163.469 9.95057 164.278 10.2419 165.055 10.681C165.476 10.9193 165.888 11.1587 166.278 11.4568C167.102 12.0869 167.742 12.8598 168.258 13.7435C169.047 15.0956 169.322 16.5639 169.292 18.1221C169.254 20.1498 169.283 22.1787 169.283 24.2071C169.283 24.8757 168.875 25.3455 168.287 25.355C167.623 25.3658 167.099 24.8846 167.089 24.2175C167.075 23.2881 167.085 22.3582 167.085 21.4285C167.085 20.1045 167.072 18.7802 167.089 17.4564C167.104 16.2829 166.733 15.2592 166.057 14.3067C165.408 13.3928 164.561 12.7333 163.542 12.3504C162.398 11.9207 161.205 11.8415 159.997 12.195C158.777 12.5519 157.828 13.2393 157.058 14.2487C156.275 15.2741 155.912 16.4312 155.947 17.6767C155.982 18.8866 156.34 20.0045 157.149 20.9938C157.889 21.8979 158.758 22.5623 159.844 22.8948C160.742 23.1699 161.676 23.2512 162.631 23.0322C163.443 22.8461 164.164 22.532 164.814 22.0185C165.252 21.6731 165.986 21.8891 166.318 22.4329C166.582 22.8662 166.356 23.47 165.886 23.7647C165.512 23.9987 165.123 24.2045 164.751 24.4384C163.962 24.9346 163.079 25.158 162.179 25.257C160.977 25.3892 159.787 25.2173 158.663 24.7611C158.083 24.5257 157.533 24.2205 156.996 23.8796C156.437 23.5253 156.015 23.0395 155.55 22.605C155.168 22.2474 154.944 21.7152 154.671 21.2484C153.802 19.7664 153.727 18.1344 153.826 16.4836C153.851 16.0651 153.967 15.6404 154.153 15.2143Z" fill="#474747"/>
<path d="M172.92 20.2874C172.92 21.6248 172.902 22.9205 172.93 24.2151C172.939 24.6468 172.638 25.1397 172.165 25.3128C171.81 25.4429 171.362 25.3002 171.038 24.9587C170.814 24.7227 170.817 24.414 170.817 24.1411C170.803 19.7205 170.805 15.2998 170.81 10.8792C170.811 10.4949 170.892 10.1049 171.271 9.91769C171.691 9.71072 172.177 9.72753 172.554 9.95175C172.786 10.0892 172.929 10.4275 172.927 10.7844C172.914 13.9379 172.92 17.0915 172.92 20.2874Z" fill="#474747"/>
<path d="M14.5401 19.6655C15.2044 20.1226 15.2334 21.282 14.7796 21.8473C14.4626 22.2423 14.0751 22.6057 14.0704 23.1901C14.0665 23.6697 14.3977 23.9417 14.6463 24.257C15.0302 24.7439 15.202 25.2486 15.0271 25.8651C14.8699 26.419 14.194 26.8252 13.6265 26.6964C12.4938 26.4394 12.3995 25.2608 12.9099 24.5496C13.1201 24.2568 13.3367 23.968 13.5338 23.6665C13.7125 23.393 13.7383 23.0856 13.5936 22.7943C13.0962 21.7928 12.3323 21.0459 11.3451 20.532C11.026 20.3659 10.6959 20.4177 10.3987 20.6181C10.1288 20.8001 9.85073 20.9747 9.60348 21.1846C9.04345 21.66 8.3064 21.681 7.7884 21.2124C7.31057 20.7802 7.24843 19.8537 7.73288 19.3519C8.06357 19.0093 8.53107 18.957 9.01008 19.0514C9.56656 19.1611 9.93168 19.5853 10.3868 19.8588C10.7956 20.1045 11.1421 20.0791 11.5484 19.8494C12.0053 19.5912 12.3616 19.1818 12.9051 19.0452C13.3734 18.9275 14.3153 19.2047 14.5401 19.6655Z" fill="#474747"/>
<path d="M20.7915 24.058C21.4606 24.8197 21.8149 25.557 21.1187 26.3261C20.8327 26.642 20.2216 26.8048 19.8294 26.6527C19.2692 26.4354 19.0191 26.0759 18.9842 25.5618C18.9444 24.975 19.1896 24.502 19.5583 24.1069C20.2328 23.384 20.0514 22.5878 19.4749 22.0528C19.0843 21.6904 18.8037 20.7737 19.1471 20.1982C19.5588 19.5081 20.06 19.0095 20.9087 19.0169C21.3881 19.021 21.7639 19.2855 22.1308 19.5682C22.4001 19.7758 22.6637 19.9977 23.035 20.0316C23.5352 20.0772 23.8737 19.7683 24.2046 19.4952C24.8385 18.9721 25.5283 18.8647 26.2015 19.2074C26.496 19.3574 26.7342 19.9798 26.6603 20.3835C26.4335 21.6223 25.2654 21.8253 24.5591 21.2436C24.356 21.0763 24.1296 20.9375 23.9231 20.7739C23.31 20.2884 22.8911 20.3457 22.2675 20.7686C21.7037 21.1508 21.2443 21.6381 20.8349 22.1799C20.3554 22.8145 20.3297 23.3075 20.7915 24.058Z" fill="#474747"/>
<path d="M19.591 10.0508C19.2328 9.62513 18.9818 9.19482 18.98 8.62676C18.9778 7.95361 19.4948 7.51209 20.022 7.43971C20.6682 7.351 21.2713 7.76577 21.4438 8.33327C21.6517 9.01694 21.3127 9.58107 20.9114 9.98302C20.3423 10.5531 20.3686 11.348 20.7913 11.9034C21.296 12.5665 21.8564 13.1541 22.6031 13.5567C22.977 13.7583 23.3157 13.7602 23.6554 13.5404C24.0388 13.2924 24.4023 13.0138 24.7836 12.7625C25.145 12.5244 25.7435 12.5221 26.0397 12.76C26.4486 13.0883 26.7107 13.4547 26.6436 14.0521C26.5774 14.6427 26.2988 14.9846 25.7671 15.1006C25.2135 15.2212 24.7102 15.0486 24.2553 14.6942C23.9368 14.446 23.6415 14.1421 23.192 14.1081C22.744 14.0742 22.4323 14.3291 22.1214 14.5788C21.781 14.8522 21.4204 15.0835 20.9803 15.1209C20.4436 15.1665 20.0325 14.945 19.6268 14.5688C19.1713 14.1465 18.9406 13.6912 18.9951 13.0917C19.0294 12.7156 19.174 12.3664 19.4519 12.105C20.0804 11.5139 20.1914 10.8105 19.591 10.0508Z" fill="#474747"/>
<path d="M7.57465 13.2827C7.94837 12.5018 8.97347 12.4256 9.57257 12.9248C9.94312 13.2335 10.296 13.6131 10.8116 13.6876C11.4193 13.7754 11.8353 13.3682 12.2357 13.0281C12.7203 12.6164 13.1735 12.1675 13.4807 11.5767C13.707 11.1416 13.7492 10.7761 13.461 10.3816C13.322 10.1913 13.1947 9.99063 13.0404 9.81367C12.5705 9.27513 12.5078 8.6716 12.7726 8.03641C12.9709 7.56046 13.8997 7.26498 14.4317 7.56607C15.1274 7.95979 15.3335 8.95743 14.8327 9.60841C14.6383 9.86111 14.4401 10.1121 14.2639 10.3774C14.0057 10.7661 13.98 11.1685 14.2528 11.568C14.3973 11.7796 14.5244 12.0057 14.6886 12.2007C15.5661 13.2428 14.9173 14.5182 13.9407 14.9591C13.2024 15.2925 12.5853 15.1258 12.0028 14.5563C11.3553 13.9234 10.631 13.974 9.92488 14.5958C9.40896 15.05 8.82477 15.299 8.13999 15.0271C7.45338 14.7546 7.2119 13.9954 7.57465 13.2827Z" fill="#474747"/>
<path d="M23.313 5.15723C23.9524 5.21151 24.4105 5.47242 24.6004 6.08138C24.7814 6.66176 24.4952 7.12755 24.2044 7.5887C24.0765 7.79141 23.8621 7.90801 23.7707 8.16434C23.5215 8.86297 23.6161 9.37937 24.1631 9.86856C24.9871 10.6056 25.5621 10.689 26.2724 10.1324C26.4631 9.98307 26.6707 9.86276 26.858 9.71442C27.3068 9.35908 27.8082 9.35434 28.2679 9.59726C28.7981 9.87748 28.9613 10.4416 28.8772 11.0553C28.7647 11.8765 27.6523 12.1606 27.0538 11.8479C26.5558 11.5877 26.1947 11.1194 25.6213 10.9814C25.2253 10.8861 24.8476 10.9962 24.6495 11.3606C24.553 11.538 24.4258 11.6909 24.3765 11.9092C24.2854 12.3129 23.8729 12.268 23.5816 12.3236C22.9344 12.447 22.4256 12.077 22.0848 11.6202C21.8028 11.2423 21.6361 10.7409 21.8532 10.2057C22.0151 9.80671 22.3895 9.69978 22.682 9.48129C22.8527 9.35381 23.1212 9.33244 23.1275 9.04736C23.1368 8.63128 23.1947 8.19713 22.8359 7.8746C22.5565 7.62352 22.3464 7.30906 22.2186 6.97547C21.9183 6.19126 22.2459 5.36802 23.313 5.15723Z" fill="#474747"/>
<path d="M26.1563 23.9379C25.1818 23.3339 24.4882 23.7876 23.8847 24.6528C23.4429 25.2863 23.521 25.7137 24.0636 26.3728C24.3129 26.6755 24.5007 27.0075 24.6118 27.3837C24.7186 27.7452 24.539 28.4926 24.305 28.6489C23.6766 29.0687 23.2002 29.0789 22.6533 28.7284C22.2119 28.4455 22.0393 27.8017 22.1446 27.4187C22.2667 26.9748 22.518 26.6079 22.8331 26.2842C23.0864 26.0241 23.1252 25.7151 23.1476 25.3692C23.1732 24.9724 22.9905 24.8001 22.6634 24.6496C22.1159 24.3978 21.6991 24.0372 21.7807 23.3389C21.8731 22.5489 22.7623 21.6332 23.7418 21.8363C24.254 21.9424 24.3569 22.265 24.5488 22.5966C25.1091 23.5654 25.6165 23.2796 26.2948 22.7999C26.5761 22.601 26.8708 22.4218 27.1648 22.2608C27.614 22.0148 28.3563 22.1821 28.6813 22.5942C28.9529 22.9387 28.9228 23.3822 28.8583 23.7973C28.7209 24.6824 27.487 24.9123 26.9755 24.5105C26.7225 24.3117 26.4468 24.142 26.1563 23.9379Z" fill="#474747"/>
<path d="M9.58182 22.4654C9.78703 21.9624 10.1831 21.7884 10.6435 21.82C11.0587 21.8484 11.4294 21.9728 11.7785 22.2978C12.3276 22.8091 12.2776 23.3972 12.2188 24.015C12.1848 24.3729 11.8039 24.4103 11.5811 24.5468C10.7415 25.0615 10.6343 25.6498 11.3303 26.3632C11.6086 26.6484 11.7856 26.981 11.8898 27.363C12.0632 27.9991 11.7208 28.6514 11.0743 28.8939C10.482 29.1161 9.77688 28.8249 9.52473 28.2258C9.36857 27.8548 9.33789 27.4422 9.54965 27.096C9.73012 26.8009 9.86386 26.4779 10.1615 26.2356C10.5946 25.883 10.5562 25.179 10.1462 24.5823C9.6092 23.8007 8.97505 23.507 8.21748 23.7519C7.86551 23.8657 7.6405 24.1601 7.35826 24.3675C6.46735 25.0221 5.33477 24.6607 5.14556 23.5849C4.99804 22.7461 5.82726 21.9814 6.69401 22.1809C7.10098 22.2745 7.43681 22.5228 7.76786 22.7873C8.12677 23.074 8.52357 23.3404 9.04272 23.1526C9.36462 23.0361 9.4208 22.7351 9.58182 22.4654Z" fill="#474747"/>
<path d="M9.79423 9.99268C10.1834 9.58429 10.5203 9.2001 10.4641 8.5949C10.436 8.29142 10.313 8.0645 10.1274 7.86444C9.7045 7.40862 9.36997 6.93644 9.4311 6.2607C9.4935 5.57084 10.2494 5.06892 10.9278 5.21621C12.0433 5.45839 12.145 6.61226 11.6569 7.36617C11.4337 7.71084 11.1452 8.00182 10.9645 8.38821C10.776 8.79141 10.9853 9.36559 11.3734 9.5005C11.5164 9.55023 11.6488 9.67613 11.7731 9.70649C12.3027 9.83586 12.2742 10.2891 12.2746 10.6333C12.2749 10.9957 12.2061 11.3607 11.9192 11.7021C11.3908 12.3311 10.7598 12.3889 10.06 12.2374C9.756 12.1715 9.67929 11.8172 9.53447 11.5808C9.04408 10.7803 8.43476 10.6972 7.73831 11.3712C7.09962 11.9893 6.33276 12.1533 5.74383 11.7985C5.31459 11.5399 4.96289 10.8494 5.26752 10.1724C5.51524 9.62186 6.24438 9.3557 6.80608 9.49083C7.15663 9.57516 7.41914 9.8108 7.69606 10.0054C8.58905 10.6329 8.89206 10.6482 9.79423 9.99268Z" fill="#474747"/>
<path d="M15.6312 19.3432C14.7735 19.3657 14.7472 19.3529 14.7649 18.5157C14.78 17.8039 14.7283 17.0936 14.8252 16.3779C14.8799 15.974 15.1168 15.7022 15.3431 15.4781C15.7243 15.1007 16.1535 14.7603 16.7877 14.7749C17.4772 14.7908 18.0958 14.8428 18.6312 15.3623C18.8886 15.612 19.0951 15.8942 19.1923 16.1939C19.4884 17.1075 19.4846 18.0564 19.3234 19.0009C19.2294 19.5512 18.7854 19.3327 18.4755 19.3456C18.1829 19.3578 18.1378 19.1185 18.1403 18.8706C18.1462 18.2939 18.1091 17.7146 18.1522 17.1411C18.1898 16.6415 17.8651 16.319 17.5654 16.1076C17.2638 15.8948 16.7923 15.9336 16.4279 16.1567C16.0426 16.3925 15.9762 16.8069 15.9517 17.2058C15.9215 17.6963 15.9292 18.1907 15.9503 18.6822C15.9623 18.9595 15.8952 19.1749 15.6312 19.3432Z" fill="#474747"/>
<path d="M33.9442 16.4306C34.3439 17.2571 34.0234 17.6458 33.6407 18.1002C33.5785 18.174 33.5104 18.2615 33.4009 18.2514C32.8397 18.1996 32.2348 18.4454 31.7505 17.8969C31.5216 17.6377 31.1634 17.483 30.846 17.3144C30.4766 17.1182 30.1488 17.3051 29.8502 17.5082C29.5734 17.6964 29.329 17.9321 29.0518 18.1196C28.4953 18.4964 27.4657 18.2743 27.1176 17.7176C26.8107 17.2267 27.0791 16.1674 27.5759 15.909C27.9069 15.7369 29.1161 15.9515 29.3528 16.2478C29.6203 16.5827 29.9867 16.7484 30.3687 16.8809C30.5313 16.9374 30.7128 16.9339 30.8876 16.8186C31.2461 16.5821 31.6328 16.3873 31.9438 16.083C32.26 15.7736 32.6611 15.947 33.021 15.885C33.4799 15.806 33.7155 16.0706 33.9442 16.4306Z" fill="#474747"/>
<path d="M154.241 23.6963C154.294 24.4281 154.036 24.9346 153.385 25.2434C152.771 25.5347 151.7 25.15 151.577 24.3425C151.456 23.5483 151.584 22.7733 152.601 22.5403C153.357 22.367 153.973 22.7692 154.241 23.6963Z" fill="#474747"/>
<path d="M18.0415 22.427C18.4851 22.8905 18.394 23.835 17.8955 24.2062C17.339 24.6206 16.2908 24.5238 16.0005 23.996C15.6384 23.3378 15.737 22.6486 16.2732 22.2042C16.7838 21.781 17.5071 21.8755 18.0415 22.427Z" fill="#474747"/>
<path d="M17.7927 9.8847C18.4374 10.2942 18.4068 11.1027 18.1965 11.5355C17.9568 12.0284 17.1945 12.3166 16.6361 12.1625C16.1124 12.018 15.6883 11.1919 15.8052 10.6569C16.0204 9.67188 17.0725 9.41326 17.7927 9.8847Z" fill="#474747"/>
<path d="M28.8299 12.8663C29.7903 12.1883 30.8176 12.8872 30.8871 13.8279C30.9528 14.7195 30.1761 15.3173 29.1872 15.0663C28.2575 14.8303 28.088 13.4911 28.8299 12.8663Z" fill="#474747"/>
<path d="M30.5563 21.0184C30.2849 21.436 29.7797 21.6458 29.3523 21.5323C28.8364 21.3953 28.4213 20.9279 28.3706 20.4674C28.3164 19.9762 28.4308 19.5127 28.8154 19.2342C29.2978 18.885 29.8695 18.9539 30.3963 19.1954C30.9406 19.4449 31.0462 20.5764 30.5563 21.0184Z" fill="#474747"/>
<path d="M3.27168 13.7084C3.19498 13.1363 3.62542 12.9425 3.95876 12.7282C4.30027 12.5086 4.70671 12.523 5.06 12.7408C5.82401 13.2119 5.83084 13.8736 5.57394 14.5522C5.41021 14.9847 4.77648 15.2311 4.21328 15.123C3.63872 15.0127 3.27513 14.6114 3.27176 14.0835C3.27105 13.9711 3.27166 13.8587 3.27168 13.7084Z" fill="#474747"/>
<path d="M5.63378 19.7923C5.85053 20.65 5.6097 21.0784 4.979 21.4425C4.47787 21.7317 3.63595 21.4127 3.3152 20.8688C3.19261 20.661 3.2689 19.695 3.42373 19.4947C3.7293 19.0993 4.37304 18.8904 4.85306 19.0435C5.21914 19.1603 5.55479 19.3208 5.63378 19.7923Z" fill="#474747"/>
<path d="M11.0071 18.2713C10.4118 18.3449 9.96881 18.1569 9.72649 17.6318C9.51392 17.1712 9.58544 16.7302 9.85947 16.2956C10.1069 15.9033 10.4828 15.8858 10.8694 15.8534C11.4783 15.8024 11.8839 16.0921 12.0843 16.6416C12.2791 17.1758 12.0957 17.6312 11.7279 18.0516C11.5229 18.286 11.2854 18.2457 11.0071 18.2713Z" fill="#474747"/>
<path d="M15.1024 4.62853C15.0295 5.64892 14.2037 5.87271 13.3978 5.66417C12.9779 5.55549 12.6475 5.16876 12.6544 4.73636C12.6607 4.34309 12.5662 3.9462 12.9487 3.61428C13.5097 3.12745 14.4863 3.15557 14.9195 3.76072C15.0868 3.9945 15.1051 4.30043 15.1024 4.62853Z" fill="#474747"/>
<path d="M15.1042 29.5203C15.0991 30.046 15.0037 30.4893 14.5184 30.7434C14.1101 30.9571 13.6384 30.9433 13.279 30.7831C12.9562 30.6392 12.5739 30.3475 12.6499 29.8371C12.6957 29.5291 12.628 29.2283 12.8045 28.9122C13.1419 28.3078 14.3733 28.2767 14.8022 28.7269C15.012 28.9472 15.0115 29.229 15.1042 29.5203Z" fill="#474747"/>
<path d="M21.4906 4.53929C21.3229 5.76116 20.4055 5.92144 19.523 5.60711C19.1607 5.47809 18.8823 4.59582 18.9992 4.12883C19.1175 3.65614 19.5741 3.32452 20.0483 3.28392C20.5738 3.23892 20.9867 3.36615 21.3075 3.80654C21.4684 4.02735 21.4052 4.28769 21.4906 4.53929Z" fill="#474747"/>
<path d="M18.9883 29.7356C18.9889 28.6321 20.0003 28.0111 20.915 28.5155C21.2993 28.7274 21.5649 29.5209 21.4352 30.0698C21.3405 30.4708 20.8103 30.8066 20.3522 30.8591C19.4935 30.9573 19.117 30.5118 18.9883 29.7356Z" fill="#474747"/>
<path d="M22.2184 16.2543C22.6366 15.8353 23.4756 15.7211 23.924 16.0011C24.3678 16.2782 24.5857 17.068 24.3739 17.6317C24.2101 18.0675 23.6853 18.3444 23.1318 18.287C22.0641 18.1762 21.6438 17.2735 22.2184 16.2543Z" fill="#474747"/>
<path d="M100.96 11.9142C101.509 12.0269 102.033 12.0975 102.526 12.263C103.074 12.4471 103.578 12.7509 104.052 13.0843C104.782 13.5979 105.349 14.2926 105.706 15.0821C106.316 16.4272 106.566 17.8324 105.982 19.2906C105.698 20.001 105.375 20.6866 104.858 21.2402C104.023 22.1347 103.031 22.771 101.786 23.0001C100.869 23.169 99.9657 23.1667 99.0897 22.9037C97.7621 22.5051 96.7368 21.6981 95.9706 20.5129C95.2579 19.4103 94.9304 18.2245 95.0891 16.9551C95.2351 15.7881 95.6849 14.7272 96.5272 13.8287C97.0653 13.2546 97.6444 12.7566 98.3413 12.4486C99.1492 12.0915 100.017 11.8778 100.96 11.9142Z" fill="white"/>
<path d="M109.276 20.5291C108.525 19.3899 108.3 18.1411 108.451 16.8534C108.534 16.1471 108.758 15.4507 109.147 14.8039C109.578 14.0875 110.087 13.4837 110.76 12.9944C111.499 12.4573 112.332 12.1912 113.209 11.99C114.177 11.768 115.102 12.0031 115.978 12.3015C116.504 12.4804 117.012 12.8198 117.488 13.1894C118.132 13.689 118.593 14.2996 118.957 14.9805C119.317 15.6533 119.565 16.3739 119.602 17.1732C119.649 18.1851 119.477 19.1377 119.026 20.024C118.705 20.6555 118.281 21.2313 117.727 21.7014C117.179 22.1672 116.587 22.5566 115.91 22.7973C114.997 23.1217 114.061 23.1675 113.098 23.0516C112.437 22.972 111.849 22.7178 111.283 22.4175C110.633 22.0728 110.086 21.5747 109.638 20.9923C109.523 20.8433 109.311 20.7733 109.276 20.5291Z" fill="white"/>
<path d="M129.002 12.2341C129.22 12.2353 129.385 12.2974 129.553 12.3733C130.366 12.7419 131.023 13.3259 131.669 13.9196C131.838 14.0754 131.963 14.317 132.062 14.5138C132.414 15.2174 132.859 15.8849 132.875 16.7366C132.886 17.2906 132.908 17.8363 132.876 18.3944C132.825 19.2701 132.398 19.969 131.981 20.6732C131.586 21.3395 131.004 21.8467 130.345 22.2557C129.589 22.7253 128.781 23.0082 127.879 23.0934C127.061 23.1707 126.28 23.0827 125.524 22.8209C124.761 22.5569 124.09 22.1393 123.496 21.5603C122.881 20.9614 122.427 20.2772 122.122 19.4989C121.751 18.554 121.718 17.5707 121.852 16.5592C121.949 15.8248 122.226 15.1439 122.604 14.5757C123.12 13.7987 123.793 13.1235 124.668 12.6567C125.575 12.1728 126.517 11.948 127.518 11.9273C128.014 11.9171 128.501 12.046 129.002 12.2341Z" fill="white"/>
<path d="M67.4238 15.3897C67.9797 16.4441 67.956 16.4838 66.7959 16.4838C63.6165 16.4838 60.4371 16.4828 57.2576 16.4854C56.9772 16.4856 56.7997 16.5258 56.9141 16.0877C57.2224 14.9068 57.8549 13.985 58.7893 13.2134C59.2433 12.8385 59.7387 12.5068 60.2567 12.3236C61.3253 11.9458 62.4371 11.7728 63.5907 12.098C64.5148 12.3585 65.3426 12.7962 66.0384 13.4081C66.6321 13.9304 67.1295 14.5868 67.4238 15.3897Z" fill="white"/>
<path d="M101.993 20.0286C101.001 20.5281 100.124 20.4453 99.1536 19.9097C97.9156 19.2266 97.6137 17.5008 98.0379 16.4035C98.2949 15.7386 98.7429 15.3019 99.3027 14.9666C99.8996 14.6091 100.593 14.6726 101.257 14.7226C102.119 14.7873 102.724 15.3495 103.128 16.0077C103.547 16.6912 103.654 17.5032 103.405 18.3302C103.174 19.0972 102.706 19.6385 101.993 20.0286Z" fill="#474747"/>
<path d="M116.312 19.2824C115.942 19.4613 115.76 19.8037 115.403 19.9928C114.412 20.5178 113.501 20.4852 112.54 19.9644C111.54 19.4223 111.225 18.5048 111.144 17.4786C111.064 16.4606 111.982 15.1402 112.925 14.813C114.146 14.3895 115.564 14.8141 116.369 15.8435C116.928 16.5589 117.018 17.9532 116.563 18.7816C116.478 18.936 116.41 19.0998 116.312 19.2824Z" fill="#474747"/>
<path d="M126.887 14.711C127.609 14.7076 128.279 14.6738 128.905 15.0864C130.199 15.9391 130.558 17.7514 129.836 18.9367C129.023 20.2714 127.108 20.817 125.832 19.9226C125.017 19.351 124.56 18.6725 124.546 17.6388C124.534 16.8553 124.674 16.1584 125.194 15.5927C125.556 15.1993 125.973 14.8249 126.566 14.7852C126.662 14.7789 126.755 14.7391 126.887 14.711Z" fill="#474747"/>
</g>
<defs>
<clipPath id="clip0_2540_13340">
<rect width="173.12" height="33.9815" fill="white"/>
</clipPath>
</defs>
</svg>
