<svg width="199" height="50" viewBox="0 0 199 50" fill="none" xmlns="http://www.w3.org/2000/svg">
<g clip-path="url(#clip0_2540_12550)">
<path d="M26.4767 49.8125C17.7287 49.8125 8.98069 49.8125 0.228516 49.8125C0.228516 33.2913 0.228516 16.7701 0.228516 0.237305C66.2666 0.237305 132.309 0.237305 198.351 0.237305C198.351 10.568 198.351 20.8862 198.248 31.3089C197.562 31.4135 196.979 31.4135 196.308 31.4135C196.308 33.8825 196.308 36.2204 196.308 38.5363C195.415 38.7005 194.876 38.5161 194.4 37.7222C193.334 35.9436 192.154 34.2266 190.919 32.5592C190.544 32.0534 189.875 31.5614 189.278 31.4688C188.162 31.2956 186.999 31.419 185.854 31.419C185.854 34.4741 185.854 37.4024 185.854 40.3111C186.46 40.3111 186.996 40.3111 187.628 40.3111C187.628 37.9026 187.628 35.5704 187.628 33.2544C188.465 33.1388 188.995 33.2407 189.469 34.0089C190.598 35.837 191.95 37.5264 193.093 39.3469C193.581 40.1249 194.212 40.3502 194.992 40.3782C196.11 40.4185 197.231 40.3886 198.351 40.3886C198.351 43.5282 198.351 46.6679 198.351 49.8125C141.279 49.8125 84.2067 49.8125 27.0276 49.7331C26.9223 49.4947 26.9241 49.3357 27.0031 49.1591C27.5506 48.8311 28.0207 48.5206 28.573 48.219C29.8655 47.2531 31.0758 46.2783 32.261 45.2313C32.1063 45.094 31.969 45.0409 31.8484 44.9621C28.4286 42.7282 25.3211 40.1151 22.4185 37.1491C21.7206 36.3405 21.0018 35.6392 20.3964 34.8508C19.3081 33.4336 18.2878 31.9642 17.2872 30.4483C17.9134 30.2132 18.4914 30.0466 19.1273 29.9431C19.9651 29.8551 20.7449 29.7039 21.6194 29.5697C23.8331 29.4539 25.9533 29.3342 28.0699 29.1692C28.2903 29.152 28.4897 28.8663 28.6759 28.6276C28.5298 28.5161 28.4066 28.4821 28.2984 28.4506C28.3133 28.4532 28.3208 28.4238 28.3261 28.3456C27.7717 27.5414 27.1975 26.8259 26.6546 26.0875C24.2113 22.7638 22.3562 19.1236 21.121 15.2008C19.8464 11.1526 19.2181 6.98163 19.2112 2.65473C18.0821 2.7043 17.0018 2.82301 15.8379 2.96736C15.509 3.04183 15.2527 3.06038 15.0208 3.14562C14.4955 3.33875 13.9822 3.56474 13.3786 3.79581C12.7518 3.97599 12.2103 4.13771 11.5744 4.28818C10.4205 4.63401 9.36106 4.99108 8.21508 5.36296C7.0523 5.82463 5.97606 6.27151 4.82409 6.71538C3.7582 6.73434 2.83468 6.89802 2.2717 7.96107C2.54896 10.0423 2.79855 12.039 3.1507 14.0175C3.88251 18.1289 5.06361 22.1246 6.80308 25.9139C8.80761 30.2806 11.192 34.4219 14.2326 38.2001C17.1891 41.8738 20.4637 45.1675 24.3051 48.0152C25.0753 48.6374 25.776 49.225 26.4767 49.8125ZM39.3043 10.4601C39.4371 10.478 39.5699 10.4959 39.8717 10.547C40.4164 10.6891 40.961 10.8313 41.5899 11.0021C41.5899 11.0021 41.6787 11.0039 41.7427 11.0995C41.8095 11.1286 41.8763 11.1577 42.1111 11.2227C43.0315 11.5402 43.952 11.8576 44.9704 12.2932C46.4651 12.9939 47.9543 13.707 49.4606 14.3819C49.6865 14.4831 49.9926 14.4054 50.2616 14.4105C50.1862 14.1576 50.1108 13.9046 50.0511 13.4753C50.2079 12.6531 50.3647 11.8309 50.6967 10.9841C50.8529 10.4093 51.041 9.84107 51.1587 9.25856C51.4256 7.9377 50.8875 7.13492 49.5893 6.72454C48.3726 6.33998 47.1962 5.82844 45.8977 5.24624C44.2125 4.76618 42.5273 4.28613 40.7354 3.67003C37.5732 3.12063 34.4289 2.38212 31.2432 2.07908C28.4807 1.8163 25.6712 2.04693 22.6896 2.04217C22.6057 2.33031 22.4426 2.62077 22.451 2.90619C22.4979 4.49647 22.5581 6.08745 22.666 7.67463C22.9374 11.6663 24.1782 15.3974 25.8689 18.982C27.9557 23.4065 30.9271 27.204 34.6028 30.3935C36.4129 31.9642 38.5052 33.2139 40.5023 34.5608C40.8122 34.7697 41.2965 34.72 41.826 34.701C42.3979 33.795 43.421 33.1191 43.3517 31.7087C43.8723 30.7114 44.393 29.7141 45.0805 28.7157C45.2846 28.5498 45.5919 28.4252 45.6773 28.2117C46.9041 25.1468 48.1073 22.0724 49.2835 18.9878C49.3343 18.8545 49.07 18.6011 48.8868 18.2737C48.6852 18.1547 48.4836 18.0357 48.2452 17.7637C48.0958 17.606 47.9748 17.3943 47.7927 17.2985C43.6359 15.1108 39.2285 13.67 34.4399 12.7989C34.6106 13.1222 34.7029 13.2971 34.7819 13.6424C35.6598 16.0765 37.0365 18.2168 38.8351 20.0462C39.4919 20.7142 40.4598 21.0765 41.2739 21.7436C40.667 23.0221 40.0602 24.3006 39.3238 25.5001C38.2698 24.4021 37.2158 23.304 36.0868 22.071C34.0924 19.8326 32.5482 17.2955 31.4527 14.5272C30.7465 12.743 30.3471 10.8374 30.0184 8.96959C30.4642 8.96761 30.9116 8.94012 31.3554 8.96882C32.3665 9.03421 33.3759 9.12716 34.4744 9.18377C34.4744 9.18377 34.5616 9.1542 34.7323 9.18786C36.2337 9.5752 37.7352 9.96254 39.2458 10.3399C39.2458 10.3399 39.2323 10.3402 39.3043 10.4601ZM25.6214 32.312C25.0804 32.4036 24.5394 32.4951 23.8311 32.5616C23.5554 32.5616 23.2797 32.5616 22.9161 32.5616C23.288 33.0638 23.5541 33.507 23.8993 33.876C26.9025 37.0861 30.1905 39.964 33.9252 42.3008C34.2894 42.5287 34.7939 42.5325 35.3355 42.5309C35.8887 41.8884 36.4419 41.2459 37.0648 40.4692C37.4371 39.9943 37.8093 39.5195 38.3452 39.0436C38.8091 38.6338 39.273 38.224 39.7696 37.7854C37.8863 36.4826 36.2009 35.1977 34.3952 34.1131C33.3548 33.4882 32.12 33.1871 30.8565 32.5928C29.1738 32.5092 27.4911 32.4256 25.6214 32.312ZM182.084 18.3995C181.075 18.3994 180.059 18.4638 179.059 18.3674C178.664 18.3292 178.152 18.0224 177.952 17.6847C177.087 16.2229 177.913 14.8121 179.579 14.8108C184.887 14.807 190.196 14.8094 195.504 14.8094C195.903 14.8094 196.301 14.8094 196.71 14.8094C196.71 13.7012 196.71 12.716 196.71 11.6688C190.813 11.6688 184.982 11.5227 179.162 11.7182C175.018 11.8575 173.645 15.1438 174.586 18.5255C175.078 20.2936 177.142 21.5394 179.279 21.5403C183.728 21.542 188.177 21.5347 192.625 21.5447C193.881 21.5476 194.312 22.0565 194.312 23.4484C194.312 24.6462 193.844 25.1294 192.662 25.1299C187.279 25.1321 181.896 25.1308 176.512 25.1308C176.114 25.1308 175.716 25.1308 175.312 25.1308C175.312 26.2416 175.312 27.2268 175.312 28.2722C175.751 28.2722 176.12 28.2722 176.489 28.2722C181.948 28.2722 187.406 28.2231 192.863 28.2922C195.731 28.3285 198.564 25.5573 197.511 21.8843C196.877 19.6746 195.009 18.4494 192.514 18.4122C189.113 18.3614 185.71 18.3995 182.084 18.3995ZM140.894 26.6044C140.249 25.2339 139.604 23.8634 138.943 22.4599C140.342 21.6494 141.367 20.5065 141.537 18.9323C141.673 17.6666 141.519 16.3479 141.334 15.0762C141.168 13.9425 140.484 12.9927 139.419 12.5628C138.359 12.1349 137.203 11.7243 136.083 11.7072C130.48 11.6218 124.875 11.6671 119.271 11.6707C118.949 11.6709 118.627 11.7081 118.323 11.727C118.323 17.2799 118.323 22.7495 118.323 28.1882C119.46 28.1882 120.52 28.1882 121.647 28.1882C121.647 26.3981 121.647 24.6913 121.647 22.937C126.222 22.937 130.726 22.937 135.231 22.937C135.975 24.5079 136.691 26.0667 137.459 27.5994C137.599 27.8777 137.939 28.2226 138.207 28.2402C139.308 28.3125 140.416 28.2705 141.674 28.2705C141.374 27.6729 141.149 27.2248 140.894 26.6044ZM69.2209 22.8871C72.6982 22.8871 76.1755 22.8883 79.6529 22.8866C81.7132 22.8856 83.3852 21.7591 83.8891 19.7425C84.1789 18.5827 84.2384 17.3024 84.0894 16.1156C83.969 15.1577 83.528 14.1555 82.9678 13.3563C82.0032 11.98 80.4288 11.6889 78.8612 11.6804C73.1779 11.6493 67.4945 11.6671 61.8111 11.6707C61.4904 11.6709 61.1697 11.7089 60.8932 11.7265C60.8932 17.2969 60.8932 22.7698 60.8932 28.2155C62.0149 28.2155 63.0494 28.2155 64.1931 28.2155C64.1931 26.4263 64.1931 24.6906 64.1931 22.8871C65.8683 22.8871 67.4324 22.8871 69.2209 22.8871ZM110.619 25.91C110.619 21.1815 110.619 16.4531 110.619 11.6689C108.385 11.6689 106.293 11.5907 104.211 11.6993C103.03 11.7609 101.836 12.0277 100.92 12.9466C96.1466 17.7356 91.3608 22.5127 86.5911 27.3057C86.374 27.5239 86.2714 27.8561 86.039 28.2722C87.3161 28.2722 88.3635 28.2219 89.4035 28.2883C90.2142 28.3401 90.7699 28.0696 91.3471 27.4946C95.4409 23.4165 99.5752 19.3791 103.696 15.3285C103.776 15.2502 103.841 15.1438 103.936 15.0964C104.156 14.986 104.388 14.8317 104.619 14.8228C105.467 14.7902 106.316 14.8099 107.268 14.8099C107.268 19.3436 107.268 23.7679 107.268 28.2022C108.437 28.2022 109.496 28.2022 110.619 28.2022C110.619 27.4658 110.619 26.7987 110.619 25.91ZM162.566 14.8094C164.903 14.8094 167.24 14.8094 169.549 14.8094C169.549 13.676 169.549 12.6917 169.549 11.7481C161.757 11.7481 154.047 11.7481 146.384 11.7481C146.384 12.8153 146.384 13.8011 146.384 14.8494C149.672 14.8494 152.872 14.8494 156.177 14.8494C156.177 19.3387 156.177 23.7614 156.177 28.2066C157.417 28.2066 158.551 28.2066 159.79 28.2066C159.79 23.7196 159.79 19.2969 159.79 14.8094C160.71 14.8094 161.527 14.8094 162.566 14.8094ZM111.181 35.0035C110.032 35.0035 108.883 35.0035 107.744 35.0035C107.663 33.301 107.748 33.2094 109.317 33.2087C111.709 33.2078 114.1 33.2085 116.491 33.2085C117.144 33.2085 117.796 33.2085 118.437 33.2085C118.506 31.414 118.506 31.4137 116.936 31.4135C114.133 31.4133 111.331 31.4053 108.528 31.4169C107.081 31.4229 105.872 32.2817 105.736 33.6389C105.587 35.1184 105.599 36.6315 105.723 38.1148C105.808 39.1307 106.373 40.0237 107.485 40.2568C108.163 40.3989 108.881 40.3806 109.581 40.3835C112.522 40.3956 115.463 40.3886 118.392 40.3886C118.557 38.594 118.557 38.5938 116.896 38.5936C114.356 38.5934 111.815 38.5937 109.274 38.5935C107.626 38.5934 107.587 38.5481 107.813 36.7859C110.881 36.7859 113.964 36.7859 117.059 36.7859C117.059 36.1437 117.059 35.6082 117.059 35.0035C115.13 35.0035 113.267 35.0035 111.181 35.0035ZM77.6368 34.2921C77.7319 33.4155 78.2217 33.1329 79.0828 33.1923C80.0867 33.2616 81.0992 33.2085 82.1079 33.2085C84.1873 33.2085 86.2666 33.2085 88.3288 33.2085C88.3288 32.5369 88.3288 32.0004 88.3288 31.414C84.8941 31.414 81.5351 31.3844 78.177 31.4284C76.8066 31.4463 75.8446 32.5722 75.8408 33.9768C75.8374 35.2097 75.8393 36.4426 75.8403 37.6756C75.8417 39.4324 76.7868 40.3823 78.5633 40.3866C81.5522 40.3939 84.5411 40.3906 87.53 40.3853C87.8141 40.3848 88.0982 40.3384 88.3553 40.3157C88.3553 39.7157 88.3553 39.2041 88.3553 38.5936C85.2522 38.5936 82.1979 38.5949 79.1436 38.593C77.7925 38.5921 77.5131 38.2326 77.7995 36.7483C80.8608 36.7483 83.9435 36.7483 87.0121 36.7483C87.0121 36.1313 87.0121 35.6197 87.0121 35.0035C86.603 35.0035 86.2392 35.0035 85.8755 35.0035C83.4096 35.0035 80.9435 35.02 78.4783 34.981C78.195 34.9765 77.9167 34.6627 77.6368 34.2921ZM133.281 35.2446C133.281 34.7963 133.284 34.348 133.281 33.8997C133.271 32.6249 132.357 31.465 131.091 31.4396C127.666 31.3711 124.239 31.4162 120.775 31.4162C120.775 34.4492 120.775 37.3782 120.775 40.321C121.447 40.321 122.058 40.321 122.777 40.321C122.777 39.3435 122.777 38.4305 122.777 37.4717C124.64 37.4717 126.4 37.5682 128.143 37.4399C129.439 37.3443 130.114 37.7839 130.607 38.9733C131.308 40.6648 131.451 40.6589 133.365 40.1992C132.905 39.2341 132.455 38.2901 132.112 37.5706C132.547 36.7774 132.914 36.1089 133.281 35.2446ZM172.488 31.5844C171.201 32.0313 170.637 32.9035 170.736 34.2905C170.818 35.4409 170.751 36.6018 170.753 37.7581C170.756 39.3896 171.697 40.3712 173.327 40.3836C175.788 40.4025 178.25 40.3989 180.712 40.3848C182.25 40.376 183.303 39.294 183.316 37.7352C183.326 36.5417 183.318 35.348 183.317 34.1545C183.317 32.2954 182.202 31.4753 180.681 31.4367C177.999 31.3687 175.313 31.4416 172.488 31.5844ZM94.4298 31.4204C93.4579 31.4182 92.4806 31.3582 91.5171 31.4473C91.2094 31.4757 90.6934 31.8939 90.6879 32.143C90.6279 34.8601 90.6503 37.5791 90.6503 40.3257C91.3699 40.3257 91.9808 40.3257 92.6882 40.3257C92.6882 37.9245 92.6882 35.584 92.6882 33.2667C93.5876 33.1002 94.1262 33.2884 94.602 34.0824C95.6694 35.8638 96.8611 37.5747 98.0771 39.2602C98.4173 39.7317 98.9876 40.2708 99.5064 40.3338C100.781 40.4887 102.087 40.3845 103.361 40.3845C103.361 37.314 103.361 34.3826 103.361 31.4612C102.696 31.4612 102.11 31.4612 101.424 31.4612C101.424 33.8452 101.424 36.1842 101.424 38.5094C100.53 38.7081 99.9932 38.5581 99.5093 37.7525C98.4773 36.0346 97.3131 34.3915 96.1283 32.7725C95.7448 32.2485 95.1281 31.8952 94.4298 31.4204ZM64.0957 40.3886C66.4125 40.3886 68.7294 40.3987 71.0462 40.3843C72.2237 40.377 73.2414 39.5654 73.351 38.4727C73.4347 37.6374 73.3676 36.7871 73.3676 35.986C72.6046 35.986 71.9932 35.986 71.3525 35.986C71.3525 36.5553 71.3125 37.0439 71.3613 37.5235C71.4473 38.3686 71.0941 38.6269 70.2682 38.609C68.1392 38.5628 66.0077 38.5594 63.8789 38.6102C63.0146 38.6308 62.7716 38.2996 62.8131 37.4918C62.8666 36.4482 62.8753 35.3968 62.811 34.3545C62.7569 33.4777 63.0389 33.1649 63.9472 33.1895C66.113 33.2484 68.2814 33.2085 70.4488 33.2085C71.4066 33.2085 72.3643 33.2085 73.2906 33.2085C73.2906 32.5286 73.2906 31.9918 73.2906 31.4137C69.8868 31.4137 66.5637 31.3933 63.2411 31.4232C61.8048 31.4361 60.8112 32.5341 60.8073 33.9921C60.8043 35.1131 60.9145 36.247 60.7834 37.3525C60.5373 39.4271 62.1339 40.6224 64.0957 40.3886ZM145.593 31.4135C144.85 31.7542 143.952 31.9319 143.39 32.4639C140.976 34.7482 138.66 37.1351 136.313 39.4898C136.096 39.7074 135.915 39.9613 135.671 40.2544C138.068 40.6181 138.114 40.604 139.617 39.1009C141.308 37.4105 143.028 35.7482 144.673 34.0148C145.327 33.3262 145.977 32.993 146.999 33.3384C146.999 35.6609 146.999 37.9959 146.999 40.3109C147.719 40.3109 148.33 40.3109 148.904 40.3109C148.904 37.3044 148.904 34.3763 148.904 31.4135C147.813 31.4135 146.806 31.4135 145.593 31.4135ZM154.935 31.4135C153.792 31.4135 152.649 31.4135 151.536 31.4135C151.536 32.0938 151.536 32.629 151.536 33.2698C153.272 33.2698 154.931 33.2698 156.649 33.2698C156.649 35.6813 156.649 37.9841 156.649 40.3326C157.326 40.3326 157.935 40.3326 158.651 40.3326C158.651 37.9487 158.651 35.6188 158.651 33.1858C160.489 33.1858 162.224 33.1858 163.948 33.1858C163.948 32.5419 163.948 32.006 163.948 31.4135C160.97 31.4135 158.064 31.4135 154.935 31.4135ZM168.284 39.7742C168.284 36.9983 168.284 34.2224 168.284 31.4602C167.54 31.4602 166.956 31.4602 166.346 31.4602C166.346 34.4574 166.346 37.4073 166.346 40.5954C167.082 40.3642 167.682 40.1761 168.284 39.7742Z" fill="white"/>
<path d="M198.351 40.2831C197.231 40.3882 196.111 40.4181 194.992 40.3778C194.213 40.3498 193.581 40.1245 193.093 39.3465C191.951 37.526 190.598 35.8366 189.47 34.0085C188.995 33.2403 188.466 33.1384 187.628 33.254C187.628 35.57 187.628 37.9022 187.628 40.3107C186.997 40.3107 186.46 40.3107 185.854 40.3107C185.854 37.402 185.854 34.4737 185.854 31.4186C186.999 31.4186 188.162 31.2952 189.278 31.4684C189.876 31.561 190.545 32.053 190.919 32.5588C192.154 34.2262 193.334 35.9432 194.401 37.7218C194.877 38.5157 195.415 38.7001 196.309 38.5359C196.309 36.2201 196.309 33.8821 196.309 31.4131C196.98 31.4131 197.563 31.4131 198.249 31.4131C198.351 34.3347 198.351 37.2563 198.351 40.2831Z" fill="#474747"/>
<path d="M26.9256 49.1762C26.9239 49.3351 26.9222 49.4941 26.9229 49.7325C26.8256 49.812 26.7258 49.812 26.5513 49.812C25.7758 49.2244 25.0752 48.6368 24.3047 47.9319C24.2368 47.6489 24.2386 47.4834 24.3124 47.3496C25.2314 47.9797 26.0785 48.5779 26.9256 49.1762Z" fill="#ECECEE"/>
<path d="M27.0032 49.1584C26.0787 48.5778 25.2316 47.9795 24.2821 47.2795C23.914 46.9868 23.6207 46.8247 23.3869 46.6006C21.2014 44.5052 18.9768 42.4473 16.8596 40.2845C13.894 37.2549 11.5673 33.7399 9.531 30.0421C5.76474 23.2029 3.6743 15.8424 2.91016 8.0225C3.59724 7.538 4.24857 7.12784 4.89989 6.71767C5.97613 6.2708 7.05237 5.82393 8.30811 5.37625C9.54807 5.01654 10.6085 4.65763 11.669 4.29872C12.2104 4.137 12.7518 3.97528 13.4636 3.81248C14.4795 3.72718 15.3251 3.64297 16.2596 3.57041C17.1197 3.51833 17.8909 3.45459 18.6455 3.49139C18.8509 5.74697 19.0058 7.91145 19.3081 10.0551C20.0099 15.0319 21.8329 19.613 24.4563 23.8754C25.4279 25.454 26.5334 26.9502 27.4753 28.4855C25.3459 28.7133 23.319 28.9394 21.2007 29.1689C20.4292 29.4079 19.7493 29.6436 19.0694 29.8793C18.4914 30.0459 17.9135 30.2125 17.2048 30.4479C16.2557 30.499 16.6906 31.011 16.8492 31.2068C18.6173 33.3902 20.4152 35.5495 22.2343 37.7839C25.0021 40.7352 28.0449 43.2472 31.3784 45.4287C30.9303 45.8427 30.4961 46.1705 30.1075 46.5454C29.5512 47.082 29.0282 47.653 28.4909 48.2094C28.0208 48.5199 27.5507 48.8303 27.0032 49.1584ZM13.3723 10.1974C12.1682 10.3031 10.9557 10.3864 9.94363 11.4367C9.84479 11.4512 9.74596 11.4657 9.48502 11.5026C9.37171 11.7282 9.12599 11.9809 9.16579 12.1751C9.52413 13.9239 9.76874 15.7207 10.3631 17.3909C11.3596 20.1911 12.5883 22.9086 13.8422 25.746C15.0165 25.2927 16.3751 25.2477 17.4338 24.2298C17.5897 24.2683 17.7456 24.3068 18.0052 24.371C17.9058 24.0796 17.8452 23.8797 17.7702 23.6853C16.7385 21.0102 15.621 18.3643 14.7021 15.6511C14.1225 13.9398 13.8392 12.1281 13.3723 10.1974Z" fill="#474747"/>
<path d="M50.5217 11.0084C50.3648 11.8306 50.208 12.6527 49.9578 13.5759C49.5572 13.5738 49.2427 13.4883 48.9438 13.3648C47.437 12.742 45.9344 12.1094 44.3539 11.4436C43.3569 11.1112 42.4363 10.8154 41.4673 10.4521C40.7044 10.2058 39.99 10.0271 39.2256 9.77675C38.898 9.63988 38.6236 9.54375 38.3422 9.51455C37.0831 9.38389 35.822 9.27229 34.5617 9.15382C34.5617 9.15382 34.4745 9.18339 34.377 9.12471C32.7679 8.24169 31.1176 8.28797 29.4749 8.33091C29.3722 8.33359 29.2773 8.63682 29.1752 8.89245C29.1709 9.13371 29.1418 9.28923 29.1739 9.43083C30.2534 14.1836 32.2373 18.4948 35.4595 22.2847C36.6023 23.4678 37.7152 24.5808 38.8321 25.6896C39.0818 25.9375 39.3806 26.3642 39.4534 25.5787C40.0602 24.3002 40.6671 23.0217 41.3509 21.6217C41.1515 21.2465 40.8986 20.9598 40.5952 20.7442C38.1013 18.9727 36.7211 16.3902 35.5429 13.7115C38.5685 14.5928 41.5129 15.4544 44.4312 16.3969C45.7417 16.8201 47.0001 17.4049 48.2821 17.9164C48.4837 18.0353 48.6853 18.1543 48.883 18.4132C48.2242 20.2715 47.5797 21.994 46.9115 23.7072C46.2582 25.3819 45.5806 27.0471 44.9137 28.7164C44.3931 29.7137 43.8724 30.711 43.2375 31.7879C42.5689 32.6916 42.0145 33.5159 41.3816 34.3334C39.3156 32.9806 37.1627 31.8228 35.3743 30.2504C31.312 26.6789 27.9964 22.5053 25.8552 17.4496C23.855 12.7269 22.9947 7.80842 23.003 2.71004C25.0913 2.69826 27.0788 2.71933 29.0656 2.68961C32.9878 2.63094 36.794 3.41754 40.6862 4.24285C42.5119 4.79707 44.2508 5.33088 46.0314 5.93438C47.6244 6.63271 49.1758 7.26136 50.5217 7.80672C50.5217 9.02539 50.5217 10.0169 50.5217 11.0084Z" fill="#474747"/>
<path d="M182.197 18.3993C185.711 18.3993 189.114 18.3612 192.515 18.412C195.01 18.4492 196.878 19.6745 197.512 21.8841C198.565 25.5572 195.732 28.3283 192.865 28.292C187.407 28.2229 181.949 28.272 176.49 28.272C176.121 28.272 175.752 28.272 175.313 28.272C175.313 27.2267 175.313 26.2415 175.313 25.1307C175.717 25.1307 176.115 25.1307 176.514 25.1307C181.897 25.1307 187.28 25.132 192.664 25.1297C193.845 25.1292 194.314 24.646 194.313 23.4483C194.313 22.0564 193.882 21.5474 192.627 21.5446C188.178 21.5346 183.729 21.5418 179.28 21.5401C177.143 21.5393 175.079 20.2934 174.587 18.5253C173.646 15.1437 175.019 11.8573 179.163 11.7181C184.983 11.5225 190.814 11.6687 196.711 11.6687C196.711 12.7159 196.711 13.701 196.711 14.8093C196.303 14.8093 195.904 14.8093 195.505 14.8093C190.197 14.8093 184.888 14.8068 179.58 14.8107C177.914 14.8119 177.089 16.2227 177.953 17.6845C178.153 18.0223 178.665 18.3291 179.06 18.3672C180.06 18.4637 181.076 18.3993 182.197 18.3993Z" fill="#474747"/>
<path d="M140.909 26.6904C141.149 27.2246 141.374 27.6727 141.674 28.2702C140.416 28.2702 139.308 28.3123 138.207 28.24C137.939 28.2224 137.599 27.8775 137.459 27.5992C136.691 26.0664 135.975 24.5077 135.231 22.9368C130.726 22.9368 126.222 22.9368 121.647 22.9368C121.647 24.6911 121.647 26.3979 121.647 28.188C120.52 28.188 119.46 28.188 118.323 28.188C118.323 22.7492 118.323 17.2796 118.323 11.7268C118.627 11.7079 118.949 11.6707 119.271 11.6705C124.875 11.6669 130.48 11.6215 136.082 11.707C137.203 11.7241 138.359 12.1346 139.419 12.5625C140.484 12.9925 141.168 13.9423 141.334 15.0759C141.519 16.3477 141.673 17.6664 141.537 18.9321C141.367 20.5062 140.342 21.6492 138.943 22.4597C139.604 23.8632 140.249 25.2337 140.909 26.6904ZM127.111 19.9699C130.06 19.9699 133.009 19.9708 135.958 19.9696C137.65 19.9689 137.993 19.637 137.993 18.0042C137.993 17.4816 137.996 16.9589 137.993 16.4363C137.985 15.2009 137.589 14.8108 136.323 14.8101C131.731 14.8078 127.139 14.8084 122.547 14.8113C122.261 14.8115 121.974 14.8415 121.683 14.858C121.683 16.5917 121.683 18.2484 121.683 19.9699C123.463 19.9699 125.175 19.9699 127.111 19.9699Z" fill="#474747"/>
<path d="M69.109 22.8868C67.4327 22.8868 65.8686 22.8868 64.1934 22.8868C64.1934 24.6904 64.1934 26.4261 64.1934 28.2152C63.0497 28.2152 62.0152 28.2152 60.8936 28.2152C60.8936 22.7696 60.8936 17.2967 60.8936 11.7263C61.17 11.7087 61.4907 11.6707 61.8114 11.6705C67.4948 11.6669 73.1783 11.649 78.8615 11.6801C80.4291 11.6887 82.0035 11.9797 82.9681 13.356C83.5283 14.1553 83.9693 15.1574 84.0897 16.1153C84.2388 17.3022 84.1792 18.5824 83.8894 19.7423C83.3855 21.7588 81.7135 22.8853 79.6532 22.8863C76.1759 22.888 72.6985 22.8868 69.109 22.8868ZM64.9992 14.8092C64.7247 14.9538 64.2176 15.0896 64.2117 15.2445C64.1525 16.7962 64.1757 18.3511 64.1757 19.969C69.269 19.969 74.2295 19.9934 79.1893 19.9477C80.1446 19.9389 80.7092 19.2756 80.7705 18.2916C80.8029 17.7708 80.7783 17.2464 80.7764 16.7237C80.7708 15.2333 80.3582 14.8112 78.8821 14.8102C74.3267 14.8073 69.7712 14.8092 64.9992 14.8092Z" fill="#474747"/>
<path d="M110.619 26.0207C110.619 26.7986 110.619 27.4658 110.619 28.2022C109.496 28.2022 108.437 28.2022 107.268 28.2022C107.268 23.7679 107.268 19.3436 107.268 14.8099C106.316 14.8099 105.467 14.7902 104.62 14.8228C104.388 14.8317 104.156 14.986 103.936 15.0963C103.841 15.1438 103.776 15.2502 103.697 15.3285C99.5753 19.379 95.441 23.4165 91.3472 27.4946C90.77 28.0696 90.2143 28.3401 89.4035 28.2883C88.3636 28.2218 87.3162 28.2721 86.0391 28.2721C86.2715 27.8561 86.3741 27.5239 86.5912 27.3057C91.3609 22.5127 96.1467 17.7356 100.92 12.9466C101.836 12.0277 103.03 11.7608 104.211 11.6992C106.293 11.5906 108.385 11.6688 110.619 11.6688C110.619 16.453 110.619 21.1815 110.619 26.0207Z" fill="#474747"/>
<path d="M162.454 14.8094C161.527 14.8094 160.71 14.8094 159.79 14.8094C159.79 19.2969 159.79 23.7196 159.79 28.2066C158.551 28.2066 157.417 28.2066 156.177 28.2066C156.177 23.7614 156.177 19.3387 156.177 14.8494C152.872 14.8494 149.672 14.8494 146.384 14.8494C146.384 13.8011 146.384 12.8153 146.384 11.748C154.047 11.748 161.757 11.748 169.549 11.748C169.549 12.6916 169.549 13.676 169.549 14.8094C167.24 14.8094 164.903 14.8094 162.454 14.8094Z" fill="#474747"/>
<path d="M111.174 35.006C113.148 35.006 115.011 35.006 116.94 35.006C116.94 35.6106 116.94 36.1462 116.94 36.7884C113.845 36.7884 110.762 36.7884 107.694 36.7884C107.469 38.5506 107.508 38.5959 109.155 38.596C111.696 38.5962 114.237 38.5959 116.778 38.5961C118.438 38.5962 118.438 38.5965 118.273 40.3911C115.344 40.3911 112.403 40.3981 109.462 40.386C108.762 40.3831 108.044 40.4013 107.366 40.2593C106.254 40.0262 105.689 39.1332 105.604 38.1173C105.48 36.634 105.468 35.1208 105.617 33.6414C105.753 32.2842 106.962 31.4254 108.41 31.4194C111.212 31.4077 114.014 31.4158 116.817 31.416C118.388 31.4161 118.388 31.4165 118.318 33.211C117.677 33.211 117.025 33.211 116.372 33.211C113.981 33.211 111.59 33.2102 109.198 33.2112C107.63 33.2119 107.544 33.3035 107.625 35.006C108.764 35.006 109.913 35.006 111.174 35.006Z" fill="#474747"/>
<path d="M77.4885 34.401C77.7688 34.6715 78.0471 34.9853 78.3304 34.9898C80.7956 35.0288 83.2617 35.0123 85.7275 35.0123C86.0913 35.0123 86.455 35.0123 86.8642 35.0123C86.8642 35.6285 86.8642 36.1401 86.8642 36.7571C83.7955 36.7571 80.7128 36.7571 77.6516 36.7571C77.3652 38.2415 77.6446 38.6009 78.9956 38.6018C82.0499 38.6037 85.1042 38.6024 88.2074 38.6024C88.2074 39.2129 88.2074 39.7246 88.2074 40.3246C87.9503 40.3472 87.6662 40.3936 87.382 40.3941C84.3931 40.3994 81.4042 40.4027 78.4153 40.3954C76.6389 40.3911 75.6938 39.4412 75.6923 37.6844C75.6913 36.4515 75.6895 35.2185 75.6928 33.9856C75.6967 32.581 76.6586 31.4551 78.0291 31.4372C81.3872 31.3933 84.7461 31.4228 88.1809 31.4228C88.1809 32.0092 88.1809 32.5457 88.1809 33.2173C86.1187 33.2173 84.0393 33.2173 81.96 33.2173C80.9512 33.2173 79.9388 33.2704 78.9348 33.2011C78.0738 33.1417 77.5839 33.4243 77.4885 34.401Z" fill="#474747"/>
<path d="M38.1824 39.0447C37.8101 39.5196 37.4379 39.9945 36.952 40.5412C36.2219 41.1301 35.6054 41.6471 34.913 42.1477C30.9693 39.7852 27.5654 36.8774 24.4955 33.5688C24.3626 33.4256 24.3311 33.1884 24.3522 32.9904C25.052 32.9723 25.6519 32.9589 26.3553 32.9612C27.9595 33.0418 29.4602 33.1065 31.0365 33.2106C33.6954 34.7179 36.2787 36.186 38.8245 37.6328C38.5641 38.2054 38.3733 38.625 38.1824 39.0447Z" fill="#474747"/>
<path d="M133.281 35.3423C132.914 36.1086 132.548 36.7771 132.113 37.5704C132.456 38.2898 132.905 39.2338 133.365 40.1989C131.451 40.6586 131.308 40.6645 130.607 38.973C130.114 37.7837 129.44 37.3441 128.143 37.4396C126.4 37.568 124.641 37.4714 122.778 37.4714C122.778 38.4302 122.778 39.3433 122.778 40.3207C122.058 40.3207 121.447 40.3207 120.775 40.3207C120.775 37.3779 120.775 34.4489 120.775 31.4159C124.24 31.4159 127.667 31.3709 131.091 31.4394C132.357 31.4647 133.271 32.6246 133.281 33.8994C133.284 34.3477 133.281 34.796 133.281 35.3423ZM130.783 33.2162C128.119 33.2162 125.454 33.2162 122.814 33.2162C122.814 34.1892 122.814 35.0222 122.814 35.9007C125.16 35.9007 127.428 35.9317 129.694 35.8775C130.218 35.865 130.937 35.7157 131.21 35.3578C131.7 34.7125 131.618 33.9021 130.783 33.2162Z" fill="#474747"/>
<path d="M172.559 31.5194C175.313 31.441 177.999 31.3681 180.681 31.4362C182.202 31.4747 183.317 32.2949 183.318 34.1539C183.318 35.3475 183.326 36.5411 183.316 37.7346C183.303 39.2935 182.25 40.3755 180.712 40.3843C178.25 40.3983 175.789 40.4019 173.327 40.3831C171.697 40.3706 170.756 39.3891 170.753 37.7575C170.751 36.6013 170.818 35.4403 170.736 34.2899C170.637 32.9029 171.201 32.0308 172.559 31.5194ZM172.557 34.1248C172.554 35.206 172.519 36.2885 172.56 37.3681C172.585 38.0146 172.746 38.6077 173.626 38.5997C175.9 38.579 178.175 38.5811 180.449 38.6003C181.074 38.6056 181.32 38.3615 181.305 37.7398C181.279 36.6591 181.235 35.5725 181.317 34.4974C181.391 33.5125 180.996 33.1853 180.064 33.1987C177.977 33.2286 175.887 33.1704 173.801 33.2407C173.398 33.2543 173.009 33.6901 172.557 34.1248Z" fill="#474747"/>
<path d="M94.4276 31.4551C95.0317 31.9082 95.6484 32.2615 96.0319 32.7855C97.2167 34.4045 98.3809 36.0476 99.4129 37.7656C99.8968 38.5711 100.433 38.7211 101.327 38.5224C101.327 36.1972 101.327 33.8582 101.327 31.4742C102.014 31.4742 102.6 31.4742 103.264 31.4742C103.264 34.3956 103.264 37.327 103.264 40.3975C101.99 40.3975 100.684 40.5017 99.41 40.3469C98.8912 40.2838 98.3209 39.7448 97.9807 39.2732C96.7647 37.5877 95.573 35.8768 94.5056 34.0954C94.0298 33.3014 93.4912 33.1132 92.5918 33.2797C92.5918 35.597 92.5918 37.9375 92.5918 40.3387C91.8844 40.3387 91.2735 40.3387 90.5539 40.3387C90.5539 37.5921 90.5315 34.8732 90.5915 32.156C90.597 31.9069 91.113 31.4887 91.4207 31.4603C92.3842 31.3712 93.3615 31.4312 94.4276 31.4551Z" fill="#474747"/>
<path d="M63.9899 40.3948C62.1344 40.6286 60.5379 39.4334 60.7839 37.3587C60.9151 36.2532 60.8048 35.1193 60.8078 33.9983C60.8117 32.5403 61.8053 31.4423 63.2416 31.4294C66.5642 31.3995 69.8873 31.4199 73.2912 31.4199C73.2912 31.9981 73.2912 32.5348 73.2912 33.2147C72.3649 33.2147 71.4071 33.2147 70.4493 33.2147C68.2819 33.2147 66.1135 33.2546 63.9477 33.1958C63.0394 33.1711 62.7574 33.4839 62.8115 34.3607C62.8758 35.403 62.8672 36.4545 62.8136 37.498C62.7721 38.3059 63.0151 38.637 63.8794 38.6164C66.0082 38.5656 68.1397 38.569 70.2687 38.6152C71.0946 38.6331 71.4478 38.3748 71.3618 37.5297C71.313 37.0501 71.353 36.5615 71.353 35.9922C71.9937 35.9922 72.6051 35.9922 73.3681 35.9922C73.3681 36.7933 73.4352 37.6437 73.3515 38.4789C73.2419 39.5716 72.2242 40.3833 71.0467 40.3905C68.7299 40.4049 66.413 40.3948 63.9899 40.3948Z" fill="#474747"/>
<path d="M145.697 31.4131C146.807 31.4131 147.814 31.4131 148.905 31.4131C148.905 34.3759 148.905 37.304 148.905 40.3105C148.33 40.3105 147.719 40.3105 146.999 40.3105C146.999 37.9956 146.999 35.6606 146.999 33.338C145.978 32.9927 145.328 33.3259 144.674 34.0144C143.029 35.7478 141.309 37.4101 139.618 39.1006C138.115 40.6036 138.069 40.6177 135.672 40.2541C135.916 39.9609 136.097 39.7071 136.314 39.4894C138.66 37.1348 140.977 34.7479 143.391 32.4635C143.953 31.9316 144.85 31.7538 145.697 31.4131Z" fill="#474747"/>
<path d="M155.047 31.4131C158.064 31.4131 160.97 31.4131 163.948 31.4131C163.948 32.0056 163.948 32.5415 163.948 33.1854C162.224 33.1854 160.49 33.1854 158.652 33.1854C158.652 35.6184 158.652 37.9483 158.652 40.3322C157.936 40.3322 157.326 40.3322 156.649 40.3322C156.649 37.9838 156.649 35.681 156.649 33.2694C154.931 33.2694 153.273 33.2694 151.536 33.2694C151.536 32.6286 151.536 32.0935 151.536 31.4131C152.649 31.4131 153.792 31.4131 155.047 31.4131Z" fill="#474747"/>
<path d="M2.8748 8.09722C3.6747 15.8428 5.76514 23.2033 9.53141 30.0425C11.5677 33.7402 13.8944 37.2553 16.86 40.2849C18.9772 42.4477 21.2018 44.5055 23.3874 46.601C23.6211 46.8251 23.9144 46.9872 24.2106 47.2481C24.2393 47.4836 24.2375 47.6492 24.2358 47.8975C20.4642 45.1672 17.1896 41.8735 14.233 38.1997C11.1925 34.4215 8.80809 30.2803 6.80356 25.9136C5.06409 22.1243 3.88299 18.1286 3.15118 14.0172C2.79903 12.0387 2.54945 10.042 2.33398 7.97311C2.56797 7.96088 2.72139 8.02905 2.8748 8.09722Z" fill="#E4E4E6"/>
<path d="M22.9022 2.71963C22.9951 7.80814 23.8554 12.7266 25.8556 17.4493C27.9967 22.505 31.3124 26.6786 35.3747 30.2502C37.1631 31.8225 39.316 32.9803 41.3955 34.4002C41.5587 34.5791 41.6297 34.6842 41.7006 34.7892C41.297 34.7193 40.8126 34.7691 40.5027 34.5601C38.5056 33.2133 36.4134 31.9635 34.6032 30.3928C30.9276 27.2034 27.9561 23.4059 25.8693 18.9814C24.1787 15.3967 22.9378 11.6657 22.6664 7.67397C22.5585 6.08678 22.4983 4.49581 22.4515 2.90552C22.4431 2.62011 22.6061 2.32964 22.7884 2.13281C22.8919 2.38929 22.897 2.55446 22.9022 2.71963Z" fill="#ECEDEE"/>
<path d="M168.282 39.8808C167.682 40.1758 167.082 40.364 166.346 40.5951C166.346 37.407 166.346 34.4572 166.346 31.46C166.956 31.46 167.54 31.46 168.284 31.46C168.284 34.2221 168.284 36.998 168.282 39.8808Z" fill="#474747"/>
<path d="M27.5781 28.4844C26.5336 26.9506 25.428 25.4545 24.4565 23.8759C21.8331 19.6135 20.0101 15.0324 19.3083 10.0556C19.0059 7.91193 18.851 5.74745 18.7046 3.46098C18.9401 3.12758 19.1001 2.92561 19.2602 2.72363C19.2183 6.9814 19.8467 11.1524 21.1213 15.2006C22.3564 19.1234 24.2116 22.7636 26.6549 26.0873C27.1978 26.8257 27.7719 27.5412 28.2368 28.3752C27.9539 28.4835 27.766 28.484 27.5781 28.4844Z" fill="#ECEDEE"/>
<path d="M23.0028 2.71C22.8965 2.55471 22.8913 2.38954 22.8843 2.14172C25.6711 2.04652 28.4805 1.81589 31.2431 2.07867C34.4288 2.38171 37.573 3.12021 40.7586 3.78989C40.7211 4.01424 40.6601 4.11832 40.5992 4.2224C36.7938 3.4175 32.9876 2.63091 29.0653 2.68958C27.0786 2.7193 25.0911 2.69823 23.0028 2.71Z" fill="#E0E0E2"/>
<path d="M24.2515 32.9948C24.3302 33.1882 24.3618 33.4254 24.4946 33.5685C27.5645 36.8771 30.9684 39.785 34.9647 42.1921C35.1398 42.3822 35.1865 42.5111 35.2332 42.6401C34.7938 42.5323 34.2893 42.5286 33.9251 42.3007C30.1904 39.9639 26.9025 37.086 23.8993 33.8759C23.554 33.5068 23.2879 33.0636 22.916 32.5615C23.2796 32.5615 23.5553 32.5615 23.9307 32.6336C24.1041 32.802 24.1778 32.8984 24.2515 32.9948Z" fill="#ECECEE"/>
<path d="M35.4307 22.2131C32.237 18.4948 30.2532 14.1835 29.1736 9.43077C29.1415 9.28917 29.1707 9.13364 29.2428 8.88373C29.4796 8.8505 29.6448 8.91815 29.81 8.9858C30.3469 10.837 30.7463 12.7425 31.4524 14.5267C32.548 17.295 34.0922 19.8321 36.0328 22.14C35.7963 22.2106 35.6135 22.2119 35.4307 22.2131Z" fill="#EAEBEC"/>
<path d="M48.2641 17.8402C47.0005 17.4052 45.7421 16.8205 44.4316 16.3972C41.5133 15.4548 38.5689 14.5931 35.4734 13.6958C35.1397 13.6194 34.9677 13.5457 34.7957 13.4719C34.7034 13.297 34.6111 13.1222 34.4404 12.7988C39.229 13.6699 43.6364 15.1107 47.7932 17.2984C47.9752 17.3942 48.0963 17.6059 48.2641 17.8402Z" fill="#757779"/>
<path d="M31.4128 45.3641C28.0451 43.2477 25.0023 40.7357 22.2651 37.7221C22.3272 37.4664 22.388 37.3416 22.4488 37.2168C25.3213 40.1149 28.4289 42.728 31.8486 44.9619C31.9692 45.0406 32.1065 45.0938 32.174 45.2402C31.8788 45.3357 31.6458 45.3499 31.4128 45.3641Z" fill="#ECEDEE"/>
<path d="M38.2631 39.0441C38.3722 38.6249 38.563 38.2052 38.8234 37.6327C36.2776 36.1859 33.6943 34.7178 31.0373 33.1386C30.9665 32.9318 30.9694 32.836 30.9724 32.7402C32.1197 33.1871 33.3545 33.4882 34.3949 34.1131C36.2006 35.1977 37.886 36.4826 39.7694 37.7855C39.2728 38.2241 38.8088 38.6338 38.2631 39.0441Z" fill="#D1D2D3"/>
<path d="M44.9976 28.7162C45.581 27.0474 46.2586 25.3822 46.9119 23.7075C47.5801 21.9943 48.2245 20.2719 48.9162 18.4785C49.0705 18.601 49.3348 18.8545 49.284 18.9877C48.1078 22.0724 46.9046 25.1468 45.6778 28.2117C45.5924 28.4251 45.2851 28.5498 44.9976 28.7162Z" fill="#E9EAEB"/>
<path d="M34.7891 13.5569C34.9677 13.5453 35.1397 13.6191 35.3816 13.7089C36.7215 16.3903 38.1017 18.9728 40.5956 20.7443C40.899 20.9598 41.1519 21.2465 41.3572 21.539C40.4602 21.0761 39.4924 20.7139 38.8356 20.0459C37.037 18.2165 35.6602 16.0762 34.7891 13.5569Z" fill="#ECEDEE"/>
<path d="M22.4183 37.1491C22.3877 37.3418 22.3269 37.4666 22.2355 37.6537C20.415 35.5502 18.6171 33.3909 16.849 31.2075C16.6904 31.0117 16.2555 30.4997 17.1564 30.517C18.2877 31.9643 19.3079 33.4336 20.3962 34.8508C21.0017 35.6392 21.7205 36.3406 22.4183 37.1491Z" fill="#E6E6E8"/>
<path d="M50.6093 10.9957C50.5217 10.0166 50.5217 9.02507 50.5217 7.8064C49.1759 7.26104 47.6245 6.63239 46.0331 5.85197C45.996 5.59083 45.9991 5.48145 46.0022 5.37207C47.1963 5.82773 48.3728 6.33928 49.5894 6.72383C50.8877 7.13421 51.4258 7.93699 51.1589 9.25786C51.0412 9.84037 50.8531 10.4086 50.6093 10.9957Z" fill="#B3B4B7"/>
<path d="M27.4761 28.4857C27.7666 28.4836 27.9545 28.4832 28.2321 28.453C28.3216 28.4233 28.3142 28.4526 28.3163 28.5185C28.4456 28.6244 28.5727 28.6645 28.6997 28.7046C28.4906 28.8657 28.2911 29.1515 28.0708 29.1687C25.9541 29.3337 23.834 29.4534 21.6042 29.5137C21.4266 29.3494 21.3598 29.2575 21.293 29.1656C23.3198 28.9395 25.3467 28.7134 27.4761 28.4857Z" fill="#9B9C9F"/>
<path d="M44.4302 11.4805C45.9343 12.1096 47.4369 12.7423 48.9437 13.365C49.2425 13.4885 49.5571 13.574 49.9499 13.6643C50.1107 13.9045 50.1861 14.1574 50.2616 14.4103C49.9926 14.4053 49.6865 14.483 49.4606 14.3818C47.9543 13.7069 46.4651 12.9938 44.8927 12.1708C44.6868 11.8592 44.5585 11.6698 44.4302 11.4805Z" fill="#95979A"/>
<path d="M45.9499 5.30958C45.999 5.48223 45.9959 5.5916 45.9913 5.78306C44.2508 5.33133 42.5118 4.79752 40.6861 4.2433C40.6603 4.11881 40.7213 4.01473 40.8121 3.8584C42.5273 4.2862 44.2125 4.76626 45.9499 5.30958Z" fill="#C0C1C4"/>
<path d="M30.9147 32.6663C30.9698 32.8357 30.9669 32.9315 30.962 33.0991C29.4595 33.1061 27.9588 33.0414 26.3091 32.9156C26.0429 32.6837 25.9258 32.5127 25.8086 32.3418C27.4913 32.4254 29.1739 32.509 30.9147 32.6663Z" fill="#E7E7E9"/>
<path d="M29.9152 8.9779C29.6459 8.91857 29.4807 8.85092 29.2476 8.79192C29.2782 8.63718 29.373 8.33395 29.4757 8.33127C31.1184 8.28833 32.7687 8.24205 34.3336 9.13764C33.3767 9.12713 32.3674 9.03419 31.3563 8.9688C30.9125 8.9401 30.4651 8.96759 29.9152 8.9779Z" fill="#818284"/>
<path d="M35.46 22.2842C35.6143 22.2114 35.7971 22.2102 36.0711 22.207C37.2164 23.3031 38.2704 24.4012 39.3891 25.5387C39.3811 26.3637 39.0823 25.937 38.8326 25.6891C37.7156 24.5802 36.6028 23.4673 35.46 22.2842Z" fill="#D3D4D5"/>
<path d="M34.647 9.1709C35.822 9.27255 37.083 9.38414 38.3421 9.5148C38.6235 9.54401 38.8979 9.64013 39.2217 9.86074C39.2574 10.1273 39.247 10.2385 39.2366 10.3498C37.7352 9.96241 36.2338 9.57507 34.647 9.1709Z" fill="#CFD0D2"/>
<path d="M31.3781 45.4293C31.6453 45.35 31.8784 45.3358 32.1987 45.3125C31.0756 46.2782 29.8652 47.253 28.5728 48.2189C29.0279 47.6536 29.5509 47.0826 30.1072 46.546C30.4958 46.1711 30.93 45.8433 31.3781 45.4293Z" fill="#919396"/>
<path d="M19.2116 2.6543C19.1003 2.92541 18.9402 3.12738 18.7212 3.36024C17.8912 3.45487 17.12 3.5186 16.2325 3.5095C16.0514 3.27154 15.9866 3.10641 15.9219 2.94129C17.0022 2.82258 18.0825 2.70387 19.2116 2.6543Z" fill="#ACADB0"/>
<path d="M41.7635 34.7452C41.6296 34.6845 41.5587 34.5795 41.4741 34.4074C42.0149 33.516 42.5692 32.6917 43.202 31.8584C43.4214 33.1188 42.3983 33.7948 41.7635 34.7452Z" fill="#8A8C8E"/>
<path d="M44.3544 11.4435C44.5591 11.6695 44.6874 11.8589 44.8444 12.1114C43.9526 11.8571 43.0321 11.5397 41.9887 11.167C41.805 11.0734 41.7428 11.0373 41.6793 11.0035C41.6793 11.0035 41.5904 11.0017 41.5528 10.9119C41.5155 10.7212 41.5158 10.6204 41.5162 10.5195C42.4368 10.8153 43.3574 11.1111 44.3544 11.4435Z" fill="#AAACAF"/>
<path d="M11.5744 4.28809C10.6084 4.65824 9.54794 5.01715 8.39453 5.36206C9.36101 4.99098 10.4205 4.63391 11.5744 4.28809Z" fill="#95979A"/>
<path d="M2.91035 8.02267C2.72117 8.02884 2.56776 7.96067 2.35254 7.88012C2.83494 6.89748 3.75847 6.73381 4.82436 6.71484C4.24876 7.128 3.59743 7.53817 2.91035 8.02267Z" fill="#C4C5C7"/>
<path d="M15.8378 2.9668C15.9862 3.10628 16.0509 3.27141 16.1431 3.49772C15.3249 3.64311 14.4793 3.72732 13.5488 3.79417C13.9821 3.56417 14.4954 3.33818 15.0207 3.14506C15.2526 3.05982 15.509 3.04127 15.8378 2.9668Z" fill="#D6D7D8"/>
<path d="M21.2007 29.1689C21.3591 29.2574 21.4259 29.3493 21.5088 29.4967C20.745 29.7033 19.9652 29.8545 19.1274 29.9425C19.7494 29.6437 20.4293 29.408 21.2007 29.1689Z" fill="#AAACAF"/>
<path d="M35.2853 42.5848C35.1875 42.5105 35.1408 42.3816 35.0415 42.2079C35.6054 41.6463 36.222 41.1292 36.9172 40.6074C36.4428 41.2451 35.8896 41.8876 35.2853 42.5848Z" fill="#A0A1A4"/>
<path d="M41.4673 10.4527C41.5154 10.621 41.515 10.7219 41.5102 10.8982C40.9612 10.8315 40.4165 10.6893 39.7366 10.4913C39.4784 10.4038 39.3554 10.3721 39.2324 10.3404C39.2324 10.3404 39.2459 10.3401 39.2413 10.3451C39.2471 10.2388 39.2575 10.1276 39.2717 9.93262C39.99 10.0276 40.7045 10.2064 41.4673 10.4527Z" fill="#C0C1C4"/>
<path d="M25.7152 32.3262C25.9259 32.5121 26.043 32.6831 26.2057 32.8992C25.6513 32.9579 25.0514 32.9713 24.3516 32.9894C24.1781 32.8977 24.1044 32.8013 24.0146 32.6454C24.5396 32.4943 25.0806 32.4027 25.7152 32.3262Z" fill="#D5D6D7"/>
<path d="M28.6766 28.6279C28.5725 28.6653 28.4455 28.6252 28.3013 28.5167C28.4073 28.4824 28.5305 28.5164 28.6766 28.6279Z" fill="#ECEDEE"/>
<path d="M39.269 10.3999C39.356 10.3717 39.479 10.4033 39.6527 10.4743C39.5706 10.4957 39.4378 10.4778 39.269 10.3999Z" fill="#CFD0D2"/>
<path d="M41.7109 11.0518C41.7425 11.0378 41.8046 11.0739 41.9044 11.1496C41.8765 11.1578 41.8097 11.1287 41.7109 11.0518Z" fill="#C0C1C4"/>
<path d="M17.279 24.1958C16.3749 25.2482 15.0164 25.2932 13.8153 25.6237C13.7552 25.1572 13.7965 24.7843 13.6758 24.4746C13.1468 23.1184 12.4468 21.8172 12.0377 20.4286C11.1655 17.4681 10.4353 14.4658 9.64697 11.4806C9.74581 11.4661 9.84465 11.4517 10.1101 11.4393C11.1902 11.218 12.1036 10.9946 13.0166 10.8662C13.5322 13.1142 13.9172 15.3099 14.5996 17.4089C15.3501 19.7176 16.3741 21.9373 17.279 24.1958Z" fill="white"/>
<path d="M9.56569 11.4912C10.4351 14.4652 11.1653 17.4675 12.0375 20.4279C12.4466 21.8165 13.1466 23.1178 13.6755 24.4739C13.7963 24.7836 13.755 25.1565 13.7536 25.5806C12.5879 22.9084 11.3592 20.1909 10.3627 17.3907C9.76836 15.7206 9.52376 13.9237 9.16541 12.175C9.12562 11.9807 9.37134 11.728 9.56569 11.4912Z" fill="#E4E4E6"/>
<path d="M17.3572 24.2125C16.375 21.9368 15.3509 19.717 14.6004 17.4083C13.9181 15.3093 13.5331 13.1136 13.0693 10.8377C13.2224 10.5969 13.3231 10.4791 13.4238 10.3613C13.8399 12.128 14.1232 13.9397 14.7028 15.6511C15.6217 18.3643 16.7392 21.0102 17.7709 23.6852C17.8459 23.8796 17.9065 24.0795 18.0059 24.3709C17.7463 24.3068 17.5904 24.2682 17.3572 24.2125Z" fill="#E5E5E7"/>
<path d="M13.3981 10.2793C13.3228 10.4791 13.2221 10.5969 13.0695 10.7427C12.1041 10.994 11.1907 11.2174 10.1846 11.4258C10.9561 10.3863 12.1685 10.303 13.3981 10.2793Z" fill="#B7B8BB"/>
<path d="M126.999 19.9698C125.175 19.9698 123.463 19.9698 121.683 19.9698C121.683 18.2483 121.683 16.5916 121.683 14.8579C121.975 14.8415 122.261 14.8114 122.548 14.8112C127.14 14.8083 131.731 14.8077 136.323 14.81C137.589 14.8107 137.986 15.2008 137.993 16.4362C137.996 16.9588 137.994 17.4815 137.993 18.0041C137.993 19.6369 137.651 19.9688 135.959 19.9695C133.009 19.9707 130.06 19.9698 126.999 19.9698Z" fill="white"/>
<path d="M65.1081 14.8092C69.7719 14.8092 74.3273 14.8073 78.8828 14.8102C80.3588 14.8112 80.7715 15.2333 80.777 16.7237C80.779 17.2464 80.8036 17.7708 80.7712 18.2916C80.7099 19.2756 80.1453 19.9389 79.1899 19.9477C74.2301 19.9934 69.2697 19.969 64.1764 19.969C64.1764 18.3511 64.1531 16.7962 64.2123 15.2445C64.2182 15.0896 64.7254 14.9538 65.1081 14.8092Z" fill="white"/>
<path d="M130.879 33.2408C131.618 33.9017 131.7 34.7121 131.21 35.3574C130.937 35.7153 130.218 35.8646 129.694 35.8772C127.428 35.9313 125.16 35.9004 122.814 35.9004C122.814 35.0219 122.814 34.1888 122.814 33.2158C125.454 33.2158 128.119 33.2158 130.879 33.2408Z" fill="white"/>
<path d="M172.585 34.028C173.009 33.6901 173.398 33.2543 173.802 33.2407C175.887 33.1703 177.977 33.2286 180.065 33.1986C180.997 33.1853 181.392 33.5125 181.317 34.4974C181.236 35.5725 181.279 36.6591 181.306 37.7397C181.321 38.3615 181.074 38.6056 180.45 38.6003C178.175 38.5811 175.901 38.579 173.626 38.5997C172.746 38.6077 172.586 38.0146 172.561 37.368C172.519 36.2885 172.554 35.206 172.585 34.028Z" fill="white"/>
</g>
<defs>
<clipPath id="clip0_2540_12550">
<rect width="198.127" height="49.5878" fill="white"/>
</clipPath>
</defs>
</svg>
