<svg width="92" height="92" viewBox="0 0 92 92" fill="none" xmlns="http://www.w3.org/2000/svg">
<g clip-path="url(#clip0_2540_12626)">
<path d="M0.0756836 75.6924C0.320299 75.9084 0.212816 76.2523 0.259294 76.5466C0.738802 79.583 1.90792 82.3244 3.75641 84.7677C5.74872 87.4011 8.27178 89.3669 11.3182 90.6653C12.9177 91.347 14.5694 91.7981 16.297 91.9792C16.3533 91.985 16.4064 92.0208 16.489 92.0672C11.0432 92.0917 5.56927 92.0917 0.0756836 92.0917C0.0756836 86.6393 0.0756836 81.1869 0.0756836 75.6924Z" fill="#474747"/>
<path d="M75.6753 92.0918C76.0803 91.8636 76.5837 91.8975 77.0578 91.8131C79.0472 91.4591 80.9056 90.7472 82.6616 89.7812C83.8625 89.1206 84.9801 88.3223 85.9984 87.3902C87.3021 86.1969 88.4495 84.8746 89.3651 83.3634C90.6286 81.2781 91.5084 79.0448 91.8679 76.6205C91.9089 76.3436 91.9729 76.07 92.0504 75.7676C92.0746 81.1842 92.0746 86.6282 92.0746 92.0918C86.6222 92.0918 81.1698 92.0918 75.6753 92.0918Z" fill="#474747"/>
<path d="M16.475 0.09375C16.0379 0.314809 15.5091 0.297501 15.0052 0.394376C11.8152 1.00768 8.97866 2.37523 6.51561 4.46607C4.25446 6.38553 2.55545 8.74325 1.42498 11.5001C0.794985 13.0365 0.365881 14.6214 0.182551 16.2723C0.177925 16.314 0.146655 16.3527 0.101748 16.419C0.0756836 11.0013 0.0756836 5.55735 0.0756836 0.09375C5.52807 0.09375 10.9805 0.09375 16.475 0.09375Z" fill="#474747"/>
<path d="M92.0761 16.493C91.8422 16.257 91.9408 15.9032 91.8884 15.591C91.479 13.1538 90.6568 10.877 89.3402 8.78366C87.3173 5.56736 84.567 3.18033 81.1056 1.62102C79.4028 0.853912 77.6039 0.415919 75.7412 0.127803C81.1685 0.09375 86.6125 0.09375 92.0761 0.09375C92.0761 5.54613 92.0761 10.9985 92.0761 16.493Z" fill="#474747"/>
<path d="M33.048 70.1159C29.874 70.116 26.7441 70.0757 23.6161 70.132C21.93 70.1624 20.9627 68.7811 20.9676 67.4865C20.9952 60.0905 20.9803 52.6944 20.9758 45.2983C20.9757 45.1128 21.0378 44.9118 20.8949 44.7186C20.6142 44.8471 20.4137 45.0689 20.196 45.2648C19.4839 45.9053 18.7785 46.5532 18.0657 47.1929C17.1782 47.9894 16.1528 48.2392 15.0231 47.8525C13.8433 47.4487 13.2032 46.5629 13.0704 45.3449C12.9592 44.3258 13.2569 43.4062 14.0317 42.7057C18.717 38.4695 23.4115 34.2433 28.102 30.0128C31.5811 26.8749 35.0588 23.7355 38.5373 20.597C40.3708 18.9427 42.2001 17.2836 44.0404 15.6368C45.288 14.5202 46.8985 14.516 48.1448 15.6372C51.8277 18.9507 55.5001 22.2758 59.1788 25.5939C63.2243 29.2429 67.2727 32.8885 71.3189 36.5368C73.5977 38.5915 75.8782 40.6444 78.1504 42.7066C79.0944 43.5634 79.3777 44.6631 79.0643 45.8569C78.7219 47.1606 77.7917 47.8896 76.4529 48.038C75.6408 48.1281 74.9112 47.8579 74.2983 47.3239C73.4408 46.5768 72.6017 45.8086 71.7551 45.049C71.6355 44.9418 71.5383 44.799 71.3494 44.7929C71.1793 44.9776 71.2519 45.1977 71.2517 45.3965C71.2467 52.6578 71.2457 59.9191 71.2474 67.1804C71.2475 67.5715 71.2292 67.9595 71.1264 68.3368C70.8531 69.3398 69.8364 70.1302 68.6209 70.1275C58.8893 70.1053 49.1576 70.1149 39.4259 70.1149C37.3149 70.1149 35.2039 70.1155 33.048 70.1159ZM69.3132 62.3096C69.3129 61.6209 69.3124 60.9322 69.3123 60.2435C69.3113 54.6141 69.3104 48.9848 69.3094 43.3554C69.3094 43.0874 69.3264 42.8335 69.0803 42.621C68.4916 42.1124 67.9306 41.5719 67.3522 41.0512C63.0472 37.1763 58.7408 33.3031 54.4348 29.4294C51.7977 27.057 49.1565 24.6892 46.5288 22.3064C46.1869 21.9963 45.979 22.018 45.6376 22.3313C43.355 24.4256 41.0501 26.4955 38.7488 28.5695C35.5028 31.4949 32.2536 34.4168 29.0059 37.3404C27.1149 39.0426 25.2313 40.753 23.3263 42.4394C23.0265 42.7048 22.911 42.9672 22.9114 43.3598C22.9177 50.4414 22.9111 57.5231 22.9085 64.6047C22.9081 65.5629 22.9094 66.5211 22.92 67.4792C22.9258 67.9991 23.1042 68.1729 23.6278 68.186C24.0168 68.1957 24.4062 68.19 24.7955 68.1901C39.3331 68.1908 53.8707 68.1915 68.4082 68.1914C69.1342 68.1914 69.3125 68.0132 69.313 67.2952C69.3142 65.6633 69.3133 64.0313 69.3132 62.3096Z" fill="#474747"/>
<path d="M27.9491 72.4323C27.9562 72.6052 27.9659 72.7533 27.8705 72.8561C27.6256 73.1199 27.7381 73.3038 28.0029 73.4904C28.2831 73.1509 28.4016 72.7271 28.6155 72.3576C28.732 72.1563 28.7882 71.8748 29.0886 71.8797C29.3658 71.8842 29.4239 72.1447 29.5217 72.3404C29.7025 72.7017 29.8757 73.0669 30.0505 73.4311C30.119 73.5738 30.1605 73.7299 30.0123 73.8378C29.8438 73.9604 29.7202 73.861 29.5916 73.7274C29.2879 73.4117 28.8575 73.4324 28.5619 73.7577C28.3477 73.9935 27.6091 73.9544 27.3936 73.7031C27.254 73.5403 27.1971 73.2918 26.9399 73.2403C26.7886 73.3509 26.855 73.5213 26.8123 73.6569C26.7674 73.7993 26.7032 73.9089 26.5456 73.9158C26.3665 73.9236 26.2557 73.81 26.2391 73.6484C26.1886 73.1565 26.1959 72.6623 26.2408 72.1702C26.2479 72.0922 26.3109 71.9998 26.3757 71.9498C26.7779 71.6392 27.7399 71.9163 27.9491 72.4323ZM26.8997 72.6579C27.0582 72.7757 27.2149 72.7586 27.3183 72.6008C27.3895 72.4919 27.3004 72.3979 27.1869 72.3776C27.0157 72.3468 26.8475 72.3486 26.8997 72.6579Z" fill="#474747"/>
<path d="M46.3261 73.6448C46.2638 73.835 46.1721 73.9444 45.9865 73.8875C45.8359 73.8413 45.787 73.7125 45.7858 73.5702C45.7819 73.1215 45.7815 72.6729 45.7858 72.2243C45.7873 72.0601 45.8616 71.928 46.0306 71.8912C46.1845 71.8578 46.2865 71.9589 46.3571 72.0797C46.4997 72.3235 46.6336 72.5724 46.8159 72.8999C46.9657 72.631 47.085 72.4181 47.2029 72.2045C47.2907 72.0454 47.3785 71.861 47.5951 71.8989C47.8324 71.9403 47.8083 72.1537 47.81 72.3316C47.8137 72.7204 47.8145 73.1093 47.8119 73.4982C47.8108 73.6763 47.8331 73.8997 47.5786 73.9043C47.3045 73.9093 47.3086 73.6797 47.3043 73.4811C47.3024 73.3922 47.304 73.3032 47.304 73.1802C47.1047 73.3066 47.0884 73.5794 46.8517 73.6117C46.6022 73.6458 46.5486 73.4135 46.4235 73.273C46.3046 73.3785 46.381 73.5112 46.3261 73.6448Z" fill="#474747"/>
<path d="M44.753 72.4365C44.7386 72.5902 44.7622 72.7427 44.6968 72.8169C44.4843 73.0577 44.5305 73.2535 44.7184 73.4762C44.8169 73.593 44.8657 73.7473 44.7008 73.8667C44.5351 73.9867 44.3952 73.9296 44.2685 73.7933C44.0949 73.6064 44.0252 73.3157 43.7511 73.2287C43.6017 73.3505 43.6696 73.4993 43.6374 73.6231C43.5969 73.7786 43.5317 73.9103 43.3506 73.9156C43.174 73.9207 43.0585 73.8061 43.0436 73.6478C42.9978 73.1583 42.9986 72.6661 43.0495 72.1766C43.0576 72.0986 43.1189 72.0068 43.1833 71.9572C43.583 71.6498 44.539 71.9239 44.753 72.4365ZM43.7463 72.7054C43.9186 72.7559 44.0874 72.7544 44.1361 72.5484C44.1649 72.4268 44.0454 72.3754 43.9327 72.37C43.722 72.3598 43.6189 72.4405 43.7463 72.7054Z" fill="#474747"/>
<path d="M63.8314 72.639C63.8762 72.351 63.7117 71.9214 64.1034 71.9111C64.5283 71.9 64.404 72.3385 64.419 72.6147C64.4352 72.9129 64.4216 73.2128 64.419 73.5119C64.4175 73.6876 64.3702 73.8442 64.1856 73.9062C64.0092 73.9654 63.9093 73.8406 63.8127 73.7235C63.633 73.5058 63.4543 73.2872 63.2478 73.0356C63.1055 73.2369 63.1917 73.4359 63.1519 73.6099C63.1116 73.7858 63.0282 73.9333 62.8281 73.9141C62.6526 73.8973 62.5853 73.7509 62.5836 73.5876C62.5792 73.139 62.5788 72.6903 62.5831 72.2417C62.5846 72.0821 62.6423 71.9416 62.8121 71.8947C62.9647 71.8526 63.0667 71.9512 63.1549 72.0569C63.3271 72.2636 63.4936 72.475 63.6673 72.6804C63.7174 72.7397 63.784 72.7855 63.8314 72.639Z" fill="#474747"/>
<path d="M49.7377 73.0404C49.7378 72.8932 49.731 72.7883 49.74 72.6848C49.7684 72.3557 49.5975 71.9294 50.1644 71.8684C50.936 71.7854 51.513 72.0774 51.6429 72.6373C51.7679 73.1765 51.5249 73.6822 51.0556 73.8428C50.9442 73.8809 50.824 73.8972 50.7064 73.9129C49.848 74.0275 49.7412 73.9352 49.7377 73.0404ZM50.3304 72.7665C50.3304 72.8551 50.3314 72.9438 50.3303 73.0324C50.328 73.2224 50.343 73.4004 50.6009 73.3921C50.8766 73.3832 51.0482 73.2495 51.0714 72.9663C51.097 72.6541 50.9518 72.4587 50.6434 72.3921C50.3921 72.3379 50.3316 72.4853 50.3304 72.7665Z" fill="#474747"/>
<path d="M69.6878 72.8829C69.4802 73.0618 69.5503 73.2023 69.6717 73.3649C69.7853 73.5173 69.9299 73.7115 69.7044 73.8708C69.4615 74.0424 69.3305 73.8314 69.2004 73.6643C69.0754 73.5037 68.9891 73.3033 68.7861 73.2236C68.593 73.327 68.6773 73.4981 68.6498 73.633C68.6157 73.8003 68.5299 73.9105 68.3528 73.9087C68.2001 73.9071 68.0803 73.8133 68.0764 73.6661C68.063 73.1589 68.069 72.651 68.0752 72.1435C68.0758 72.0917 68.1177 72.0313 68.1567 71.9904C68.3274 71.8112 69.2072 71.8047 69.4955 71.998C69.8163 72.213 69.8805 72.5111 69.6878 72.8829ZM68.7475 72.4019C68.626 72.5441 68.6085 72.6763 68.8211 72.7284C68.9706 72.7649 69.1654 72.7342 69.1696 72.5565C69.1754 72.3191 68.9611 72.3695 68.7475 72.4019Z" fill="#474747"/>
<path d="M25.8257 71.9276C26.0762 72.4667 26.0428 73.0027 25.873 73.5109C25.7491 73.8819 25.3779 73.9695 25.0166 73.9529C24.6508 73.9361 24.3399 73.792 24.2193 73.4109C24.0903 73.003 24.1349 72.5813 24.1753 72.1656C24.1904 72.0094 24.2935 71.8796 24.4745 71.8903C24.6493 71.9005 24.7431 72.0267 24.7559 72.189C24.7769 72.4568 24.7739 72.7264 24.7863 72.995C24.7962 73.2112 24.8178 73.4533 25.1039 73.4408C25.3526 73.43 25.3819 73.2121 25.3823 73.0049C25.3829 72.7508 25.3745 72.4956 25.3933 72.2426C25.4106 72.009 25.5023 71.8304 25.8257 71.9276Z" fill="#474747"/>
<path d="M42.1824 73.0762C42.185 72.8141 42.1838 72.5901 42.1873 72.3662C42.1907 72.1504 42.2026 71.9073 42.4807 71.8963C42.7762 71.8846 42.7748 72.1339 42.7774 72.3477C42.7802 72.5865 42.7831 72.8256 42.7765 73.0644C42.7613 73.6171 42.4619 73.926 41.9228 73.9535C41.4083 73.9799 41.0752 73.7121 40.9871 73.1999C40.9308 72.8733 40.9447 72.545 40.9763 72.218C40.9933 72.0415 41.0734 71.8861 41.275 71.8897C41.4758 71.8933 41.5549 72.055 41.5674 72.2277C41.5868 72.4952 41.5752 72.7648 41.5882 73.0329C41.5969 73.2133 41.6115 73.4191 41.843 73.4458C42.0643 73.4714 42.1579 73.317 42.1824 73.0762Z" fill="#474747"/>
<path d="M67.5955 71.8725C67.789 71.9144 67.9406 71.9725 67.8981 72.1672C67.8578 72.3517 67.6864 72.3404 67.5369 72.3602C67.374 72.3819 67.1721 72.281 67.0467 72.511C67.1625 72.7376 67.3811 72.6354 67.553 72.6597C67.6925 72.6794 67.8395 72.6955 67.8522 72.8655C67.8665 73.0556 67.7161 73.097 67.5628 73.1402C67.3856 73.1902 67.0912 73.019 67.0495 73.3819C67.2411 73.5166 67.4403 73.425 67.6261 73.4484C67.7672 73.4662 67.9056 73.4958 67.9134 73.6678C67.9213 73.8409 67.7839 73.9007 67.6454 73.908C67.3482 73.9238 67.0494 73.9306 66.7521 73.9185C66.5472 73.9102 66.4305 73.7922 66.4261 73.5701C66.419 73.2122 66.3858 72.8543 66.3883 72.4966C66.392 71.9649 66.4936 71.8713 67.0186 71.8639C67.1977 71.8614 67.3769 71.8667 67.5955 71.8725Z" fill="#474747"/>
<path d="M56.0106 73.6868C55.6301 73.4569 55.278 73.3727 54.9778 73.766C54.884 73.8888 54.7619 73.9292 54.6223 73.8705C54.4597 73.8021 54.4607 73.6429 54.5139 73.5253C54.7408 73.0229 54.9613 72.5142 55.2378 72.039C55.3894 71.7787 55.6662 71.799 55.8153 72.0671C56.0764 72.5363 56.2986 73.0272 56.5317 73.5116C56.5975 73.6484 56.5761 73.7837 56.4364 73.8621C56.2538 73.9647 56.1249 73.8737 56.0106 73.6868Z" fill="#474747"/>
<path d="M34.2421 72.752C34.3663 73.0117 34.4818 73.2387 34.5817 73.4723C34.6425 73.6143 34.6736 73.7725 34.5039 73.8681C34.3432 73.9586 34.2313 73.8738 34.1189 73.7494C33.8156 73.4141 33.3801 73.4172 33.0627 73.7579C32.9463 73.8828 32.8269 73.9536 32.6722 73.8662C32.5036 73.7709 32.5343 73.6103 32.5989 73.4702C32.8055 73.0216 33.0039 72.5678 33.2408 72.1353C33.4433 71.7656 33.7323 71.783 33.9509 72.1578C34.056 72.3383 34.1357 72.5335 34.2421 72.752Z" fill="#474747"/>
<path d="M40.8409 73.7189C40.6751 73.9593 40.5276 73.9374 40.3551 73.7579C40.0168 73.4061 39.6313 73.4138 39.2724 73.7759C39.1642 73.885 39.0546 73.9355 38.9165 73.8631C38.7737 73.7882 38.7401 73.6495 38.8023 73.5176C39.037 73.0189 39.2643 72.5146 39.5375 72.0371C39.6748 71.7972 39.947 71.79 40.0836 72.0373C40.3768 72.5681 40.6985 73.0904 40.8409 73.7189Z" fill="#474747"/>
<path d="M35.4943 73.4582C35.719 72.997 35.9164 72.5611 36.1445 72.1418C36.341 71.7808 36.6137 71.7736 36.8129 72.1328C37.0588 72.5759 37.264 73.0416 37.4859 73.498C37.552 73.6341 37.5489 73.7672 37.4144 73.855C37.262 73.9545 37.1426 73.8884 37.0252 73.7633C36.7099 73.4274 36.2443 73.4133 35.9677 73.7359C35.8592 73.8625 35.7562 73.956 35.591 73.8788C35.4158 73.7969 35.444 73.6413 35.4943 73.4582Z" fill="#474747"/>
<path d="M61.3866 73.9403C61.0194 73.9284 60.8926 73.7459 60.9334 73.4374C60.981 73.0768 60.9164 72.7205 60.9089 72.3621C60.9021 72.0321 61.0568 71.8574 61.396 71.8634C61.6354 71.8677 61.8754 71.8619 62.1141 71.8771C62.2697 71.8871 62.4244 71.9447 62.4247 72.1339C62.4252 72.3415 62.253 72.3367 62.1022 72.3598C61.9252 72.3868 61.708 72.2755 61.5656 72.5115C61.6868 72.7395 61.9052 72.6349 62.0777 72.6587C62.2218 72.6786 62.3542 72.7077 62.3622 72.8805C62.3702 73.0537 62.2343 73.0951 62.0982 73.1309C61.917 73.1786 61.6781 73.0731 61.5393 73.319C61.7099 73.5196 61.9185 73.4356 62.0983 73.4582C62.2495 73.4773 62.422 73.4746 62.4212 73.6827C62.4204 73.8833 62.2464 73.9081 62.0986 73.9204C61.8753 73.9389 61.6502 73.9357 61.3866 73.9403Z" fill="#474747"/>
<path d="M23.5764 73.8528C23.1887 74.0112 22.8391 73.9784 22.5005 73.8219C22.3591 73.7564 22.2397 73.644 22.3059 73.4685C22.3775 73.2788 22.5267 73.3142 22.6799 73.373C22.8706 73.446 23.0667 73.5428 23.2657 73.3751C23.2347 73.133 23.0274 73.1865 22.8886 73.1383C22.5756 73.0294 22.2964 72.8924 22.3291 72.4918C22.3599 72.115 22.6256 71.9582 22.949 71.8795C23.2366 71.8095 23.5134 71.8653 23.767 72.0169C23.8949 72.0934 23.9651 72.2068 23.8959 72.3562C23.825 72.5094 23.7019 72.5189 23.5577 72.4568C23.3684 72.3753 23.176 72.2773 22.9461 72.4869C23.2954 72.7776 23.9715 72.6683 23.9776 73.3139C23.9799 73.5556 23.8236 73.7266 23.5764 73.8528Z" fill="#474747"/>
<path d="M48.1136 72.6077C48.1448 72.3409 48.0064 72.0279 48.3043 71.9318C48.6881 71.808 49.0981 71.8064 49.4885 71.9526C49.5816 71.9875 49.6028 72.0894 49.5798 72.1828C49.5502 72.3028 49.4488 72.3274 49.3415 72.3522C49.1399 72.3987 48.8924 72.2629 48.7164 72.4998C48.8427 72.7423 49.0622 72.6353 49.2351 72.6606C49.3747 72.6811 49.5204 72.6951 49.5329 72.868C49.547 73.0623 49.3963 73.1042 49.2411 73.1392C49.0615 73.1797 48.8123 73.0521 48.7078 73.3501C48.8909 73.5273 49.1101 73.43 49.3033 73.4554C49.4445 73.474 49.5846 73.4922 49.5924 73.6692C49.6001 73.8448 49.4631 73.8848 49.324 73.9107C49.3093 73.9135 49.2945 73.9159 49.2798 73.9186C48.3041 74.0964 48.1131 73.9403 48.1135 72.9652C48.1136 72.8604 48.1136 72.7556 48.1136 72.6077Z" fill="#474747"/>
<path d="M59.2894 72.1538C59.6636 71.8165 60.058 71.7766 60.4795 71.9512C60.6494 72.0216 60.8246 72.1238 60.7375 72.3483C60.6522 72.5683 60.4767 72.4878 60.3225 72.4216C60.0941 72.3235 59.8666 72.3156 59.7272 72.544C59.5881 72.7721 59.5919 73.043 59.7294 73.2697C59.8707 73.5027 60.098 73.4749 60.3245 73.3765C60.4798 73.3091 60.6581 73.2504 60.7362 73.4703C60.8074 73.6709 60.6517 73.7664 60.5 73.8435C60.0921 74.0509 59.5556 73.9531 59.2691 73.6216C58.9266 73.2254 58.9252 72.7048 59.2894 72.1538Z" fill="#474747"/>
<path d="M53.1581 73.8028C52.6602 73.3358 52.5608 72.7195 52.882 72.2578C53.1466 71.8777 53.7235 71.7412 54.1694 71.957C54.3355 72.0374 54.5135 72.1362 54.4157 72.3585C54.3229 72.5695 54.1496 72.486 53.995 72.4183C53.7646 72.3174 53.5496 72.3241 53.4086 72.5589C53.2694 72.7906 53.237 73.0401 53.409 73.2735C53.5543 73.4705 53.7453 73.4898 53.966 73.3951C54.1265 73.3262 54.3357 73.2176 54.4145 73.4709C54.489 73.7104 54.28 73.807 54.0945 73.8781C53.7857 73.9964 53.4814 73.9816 53.1581 73.8028Z" fill="#474747"/>
<path d="M65.9815 71.8689C66.18 71.9047 66.3128 71.9651 66.299 72.1591C66.2882 72.3112 66.1761 72.3537 66.0478 72.3579C65.7778 72.3668 65.7445 72.5445 65.7456 72.7583C65.7467 72.9972 65.7472 73.2366 65.7326 73.4749C65.7195 73.6879 65.6929 73.929 65.4017 73.9085C65.1276 73.8891 65.1032 73.6599 65.1019 73.4397C65.1005 73.2157 65.0934 72.9914 65.1012 72.7677C65.1095 72.5289 65.0668 72.3496 64.768 72.3645C64.6093 72.3725 64.5065 72.2855 64.5063 72.1249C64.5062 71.9575 64.6423 71.8852 64.7771 71.8792C65.1645 71.8619 65.553 71.8681 65.9815 71.8689Z" fill="#474747"/>
<path d="M32.1793 73.1906C32.1338 73.4803 32.3157 73.8959 31.8896 73.9017C31.4718 73.9074 31.5857 73.497 31.5846 73.2369C31.5832 72.9068 31.3334 72.7443 31.171 72.5216C31.0413 72.3438 30.8223 72.1603 31.0774 71.9515C31.3151 71.757 31.4439 72.0113 31.5859 72.1489C31.6707 72.231 31.7463 72.3227 31.8248 72.4089C32.0389 72.3774 32.1133 72.1943 32.2392 72.0772C32.3712 71.9545 32.4983 71.7863 32.6908 71.9531C32.8935 72.1289 32.7606 72.2911 32.642 72.4574C32.4805 72.6839 32.2223 72.848 32.1793 73.1906Z" fill="#474747"/>
<path d="M37.8647 73.2999C37.8642 73.0948 37.8565 72.9304 37.8648 72.7669C37.877 72.526 37.8241 72.353 37.5323 72.3585C37.3917 72.3612 37.2545 72.3299 37.2465 72.1491C37.2377 71.9528 37.3822 71.8832 37.536 71.8777C37.9378 71.8634 38.3405 71.8654 38.7427 71.8734C38.902 71.8766 39.0452 71.9489 39.0545 72.13C39.0634 72.3025 38.9275 72.3567 38.7832 72.3577C38.4845 72.3599 38.4574 72.5531 38.4619 72.7818C38.4663 73.0054 38.4632 73.2291 38.4617 73.4527C38.4603 73.6753 38.4275 73.8999 38.1458 73.8978C37.8832 73.8959 37.8647 73.6798 37.8651 73.4753C37.8652 73.4305 37.8648 73.3858 37.8647 73.2999Z" fill="#474747"/>
<path d="M57.965 73.4445C58.2593 73.7124 58.1476 73.8654 57.8499 73.9071C57.5859 73.9442 57.3134 73.933 57.0453 73.9236C56.8139 73.9155 56.6892 73.7667 56.6851 73.5439C56.677 73.1107 56.6786 72.677 56.6921 72.244C56.6974 72.0732 56.7663 71.9046 56.9687 71.8907C57.1965 71.8749 57.2784 72.0451 57.3021 72.2354C57.3224 72.3978 57.3182 72.5636 57.3192 72.7279C57.3229 73.351 57.322 73.351 57.965 73.4445Z" fill="#474747"/>
<path d="M30.8479 72.3564C30.8449 72.7498 30.839 73.106 30.8321 73.4621C30.828 73.6717 30.8482 73.919 30.5432 73.9092C30.296 73.9013 30.2489 73.6946 30.2471 73.4882C30.2438 73.1022 30.2438 72.7161 30.2471 72.33C30.2488 72.1291 30.2743 71.911 30.5222 71.8912C30.8138 71.868 30.8334 72.1027 30.8479 72.3564Z" fill="#474747"/>
<path d="M51.8898 73.461C51.8901 73.0329 51.888 72.6454 51.8933 72.2581C51.8961 72.0597 51.9707 71.8899 52.1959 71.8936C52.4249 71.8974 52.48 72.0751 52.4809 72.2713C52.4829 72.6736 52.4829 73.076 52.4832 73.4783C52.4834 73.6838 52.4572 73.8947 52.2005 73.9042C51.9443 73.9137 51.8977 73.7109 51.8898 73.461Z" fill="#474747"/>
<path d="M45.8218 47.7632C46.1276 47.9985 46.3171 48.2818 46.4783 48.5905C47.2057 49.9834 47.9366 51.3746 48.6674 52.7658C48.7427 52.9093 48.8259 53.0486 48.9516 53.2719C49.3805 52.4604 49.777 51.7153 50.1688 50.9677C50.6135 50.1194 51.0408 49.2617 51.5001 48.4214C51.908 47.6751 52.572 47.3649 53.2833 47.5433C54.0255 47.7295 54.4452 48.3158 54.447 49.1977C54.4511 51.0842 54.4475 52.9707 54.4471 54.8572C54.447 55.0207 54.447 55.1841 54.447 55.3556C54.7506 55.3681 54.8731 55.2809 54.7958 54.9705C54.6871 54.5337 54.7642 54.1549 55.2614 54.0036C55.49 53.9341 55.4438 53.7846 55.4269 53.6134C55.1616 50.9352 56.7152 48.8141 59.346 48.2767C59.9473 48.1539 60.5622 48.1244 61.1769 48.1387C61.3764 48.1433 61.5831 48.1905 61.7208 48.322C62.0075 48.596 62.3138 48.5557 62.673 48.5249C63.9804 48.4128 65.2825 48.1444 66.6037 48.3095C67.4561 48.416 67.7418 48.6802 67.9197 49.5224C67.9592 49.7096 68.0716 49.7949 68.1983 49.9014C68.5763 50.2191 68.5645 50.643 68.1539 50.9066C67.7245 51.1823 67.2587 51.2386 66.7865 51.006C66.281 50.7572 66.219 50.3051 66.6384 49.933C66.761 49.8242 66.9271 49.7465 66.8715 49.5417C66.8137 49.3292 66.623 49.3534 66.4652 49.3414C65.4461 49.2641 64.4359 49.3789 63.4257 49.4904C63.292 49.5051 63.1577 49.5368 63.0247 49.5315C62.584 49.5141 62.2785 49.6243 62.1018 50.1046C61.8991 50.656 61.4436 50.8709 60.8752 50.7894C58.4399 50.4403 57.7236 52.4018 58.1714 53.9485C58.3232 54.4727 58.5696 54.9461 58.9552 55.3435C59.6043 56.0124 60.3812 56.1213 61.2259 55.8413C61.8871 55.622 62.2982 55.7227 62.6977 56.2932C62.8127 56.4573 62.9034 56.6089 63.1441 56.6005C64.355 56.5582 65.5663 56.5263 66.7647 56.322C66.9423 56.2917 67.1475 56.2773 67.2229 56.0907C67.3072 55.8824 67.0794 55.8259 66.9751 55.7136C66.7196 55.4386 66.7666 55.1734 66.9976 54.917C67.3105 54.5696 67.9606 54.4162 68.4101 54.5774C68.9143 54.7582 69.0315 55.2408 68.6191 55.5852C68.3875 55.7786 68.2942 55.969 68.2893 56.2648C68.2809 56.775 67.9176 57.0235 67.49 57.182C66.837 57.4241 66.1458 57.467 65.4611 57.519C64.7307 57.5746 63.9975 57.5948 63.2653 57.6264C63.0487 57.6358 62.8732 57.65 62.7766 57.914C62.6827 58.1707 62.3821 58.2416 62.1507 58.2997C59.959 58.8499 57.9023 58.4874 56.4207 56.3455C56.2293 56.0687 56.0596 55.8528 55.6684 55.9898C55.4221 56.0761 55.2173 55.8831 54.9699 55.7524C54.7086 56.1489 54.4087 56.5128 54.4447 57.0341C54.4643 57.3181 54.4491 57.6025 54.3676 57.8797C54.2318 58.3413 53.9601 58.7491 53.49 58.8111C52.9208 58.8862 52.6498 59.2579 52.3332 59.6324C50.7131 61.549 48.7279 62.8614 46.2086 63.245C44.4006 63.5203 42.5994 63.3861 40.8075 63.0643C37.8658 62.536 35.0495 61.579 32.25 60.5643C32.1798 60.5389 32.1101 60.51 32.0438 60.4759C31.9234 60.414 31.7825 60.3515 31.8289 60.181C31.8814 59.9878 32.0376 59.9943 32.1934 60.0341C32.8453 60.2005 33.4957 60.3732 34.1487 60.5355C36.5025 61.1208 38.8781 61.5895 41.3017 61.7557C44.9775 62.0077 48.3928 61.3259 51.3163 58.9067C51.6496 58.6309 51.885 58.3996 51.5987 57.9552C51.4746 57.7626 51.5197 57.5177 51.5192 57.2941C51.5168 56.3385 51.5182 55.3828 51.4428 54.399C51.0983 55.0476 50.7539 55.6963 50.4091 56.3448C50.2539 56.6367 50.0911 56.9244 49.8172 57.1248C49.0595 57.6794 48.1109 57.4554 47.5931 56.5892C47.386 56.2428 47.2092 55.8781 47.0178 55.5222C46.8343 55.1808 46.6498 54.8399 46.441 54.4529C46.3289 54.6361 46.3693 54.7962 46.3683 54.9436C46.3626 55.782 46.3854 56.6212 46.3557 57.4586C46.3263 58.2862 45.8512 58.7977 45.0873 58.9014C44.3679 58.999 43.7681 58.6437 43.5205 57.9826C43.4007 57.6628 43.4338 57.3302 43.4333 57.0042C43.429 54.3841 43.4329 51.764 43.4396 49.144C43.4431 47.7777 44.5718 47.1098 45.8218 47.7632Z" fill="#474747"/>
<path d="M26.8569 47.5992C28.7099 47.222 30.4088 47.4561 31.9156 48.6026C32.5462 49.0824 32.7254 49.8129 32.4221 50.4852C32.1379 51.115 31.5278 51.3838 30.8609 51.1788C30.5552 51.0848 30.2916 50.9153 30.0324 50.7373C29.3385 50.2605 28.5631 50.1761 27.7547 50.2686C27.5307 50.2942 27.3189 50.3833 27.1342 50.516C26.7685 50.7788 26.7908 51.2044 27.1893 51.4116C27.6853 51.6695 28.2335 51.7712 28.7708 51.9023C29.5427 52.0906 30.3043 52.3111 31.011 52.6832C32.3177 53.3713 32.8819 54.5113 32.6916 55.9825C33.0966 55.1185 33.503 54.2553 33.9064 53.3906C34.6716 51.7501 35.4396 50.1107 36.1973 48.4667C36.5027 47.804 37.0473 47.4993 37.7329 47.4854C38.424 47.4713 38.9922 47.7729 39.2971 48.4226C40.6126 51.2264 41.9259 54.0313 43.2178 56.8459C43.588 57.6524 43.2599 58.3957 42.4452 58.7704C41.7152 59.1061 40.8834 58.7971 40.517 58.0419C40.3277 57.6517 40.1536 57.2537 39.9866 56.8534C39.8871 56.6148 39.7325 56.5171 39.4701 56.5195C38.3325 56.5298 37.1947 56.5281 36.0571 56.5223C35.8174 56.521 35.6705 56.603 35.5773 56.8341C35.4151 57.2362 35.2346 57.6316 35.045 58.0217C34.7028 58.7259 34.0143 59.0418 33.2955 58.8386C32.5426 58.6258 32.1222 58.0124 32.1841 57.2237C31.9474 57.45 31.7168 57.6912 31.464 57.9063C31.2197 58.1141 31.4022 58.2819 31.4896 58.456C32.3455 60.1594 31.1256 62.0833 29.2264 62.0216C27.9482 61.98 26.919 60.9162 26.9096 59.6267C26.9044 58.9231 26.9059 58.9175 26.2061 58.7392C25.4435 58.545 24.729 58.2515 24.1093 57.7567C23.5409 57.3027 23.3628 56.5444 23.6652 55.8979C24.0237 55.1317 24.8898 54.898 25.6839 55.4456C26.5628 56.0517 27.5111 56.2255 28.5395 56.1454C28.6439 56.1373 28.7526 56.141 28.8514 56.1121C29.1522 56.0242 29.4864 55.9598 29.5239 55.5585C29.5613 55.1583 29.216 55.1179 28.9662 55.0266C27.9965 54.6725 26.9574 54.5588 25.9951 54.1711C24.7724 53.6785 23.8833 52.9011 23.7745 51.5051C23.6462 49.8575 24.4128 48.6115 25.9342 47.9244C26.2193 47.7957 26.5243 47.7112 26.8569 47.5992ZM30.6521 59.6865C30.5296 60.4592 30.0156 60.8921 29.2682 60.8536C28.939 60.8367 28.6641 60.7021 28.4306 60.4743C28.0075 60.0614 28.0558 59.5361 28.1172 59.0206C27.8252 58.9091 27.6969 59.014 27.6362 59.2682C27.5561 59.6037 27.612 59.9213 27.7363 60.2319C28.0952 61.1287 29.1062 61.5494 29.9947 61.1745C30.883 60.7998 31.3079 59.7629 30.9138 58.8968C30.8082 58.6647 30.691 58.3654 30.301 58.6637C30.508 58.9514 30.6925 59.2441 30.6521 59.6865ZM38.4133 53.3332C38.2097 52.9001 38.0747 52.4316 37.7489 51.9567C37.468 52.5891 37.2236 53.1395 36.9519 53.7514C37.5269 53.7514 38.0211 53.7514 38.5126 53.7514C38.5625 53.6005 38.4743 53.5035 38.4133 53.3332Z" fill="#474747"/>
</g>
<defs>
<clipPath id="clip0_2540_12626">
<rect width="92" height="92" fill="white"/>
</clipPath>
</defs>
</svg>
