<svg width="162" height="36" viewBox="0 0 162 36" fill="none" xmlns="http://www.w3.org/2000/svg">
<path d="M14.4559 13.6168C13.1502 13.2438 11.8445 12.964 10.7253 12.964C9.69941 12.964 8.76678 13.1505 8.2072 13.5235C7.55435 13.8966 7.27456 14.4562 7.27456 15.2023C7.27456 16.0417 7.64762 16.6012 8.48699 17.0676C9.2331 17.5339 10.5388 18.0002 12.2175 18.4665C13.9895 19.0261 15.4818 19.5857 16.6942 20.052C17.8133 20.6116 18.8392 21.3577 19.7719 22.3836C20.6113 23.4095 21.0776 24.8084 21.0776 26.4872C21.0776 29.0053 20.1449 30.9638 18.1864 32.2695C16.2279 33.6685 13.803 34.3213 10.8186 34.3213C8.76678 34.3213 6.90151 34.0415 4.94297 33.3887C2.98444 32.9224 1.30569 31.9897 0 30.8706L2.14506 26.4872C3.26423 27.5131 4.66318 28.2592 6.34192 28.8188C7.92741 29.3784 9.51289 29.6581 10.9118 29.6581C12.031 29.6581 12.9636 29.4716 13.7097 29.0986C14.3626 28.7255 14.7356 28.0727 14.7356 27.3266C14.7356 26.3939 14.3626 25.7411 13.5232 25.2748C12.6838 24.8084 11.3782 24.3421 9.60615 23.7825C7.92741 23.223 6.52845 22.6634 5.40929 22.1971C4.29013 21.7307 3.35749 20.9846 2.51812 19.9587C1.67874 18.9328 1.30569 17.6271 1.30569 15.9484C1.30569 13.4303 2.23833 11.4717 4.1036 10.1661C5.96887 8.86037 8.30046 8.11426 11.0984 8.11426C12.7771 8.11426 14.5491 8.39405 16.1346 8.86037C17.8133 9.32669 19.3056 9.97953 20.6113 10.9122L18.3729 15.4821C17.0672 14.6427 15.7615 14.0831 14.4559 13.6168Z" fill="black"/>
<path d="M45.5132 10.8186C47.1919 12.5906 48.1245 15.0154 48.1245 18.0931V34.2277H41.7826V19.9584C41.7826 18.1864 41.223 16.6942 40.1971 15.6683C39.1712 14.6424 37.7723 14.0828 36.0003 14.0828C33.8552 14.0828 32.2697 14.8289 30.964 16.2279C29.7516 17.6268 29.0988 19.3988 29.0988 21.5439V34.2277H22.7568V0H29.0988V13.3367C30.8708 9.9792 34.0417 8.2072 38.4251 8.2072C41.5028 8.11393 43.8344 9.04657 45.5132 10.8186Z" fill="black"/>
<path d="M106.508 10.8186C108.187 12.5906 109.119 15.0154 109.119 18.0931V34.1345H102.777V19.8651C102.777 18.0931 102.218 16.6942 101.192 15.575C100.166 14.5491 98.7669 13.9895 96.9949 13.9895C94.8498 13.9895 93.2643 14.7356 91.9587 16.1346C90.7462 17.5336 90.0934 19.3056 90.0934 21.4506V34.1345H83.7515V0H90.0934V13.2434C91.8654 9.88594 95.0364 8.11393 99.4197 8.11393C102.404 8.11393 104.736 8.9533 106.508 10.8186Z" fill="black"/>
<path d="M131.688 9.793C133.74 10.9122 135.326 12.4044 136.445 14.3629C137.564 16.3215 138.124 18.5598 138.124 21.1712C138.124 23.7825 137.564 26.0209 136.445 28.0727C135.326 30.0312 133.74 31.6167 131.688 32.7358C129.637 33.855 127.305 34.4146 124.6 34.4146C121.896 34.4146 119.471 33.855 117.419 32.7358C115.367 31.6167 113.782 30.1245 112.569 28.0727C111.45 26.1141 110.891 23.7825 110.891 21.1712C110.891 18.5598 111.45 16.3215 112.569 14.3629C113.689 12.4044 115.367 10.8189 117.419 9.793C119.471 8.67384 121.896 8.11426 124.6 8.11426C127.305 8.11426 129.637 8.67384 131.688 9.793ZM119.284 15.6686C117.885 17.0676 117.233 19.0261 117.233 21.2644C117.233 23.596 117.885 25.4613 119.284 26.8602C120.683 28.2592 122.455 29.0053 124.6 29.0053C126.745 29.0053 128.517 28.2592 129.823 26.8602C131.222 25.4613 131.875 23.5028 131.875 21.2644C131.875 18.9328 131.222 17.0676 129.823 15.6686C128.424 14.2697 126.745 13.5235 124.6 13.5235C122.362 13.5235 120.59 14.1764 119.284 15.6686Z" fill="black"/>
<path d="M139.336 8.39355H160.974V12.4972L146.704 28.9115L161.347 29.0048V34.1343L138.87 34.041V29.9374L153.139 13.5231L139.336 13.4298V8.39355Z" fill="black"/>
<path fill-rule="evenodd" clip-rule="evenodd" d="M76.6636 8.76673C76.4771 8.5802 76.3838 8.30041 76.1973 8.20715C72.9331 5.59577 68.5497 4.38334 63.1404 5.5025C62.7673 5.7823 61.928 6.06208 61.2751 6.15535C61.1819 6.15535 61.1819 6.06209 61.1819 5.96882C61.1819 5.96882 61.1819 5.96882 61.1819 5.87556C61.6482 5.59577 62.2078 5.40924 62.301 5.22271C63.5135 4.75639 64.9124 4.4766 66.2181 4.4766C67.0575 4.38334 67.8968 4.38334 68.7362 4.4766C69.016 4.4766 69.3891 4.4766 69.6688 4.4766C70.5082 4.66313 71.3476 4.7564 72.187 5.03619C73.2129 5.31598 74.2388 5.78229 75.1714 6.24861H75.2647C75.731 6.43514 76.104 6.71493 76.5704 6.90146C77.876 7.83409 79.0885 9.13978 79.9278 10.7253C80.5807 10.9118 80.6739 12.031 81.3268 12.3107C81.1403 11.4714 80.8605 10.5387 80.3942 9.88589C78.8087 7.5543 75.2647 4.75639 72.8398 3.91702C71.8139 3.54397 70.2284 3.07765 69.2958 2.98439C68.9227 2.98439 68.643 3.26418 68.5497 2.89112C68.1766 2.98439 67.7103 3.26418 67.7103 2.79786C67.8036 2.79786 67.8968 2.7046 67.9901 2.7046C68.0834 2.7046 68.0834 2.7046 68.1766 2.7046C68.2699 2.7046 68.3632 2.7046 68.3632 2.61133C68.4564 2.61133 68.4564 2.51807 68.4564 2.51807C68.3632 2.51807 68.3632 2.4248 68.2699 2.4248C68.2699 2.4248 68.2699 2.4248 68.1766 2.4248C67.9901 2.4248 67.8968 2.4248 67.7103 2.4248C67.7103 2.4248 67.7103 2.4248 67.6171 2.4248C67.6171 2.4248 67.6171 2.4248 67.5238 2.4248H67.4305C67.3373 2.4248 67.244 2.4248 67.1507 2.4248C67.1507 2.4248 67.1507 2.4248 67.0575 2.4248C66.7777 2.4248 66.4046 2.4248 66.1248 2.4248C65.3787 2.4248 64.7259 2.42481 63.9798 2.61133C62.2078 2.79786 60.6223 3.63723 59.1301 4.4766C57.7311 5.12945 56.2389 5.68903 55.0265 6.80819C54.5602 7.18125 54.1871 7.64757 53.814 8.20715C51.4825 11.1916 49.9902 14.6423 49.8037 18.8392C49.897 21.2641 50.3633 24.1552 51.5757 26.5801C54.3736 31.9894 59.3166 35.1603 64.8191 35.9064C65.472 35.9997 66.3114 35.9997 66.8709 35.9997C68.9227 35.8132 72.0937 35.6266 73.3994 33.9479C74.4253 33.4816 75.3579 32.922 75.731 32.0826C75.4512 32.1759 75.4512 31.8961 75.3579 31.8961C75.4512 31.15 76.7569 30.5904 76.5704 29.9376C76.1973 30.0308 75.0781 30.6837 74.6118 30.7769C74.5186 30.3106 75.0781 30.2174 74.8916 29.8443C74.6118 29.8443 74.0522 30.3106 73.959 29.8443C74.4253 29.4712 74.6118 28.9117 74.8916 28.4453C72.3735 29.1915 68.4564 31.15 65.5653 30.6837C65.2855 30.7769 65.0057 30.8702 64.7259 30.8702C61.5549 30.2174 58.8503 28.2588 56.8917 24.9946C56.7985 24.6215 56.7052 24.3418 56.5187 23.9687C56.1456 23.6889 56.7985 23.3158 56.2389 23.2226C54.8399 17.9066 56.0524 13.9895 58.5705 11.0051C59.6896 9.97916 61.0886 9.04652 62.3943 8.5802C64.6326 7.74083 67.6171 7.08799 71.1611 7.83409C74.2388 9.04652 76.104 10.5387 77.7828 13.5232V13.6164C78.1558 14.176 78.5289 14.7356 78.7154 15.3884C78.7154 15.4817 78.8087 15.4817 78.8087 15.4817C78.9019 15.575 78.9019 15.575 79.0885 15.575C79.3683 15.4817 79.275 15.2019 79.275 15.0154C79.1817 14.3625 78.8087 13.6164 78.4356 13.0569C78.3424 12.8703 78.2491 12.6838 78.1558 12.4973V12.404C78.0626 12.3107 78.0626 12.2175 77.9693 12.1242C77.7828 11.8444 77.5963 11.6579 77.4097 11.3781C77.3165 11.2848 77.3165 11.1916 77.3165 11.0983C77.4097 11.0983 77.4097 11.0051 77.503 11.0983C77.5963 11.0983 77.5963 11.0983 77.6895 11.1916C78.0626 11.6579 78.3424 12.3107 78.8087 12.7771C78.9952 13.0569 79.0885 13.4299 79.275 13.7097C79.275 13.8962 79.3683 13.9895 79.4615 14.0828C79.4615 14.176 79.5548 14.2693 79.5548 14.3625C79.8346 15.0154 80.2076 15.575 80.3009 16.3211C80.4874 16.9739 80.4874 17.6268 80.5807 18.2796C80.5807 18.3729 80.5807 18.5594 80.5807 18.6527C80.5807 18.6527 80.5807 18.7459 80.5807 18.8392C80.5807 19.3988 80.5807 19.8651 80.4874 20.4247C80.5807 20.5179 80.674 20.5179 80.674 20.4247C80.674 20.5179 80.7672 20.6112 80.8605 20.7045C81.047 20.0516 80.9537 19.2123 81.1403 18.5594C81.047 16.0413 80.0211 13.0569 78.9019 11.5646C78.0626 10.3522 77.503 9.41958 76.6636 8.76673ZM61.4617 4.01029C61.4617 4.01029 61.6482 3.91702 61.7414 3.91702C62.1145 3.82376 62.4876 3.54397 62.8606 3.4507C62.9539 3.4507 63.1404 3.35744 63.2337 3.35744C63.6067 3.26418 63.8865 3.26418 64.2596 3.17091H64.3528C64.8191 3.07765 66.7777 2.7046 67.6171 2.98439C65.1922 3.4507 64.7259 3.35744 64.2596 3.4507C64.073 3.4507 63.9798 3.54397 63.9798 3.4507C63.3269 3.63723 62.7673 3.91702 62.2078 4.01029C62.1145 4.01029 61.8347 4.19681 61.6482 4.29008C61.2751 4.4766 60.529 4.56987 60.0627 4.75639C59.9694 4.19681 60.9021 4.19681 61.4617 4.01029Z" fill="black"/>
<path fill-rule="evenodd" clip-rule="evenodd" d="M80.5798 20.7044C80.3933 20.7044 80.5798 21.264 80.6731 21.1707C80.8596 21.1707 80.9529 20.5179 80.5798 20.7044Z" fill="#231F20"/>
<path fill-rule="evenodd" clip-rule="evenodd" d="M81.4199 12.6833C81.5132 12.8698 81.4199 13.4294 81.793 13.3361C81.9795 13.1496 81.6997 12.59 81.4199 12.6833Z" fill="#231F20"/>
<path fill-rule="evenodd" clip-rule="evenodd" d="M80.7661 21.543C80.7661 21.4497 80.7661 21.3564 80.6729 21.3564C80.5796 21.3564 80.3931 21.3564 80.3931 21.543C80.3931 21.6362 80.3931 21.6362 80.4863 21.7295C80.4863 21.8228 80.5796 21.8228 80.5796 21.8228C80.5796 21.7295 80.6729 21.7295 80.6729 21.6362C80.7661 21.6362 80.7661 21.543 80.7661 21.543Z" fill="#231F20"/>
<path fill-rule="evenodd" clip-rule="evenodd" d="M80.394 23.4097C80.394 23.3164 80.3008 23.1299 80.1143 23.1299C80.1143 23.1299 80.021 23.1299 80.021 23.2231C80.021 23.5029 79.7412 23.5962 79.8345 23.9693C79.9277 23.9693 80.021 23.9693 80.021 23.9693C80.1143 23.9693 80.1143 23.876 80.1143 23.7827L80.2075 23.6895C80.3008 23.5962 80.394 23.5029 80.394 23.4097Z" fill="#231F20"/>
<path fill-rule="evenodd" clip-rule="evenodd" d="M80.2998 22.0098C80.4863 22.3828 79.9268 22.8491 80.2998 23.0357C80.2998 22.7559 80.8594 22.103 80.2998 22.0098Z" fill="#231F20"/>
<path d="M69.0163 21.9219C68.9223 22.0158 69.0163 22.0158 69.0163 21.9219V21.9219Z" fill="#0B9949"/>
<path d="M66.1241 16.0425C66.0309 16.1358 65.8444 16.229 65.7511 16.229C65.6578 16.229 65.6578 16.3223 65.5646 16.3223C65.4713 16.4155 65.378 16.5088 65.2848 16.6953C65.1915 16.7886 65.1915 16.8819 65.0982 16.9751C65.0982 16.9751 65.0982 16.9751 65.0982 17.0684L65.005 17.1617C65.005 17.1617 65.005 17.2549 64.9117 17.2549C64.9117 17.2549 64.9117 17.2549 64.9117 17.3482V17.4414C64.9117 17.4414 64.9117 17.5347 64.8185 17.5347C64.8185 17.628 64.8185 17.628 64.8185 17.7212C64.8185 17.8145 64.8185 17.9078 64.7252 18.001C64.7252 18.001 64.7252 18.001 64.7252 18.0943V18.1876C64.7252 18.1876 64.7252 18.1876 64.7252 18.2808V18.3741C64.7252 18.7471 64.8185 19.0269 64.9117 19.4C64.9117 19.4932 64.9117 19.4932 65.005 19.5865C65.005 19.5865 65.005 19.6798 65.0982 19.6798L65.1915 19.773C65.2848 19.8663 65.378 20.0528 65.4713 20.1461C65.5646 20.2393 65.5646 20.3326 65.6578 20.4259C65.7511 20.5191 65.8443 20.6124 65.8443 20.6124C65.9376 20.7057 65.9376 20.7057 66.0309 20.7989C66.1241 20.7989 66.2174 20.8922 66.2174 20.8922C66.3107 20.9855 66.4039 20.9855 66.4972 21.0787C66.4972 21.0787 66.4972 21.0787 66.5905 21.0787H66.6837H66.777H66.8702C66.9635 21.0787 66.9635 21.172 67.0568 21.172C67.15 21.172 67.2433 21.172 67.2433 21.2652C67.3366 21.2652 67.4298 21.2652 67.5231 21.3585C67.5231 21.3585 67.5231 21.3585 67.6164 21.3585C67.3366 21.2652 66.9635 21.172 66.6837 21.0787C67.0568 21.2652 67.5231 21.3585 67.8962 21.4518C67.8962 21.4518 67.8962 21.4518 67.9894 21.4518C68.1759 21.4518 68.2692 21.4518 68.4557 21.4518C68.549 21.4518 68.549 21.4518 68.6423 21.4518H68.549C68.6423 21.4518 68.6423 21.4518 68.6423 21.4518C68.7355 21.4518 68.7355 21.4518 68.8288 21.4518C68.9221 21.4518 68.922 21.4518 69.0153 21.3585H69.1086C69.1086 21.3585 69.1086 21.3585 69.2018 21.3585C69.2018 21.3585 69.2951 21.3585 69.2951 21.2652C69.2951 21.2652 69.3884 21.2653 69.3884 21.172C69.3884 21.172 69.4816 21.172 69.3884 21.2652C69.2951 21.3585 69.1086 21.3585 69.0153 21.4518C68.922 21.4518 68.9221 21.545 68.8288 21.545H68.7355C68.6423 21.545 68.549 21.545 68.4557 21.545C68.3625 21.545 68.2692 21.545 68.1759 21.545C67.9894 21.6383 67.8961 21.6383 67.7096 21.545C67.5231 21.545 67.3366 21.545 67.15 21.4518H67.0568H66.9635C66.6837 21.4518 66.4972 21.2653 66.3107 21.172H66.2174C66.1241 21.172 66.1241 21.0787 66.0309 21.0787L65.9376 20.9855L65.8443 20.8922L65.7511 20.7989C65.6578 20.7989 65.6578 20.7057 65.5646 20.7057C65.378 20.5191 65.2848 20.4259 65.0982 20.2394C64.8185 19.9596 64.7252 19.5865 64.5387 19.2134V19.1202C64.5387 19.0269 64.5387 18.9337 64.4454 18.8404C64.4454 18.8404 64.4454 18.7471 64.4454 18.6539C64.4454 18.5606 64.4454 18.5606 64.4454 18.5606C64.4454 18.4673 64.4454 18.3741 64.4454 18.2808V18.1876C64.4454 18.1876 64.4454 18.1875 64.4454 18.0943C64.4454 18.0943 64.4454 18.0943 64.4454 18.001V17.9078C64.4454 17.8145 64.4454 17.7212 64.4454 17.628C64.4454 17.5347 64.4454 17.4414 64.4454 17.3482C64.1656 18.1876 64.2589 19.1202 64.6319 19.9596C64.9117 20.5191 65.378 20.9855 65.9376 21.3585C66.4039 21.6383 66.8702 21.8248 67.3366 21.8248C67.8961 21.9181 68.549 21.8248 69.1086 21.545C69.2018 21.545 69.2951 21.4518 69.3884 21.4518C69.4816 21.3585 69.5749 21.3585 69.6682 21.2652C69.7614 21.2652 69.7614 21.172 69.8547 21.0787L69.9479 20.9855C70.0412 20.9855 70.0412 20.8922 70.1345 20.8922C70.1345 20.8922 70.1345 20.8922 70.1345 20.7989C70.2277 20.7057 70.321 20.6124 70.4143 20.4259C70.4143 20.3326 70.5075 20.3326 70.5075 20.3326C70.6008 20.1461 70.6941 19.8663 70.7873 19.6798C70.7873 19.5865 70.8806 19.4932 70.8806 19.4V19.3067C70.8806 19.2135 70.8806 19.1202 70.8806 19.0269C70.8806 18.8404 70.8806 18.6539 70.8806 18.4673C70.8806 18.3741 70.8806 18.2808 70.8806 18.1876C70.8806 18.001 70.8806 17.9078 70.7873 17.7212C70.7873 17.628 70.6941 17.5347 70.6941 17.4414C70.6941 17.3482 70.6008 17.2549 70.6008 17.2549C70.6008 17.1617 70.5075 17.0684 70.5075 17.0684C70.4143 16.9751 70.4143 16.8819 70.321 16.8819C70.321 16.8819 70.2277 16.8819 70.2277 16.7886C70.0412 16.6953 69.948 16.5088 69.7614 16.4155C69.5749 16.229 69.2951 16.0425 69.1086 15.9492C69.0153 15.9492 69.0153 15.856 68.9221 15.856C68.9221 15.856 68.8288 15.856 68.8288 15.7627H68.7355C68.549 15.6694 68.4557 15.6694 68.2692 15.6694C68.1759 15.6694 68.0827 15.6694 68.0827 15.6694C68.0827 15.6694 68.0827 15.6694 67.9894 15.6694C67.9894 15.6694 67.9894 15.6694 67.8962 15.6694C67.8029 15.6694 67.8029 15.6694 67.7096 15.6694C67.6164 15.6694 67.4298 15.6694 67.3366 15.6694C67.4298 15.6694 67.5231 15.6694 67.5231 15.6694C67.4298 15.6694 67.3366 15.6694 67.2433 15.6694C67.2433 15.6694 67.2433 15.6694 67.15 15.6694C67.2433 15.5762 67.3366 15.5762 67.4298 15.5762H67.5231H67.6164C67.7096 15.5762 67.7096 15.5762 67.8029 15.5762C67.8961 15.5762 67.8962 15.5762 67.9894 15.5762H68.0827H68.1759C68.2692 15.5762 68.4557 15.5762 68.549 15.5762C68.6423 15.5762 68.7355 15.5762 68.8288 15.6694C68.9221 15.6694 68.922 15.6694 69.0153 15.6694C69.1086 15.6694 69.1086 15.6694 69.2018 15.7627C69.2951 15.7627 69.3884 15.856 69.4816 15.856C69.5749 15.9492 69.7614 15.9492 69.8547 16.0425C69.948 16.1358 70.1345 16.229 70.2277 16.3223C70.2277 16.3223 70.2277 16.3223 70.321 16.4155C70.321 16.4155 70.321 16.4155 70.4143 16.5088C70.5075 16.6021 70.6008 16.6953 70.6941 16.7886C70.7873 16.8819 70.7873 16.8819 70.8806 16.9751C71.1604 17.2549 71.3469 17.628 71.3469 18.001V18.0943V18.1876C71.3469 17.8145 71.1604 17.3482 70.9738 16.9751C69.9479 15.856 67.8029 15.2031 66.1241 16.0425Z" fill="black"/>
<path d="M78.249 17.8132C78.1557 17.2537 78.0624 16.7873 77.8759 16.321C77.6894 15.5749 77.4096 14.8288 77.2231 14.176C77.2231 14.176 77.2231 14.0827 77.1298 14.0827C77.0365 13.9894 76.9433 13.8962 76.85 13.8029C76.7568 13.6164 76.5702 13.5231 76.5702 13.3366C76.5702 13.2433 76.477 13.0568 76.3837 12.9635C76.3837 12.9635 76.3837 12.9635 76.3837 12.8703C75.8241 12.2174 75.3578 11.6578 74.705 11.0983C74.0521 10.5387 73.306 10.0724 72.5599 9.6993C72.5599 9.6993 72.4666 9.6993 72.4666 9.60604C71.7205 9.23299 70.9744 8.85993 70.2283 8.6734C69.6687 8.48688 69.1091 8.30035 68.4563 8.30035C67.8967 8.20709 67.4304 8.30035 66.8708 8.39361C66.1247 8.48688 65.4719 8.6734 64.7257 8.85993C64.0729 9.04646 63.4201 9.23298 62.8605 9.51278C62.3942 9.6993 61.9278 9.97909 61.5548 10.1656C60.3424 10.8185 59.4097 11.7511 58.6636 12.777C58.4771 13.0568 58.3838 13.2433 58.1973 13.5231C57.5445 14.6423 57.0781 15.8547 56.8916 17.0671C56.7983 17.5334 56.7051 17.9998 56.7051 18.4661C56.7051 18.8391 56.7051 19.3055 56.7051 19.6785C56.7983 20.1448 56.8916 20.7044 56.9849 21.1707C57.0781 21.7303 57.2647 22.2899 57.3579 22.8495C57.3579 22.8495 57.3579 22.8495 57.3579 22.9427C57.3579 23.036 57.3579 23.036 57.3579 23.1293C57.4512 23.409 57.5445 23.6888 57.6377 23.9686C57.8242 24.2484 58.0108 24.6215 58.1973 24.9013C58.2906 24.9945 58.4771 25.1811 58.5703 25.3676C58.6636 25.4608 58.7569 25.5541 58.7569 25.6474C58.8501 25.7406 58.9434 25.9272 59.0367 26.0204C59.6895 26.9531 60.4356 27.6992 61.3683 28.2588C62.7672 29.1914 64.2594 29.6577 65.9382 29.8442C66.218 29.8442 66.4978 29.9375 66.7775 29.9375C67.3371 30.0308 67.8034 29.9375 68.363 29.9375C68.6428 29.9375 69.0159 29.8442 69.2957 29.751C70.0418 29.5644 70.6946 29.3779 71.4407 29.2847C71.7205 29.1914 71.7205 29.1914 72.0003 29.0049C72.1868 28.8183 72.4666 28.7251 72.7464 28.7251H72.8397C73.1195 28.5385 73.3993 28.352 73.6791 28.0722C73.9588 27.8857 74.1454 27.6992 74.4252 27.5126C74.7982 27.2329 75.1713 26.9531 75.5443 26.58C76.1039 26.0204 76.5702 25.3676 76.9433 24.7147C77.2231 24.3417 77.4096 23.8754 77.5961 23.409C78.1557 22.1034 78.3422 20.7044 78.4355 19.0257C78.3422 18.6526 78.3422 18.1863 78.249 17.8132ZM72.4666 22.6629C72.1868 24.6215 71.8138 26.3002 71.8138 26.3935L71.7205 27.0463L71.2542 26.8598H71.1609C71.0677 26.8598 69.4822 26.1137 67.7102 25.1811C65.2853 23.8754 63.7931 22.6629 63.3268 21.7303V21.637C63.3268 21.5438 63.2335 21.5438 63.2335 21.4505C63.2335 21.4505 63.2335 21.3572 63.1403 21.3572C62.0211 19.1189 62.8605 16.4143 65.0055 15.1086C65.0988 15.0153 65.2853 14.9221 65.4719 14.8288C66.218 14.4557 66.9641 14.2692 67.8034 14.2692C69.6687 14.2692 71.3475 15.2951 72.0936 16.8806C72.0936 16.9739 72.1868 16.9739 72.1868 17.0671C72.1868 17.0671 72.2801 17.1604 72.2801 17.2537C72.6532 17.9998 72.7464 19.865 72.4666 22.6629Z" fill="black"/>
<path d="M68.8286 22.1032C68.7354 22.1964 68.8286 22.1964 68.8286 22.1032V22.1032ZM71.067 26.7663C70.9737 26.7663 69.3882 26.0202 67.6162 25.0876C65.1914 23.7819 63.6992 22.5695 63.2328 21.6368V21.5436C63.2328 21.4503 63.1396 21.4503 63.1396 21.3571C63.1396 21.3571 63.1396 21.2638 63.0463 21.2638C62.6732 20.6109 62.58 19.8648 62.58 19.1187C62.58 19.0255 62.58 18.9322 62.58 18.8389C62.58 18.7457 62.58 18.7457 62.58 18.6524C62.58 18.5591 62.58 18.5591 62.58 18.4659V18.3726C62.58 18.3726 62.58 18.3726 62.58 18.2794C62.58 18.1861 62.58 18.1861 62.58 18.0928C62.58 18.0928 62.58 18.0928 62.58 17.9996V17.9063V17.813V17.7198C62.58 17.6265 62.6732 17.5332 62.6732 17.44C62.6732 17.44 62.6733 17.3467 62.7665 17.3467C62.7665 17.3467 62.7665 17.2535 62.8598 17.2535C62.8598 17.2535 62.8598 17.1602 62.953 17.1602C62.953 17.1602 62.953 17.1602 62.953 17.0669C62.953 17.0669 62.953 16.9737 63.0463 16.9737L63.1396 16.8804L63.2328 16.7871L63.3261 16.6939L63.4194 16.6006L63.5126 16.5073L63.6059 16.4141L63.6992 16.3208L63.7924 16.2276L63.8857 16.1343L63.9789 16.041L64.0722 15.9478L64.1655 15.8545L64.2587 15.7612L64.352 15.668L64.4453 15.5747L64.5385 15.4814C64.4453 15.4814 64.4453 15.5747 64.352 15.5747C61.9271 16.7871 60.9012 19.7716 62.1137 22.1032C62.1137 22.1032 62.1137 22.1964 62.2069 22.1964C62.2069 22.1964 62.2069 22.2897 62.3002 22.383V22.4762C62.7665 23.4089 64.2587 24.6213 66.6836 25.927C68.4556 26.8596 70.0411 27.6057 70.1343 27.6057L70.6939 27.8855L71.067 26.7663ZM70.8804 19.3053C70.8804 19.212 70.8804 19.1187 70.8804 19.0255C70.8804 18.8389 70.8804 18.7457 70.7872 18.5591C70.7872 18.4659 70.6939 18.3726 70.6939 18.2794C70.6939 18.1861 70.6007 18.0928 70.6007 18.0928C70.6007 17.9996 70.5074 17.9063 70.5074 17.9063C70.4141 17.813 70.4141 17.7198 70.3209 17.7198C70.3209 17.7198 70.2276 17.7198 70.2276 17.6265C70.0411 17.5332 69.9478 17.3467 69.7613 17.2535C69.5748 17.0669 69.295 16.8804 69.1084 16.7871C69.0152 16.7871 69.0152 16.6939 68.9219 16.6939C68.9219 16.6939 68.8286 16.6939 68.8286 16.6006H68.7354C69.3882 16.8804 70.0411 17.44 70.4141 18.1861C70.6007 18.5591 70.6939 18.9322 70.7872 19.3985V19.3053V19.212C70.6939 18.8389 70.5074 18.4659 70.3209 18.1861C70.3209 18.0928 70.2276 18.0928 70.1343 17.9996C70.0411 17.9063 69.9478 17.813 69.8545 17.7198C69.8545 17.7198 69.8545 17.7198 69.7613 17.6265C69.7613 17.6265 69.7613 17.6265 69.668 17.5332C69.5748 17.44 69.3882 17.3467 69.295 17.2535C69.2017 17.1602 69.1084 17.0669 68.9219 17.0669C68.8286 16.9737 68.7354 16.9737 68.6421 16.9737C68.5489 16.9737 68.5489 16.8804 68.4556 16.8804C68.3623 16.8804 68.3623 16.8804 68.2691 16.8804C68.1758 16.7871 68.0825 16.7871 67.9893 16.7871C67.8027 16.7871 67.7095 16.7871 67.523 16.7871H67.4297C67.3364 16.7871 67.3364 16.7871 67.2432 16.7871C67.1499 16.7871 67.1499 16.7871 67.0566 16.7871H66.9634H66.8701C66.7768 16.7871 66.5903 16.7871 66.5903 16.8804C66.5903 16.8804 66.5903 16.8804 66.6836 16.8804C66.7768 16.8804 66.8701 16.8804 66.9634 16.8804C66.8701 16.8804 66.7768 16.8804 66.7768 16.8804C66.8701 16.8804 67.0566 16.8804 67.1499 16.8804C67.2432 16.8804 67.2432 16.8804 67.3364 16.8804C67.3364 16.8804 67.3364 16.8804 67.4297 16.8804C67.4297 16.8804 67.4297 16.8804 67.523 16.8804C67.6162 16.8804 67.7095 16.8804 67.7095 16.8804C67.896 16.8804 67.9893 16.9737 68.1758 16.9737H68.2691C68.2691 16.9737 68.3623 16.9737 68.3623 17.0669C68.4556 17.1602 68.4556 17.1602 68.5489 17.1602C68.8286 17.3467 69.0152 17.44 69.2017 17.6265C69.3882 17.7198 69.4815 17.9063 69.668 17.9996C69.668 17.9996 69.7613 17.9996 69.7613 18.0928C69.8545 18.1861 69.8545 18.2794 69.9478 18.2794C69.9478 18.3726 70.0411 18.3726 70.0411 18.4659C70.0411 18.5591 70.1343 18.5591 70.1343 18.6524C70.1343 18.7457 70.2276 18.8389 70.2276 18.9322C70.2276 19.1187 70.2276 19.212 70.3209 19.3985C70.3209 19.4918 70.3209 19.585 70.3209 19.6783C70.3209 19.8648 70.3209 20.0514 70.3209 20.2379C70.3209 20.3312 70.3209 20.4244 70.3209 20.5177V20.6109C70.3209 20.7042 70.3209 20.7975 70.2276 20.8907C70.1343 21.1705 70.0411 21.3571 69.9478 21.5436L69.8545 21.6368C69.7613 21.7301 69.668 21.8234 69.5748 22.0099C69.5748 22.0099 69.5748 22.0099 69.5748 22.1032C69.5748 22.1964 69.4815 22.1964 69.3882 22.1964L69.295 22.2897C69.2017 22.2897 69.2017 22.383 69.1084 22.383C69.1084 22.383 69.2017 22.383 69.2017 22.2897C69.2017 22.2897 69.295 22.2897 69.295 22.1964C69.3882 22.1032 69.4815 22.1032 69.5748 22.0099C69.668 22.0099 69.668 21.9166 69.7613 21.8234L69.8545 21.7301C69.9478 21.7301 69.9478 21.6368 70.0411 21.6368C70.0411 21.6368 70.0411 21.6368 70.0411 21.5436C70.1343 21.4503 70.2276 21.3571 70.3209 21.1705C70.3209 21.0773 70.4141 21.0773 70.4141 21.0773C70.5074 20.8907 70.6007 20.6109 70.6939 20.4244C70.6939 20.3312 70.7872 20.2379 70.7872 20.1446V20.0514C70.7872 19.9581 70.7872 19.8648 70.7872 19.7716C70.8804 19.585 70.8804 19.4918 70.8804 19.3053ZM68.8286 22.1964C68.8286 22.1032 68.8286 22.1032 68.8286 22.1964C68.7354 22.1964 68.7354 22.1964 68.7354 22.1964C68.7354 22.1964 68.6421 22.1964 68.6421 22.2897C68.6421 22.2897 68.6421 22.2897 68.5489 22.2897H68.4556C68.3623 22.2897 68.3623 22.2897 68.2691 22.383C68.1758 22.383 68.1758 22.383 68.0825 22.383C68.0825 22.383 67.9893 22.383 67.896 22.383H67.9893H68.0825C67.9893 22.383 67.9893 22.383 67.9893 22.383C67.9893 22.383 67.896 22.383 67.8027 22.383C67.6162 22.383 67.523 22.383 67.3364 22.383C67.3364 22.383 67.3364 22.383 67.2432 22.383C66.8701 22.2897 66.4038 22.1964 66.0307 22.0099C66.3105 22.1032 66.5903 22.1964 66.9634 22.2897C66.9634 22.2897 66.9634 22.2897 66.8701 22.2897C66.7768 22.2897 66.6836 22.2897 66.5903 22.1964C66.4971 22.1964 66.4038 22.1964 66.4038 22.1032C66.3105 22.1032 66.3105 22.0099 66.2173 22.0099H66.124C66.124 22.0099 66.124 22.0099 66.2173 22.0099C66.2173 22.0099 66.2173 22.0099 66.3105 22.0099C66.4038 22.1032 66.4971 22.1032 66.5903 22.1032H66.6836C66.6836 22.1032 66.6836 22.1032 66.7768 22.1032C66.8701 22.1032 66.9634 22.1964 67.0566 22.1964C67.0566 22.1964 67.0566 22.1964 67.1499 22.1964C67.2432 22.1964 67.2432 22.1964 67.3364 22.1964C67.3364 22.1964 67.3364 22.1964 67.4297 22.1964C67.523 22.1964 67.523 22.1964 67.6162 22.1964H67.7095C67.8027 22.1964 67.896 22.1964 67.9893 22.1964C68.0825 22.1964 68.1758 22.1964 68.2691 22.1964C68.3623 22.1964 68.4556 22.1964 68.6421 22.1964C68.7354 22.1964 68.8286 22.1032 68.9219 22.1032C68.5489 22.383 68.7354 22.2897 68.8286 22.1964Z" fill="black"/>
</svg>
