<svg width="126" height="21" viewBox="0 0 126 21" fill="none" xmlns="http://www.w3.org/2000/svg">
<path id="Vector" d="M6.22151 15.6954C6.00895 15.6954 5.82277 15.6217 5.66328 15.4743C5.51683 15.3135 5.4439 15.126 5.4439 14.9116V0H6.99913V14.9116C6.99913 15.126 6.9262 15.3135 6.77974 15.4743C6.63359 15.6217 6.44741 15.6954 6.22151 15.6954ZM0.718026 1.42686C0.505167 1.42686 0.332329 1.35987 0.199514 1.22587C0.0667002 1.09189 0 0.924427 0 0.723467C0 0.509092 0.0667002 0.334933 0.199514 0.20096C0.332329 0.0669865 0.505167 0 0.718026 0H11.7452C11.9577 0 12.1306 0.0669865 12.2634 0.20096C12.3965 0.334933 12.4629 0.509092 12.4629 0.723467C12.4629 0.924427 12.3965 1.09189 12.2634 1.22587C12.1306 1.35987 11.9577 1.42686 11.7452 1.42686H0.718026ZM14.8082 11.2139C14.5689 11.2139 14.3762 11.1402 14.2298 10.9928C14.097 10.8454 14.0306 10.6579 14.0306 10.4301V0.783761C14.0306 0.542585 14.097 0.355041 14.2298 0.221038C14.3762 0.0736791 14.5689 0 14.8082 0C15.0341 0 15.2137 0.0736791 15.3466 0.221038C15.4927 0.355041 15.5659 0.542585 15.5659 0.783761V10.4301C15.5659 10.6579 15.4927 10.8454 15.3466 10.9928C15.2137 11.1402 15.0341 11.2139 14.8082 11.2139ZM23.3827 15.6954C23.1565 15.6954 22.9703 15.6217 22.8242 15.4743C22.678 15.3269 22.6048 15.1461 22.6048 14.9317V9.7066C22.6048 8.87596 22.4453 8.19268 22.1263 7.65676C21.8206 7.12087 21.3952 6.71892 20.85 6.45097C20.3185 6.18302 19.7134 6.04905 19.0354 6.04905C18.3841 6.04905 17.7926 6.17633 17.2608 6.43086C16.7423 6.68542 16.3302 7.03377 16.0246 7.47591C15.7189 7.91801 15.5659 8.42044 15.5659 8.98314H14.469C14.4957 8.13908 14.7216 7.38881 15.147 6.73233C15.5725 6.06244 16.1375 5.53993 16.8422 5.16481C17.5466 4.77628 18.331 4.58201 19.1952 4.58201C20.1388 4.58201 20.9831 4.78297 21.7276 5.18489C22.472 5.57342 23.0569 6.14953 23.4823 6.91318C23.9211 7.67687 24.1402 8.60799 24.1402 9.7066V14.9317C24.1402 15.1461 24.0672 15.3269 23.9211 15.4743C23.7746 15.6217 23.5953 15.6954 23.3827 15.6954ZM14.8082 15.6954C14.5689 15.6954 14.3762 15.6284 14.2298 15.4944C14.097 15.347 14.0306 15.1595 14.0306 14.9317V5.48633C14.0306 5.24518 14.097 5.05761 14.2298 4.92363C14.3762 4.77628 14.5689 4.70257 14.8082 4.70257C15.0341 4.70257 15.2137 4.77628 15.3466 4.92363C15.4927 5.05761 15.5659 5.24518 15.5659 5.48633V14.9317C15.5659 15.1595 15.4927 15.347 15.3466 15.4944C15.2137 15.6284 15.0341 15.6954 14.8082 15.6954ZM28.0902 15.6954C27.8509 15.6954 27.658 15.6284 27.5118 15.4944C27.379 15.347 27.3123 15.1528 27.3123 14.9116V5.48633C27.3123 5.24518 27.379 5.05761 27.5118 4.92363C27.658 4.77628 27.8509 4.70257 28.0902 4.70257C28.3161 4.70257 28.4955 4.77628 28.6286 4.92363C28.7747 5.05761 28.8479 5.24518 28.8479 5.48633V14.9116C28.8479 15.1528 28.7747 15.347 28.6286 15.4944C28.4955 15.6284 28.3161 15.6954 28.0902 15.6954ZM28.07 2.61254C27.7777 2.61254 27.5251 2.50536 27.3123 2.29099C27.0997 2.07664 26.9933 1.81539 26.9933 1.50723C26.9933 1.1723 27.0997 0.911041 27.3123 0.723467C27.5385 0.522507 27.7976 0.422027 28.0902 0.422027C28.3692 0.422027 28.6152 0.522507 28.8278 0.723467C29.054 0.911041 29.1669 1.1723 29.1669 1.50723C29.1669 1.81539 29.0605 2.07664 28.8479 2.29099C28.6351 2.50536 28.376 2.61254 28.07 2.61254ZM41.5779 15.6954C41.3517 15.6954 41.1659 15.6217 41.0194 15.4743C40.8733 15.3269 40.8 15.1461 40.8 14.9317V9.7066C40.8 8.87596 40.6405 8.19268 40.3215 7.65676C40.0159 7.12087 39.5905 6.71892 39.0453 6.45097C38.5137 6.18302 37.9087 6.04905 37.2309 6.04905C36.5793 6.04905 35.9879 6.17633 35.456 6.43086C34.9375 6.68542 34.5255 7.03377 34.2198 7.47591C33.9142 7.91801 33.7612 8.42044 33.7612 8.98314H32.6646C32.691 8.13908 32.9172 7.38881 33.3426 6.73233C33.7677 6.06244 34.3328 5.53993 35.0374 5.16481C35.7418 4.77628 36.5263 4.58201 37.3904 4.58201C38.3341 4.58201 39.1784 4.78297 39.9228 5.18489C40.6672 5.57342 41.2521 6.14953 41.6776 6.91318C42.1163 7.67687 42.3357 8.60799 42.3357 9.7066V14.9317C42.3357 15.1461 42.2625 15.3269 42.1163 15.4743C41.9702 15.6217 41.7905 15.6954 41.5779 15.6954ZM33.0034 15.6954C32.7642 15.6954 32.5715 15.6284 32.425 15.4944C32.2922 15.347 32.2258 15.1595 32.2258 14.9317V5.48633C32.2258 5.24518 32.2922 5.05761 32.425 4.92363C32.5715 4.77628 32.7642 4.70257 33.0034 4.70257C33.2293 4.70257 33.409 4.77628 33.5418 4.92363C33.688 5.05761 33.7612 5.24518 33.7612 5.48633V14.9317C33.7612 15.1595 33.688 15.347 33.5418 15.4944C33.409 15.6284 33.2293 15.6954 33.0034 15.6954ZM46.4452 12.0177L45.5081 10.9928L52.3276 4.78297C52.4871 4.63558 52.6534 4.56859 52.8262 4.58201C52.9991 4.58201 53.1586 4.66238 53.3047 4.82315C53.4509 4.98393 53.5173 5.15809 53.5042 5.34566C53.5042 5.51982 53.4245 5.6739 53.2647 5.80788L46.4452 12.0177ZM45.9466 15.6954C45.7207 15.6954 45.5345 15.6284 45.3883 15.4944C45.2555 15.347 45.1888 15.1595 45.1888 14.9317V0.763653C45.1888 0.535893 45.2555 0.355041 45.3883 0.221038C45.5345 0.0736791 45.7207 0 45.9466 0C46.1728 0 46.3521 0.0736791 46.485 0.221038C46.6314 0.355041 46.7043 0.535893 46.7043 0.763653V14.9317C46.7043 15.1595 46.6314 15.347 46.485 15.4944C46.3521 15.6284 46.1728 15.6954 45.9466 15.6954ZM53.3246 15.5949C53.1518 15.7423 52.9724 15.8026 52.7862 15.7758C52.6 15.7624 52.4405 15.6686 52.3077 15.4944L47.8608 9.98796L48.9379 9.02332L53.4245 14.59C53.5573 14.7508 53.6172 14.925 53.6039 15.1126C53.5905 15.2867 53.4974 15.4475 53.3246 15.5949ZM59.9407 15.7959C58.8903 15.7959 57.9532 15.5547 57.1291 15.0724C56.3182 14.5767 55.6734 13.9068 55.1947 13.0627C54.7295 12.2187 54.4968 11.2674 54.4968 10.209C54.4968 9.13722 54.723 8.17927 55.1748 7.33521C55.6269 6.49116 56.245 5.82798 57.0294 5.34566C57.8136 4.84996 58.7175 4.60209 59.7412 4.60209C60.5523 4.60209 61.2967 4.76286 61.9747 5.08441C62.6657 5.40596 63.2708 5.88828 63.789 6.53137C63.9355 6.69215 63.9886 6.86631 63.9485 7.05388C63.9088 7.22804 63.7959 7.38212 63.6097 7.51609C63.4635 7.62326 63.2972 7.66345 63.111 7.63668C62.9385 7.59646 62.7855 7.49598 62.6524 7.33521C61.8816 6.45097 60.911 6.00886 59.7412 6.00886C58.9968 6.00886 58.3386 6.18972 57.767 6.55145C57.2088 6.91318 56.77 7.40892 56.4511 8.0386C56.1454 8.66828 55.9924 9.39178 55.9924 10.209C55.9924 11.0129 56.1585 11.7296 56.4911 12.3594C56.8234 12.989 57.2886 13.4847 57.8868 13.8465C58.4851 14.2082 59.1696 14.3891 59.9407 14.3891C60.4592 14.3891 60.9312 14.3221 61.3563 14.1881C61.795 14.0408 62.1807 13.8197 62.5131 13.525C62.6726 13.391 62.8386 13.3173 63.0114 13.3039C63.1843 13.2905 63.3438 13.3441 63.4899 13.4647C63.6497 13.612 63.736 13.7795 63.7493 13.9671C63.776 14.1546 63.7161 14.3154 63.5697 14.4494C62.5993 15.347 61.3898 15.7959 59.9407 15.7959ZM67.0409 8.92284C67.0806 8.0922 67.2935 7.34863 67.6789 6.69215C68.0776 6.03564 68.5896 5.51982 69.2143 5.1447C69.8522 4.76955 70.5569 4.58201 71.328 4.58201C71.9396 4.58201 72.4113 4.66907 72.7436 4.84326C73.0762 5.01742 73.2025 5.27198 73.1225 5.60691C73.0694 5.80787 72.9763 5.94185 72.8435 6.00886C72.7238 6.07585 72.5711 6.10262 72.3849 6.08924C72.2121 6.07585 72.0126 6.06244 71.7866 6.04905C71.0422 5.98206 70.3776 6.06244 69.7926 6.2902C69.2211 6.50457 68.7622 6.8395 68.4168 7.29502C68.0844 7.75055 67.9181 8.29316 67.9181 8.92284H67.0409ZM67.1604 15.6954C66.9211 15.6954 66.735 15.6284 66.6021 15.4944C66.469 15.3604 66.4026 15.1729 66.4026 14.9317V5.46625C66.4026 5.22507 66.469 5.03753 66.6021 4.90356C66.735 4.76955 66.9211 4.70257 67.1604 4.70257C67.3996 4.70257 67.5858 4.76955 67.7186 4.90356C67.8517 5.03753 67.9181 5.22507 67.9181 5.46625V14.9317C67.9181 15.1729 67.8517 15.3604 67.7186 15.4944C67.5858 15.6284 67.3996 15.6954 67.1604 15.6954ZM76.8783 20.4784C76.7719 20.4784 76.6524 20.4516 76.5193 20.398C76.0675 20.197 75.9412 19.8754 76.1405 19.4333L82.5814 5.12459C82.7809 4.69587 83.0999 4.57529 83.5383 4.76286C83.9904 4.95043 84.1167 5.26529 83.9172 5.7074L77.4567 20.0161C77.3236 20.3243 77.1309 20.4784 76.8783 20.4784ZM79.0917 15.3537C78.8922 15.4475 78.7063 15.4676 78.5335 15.414C78.3606 15.347 78.221 15.2131 78.1146 15.0121L73.668 5.7275C73.5749 5.52654 73.5616 5.33897 73.628 5.16481C73.6947 4.99062 73.8275 4.85665 74.027 4.76286C74.2262 4.66907 74.4124 4.65569 74.5852 4.72267C74.7581 4.77628 74.8909 4.90356 74.984 5.10452L79.3508 14.3891C79.4573 14.59 79.4905 14.7776 79.4507 14.9518C79.4107 15.126 79.2912 15.2599 79.0917 15.3537ZM86.1742 20.398C85.9349 20.398 85.7419 20.3243 85.5958 20.1769C85.463 20.0429 85.3965 19.8553 85.3965 19.6142V10.1286C85.4096 9.08362 85.6556 8.14577 86.1341 7.31513C86.626 6.47108 87.2841 5.80787 88.1083 5.32555C88.9458 4.84326 89.8829 4.60209 90.9199 4.60209C91.9833 4.60209 92.9337 4.84996 93.7715 5.34566C94.609 5.82798 95.2669 6.49116 95.7454 7.33521C96.2375 8.17927 96.4833 9.13722 96.4833 10.209C96.4833 11.2674 96.244 12.2187 95.7655 13.0627C95.3001 13.9068 94.6621 14.5767 93.8513 15.0724C93.0402 15.5547 92.1229 15.7959 91.0992 15.7959C90.2087 15.7959 89.3979 15.6083 88.6665 15.2331C87.9488 14.8446 87.3704 14.3355 86.9319 13.7058V19.6142C86.9319 19.8553 86.8587 20.0429 86.7125 20.1769C86.5794 20.3243 86.4001 20.398 86.1742 20.398ZM90.9199 14.3891C91.691 14.3891 92.3823 14.2082 92.9936 13.8465C93.6052 13.4847 94.0837 12.989 94.4294 12.3594C94.7884 11.7163 94.9678 10.9995 94.9678 10.209C94.9678 9.40516 94.7884 8.68839 94.4294 8.05871C94.0837 7.429 93.6052 6.93329 92.9936 6.57156C92.3823 6.19641 91.691 6.00886 90.9199 6.00886C90.1621 6.00886 89.4776 6.19641 88.866 6.57156C88.2544 6.93329 87.7759 7.429 87.4303 8.05871C87.0846 8.68839 86.9117 9.40516 86.9117 10.209C86.9117 10.9995 87.0846 11.7163 87.4303 12.3594C87.7759 12.989 88.2544 13.4847 88.866 13.8465C89.4776 14.2082 90.1621 14.3891 90.9199 14.3891ZM103.231 15.6954C102.526 15.6954 101.895 15.5279 101.336 15.193C100.791 14.858 100.359 14.4025 100.04 13.8264C99.7212 13.2369 99.5617 12.567 99.5617 11.8167V1.98955C99.5617 1.76179 99.6281 1.57421 99.7609 1.42686C99.9071 1.27947 100.093 1.20579 100.319 1.20579C100.545 1.20579 100.732 1.27947 100.878 1.42686C101.024 1.57421 101.097 1.76179 101.097 1.98955V11.8167C101.097 12.5 101.296 13.0627 101.695 13.5048C102.094 13.9336 102.606 14.1479 103.231 14.1479H103.769C103.982 14.1479 104.154 14.2216 104.288 14.369C104.42 14.5164 104.487 14.7039 104.487 14.9317C104.487 15.1595 104.407 15.347 104.248 15.4944C104.088 15.6284 103.889 15.6954 103.649 15.6954H103.231ZM98.2656 6.45097C98.0661 6.45097 97.8997 6.39068 97.7669 6.27012C97.6341 6.13612 97.5674 5.97537 97.5674 5.7878C97.5674 5.58684 97.6341 5.42606 97.7669 5.30547C97.8997 5.1715 98.0661 5.10452 98.2656 5.10452H103.35C103.55 5.10452 103.716 5.1715 103.849 5.30547C103.982 5.42606 104.048 5.58684 104.048 5.7878C104.048 5.97537 103.982 6.13612 103.849 6.27012C103.716 6.39068 103.55 6.45097 103.35 6.45097H98.2656ZM106.813 16.0169C106.494 16.0169 106.222 15.903 105.996 15.6753C105.77 15.4475 105.657 15.1728 105.657 14.8513C105.657 14.5164 105.77 14.235 105.996 14.0073C106.235 13.7795 106.508 13.6656 106.813 13.6656C107.133 13.6656 107.405 13.7862 107.631 14.0274C107.857 14.2551 107.97 14.5298 107.97 14.8513C107.97 15.1595 107.857 15.4341 107.631 15.6753C107.418 15.903 107.146 16.0169 106.813 16.0169ZM111.323 15.6954C111.084 15.6954 110.891 15.6284 110.745 15.4944C110.612 15.347 110.545 15.1528 110.545 14.9116V5.48633C110.545 5.24518 110.612 5.05761 110.745 4.92363C110.891 4.77628 111.084 4.70257 111.323 4.70257C111.549 4.70257 111.728 4.77628 111.861 4.92363C112.008 5.05761 112.081 5.24518 112.081 5.48633V14.9116C112.081 15.1528 112.008 15.347 111.861 15.4944C111.728 15.6284 111.549 15.6954 111.323 15.6954ZM111.303 2.61254C111.011 2.61254 110.758 2.50536 110.545 2.29099C110.333 2.07664 110.226 1.81539 110.226 1.50723C110.226 1.1723 110.333 0.911041 110.545 0.723467C110.771 0.522507 111.031 0.422027 111.323 0.422027C111.602 0.422027 111.848 0.522507 112.061 0.723467C112.287 0.911041 112.4 1.1723 112.4 1.50723C112.4 1.81539 112.293 2.07664 112.081 2.29099C111.868 2.50536 111.609 2.61254 111.303 2.61254ZM120.424 15.7959C119.36 15.7959 118.41 15.5547 117.572 15.0724C116.735 14.5901 116.077 13.9269 115.598 13.0828C115.12 12.2388 114.88 11.2808 114.88 10.209C114.88 9.1238 115.12 8.15919 115.598 7.31513C116.077 6.47108 116.735 5.80787 117.572 5.32555C118.41 4.84326 119.36 4.60209 120.424 4.60209C121.487 4.60209 122.431 4.84326 123.255 5.32555C124.093 5.80787 124.751 6.47108 125.23 7.31513C125.708 8.15919 125.954 9.1238 125.967 10.209C125.967 11.2808 125.721 12.2388 125.23 13.0828C124.751 13.9269 124.093 14.5901 123.255 15.0724C122.431 15.5547 121.487 15.7959 120.424 15.7959ZM120.424 14.3891C121.195 14.3891 121.886 14.2082 122.498 13.8465C123.109 13.4847 123.588 12.989 123.933 12.3594C124.279 11.7296 124.452 11.0129 124.452 10.209C124.452 9.40516 124.279 8.68839 123.933 8.05871C123.588 7.41561 123.109 6.91318 122.498 6.55145C121.886 6.18972 121.195 6.00886 120.424 6.00886C119.653 6.00886 118.961 6.18972 118.35 6.55145C117.739 6.91318 117.253 7.41561 116.894 8.05871C116.549 8.68839 116.376 9.40516 116.376 10.209C116.376 11.0129 116.549 11.7296 116.894 12.3594C117.253 12.989 117.739 13.4847 118.35 13.8465C118.961 14.2082 119.653 14.3891 120.424 14.3891Z" fill="#222222"/>
</svg>
