<svg width="77" height="85" viewBox="0 0 77 85" fill="none" xmlns="http://www.w3.org/2000/svg">
<path d="M30.5289 82.0181C31.1826 82.0181 32.3067 81.8062 33.191 80.3891C32.6853 79.2652 32.3254 76.9942 32.2737 76.1677C32.0129 71.9383 33.6423 67.9597 35.4264 67.8506C36.733 67.7716 37.7789 69.0091 37.8994 71.0131C38.22 76.2831 36.466 78.4836 35.5883 80.3799C35.7367 81.116 36.9831 82.3685 38.1608 82.3685C38.5956 82.3685 39.1219 82.1507 39.2537 81.9744C39.1656 81.671 39.0775 81.2776 39.0775 80.709C39.0775 77.6553 41.0407 75.0813 42.7418 75.0813C44.0939 75.0813 44.8783 76.8697 44.8783 78.0498C44.8783 79.4437 43.7006 80.5805 41.957 81.6714C42.2632 81.9744 42.8277 82.1951 43.3091 82.1951C45.7968 82.1951 47.099 79.184 48.0634 76.4348C48.2378 75.9095 48.5437 75.1683 49.153 75.1683C50.2011 75.1683 50.6381 82.0614 52.3784 82.0614C53.1214 82.0614 53.7317 80.5335 53.7317 79.3585C53.7317 78.4858 53.4269 78.3984 53.4269 77.1323C53.4269 75.738 54.1687 74.5612 55.1731 74.5612C55.7835 74.5612 56.0034 75.1683 56.0034 75.9092C56.0034 78.7014 53.9954 83.8935 51.0325 83.8935C48.8045 83.8935 48.9785 80.0552 48.1941 80.0552C47.3183 80.0552 46.0968 83.938 41.7825 83.938C41.0811 83.938 40.3422 83.589 39.7333 82.8897C38.6867 83.5894 37.812 83.8935 36.8087 83.8935C35.1969 83.8935 34.4987 82.2359 33.8447 82.2359C33.0581 82.2359 32.1884 83.938 29.5689 83.938C27.4757 83.938 27.1261 81.148 26.3872 81.148C25.7313 81.148 24.7288 83.938 23.6392 83.938C21.8044 83.938 21.4152 79.0959 19.7993 79.0959C18.5342 79.0959 14.5379 84.014 13.4535 83.9016C13.0165 83.8561 12.8336 83.5292 12.8795 83.0932C12.9404 82.4901 13.4597 80.8747 13.6712 80.11C14.0238 78.7837 14.3477 77.3295 14.5284 76.8652C14.708 76.3984 15.1927 76.0642 15.5809 76.1005C15.777 76.1189 15.8361 76.4844 15.8963 76.7855C16.1163 77.8639 16.4244 78.964 16.7711 78.964C17.3833 78.964 19.4071 75.0813 20.5837 75.0813C22.0255 75.0813 22.1985 81.1895 24.1592 81.1895C24.8151 81.1895 25.2965 80.406 25.7309 79.4437C25.7758 77.8265 26.2109 75.5202 27.5194 75.5202C28.4368 75.5202 28.8738 77.5683 28.2168 79.3585C28.2168 81.4947 29.6115 82.0177 30.5289 82.0177M65.4201 76.7844C64.8796 79.0264 63.2409 82.3252 60.7959 82.3252C60.2303 82.3252 59.2259 82.1059 59.2259 81.5384C59.2259 80.9268 63.0665 80.8427 63.0665 77.9179C63.0665 76.8289 62.064 75.3002 60.5803 75.3002C58.6178 75.3002 56.703 77.4393 56.703 80.4056C56.703 83.0649 58.3552 83.938 60.0115 83.938C62.8924 83.938 64.6357 81.5799 65.5512 79.6182C65.989 80.9268 66.2475 83.938 67.3412 83.938C67.776 83.938 68.083 83.7191 68.6081 82.543C69.9118 79.6182 71.1781 76.2603 72.9246 76.2603C73.5772 76.2603 73.1861 77.4393 74.7561 77.4393C75.496 77.4393 76.0171 76.8289 76.0171 76.1273C76.0171 75.1235 75.1027 74.3412 73.7079 74.3412C69.6088 74.3412 68.7381 80.492 68.0833 80.492C66.9915 80.492 67.3415 75.5628 66.5545 75.5628C65.856 75.5628 65.5138 76.3951 65.4201 76.7844ZM36.487 72.1903C36.4109 70.9719 36.1161 70.4217 35.4616 70.4654C34.5928 70.5183 34.191 73.2521 34.3687 76.1244C34.4818 77.9987 34.761 78.2874 35.0206 78.2694C35.5009 78.2419 36.6541 74.8921 36.487 72.1906M29.3938 69.6287C29.3324 68.9301 28.7842 68.4526 28.0423 68.4526C27.2142 68.4526 26.4349 69.3216 26.5179 70.4133C26.5708 71.1317 26.9953 71.7245 27.8275 71.7245C28.7845 71.7245 29.4819 70.6336 29.3938 69.6287ZM42.9606 78.5273C42.9606 77.7872 42.5662 77.1767 42.0899 77.1767C41.6933 77.1767 40.7803 77.6105 40.7803 79.0077C40.7803 80.1019 41.1696 80.6209 41.347 80.8427C42.6099 80.4497 42.9606 79.4 42.9606 78.5273ZM60.0115 77.0482C60.9288 77.0482 61.1914 78.1339 60.9736 78.7899C60.7533 79.4437 59.97 80.1878 58.7482 80.406C58.486 79.75 58.3552 77.0482 60.0115 77.0482ZM9.79064 73.9507C9.66505 73.554 9.30295 72.6626 9.20306 72.0048C8.98529 70.5473 9.74694 69.5872 10.4465 69.3672C11.232 69.1483 11.5383 69.5417 11.8413 70.4592C12.2342 71.8542 12.2783 73.6852 12.1461 76.3029C11.9742 79.8804 10.1851 84.1999 5.73708 84.1102C1.89761 84.0261 0.198401 81.5384 0.0221274 77.7435C-0.0608683 75.9551 0.0661959 74.1678 0.808016 71.6371C1.20022 70.2836 1.55094 69.8021 2.77017 69.5417C3.72939 69.3672 3.64309 70.3688 3.42532 71.5508C2.94681 74.1678 2.72573 75.4309 2.902 78.3984C3.0735 81.5384 4.51601 82.7611 6.08595 82.7611C8.44068 82.8056 9.48657 80.8427 9.92468 78.005C10.2714 75.738 10.0106 74.6471 9.79064 73.9507ZM61.2329 17.1978C61.5348 19.396 64.8649 22.3594 65.7683 22.29C66.3709 22.2382 66.6023 19.4192 66.6023 17.1978C66.6023 15.9254 66.672 14.9289 66.0004 14.6964C64.9346 16.8499 62.137 17.2903 61.2329 17.1978ZM61.4176 16.2251C63.8223 16.2251 66.0231 14.3042 66.0231 12.6142C66.0231 11.8264 65.6519 11.1788 64.7033 11.0635C64.8649 11.2721 64.9346 11.4341 64.9346 11.8036C64.9346 13.077 62.9938 14.4897 60.8862 14.4897C60.1213 14.4897 59.8899 15.0211 59.8899 15.2995C59.8899 15.9482 60.5157 16.2251 61.4176 16.2251ZM60.909 13.6096C60.5855 13.6096 60.1213 13.6096 59.866 13.1009C59.6574 12.6836 59.7269 12.0122 59.3335 11.711C59.7269 11.8264 60.144 11.8264 60.469 11.8264C61.512 11.8264 62.5083 11.109 63.2722 11.109C63.7764 11.109 63.9383 11.4341 63.9383 11.7569C63.9383 12.7773 61.8825 13.6096 60.909 13.6096ZM9.13953 31.7571C9.92542 31.7571 9.7631 26.9418 11.0367 26.9418C11.3378 26.9418 11.4296 27.243 11.4296 27.614C11.4296 28.7012 10.8975 30.299 10.8975 31.1779C10.8975 31.6183 11.0128 31.7571 11.2214 31.7571C11.7774 31.7571 12.7491 26.4555 13.6984 26.4555C13.9995 26.4555 14.1376 26.7564 14.1376 27.0583C14.1376 28.169 12.726 31.363 12.726 32.2659C12.726 32.404 12.7726 32.52 12.8879 32.52C13.4671 32.52 14.6242 30.0209 14.9937 28.771C15.2023 28.1224 15.4803 27.7745 15.7347 27.7745C15.9661 27.7745 16.1747 28.0298 16.1747 28.5624C16.1747 29.8123 15.0164 32.7518 13.9995 34.7205C13.2129 36.2474 11.986 38.446 11.986 39.6728C11.986 40.2976 12.1002 40.9452 13.0043 41.7334C11.5222 41.6408 10.9203 41.502 10.3661 40.3443C7.89019 45.2745 14.925 44.7886 12.5174 49.1631C12.0774 48.3771 8.6063 47.5665 8.6063 42.9829C8.6063 39.0249 12.0774 36.7106 12.0774 35.0662C12.0774 34.7437 11.9636 34.4653 11.6614 34.21C10.8975 33.5613 10.8736 33.0309 10.2739 33.0309C9.83288 33.0309 9.30038 34.0484 9.85528 34.9512C10.0415 35.2524 10.2034 35.4368 10.2034 35.7152C10.2034 36.3627 9.18397 38.0982 8.46822 38.0982C7.75101 38.0982 7.19574 36.3179 7.19574 33.446C7.19574 30.8999 7.77378 28.331 8.49099 28.331C8.69958 28.331 8.76899 28.4702 8.76899 28.6549C8.76899 28.9561 8.67681 29.5578 8.67681 30.5752C8.67681 31.6639 8.93094 31.7571 9.13953 31.7571Z" fill="black"/>
<path d="M15.0397 38.5377C16.0129 38.5377 16.8215 37.8193 16.8215 36.2237V33.8616C16.8215 32.9595 16.8913 31.9414 17.4939 31.2229C17.4245 31.5241 17.4245 31.8488 17.4245 32.1489C17.4245 34.1396 18.5351 35.506 18.5351 37.427C18.5351 38.1432 18.3265 38.5377 17.7723 38.5377C17.2387 38.5377 17.2854 38.0506 17.1693 38.0506C17.0768 38.0506 16.938 38.3518 16.938 38.6765C16.938 39.1625 17.2854 39.9265 18.2567 39.9265C19.0911 39.9265 19.7616 39.1625 19.7616 38.3059C19.7616 36.2241 18.1418 33.9082 18.1418 31.6872C18.1418 30.7135 18.3959 30.0655 18.6045 29.5561C18.6045 34.1635 22.5156 37.5192 22.5156 39.4394C22.5156 39.8798 22.1924 40.2273 21.7065 40.2273C21.1729 40.2273 20.9188 39.81 20.9188 39.4853C20.9188 39.3233 20.8949 39.2778 20.8263 39.2778C20.6882 39.2778 20.271 39.7406 20.271 40.3437C20.271 41.1066 20.8949 42.0333 22.0532 42.0333C23.3712 42.0333 24.0892 40.9207 24.0892 39.9265C24.0892 37.4964 19.3445 33.816 19.3445 29.8808C19.3445 29.2094 19.4598 28.1214 19.9464 27.288C16.8909 29.2549 15.9435 31.8719 15.9435 34.1639C15.9435 36.1546 15.8741 37.1478 14.8561 37.1478C14.3225 37.1478 14.1844 36.663 13.9989 36.663C13.8594 36.663 13.7904 37.0791 13.7904 37.1945C13.7904 38.0506 14.4161 38.5377 15.0397 38.5377ZM55.1479 15.4143C56.167 15.4143 56.9319 14.9515 56.9319 14.6731C56.9319 14.5817 56.7928 14.5115 56.4909 14.5115C56.1898 14.5115 55.5879 14.4884 54.4527 14.3036C53.4795 14.1405 52.7381 13.771 52.4601 13.771C52.3679 13.771 52.3209 13.8169 52.3209 13.8864C52.3209 14.4884 53.4336 15.4143 55.1479 15.4143ZM50.1032 12.4748C50.3969 12.2776 51.7006 12.5898 53.3877 11.7564C53.5711 11.6523 53.778 11.5967 53.9889 11.5948C54.8005 11.5948 54.5908 12.5204 55.3337 12.5204C55.9118 12.5204 56.6539 12.0337 57.0939 12.0337C57.7843 12.0337 58.7795 14.2103 58.7795 15.2285C58.7795 16.4097 57.0013 17.1267 54.8927 17.1267C51.8178 17.1267 49.9632 14.4428 49.9632 12.7062C49.9632 12.567 50.0338 12.5204 50.1032 12.4748ZM15.5263 47.2636C14.7632 47.4495 13.5359 48.6513 13.5359 50.5521C13.5359 52.8198 15.9662 56.3157 19.9699 56.3157C23.3477 56.3157 24.1813 53.9782 24.1813 52.4025C24.1813 48.9069 22.0301 46.453 19.2299 46.453C17.7022 46.453 16.3368 47.5659 16.3368 49.2078C16.3368 50.7368 17.4936 53.0277 20.2479 53.0277C21.5442 53.0277 22.307 52.1017 22.307 51.0376C22.307 49.9956 21.3584 48.5613 19.9699 48.5613C19.5527 48.5613 19.2526 48.8371 19.2526 49.2775C19.2526 49.8325 20.0165 50.389 20.9651 50.389C21.1964 50.389 21.3812 50.3434 21.4748 50.2968C21.5203 50.3662 21.5442 50.4823 21.5442 50.5748C21.5442 51.1074 21.0337 51.4321 20.2479 51.4321C19.0679 51.4321 17.9328 50.5521 17.9328 49.1611C17.9328 48.3295 18.6507 47.7275 19.6919 47.7275C21.7521 47.7275 22.9786 49.5556 22.9786 51.3855C22.9786 53.0273 22.0767 53.9786 20.2251 53.9786C16.5215 53.9786 14.7165 50.6443 15.5263 47.2636ZM40.1499 56.1997C40.1506 56.445 40.2484 56.6802 40.4218 56.8537C40.5953 57.0272 40.8304 57.125 41.0757 57.1256C41.5855 57.1256 42.0012 56.7095 42.0012 56.2C42.0012 55.6906 41.5855 55.273 41.0757 55.273C40.8303 55.2739 40.5953 55.372 40.4219 55.5457C40.2485 55.7194 40.1509 55.9546 40.1503 56.2M41.9442 60.8262C43.0537 60.8262 42.9967 60.7336 43.3442 60.7336C43.6908 60.7336 43.7151 60.9422 43.7151 61.0815C43.7151 61.5909 42.5796 62.2171 40.5671 62.2171C39.3861 62.2171 38.6692 61.5909 38.4606 60.8967C37.3046 61.6368 35.5455 62.3082 33.8092 62.3082C29.0656 62.3082 27.8618 60.2469 26.3807 59.5774C25.2452 59.0679 23.51 60.0644 21.0808 57.3552C21.4047 57.425 21.8446 57.4485 22.1924 57.4485C24.3198 57.4485 25.4538 56.4076 25.4538 54.7397C25.4538 54.531 25.431 54.3026 25.4072 54.095C26.0557 54.3492 27.5379 55.4588 27.8846 57.4246C27.9312 57.6571 28.8798 57.8646 29.4806 57.8646C30.3149 57.8646 31.3796 57.5172 31.5408 56.153C34.3186 55.9216 36.1937 54.2787 36.5874 52.1935C37.5815 52.5182 38.7148 53.4214 38.9928 53.8853C39.3861 53.7461 39.8492 53.6767 40.3813 53.6767C41.1213 53.6767 41.9556 53.8159 42.9501 54.1175C42.9967 53.8159 43.0434 53.4453 43.5061 53.4453C44.2002 53.4453 44.0147 54.2093 44.2461 54.6471C44.3625 54.8785 44.9424 55.0177 44.9424 55.4809C44.9424 55.9216 44.57 56.0836 44.3397 56.0836C44.2461 56.0836 44.1311 56.0608 44.0606 56.0381C43.5987 56.1997 43.5759 59.5318 41.631 59.5318C40.1966 59.5318 38.8778 58.3517 38.2987 56.8715C38.1356 56.4314 37.7901 56.153 37.4651 56.153C37.096 56.153 36.8874 56.2228 36.4482 56.7095C35.1988 58.0733 33.1148 59.2538 30.5467 59.2538C29.7586 59.2538 29.135 59.184 28.972 59.184C28.8798 59.184 28.8798 59.2068 28.8798 59.2299C28.8798 59.3926 29.6664 60.0185 31.3796 60.0185C35.4522 60.0185 36.4482 57.7258 37.096 57.7258C37.1882 57.7258 37.4654 57.7258 37.627 58.0964C38.5756 60.3164 40.6483 60.8262 41.9442 60.8262ZM55.9815 46.0828C55.496 46.0828 52.8071 49.6709 51.076 49.6709C50.6588 49.6709 50.3121 48.8831 50.3121 48.284C50.3121 47.9593 50.5189 47.7279 51.2618 47.5659C55.2408 46.6616 54.3605 43.6755 57.7604 43.6755C59.6348 43.6755 61.7196 44.9493 61.7196 47.8201C61.7196 50.876 57.3715 54.6706 56.7226 54.6706C56.1894 54.6706 55.6114 53.9077 55.6114 53.3983C55.6114 53.2374 55.6811 53.0273 56.1439 52.8429C58.3623 51.9614 59.6348 49.9262 59.6348 48.8831C59.6348 48.6517 59.5195 48.4232 59.2176 48.4232C58.8254 48.4232 57.1398 52.2637 55.2636 52.2637C53.9665 52.2637 52.6463 51.0847 52.6463 50.5282C52.6463 49.6026 56.398 47.8895 56.398 46.5922C56.398 46.1055 56.1674 46.0828 55.9819 46.0828M58.4776 44.6481C58.1537 44.6481 57.8071 44.9034 57.8071 45.5296C57.8071 46.2216 58.3396 46.6616 58.6407 46.8008C58.8023 46.8934 59.0579 46.9867 59.3098 46.9867C59.9822 46.9867 60.5147 46.8008 60.5147 46.2447C60.5147 45.5292 59.4729 44.6481 58.4776 44.6481ZM15.2483 17.844C15.2491 18.0896 15.347 18.325 15.5206 18.4987C15.6943 18.6724 15.9296 18.7703 16.1752 18.7711C16.4204 18.7699 16.6553 18.6718 16.8284 18.4981C17.0016 18.3244 17.0991 18.0893 17.0995 17.844C17.0988 17.599 17.0012 17.3641 16.828 17.1908C16.6549 17.0174 16.4202 16.9195 16.1752 16.9184C15.9298 16.919 15.6946 17.0167 15.5209 17.1901C15.3473 17.3635 15.2493 17.5986 15.2483 17.844ZM14.0456 15.7611C14.0464 16.0062 14.144 16.241 14.3172 16.4144C14.4905 16.5878 14.7252 16.6857 14.9703 16.6867C15.4796 16.6867 15.8968 16.2694 15.8968 15.7611C15.8968 15.2527 15.4796 14.8351 14.9703 14.8351C14.7252 14.8361 14.4905 14.9339 14.3172 15.1073C14.144 15.2807 14.0464 15.5159 14.0456 15.7611ZM13.212 22.1029C12.6787 22.2421 11.5693 22.8907 11.5693 24.047C11.5693 24.8807 12.2156 25.413 13.0272 25.413C13.4437 25.413 13.7445 25.3204 13.9292 25.1816C13.2817 24.5568 13.0504 23.8622 13.0504 23.1688C13.0504 22.6821 13.1202 22.3809 13.212 22.1029ZM7.54292 22.4279C7.51978 22.544 7.51978 22.6593 7.51978 22.7746C7.51978 23.8622 8.09781 24.4642 8.86166 24.4642C9.43896 24.4642 10.1114 24.1164 10.7122 23.3528C10.4367 23.3992 10.1579 23.422 9.87854 23.4211C9.02362 23.4211 8.09781 23.1919 7.54292 22.4279ZM6.73242 24.487C6.73242 26.2464 7.26492 27.0801 8.21312 27.0801C8.95421 27.0801 9.94942 26.5476 11.1283 25.529C10.2263 25.738 9.53224 25.8758 8.90757 25.8758C8.07394 25.8758 7.4276 25.5518 6.73242 24.487ZM12.7265 15.2285C12.8418 14.8579 12.934 14.3962 12.934 13.8864C12.934 12.7756 12.4246 11.085 10.8514 11.085C9.94942 11.085 9.29978 11.8023 9.29978 12.6596C9.29978 14.4887 11.1286 15.2285 12.7265 15.2285ZM10.7581 21.0619C9.99496 21.0619 9.1617 20.1132 9.1617 19.2566C9.1617 18.7939 9.50837 18.2146 9.7636 18.2146C9.85614 18.2146 9.90278 18.2844 9.92518 18.4471C10.0647 19.5806 10.8044 20.2293 11.4999 20.5521C11.5697 20.5988 11.6148 20.6219 11.6148 20.6685C11.6148 20.8302 11.1749 21.0616 10.7577 21.0616M12.8884 18.2374C13.0482 18.4556 13.4903 18.7244 13.4903 18.8864C13.4903 19.21 13.3045 19.6273 12.934 19.6273C12.1235 19.6273 11.476 18.4005 11.476 17.7052C11.476 17.2659 11.7313 17.2203 12.0768 17.2203C12.2399 17.2203 12.3082 17.2431 12.4246 17.3129C12.6332 17.4279 12.6332 17.891 12.8884 18.2374ZM7.45037 21.1086C7.40667 21.1802 7.3806 21.2702 7.3806 21.3638C7.3806 21.5714 7.61196 21.8028 7.81981 21.8028C8.00563 21.8028 8.12095 21.7572 8.21312 21.7572C8.76839 21.7572 9.39306 22.1495 10.2961 22.1495C10.8275 22.1495 11.4529 21.9879 12.2399 21.5952C13.9053 20.7607 14.5549 18.7017 14.5549 18.3538C14.5549 17.9138 14.2013 17.9707 13.9053 17.566C13.6108 17.1634 13.7239 16.8053 13.5359 16.6172C13.4279 16.5092 13.097 16.5019 12.6787 16.4556C12.5097 16.4391 12.3399 16.4314 12.1701 16.4325C11.4063 16.4325 10.5014 16.5258 9.4856 17.1737C7.47755 18.4545 7.77317 20.576 7.45037 21.1086ZM15.133 20.183C14.6236 20.7835 14.0911 21.8028 14.0911 22.8441C14.0911 24.0936 14.8561 25.1349 16.036 25.1349C17.1693 25.1349 17.7014 24.1634 17.7014 23.1688C17.7014 21.618 16.2901 20.5297 15.133 20.183ZM10.1808 15.7383C10.1808 15.7383 9.50837 16.2466 8.67584 16.2466C7.68173 16.2466 6.89401 15.5065 6.89401 14.4656C6.89401 13.7472 7.26492 13.0074 8.12058 12.6364C8.09781 12.776 8.09781 12.891 8.09781 13.0302C8.09781 14.3492 8.83779 15.3449 10.1808 15.7383ZM50.9831 23.4218C50.9831 23.9551 51.4237 24.3952 51.95 24.3952C52.2077 24.3938 52.4545 24.2909 52.6368 24.1086C52.819 23.9264 52.9221 23.6796 52.9235 23.4218C52.9235 22.8903 52.4836 22.4511 51.9504 22.4511C51.4241 22.4511 50.9831 22.8907 50.9831 23.4218ZM51.0525 26.3382C51.0525 26.6264 51.1669 26.9028 51.3707 27.1066C51.5744 27.3104 51.8508 27.4248 52.1389 27.4248C52.4271 27.4248 52.7034 27.3104 52.9072 27.1066C53.1109 26.9028 53.2254 26.6264 53.2254 26.3382C53.2202 26.0535 53.1034 25.7821 52.9002 25.5826C52.697 25.3831 52.4237 25.2713 52.1389 25.2713C51.8542 25.2713 51.5808 25.3831 51.3777 25.5826C51.1745 25.7821 51.0577 26.0535 51.0525 26.3382ZM47.718 28.3062C47.7188 28.7298 47.8875 29.1358 48.1871 29.4353C48.4866 29.7347 48.8926 29.9033 49.3162 29.9039C50.1953 29.9039 50.9144 29.1855 50.9144 28.3062C50.9144 27.4269 50.1953 26.7088 49.3162 26.7088C48.8926 26.7095 48.4866 26.878 48.1871 27.1775C47.8875 27.4769 47.7188 27.8826 47.718 28.3062ZM48.5744 25.0431C48.575 25.2886 48.6729 25.5238 48.8465 25.6972C49.0202 25.8707 49.2555 25.9683 49.5009 25.9687C49.7462 25.9681 49.9813 25.8704 50.1548 25.697C50.3283 25.5235 50.426 25.2884 50.4267 25.0431C50.426 24.7978 50.3283 24.5627 50.1549 24.3892C49.9815 24.2157 49.7465 24.1179 49.5013 24.1171C49.2559 24.1177 49.0207 24.2154 48.847 24.3888C48.6733 24.5622 48.5753 24.7977 48.5744 25.0431ZM45.5439 26.8946C45.5445 27.1393 45.6417 27.3737 45.8144 27.5469C45.987 27.7202 46.2211 27.8182 46.4657 27.8195C46.9761 27.8195 47.3933 27.4045 47.3933 26.8946C47.3933 26.3848 46.9761 25.9691 46.4653 25.9691C46.2207 25.9707 45.9867 26.0689 45.8142 26.2422C45.6416 26.4156 45.5445 26.65 45.5439 26.8946ZM47.9258 21.4795C47.9258 22.2891 48.5971 22.9598 49.4076 22.9598C50.2192 22.9598 50.8905 22.2891 50.8905 21.4795C50.8905 20.6678 50.2192 19.9975 49.4076 19.9975C48.5971 19.9975 47.9258 20.6678 47.9258 21.4795ZM49.6628 18.6315C49.6628 18.747 49.6856 18.8614 49.7298 18.9681C49.7741 19.0748 49.8389 19.1718 49.9206 19.2534C50.0023 19.335 50.0994 19.3998 50.2061 19.4439C50.3129 19.488 50.4272 19.5106 50.5427 19.5105C50.6604 19.5139 50.7775 19.4936 50.8872 19.4509C50.9969 19.4083 51.0969 19.344 51.1813 19.262C51.2657 19.18 51.3328 19.0818 51.3786 18.9734C51.4245 18.865 51.4481 18.7485 51.4481 18.6308C51.4481 18.5131 51.4245 18.3965 51.3786 18.2881C51.3328 18.1797 51.2657 18.0816 51.1813 17.9996C51.0969 17.9175 50.9969 17.8533 50.8872 17.8106C50.7775 17.7679 50.6604 17.7477 50.5427 17.7511C50.4272 17.7511 50.3127 17.7739 50.2059 17.8181C50.0992 17.8624 50.0021 17.9272 49.9204 18.009C49.8387 18.0907 49.7739 18.1878 49.7297 18.2946C49.6855 18.4014 49.6628 18.5159 49.6628 18.6315ZM45.4756 20.8537C45.475 21.0864 45.5668 21.3098 45.7308 21.4749C45.8949 21.64 46.1177 21.7332 46.3504 21.7341C46.5836 21.7341 46.8073 21.6414 46.9723 21.4764C47.1372 21.3115 47.2299 21.0877 47.2299 20.8544C47.2299 20.6211 47.1372 20.3973 46.9723 20.2324C46.8073 20.0674 46.5836 19.9747 46.3504 19.9747C46.1179 19.9755 45.8952 20.0685 45.7312 20.2333C45.5672 20.398 45.4753 20.6212 45.4756 20.8537ZM45.3592 23.8619C45.3579 24.0473 45.3933 24.2312 45.4635 24.4028C45.5337 24.5744 45.6373 24.7305 45.7681 24.8618C45.899 24.9932 46.0546 25.0973 46.226 25.1682C46.3973 25.239 46.581 25.2751 46.7664 25.2745C46.9524 25.2758 47.1367 25.2402 47.3088 25.1697C47.4809 25.0992 47.6373 24.9952 47.7689 24.8638C47.9005 24.7324 48.0047 24.5762 48.0754 24.4042C48.1462 24.2322 48.1821 24.0478 48.181 23.8619C48.181 23.0758 47.5542 22.4514 46.7664 22.4514C46.5812 22.4507 46.3976 22.4867 46.2264 22.5574C46.0551 22.628 45.8996 22.7319 45.7687 22.8631C45.6378 22.9942 45.5343 23.15 45.464 23.3215C45.3937 23.4929 45.3581 23.6766 45.3592 23.8619ZM42.4419 25.3439C42.4419 26.0623 43.043 26.6622 43.761 26.6622C44.4782 26.6622 45.0812 26.0623 45.0812 25.3439C45.0812 24.6266 44.4782 24.0246 43.761 24.0246C43.043 24.0246 42.4419 24.6269 42.4419 25.3439ZM43.2285 22.0805C43.2293 22.3256 43.327 22.5604 43.5002 22.7339C43.6734 22.9073 43.9081 23.0053 44.1532 23.0064C44.6636 23.0064 45.0812 22.5892 45.0812 22.0808C45.0812 21.5725 44.664 21.1549 44.1532 21.1549C43.9082 21.156 43.6735 21.2539 43.5003 21.4273C43.3272 21.6006 43.2294 21.8354 43.2285 22.0805ZM51.3536 29.2094C51.3536 28.7466 51.7708 28.3528 52.2284 28.3528C52.7388 28.3528 53.1321 28.7462 53.1321 29.2094C53.1321 29.742 52.7392 30.1122 52.2284 30.1122C51.7708 30.1122 51.3536 29.742 51.3536 29.2094ZM51.9507 55.8291C52.0668 55.8291 52.206 55.8974 52.206 56.3157C52.206 56.8245 51.9746 57.4948 51.1454 58.0274C50.5662 58.4207 49.7785 58.7458 48.6203 58.7664C48.805 58.2121 48.9442 57.6329 48.9442 57.0797C48.9442 56.8939 48.9221 56.755 48.8986 56.5471H49.2005C51.0293 56.5471 51.8178 55.8291 51.9507 55.8291ZM52.1362 53.5371C52.3242 53.3784 52.3675 53.121 52.3675 52.8657V52.3331C52.3675 51.6617 51.354 51.2694 49.9632 51.2694C48.2725 51.2694 47.3698 52.0312 47.3698 52.3559V53.4221C47.3698 53.8622 48.3889 54.3022 49.6393 54.3022C50.6357 54.3022 51.5394 54.048 52.1366 53.5371M53.34 53.7924C52.7381 54.2567 51.3312 55.2954 48.9908 55.2954C47.7404 55.2954 47.184 54.9024 46.9982 54.9024C46.7668 54.9024 46.5116 55.1338 46.2575 55.4357C45.7073 56.0843 44.989 57.2884 44.989 58.6066C44.989 59.5322 45.7073 60.4552 47.0448 60.4552C51.3767 60.4552 54.6147 57.7482 54.6147 55.551C54.6147 54.3022 53.8747 53.7924 53.3404 53.7924M54.1512 34.3255C54.1512 34.9036 54.337 35.575 54.9162 35.575C55.4017 35.575 55.8188 34.8353 55.8188 34.0247C55.8188 33.0987 55.6573 32.3803 55.6573 32.0097C55.6573 31.8488 55.7267 31.7794 55.8188 31.7794C56.1666 31.8021 56.4916 32.7509 56.8618 32.7509C57.2793 32.7509 57.8996 31.9869 58.1541 31.9869C58.2239 31.9869 58.2463 32.0795 58.2463 32.1022C58.2463 32.4501 57.7138 33.2151 57.7138 33.5149C57.7138 33.769 59.0568 33.816 59.0568 34.0474C59.0568 34.3949 57.6495 34.3949 56.9782 34.6961C56.3297 34.973 55.9353 35.3209 55.9353 35.7837C55.9353 36.2465 56.398 36.3383 57.048 36.3383C58.5941 36.3383 59.6818 35.5056 60.0281 35.5056C60.0979 35.5056 60.1434 35.5523 60.1434 35.6221C60.1434 35.8535 59.3568 36.6163 59.3568 36.9642C59.3568 37.3572 60.7931 37.8193 60.7703 38.0506C60.7475 38.1204 60.6539 38.1432 60.4923 38.1432C60.2367 38.1432 59.8434 38.0745 59.5415 38.0745C59.3568 38.0745 59.1949 38.0973 59.1244 38.1899C58.9646 38.3757 59.171 39.6014 58.8493 39.6014C58.5474 39.6014 57.7597 36.8716 55.9819 36.8716C55.7267 36.8716 55.542 37.0791 55.542 37.427C55.542 38.3518 56.4446 39.4166 57.3021 39.9265C57.6903 40.1806 58.3399 40.4359 58.3399 40.5751C58.3399 40.8513 56.8622 40.5979 56.8622 41.0599C56.8622 41.4772 57.0476 42.1031 57.0476 42.4726C57.0476 42.5886 57.0237 42.7267 56.8849 42.7267C56.6077 42.7267 55.9353 41.4541 55.6106 41.4541C55.3334 41.4541 54.7315 42.2173 54.4751 42.2173C54.4065 42.2173 54.3609 42.1475 54.3609 42.0803C54.3609 41.5466 55.2169 40.3437 55.2169 39.1625C55.2169 38.6071 55.1475 37.4031 54.4751 37.4031C53.9199 37.4031 53.2941 38.282 53.0161 39.1625C52.8541 39.6712 52.9702 41.6388 52.5996 41.6388C52.2522 41.6388 52.3444 40.3198 51.8806 40.3198C51.5391 40.3198 50.7983 40.9446 50.5427 40.9446C50.4972 40.9446 50.4506 40.9207 50.4506 40.8748C50.4506 40.5979 51.1219 39.6951 51.1219 39.5092C51.1219 39.1625 49.5934 39.1169 49.5934 38.8385C49.5934 38.6769 50.1953 38.5605 50.7513 38.4679C51.9283 38.2593 53.6657 37.4027 53.6657 36.2009C53.6657 34.8581 52.3672 34.2788 51.5163 33.7224C51.0756 33.4454 50.5897 33.2148 50.5897 33.0289C50.5897 32.8431 51.1457 32.8434 51.3775 32.8434C51.7238 32.8434 52.0675 32.8203 52.0675 32.5434C52.0675 32.334 52.0198 31.9186 52.0198 31.5946C52.0198 31.3621 52.0436 31.1763 52.1373 31.1763C52.4836 31.1763 52.9702 32.3109 53.2015 32.3109C53.5725 32.3109 54.0818 31.3853 54.4303 31.3853C54.5445 31.3853 54.5912 31.4554 54.5912 31.6633C54.5912 32.5191 54.1512 33.491 54.1512 34.3255ZM43.1121 27.5433C43.3677 29.5106 46.0077 28.5152 46.0077 30.8993C46.0077 31.2468 45.9156 31.7566 45.9156 32.1944C45.9156 32.705 45.9611 33.1454 46.3504 33.1454C46.7433 33.1454 46.837 32.8673 46.837 32.4967C46.837 32.125 46.7437 31.6629 46.7437 31.4088C46.7437 30.5981 47.3228 30.4134 47.6702 30.4134C48.5516 30.4134 49.2229 31.3166 50.5427 31.3166C50.242 32.7975 47.1836 32.403 47.1836 34.0247C47.1836 34.8353 47.9952 35.019 48.5277 35.019C49.0143 35.019 49.1774 34.9492 49.1774 34.5341C49.1774 34.3016 49.1296 34.0474 49.1296 33.8855C49.1293 33.8609 49.1339 33.8366 49.1432 33.8138C49.1525 33.7911 49.1662 33.7705 49.1836 33.7531C49.201 33.7358 49.2217 33.7221 49.2445 33.7129C49.2673 33.7038 49.2916 33.6992 49.3162 33.6996C49.8259 33.6996 52.3216 35.5982 52.3216 36.1771C52.3216 36.7085 49.6856 37.2411 48.9218 37.2411C48.6904 37.2411 48.6438 37.0795 48.6438 36.9869C48.6438 36.825 49.0371 36.3383 49.0371 36.061C49.0371 35.8535 48.6904 35.7143 47.7628 35.7143C47.3228 35.7143 46.9989 35.7598 46.9989 36.1087C46.9989 36.7324 48.018 37.4964 48.018 38.0745C48.018 38.5373 47.74 38.8157 46.9989 38.8157C46.3731 38.8157 45.4286 38.3291 45.4286 37.5192C45.4286 36.8716 46.0959 36.2241 46.0959 35.8307C46.0959 35.7143 46.0077 35.5284 45.7297 35.5284C44.8726 35.5284 44.6409 37.7965 41.6075 38.0506C42.0944 37.6117 42.5105 37.1258 42.5105 36.1315C42.5105 35.6448 42.3952 35.25 42.3952 34.7189C42.3952 34.0247 42.7191 33.6768 43.1818 33.6768C44.0382 33.6768 44.4543 34.8797 45.0114 34.8797C45.3137 34.8797 45.6372 34.6035 45.6372 34.1863C45.6372 32.4269 42.256 32.6815 42.256 30.2048C42.256 29.5333 42.4863 28.7007 43.1121 27.5433Z" fill="black"/>
<path d="M47.5092 42.5889C47.5092 42.9125 47.7406 43.1682 48.0652 43.1682C48.4361 43.1682 48.6682 42.8431 48.6682 42.4725C48.6682 41.9877 48.2275 41.3155 47.81 41.3155C47.6242 41.3155 47.695 41.5936 47.6473 41.8944C47.6242 42.125 47.5092 42.4031 47.5092 42.5886M46.3054 39.5106C48.7365 39.9734 50.0567 41.8022 50.0567 43.5149C50.0567 44.6958 49.316 45.7815 48.0186 45.7815C46.8375 45.7815 45.9855 44.9731 45.9855 43.6758C45.9855 42.7039 46.7443 41.6858 46.7443 40.6904C46.7443 40.2974 46.6289 39.904 46.3054 39.5106ZM43.2294 43.4462C43.4597 43.6758 43.5306 43.9083 43.5306 44.1397C43.5306 44.4872 43.3682 44.8578 43.3682 45.2511C43.3682 45.8058 43.7847 46.2924 44.3855 46.2924C45.0351 46.2924 45.4762 45.7819 45.4762 45.1828C45.4762 44.3024 44.5702 43.4462 43.2294 43.4462ZM50.8911 41.9649C51.053 42.2172 51.1225 42.4725 51.1225 42.7039C51.1225 43.3529 50.6825 43.9538 50.6825 44.6264C50.6825 45.3903 51.2616 46.014 52.1375 46.014C53.0872 46.014 53.7357 45.2511 53.7357 44.3483C53.7357 43.1215 52.6245 42.0802 50.8911 41.9649ZM43.7847 40.7363C44.8504 40.8751 45.1056 41.2457 45.1056 41.548C45.1056 42.0564 44.6418 42.2172 44.2008 42.2172C43.8769 42.2172 43.5067 42.1489 43.113 42.1489C42.6037 42.1489 42.095 42.2639 41.6778 42.7509C41.979 42.7976 42.4189 43.0051 42.4189 43.469C42.4189 44.8111 38.6922 43.6997 38.6922 47.1493C38.6922 48.9774 40.5901 50.9693 43.4597 50.9693C44.9426 50.9693 45.8923 50.4826 45.8923 49.9261C45.8923 49.4872 45.1056 49.7873 45.1056 49.4167C45.1056 49.2547 45.3825 48.9528 45.3825 48.6982C45.3825 48.5851 45.2904 48.3765 45.1056 48.3765C44.6874 48.3765 43.9007 49.0461 42.3025 49.0461C41.0532 49.0461 39.8262 48.3298 39.8262 47.3572C39.8262 47.1497 39.9188 47.0325 40.0576 47.0325C40.1964 47.0325 40.3815 47.1258 40.5435 47.1258C40.6837 47.1258 40.7065 47.0325 40.7065 46.778C40.7065 46.5235 40.7065 45.8054 41.1454 45.8054C41.5853 45.8054 42.4189 47.4267 45.615 47.4267C46.6759 47.4267 48.7365 47.218 49.5018 46.5238C49.478 49.07 47.4864 52.4256 43.3216 52.4256C38.9941 52.4256 36.6786 48.9528 36.6786 45.7591C36.6786 42.2172 39.571 39.0015 43.5302 39.0015C44.5474 39.0015 45.4057 39.3472 45.4057 39.7876C45.4057 40.3903 43.9007 40.0201 43.7847 40.7363ZM28.811 14.3039C30.3387 14.3039 31.0316 15.6233 31.0316 17.1046C31.0316 17.7521 30.848 18.702 30.5469 18.702C30.2457 18.702 30.292 18.1694 30.2461 17.6827C30.1995 17.0587 30.0845 16.9198 29.8756 16.9198C29.4815 16.9198 29.2281 17.8447 29.2281 18.702C29.2281 19.2334 29.3207 19.8362 29.7368 19.8362C29.9681 19.8362 30.1767 19.7201 30.3148 19.5809C30.2222 20.6461 29.4345 21.5728 28.3244 21.5728C26.288 21.5728 25.5242 19.1875 25.2928 17.7988C24.0662 19.0953 22.9329 20.0448 20.8959 20.0448C18.9987 20.0448 18.1416 18.6564 18.1416 17.3371C18.1416 16.9426 18.2804 15.9244 18.7674 15.9244C19.3454 15.9244 18.8371 17.8215 19.9701 17.8215C20.2481 17.8215 20.7567 17.5901 21.0351 16.8273C21.1967 16.3634 21.2903 15.8785 21.2903 15.4613C21.2903 14.8354 21.1507 14.4431 20.6891 14.4431C20.2947 14.4431 19.8081 14.7432 19.6462 14.9052C20.2025 13.238 21.5444 12.3818 23.0244 12.3818C24.854 12.3818 25.8253 14.0031 25.8253 15.808C25.8253 16.0622 25.8014 16.3406 25.7555 16.5948C26.5425 15.2982 27.631 14.3039 28.811 14.3039ZM27.028 17.0348C27.028 16.6418 26.9358 16.5492 26.8433 16.5492C26.6119 16.5492 26.3578 16.8273 25.9873 17.452C26.0339 18.2858 26.1731 18.6561 26.4044 18.6561C26.6578 18.6561 27.028 17.8443 27.028 17.0348ZM23.8577 17.9835C24.1118 17.9835 24.4368 17.7055 25.0387 17.0348C25.0853 16.7336 25.0853 16.4556 25.0853 16.1092C25.0853 15.6464 24.8995 15.1366 24.6226 15.1366C23.9271 15.1366 23.5804 16.9892 23.5804 17.4763C23.5804 17.7521 23.7185 17.9835 23.8577 17.9835ZM27.631 20.0448C28.209 20.0448 28.8565 17.8215 28.8565 16.4328C28.8565 16.1316 28.8109 15.8084 28.6718 15.8084C28.1852 15.8084 27.3754 18.1 27.3754 19.3495C27.3754 19.8362 27.4918 20.0448 27.631 20.0448ZM21.9612 18.7714C22.7479 18.7714 23.6487 14.5125 23.6487 13.7945C23.6487 13.6086 23.58 13.4694 23.4184 13.4694C22.7012 13.4694 21.706 17.5207 21.706 18.4236C21.706 18.5866 21.7526 18.7714 21.9612 18.7714Z" fill="black"/>
<path d="M24.4827 20.5299C23.4875 20.5299 23.4419 21.735 23.4419 24.164C22.702 22.5673 21.475 20.8546 20.0399 20.8546C19.0685 20.8546 18.698 21.5036 18.698 22.636C18.698 22.8685 18.7207 23.2163 18.7677 23.4228C18.8827 23.0305 19.2543 22.8685 19.7159 22.8685C20.7112 22.8685 21.9153 23.6314 22.7016 24.6734C21.7989 24.5118 20.919 24.3498 20.1787 24.3498C19.7159 24.3498 19.2988 24.3965 18.9521 24.5585C18.2808 24.8582 17.3781 25.8536 17.3781 27.3588C17.3781 27.5902 17.402 27.8443 17.4486 28.1227C18.258 26.3167 20.4104 25.5068 21.7989 25.5068C22.0769 25.5068 22.2848 25.53 22.4464 25.5527C21.7295 26.2003 21.5676 27.336 21.5209 28.0989C21.4981 28.4695 21.359 28.4933 21.1048 28.4933C21.1048 29.2562 21.7067 30.3916 21.7067 30.9697C21.7067 31.1772 21.5903 31.3631 21.4754 31.4097C21.4754 32.4282 22.4934 33.1691 22.4934 33.817C22.4934 33.9786 22.4464 34.1182 22.3769 34.1876C22.4467 34.6048 23.5664 35.3053 23.7115 35.6561C23.8892 36.0829 24.0894 36.1556 24.2054 36.1556C24.5987 36.1556 25.2227 35.6913 25.2227 35.2752C25.2227 35.1363 25.1074 34.974 25.0159 34.9046C24.576 34.581 24.3439 33.8864 24.1588 33.4236C23.9961 33.4236 23.7864 33.3549 23.7137 33.0831C23.587 32.6034 23.5808 31.7109 23.3949 31.1772C23.0938 31.1089 22.955 30.9925 22.955 30.3691C22.955 30.0669 23.1408 28.8867 23.1408 28.4695C23.0016 28.4695 22.8169 28.3769 22.8169 28.0985C22.8169 27.3588 23.558 26.7799 23.7655 25.8308C25.0857 26.8023 25.4085 27.7977 25.4085 28.6781C25.4085 29.1398 25.3387 29.5809 25.2465 29.9982C26.219 29.5115 27.6769 28.7942 27.6769 27.336C27.6769 26.4787 27.284 25.53 24.6685 25.1594C25.4779 24.8582 26.4974 24.6973 27.353 24.6973C28.8341 24.6973 29.6901 25.1594 29.8748 26.2003C30.176 25.7386 30.4084 25.2049 30.4084 24.7201C30.4084 23.5847 29.4577 22.8446 28.255 22.8446C26.8437 22.8446 25.5939 23.5847 24.2513 24.4887C24.8543 23.2391 25.2693 22.4979 26.0104 22.4979C26.1264 22.4979 26.2429 22.5218 26.3578 22.5446C26.0798 21.5264 25.0391 20.5299 24.4827 20.5299ZM63.4763 37.2186C64.6346 37.2186 65.56 38.7237 65.56 40.4831C65.56 42.3563 64.6801 44.3941 63.1109 45.7818C63.0871 42.6586 59.2637 43.654 59.2637 41.3852C59.2637 40.4133 59.9593 39.7647 60.7937 39.7647C61.5355 39.7647 62.1135 39.9733 62.5307 40.3906C62.1135 39.9975 61.9049 39.4407 61.9049 38.9096C61.9049 38.0281 62.4613 37.2186 63.4763 37.2186ZM46.3054 13.5395C46.1192 13.2383 45.4292 13.0778 45.1053 13.0778C44.0851 13.0778 43.391 13.7951 43.2518 14.4438C43.1596 14.2113 43.0891 13.9339 43.0891 13.6559C43.0891 12.6377 43.7843 11.3878 45.4762 11.3878C46.9536 11.3878 47.5316 12.1746 47.7413 12.1746C47.9719 12.1746 48.204 11.9421 48.3898 11.9421C48.6443 11.9421 48.6443 12.3366 48.6443 12.615C48.6443 13.5395 48.2283 15.1372 47.1853 15.7161C46.9995 15.322 46.6289 14.8827 46.0311 14.6057C45.9617 14.5781 45.9025 14.5301 45.8611 14.4679C45.8198 14.4058 45.7984 14.3325 45.7997 14.2579C45.7997 14.0037 46.0314 13.6787 46.3054 13.5395ZM42.8119 15.2294C43.4141 15.8086 43.9452 16.0632 44.5937 16.0632C44.85 16.0632 45.1512 15.9945 45.3139 15.9945C45.5217 15.9945 45.6605 16.0856 45.6605 16.2479C45.6605 16.5028 45.4292 16.9194 45.1512 17.1515C45.4292 17.2668 45.7303 17.3138 46.0549 17.3138C47.3697 17.3138 48.8753 16.479 48.8753 14.3971C49.1537 14.7666 49.3167 15.5313 49.3167 15.8781C49.3167 18.4014 47.4633 19.3729 45.7542 19.3729C44.6414 19.3729 44.0851 19.0023 43.9452 19.0023C43.5071 19.0023 43.5302 19.8827 43.2291 19.8596C42.6958 19.7674 42.2111 18.5862 42.2111 17.3362C42.2111 16.5954 42.3958 15.8083 42.8119 15.2294ZM23.0016 0.508399C23.0016 0.369192 22.3075 0.230353 21.359 0.230353C19.8551 0.230353 20.0626 1.48101 18.9066 1.48101C17.7027 1.48101 18.0028 0.183338 16.4754 0.183338C15.5493 0.183338 14.6943 0.346419 14.6943 0.554311C14.6943 0.832357 15.7817 0.717025 15.7817 1.48101C15.7817 2.29054 13.4446 2.52304 13.4446 3.00898C13.4446 3.16985 13.6283 3.23927 13.8596 3.23927C14.3693 3.23927 15.1791 3.00861 15.7582 3.00861C16.0829 3.00861 16.3836 3.07729 16.3836 3.37848C16.3836 3.95734 15.1332 4.99974 15.1332 5.46254C15.1332 5.60175 15.2485 5.64839 15.3646 5.64839C15.8273 5.64839 16.6143 4.46716 17.355 4.46716C18.5815 4.46716 17.7725 7.0827 18.4427 7.0827C19.1379 7.0827 18.8371 4.5127 19.8313 4.5127C20.6429 4.5127 21.2437 6.29484 21.7989 6.29484C21.9381 6.29484 22.0541 6.17988 22.0541 6.01679C22.0541 5.53196 21.359 4.53547 21.359 3.88792C21.359 3.49455 21.637 3.30869 22.0075 3.30869C22.5389 3.30869 23.2572 3.63265 23.6491 3.63265C23.7886 3.63265 23.9274 3.58711 23.9274 3.42513C23.9274 2.86977 21.8683 2.26777 21.8683 1.55043C21.8683 0.832357 23.0016 0.832357 23.0016 0.508399ZM28.4408 2.86977C28.4408 3.28592 29.8987 4.18911 30.5704 4.18911C30.9626 4.18911 31.0786 3.65653 31.0786 3.10007C31.0786 2.4066 30.779 2.38383 30.176 2.38383C29.4132 2.38383 28.4408 2.59246 28.4408 2.86977ZM30.8484 7.4522C30.8484 6.06381 27.0926 3.54119 27.0522 2.45325C27.0482 2.35408 27.1022 2.25491 27.1859 2.16602C27.8297 1.48835 30.5006 0.993234 30.5006 0.415104C30.5006 0.115021 29.9446 0.115021 29.6662 0.115021C27.515 0.115021 24.3674 0.901777 24.3674 1.66576C24.3674 2.45362 27.1903 4.3746 27.1903 5.32333C27.1903 5.57861 27.0284 5.67117 26.7731 5.67117C25.9873 5.67117 24.2741 4.72133 23.4643 4.72133C23.0942 4.72133 22.955 4.97587 22.955 5.34611C22.955 6.45792 24.2741 8.56365 24.2741 9.18806C24.2741 9.25748 24.2513 9.34967 24.1588 9.34967C23.7416 9.34967 21.7761 7.03605 21.081 7.03605C20.8265 7.03605 20.8037 7.38278 20.8037 7.89223V8.67935C20.8037 9.21194 20.7798 9.53516 20.5268 9.53516C19.9245 9.53516 19.6454 7.84558 19.0689 7.84558C18.4666 7.84558 18.3506 10.8549 17.7725 10.8549C17.1008 10.8549 17.68 7.54476 17.0314 7.54476C16.3142 7.54476 15.5037 9.74415 14.9944 9.74415C14.8097 9.74415 14.7637 9.5583 14.7637 9.39632C14.7637 8.726 15.156 7.63806 15.156 6.99051C15.156 6.66545 15.0638 6.48069 14.7865 6.48069C14.0686 6.48069 12.4942 7.63806 11.8934 7.63806C11.8009 7.63806 11.6856 7.59141 11.6856 7.49885C11.6856 6.94386 14.2074 5.18449 14.2074 4.39774C14.2074 3.63265 10.7352 4.1432 10.7352 3.26278C10.7352 2.52304 13.2133 1.75795 13.2133 0.995071C13.2136 0.322545 10.2732 0.0224609 9.14024 0.0224609C7.77339 0.0224609 7.0345 0.183338 7.0345 0.577818C7.0345 1.18019 10.1355 1.36568 10.1355 1.89716C10.1355 2.4066 6.91846 3.77186 6.91846 4.55861C6.91846 5.25391 11.4531 4.60526 11.4531 5.32333C11.4531 6.11009 7.49722 9.51165 7.49722 10.6462C7.49722 10.9015 7.68305 11.0165 7.93607 11.0165C9.14024 11.0165 12.2629 8.726 13.12 8.726C13.4211 8.726 13.4446 9.0955 13.4446 9.41909C13.4446 10.0222 13.236 10.9471 13.236 11.6189C13.236 12.1514 13.3756 12.5217 13.8372 12.5217C14.6943 12.5217 15.481 11.0635 16.059 11.0635C16.799 11.0635 16.3609 15.3451 17.4714 15.3451C18.42 15.3451 18.8133 10.7157 19.4141 10.7157C20.0171 10.7157 20.5037 12.0589 21.0578 12.0589C21.7519 12.0589 21.4287 9.72138 22.1695 9.72138C22.9788 9.72138 25.2921 12.4989 26.335 12.4989C26.6582 12.4989 26.7731 12.2436 26.7731 11.9186C26.7731 10.6929 25.0618 7.9161 25.0618 7.03605C25.0618 6.80465 25.1301 6.73487 25.3846 6.73487C26.2884 6.73487 28.9266 7.98479 30.176 7.98479C30.5932 7.98479 30.8484 7.75339 30.8484 7.4522ZM9.71754 6.11009C9.71754 6.57289 7.95958 8.12289 7.33564 8.12289C7.10428 8.12289 7.0345 7.84558 7.0345 7.59141C7.0345 7.12935 7.24236 6.48069 7.49759 6.27207C7.79762 5.99402 8.4917 5.85702 9.0242 5.85702C9.347 5.85702 9.71754 5.92423 9.71754 6.11009ZM26.728 8.49423C26.728 9.30413 29.6211 13.2618 30.1763 13.2618C30.6402 13.2618 30.9857 12.4523 30.9857 11.7566C30.9857 11.5729 30.9402 11.3882 30.8487 11.2482C30.4316 10.6701 27.4926 8.35539 26.844 8.35539C26.7735 8.35539 26.728 8.42518 26.728 8.49423ZM63.8928 1.48138C63.8928 1.80423 64.1473 2.0584 64.4719 2.0584C64.548 2.05923 64.6234 2.04491 64.6939 2.01625C64.7644 1.9876 64.8284 1.94519 64.8823 1.89151C64.9363 1.83783 64.9789 1.77395 65.0079 1.7036C65.0369 1.63324 65.0515 1.55783 65.051 1.48174C65.051 1.15668 64.7958 0.902144 64.4719 0.902144C64.3956 0.901308 64.3199 0.915719 64.2493 0.944532C64.1786 0.973345 64.1145 1.01598 64.0605 1.06993C64.0066 1.12389 63.964 1.18807 63.9352 1.25873C63.9063 1.32938 63.8919 1.40508 63.8928 1.48138ZM60.1212 6.59639C60.1212 4.95236 56.1903 4.53584 56.1903 4.1656C56.1903 3.86552 58.3864 3.35497 59.5197 3.33183C57.7845 1.11077 55.3104 1.34217 55.3104 0.948791C55.3104 0.71629 57.1628 0.253493 58.873 0.253493C60.3074 0.253493 61.65 0.577451 61.65 1.66503C61.65 2.26813 61.1646 2.89291 61.1646 3.81887C61.1646 4.32868 61.418 4.76761 62.0911 4.76761C62.8094 4.76761 62.9714 4.00362 62.9714 3.19299C62.9714 2.52267 62.855 2.01286 62.855 1.6889C62.855 0.71629 63.5222 0.069108 64.4719 0.069108C65.2596 0.069108 65.4443 0.415472 66.6026 0.415472C65.9768 0.786077 65.7462 1.4586 65.7462 1.78146C65.7462 2.75407 66.372 3.42549 66.372 5.41626C66.372 9.07199 62.9475 10.3686 58.757 10.3686C57.6038 10.3686 56.3762 10.276 55.1712 10.0913C54.9865 10.0685 54.9399 10.0215 54.9399 9.9065C54.9399 9.60458 56.5847 9.4426 56.5847 7.96238C56.5847 7.38315 56.3989 6.82779 56.3989 6.61917C56.3989 6.5042 56.4915 6.43441 56.5847 6.43441C56.9325 6.43441 57.6277 7.77653 58.9196 7.77653C59.2645 7.77653 60.1216 7.66046 60.1216 6.59639M64.0308 4.2589C64.0308 6.31835 62.5314 7.89296 59.8194 8.33225C60.1216 8.35466 60.3996 8.35466 60.6776 8.35466C63.8461 8.35466 65.0044 6.92035 65.0044 5.71745C65.0044 5.04565 64.6335 4.44328 64.0308 4.2589ZM62.4381 34.0943C62.8091 32.9373 63.2729 32.1263 64.0316 30.8768C63.2729 30.4845 61.2575 29.65 61.2575 28.2836C61.2575 26.6873 63.249 25.4378 63.661 25.4378C63.8458 25.4378 63.8924 25.5994 63.8924 25.9006C63.8924 26.7332 63.4991 28.0761 63.4991 28.7934C63.4991 29.4413 63.9163 30.0672 64.2868 30.0672C64.6798 30.0672 65.7686 28.6785 65.7686 27.3125C65.7686 24.8574 63.6144 24.1173 62.9482 24.1173C62.3221 24.1173 61.1881 25.1359 58.5249 25.1359C53.551 25.1359 52.4155 20.2074 52.4155 18.0536C52.4155 17.9614 52.4383 17.9375 52.4614 17.9375C52.5774 17.9375 53.064 18.5406 54.6384 18.5406C55.4489 18.5406 56.19 18.332 57.3721 18.332C60.1447 18.332 61.3728 20.2541 63.0871 22.7058C64.1238 23.3537 66.603 24.3954 66.603 27.3352C66.603 29.928 63.8458 31.3634 63.1796 34.1402C64.2402 34.026 64.8659 32.1263 65.9533 32.1263C66.5097 32.1263 66.7649 32.5663 66.7649 33.262C66.7649 34.2794 66.1858 35.8081 65.0734 36.7569C65.0973 36.6632 65.0973 36.5482 65.0973 36.409C65.0973 35.7615 64.8432 34.8366 64.101 34.8366C62.9479 34.8366 62.5766 36.0854 61.9288 37.1264C61.2575 34.7668 60.3533 32.6361 58.7346 31.3395C57.0948 30.0202 54.2678 30.7375 54.2678 28.3306C54.2678 27.682 54.685 26.7571 54.685 26.0159C54.685 25.7617 54.6384 25.53 54.4996 25.3445C56.7236 26.179 55.9355 27.6588 57.3023 29.1868C58.1543 30.1594 60.5157 31.0854 61.8832 35.0897C61.9053 34.9736 61.9288 34.6735 61.9288 34.4649C61.9288 31.0387 57.3949 27.682 57.0016 26.2932C59.6354 26.5944 60.0981 27.2427 61.3496 30.7148C61.6041 31.4332 62.4381 33.2153 62.4381 34.0943ZM61.8362 22.8678C61.8362 22.3818 60.6078 22.3363 60.4925 20.9703C60.4686 20.7617 60.4003 20.3922 60.1451 20.3922C59.7279 20.3922 60.0515 21.6649 59.5887 21.6649C58.5249 21.6649 58.1786 19.5815 57.7841 19.5815C57.6905 19.5815 57.5807 19.6513 57.5807 19.9294C57.5807 20.1835 57.6273 20.3466 57.6273 20.6456C57.6273 20.9475 57.5576 21.1551 57.2796 21.1551C56.6538 21.1551 56.0985 19.698 55.5653 19.698C55.4489 19.698 55.3339 19.7674 55.3339 19.8827C55.3339 20.1608 55.7967 20.6695 55.7967 20.9248C55.7967 21.4801 54.2917 21.1789 54.2917 21.6421C54.2917 21.8507 54.4996 21.919 54.7776 21.919C55.2642 21.919 56.0291 21.7115 56.4224 21.7115C56.6538 21.7115 57.0016 21.7582 57.0016 22.0582C57.0016 22.3818 56.1679 22.7984 56.1679 23.0992C56.1679 23.2384 56.3075 23.3067 56.4224 23.3067C57.0482 23.3067 58.1547 22.2202 58.942 22.2202C59.0801 22.2202 59.4268 22.2896 59.4268 22.4983C59.4268 22.7984 58.6409 23.3298 58.6409 23.7699C58.6409 23.8859 58.7107 24.0251 58.8499 24.0251C59.2637 24.0251 59.8201 22.9372 60.6078 22.9372C60.9097 22.9372 61.3497 23.0536 61.581 23.0536C61.7672 23.0536 61.8366 22.9372 61.8366 22.8678" fill="black"/>
<path d="M44.5936 9.00252C44.9653 9.00252 45.0347 9.90608 45.1052 10.4376C45.1511 10.716 45.1977 10.7387 45.3142 10.7387C45.5922 10.7387 46.031 9.67358 46.3277 9.67358C46.7669 9.67358 47.9491 10.9004 49.9175 10.9004C52.7166 10.9004 55.3566 8.93273 55.3566 5.46175C55.3566 2.1061 52.9935 0.138105 49.7317 0.138105C48.1815 0.138105 47.0449 0.902089 46.443 0.902089C46.0776 0.924861 45.5213 0 45.2433 0C45.1283 0 45.0119 0.230297 45.0119 0.623675C45.0119 0.879316 45.0119 1.68884 44.7339 1.68884C44.1765 1.68884 42.0252 0.0925596 42.0252 0.67069C42.0252 1.20327 43.4596 2.82307 43.4596 3.23958C43.4596 3.65684 42.0479 4.05022 42.0479 4.32826C42.0479 4.83697 43.5529 4.92916 43.5529 5.57818C43.5529 6.22573 41.9785 6.73518 41.9785 7.22222C41.9785 7.61449 43.5529 7.33718 43.5529 7.82312C43.5529 8.30906 42.3957 9.92922 42.3957 10.3909C42.3957 10.5073 42.4185 10.5073 42.511 10.5073C42.9499 10.5073 44.269 9.00252 44.5936 9.00252ZM45.2672 5.20758C45.2672 4.95304 44.3623 4.46747 44.3623 4.18905C44.3623 4.14351 44.4078 4.11964 44.4787 4.11964C44.7339 4.11964 45.1739 4.21293 45.5216 4.21293C45.8235 4.21293 45.8691 2.91636 46.0964 2.91636C46.2572 2.91636 46.5356 4.14351 46.7919 4.14351C47.0916 4.14351 47.6469 3.79568 47.8793 3.79568C47.926 3.79568 47.9719 3.81882 47.9719 3.86546C47.9719 4.02708 47.3927 4.65112 47.3927 4.83697C47.3927 5.0456 48.6898 5.29977 48.6898 5.48562C48.6898 5.71702 47.37 5.69425 47.37 5.90288C47.37 6.06375 47.8565 6.71241 47.8565 6.9203C47.8565 6.96694 47.8327 6.99082 47.7868 6.99082C47.6013 6.99082 46.8834 6.66576 46.6744 6.66576C46.4203 6.66576 46.0082 7.61449 45.7996 7.61449C45.7299 7.61449 45.6843 7.52193 45.6843 7.40587L45.6366 6.48027C45.6366 6.38771 45.5922 6.29515 45.4757 6.29515C45.1977 6.29515 44.6641 6.27128 44.5015 6.27128C44.385 6.27128 44.3395 6.24851 44.3395 6.20296C44.3395 6.01711 45.2672 5.36919 45.2672 5.20758ZM49.779 9.60489C48.158 9.60489 47.092 8.79536 47.092 8.37811C47.092 8.16948 47.2311 8.03138 47.417 8.03138C47.9263 8.03138 49.0379 8.8174 49.4085 8.8174C49.5007 8.8174 49.5701 8.77149 49.5701 8.63228C49.5701 8.21503 49.1771 7.52157 49.1771 7.1752C49.1771 7.08264 49.2465 7.01322 49.3857 7.01322C50.01 7.01322 50.938 7.2685 51.425 7.2685C51.5858 7.2685 51.6314 7.1752 51.6314 7.08264C51.6314 6.5732 50.1264 5.57782 50.1264 5.27663C50.1264 4.99858 51.9975 4.58133 51.9975 4.14314C51.9975 3.67924 49.454 4.0032 49.454 3.56391C49.454 3.23922 49.9406 2.68386 49.9406 2.42932C49.9406 2.31325 49.8484 2.26771 49.6865 2.26771C49.4779 2.26771 48.3666 2.70773 47.9035 2.70773C47.6711 2.70773 47.3931 2.66109 47.3931 2.33713C47.3931 1.80344 48.2969 1.22531 49.7093 1.22531C51.9975 1.22531 53.3655 2.79993 53.3655 5.43824C53.3655 8.77149 51.0295 9.60489 49.779 9.60489ZM34.1105 49.6487C34.1105 49.8573 34.0407 50.0898 33.8553 50.3205C33.6019 49.8577 32.8835 49.6248 32.5589 49.6263C30.1763 49.6263 31.0778 53.0752 28.5321 53.0752C27.4686 53.0752 27.3753 52.936 26.9817 52.936C26.8201 52.936 26.7275 53.0058 26.7275 53.1446C26.7275 53.7477 27.5836 55.2279 29.9677 55.2279C32.3518 55.2279 34.6426 53.7705 34.6426 51.9627C34.6426 51.6626 34.5732 51.3408 34.434 51.0158C34.5266 50.8765 34.759 50.7844 34.9676 50.7844C35.3371 50.7844 35.5456 51.2016 35.8923 51.2016C36.2636 51.2016 36.5409 50.9236 36.5409 50.553C36.5409 50.2518 36.3793 50.0431 36.1009 49.9028C36.2867 49.7651 36.4248 49.5326 36.4248 49.2784C36.4248 48.8847 36.1475 48.5163 35.6837 48.5163C35.4751 48.5163 35.3371 48.5861 35.1751 48.7458C35.1296 48.3308 34.8982 47.937 34.4579 47.937C34.1105 47.937 33.8553 48.1916 33.8553 48.5861C33.8553 48.9534 34.1105 49.2553 34.1105 49.6487Z" fill="black"/>
<path d="M27.8851 50.5294C27.191 50.5294 26.1488 49.7882 26.1488 49.3709C26.1488 49.0231 26.4738 48.8376 26.7268 48.8376C27.3059 48.8376 28.3467 49.5557 28.3467 50.1577C28.3467 50.3208 28.2306 50.5294 27.8851 50.5294ZM21.4279 45.3446C23.2792 45.8055 24.205 46.8009 24.3897 47.9833C24.5755 49.1156 24.8069 50.0423 25.2461 50.5055C25.8249 51.1553 26.9582 51.7312 27.9545 51.7312C28.7881 51.7312 29.4572 51.4561 29.4572 50.6914C29.4572 49.8576 28.3239 47.9833 26.6574 47.9833C26.4965 47.9833 26.288 48.0071 26.0566 48.0071C25.848 48.0071 25.5469 47.9605 25.3611 47.7985C24.9916 47.4734 24.8763 45.7372 24.1811 44.6959C23.4184 43.5389 22.5851 43.2139 21.4518 43.2139C20.6424 43.2139 19.7383 43.6539 19.7383 44.3025C19.7383 44.6959 19.9469 44.9732 21.4279 45.3446Z" fill="black"/>
<path d="M33.0459 42.519C33.0459 41.4777 30.8924 41.4549 30.8924 39.8803C30.8924 39.4858 31.1476 38.8152 31.6574 38.0971C31.866 39.3011 32.3514 39.9262 33.3937 40.3204C35.4524 41.0832 35.7308 42.2406 35.7308 43.4685C35.7308 45.5529 34.2728 48.1446 30.5241 48.1446C27.5146 48.1446 25.3622 45.4596 25.3622 43.1915C25.3622 42.5657 25.5238 41.8711 25.9174 41.8711C26.2649 41.8711 26.3813 42.1484 26.6574 42.4264C27.7004 43.4685 28.8333 43.7458 30.4774 43.7458C31.9581 43.7458 33.0459 43.1449 33.0459 42.519ZM33.1381 44.1858C32.3445 44.5494 32.0279 44.487 32.0279 45.2987C32.0279 45.5985 31.9581 45.9907 31.9581 46.1994C31.9581 46.4767 32.0048 46.6397 32.3276 46.6397C33.1619 46.6397 34.4811 45.2278 34.4811 44.0238C34.4811 43.6991 34.2952 43.5621 34.0866 43.5621C33.9008 43.5621 33.6944 43.9316 33.1381 44.1858ZM25.7555 32.4972C25.7555 31.0152 29.2736 30.2284 29.2736 28.3996C29.2736 28.0984 29.1583 27.567 28.9497 27.1729C30.1763 27.8443 31.0782 28.98 31.0782 29.9045C31.0782 31.5022 29.4124 32.242 29.4124 33.2384C29.4124 34.3958 31.1943 34.5806 31.1943 36.016C31.1943 37.195 29.5039 38.5614 29.5039 40.0893C29.5039 41.2691 30.3383 42.2406 31.6107 42.4026C31.1943 42.4959 30.8241 42.5657 30.4308 42.5657C28.0926 42.5657 25.6861 40.6454 25.6861 38.3527C25.6861 37.2178 26.1727 36.2246 26.9127 35.5062C27.5612 36.0619 28.209 36.4321 28.6247 36.4321C28.9956 36.4321 29.1583 36.2474 29.1583 35.9693C29.1583 35.112 25.7555 34.3264 25.7555 32.4972ZM12.3319 43.9313C12.4296 44.7221 13.1662 45.3208 13.9984 45.2286C14.2984 45.1955 14.5775 45.1121 14.7633 44.9972C14.9481 45.7373 15.5698 46.2137 16.4093 46.1035C17.2613 45.9926 17.8415 45.3211 17.749 44.4635C17.7325 44.2795 17.6856 44.0995 17.6102 43.9309C17.6102 43.9309 17.7233 43.9199 17.8085 43.903C18.6436 43.7451 19.2073 43.0747 19.1379 42.2641C19.0453 41.4318 18.298 40.8133 17.5187 40.9088C17.2176 40.9459 16.9385 41.0601 16.7527 41.2232C16.5441 40.5297 15.8915 39.9255 14.9998 40.0739C14.1956 40.2069 13.6631 40.89 13.7443 41.7554C13.7567 41.8957 13.7898 42.0566 13.8596 42.2175L13.6301 42.2516C12.9543 42.3523 12.2217 43.0321 12.3319 43.9313ZM16.6565 43.0207C16.6788 43.2502 16.6102 43.4792 16.4654 43.6586C16.3207 43.838 16.1114 43.9534 15.8824 43.98C15.6535 44.0067 15.4233 43.9425 15.2412 43.8011C15.0591 43.6598 14.9398 43.4526 14.9088 43.2242C14.8954 43.1094 14.9048 42.9932 14.9364 42.882C14.9679 42.7709 15.0211 42.667 15.0928 42.5764C15.1645 42.4858 15.2533 42.4102 15.3542 42.354C15.4551 42.2977 15.5661 42.2619 15.6809 42.2485C15.7956 42.2351 15.9119 42.2445 16.023 42.2761C16.1342 42.3077 16.238 42.3608 16.3286 42.4325C16.4192 42.5042 16.4948 42.5931 16.551 42.694C16.6073 42.7949 16.6431 42.906 16.6565 43.0207Z" fill="black"/>
</svg>
