<svg width="202" height="23" viewBox="0 0 202 23" fill="none" xmlns="http://www.w3.org/2000/svg">
<path d="M10.088 22.096L3.24 3.024C3.09067 2.59733 2.888 2.26667 2.632 2.032C2.39733 1.776 2.06667 1.584 1.64 1.456L0.872 1.2V0.879999H10.088V1.2L9.096 1.488C8.60533 1.616 8.328 1.84 8.264 2.16C8.22133 2.48 8.27467 2.87467 8.424 3.344L13.16 17.392L17.928 3.312C18.0987 2.82133 18.1733 2.416 18.152 2.096C18.152 1.776 17.9067 1.552 17.416 1.424L16.584 1.2V0.879999H21.064V1.2L20.2 1.456C19.7947 1.56267 19.5067 1.75467 19.336 2.032C19.1653 2.288 19.0053 2.62933 18.856 3.056L12.456 22.096H10.088ZM18.7227 22V21.68L19.3627 21.424C19.7894 21.2747 20.0667 21.072 20.1947 20.816C20.3441 20.56 20.4187 20.2187 20.4187 19.792V3.088C20.4187 2.66133 20.3547 2.32 20.2267 2.064C20.0987 1.808 19.8107 1.60533 19.3627 1.456L18.7227 1.2V0.879999H26.9467V1.2L26.3067 1.456C25.8801 1.60533 25.5921 1.808 25.4427 2.064C25.3147 2.32 25.2507 2.66133 25.2507 3.088V19.792C25.2507 20.2187 25.3147 20.56 25.4427 20.816C25.5921 21.0507 25.8801 21.2533 26.3067 21.424L26.9467 21.68V22H18.7227ZM25.5638 22V21.68L26.6198 21.36C27.0038 21.2533 27.2811 21.0507 27.4518 20.752C27.6224 20.432 27.7078 20.0587 27.7078 19.632V4.24C27.4731 3.728 27.2811 3.344 27.1318 3.088C27.0038 2.832 26.8544 2.61867 26.6838 2.448C26.5131 2.256 26.2784 2.02133 25.9798 1.744L25.4358 1.2V0.879999H31.0998L41.7238 15.376V3.312C41.7238 2.88533 41.6491 2.50133 41.4998 2.16C41.3718 1.81867 41.0944 1.59467 40.6678 1.488L39.6118 1.2V0.879999H44.1878V1.2L43.3238 1.488C42.9398 1.616 42.7051 1.84 42.6198 2.16C42.5344 2.48 42.4918 2.85333 42.4918 3.28V22.096H40.6998L28.4758 5.296V19.632C28.4758 20.0587 28.5398 20.4213 28.6678 20.72C28.7958 21.0187 29.0624 21.232 29.4678 21.36L30.4278 21.68V22H25.5638ZM53.237 22.576C51.1677 22.576 49.2903 22.16 47.605 21.328C45.941 20.4747 44.6183 19.216 43.637 17.552C42.6557 15.888 42.165 13.8507 42.165 11.44C42.165 9.60533 42.4637 7.99467 43.061 6.608C43.6583 5.22133 44.469 4.05867 45.493 3.12C46.5383 2.18133 47.733 1.47733 49.077 1.008C50.4423 0.538666 51.8823 0.303999 53.397 0.303999C54.613 0.303999 55.733 0.442666 56.757 0.719999C57.781 0.997333 58.741 1.38133 59.637 1.872L59.765 5.808H59.445L57.845 3.248C57.6317 2.84267 57.397 2.48 57.141 2.16C56.885 1.81867 56.565 1.56267 56.181 1.392C55.861 1.24267 55.541 1.136 55.221 1.072C54.9223 0.986665 54.5383 0.943998 54.069 0.943998C52.8317 0.943998 51.701 1.27467 50.677 1.936C49.6743 2.59733 48.8637 3.696 48.245 5.232C47.6477 6.74667 47.349 8.82667 47.349 11.472C47.349 14.096 47.637 16.176 48.213 17.712C48.789 19.2267 49.5677 20.3147 50.549 20.976C51.5517 21.616 52.6717 21.936 53.909 21.936C54.5917 21.936 55.1357 21.8933 55.541 21.808C55.9463 21.7013 56.3517 21.552 56.757 21.36C57.1623 21.1893 57.4717 20.944 57.685 20.624C57.8983 20.2827 58.0903 19.92 58.261 19.536L59.669 16.4H59.989L59.893 20.976C58.997 21.4453 57.9943 21.8293 56.885 22.128C55.7757 22.4267 54.5597 22.576 53.237 22.576ZM58.3103 22V21.68L59.0463 21.392C59.4089 21.2427 59.6543 21.0507 59.7823 20.816C59.9316 20.56 60.0063 20.2187 60.0063 19.792V3.088C60.0063 2.66133 59.9423 2.33067 59.8143 2.096C59.7076 1.84 59.4516 1.63733 59.0463 1.488L58.3103 1.2V0.879999H73.6383L73.8303 5.808H73.5103L72.1343 2.8C71.9423 2.416 71.7396 2.10667 71.5263 1.872C71.3129 1.63733 70.9929 1.52 70.5663 1.52H64.8063V10.768H68.2303C68.6569 10.768 68.9769 10.6613 69.1903 10.448C69.4249 10.2133 69.6276 9.904 69.7983 9.52L70.4383 8.24H70.7583V14H70.4383L69.7983 12.656C69.6063 12.272 69.4036 11.9733 69.1903 11.76C68.9769 11.5253 68.6569 11.408 68.2303 11.408H64.8063V21.36H71.2703C71.6969 21.36 72.0276 21.2533 72.2623 21.04C72.4969 20.8053 72.6889 20.4853 72.8383 20.08L74.1503 17.072H74.4703L74.2783 22H58.3103ZM73.2763 22V21.68L74.3323 21.36C74.7163 21.2533 74.9936 21.0507 75.1643 20.752C75.3349 20.432 75.4203 20.0587 75.4203 19.632V4.24C75.1856 3.728 74.9936 3.344 74.8443 3.088C74.7163 2.832 74.5669 2.61867 74.3963 2.448C74.2256 2.256 73.9909 2.02133 73.6923 1.744L73.1483 1.2V0.879999H78.8123L89.4363 15.376V3.312C89.4363 2.88533 89.3616 2.50133 89.2123 2.16C89.0843 1.81867 88.8069 1.59467 88.3803 1.488L87.3243 1.2V0.879999H91.9003V1.2L91.0363 1.488C90.6523 1.616 90.4176 1.84 90.3323 2.16C90.2469 2.48 90.2043 2.85333 90.2043 3.28V22.096H88.4123L76.1883 5.296V19.632C76.1883 20.0587 76.2523 20.4213 76.3802 20.72C76.5083 21.0187 76.7749 21.232 77.1803 21.36L78.1403 21.68V22H73.2763ZM94.8545 22V21.68L96.1665 21.36C97.0412 21.168 97.4785 20.6347 97.4785 19.76V1.52H94.7585C93.9692 1.52 93.4038 1.73333 93.0625 2.16C92.7212 2.56533 92.3585 3.13067 91.9745 3.856L90.8225 6.096H90.5025L90.6625 0.879999H109.127L109.255 6.096H108.935L107.783 3.856C107.42 3.13067 107.068 2.56533 106.727 2.16C106.385 1.73333 105.82 1.52 105.031 1.52H102.311V19.76C102.311 20.6347 102.748 21.168 103.623 21.36L104.935 21.68V22H94.8545ZM114.121 22.576C112.948 22.576 111.753 22.4267 110.537 22.128C109.321 21.8507 108.308 21.4773 107.497 21.008L107.657 16.656H107.977L108.969 18.736C109.268 19.3333 109.588 19.8667 109.929 20.336C110.271 20.784 110.74 21.136 111.337 21.392C111.764 21.6053 112.169 21.7547 112.553 21.84C112.959 21.904 113.407 21.936 113.897 21.936C115.199 21.936 116.223 21.584 116.969 20.88C117.737 20.176 118.121 19.2693 118.121 18.16C118.121 17.1147 117.865 16.304 117.353 15.728C116.841 15.1307 116.02 14.5547 114.889 14L113.577 13.424C111.743 12.6133 110.303 11.6853 109.257 10.64C108.233 9.57333 107.721 8.16533 107.721 6.416C107.721 5.15733 108.041 4.06933 108.681 3.152C109.343 2.23467 110.249 1.53067 111.401 1.04C112.575 0.549332 113.94 0.303999 115.497 0.303999C116.628 0.303999 117.695 0.453332 118.697 0.751999C119.721 1.05067 120.607 1.456 121.353 1.968L121.161 5.808H120.841L119.529 3.408C119.167 2.66133 118.804 2.13866 118.441 1.84C118.079 1.52 117.663 1.296 117.193 1.168C116.916 1.08267 116.66 1.02933 116.425 1.008C116.191 0.965332 115.892 0.943998 115.529 0.943998C114.441 0.943998 113.524 1.264 112.777 1.904C112.031 2.52267 111.657 3.36533 111.657 4.432C111.657 5.52 111.945 6.39467 112.521 7.056C113.097 7.696 113.94 8.272 115.049 8.784L116.521 9.424C118.569 10.32 120.041 11.28 120.937 12.304C121.833 13.3067 122.281 14.608 122.281 16.208C122.281 18.0853 121.567 19.6213 120.137 20.816C118.729 21.9893 116.724 22.576 114.121 22.576ZM120.604 22V21.68L121.244 21.456C121.671 21.328 121.948 21.136 122.076 20.88C122.225 20.624 122.3 20.2827 122.3 19.856V3.088C122.3 2.66133 122.225 2.32 122.076 2.064C121.927 1.808 121.639 1.60533 121.212 1.456L120.604 1.2V0.879999H128.38C131.559 0.879999 133.852 1.46667 135.26 2.64C136.689 3.792 137.404 5.31733 137.404 7.216C137.404 8.432 137.105 9.552 136.508 10.576C135.932 11.5787 134.972 12.3787 133.628 12.976C132.284 13.5733 130.471 13.872 128.188 13.872H127.1V19.76C127.1 20.592 127.516 21.136 128.348 21.392L129.308 21.68V22H120.604ZM127.1 13.232H128.316C129.361 13.232 130.215 13.0613 130.876 12.72C131.537 12.3787 132.028 11.7813 132.348 10.928C132.668 10.0747 132.828 8.89067 132.828 7.376C132.828 5.84 132.647 4.64533 132.284 3.792C131.943 2.93867 131.431 2.352 130.748 2.032C130.065 1.69067 129.212 1.52 128.188 1.52H127.1V13.232ZM135.185 22V21.68L135.825 21.424C136.252 21.2747 136.529 21.072 136.657 20.816C136.807 20.56 136.881 20.2293 136.881 19.824V3.088C136.881 2.66133 136.807 2.32 136.657 2.064C136.529 1.808 136.252 1.60533 135.825 1.456L135.185 1.2V0.879999H143.313V1.2L142.769 1.424C142.364 1.57333 142.087 1.776 141.937 2.032C141.788 2.26667 141.713 2.59733 141.713 3.024V10.8H149.361V3.024C149.361 2.59733 149.287 2.26667 149.137 2.032C149.009 1.776 148.732 1.57333 148.305 1.424L147.729 1.2V0.879999H155.889V1.2L155.249 1.456C154.844 1.60533 154.567 1.808 154.417 2.064C154.268 2.32 154.193 2.66133 154.193 3.088V19.824C154.193 20.2293 154.268 20.56 154.417 20.816C154.567 21.072 154.844 21.2747 155.249 21.424L155.889 21.68V22H147.729V21.68L148.305 21.488C148.732 21.3173 149.009 21.1147 149.137 20.88C149.287 20.624 149.361 20.2827 149.361 19.856V11.44H141.713V19.856C141.713 20.6453 142.065 21.1893 142.769 21.488L143.313 21.68V22H135.185ZM154.11 22V21.68L154.846 21.392C155.209 21.2427 155.454 21.0507 155.582 20.816C155.732 20.56 155.806 20.2187 155.806 19.792V3.088C155.806 2.66133 155.742 2.33067 155.614 2.096C155.508 1.84 155.252 1.63733 154.846 1.488L154.11 1.2V0.879999H169.438L169.63 5.808H169.31L167.934 2.8C167.742 2.416 167.54 2.10667 167.326 1.872C167.113 1.63733 166.793 1.52 166.366 1.52H160.606V10.768H164.03C164.457 10.768 164.777 10.6613 164.99 10.448C165.225 10.2133 165.428 9.904 165.598 9.52L166.238 8.24H166.558V14H166.238L165.598 12.656C165.406 12.272 165.204 11.9733 164.99 11.76C164.777 11.5253 164.457 11.408 164.03 11.408H160.606V21.36H167.07C167.497 21.36 167.828 21.2533 168.062 21.04C168.297 20.8053 168.489 20.4853 168.638 20.08L169.95 17.072H170.27L170.078 22H154.11ZM168.66 22V21.68L169.332 21.456C169.759 21.3067 170.036 21.1147 170.164 20.88C170.292 20.624 170.356 20.272 170.356 19.824V3.088C170.356 2.66133 170.292 2.33067 170.164 2.096C170.058 1.84 169.802 1.63733 169.396 1.488L168.66 1.2V0.879999H177.812C180.33 0.879999 182.26 1.36 183.604 2.32C184.948 3.25867 185.62 4.57067 185.62 6.256C185.62 7.19467 185.268 8.13333 184.564 9.072C183.86 10.0107 182.751 10.736 181.236 11.248L185.684 20.08C185.876 20.4427 186.09 20.7413 186.324 20.976C186.58 21.1893 186.911 21.3813 187.316 21.552L187.732 21.712V22H182.004L177.268 11.92H175.092V19.824C175.092 20.2293 175.156 20.56 175.284 20.816C175.412 21.072 175.679 21.264 176.084 21.392L176.852 21.68V22H168.66ZM175.092 11.28H176.628C178.164 11.28 179.274 10.8747 179.956 10.064C180.639 9.232 180.98 8.00533 180.98 6.384C180.98 4.74133 180.66 3.52533 180.02 2.736C179.38 1.92533 178.303 1.52 176.788 1.52H175.092V11.28ZM185.554 22V21.68L186.29 21.392C186.653 21.2427 186.898 21.0507 187.026 20.816C187.175 20.56 187.25 20.2187 187.25 19.792V3.088C187.25 2.66133 187.186 2.33067 187.058 2.096C186.951 1.84 186.695 1.63733 186.29 1.488L185.554 1.2V0.879999H200.882L201.074 5.808H200.754L199.378 2.8C199.186 2.416 198.983 2.10667 198.77 1.872C198.557 1.63733 198.237 1.52 197.81 1.52H192.05V10.768H195.474C195.901 10.768 196.221 10.6613 196.434 10.448C196.669 10.2133 196.871 9.904 197.042 9.52L197.682 8.24H198.002V14H197.682L197.042 12.656C196.85 12.272 196.647 11.9733 196.434 11.76C196.221 11.5253 195.901 11.408 195.474 11.408H192.05V21.36H198.514C198.941 21.36 199.271 21.2533 199.506 21.04C199.741 20.8053 199.933 20.4853 200.082 20.08L201.394 17.072H201.714L201.522 22H185.554Z" fill="#424242"/>
</svg>
