<svg width="79" height="79" viewBox="0 0 79 79" fill="none" xmlns="http://www.w3.org/2000/svg">
<g clip-path="url(#clip0_2540_12614)">
<path d="M41.9636 79.2318C27.9348 79.2318 14.3954 79.2318 0.855957 79.2318C0.855957 53.1318 0.855957 27.0317 0.855957 0.931641C26.956 0.931641 53.6934 0.931641 79.7935 0.931641C79.7935 27.0317 79.7935 53.1318 79.7935 79.2318C67.5591 79.2318 54.6873 79.2318 41.9636 79.2318ZM68.1623 53.9436C67.5011 54.2521 66.5542 54.2348 65.893 54.5433C66.7311 54.6101 67.5839 53.8236 68.6175 54.5433C69.9932 54.8337 71.3541 55.9774 72.7298 56.2678C72.7617 55.6825 72.7937 55.0972 72.8257 54.512C71.9862 54.5962 71.1467 54.6805 70.2688 54.2049C69.648 54.0706 69.3129 54.2622 68.1623 53.9436ZM65.3626 47.6847C64.9304 42.1306 64.5966 35.8532 63.3825 30.3086C62.8192 30.7736 61.7776 31.2267 61.7657 31.7054C61.6336 37.03 61.6012 42.3599 61.7142 47.6847C61.7298 48.4177 62.6411 49.7184 63.2037 49.7555C66.304 49.9598 69.4248 49.8531 72.5386 49.8531C72.5353 49.3162 72.5319 48.7793 72.5286 48.2424C70.1659 48.1186 67.7048 48.7181 65.3626 47.6847ZM32.6155 47.7809C33.788 45.7842 34.9605 43.7875 36.6304 40.9438C37.0352 44.522 37.3283 47.1122 37.6213 49.7024C38.0904 49.6512 38.5594 49.6001 39.0285 49.5489C39.0285 43.3025 39.0285 37.0561 39.0285 30.8098C36.8563 33.3134 35.7283 36.1431 34.2647 38.787C33.3902 40.3667 31.9897 41.6553 30.8257 43.0747C29.8274 41.7209 28.6455 40.4639 27.8704 38.9925C26.4123 36.2247 25.189 33.3333 23.5008 29.7036C21.5024 37.8502 22.1904 47.8159 24.7578 49.7787C25.2056 47.7787 25.6258 45.902 26.046 44.0252C26.457 43.9562 26.8679 43.8872 27.2789 43.8182C28.0647 45.2877 28.6922 46.8846 29.7188 48.1604C30.0981 48.6317 31.4167 48.3472 32.6155 47.7809ZM55.4928 40.8518C53.6142 39.9409 51.6199 39.2038 49.8977 38.0578C48.7516 37.2952 47.9939 35.9489 47.0623 34.8639C48.4876 34.0328 49.9799 32.4356 51.3223 32.5529C53.2639 32.7226 55.0968 34.1341 57.6874 35.3495C56.6784 30.9534 53.9968 29.1679 50.8929 29.859C48.4589 30.4009 46.4465 32.8365 44.2469 34.4309C45.8695 36.3711 47.4268 38.3726 49.1558 40.2129C49.6538 40.743 50.8237 40.6166 51.3756 41.1265C52.5862 42.2452 54.0579 43.4352 54.5082 44.881C54.7525 45.6653 53.1829 47.8946 52.3201 47.9581C50.5925 48.0853 48.7129 47.3438 47.0481 46.614C46.2368 46.2584 45.7674 45.1229 44.7262 43.8175C43.3162 48.3049 46.4596 50.1204 48.5119 50.4254C50.9694 50.7905 54.3451 49.7635 56.1359 48.0781C57.2538 47.0259 56.1789 43.644 55.4928 40.8518ZM9.47096 30.1773C8.0807 30.28 6.69045 30.3826 4.62668 30.5349C7.04891 37.3249 9.27966 43.5781 11.5104 49.8313C12.0379 49.8351 12.5655 49.839 13.093 49.8428C15.2096 43.535 17.3262 37.2272 19.6917 30.1777C16.1246 30.1777 13.2412 30.1777 9.47096 30.1773Z" fill="black"/>
<path d="M32.6008 48.1386C31.5563 48.3917 30.2376 48.6762 29.8584 48.2049C28.8318 46.9291 28.2043 45.3322 27.4185 43.8627C27.0075 43.9317 26.5965 44.0007 26.1855 44.0697C25.7653 45.9465 25.3452 47.8232 24.8974 49.8232C22.33 47.8604 21.642 37.8946 23.6404 29.748C25.3286 33.3777 26.5519 36.2692 28.0099 39.037C28.785 40.5084 29.967 41.7654 30.9653 43.1192C32.1293 41.6998 33.5298 40.4112 34.4043 38.8315C35.8679 36.1876 36.9959 33.3579 39.168 30.8542C39.168 37.1006 39.168 43.347 39.168 49.5934C38.699 49.6445 38.2299 49.6957 37.7609 49.7469C37.4678 47.1567 37.1748 44.5665 36.7699 40.9883C35.1001 43.832 33.9276 45.8287 32.6008 48.1386Z" fill="#EEF8FC"/>
<path d="M55.9268 41.1218C56.3153 43.6861 57.3902 47.0681 56.2723 48.1202C54.4815 49.8057 51.1059 50.8327 48.6483 50.4675C46.596 50.1626 43.4527 48.3471 44.8626 43.8596C45.9038 45.1651 46.3732 46.3006 47.1845 46.6562C48.8493 47.3859 50.7289 48.1275 52.4565 48.0003C53.3194 47.9367 54.8889 45.7075 54.6446 44.9231C54.1944 43.4773 52.7226 42.2873 51.512 41.1687C50.9601 40.6587 49.7902 40.7852 49.2922 40.2551C47.5632 38.4148 46.0059 36.4132 44.3833 34.473C46.583 32.8787 48.5953 30.443 51.0293 29.9011C54.1332 29.21 56.8149 30.9955 57.8238 35.3916C55.2333 34.1762 53.4003 32.7648 51.4588 32.5951C50.1163 32.4777 48.6241 34.0749 47.1987 34.906C48.1303 35.991 48.888 37.3373 50.0341 38.0999C51.7563 39.2459 53.7506 39.983 55.9268 41.1218Z" fill="#EAF6FB"/>
<path d="M10.0514 30.2197C13.3782 30.2199 16.2616 30.2199 19.8287 30.2199C17.4632 37.2694 15.3466 43.5772 13.23 49.8851C12.7024 49.8812 12.1749 49.8773 11.6474 49.8735C9.41665 43.6203 7.1859 37.3671 4.76367 30.5771C6.82744 30.4248 8.21769 30.3222 10.0514 30.2197ZM9.15484 32.3406C7.93786 36.4273 10.2363 39.2453 11.9134 42.2876C12.3641 42.2753 12.8148 42.263 13.2655 42.2507C14.3834 39.1513 15.5013 36.052 16.6104 32.9771C15.8798 32.6511 15.5944 32.4219 15.2996 32.409C13.5093 32.3305 11.7169 32.3014 9.15484 32.3406Z" fill="#EFF8FC"/>
<path d="M65.5794 47.9161C67.9421 48.0399 70.3047 48.1637 72.6674 48.2875C72.6707 48.8244 72.674 49.3613 72.6774 49.8983C69.5636 49.8983 66.4428 50.0049 63.3424 49.8006C62.7799 49.7636 61.8685 48.4628 61.853 47.7298C61.74 42.405 61.7724 37.0751 61.9045 31.7505C61.9164 31.2718 62.958 30.8187 63.9506 30.8066C64.3916 33.1656 64.2842 35.0814 64.4403 36.9756C64.7414 40.6289 65.1912 44.27 65.5794 47.9161Z" fill="#DCEFF9"/>
<path d="M65.5879 47.4612C65.1895 44.2699 64.7396 40.6288 64.4386 36.9755C64.2825 35.0814 64.3899 33.1655 64.3398 30.8018C64.7337 35.8982 65.1659 41.4523 65.5879 47.4612Z" fill="#F8F8F8"/>
<path d="M70.4417 54.8074C71.2812 54.7232 72.1207 54.6389 72.9602 54.5547C72.9282 55.1399 72.8963 55.7252 72.8643 56.3104C71.4886 56.02 70.113 55.7296 68.7058 55.0458C68.6742 54.6523 68.8065 54.5181 69.0721 54.599C69.7057 54.7224 70.0737 54.7649 70.4417 54.8074Z" fill="#F8F8F8"/>
<path d="M68.6097 54.722C67.7054 54.7223 66.8673 54.6555 66.0293 54.5888C66.6904 54.2803 67.3516 53.9717 68.3435 53.9238C68.6744 54.1845 68.8083 54.5209 68.8083 54.5209C68.8083 54.5209 68.6759 54.655 68.6097 54.722Z" fill="#F8F8F8"/>
<path d="M69.0728 54.5987C68.8072 54.5178 68.6733 54.1814 68.6074 54.0129C69.1624 53.9787 69.7832 54.113 70.4232 54.5272C70.0744 54.7646 69.7063 54.7221 69.0728 54.5987Z" fill="#D8EDF8"/>
<path d="M9.54255 32.2998C11.7194 32.303 13.5118 32.3321 15.3021 32.4106C15.597 32.4235 15.8823 32.6527 16.613 32.9787C15.5039 36.0536 14.386 39.153 13.268 42.2523C12.8173 42.2646 12.3666 42.2769 11.9159 42.2892C10.2388 39.2469 7.94039 36.4289 9.54255 32.2998Z" fill="#F8F8F8"/>
</g>
<defs>
<clipPath id="clip0_2540_12614">
<rect width="78.3002" height="78.3002" fill="white"/>
</clipPath>
</defs>
</svg>
