<svg width="50" height="50" viewBox="0 0 50 50" fill="none" xmlns="http://www.w3.org/2000/svg">
<g id="aws-svgrepo-com 1" clip-path="url(#clip0_3201_5628)">
<path id="Vector" d="M25.5149 13.9268C24.1482 19.5393 24.2357 19.2393 22.9961 24.3727C22.9691 24.8456 22.5774 25.2185 22.1003 25.2185C22.0482 25.2185 21.9961 25.2143 21.9461 25.206H21.9524H20.5461C20.5045 25.2143 20.4545 25.2185 20.4066 25.2185C19.9836 25.2185 19.6357 24.9039 19.5816 24.4977V24.4935C18.3795 20.6477 16.7691 15.306 15.6857 11.7331C15.2857 10.4143 15.5482 10.4456 16.5941 10.4727C16.9566 10.4831 17.3066 10.4727 17.667 10.4727C17.692 10.4706 17.7211 10.4685 17.7524 10.4685C18.1607 10.4685 18.4982 10.7706 18.5545 11.1622V11.1664C18.9066 12.4268 19.1399 13.3935 21.1503 21.3331C21.1878 21.4893 21.2378 21.6372 21.2878 21.781H21.3941C21.442 21.5852 21.5003 21.4018 21.5503 21.2039C22.3114 17.9914 23.0698 14.7761 23.8253 11.5581C24.0607 10.5581 24.4795 10.4643 25.492 10.4643H26.2337C26.9003 10.4747 27.1128 10.6102 27.2795 11.2747C27.8649 13.5602 29.5753 21.2122 29.8857 22.0539C30.3857 20.2664 29.7107 22.8247 32.6691 11.4122C32.8732 10.6227 33.0691 10.4664 33.8711 10.4664H35.1024C35.6295 10.4768 35.7857 10.6414 35.6586 11.1602C35.4232 12.0893 35.3753 12.1268 31.6274 24.1352C31.3232 25.1018 31.217 25.1893 30.2024 25.1893H29.167C28.4545 25.1893 28.2691 25.0622 28.0941 24.3685C27.6732 22.7872 25.8191 15.0247 25.5149 13.931V13.9268ZM12.2566 24.7831C12.3982 25.0727 12.6899 25.2685 13.0274 25.2685C13.2649 25.2685 13.4774 25.1727 13.6336 25.0164L14.2482 24.606C14.9149 24.1664 14.9607 23.9914 14.6003 23.2872C14.2128 22.5497 13.9836 21.6768 13.9836 20.7497C13.9836 20.7185 13.9836 20.6872 13.9836 20.656V20.6602C13.9836 20.356 14.042 15.2227 13.8961 14.1393C13.767 12.3268 12.5107 10.8393 10.8316 10.3664L10.8024 10.3602C10.067 10.156 9.22323 10.0393 8.35032 10.0393C8.08782 10.0393 7.82532 10.0497 7.56907 10.0706L7.6024 10.0685C6.06907 10.1289 4.64407 10.5352 3.38365 11.2081L3.43573 11.1831C3.24615 11.2852 3.10448 11.4539 3.03782 11.656L3.03573 11.6622C2.98157 11.9081 2.95032 12.1914 2.95032 12.481C2.95032 12.6081 2.95657 12.7352 2.96698 12.8602L2.9649 12.8435C3.02323 13.4206 3.21907 13.5268 3.7649 13.3435C4.2649 13.1768 4.74198 12.9643 5.2399 12.8164C5.95865 12.5497 6.78782 12.3956 7.65448 12.3956C8.3274 12.3956 8.9774 12.4893 9.59407 12.6622L9.54406 12.6497C10.2045 12.8477 10.7191 13.3456 10.9357 13.981L10.9399 13.9956C11.1003 14.5331 11.1941 15.1497 11.1941 15.7893C11.1941 15.9852 11.1857 16.181 11.1691 16.3727L11.1711 16.3477C11.1711 16.8852 11.1607 16.8852 10.6336 16.7872C9.73782 16.5643 8.71073 16.4352 7.6524 16.4352C7.26282 16.4352 6.87532 16.4518 6.49407 16.4872L6.54407 16.4831C5.03157 16.5935 3.71073 17.3289 2.82115 18.4268L2.81282 18.4372C2.27115 19.1872 1.94615 20.1268 1.94615 21.1414C1.94615 21.5518 1.99823 21.9477 2.09823 22.3268L2.09198 22.2935C2.30865 23.7143 3.31698 24.8518 4.64407 25.256L4.66907 25.2622C5.2524 25.4706 5.92532 25.5914 6.6274 25.5914C8.01698 25.5914 9.29823 25.1185 10.3149 24.3247L10.3024 24.3352C10.6732 24.0622 11.0066 23.731 11.3857 23.406C11.6899 23.8935 11.9524 24.3518 12.2545 24.7727L12.2566 24.7831ZM10.7566 18.7685H10.767C10.9982 18.7685 11.1857 18.956 11.1857 19.1872C11.1857 19.2164 11.1836 19.2435 11.1774 19.2727V19.2706C11.1566 19.6414 11.1878 20.0122 11.1482 20.3831C11.0441 21.4727 10.3628 22.381 9.41907 22.8081L9.40032 22.8164C8.78782 23.1372 8.0649 23.3268 7.29615 23.3268C7.1399 23.3268 6.98573 23.3185 6.83365 23.3039L6.8524 23.306C5.75032 23.2414 4.88157 22.3331 4.88157 21.2206C4.88157 21.0497 4.9024 20.8831 4.94198 20.7227L4.9399 20.7372C4.99407 19.5956 5.89823 18.681 7.03157 18.6102H7.03782C7.47532 18.5393 7.97948 18.4997 8.49198 18.4997C9.30032 18.4997 10.0878 18.5997 10.8378 18.7872L10.7711 18.7727L10.7566 18.7685ZM44.8107 25.1247C46.5295 24.5477 47.7441 22.9518 47.7441 21.0727C47.7441 20.7789 47.7149 20.4914 47.6586 20.2143L47.6628 20.2414C47.4399 18.881 46.4878 17.7893 45.2274 17.3685L45.2024 17.3602C43.3024 16.7643 41.7461 16.1622 40.2378 15.4747L40.5066 15.5852C40.0711 15.3664 39.7753 14.9289 39.7649 14.4206C39.7524 14.3435 39.7461 14.2539 39.7461 14.1643C39.7461 13.2914 40.4086 12.5747 41.2586 12.4872H41.2649C41.7045 12.3831 42.2086 12.3247 42.7274 12.3247C43.1795 12.3247 43.6232 12.3706 44.0503 12.456L44.0086 12.4497C44.7211 12.5872 45.4045 12.8602 46.0982 13.0643C46.3711 13.1518 46.6753 13.2685 46.8607 12.9081C46.9566 12.706 47.0128 12.4685 47.0128 12.2206C47.0128 11.5997 46.667 11.0602 46.1566 10.7852L46.1482 10.781C45.1191 10.2893 43.9107 10.0039 42.6357 10.0039C41.4982 10.0039 40.4149 10.2331 39.4274 10.6456L39.4816 10.6247C37.9711 11.2247 36.9232 12.6747 36.9232 14.3685C36.9232 15.9914 37.8857 17.3914 39.2711 18.0247L39.2962 18.0352C40.0482 18.3977 40.867 18.6122 41.6586 18.9039C42.4503 19.1956 43.2399 19.4706 44.0128 19.7914C44.5461 20.0872 44.9024 20.6477 44.9024 21.2914C44.9024 21.8872 44.5982 22.4102 44.1357 22.7164L44.1295 22.7206C41.4253 24.2206 37.7961 22.4852 37.3732 22.3497C37.0524 22.2435 36.8566 22.3706 36.7586 22.7122C36.6795 22.8977 36.6336 23.1143 36.6336 23.3414C36.6336 24.1102 37.1649 24.756 37.8816 24.9268L37.892 24.9289C38.9982 25.3727 40.2795 25.6289 41.6211 25.6289C42.7586 25.6289 43.8545 25.4435 44.8774 25.1018L44.8045 25.1227L44.8107 25.1247ZM28.9066 41.0102C34.1107 40.4518 38.8357 38.8185 42.9961 36.3352L42.8378 36.4227C43.6191 35.9643 44.3503 35.4227 45.092 34.8893C45.8045 34.3893 45.4045 33.0935 43.9878 33.6977C39.1045 35.8414 33.4336 37.2122 27.4774 37.4914L27.3711 37.4956C26.7461 37.5268 26.0149 37.5435 25.2795 37.5435C22.8795 37.5435 20.5212 37.3602 18.2191 37.006L18.4753 37.0393C11.9816 36.1039 6.13365 34.0018 0.9149 30.9414L1.14198 31.0643C0.95865 30.9414 0.748233 30.8414 0.523233 30.7747L0.506566 30.7706C0.0273995 30.6643 -0.245517 31.2289 0.27115 31.7164C6.6649 37.6289 15.2482 41.2539 24.6795 41.2539H24.7086H24.7066C26.1128 41.1747 27.5191 41.1664 28.9045 41.0102H28.9066ZM45.9628 32.0102C47.4086 32.0893 47.8566 32.5872 47.4961 33.981C47.1253 35.4268 46.5878 36.8331 46.1399 38.2581C46.0524 38.5414 45.7295 38.8727 46.0607 39.1185C46.4232 39.3727 46.6961 39.0206 46.9399 38.7977C47.8878 37.8956 48.6336 36.7935 49.1149 35.5581L49.1357 35.4977C49.6732 34.3227 49.9857 32.9477 49.9857 31.4997C49.9857 31.4664 49.9857 31.4352 49.9857 31.4018V31.406C49.9649 30.8018 49.8107 30.5456 49.2232 30.381C48.7566 30.2372 48.2086 30.1268 47.6461 30.0727L47.6128 30.0706C47.2316 30.0227 46.792 29.9956 46.3441 29.9956C44.6024 29.9956 42.9566 30.406 41.4961 31.1331L41.5586 31.1039C41.2357 31.2789 40.9566 31.4706 40.7003 31.6872L40.7086 31.681C40.6024 31.7685 40.3961 32.1977 40.9441 32.2768C40.9941 32.281 41.0545 32.2831 41.1128 32.2831C41.2566 32.2831 41.3982 32.2706 41.5336 32.2456L41.5191 32.2477C42.6149 32.0914 43.8816 32.0018 45.167 32.0018C45.4461 32.0018 45.7232 32.006 46.0003 32.0143H45.9607L45.9628 32.0102Z" fill="#424242"/>
</g>
<defs>
<clipPath id="clip0_3201_5628">
<rect width="50" height="50" fill="white"/>
</clipPath>
</defs>
</svg>
