<svg width="50" height="50" viewBox="0 0 50 50" fill="none" xmlns="http://www.w3.org/2000/svg">
<g id="express-svgrepo-com 1" clip-path="url(#clip0_3201_5645)">
<path id="Vector" d="M50 38.7248C49.2723 39 48.469 38.9994 47.7417 38.7231C47.0145 38.4467 46.4134 37.9138 46.0521 37.2248L38.8646 27.2852L37.8229 25.8956L29.4834 37.2373C29.1437 37.8974 28.5753 38.4112 27.8844 38.6827C27.1935 38.9541 26.4273 38.9646 25.7292 38.7123L36.475 24.2956L26.4792 11.2727C27.1979 11.0137 27.984 11.0102 28.7049 11.263C29.4259 11.5157 30.0378 12.0091 30.4375 12.6602L37.8875 22.7227L45.3792 12.7018C45.7214 12.0535 46.29 11.5535 46.9768 11.2969C47.6635 11.0403 48.4207 11.045 49.1042 11.3102L45.225 16.4581L39.9709 23.2977C39.8249 23.4278 39.7082 23.5874 39.6282 23.7658C39.5483 23.9442 39.507 24.1376 39.507 24.3331C39.507 24.5286 39.5483 24.7219 39.6282 24.9004C39.7082 25.0788 39.8249 25.2384 39.9709 25.3685L49.9792 38.7268L50 38.7248ZM0.00419166 24.1164L0.879192 19.7935C3.28336 11.2456 13.0834 7.68935 19.825 12.981C23.7729 16.0831 24.7584 20.4748 24.5646 25.4248H2.32503C1.96461 34.2643 8.34377 39.6018 16.5 36.8748C17.8222 36.3988 19.0057 35.6023 19.9445 34.5567C20.8833 33.511 21.548 32.2488 21.8792 30.8831C22.3104 29.4956 23.0209 29.2581 24.325 29.6581C24.1077 31.3506 23.5094 32.9717 22.5752 34.3996C21.6409 35.8275 20.3951 37.0249 18.9313 37.9018C16.5134 39.2244 13.7392 39.7486 11.0055 39.3995C8.27173 39.0504 5.71836 37.8458 3.71044 35.9581C1.72509 33.7235 0.525184 30.9008 0.293775 27.9206C0.293775 27.431 0.127108 26.9727 0.0146083 26.5331C0.00446672 25.7283 -0.000394494 24.9234 2.49922e-05 24.1185L0.00419166 24.1164ZM2.35211 23.5206H22.4646C22.3396 17.1123 18.2959 12.5664 12.9021 12.5248C6.89794 12.4414 2.60211 16.8873 2.33752 23.4914L2.35211 23.5206Z" fill="#424242"/>
</g>
<defs>
<clipPath id="clip0_3201_5645">
<rect width="50" height="50" fill="white"/>
</clipPath>
</defs>
</svg>
