<svg width="50" height="50" viewBox="0 0 50 50" fill="none" xmlns="http://www.w3.org/2000/svg">
<g id="figma-svgrepo-com 1">
<path id="Vector" d="M24.9982 18.0554H18.0538M24.9982 18.0554V4.1665H18.0538C14.2185 4.1665 11.1094 7.27563 11.1094 11.1109C11.1094 14.9463 14.2185 18.0554 18.0538 18.0554M24.9982 18.0554V31.9442H18.0538M24.9982 18.0554H31.9428M18.0538 18.0554C14.2185 18.0554 11.1094 21.1646 11.1094 24.9998C11.1094 28.835 14.2185 31.9442 18.0538 31.9442M18.0538 31.9442C14.2185 31.9442 11.1094 35.0534 11.1094 38.8888C11.1094 42.724 14.2185 45.8332 18.0538 45.8332C21.8891 45.8332 24.9982 42.724 24.9982 38.8888M31.9428 18.0554C28.1074 18.0554 24.9982 21.1646 24.9982 24.9998C24.9982 28.835 28.1074 31.9442 31.9428 31.9442C35.778 31.9442 38.8872 28.835 38.8872 24.9998C38.8872 21.1646 35.778 18.0554 31.9428 18.0554ZM31.9428 18.0554C35.778 18.0554 38.8872 14.9463 38.8872 11.1109C38.8872 7.27563 35.778 4.1665 31.9428 4.1665" stroke="#424242" stroke-width="3.125" stroke-linecap="round" stroke-linejoin="round"/>
</g>
</svg>
