<svg width="50" height="50" viewBox="0 0 50 50" fill="none" xmlns="http://www.w3.org/2000/svg">
<g id="mongodb-svgrepo-com 1">
<path id="Vector" d="M24.7211 36.2266C24.7211 36.2266 24.7211 20.0375 25.2586 20.0391C25.6742 20.0391 26.2148 40.9219 26.2148 40.9219C25.4711 40.8344 24.7211 37.4859 24.7211 36.2266ZM35.1398 20.2266C33.7039 13.9516 30.5586 8.55625 26.2211 4.39219L26.2102 4.38281C25.682 3.57656 25.1992 2.65156 24.8117 1.67656L24.7742 1.57031C24.7758 1.60156 24.7758 1.63906 24.7758 1.67656C24.7758 2.55937 24.3805 3.34844 23.757 3.87813L23.7523 3.88125C18.168 8.62187 14.6148 15.6078 14.4977 23.425V23.4453C14.4961 23.5422 14.4961 23.6562 14.4961 23.7703C14.4961 31.5156 18.2227 38.3906 23.9805 42.7L24.0414 42.7438L24.1773 42.8422C24.4284 44.7005 24.643 46.563 24.8211 48.4297H25.7602C26.0195 46.1 26.3695 44.0609 26.8273 42.0609L26.7555 42.4344C27.3742 42.0047 27.9148 41.5594 28.4195 41.0766L28.4148 41.0812C32.7914 37.0234 35.5227 31.2422 35.5227 24.825C35.5227 24.7297 35.5227 24.6359 35.5211 24.5406V24.5547C35.5164 23.0219 35.3773 21.5234 35.1133 20.0688L35.1367 20.2234L35.1398 20.2266Z" fill="#424242"/>
</g>
</svg>
