<svg width="50" height="50" viewBox="0 0 50 50" fill="none" xmlns="http://www.w3.org/2000/svg">
<g id="react-svgrepo-com 1">
<path id="Vector" d="M22.3641 34.7048C23.2234 34.7439 24.1016 34.772 24.9906 34.772C25.8891 34.772 26.7766 34.7532 27.6469 34.7048C26.7766 35.8298 25.9172 36.8251 25.0078 37.7735L25.0203 37.761C24.1156 36.8235 23.2469 35.8267 22.4281 34.7892L22.3641 34.7048ZM13.4609 33.4548C15.1531 33.8845 17.2172 34.2501 19.3234 34.4751L19.5281 34.4923C20.8172 36.2626 22.1203 37.8204 23.5187 39.286L23.5016 39.2673C21.4531 41.5532 18.6891 43.1595 15.5625 43.736L15.4766 43.7485C15.4703 43.7485 15.4641 43.7485 15.4578 43.7485C15.0703 43.7485 14.7047 43.6532 14.3844 43.4845L14.3969 43.4907C13.0969 42.7485 12.5328 39.9095 12.9719 36.261C13.0766 35.3626 13.2484 34.4173 13.4594 33.4532L13.4609 33.4548ZM36.5594 33.4345C36.7438 34.1751 36.9172 35.1188 37.0406 36.0782L37.0547 36.2126C37.5031 39.8595 36.95 42.6954 35.6609 43.4532C35.3734 43.6126 35.0297 43.7063 34.6641 43.7063C34.6281 43.7063 34.5922 43.7048 34.5563 43.7032H34.5609C31.3531 43.1173 28.5906 41.522 26.5469 39.2642L26.5359 39.2517C27.9094 37.8095 29.2031 36.2548 30.3891 34.6188L30.4797 34.4876C32.7859 34.247 34.8531 33.8751 36.8672 33.3673L36.5594 33.4329V33.4345ZM15.2875 27.6032C15.6781 28.3688 16.0875 29.1313 16.5375 29.897C16.9865 30.6584 17.4453 31.4022 17.9141 32.1282C16.5578 31.9298 15.2484 31.6798 13.9969 31.3751C14.3484 30.1454 14.7891 28.872 15.2859 27.6001L15.2875 27.6032ZM34.7063 27.5642C35.2234 28.847 35.6625 30.1267 36.0266 31.3673C34.7766 31.6735 33.4563 31.9329 32.0906 32.1282C32.5594 31.3954 33.0281 30.6407 33.4672 29.8673C33.9063 29.1063 34.3172 28.3282 34.7094 27.5626L34.7063 27.5642ZM11.9047 19.2063C12.5859 21.5157 13.3172 23.447 14.1687 25.3095L14.0516 25.0251C13.3234 26.5954 12.6031 28.5157 12.0125 30.4923L11.9312 30.8126C10.8281 30.4735 9.94063 30.1407 9.07656 29.7673L9.25625 29.836C5.875 28.397 3.6875 26.5048 3.6875 25.0048C3.6875 23.5048 5.875 21.6032 9.25625 20.1704C10.0766 19.8188 10.9766 19.5017 11.9047 19.2063ZM38.0594 19.1985C39.0047 19.4907 39.9031 19.8173 40.7438 20.1704C44.125 21.6157 46.3125 23.5048 46.3125 25.0048C46.3031 26.5048 44.1156 28.4017 40.7344 29.8376C39.9141 30.1892 39.0156 30.5048 38.0891 30.8001C37.4016 28.4829 36.6703 26.5532 35.8219 24.6876L35.9406 24.9813C36.6656 23.4126 37.3875 21.4923 37.9766 19.5157L38.0594 19.1938V19.1985ZM32.0781 17.8813C33.4359 18.0829 34.7438 18.3298 35.9953 18.6376C35.6438 19.872 35.2047 21.1407 34.7063 22.4126C34.3156 21.6517 33.9063 20.8845 33.4563 20.1204C33.0172 19.3548 32.5484 18.6095 32.0797 17.8829L32.0781 17.8813ZM17.9031 17.8813C17.4344 18.6173 16.9656 19.3704 16.5281 20.147C16.0891 20.9079 15.6781 21.6735 15.2875 22.4392C14.7703 21.1579 14.3313 19.8813 13.9672 18.6376C15.2172 18.3454 16.5344 18.0845 17.9016 17.8845L17.9031 17.8813ZM25 17.3845C26.4453 17.3845 27.8844 17.4501 29.3 17.5657C30.0927 18.7022 30.8625 19.9126 31.6094 21.197C32.3354 22.447 32.9979 23.7136 33.5969 24.997C32.9953 26.2767 32.3359 27.5548 31.6188 28.8048C30.8766 30.0938 30.1094 31.3204 29.3141 32.4563C27.8922 32.5798 26.4516 32.647 24.9984 32.647C23.5531 32.647 22.1141 32.5782 20.6984 32.4657C19.9062 31.3298 19.1328 30.1142 18.3891 28.8345C17.663 27.5845 17.0005 26.3178 16.4016 25.0345C16.9937 23.7517 17.6625 22.4704 18.3797 21.2188C19.1219 19.9298 19.8891 18.7079 20.6844 17.572C22.1062 17.447 23.5469 17.3813 25 17.3813V17.3845ZM24.9703 12.2579C25.8766 13.1954 26.7453 14.1907 27.5625 15.2282L27.625 15.311C26.7656 15.272 25.8875 15.2454 24.9984 15.2454C24.1 15.2454 23.2125 15.2642 22.3422 15.311C23.2109 14.186 24.0703 13.1907 24.9812 12.2423L24.9688 12.2548L24.9703 12.2579ZM15.4375 6.30166C18.6453 6.88916 21.4062 8.48447 23.4516 10.7407L23.4625 10.7532C22.0891 12.197 20.7953 13.7517 19.6094 15.3907L19.5187 15.522C17.2141 15.761 15.1469 16.1298 13.1344 16.6376L13.4406 16.572C13.2219 15.6157 13.0594 14.6892 12.9453 13.8001C12.4969 10.1532 13.05 7.31728 14.3391 6.5626C14.6609 6.41103 15.0375 6.31728 15.4344 6.30478H15.4391L15.4375 6.30166ZM34.5156 6.2626V6.2751C34.5359 6.2751 34.5594 6.27353 34.5844 6.27353C34.9578 6.27353 35.3094 6.36572 35.6188 6.52822L35.6063 6.52197C36.9062 7.26728 37.4703 10.1048 37.0313 13.7548C36.9266 14.6532 36.7547 15.6001 36.5438 16.5657C34.8484 16.1313 32.7844 15.7642 30.6781 15.5407L30.4781 15.5235C29.1875 13.7517 27.8844 12.1938 26.4859 10.7267L26.5047 10.7454C28.5531 8.46416 31.3125 6.85791 34.4328 6.27822L34.5203 6.26416L34.5156 6.2626ZM34.525 4.13447C30.7094 4.71416 27.4062 6.56729 24.9937 9.24072L24.9812 9.25479C22.5516 6.58291 19.2484 4.74229 15.5266 4.18447L15.4391 4.17354C15.4187 4.17354 15.3938 4.17354 15.3688 4.17354C14.6016 4.17354 13.8812 4.3751 13.2578 4.72822L13.2797 4.71729C10.5953 6.26572 9.99375 11.0907 11.3797 17.1454C5.43594 18.9813 1.57031 21.9157 1.57031 25.0079C1.57031 28.1126 5.45625 31.0548 11.4172 32.8767C10.0422 38.9548 10.6562 43.7876 13.3469 45.3345C13.9375 45.6735 14.6469 45.872 15.4016 45.872C15.4359 45.872 15.4703 45.872 15.5031 45.8704H15.4984C19.3141 45.2907 22.6172 43.436 25.0297 40.761L25.0422 40.747C27.4719 43.4204 30.775 45.261 34.4969 45.8188L34.5844 45.8298C34.6078 45.8298 34.6375 45.8298 34.6656 45.8298C35.4281 45.8298 36.1453 45.6298 36.7656 45.2813L36.7438 45.2923C39.4266 43.7454 40.0297 38.9204 38.6438 32.8642C44.5656 31.0438 48.4313 28.1032 48.4313 25.0063C48.4313 21.9017 44.5453 18.9595 38.5844 17.1329C39.9594 11.061 39.3453 6.22354 36.6547 4.6751C36.0578 4.33291 35.3422 4.13135 34.5797 4.13135C34.5594 4.13135 34.5391 4.13135 34.5187 4.13135H34.5219L34.525 4.13447ZM29.3547 25.0079C29.3547 27.4188 27.4 29.3735 24.9891 29.3735C22.5781 29.3735 20.6234 27.4188 20.6234 25.0079C20.6234 22.597 22.5781 20.6423 24.9891 20.6423C26.1953 20.6423 27.2859 21.1313 28.0766 21.9204C28.8672 22.711 29.3547 23.8017 29.3547 25.0079Z" fill="#424242"/>
</g>
</svg>
