<svg width="50" height="50" viewBox="0 0 50 50" fill="none" xmlns="http://www.w3.org/2000/svg">
<g id="svelte-16-svgrepo-com 1">
<path id="Vector" fill-rule="evenodd" clip-rule="evenodd" d="M38.8686 9.20786C40.6943 12.0194 40.883 15.0679 39.9499 17.3769C38.2286 15.7504 36.1661 14.5853 34.0018 14.012C34.0274 13.5341 33.9074 13.044 33.6268 12.6119C32.9218 11.5263 31.4702 11.2177 30.3847 11.9227L25.1474 15.3239C25.1459 15.3248 25.1445 15.3258 25.143 15.3267L17.2805 20.4327C16.1949 21.1377 15.8864 22.5893 16.5913 23.6748C17.2963 24.7604 18.7479 25.069 19.8335 24.364L27.6982 19.2565C27.6975 19.257 27.699 19.256 27.6982 19.2565C30.6818 17.321 35.4974 18.3612 38.2733 22.6358C41.0502 26.9115 40.0405 31.7352 37.0571 33.6727L21.3319 43.8845C18.3485 45.822 13.5312 44.7824 10.7545 40.5067C8.92871 37.6952 8.74002 34.6467 9.67318 32.3377C11.3944 33.9642 13.4569 35.1292 15.6212 35.7027C15.5956 36.1805 15.7156 36.6708 15.9962 37.1027C16.7012 38.1883 18.1528 38.497 19.2384 37.792L32.3427 29.282C33.428 28.577 33.7368 27.1254 33.0318 26.0398C32.3268 24.9542 30.8752 24.6457 29.7896 25.3507L21.9263 30.4572C21.926 30.4574 21.9265 30.457 21.9263 30.4572C18.9428 32.3939 14.1261 31.3542 11.3496 27.0788C8.57299 22.8031 9.58265 17.9795 12.5661 16.042L28.2911 5.83005C31.2746 3.89258 36.0918 4.93217 38.8686 9.20786ZM43.0208 21.5059C46.0055 17.3843 45.8452 11.3445 42.7999 6.65486C38.9965 0.798384 31.4396 -1.8037 25.7381 1.89877L10.0131 12.1108C4.7618 15.521 3.7563 22.5449 6.60211 28.2088C3.61768 32.3305 3.7778 38.3702 6.82327 43.0599C10.6265 48.9164 18.1836 51.5183 23.8849 47.8158L39.6099 37.6039C44.8611 34.1936 45.8668 27.1698 43.0208 21.5059Z" fill="#424242"/>
</g>
</svg>
