<svg width="50" height="50" viewBox="0 0 50 50" fill="none" xmlns="http://www.w3.org/2000/svg">
<g id="adobe-xd-svgrepo-com 1" clip-path="url(#clip0_3201_5625)">
<path id="Vector" d="M41.1458 0.625H8.85417C3.95833 0.625 0 4.58333 0 9.47917V40.5208C0 45.4167 3.95833 49.375 8.85417 49.375H41.1458C46.0417 49.375 50 45.4167 50 40.5208V9.47917C50 4.58333 46.0417 0.625 41.1458 0.625ZM47.8958 39.7083C47.9005 40.702 47.7089 41.6868 47.3321 42.6062C46.9552 43.5257 46.4006 44.3617 45.6999 45.0662C44.9992 45.7708 44.1663 46.3301 43.2489 46.7119C42.3316 47.0938 41.3478 47.2909 40.3542 47.2917H9.64583C5.47917 47.2917 2.08333 43.8958 2.08333 39.7292V10.2708C2.08333 6.10417 5.47917 2.70833 9.64583 2.70833H40.3333C42.339 2.70833 44.2626 3.50509 45.6808 4.92334C47.0991 6.34158 47.8958 8.26513 47.8958 10.2708V39.7083ZM19.7708 23.4375L25.6042 34.6458C25.7083 34.8125 25.6458 34.9792 25.4792 34.9792H21.8542C21.625 34.9792 21.5208 34.9167 21.4167 34.7083C20.0833 31.9583 18.7292 29.2083 17.3333 26.25H17.2917C16.0417 29.0417 14.6667 31.9792 13.3333 34.7292C13.2292 34.8958 13.125 34.9583 12.9583 34.9583H9.52083C9.3125 34.9583 9.29167 34.7917 9.39583 34.6667L15.1042 23.7917L9.58333 12.7917C9.45833 12.625 9.58333 12.5 9.70833 12.5H13.2917C13.5 12.5 13.5833 12.5417 13.6667 12.7292C14.9792 15.4792 16.3125 18.3125 17.5625 21.0833H17.6042C18.8125 18.3333 20.1458 15.4792 21.4375 12.75C21.5417 12.5833 21.6042 12.4792 21.8125 12.4792H25.1667C25.3333 12.4792 25.3958 12.6042 25.2917 12.7708L19.7708 23.4375ZM26.625 26.8333C26.625 21.9792 29.8542 18.1875 34.9792 18.1875C35.4167 18.1875 35.6458 18.1875 36.0625 18.2292V12.7083C36.0625 12.5833 36.1667 12.5 36.2708 12.5H39.5625C39.7292 12.5 39.7708 12.5625 39.7708 12.6667V31.7917C39.7708 32.3542 39.7708 33.0625 39.875 33.8333C39.875 33.9583 39.8333 34 39.7083 34.0625C37.9583 34.8958 36.125 35.2708 34.375 35.2708C29.8542 35.2917 26.625 32.5 26.625 26.8333ZM36.0625 21.5C35.7708 21.375 35.3542 21.2917 34.8542 21.2917C32.2292 21.2917 30.3958 23.3125 30.3958 26.6667C30.3958 30.5 32.2708 32.0417 34.625 32.0417C35.125 32.0417 35.6667 31.9792 36.0625 31.8125V21.5Z" fill="#424242"/>
</g>
<defs>
<clipPath id="clip0_3201_5625">
<rect width="50" height="50" fill="white"/>
</clipPath>
</defs>
</svg>
