<?xml version="1.0" standalone="no"?>
<!DOCTYPE svg PUBLIC "-//W3C//DTD SVG 20010904//EN"
 "http://www.w3.org/TR/2001/REC-SVG-20010904/DTD/svg10.dtd">
<svg version="1.0" xmlns="http://www.w3.org/2000/svg"
 width="1903.000000pt" height="955.000000pt" viewBox="0 0 1903.000000 955.000000"
 preserveAspectRatio="xMidYMid meet">

<g transform="translate(0.000000,955.000000) scale(0.100000,-0.100000)"
fill="#000000" stroke="none">
<path d="M4758 9543 c2620 -2 6904 -2 9520 0 2616 1 473 2 -4763 2 -5236 0
-7377 -1 -4757 -2z"/>
<path d="M6679 9411 c-13 -10 -33 -20 -44 -22 -14 -3 -20 -13 -21 -34 -1 -17
-3 -37 -5 -45 -3 -11 3 -14 21 -12 14 1 33 3 43 3 10 0 21 8 24 17 4 9 14 28
24 42 10 14 20 35 24 48 5 18 3 22 -18 22 -13 0 -35 -8 -48 -19z m40 -14 c8
-11 6 -18 -9 -32 -11 -10 -20 -24 -20 -32 0 -18 -20 -16 -42 4 -26 23 -22 36
15 55 40 21 42 21 56 5z m-79 -77 c0 -5 -5 -10 -11 -10 -5 0 -7 5 -4 10 3 6 8
10 11 10 2 0 4 -4 4 -10z"/>
<path d="M9479 9413 c-13 -10 -33 -23 -43 -28 -12 -7 -20 -25 -22 -54 -4 -41
-3 -43 18 -36 13 4 32 7 43 6 15 0 27 15 48 57 15 31 27 60 27 65 0 14 -47 7
-71 -10z m38 -14 c9 -9 6 -20 -10 -45 -25 -38 -42 -40 -64 -7 -14 21 -14 23
10 32 14 5 28 15 32 20 8 14 18 14 32 0z"/>
<path d="M9752 9417 c-6 -7 -14 -31 -18 -54 -5 -35 -3 -43 17 -57 31 -21 45
-20 69 4 26 26 25 54 -1 91 -22 31 -50 37 -67 16z m48 -72 c25 -30 -10 -61
-38 -33 -7 7 -8 17 -1 30 12 22 23 23 39 3z"/>
<path d="M12053 9422 c-6 -4 -14 -28 -18 -53 -6 -41 -4 -48 16 -63 29 -20 43
-20 63 0 45 45 -9 149 -61 116z m47 -77 c15 -18 6 -45 -13 -45 -21 0 -38 25
-31 44 8 20 28 21 44 1z"/>
<path d="M12340 9410 c-41 -41 -7 -120 52 -120 24 0 68 44 68 68 0 59 -79 93
-120 52z m82 -2 c30 -24 31 -56 3 -83 -27 -28 -59 -27 -82 3 -41 51 28 120 79
80z"/>
<path d="M15017 9412 c-10 -10 -17 -33 -17 -50 0 -56 57 -87 104 -57 26 17 31
31 27 69 -4 51 -80 76 -114 38z m87 -11 c25 -27 17 -72 -15 -90 -24 -13 -29
-13 -53 2 -17 12 -26 26 -26 44 0 55 59 83 94 44z"/>
<path d="M17292 9407 c-16 -17 -22 -36 -22 -70 0 -43 2 -47 24 -47 18 0 25 7
30 31 7 35 26 30 26 -7 0 -19 5 -24 24 -24 22 0 26 6 32 46 5 39 3 49 -17 70
-29 31 -69 31 -97 1z m20 -39 c5 -31 -2 -68 -13 -68 -11 0 -23 66 -14 79 10
18 23 12 27 -11z m38 6 c0 -9 -5 -14 -12 -12 -18 6 -21 28 -4 28 9 0 16 -7 16
-16z m40 -35 c0 -42 -15 -54 -22 -16 -5 32 2 68 13 62 5 -4 9 -24 9 -46z"/>
<path d="M15342 9394 c-35 -24 -26 -62 20 -86 45 -24 75 -16 84 19 15 60 -53
104 -104 67z m83 -35 c10 -43 -4 -53 -54 -39 -33 9 -41 15 -41 35 0 26 11 33
57 34 27 1 32 -3 38 -30z"/>
<path d="M17863 9069 c-44 -13 -90 -62 -103 -110 -22 -80 29 -167 112 -189 25
-7 124 -10 267 -8 212 3 228 4 261 25 47 29 74 77 74 133 0 56 -27 104 -74
133 -33 21 -48 22 -270 24 -129 1 -249 -2 -267 -8z m529 -32 c41 -28 62 -67
62 -117 0 -50 -21 -89 -62 -117 -24 -16 -54 -18 -242 -21 -264 -4 -290 -1
-334 43 -57 57 -57 133 0 190 18 19 43 36 56 38 13 3 129 4 258 3 209 -1 238
-3 262 -19z"/>
<path d="M17220 9000 c0 -5 5 -10 10 -10 6 0 10 5 10 10 0 6 -4 10 -10 10 -5
0 -10 -4 -10 -10z"/>
<path d="M5917 8994 c-12 -13 -7 -20 13 -20 11 0 19 5 17 10 -4 13 -21 18 -30
10z"/>
<path d="M6897 8994 c-12 -13 -7 -20 13 -20 11 0 19 5 17 10 -4 13 -21 18 -30
10z"/>
<path d="M16735 8984 c-25 -25 -18 -49 29 -101 l44 -48 36 34 c20 19 36 39 36
45 0 5 -16 -5 -35 -24 l-35 -34 -31 30 c-17 16 -35 38 -39 49 -16 41 28 73 58
43 10 -9 15 -9 27 2 12 13 8 15 -30 17 -29 1 -50 -3 -60 -13z"/>
<path d="M13695 8965 c-29 -28 -31 -42 -9 -74 14 -19 23 -22 54 -18 22 3 44 0
52 -7 10 -9 11 -8 2 2 -7 8 -10 30 -7 52 4 31 1 40 -18 54 -32 22 -46 20 -74
-9z m73 -7 c28 -28 7 -78 -33 -78 -27 0 -45 18 -45 45 0 27 18 45 45 45 12 0
26 -5 33 -12z"/>
<path d="M783 8973 c26 -2 68 -2 95 0 26 2 4 3 -48 3 -52 0 -74 -1 -47 -3z"/>
<path d="M1161 8955 c-16 -14 -35 -42 -41 -62 -12 -33 -11 -37 15 -59 16 -13
34 -24 42 -24 16 0 16 1 4 34 -8 19 -5 32 12 58 30 44 64 49 73 11 8 -34 23
-55 35 -47 15 9 10 68 -7 92 -22 32 -92 31 -133 -3z"/>
<path d="M2813 8920 c0 -36 2 -50 4 -32 2 17 2 47 0 65 -2 17 -4 3 -4 -33z"/>
<path d="M3573 8920 c0 -36 2 -50 4 -32 2 17 2 47 0 65 -2 17 -4 3 -4 -33z"/>
<path d="M4373 8920 c0 -36 2 -50 4 -32 2 17 2 47 0 65 -2 17 -4 3 -4 -33z"/>
<path d="M5663 8920 c0 -36 2 -50 4 -32 2 17 2 47 0 65 -2 17 -4 3 -4 -33z"/>
<path d="M17544 8865 c0 -66 1 -92 3 -57 2 34 2 88 0 120 -2 31 -3 3 -3 -63z"/>
<path d="M1351 8923 c1 -21 3 -30 6 -20 5 21 33 23 33 2 0 -8 5 -15 10 -15 11
0 11 14 0 50 -5 17 -8 19 -9 8 -1 -10 -8 -18 -17 -18 -10 0 -14 6 -10 15 3 8
1 15 -4 15 -6 0 -9 -17 -9 -37z"/>
<path d="M1432 8928 c-10 -37 -6 -50 8 -28 8 12 13 13 29 3 18 -11 19 -10 10
20 -5 17 -9 33 -9 34 0 2 -7 3 -15 3 -8 0 -18 -15 -23 -32z m38 1 c0 -5 -7 -9
-15 -9 -9 0 -12 6 -9 15 6 15 24 11 24 -6z"/>
<path d="M1533 8954 c4 -4 -3 -20 -14 -35 -11 -16 -17 -29 -12 -29 4 0 18 16
31 35 19 30 20 35 5 35 -9 0 -13 -3 -10 -6z"/>
<path d="M1587 8943 c-2 -10 -8 -26 -12 -36 -7 -17 -6 -18 13 -6 16 10 23 10
35 0 14 -11 14 -8 5 23 -12 38 -32 47 -41 19z m27 -8 c3 -9 0 -15 -9 -15 -9 0
-12 6 -9 15 4 8 7 15 9 15 2 0 5 -7 9 -15z"/>
<path d="M1662 8925 c0 -22 2 -32 5 -22 6 21 19 22 31 2 6 -11 8 -5 9 20 1 19
-3 35 -8 35 -4 0 -6 -7 -3 -15 4 -9 0 -15 -9 -15 -9 0 -18 8 -20 18 -3 9 -5
-1 -5 -23z"/>
<path d="M2203 8910 c0 -30 2 -43 4 -27 3 21 10 27 28 27 18 0 25 -6 28 -27 2
-16 4 -3 4 27 0 30 -2 45 -4 33 -3 -16 -11 -23 -28 -23 -17 0 -25 7 -28 23 -2
12 -4 -3 -4 -33z"/>
<path d="M3002 8948 c-27 -27 -8 -88 28 -88 21 0 50 31 50 53 0 37 -52 61 -78
35z m56 -34 c2 -22 -2 -33 -14 -38 -34 -13 -59 35 -32 62 21 21 43 9 46 -24z"/>
<path d="M3127 8940 c-9 -11 -12 -20 -7 -20 6 0 10 -14 10 -32 0 -44 9 -31 11
17 2 22 8 43 13 47 7 5 8 8 1 8 -6 0 -18 -9 -28 -20z"/>
<path d="M3193 8945 c-11 -19 -4 -85 8 -85 5 0 9 12 10 28 0 15 2 37 3 50 3
25 -9 29 -21 7z"/>
<path d="M3750 8911 c0 -47 2 -51 24 -51 28 0 51 24 40 42 -5 7 -8 22 -9 33 0
14 -8 21 -27 23 -27 3 -28 2 -28 -47z m48 21 c2 -7 -3 -12 -12 -12 -9 0 -16 7
-16 16 0 17 22 14 28 -4z m2 -42 c0 -11 -7 -20 -15 -20 -8 0 -15 9 -15 20 0
11 7 20 15 20 8 0 15 -9 15 -20z"/>
<path d="M3866 8937 c-20 -30 -10 -66 20 -73 31 -8 54 11 54 45 0 51 -48 69
-74 28z m58 -10 c14 -22 -4 -52 -30 -52 -14 0 -20 8 -22 29 -5 44 29 59 52 23z"/>
<path d="M3996 8944 c-25 -24 -20 -63 8 -76 31 -14 56 -4 56 22 0 14 -6 20
-22 19 -13 0 -17 -3 -10 -6 18 -7 15 -35 -4 -31 -47 9 -41 66 7 79 23 7 23 7
2 8 -12 1 -29 -6 -37 -15z"/>
<path d="M4112 8948 c-7 -7 -12 -24 -12 -38 0 -52 48 -68 76 -25 15 23 15 27
0 50 -18 27 -45 32 -64 13z m42 -4 c21 -8 21 -60 0 -68 -34 -13 -59 35 -32 62
14 14 12 14 32 6z"/>
<path d="M4561 8908 c1 -29 4 -43 6 -30 3 13 12 22 23 22 22 0 34 28 19 46 -6
8 -20 14 -30 14 -16 0 -19 -7 -18 -52z m44 22 c0 -8 -8 -16 -17 -18 -13 -2
-18 3 -18 18 0 15 5 20 18 18 9 -2 17 -10 17 -18z"/>
<path d="M4663 8910 c0 -30 2 -43 4 -27 2 15 2 39 0 55 -2 15 -4 2 -4 -28z"/>
<path d="M5160 8910 c0 -27 5 -50 10 -50 6 0 10 11 10 24 0 15 7 26 18 29 16
4 16 5 0 6 -10 0 -18 7 -18 15 0 8 8 17 18 19 10 3 6 5 -10 6 -27 1 -28 -1
-28 -49z"/>
<path d="M5893 8938 c-20 -22 -30 -83 -11 -72 5 3 6 14 3 25 -4 10 -2 19 3 19
5 0 12 9 15 20 3 13 14 20 30 20 21 0 26 -7 36 -45 6 -25 16 -43 21 -40 13 8
13 35 1 35 -5 0 -12 14 -16 30 -5 24 -12 30 -34 30 -16 0 -36 -10 -48 -22z"/>
<path d="M6040 8910 c0 -27 5 -50 10 -50 6 0 10 12 10 26 0 20 4 25 22 22 14
-2 25 -13 29 -28 5 -17 7 -7 7 30 -1 30 -3 45 -5 33 -6 -31 -53 -33 -53 -3 0
11 -4 20 -10 20 -5 0 -10 -22 -10 -50z"/>
<path d="M6440 8910 c0 -27 5 -50 10 -50 6 0 10 23 10 50 0 28 -4 50 -10 50
-5 0 -10 -22 -10 -50z"/>
<path d="M6693 8910 c0 -30 2 -43 4 -27 2 15 2 39 0 55 -2 15 -4 2 -4 -28z"/>
<path d="M6873 8938 c-20 -22 -30 -83 -11 -72 5 3 6 14 3 25 -4 10 -2 19 3 19
5 0 12 9 15 20 3 13 14 20 30 20 21 0 26 -7 36 -45 6 -25 16 -43 21 -40 13 8
13 35 1 35 -5 0 -12 14 -16 30 -5 24 -12 30 -34 30 -16 0 -36 -10 -48 -22z"/>
<path d="M13958 8953 c7 -3 16 -2 19 1 4 3 -2 6 -13 5 -11 0 -14 -3 -6 -6z"/>
<path d="M17200 8945 c-26 -32 13 -81 48 -59 34 22 22 74 -18 74 -10 0 -23 -7
-30 -15z m50 -11 c11 -12 10 -18 -3 -32 -16 -15 -18 -15 -34 0 -13 14 -14 20
-3 32 7 9 16 16 20 16 4 0 13 -7 20 -16z"/>
<path d="M6268 8937 c-8 -22 7 -70 22 -75 12 -4 13 -2 3 9 -15 15 -17 46 -4
51 5 2 3 8 -4 15 -10 9 -14 9 -17 0z"/>
<path d="M4888 8935 c-8 -8 6 -68 17 -72 6 -2 10 14 9 34 -1 34 -13 51 -26 38z"/>
<path d="M740 8920 c0 -6 37 -10 90 -10 53 0 90 4 90 10 0 6 -37 10 -90 10
-53 0 -90 -4 -90 -10z"/>
<path d="M2324 8916 c-10 -25 0 -51 20 -54 27 -6 48 25 35 49 -12 22 -47 25
-55 5z m43 -12 c8 -21 -13 -42 -28 -27 -13 13 -5 43 11 43 6 0 13 -7 17 -16z"/>
<path d="M2433 8895 c0 -22 2 -30 4 -17 2 12 2 30 0 40 -3 9 -5 -1 -4 -23z"/>
<path d="M2458 8923 c6 -3 13 -19 13 -36 l1 -32 7 29 c9 41 28 43 40 4 l10
-33 -2 35 c-2 34 -4 35 -42 36 -22 1 -34 -1 -27 -3z"/>
<path d="M2570 8915 c-16 -19 -3 -49 21 -51 9 -1 10 0 2 3 -21 7 -15 23 8 23
14 0 19 5 17 17 -4 24 -32 28 -48 8z m40 -5 c0 -5 -7 -10 -15 -10 -8 0 -15 5
-15 10 0 6 7 10 15 10 8 0 15 -4 15 -10z"/>
<path d="M3260 8915 c-17 -20 -2 -49 26 -52 13 -2 11 1 -6 9 l-25 12 28 4 c20
2 27 8 25 20 -4 23 -32 26 -48 7z m35 -5 c3 -5 -3 -10 -15 -10 -12 0 -18 5
-15 10 3 6 10 10 15 10 5 0 12 -4 15 -10z"/>
<path d="M3351 8890 c1 -27 3 -29 6 -10 2 14 11 30 20 37 13 10 13 12 -6 10
-17 -1 -21 -7 -20 -37z"/>
<path d="M4733 8923 c23 -6 22 -20 -4 -28 -21 -7 -22 -26 -1 -33 7 -2 10 2 6
12 -3 9 -1 16 5 16 6 0 11 -7 11 -15 0 -8 5 -15 10 -15 11 0 13 30 4 54 -3 9
-16 15 -28 15 -16 -1 -17 -2 -3 -6z"/>
<path d="M4810 8911 c0 -10 8 -22 18 -26 16 -7 15 -8 -3 -15 -16 -7 -17 -9 -3
-9 26 -1 33 20 12 36 -16 12 -17 15 -4 23 13 8 12 10 -2 10 -11 0 -18 -8 -18
-19z"/>
<path d="M4963 8895 c0 -22 2 -30 4 -17 2 12 2 30 0 40 -3 9 -5 -1 -4 -23z"/>
<path d="M5019 8914 c-15 -18 -2 -48 22 -50 8 0 9 1 2 3 -27 10 -23 44 7 56
13 4 12 6 -1 6 -9 1 -22 -6 -30 -15z"/>
<path d="M5251 8890 c1 -27 3 -29 6 -10 2 14 11 30 20 37 13 10 13 12 -6 10
-17 -1 -21 -7 -20 -37z"/>
<path d="M5324 8916 c-11 -28 1 -51 26 -53 l25 -3 -25 12 -25 12 28 4 c29 4
33 12 15 30 -16 16 -37 15 -44 -2z m41 -6 c3 -5 -3 -10 -15 -10 -12 0 -18 5
-15 10 3 6 10 10 15 10 5 0 12 -4 15 -10z"/>
<path d="M5420 8915 c-17 -20 -2 -49 26 -52 13 -2 11 1 -6 9 l-25 12 28 4 c20
2 27 8 25 20 -4 23 -32 26 -48 7z m35 -5 c3 -5 -3 -10 -15 -10 -12 0 -18 5
-15 10 3 6 10 10 15 10 5 0 12 -4 15 -10z"/>
<path d="M6173 8923 c-18 -7 -16 -50 3 -57 25 -10 33 -7 44 15 18 33 -10 58
-47 42z m37 -28 c0 -25 -23 -35 -35 -15 -10 16 2 40 20 40 9 0 15 -9 15 -25z"/>
<path d="M6399 8914 c-14 -18 -3 -45 22 -51 8 -3 7 0 -3 7 -22 14 -23 24 -2
44 8 9 11 16 6 16 -5 0 -15 -7 -23 -16z"/>
<path d="M6500 8915 c-16 -19 -3 -49 21 -51 9 -1 10 0 2 3 -21 7 -15 23 8 23
14 0 19 5 17 17 -4 24 -32 28 -48 8z m40 -5 c0 -5 -7 -10 -15 -10 -8 0 -15 5
-15 10 0 6 7 10 15 10 8 0 15 -4 15 -10z"/>
<path d="M6613 8924 c23 -7 22 -20 -3 -27 -25 -6 -27 -37 -2 -36 10 0 12 3 5
6 -18 7 -16 23 1 23 8 0 17 -8 20 -17 2 -10 4 -2 3 17 -2 27 -7 35 -22 37 -16
1 -16 1 -2 -3z"/>
<path d="M6744 8918 c-4 -6 0 -16 9 -23 22 -16 21 -22 0 -28 -16 -4 -16 -5 -1
-6 24 -2 34 20 15 34 -22 16 -21 22 1 28 15 4 15 5 0 6 -9 0 -20 -4 -24 -11z"/>
<path d="M14030 8926 c0 -2 9 -6 20 -9 11 -3 18 -1 14 4 -5 9 -34 13 -34 5z"/>
<path d="M14258 8923 c7 -3 16 -2 19 1 4 3 -2 6 -13 5 -11 0 -14 -3 -6 -6z"/>
<path d="M17140 8920 c0 -5 5 -10 10 -10 6 0 10 5 10 10 0 6 -4 10 -10 10 -5
0 -10 -4 -10 -10z"/>
<path d="M17300 8920 c0 -5 5 -10 10 -10 6 0 10 5 10 10 0 6 -4 10 -10 10 -5
0 -10 -4 -10 -10z"/>
<path d="M14023 8893 c9 -2 25 -2 35 0 9 3 1 5 -18 5 -19 0 -27 -2 -17 -5z"/>
<path d="M14118 8893 c7 -3 16 -2 19 1 4 3 -2 6 -13 5 -11 0 -14 -3 -6 -6z"/>
<path d="M783 8863 c26 -2 68 -2 95 0 26 2 4 3 -48 3 -52 0 -74 -1 -47 -3z"/>
<path d="M13938 8853 c6 -2 18 -2 25 0 6 3 1 5 -13 5 -14 0 -19 -2 -12 -5z"/>
<path d="M14038 8853 c7 -3 16 -2 19 1 4 3 -2 6 -13 5 -11 0 -14 -3 -6 -6z"/>
<path d="M14258 8853 c7 -3 16 -2 19 1 4 3 -2 6 -13 5 -11 0 -14 -3 -6 -6z"/>
<path d="M17220 8840 c0 -5 5 -10 10 -10 6 0 10 5 10 10 0 6 -4 10 -10 10 -5
0 -10 -4 -10 -10z"/>
<path d="M14115 8575 c-3 -14 -7 -36 -10 -50 -3 -14 -1 -25 4 -25 4 0 11 12
15 28 3 15 8 37 12 50 4 13 2 22 -5 22 -6 0 -13 -11 -16 -25z"/>
<path d="M5014 8551 c-70 -42 -99 -115 -98 -241 1 -107 24 -176 83 -242 36
-42 104 -78 145 -78 32 0 94 30 117 56 33 38 63 114 39 99 -5 -3 -7 0 -4 9 3
8 11 13 17 10 14 -5 15 128 2 185 -8 38 -56 124 -88 159 -55 60 -153 79 -213
43z m32 -38 c-1 -33 2 -38 24 -41 20 -2 22 -1 10 7 -19 13 -2 44 26 50 10 2
22 8 26 15 11 17 78 -23 105 -63 27 -40 31 -107 9 -149 -39 -74 -174 -172
-236 -171 -17 0 -8 6 28 19 30 10 58 22 64 28 16 16 0 32 -30 32 -36 0 -98 43
-119 83 -36 70 -11 159 57 204 18 13 34 23 35 23 1 0 2 -17 1 -37z m234 -285
c-12 -24 -36 -58 -53 -77 -34 -35 -118 -81 -152 -81 -11 0 7 13 40 29 61 29
144 107 167 156 6 14 13 23 16 20 2 -2 -5 -23 -18 -47z"/>
<path d="M5130 8400 c0 -5 5 -10 10 -10 6 0 10 5 10 10 0 6 -4 10 -10 10 -5 0
-10 -4 -10 -10z"/>
<path d="M5040 8390 c0 -5 5 -10 10 -10 6 0 10 5 10 10 0 6 -4 10 -10 10 -5 0
-10 -4 -10 -10z"/>
<path d="M5105 8330 c-19 -8 -19 -9 2 -9 12 -1 25 4 28 9 7 12 -2 12 -30 0z"/>
<path d="M15783 8558 c-9 -15 -6 -134 5 -218 7 -55 7 -55 45 -58 44 -4 45 0
22 108 -8 39 -12 82 -9 95 4 14 -1 36 -12 54 -19 33 -38 39 -51 19z"/>
<path d="M6750 8540 c0 -13 7 -20 20 -20 13 0 20 7 20 20 0 13 -7 20 -20 20
-13 0 -20 -7 -20 -20z"/>
<path d="M6800 8515 c0 -26 -7 -60 -16 -78 l-16 -32 36 34 36 35 0 -27 c0 -25
3 -27 38 -27 34 0 39 4 50 33 7 18 12 50 12 70 l0 37 -70 0 -70 0 0 -45z"/>
<path d="M1510 8540 c0 -8 5 -22 10 -30 9 -13 11 -13 20 0 5 8 9 20 9 25 0 6
-3 4 -6 -3 -4 -10 -8 -9 -19 5 -11 14 -13 15 -14 3z"/>
<path d="M1754 8518 c-54 -38 -74 -80 -74 -154 l0 -66 35 4 c20 2 36 -1 39 -8
8 -22 56 -4 62 25 4 14 13 51 20 81 8 30 14 74 14 97 0 42 -1 43 -33 43 -18 0
-46 -10 -63 -22z m46 -62 c-15 -9 -32 -11 -46 -6 -12 5 -25 6 -30 2 -4 -4 -4
-1 0 6 4 7 27 12 54 12 45 -1 46 -1 22 -14z m-5 -46 c-3 -5 -24 -10 -46 -10
-21 0 -39 5 -39 10 0 6 21 10 46 10 27 0 43 -4 39 -10z m-25 -50 c-20 -13 -80
-13 -80 -1 0 9 79 20 90 13 2 -2 -2 -7 -10 -12z"/>
<path d="M1496 8488 c-20 -11 -21 -42 -2 -35 10 4 13 1 9 -9 -3 -8 -12 -13
-20 -9 -12 4 -14 -1 -11 -25 3 -17 1 -33 -4 -36 -4 -3 -8 -24 -8 -47 0 -39 2
-42 29 -43 23 -1 32 5 45 33 25 53 21 70 -21 81 -38 10 -38 10 -7 11 61 2 91
75 35 83 -17 2 -37 0 -45 -4z"/>
<path d="M8631 8474 c-11 -14 -23 -41 -27 -58 -5 -30 0 -38 63 -99 l68 -67 68
69 c65 67 67 70 55 98 -7 15 -19 32 -26 37 -12 7 -12 10 -1 17 11 7 11 9 -2 9
-8 0 -30 -16 -49 -35 -19 -19 -37 -35 -40 -35 -4 0 -21 20 -39 45 -18 25 -36
45 -41 45 -5 0 -18 -12 -29 -26z"/>
<path d="M13812 8418 c3 -7 12 -14 21 -16 12 -2 15 1 11 12 -7 19 -38 22 -32
4z"/>
<path d="M6836 8378 c-3 -18 -7 -44 -8 -58 -2 -16 -11 -26 -28 -30 -24 -6 -25
-10 -32 -100 -3 -52 -9 -116 -12 -142 l-7 -48 107 0 107 0 -7 63 c-3 34 -11
86 -18 116 -9 43 -9 56 0 59 15 5 15 42 -2 112 -12 55 -12 55 -54 58 -39 3
-41 2 -46 -30z m78 -145 c2 -10 6 -52 8 -93 l3 -75 -57 -3 -58 -3 0 89 c0 49
3 92 7 95 3 4 26 7 49 7 32 0 44 -4 48 -17z"/>
<path d="M6820 8155 l0 -85 45 0 c44 0 45 1 45 33 0 17 -3 56 -6 85 l-7 52
-38 0 -39 0 0 -85z"/>
<path d="M10450 8370 c-16 -30 13 -80 47 -80 25 0 25 2 19 42 -9 58 -44 78
-66 38z"/>
<path d="M10540 8371 c-17 -32 -12 -69 11 -82 27 -14 38 -3 46 45 4 27 2 41
-8 47 -22 14 -37 11 -49 -10z"/>
<path d="M14220 8376 c0 -2 9 -6 20 -9 11 -3 20 -1 20 4 0 5 -9 9 -20 9 -11 0
-20 -2 -20 -4z"/>
<path d="M14169 8360 c-17 -10 -45 -67 -37 -75 5 -6 106 43 113 55 3 6 -6 15
-20 20 -32 12 -35 12 -56 0z"/>
<path d="M17431 8354 c0 -11 3 -14 6 -6 3 7 2 16 -1 19 -3 4 -6 -2 -5 -13z"/>
<path d="M1360 8353 c-47 -5 -60 -15 -60 -49 0 -16 11 -26 40 -38 36 -14 44
-14 75 -2 32 14 35 19 35 55 0 45 8 42 -90 34z"/>
<path d="M17701 8344 c0 -11 3 -14 6 -6 3 7 2 16 -1 19 -3 4 -6 -2 -5 -13z"/>
<path d="M3142 8243 c2 -49 8 -91 13 -95 6 -5 4 -12 -5 -18 -8 -5 -10 -10 -3
-10 6 0 11 -15 11 -34 0 -50 7 -56 68 -56 46 0 54 3 54 19 0 30 20 223 26 254
l6 27 -87 0 -86 0 3 -87z m104 -63 c12 0 12 -4 2 -22 -7 -13 -14 -24 -15 -26
-1 -2 -10 5 -20 15 -16 16 -17 20 -3 36 8 10 16 13 18 7 2 -5 10 -10 18 -10z"/>
<path d="M17408 8323 c-22 -5 -23 -20 -4 -39 11 -11 48 -14 165 -14 l151 0 -1
28 c-2 23 -2 24 -6 5 -4 -23 -7 -23 -149 -23 l-144 0 6 25 c3 14 5 24 3 24 -2
-1 -12 -3 -21 -6z"/>
<path d="M10404 8309 c-8 -14 16 -59 32 -59 20 0 25 17 13 44 -13 27 -33 34
-45 15z"/>
<path d="M10612 8308 c-16 -16 -15 -48 2 -48 20 0 39 27 32 45 -7 18 -18 19
-34 3z"/>
<path d="M14311 8313 c0 -5 4 -17 9 -28 8 -18 9 -17 9 8 1 15 -3 27 -9 27 -5
0 -10 -3 -9 -7z"/>
<path d="M17730 8305 c0 -8 5 -15 10 -15 6 0 10 7 10 15 0 8 -4 15 -10 15 -5
0 -10 -7 -10 -15z"/>
<path d="M10472 8239 c-34 -34 -39 -48 -20 -67 9 -9 20 -6 50 10 29 17 41 19
50 10 17 -17 58 -15 58 2 0 8 2 21 5 28 6 16 -53 48 -88 48 -13 0 -38 -14 -55
-31z"/>
<path d="M17390 8213 c0 -21 -3 -48 -6 -60 l-6 -23 182 0 c162 0 181 2 176 16
-3 9 -6 24 -6 35 0 14 -7 19 -30 19 -16 0 -30 5 -30 10 0 6 0 13 0 18 -1 4 14
10 32 13 18 4 -45 7 -139 8 l-173 1 0 -37z m85 2 c0 -23 -38 -33 -60 -15 -23
19 -6 41 29 38 23 -2 31 -8 31 -23z"/>
<path d="M13923 8139 c9 -66 27 -73 27 -11 0 41 -3 52 -16 52 -14 0 -16 -8
-11 -41z"/>
<path d="M14060 8070 l0 -110 110 0 c61 0 110 2 110 4 0 3 6 35 14 73 8 37 17
85 20 106 l7 37 -131 0 -130 0 0 -110z"/>
<path d="M17390 8100 c0 -5 9 -10 20 -10 11 0 20 5 20 10 0 6 -9 10 -20 10
-11 0 -20 -4 -20 -10z"/>
<path d="M17710 8100 c0 -5 11 -10 25 -10 14 0 25 5 25 10 0 6 -11 10 -25 10
-14 0 -25 -4 -25 -10z"/>
<path d="M13801 8019 c-18 -28 -30 -53 -28 -56 3 -2 34 -3 71 -1 l66 3 -35 49
c-19 27 -36 51 -39 53 -2 2 -18 -19 -35 -48z"/>
<path d="M3170 8000 c0 -18 7 -20 55 -20 48 0 55 2 55 20 0 18 -7 20 -55 20
-48 0 -55 -2 -55 -20z"/>
<path d="M10505 7611 c3 -5 -14 -30 -37 -56 -41 -45 -93 -115 -100 -135 -2 -6
-16 -12 -33 -14 -16 -2 -50 -14 -75 -28 -137 -74 -128 -71 -147 -48 -24 28
-35 25 -63 -18 -28 -43 -112 -122 -128 -122 -8 0 -11 -23 -10 -67 2 -69 -3
-85 -49 -163 -25 -42 -26 -48 -19 -150 9 -156 31 -228 57 -190 7 10 12 11 15
4 14 -35 81 -135 119 -180 67 -78 256 -163 279 -125 4 6 15 11 25 11 10 0 26
9 35 19 20 22 102 37 137 26 l23 -8 -23 -18 c-13 -11 -31 -19 -40 -19 -10 0
-28 -11 -41 -25 -13 -14 -31 -25 -41 -25 -9 0 -19 -9 -22 -20 -3 -13 0 -20 9
-20 8 0 14 5 14 10 0 6 5 10 10 10 6 0 10 -7 10 -15 0 -8 -4 -15 -10 -15 -5 0
-10 -7 -10 -15 0 -20 28 -19 130 5 100 24 200 62 252 96 21 13 41 24 45 24 33
0 88 26 113 53 16 17 50 82 76 144 26 63 58 123 73 137 33 31 338 148 514 197
l117 32 0 135 c0 123 -1 134 -17 128 -15 -5 -15 -4 1 9 19 14 19 15 -6 15 -14
0 -37 -11 -52 -25 -15 -14 -33 -25 -41 -25 -8 0 -17 -4 -20 -10 -3 -5 -23 -17
-43 -27 -20 -9 -39 -20 -42 -23 -3 -4 -17 -10 -32 -14 -16 -3 -28 -12 -28 -19
0 -6 -11 -25 -25 -42 -23 -28 -26 -29 -39 -12 -11 14 -15 15 -25 3 -8 -10 -28
-12 -75 -9 l-63 5 -22 -36 c-24 -38 -68 -52 -59 -18 4 15 -3 17 -60 15 l-66
-1 -17 -44 c-10 -24 -18 -59 -18 -79 -1 -22 -18 -68 -46 -121 -25 -48 -45 -91
-45 -97 0 -16 -33 -51 -48 -51 -7 0 -15 -8 -19 -17 -3 -10 -17 -27 -30 -38
-13 -11 -25 -30 -26 -42 -2 -29 -22 -37 -42 -17 -41 41 -25 97 51 179 62 68
80 107 88 193 3 41 11 83 17 93 13 26 2 44 -17 28 -18 -14 -16 -16 -37 52 -31
102 -125 223 -196 251 -94 39 -93 38 -72 56 11 9 56 64 100 122 45 58 97 124
116 147 19 23 35 44 35 47 0 3 -66 6 -146 6 -86 0 -143 -4 -139 -9z m-78 -427
c-3 -3 -12 -4 -19 -1 -8 3 -5 6 6 6 11 1 17 -2 13 -5z m101 -36 c46 -28 89
-91 108 -156 48 -165 -75 -335 -240 -331 -41 1 -41 1 14 13 68 14 116 43 156
93 40 50 54 93 54 167 0 106 -60 197 -152 234 l-33 12 30 -6 c17 -3 45 -15 63
-26z m-184 -54 c9 -8 16 -24 16 -35 0 -16 3 -18 19 -9 32 17 96 12 123 -10 59
-46 60 -125 3 -186 -28 -29 -39 -35 -60 -30 -14 4 -25 2 -25 -3 0 -38 -124 4
-135 46 -3 13 -1 42 5 64 8 29 8 55 1 90 -17 76 -15 89 13 89 14 0 32 -7 40
-16z m-454 -231 c0 -57 -14 -87 -25 -54 -8 27 3 101 16 101 5 0 9 -21 9 -47z
m795 -462 c-28 -24 -135 -42 -135 -21 0 13 123 49 135 39 6 -6 6 -12 0 -18z"/>
<path d="M10411 6974 c-24 -31 -25 -33 -11 -69 9 -23 13 -25 26 -14 25 20 46
68 39 89 -9 28 -30 25 -54 -6z"/>
<path d="M11895 7595 l-25 -24 0 -1776 0 -1776 25 -24 24 -25 781 0 781 0 19
45 c11 25 24 45 29 45 5 0 17 -20 27 -45 9 -25 21 -45 25 -45 5 0 9 20 9 45 0
53 11 57 39 12 l21 -32 0 35 c0 46 17 27 23 -25 4 -40 4 -40 5 8 2 47 2 47 37
47 43 0 65 -33 46 -69 -11 -20 -9 -21 24 -21 19 0 35 5 35 11 0 6 9 8 20 4 14
-4 20 -2 20 8 0 8 -9 17 -20 20 -22 6 -28 42 -7 49 19 8 37 -2 37 -20 0 -14
-2 -15 -10 -2 -5 8 -12 11 -16 7 -4 -4 3 -17 15 -28 12 -12 20 -27 17 -35 -3
-8 -3 -14 -1 -14 2 0 13 20 24 45 11 25 24 45 29 45 6 0 18 -20 29 -45 11 -29
24 -45 36 -45 21 0 21 1 2 47 -18 42 -18 43 -6 43 5 0 12 -13 16 -30 4 -16 10
-30 15 -30 4 0 13 14 20 30 7 17 16 30 21 30 8 0 -2 -34 -21 -71 -9 -16 -7
-19 15 -19 23 0 25 4 25 45 0 43 1 45 28 44 23 -2 24 -2 5 -6 -13 -2 -23 -11
-23 -18 0 -7 10 -16 23 -18 l22 -4 -22 -2 c-34 -2 -28 -28 8 -35 65 -13 69
-10 71 42 l1 47 4 -42 c2 -24 8 -43 13 -43 4 0 15 -3 24 -6 13 -5 16 2 16 41
0 30 4 44 11 40 6 -4 8 -22 4 -46 -6 -37 -5 -39 19 -39 31 0 30 -2 10 45 -8
20 -13 40 -9 43 3 3 11 -9 17 -26 16 -40 23 -40 38 1 7 17 14 27 17 20 2 -6
-3 -25 -11 -42 -21 -39 -20 -41 9 -41 23 0 25 4 25 45 0 43 1 45 28 44 23 -2
24 -2 5 -6 -13 -2 -23 -11 -23 -18 0 -7 10 -16 23 -18 l22 -4 -22 -2 c-31 -1
-29 -27 2 -33 14 -3 25 -1 25 4 0 5 9 7 19 3 30 -9 35 14 6 27 -15 6 -24 18
-23 27 4 20 37 27 52 11 8 -9 6 -11 -11 -5 -29 8 -30 -10 -2 -26 14 -7 19 -17
16 -30 -5 -19 11 -19 753 -19 535 0 766 3 783 11 14 6 30 22 36 36 8 17 11
276 11 890 0 792 -1 864 -16 852 -10 -8 -40 -13 -86 -12 -68 2 -112 13 -52 13
21 0 25 3 15 9 -12 8 -11 16 4 53 20 50 23 158 5 203 -17 43 -21 118 -7 127 8
5 6 8 -6 8 -11 0 -26 19 -43 55 -13 31 -28 54 -32 51 -5 -3 -14 -1 -22 5 -10
5 -11 9 -3 9 8 0 10 7 6 18 -6 15 -5 15 10 3 15 -12 26 -11 75 2 31 9 78 19
105 23 l47 6 0 314 0 314 -22 0 c-13 0 -68 -5 -123 -10 -208 -21 -250 -16
-450 45 -44 13 -93 27 -110 31 -28 7 -26 8 23 15 29 4 170 14 315 23 144 9
286 19 315 22 l52 5 0 65 c0 35 -3 64 -7 64 -5 0 -125 -9 -268 -20 -493 -38
-850 -60 -875 -55 -19 4 -32 -1 -50 -21 -42 -44 -105 -91 -97 -72 10 28 -15
33 -36 7 l-20 -24 8 33 c7 34 -4 42 -24 18 -9 -11 -10 -20 -1 -36 9 -17 7 -26
-12 -50 -13 -16 -31 -32 -40 -35 -29 -10 -21 -30 18 -45 20 -8 40 -22 45 -31
7 -14 2 -18 -29 -22 -20 -4 -48 -3 -62 0 -24 6 -24 6 -8 -11 10 -9 22 -15 28
-11 6 3 7 -1 4 -9 -4 -10 -1 -16 9 -16 9 0 23 -3 33 -7 14 -5 16 -2 11 16 -4
18 -2 21 11 16 31 -12 37 -10 37 10 0 11 3 25 6 30 3 6 5 19 5 30 -1 20 -9 22
-51 14 -13 -3 -20 2 -22 16 -1 11 0 14 3 8 10 -22 22 -14 29 17 4 16 10 32 14
34 14 9 71 -34 81 -59 5 -14 17 -28 25 -31 8 -4 15 -15 15 -25 0 -17 9 -19 68
-21 37 -1 76 -1 87 0 11 1 72 7 136 13 108 11 120 11 186 -10 59 -17 78 -29
111 -66 22 -25 44 -45 50 -45 5 0 13 -12 16 -26 6 -21 11 -25 29 -20 12 3 28
6 35 6 6 0 12 9 12 19 0 11 5 23 10 26 6 3 10 16 10 27 0 12 7 30 17 40 9 10
21 28 28 41 9 18 19 22 59 20 26 -1 58 -9 71 -17 33 -21 33 -38 1 -26 -17 6
-26 5 -29 -3 -3 -9 -9 -9 -26 1 -11 6 -27 12 -35 12 -17 0 -66 -56 -66 -76 0
-8 -15 -44 -32 -79 -25 -47 -41 -67 -62 -75 -43 -15 -101 -12 -140 7 -30 14
-42 14 -75 5 -24 -8 -48 -9 -63 -4 -12 5 -42 7 -66 4 -35 -3 -41 -7 -31 -18 7
-9 20 -12 31 -8 11 3 36 3 56 -1 32 -6 34 -9 17 -15 -11 -5 -36 -9 -55 -10
-31 -1 -33 -2 -17 -14 9 -7 17 -18 17 -24 0 -11 39 -9 100 4 43 9 39 3 -24
-30 -27 -14 -44 -26 -37 -26 7 0 9 -4 6 -10 -9 -15 22 -12 56 6 45 23 46 10 2
-16 -21 -13 -33 -25 -26 -27 13 -5 81 28 126 59 53 38 39 9 -24 -51 -61 -57
-94 -75 -53 -30 19 22 19 22 -6 14 -14 -4 -27 -9 -29 -11 -6 -5 21 -54 29 -54
4 0 22 17 41 37 19 20 58 61 87 91 28 30 52 58 52 62 0 4 10 15 23 23 50 33
112 5 224 -100 l63 -58 -10 -50 c-6 -27 -8 -56 -5 -64 4 -11 3 -12 -10 -1 -12
10 -20 9 -41 -5 -19 -12 -37 -15 -64 -11 -35 5 -38 4 -59 -34 -23 -41 -41 -45
-41 -9 0 11 -5 17 -10 14 -6 -3 -13 1 -16 9 -9 23 -23 20 -36 -9 -9 -20 -18
-25 -48 -25 -40 0 -90 -19 -90 -35 0 -5 -7 -19 -15 -29 -13 -18 -15 -18 -21
-2 -4 11 4 31 25 56 19 24 37 62 46 102 18 79 18 83 0 68 -9 -7 -14 -18 -12
-23 4 -13 -61 -72 -69 -64 -4 3 4 21 16 39 l23 33 -27 -26 -28 -26 -28 29
c-28 28 -50 36 -50 19 0 -5 -19 -7 -42 -5 -129 14 -118 15 -118 -18 0 -18 -12
-45 -28 -67 -16 -20 -40 -57 -54 -83 l-26 -47 27 -4 c14 -2 -5 -5 -44 -6 -87
-2 -381 -73 -377 -90 1 -7 -11 -29 -28 -49 -28 -34 -28 -37 -13 -54 15 -17 14
-18 -23 -19 l-39 -1 46 -8 c61 -10 92 -27 85 -47 -3 -8 -6 -17 -6 -19 0 -2
-19 -4 -42 -5 -24 0 -37 -3 -30 -6 6 -2 12 -12 12 -21 0 -14 2 -14 9 -3 6 9
18 11 36 7 22 -6 25 -9 14 -22 -6 -8 -9 -17 -6 -21 13 -12 -15 -43 -38 -43
-14 0 -25 -4 -25 -10 0 -5 5 -10 10 -10 22 0 8 -27 -24 -44 -34 -18 -105 -31
-226 -41 l-65 -6 54 20 c68 26 70 28 29 36 -18 3 -41 9 -52 12 -32 9 3 23 60
23 33 0 56 5 64 15 7 8 19 15 26 15 12 0 12 4 2 20 -8 12 -15 15 -19 8 -4 -6
-19 -8 -33 -6 -14 3 -26 2 -26 -1 0 -8 -43 -26 -117 -47 -47 -14 -63 -23 -63
-36 0 -19 -25 -23 -67 -12 -16 4 -23 14 -23 30 0 27 -3 28 -31 13 -17 -9 -18
-13 -7 -26 11 -14 10 -16 -15 -11 l-29 6 3 -57 c3 -40 0 -55 -8 -54 -9 2 -11
-6 -7 -25 4 -19 1 -32 -10 -41 -13 -11 -16 -11 -16 2 0 25 -36 40 -61 26 -12
-6 -38 -9 -59 -7 -28 2 -36 0 -29 -8 6 -8 4 -13 -8 -18 -10 -3 -38 -21 -63
-41 -25 -19 -52 -38 -60 -41 -8 -3 -22 -10 -30 -15 -8 -5 -27 -14 -42 -20 -17
-6 -28 -19 -28 -29 0 -24 -36 -49 -61 -43 -21 6 -27 35 -6 32 25 -3 50 1 43 8
-14 14 -50 13 -58 -2 -6 -10 -17 -13 -34 -9 -15 4 -24 2 -24 -6 0 -6 -8 -9
-17 -6 -10 3 -25 1 -33 -4 -13 -9 -13 -11 0 -20 8 -5 29 -10 45 -11 21 -1 11
-5 -30 -14 -51 -10 -63 -9 -77 3 -10 8 -18 12 -18 9 0 -4 -11 -2 -25 3 -13 5
-27 5 -30 1 -2 -5 -27 -8 -54 -8 -43 1 -47 3 -33 14 9 7 22 13 27 13 18 0 85
37 79 43 -3 3 5 11 18 18 12 6 37 26 55 44 39 40 103 72 167 84 26 5 57 17 69
28 12 11 75 45 140 77 64 31 117 61 117 65 0 4 -20 18 -45 30 -25 12 -45 27
-45 32 0 5 -5 9 -11 9 -5 0 -7 -4 -4 -10 3 -5 1 -10 -4 -10 -6 0 -11 7 -11 15
0 8 -4 15 -10 15 -5 0 -10 9 -10 19 0 10 -7 21 -15 25 -8 3 -15 10 -15 16 0 6
4 9 9 5 5 -3 12 -1 16 4 3 7 -13 8 -45 4 -32 -4 -50 -2 -50 5 0 6 -8 13 -17
15 -11 3 -6 5 11 6 24 1 26 3 17 15 -10 12 -7 18 19 31 37 19 50 13 27 -13
-25 -27 -21 -33 21 -31 43 3 82 -8 82 -22 0 -6 5 -7 10 -4 6 3 10 1 10 -4 0
-6 5 -11 10 -11 21 0 -16 41 -42 47 -16 3 -28 9 -28 13 0 16 14 18 52 4 22 -7
44 -12 48 -9 11 6 5 100 -13 239 -16 117 -14 291 4 301 4 3 2 20 -3 39 -19 61
-6 79 112 163 61 43 159 114 218 157 128 95 299 209 356 238 36 19 46 20 100
10 65 -13 72 -10 78 28 2 14 9 24 15 23 6 -1 16 11 22 27 5 17 22 41 37 55 29
27 27 29 -40 40 -80 13 -12 24 259 39 699 40 1000 56 1060 56 l65 0 0 56 0 57
-77 -7 c-421 -34 -1310 -85 -1563 -89 l-115 -2 -3 -57 c-3 -56 -4 -58 -30 -58
-23 0 -35 10 -65 58 -42 66 -72 90 -81 66 -3 -9 -6 -40 -6 -70 0 -51 -1 -54
-25 -54 l-24 0 -3 123 -3 122 -29 3 c-15 2 -39 1 -51 -2 l-23 -6 21 -38 c18
-34 20 -46 11 -96 -8 -53 -23 -74 -31 -44 -13 56 -19 114 -12 116 14 5 11 23
-3 21 -14 -2 -42 6 -70 22 -10 5 -26 9 -35 8 -16 0 -15 -1 2 -8 19 -8 19 -8
-2 -19 -45 -25 -78 -5 -48 28 21 24 13 28 -81 41 -77 10 -107 19 -68 19 10 0
111 7 224 15 293 20 651 42 905 55 184 9 349 22 463 36 13 1 26 5 30 8 3 3
-99 6 -226 6 -198 0 -233 -2 -247 -16 -8 -9 -22 -13 -30 -10 -8 3 -17 1 -20
-5 -9 -14 -25 -1 -18 16 4 13 -170 15 -1411 15 l-1417 0 -24 -25z m2688 -22
c-7 -2 -21 -2 -30 0 -10 3 -4 5 12 5 17 0 24 -2 18 -5z m-1267 -132 c-4 -6
-14 -7 -23 -4 -15 6 -14 7 3 13 22 9 29 6 20 -9z m264 4 c0 -17 -26 -21 -32
-4 -2 7 -12 7 -30 0 -14 -5 -29 -7 -32 -4 -16 16 -2 23 44 23 38 0 50 -4 50
-15z m120 6 c0 -15 -49 -19 -54 -5 -4 10 3 14 24 14 17 0 30 -4 30 -9z m-208
-46 c0 -5 -5 -11 -11 -13 -6 -2 -11 4 -11 13 0 9 5 15 11 13 6 -2 11 -8 11
-13z m346 -137 c-3 -7 -13 -15 -24 -17 -16 -3 -17 -1 -5 13 16 19 34 21 29 4z
m-1648 -178 c0 -5 -11 -10 -24 -10 -40 0 -40 -18 -2 -41 53 -31 44 -79 -15
-79 -40 0 -46 18 -7 22 43 4 48 26 9 41 -35 13 -49 41 -31 62 14 17 70 20 70
5z m170 0 c0 -5 -9 -10 -20 -10 -18 0 -20 -7 -20 -60 0 -33 -4 -60 -10 -60 -6
0 -10 27 -10 60 0 53 -2 60 -20 60 -11 0 -20 5 -20 10 0 6 23 10 50 10 28 0
50 -4 50 -10z m133 -57 c27 -68 27 -96 0 -55 -20 28 -63 30 -70 2 -5 -19 -23
-29 -23 -12 0 8 39 112 46 124 11 18 22 4 47 -59z m169 42 c9 -21 9 -29 -5
-42 -14 -14 -14 -19 -1 -45 18 -35 2 -37 -20 -3 -9 14 -21 25 -26 25 -6 0 -10
-11 -10 -25 0 -14 -4 -25 -10 -25 -6 0 -10 30 -10 70 l0 70 35 0 c28 0 38 -5
47 -25z m168 15 c0 -5 -9 -10 -20 -10 -18 0 -20 -7 -20 -54 0 -30 -4 -58 -10
-61 -6 -4 -10 17 -10 54 0 54 -2 61 -20 61 -11 0 -20 5 -20 10 0 6 23 10 50
10 28 0 50 -4 50 -10z m135 0 c4 -6 -7 -10 -24 -10 -41 0 -41 -24 0 -45 24
-13 30 -22 27 -43 -3 -23 -8 -27 -40 -30 -22 -2 -38 1 -38 7 0 6 14 11 30 11
39 0 40 24 1 45 -38 19 -44 30 -31 55 11 21 64 28 75 10z m185 -20 c0 -28 3
-30 35 -30 32 0 35 2 35 30 0 17 5 30 10 30 6 0 10 -30 10 -70 0 -40 -4 -70
-10 -70 -5 0 -10 14 -10 30 0 28 -3 30 -35 30 -32 0 -35 -2 -35 -30 0 -16 -4
-30 -10 -30 -6 0 -10 30 -10 70 0 40 4 70 10 70 6 0 10 -13 10 -30z m250 20
c0 -5 -13 -10 -30 -10 -23 0 -30 -4 -30 -20 0 -15 7 -20 25 -20 14 0 25 -4 25
-10 0 -5 -11 -10 -25 -10 -18 0 -25 -5 -25 -20 0 -16 7 -20 30 -20 17 0 30 -4
30 -10 0 -5 -18 -10 -40 -10 l-40 0 0 70 0 70 40 0 c22 0 40 -4 40 -10z m152
-15 c9 -21 9 -29 -5 -42 -14 -14 -14 -19 -1 -45 18 -35 1 -37 -22 -3 -9 14
-20 25 -25 25 -5 0 -9 -11 -9 -25 0 -25 -19 -36 -21 -12 -4 37 -5 113 -2 120
2 4 20 7 39 7 27 0 37 -5 46 -25z m153 15 c-3 -5 -17 -10 -31 -10 -17 0 -24
-5 -24 -20 0 -15 7 -20 25 -20 14 0 25 -4 25 -10 0 -5 -11 -10 -25 -10 -18 0
-25 -5 -25 -20 0 -15 7 -20 24 -20 14 0 28 -4 31 -10 4 -6 -10 -10 -34 -10
l-41 0 0 70 0 70 41 0 c24 0 38 -4 34 -10z m95 -120 c0 -5 -7 -10 -16 -10 -8
0 -12 5 -9 10 3 6 10 10 16 10 5 0 9 -4 9 -10z m90 0 c0 -5 -4 -10 -10 -10 -5
0 -10 5 -10 10 0 6 5 10 10 10 6 0 10 -4 10 -10z m90 0 c0 -5 -4 -10 -10 -10
-5 0 -10 5 -10 10 0 6 5 10 10 10 6 0 10 -4 10 -10z m1695 -300 c7 -12 -12
-40 -26 -40 -10 0 -12 34 -2 43 9 10 21 9 28 -3z m-2155 -750 c0 -5 -2 -10 -4
-10 -3 0 -8 5 -11 10 -3 6 -1 10 4 10 6 0 11 -4 11 -10z m2448 -186 c29 -8 28
-20 -3 -26 -14 -3 -36 3 -52 13 l-28 19 30 0 c17 0 40 -3 53 -6z m-601 -141
c3 -9 10 -10 22 -4 9 5 23 6 30 2 20 -13 -33 -23 -61 -12 -15 6 -31 5 -44 -2
-17 -9 -18 -9 -5 6 17 22 3 22 -21 0 -17 -15 -18 -15 -18 4 0 17 6 20 47 19
27 -1 48 -6 50 -13z m-977 -52 c-26 -15 -66 -24 -55 -13 6 5 19 12 30 15 32 8
41 7 25 -2z m-466 -17 c9 -3 13 -10 10 -15 -3 -5 0 -9 7 -9 7 0 8 -4 2 -12
-10 -14 -9 -43 2 -70 4 -11 3 -18 -4 -18 -6 0 -11 -6 -11 -14 0 -14 -55 -30
-71 -20 -5 3 -9 -1 -9 -10 0 -8 6 -17 13 -19 6 -3 1 -6 -13 -6 -15 -1 -31 4
-37 10 -7 7 -13 7 -17 1 -3 -5 6 -13 20 -16 25 -7 26 -8 9 -26 -10 -11 -26
-20 -37 -20 -10 0 -18 -7 -18 -15 0 -8 -5 -15 -11 -15 -6 0 -24 -11 -41 -25
-42 -36 -73 -30 -90 15 -4 11 -21 17 -49 19 -57 3 -66 14 -35 39 14 11 26 24
26 30 0 16 101 84 116 78 8 -3 14 0 14 7 0 15 61 51 102 61 15 3 39 17 54 31
28 26 41 29 68 19z m363 0 c-3 -3 -12 -4 -19 -1 -8 3 -5 6 6 6 11 1 17 -2 13
-5z m1253 -46 c0 -25 -18 -44 -30 -32 -8 8 -7 16 5 28 20 19 25 20 25 4z
m-1123 -42 c-45 -31 -68 -38 -87 -26 -13 9 -13 10 0 11 8 0 4 4 -10 9 l-25 7
25 11 c14 6 49 11 79 11 l54 1 -36 -24z m-371 -62 c25 -4 40 -34 24 -44 -6 -4
-8 -14 -5 -23 5 -12 15 -14 41 -10 28 5 34 2 34 -12 0 -15 3 -15 36 4 41 25
90 27 130 6 49 -25 132 -38 175 -27 44 11 50 1 17 -23 -23 -16 -23 -16 7 -9
17 4 40 10 51 15 12 4 24 6 27 3 2 -3 29 -6 58 -8 30 -2 87 -11 126 -20 77
-17 133 -12 133 10 0 18 34 18 49 0 10 -12 3 -19 -43 -41 -31 -15 -76 -27
-101 -28 -29 -1 -45 -7 -45 -15 0 -26 -60 -34 -285 -38 -126 -2 -288 -7 -359
-11 -97 -5 -127 -3 -122 5 4 7 15 12 24 12 14 0 13 2 -2 13 -16 12 -17 15 -4
20 9 3 26 20 39 38 25 35 26 34 -28 12 -7 -3 -13 2 -13 11 0 13 -11 16 -52 16
-57 0 -89 -12 -68 -25 6 -4 24 -1 41 5 24 10 33 10 54 -4 l24 -16 -31 -45
c-18 -25 -37 -45 -42 -45 -6 0 -22 -3 -36 -6 -20 -4 -22 -3 -10 5 12 8 5 11
-30 11 -55 1 -115 7 -153 16 -27 6 -28 7 -12 24 21 23 67 34 92 23 10 -5 38
-6 63 -2 l45 6 -55 2 c-51 1 -53 3 -36 16 15 11 16 15 5 16 -10 0 -10 2 -1 6
6 2 12 10 12 17 0 7 14 25 32 42 17 16 28 23 24 17 -4 -7 -3 -13 2 -13 17 0
21 13 11 31 -7 15 -6 19 5 19 8 0 21 8 28 18 26 37 49 42 124 26z m-781 -88
c77 -7 135 -16 135 -23 0 -20 -25 -43 -48 -43 -29 -1 -66 -23 -55 -34 3 -3 15
2 25 11 13 12 22 13 29 6 8 -8 5 -15 -12 -25 -26 -14 -109 -19 -109 -6 0 4 12
8 26 8 14 0 23 4 19 9 -3 5 3 12 14 16 19 6 36 33 27 43 -3 2 -18 -3 -32 -13
-27 -17 -28 -17 -45 4 -10 12 -19 16 -21 10 -4 -13 -98 25 -98 40 0 7 21 7
145 -3z m-155 -16 c0 -5 -5 -10 -11 -10 -5 0 -7 5 -4 10 3 6 8 10 11 10 2 0 4
-4 4 -10z m1870 -4 c0 -3 -4 -8 -10 -11 -5 -3 -10 -1 -10 4 0 6 5 11 10 11 6
0 10 -2 10 -4z m55 -6 c-3 -5 -15 -10 -26 -10 -10 0 -19 5 -19 10 0 6 12 10
26 10 14 0 23 -4 19 -10z m-1490 -48 c-36 -5 -45 6 -20 24 18 13 21 13 33 -3
12 -16 10 -18 -13 -21z m1649 30 c3 -5 -9 -8 -27 -9 -18 0 -50 -3 -72 -7 -38
-8 -39 -7 -20 8 21 16 110 22 119 8z m274 2 c18 -5 20 -9 11 -20 -9 -11 -7
-14 7 -14 13 0 15 -3 7 -8 -7 -4 -49 -4 -93 1 -60 7 -80 14 -80 25 0 12 3 12
15 2 12 -10 15 -10 15 4 0 12 10 16 48 16 26 0 57 -3 70 -6z m-1704 -39 c-6
-16 -24 -21 -24 -7 0 11 11 22 21 22 5 0 6 -7 3 -15z m1257 -1 c-41 -18 -36
-25 23 -29 25 -2 53 -10 62 -19 19 -19 23 -18 -116 -21 -58 -1 -124 -6 -147
-10 -54 -9 -57 8 -5 23 58 18 87 25 92 24 3 0 14 7 25 18 21 19 45 27 80 28
13 0 9 -4 -14 -14z m-1366 -43 c0 -25 -30 -35 -76 -25 -41 9 -42 10 -25 27 22
22 101 21 101 -2z m1534 -37 c10 -9 -35 -3 -49 6 -11 8 -7 9 15 4 17 -4 32 -8
34 -10z m-859 -32 c0 -4 -9 -8 -19 -8 -11 0 -17 4 -15 8 3 4 12 8 20 8 8 0 14
-4 14 -8z m-785 -12 c3 -5 -1 -10 -9 -10 -9 0 -16 5 -16 10 0 6 4 10 9 10 6 0
13 -4 16 -10z m185 -10 c8 -15 8 -20 -2 -20 -7 0 -19 9 -26 20 -10 17 -10 20
3 20 8 0 19 -9 25 -20z m-6 -59 c3 -5 0 -11 -8 -14 -15 -6 -26 1 -26 15 0 11
27 10 34 -1z m-617 -27 c-3 -3 -12 -4 -19 -1 -8 3 -5 6 6 6 11 1 17 -2 13 -5z
m739 -113 c-7 -11 -46 -21 -46 -12 0 13 13 21 32 21 11 0 17 -4 14 -9z m-955
-667 c10 -13 10 -20 0 -36 -10 -16 -10 -23 1 -35 11 -14 11 -15 -1 -12 -22 8
-39 41 -23 46 17 6 15 30 -3 37 -12 4 -15 -4 -15 -39 0 -25 -4 -45 -10 -45 -5
0 -10 23 -10 50 0 46 2 50 24 50 13 0 29 -7 37 -16z m62 6 c-26 -11 -31 -30
-8 -30 8 0 15 -4 15 -10 0 -5 -7 -10 -15 -10 -24 0 -17 -28 8 -33 16 -3 13 -5
-10 -6 l-33 -1 0 50 c0 50 0 50 33 49 29 0 30 -1 10 -9z m69 -2 c-7 -7 -12
-30 -12 -52 0 -52 -17 -35 -22 22 -3 39 -2 42 21 42 19 0 22 -3 13 -12z m84
-75 c-4 -9 -16 -13 -33 -11 -25 3 -28 7 -31 46 -2 23 1 42 7 42 5 0 11 -17 13
-37 3 -44 22 -47 26 -6 2 15 6 35 10 43 8 19 16 -56 8 -77z m83 73 c9 -11 9
-20 2 -35 -6 -11 -8 -27 -5 -35 3 -9 2 -16 -4 -16 -5 0 -12 7 -16 15 -8 21
-26 19 -27 -2 -1 -10 -5 0 -9 22 -4 22 -5 45 -3 52 7 17 48 16 62 -1z m58 -13
c21 -27 22 -27 23 -6 0 12 5 25 10 28 6 4 10 -13 10 -44 0 -28 -4 -51 -9 -51
-5 0 -20 15 -33 33 l-23 32 -6 -35 c-6 -31 -7 -29 -8 18 0 28 2 52 6 52 4 0
17 -12 30 -27z m143 8 c21 39 22 6 2 -40 l-19 -42 -17 44 c-21 55 -20 68 3 38
l19 -24 12 24z m118 7 c7 -7 12 -24 12 -38 0 -33 -17 -50 -50 -50 -33 0 -50
17 -50 52 0 41 59 65 88 36z m62 -73 c10 0 16 12 18 35 5 54 24 64 20 11 -3
-47 -23 -69 -52 -58 -12 5 -16 18 -14 54 l1 48 6 -45 c4 -31 11 -45 21 -45z
m104 79 c18 -7 22 -49 6 -59 -8 -5 -7 -12 2 -23 11 -13 11 -14 -1 -11 -22 8
-39 41 -23 46 17 7 15 33 -3 33 -11 0 -15 -11 -15 -40 0 -22 -4 -40 -10 -40
-5 0 -10 23 -10 50 0 52 11 61 54 44z m127 -4 c13 -7 19 -7 19 0 0 5 5 10 10
10 6 0 10 -20 10 -45 0 -37 3 -45 19 -45 13 0 24 13 34 39 9 22 21 42 27 46
11 7 56 -82 46 -92 -3 -3 -8 2 -12 11 -8 20 -50 21 -58 1 -3 -9 -19 -15 -41
-15 -32 0 -35 2 -35 29 0 29 0 29 -30 15 -16 -9 -30 -22 -30 -30 0 -8 -4 -14
-10 -14 -5 0 -10 23 -10 50 0 44 3 50 21 50 11 0 29 -5 40 -10z m319 -40 c0
-28 -4 -50 -10 -50 -5 0 -10 21 -10 46 0 27 -4 43 -10 39 -5 -3 -10 -24 -10
-46 0 -21 -4 -39 -10 -39 -5 0 -10 18 -10 39 0 22 -4 43 -10 46 -5 3 -10 1
-10 -5 0 -7 -8 -9 -20 -5 -26 8 -25 -2 2 -24 27 -23 18 -51 -17 -51 -16 0 -25
6 -25 16 0 13 3 14 13 5 8 -6 17 -8 20 -4 12 12 7 22 -13 28 -19 6 -27 34 -14
47 3 3 34 6 70 7 l64 1 0 -50z m100 35 c10 -12 6 -13 -23 -8 -30 4 -36 2 -42
-17 -5 -15 -2 -28 9 -38 14 -14 20 -15 37 -4 18 11 20 11 17 0 -12 -37 -88
-10 -88 32 0 42 63 67 90 35z m110 5 c0 -5 -4 -10 -10 -10 -5 0 -10 -19 -11
-42 0 -36 -2 -39 -9 -20 -5 12 -7 28 -4 36 3 8 1 17 -5 21 -19 11 -12 25 14
25 14 0 25 -4 25 -10z m98 -2 c7 -7 12 -24 12 -38 0 -33 -17 -50 -50 -50 -33
0 -50 17 -50 50 0 33 17 50 50 50 14 0 31 -5 38 -12z m118 -5 c18 -58 21 -60
38 -20 9 20 20 37 25 37 5 0 17 -21 28 -47 l20 -48 17 33 c17 32 17 34 -1 48
-16 12 -15 13 15 14 35 0 39 -11 17 -50 -19 -33 -18 -40 4 -40 14 0 24 13 37
45 9 25 21 45 26 45 11 0 51 -91 43 -99 -4 -3 -11 2 -16 12 -12 21 -45 22 -53
2 -4 -11 -20 -15 -55 -15 -34 0 -51 4 -55 15 -7 19 -42 20 -49 2 -3 -8 -23
-14 -51 -15 l-46 -2 0 43 c0 24 3 47 7 50 13 13 44 7 49 -10z m345 1 c10 -12
10 -20 1 -34 -6 -11 -9 -27 -5 -37 6 -17 5 -16 -15 1 -19 17 -22 17 -22 3 0
-10 -4 -17 -10 -17 -5 0 -10 23 -10 50 0 46 2 50 24 50 13 0 29 -7 37 -16z
m71 -23 c5 -18 7 -40 4 -47 -7 -19 -52 -18 -60 1 -6 17 5 20 21 4 8 -8 13 -7
18 1 4 6 3 16 -3 22 -6 6 -8 17 -5 24 4 10 0 12 -11 8 -16 -6 -22 7 -9 20 15
15 37 -1 45 -33z m62 26 c-5 -15 54 -79 67 -71 5 3 9 12 9 21 0 11 -6 14 -21
10 -17 -5 -20 -1 -17 21 2 19 10 28 26 30 12 2 22 -1 22 -7 0 -6 -8 -11 -17
-11 -14 0 -13 -3 5 -16 15 -10 22 -24 20 -37 -3 -20 -9 -22 -68 -22 -59 0 -65
2 -68 22 -2 12 4 33 14 47 17 27 37 36 28 13z"/>
<path d="M12446 7044 c-9 -22 -8 -24 9 -24 8 0 15 6 15 14 0 22 -17 28 -24 10z"/>
<path d="M12600 7055 c0 -28 21 -33 40 -10 15 18 5 35 -21 35 -14 0 -19 -7
-19 -25z"/>
<path d="M13490 7055 c0 -26 18 -33 37 -14 16 16 5 39 -18 39 -14 0 -19 -7
-19 -25z"/>
<path d="M13690 5330 c-6 -11 -8 -25 -5 -30 9 -14 -9 -12 -23 2 -7 7 -12 10
-13 8 -9 -64 -8 -70 11 -70 13 0 18 5 14 15 -4 10 0 15 16 15 11 0 18 5 15 10
-3 6 3 10 14 10 11 0 23 5 26 10 4 6 -7 10 -27 10 -30 1 -32 2 -15 15 11 7 26
11 35 8 10 -4 13 -2 8 5 -11 19 -44 14 -56 -8z"/>
<path d="M13955 5300 c11 -5 27 -9 35 -9 9 0 8 4 -5 9 -11 5 -27 9 -35 9 -9 0
-8 -4 5 -9z"/>
<path d="M14270 5289 c0 -5 5 -7 10 -4 6 3 10 8 10 11 0 2 -4 4 -10 4 -5 0
-10 -5 -10 -11z"/>
<path d="M14695 5220 c-4 -6 3 -10 14 -10 25 0 27 6 6 13 -8 4 -17 2 -20 -3z"/>
<path d="M14086 5202 c-7 -12 49 -21 66 -10 9 5 6 8 -9 8 -12 0 -28 3 -36 6
-8 3 -18 1 -21 -4z"/>
<path d="M15438 5223 c7 -3 16 -2 19 1 4 3 -2 6 -13 5 -11 0 -14 -3 -6 -6z"/>
<path d="M13140 4185 c0 -10 7 -15 18 -13 21 4 19 22 -2 26 -10 2 -16 -3 -16
-13z"/>
<path d="M13441 4186 c-22 -26 10 -63 43 -50 35 13 24 64 -14 64 -10 0 -23 -6
-29 -14z"/>
<path d="M13760 4184 c0 -9 5 -14 12 -12 18 6 21 28 4 28 -9 0 -16 -7 -16 -16z"/>
<path d="M14367 4194 c-13 -13 -7 -52 8 -58 27 -10 46 5 43 33 -3 26 -35 41
-51 25z"/>
<path d="M14510 4190 c0 -5 5 -10 10 -10 6 0 10 5 10 10 0 6 -4 10 -10 10 -5
0 -10 -4 -10 -10z"/>
<path d="M14510 4144 c0 -9 5 -14 12 -12 18 6 21 28 4 28 -9 0 -16 -7 -16 -16z"/>
<path d="M14850 4180 c0 -13 5 -18 15 -14 8 4 15 12 15 20 0 8 -7 14 -15 14
-8 0 -15 -9 -15 -20z"/>
<path d="M14996 4161 c-3 -5 1 -14 8 -20 16 -13 32 2 21 19 -8 12 -22 13 -29
1z"/>
<path d="M15327 7613 c18 -2 50 -2 70 0 21 2 7 4 -32 4 -38 0 -55 -2 -38 -4z"/>
<path d="M15975 7570 c-33 -5 -175 -15 -315 -24 -140 -9 -388 -25 -550 -36
-162 -10 -358 -22 -435 -25 -77 -3 -188 -8 -247 -11 l-108 -6 0 -34 c0 -18 4
-35 8 -38 9 -5 250 7 722 39 36 2 245 13 465 25 220 11 437 23 483 26 l82 6 0
28 c0 40 -10 60 -29 59 -9 -1 -43 -5 -76 -9z"/>
<path d="M14193 7462 c-39 -4 -40 -10 -12 -46 14 -18 30 -26 50 -26 29 0 30 2
27 37 -3 38 -8 41 -65 35z"/>
<path d="M14237 7340 c8 -29 25 -37 21 -9 -1 12 -8 24 -15 26 -7 3 -9 -3 -6
-17z"/>
<path d="M14832 6841 c-20 -5 -15 -10 43 -39 36 -17 75 -32 88 -32 21 0 21 0
-3 13 -83 45 -99 55 -93 61 7 7 -3 6 -35 -3z"/>
<path d="M14621 6804 c0 -11 3 -14 6 -6 3 7 2 16 -1 19 -3 4 -6 -2 -5 -13z"/>
<path d="M15195 6680 c3 -5 13 -10 21 -10 8 0 12 5 9 10 -3 6 -13 10 -21 10
-8 0 -12 -4 -9 -10z"/>
<path d="M15507 6683 c-4 -3 -7 -11 -7 -17 0 -6 5 -5 12 2 6 6 9 14 7 17 -3 3
-9 2 -12 -2z"/>
<path d="M14676 6575 c-3 -9 3 -19 14 -25 16 -9 18 -15 10 -29 -8 -16 -5 -20
27 -26 52 -9 61 12 20 47 -49 43 -64 50 -71 33z"/>
<path d="M15502 6493 c0 -29 4 -50 9 -47 11 6 11 52 -1 79 -6 14 -8 5 -8 -32z"/>
<path d="M14800 6466 c0 -31 -16 -66 -30 -66 -6 0 -10 19 -10 42 l0 42 -51
-49 c-43 -43 -47 -50 -30 -53 12 -2 21 -7 21 -11 0 -20 -42 -89 -57 -95 -10
-3 -34 -12 -53 -19 l-34 -14 26 -17 c21 -14 30 -15 51 -5 30 14 62 5 50 -13
-14 -23 -11 -37 8 -43 11 -4 25 -2 32 3 7 5 43 8 81 8 48 -1 70 2 73 12 3 7
22 21 43 31 38 18 38 18 48 -3 10 -20 11 -20 11 6 1 15 6 30 12 34 8 5 8 9 -1
14 -9 6 -9 13 -1 28 13 25 -3 44 -68 80 l-40 23 -16 -31 c-9 -18 -23 -30 -35
-30 -25 0 -25 11 1 44 18 23 20 31 9 56 -7 16 -18 35 -26 41 -11 9 -14 6 -14
-15z m-40 -142 c0 -8 -4 -12 -10 -9 -5 3 -10 13 -10 21 0 8 5 12 10 9 6 -3 10
-13 10 -21z m134 -79 c-19 -29 -29 -27 -19 4 3 12 13 21 21 21 12 0 12 -4 -2
-25z m-117 -8 c-5 -15 -29 -16 -34 -2 -2 6 6 11 18 12 12 1 19 -3 16 -10z m73
-18 c0 -37 -21 -35 -31 4 -6 22 -4 27 12 27 15 0 19 -7 19 -31z"/>
<path d="M13817 6430 c-9 -17 -14 -41 -12 -53 10 -54 28 -106 35 -102 5 3 13
-28 20 -67 6 -40 15 -85 18 -101 7 -26 8 -27 30 -12 16 12 22 26 22 56 0 21 5
39 10 39 6 0 10 17 8 40 -1 28 -6 40 -17 40 -10 0 -12 3 -5 8 6 4 14 19 17 34
4 15 14 34 23 42 11 11 14 25 9 46 -6 28 -25 43 -25 19 0 -6 -12 -2 -27 9 -16
11 -42 23 -59 26 -29 6 -34 4 -47 -24z m20 -77 c-3 -10 -5 -4 -5 12 0 17 2 24
5 18 2 -7 2 -21 0 -30z m47 -63 c5 -51 5 -53 -8 -30 -14 25 -19 107 -5 93 3
-5 9 -33 13 -63z m46 10 c0 -5 -4 -10 -9 -10 -6 0 -13 5 -16 10 -3 6 1 10 9
10 9 0 16 -4 16 -10z"/>
<path d="M15140 6435 c7 -8 17 -15 22 -15 6 0 5 7 -2 15 -7 8 -17 15 -22 15
-6 0 -5 -7 2 -15z"/>
<path d="M15055 6420 c-3 -5 -1 -18 4 -27 9 -16 10 -14 11 10 0 28 -5 34 -15
17z"/>
<path d="M14370 6341 c0 -6 -7 -11 -16 -11 -8 0 -12 -4 -9 -10 9 -15 45 -12
45 4 0 8 -4 18 -10 21 -5 3 -10 1 -10 -4z"/>
<path d="M14425 6320 c-3 -5 -2 -10 4 -10 5 0 13 5 16 10 3 6 2 10 -4 10 -5 0
-13 -4 -16 -10z"/>
<path d="M14378 6293 c7 -3 16 -2 19 1 4 3 -2 6 -13 5 -11 0 -14 -3 -6 -6z"/>
<path d="M10340 6230 c0 -5 5 -10 11 -10 5 0 7 5 4 10 -3 6 -8 10 -11 10 -2 0
-4 -4 -4 -10z"/>
<path d="M16005 6175 c-38 -12 -39 -13 -10 -14 17 0 44 6 60 14 40 18 5 19
-50 0z"/>
<path d="M14391 5895 c3 -2 33 -11 67 -19 68 -16 86 -6 23 12 -38 12 -99 17
-90 7z"/>
<path d="M14455 5850 c-3 -5 1 -10 10 -10 9 0 13 5 10 10 -3 6 -8 10 -10 10
-2 0 -7 -4 -10 -10z"/>
<path d="M14570 5810 c0 -5 5 -10 10 -10 6 0 10 5 10 10 0 6 -4 10 -10 10 -5
0 -10 -4 -10 -10z"/>
<path d="M14160 5761 c0 -18 18 -21 30 -6 10 13 9 15 -9 15 -11 0 -21 -4 -21
-9z"/>
<path d="M13627 5548 c-7 -4 18 -8 56 -8 37 0 67 4 67 10 0 11 -105 9 -123 -2z"/>
<path d="M8637 5322 c-20 -22 -22 -73 -5 -90 16 -16 59 -15 83 4 16 12 17 17
7 23 -8 5 -12 22 -10 42 3 31 1 34 -28 37 -20 2 -36 -3 -47 -16z m33 -22 c0
-5 -4 -10 -10 -10 -5 0 -10 5 -10 10 0 6 5 10 10 10 6 0 10 -4 10 -10z"/>
<path d="M5048 5313 c-10 -2 -21 -15 -24 -27 -5 -20 -11 -22 -75 -23 -73 0
-103 -14 -94 -43 3 -10 1 -29 -4 -44 -13 -32 -5 -56 18 -55 10 0 11 2 4 6 -25
9 -13 30 17 30 22 0 30 -5 30 -19 0 -10 5 -18 10 -18 6 0 10 28 10 65 0 51 3
65 15 65 12 0 15 -13 15 -55 0 -30 5 -55 10 -55 6 0 10 25 10 55 0 42 3 55 15
55 12 0 15 -13 15 -55 0 -30 5 -55 10 -55 6 0 10 25 10 55 0 52 1 55 25 55 16
0 25 -6 25 -15 0 -8 -7 -15 -16 -15 -8 0 -13 -4 -9 -10 3 -5 13 -6 21 -3 14 5
14 3 3 -14 -18 -30 -5 -53 30 -53 36 0 49 17 28 37 -10 10 -17 11 -21 4 -4 -6
-2 -11 3 -11 6 0 11 -5 11 -11 0 -14 -42 -7 -47 7 -2 6 12 21 32 32 19 12 35
28 35 37 0 11 11 15 40 15 48 0 50 -9 10 -32 -35 -20 -32 -37 9 -61 40 -23 41
-23 41 24 0 28 4 39 13 36 6 -2 12 -16 12 -31 -1 -31 19 -30 23 2 2 14 -6 27
-25 39 l-27 18 34 6 c24 4 9 7 -46 8 -59 1 -85 5 -94 16 -7 8 -18 15 -25 15
-8 0 -15 4 -17 9 -4 11 -39 20 -60 14z m49 -19 c-3 -3 -12 -4 -19 -1 -8 3 -5
6 6 6 11 1 17 -2 13 -5z m-32 -15 c4 -6 19 -7 35 -4 16 3 31 2 35 -4 4 -7 -11
-11 -44 -11 -39 0 -51 4 -51 15 0 17 16 20 25 4z m-154 -44 c0 -5 -9 -11 -21
-13 -20 -3 -27 8 -13 22 10 9 34 3 34 -9z m229 0 c0 -8 -7 -15 -15 -15 -8 0
-15 7 -15 15 0 8 7 15 15 15 8 0 15 -7 15 -15z m98 -59 c-3 -13 -6 -13 -23 0
l-20 15 20 15 c18 13 20 13 23 0 2 -9 2 -22 0 -30z m-318 20 c0 -16 -27 -29
-42 -20 -5 3 -1 12 9 20 23 17 33 17 33 0z"/>
<path d="M5868 5299 c-10 -5 -18 -16 -18 -24 0 -7 -6 -16 -12 -18 -10 -4 -10
-6 0 -6 8 -1 12 -19 12 -57 0 -34 4 -53 10 -49 6 3 10 29 10 56 0 60 23 65 28
6 4 -42 8 -44 34 -20 17 15 18 14 18 -16 0 -19 4 -30 10 -26 12 8 13 72 1 79
-5 3 -14 -1 -21 -9 -18 -22 -32 -18 -28 8 2 18 10 23 45 25 l42 3 3 -53 c2
-44 6 -53 23 -56 18 -2 18 -2 3 8 -21 13 -24 59 -4 85 13 18 14 18 35 -2 19
-18 20 -22 6 -33 -22 -18 -19 -28 15 -45 45 -23 50 -20 50 39 0 34 5 56 13 59
6 3 -52 6 -130 6 -120 1 -143 3 -143 16 0 11 11 15 38 16 30 0 33 2 17 9 -27
11 -37 11 -57 -1z m242 -94 c0 -46 -4 -51 -29 -36 -13 8 -13 12 -1 26 11 13
11 21 2 36 -11 16 -9 19 8 19 17 0 20 -7 20 -45z"/>
<path d="M7970 5271 c0 -5 12 -11 28 -13 15 -2 -81 -5 -213 -6 -132 -1 -247
-5 -257 -8 -21 -6 -33 -57 -18 -83 18 -34 28 -24 22 24 l-5 45 33 0 32 0 -23
-18 c-12 -11 -20 -25 -17 -33 8 -20 58 -45 66 -34 4 6 14 10 22 10 19 0 25 42
9 61 -11 13 -7 15 32 12 25 -2 42 -7 39 -13 -2 -5 -10 -9 -16 -7 -16 3 -37
-25 -29 -38 5 -8 11 -7 22 1 12 10 16 10 24 -2 5 -8 9 -17 9 -21 0 -5 5 -8 10
-8 6 0 10 18 10 40 0 22 5 40 10 40 6 0 10 -18 10 -40 0 -22 5 -40 10 -40 6 0
10 20 10 45 0 42 2 45 27 45 25 0 25 -1 10 -18 -23 -25 -21 -39 8 -58 21 -14
28 -14 42 -3 9 8 19 13 22 11 3 -2 10 3 16 12 6 10 4 21 -9 35 -19 21 -19 21
2 21 19 0 22 -6 22 -46 0 -60 23 -55 31 7 6 43 6 43 7 8 2 -42 22 -63 51 -54
25 8 36 41 21 60 -19 23 -33 18 -26 -9 3 -14 2 -28 -4 -31 -6 -4 -10 8 -10 29
0 33 2 36 30 36 29 0 30 -2 30 -46 0 -56 23 -57 28 -1 2 21 7 35 13 32 5 -4 6
-17 3 -30 -5 -20 0 -25 31 -35 20 -7 38 -10 39 -8 2 1 6 27 8 56 l5 52 -51 2
c-28 1 -61 1 -73 0 -14 0 -23 5 -23 14 0 9 -11 14 -35 14 -19 0 -35 -4 -35 -9z
m180 -51 c0 -5 -2 -10 -4 -10 -3 0 -8 5 -11 10 -3 6 -1 10 4 10 6 0 11 -4 11
-10z m-515 -29 c3 -5 1 -12 -5 -16 -5 -3 -10 1 -10 9 0 18 6 21 15 7z m252
-13 c-3 -8 -6 -5 -6 6 -1 11 2 17 5 13 3 -3 4 -12 1 -19z m263 7 c0 -8 -4 -15
-10 -15 -5 0 -7 7 -4 15 4 8 8 15 10 15 2 0 4 -7 4 -15z"/>
<path d="M4313 5253 c45 -5 46 -13 7 -35 -17 -10 -28 -23 -25 -31 5 -12 56
-47 69 -47 3 0 6 25 6 55 0 41 4 55 14 55 10 0 17 -17 21 -55 9 -66 20 -63 20
3 l0 47 43 3 c25 2 42 -1 42 -7 0 -6 -6 -11 -13 -11 -8 0 -22 -9 -32 -21 -19
-20 -18 -20 10 -44 17 -13 33 -24 37 -25 4 0 8 24 10 53 l3 52 140 5 c105 5
74 6 -125 6 -146 0 -248 -1 -227 -3z m35 -77 c-3 -13 -6 -13 -23 0 l-20 15 20
15 c18 13 20 13 23 0 2 -9 2 -22 0 -30z m160 -2 c-3 -14 -5 -14 -23 0 l-20 16
20 16 c18 14 20 14 23 0 2 -9 2 -23 0 -32z"/>
<path d="M5386 5238 c-26 -37 -18 -98 12 -98 12 0 13 3 4 12 -16 16 -15 73 1
87 20 16 56 -24 39 -41 -17 -17 -15 -35 6 -41 9 -2 25 -8 35 -12 14 -6 17 -2
17 28 0 39 15 56 33 38 9 -9 8 -16 -1 -31 -10 -16 -10 -20 2 -20 8 0 18 10 22
22 5 16 1 27 -16 40 -36 29 -50 23 -50 -22 0 -41 -5 -46 -28 -31 -12 7 -12 12
-1 29 12 19 11 23 -6 36 -18 14 -11 15 78 16 90 0 123 -10 78 -25 -11 -3 -25
-13 -32 -21 -11 -13 -8 -19 17 -39 45 -37 54 -32 54 30 l0 54 78 4 c42 1 -14
4 -125 5 -198 2 -202 2 -217 -20z m242 -62 c-3 -13 -6 -13 -23 0 l-20 15 20
15 c18 13 20 13 23 0 2 -9 2 -22 0 -30z"/>
<path d="M8806 5252 c-10 -16 4 -192 15 -192 5 0 9 35 8 78 -1 87 -10 134 -23
114z"/>
<path d="M4564 5225 c-3 -8 -4 -20 -1 -27 4 -8 6 -6 6 5 1 24 31 22 31 -3 0
-13 -7 -20 -20 -20 -11 0 -20 -4 -20 -8 0 -13 23 -32 40 -32 13 0 13 1 0 10
-10 7 -12 12 -4 18 6 4 16 16 22 27 10 19 11 19 21 -5 9 -24 10 -24 10 8 1 28
-2 32 -18 27 -11 -3 -22 -1 -26 5 -9 15 -35 12 -41 -5z"/>
<path d="M4730 5225 c-7 -9 -10 -19 -6 -22 4 -4 11 -1 16 7 7 12 12 12 22 2
17 -17 -1 -46 -31 -50 -17 -3 -22 3 -27 27 -4 17 -10 31 -15 31 -12 0 -11 -14
3 -45 20 -44 88 -29 88 20 0 20 -17 45 -31 45 -4 0 -12 -7 -19 -15z"/>
<path d="M5732 5228 c-7 -7 -12 -19 -12 -27 0 -11 4 -10 15 5 12 16 16 17 24
5 14 -22 -6 -53 -32 -49 -15 2 -26 14 -34 38 -9 27 -12 30 -12 12 -1 -38 17
-62 47 -62 33 0 52 16 52 45 0 20 -17 45 -30 45 -3 0 -11 -5 -18 -12z"/>
<path d="M8642 5120 c0 -19 2 -27 5 -17 2 9 2 25 0 35 -3 9 -5 1 -5 -18z"/>
<path d="M6060 5129 c0 -5 5 -7 10 -4 6 3 10 8 10 11 0 2 -4 4 -10 4 -5 0 -10
-5 -10 -11z"/>
<path d="M8110 5130 c0 -5 5 -10 10 -10 6 0 10 5 10 10 0 6 -4 10 -10 10 -5 0
-10 -4 -10 -10z"/>
<path d="M8410 5135 c0 -15 34 -55 47 -55 11 0 11 4 3 20 -10 19 -50 47 -50
35z"/>
<path d="M8368 5109 c-23 -13 -23 -31 3 -80 21 -41 23 -90 4 -96 -6 -2 -19 19
-29 47 -24 66 -29 60 -11 -10 8 -30 15 -57 15 -59 0 -2 -13 -1 -29 2 -16 3
-32 3 -36 -1 -4 -4 -12 -7 -18 -7 -38 0 14 -122 59 -139 9 -3 14 -13 11 -20
-9 -22 67 -86 101 -86 42 0 49 -10 56 -78 4 -35 9 -69 12 -76 4 -10 -2 -12
-23 -8 -17 3 -57 35 -106 85 -43 43 -81 76 -84 73 -9 -8 19 -45 91 -120 36
-38 66 -70 66 -72 0 -3 -11 -2 -25 2 -20 5 -25 2 -26 -12 0 -11 -3 -14 -6 -6
-2 6 -9 12 -14 12 -4 0 -5 -7 -2 -17 4 -11 3 -14 -5 -9 -7 4 -12 1 -12 -8 0
-11 9 -16 28 -16 15 0 34 -5 42 -11 11 -7 6 -8 -19 -3 -29 5 -33 4 -28 -10 4
-9 2 -16 -4 -16 -6 0 -7 -5 -3 -12 5 -8 11 -6 19 5 15 21 24 21 62 2 23 -12
35 -12 60 -3 27 10 36 8 76 -15 25 -15 53 -27 61 -27 9 0 16 -4 16 -10 0 -13
49 -44 58 -36 3 4 1 10 -5 14 -6 4 -14 19 -18 33 -5 20 -1 32 16 48 17 16 25
18 31 9 13 -21 9 -38 -7 -32 -19 8 -19 -9 0 -47 15 -28 15 -30 -10 -39 -22 -9
-24 -12 -13 -30 7 -11 15 -20 18 -20 4 0 15 -7 26 -15 18 -14 17 -15 -11 -9
-16 3 -38 8 -48 11 -10 3 -16 0 -15 -7 2 -7 -3 -15 -9 -17 -8 -3 -13 3 -13 14
-1 22 -24 55 -33 46 -11 -10 -8 6 4 29 16 30 -2 42 -61 41 -28 -1 -50 2 -50 8
0 11 -11 11 -29 0 -11 -7 -10 -13 4 -35 19 -28 15 -32 -16 -15 -11 5 -17 14
-14 20 4 5 -1 9 -9 9 -17 0 -39 34 -29 44 3 3 -2 6 -12 6 -14 0 -15 -3 -5 -15
7 -8 10 -21 7 -29 -3 -7 1 -23 9 -35 9 -12 16 -37 17 -56 1 -19 3 -35 4 -35 1
0 13 4 27 10 17 6 26 6 26 0 0 -6 -7 -10 -15 -10 -8 0 -15 -4 -15 -9 0 -5 9
-7 20 -4 15 4 19 2 14 -10 -6 -16 28 -42 40 -30 13 13 6 53 -9 53 -8 0 -15 9
-15 20 0 26 4 25 35 -7 14 -16 23 -35 20 -45 -8 -24 29 -32 81 -18 57 16 67 6
28 -29 -25 -22 -31 -36 -30 -65 1 -29 -1 -33 -10 -21 -13 17 -24 10 -24 -15 0
-14 12 -17 76 -19 75 -2 76 -2 68 21 -12 40 -24 92 -24 114 0 17 8 23 38 28
64 10 65 13 38 107 -23 82 -39 155 -51 233 -8 48 -16 41 -17 -13 0 -31 -5 -44
-21 -53 -16 -8 -23 -7 -31 3 -6 8 -26 23 -45 33 l-34 19 6 -22 c4 -15 -2 -26
-23 -41 -36 -25 -50 -25 -43 0 4 14 0 20 -11 20 -13 0 -17 7 -14 28 2 17 8 26
17 24 7 -2 21 4 30 11 9 8 27 18 41 22 97 29 130 47 130 70 0 31 14 39 35 19
13 -14 21 -15 41 -5 33 15 34 14 34 -8 0 -38 18 -30 28 11 8 32 8 44 -1 50 -7
4 -13 3 -15 -1 -4 -11 -40 -2 -66 15 -17 12 -17 14 15 33 19 12 40 21 48 21
29 0 -9 27 -40 28 -24 1 -34 -6 -47 -28 -10 -18 -36 -38 -64 -50 -53 -23 -72
-25 -62 -8 5 7 3 8 -6 3 -7 -4 -16 -2 -21 6 -7 11 -9 10 -9 -4 0 -23 -16 -14
-23 12 -3 14 -1 18 9 14 9 -3 14 1 14 12 0 9 4 14 8 11 4 -2 14 -1 22 4 12 7
12 12 2 22 -19 19 -14 34 13 46 35 16 55 15 77 -5 17 -15 18 -15 18 1 0 13 5
16 20 11 14 -4 20 -2 18 7 -2 7 5 12 15 12 20 -2 20 -1 6 49 -6 23 -15 37 -22
34 -19 -7 -312 -131 -315 -133 -8 -5 31 -79 67 -127 39 -51 50 -77 34 -77 -5
0 -19 17 -33 37 -14 21 -32 44 -40 53 -26 27 -59 117 -47 129 8 8 5 11 -9 11
-22 0 -64 38 -64 58 0 14 4 23 43 100 34 65 35 95 3 110 -13 6 -30 24 -37 41
-15 34 -16 35 -41 20z m442 -290 c0 -5 -7 -9 -15 -9 -8 0 -15 7 -15 15 0 9 6
12 15 9 8 -4 15 -10 15 -15z m-393 -45 c-3 -3 -12 -4 -19 -1 -8 3 -5 6 6 6 11
1 17 -2 13 -5z m193 -3 c0 -6 -5 -13 -10 -16 -15 -9 -43 3 -35 15 8 13 45 13
45 1z m130 -201 c0 -5 -4 -10 -10 -10 -5 0 -10 5 -10 10 0 6 5 10 10 10 6 0
10 -4 10 -10z m-35 -10 c3 -5 1 -10 -4 -10 -6 0 -11 5 -11 10 0 6 2 10 4 10 3
0 8 -4 11 -10z m-65 -30 c0 -5 -4 -10 -10 -10 -5 0 -10 5 -10 10 0 6 5 10 10
10 6 0 10 -4 10 -10z m-200 -109 c0 -5 -9 -7 -20 -4 -11 3 -20 7 -20 9 0 2 9
4 20 4 11 0 20 -4 20 -9z m340 -271 c0 -5 -4 -10 -9 -10 -6 0 -13 5 -16 10 -3
6 1 10 9 10 9 0 16 -4 16 -10z"/>
<path d="M7506 5076 c-10 -15 -12 -27 -6 -31 6 -3 10 -24 10 -46 0 -21 5 -39
10 -39 6 0 10 18 10 40 0 36 2 40 26 40 14 0 23 -4 19 -10 -4 -6 -10 -8 -15
-5 -17 11 -21 -17 -6 -40 26 -40 86 -28 86 17 0 11 -7 18 -20 18 -11 0 -20 5
-20 10 0 16 46 12 60 -5 10 -12 10 -18 1 -29 -15 -17 -1 -28 19 -15 21 13 30
11 30 -6 0 -8 5 -15 10 -15 6 0 10 18 10 40 0 39 1 40 33 39 30 0 31 -1 10
-11 -51 -25 -6 -76 52 -60 35 10 45 40 19 59 -17 12 -17 13 3 13 18 0 22 -7
25 -37 4 -52 28 -56 28 -4 0 34 3 41 20 41 12 0 20 -7 20 -16 0 -9 9 -18 20
-21 26 -7 26 -23 0 -23 -13 0 -22 9 -26 25 -3 14 -10 25 -15 25 -13 0 -11 -44
3 -58 19 -19 66 -15 78 7 15 29 12 41 -10 41 -11 0 -20 5 -20 10 0 6 23 9 53
9 28 -1 40 -4 25 -6 -20 -3 -28 -10 -28 -24 0 -10 5 -19 10 -19 6 0 10 5 10
10 0 20 21 9 30 -15 13 -33 57 -35 69 -2 10 26 6 36 -23 47 -19 8 -19 9 7 9
25 1 27 4 22 24 -4 12 -11 26 -15 31 -13 13 -60 -2 -60 -19 0 -10 -11 -15 -35
-15 -23 0 -35 5 -35 14 0 8 -7 17 -16 20 -23 9 -64 -4 -64 -20 0 -17 -12 -18
-27 -3 -8 8 -13 8 -17 0 -9 -14 -346 -15 -346 -1 0 6 14 10 31 10 17 0 28 4
24 10 -12 20 -62 11 -79 -14z m204 -46 c0 -5 -4 -10 -10 -10 -5 0 -10 5 -10
10 0 6 5 10 10 10 6 0 10 -4 10 -10z m-99 -43 c-11 -11 -41 -3 -41 11 0 5 12
7 26 4 17 -3 22 -8 15 -15z m179 13 c0 -5 -2 -10 -4 -10 -3 0 -8 5 -11 10 -3
6 -1 10 4 10 6 0 11 -4 11 -10z m330 1 c0 -6 -4 -13 -10 -16 -5 -3 -10 1 -10
9 0 9 5 16 10 16 6 0 10 -4 10 -9z"/>
<path d="M8680 5076 c0 -7 11 -16 25 -18 27 -6 32 1 13 20 -16 16 -38 15 -38
-2z"/>
<path d="M9010 5030 c0 -5 5 -10 10 -10 6 0 10 5 10 10 0 6 -4 10 -10 10 -5 0
-10 -4 -10 -10z"/>
<path d="M9235 5020 c-3 -5 -17 -10 -30 -10 -38 0 -55 -11 -55 -34 0 -45 76
-94 103 -67 8 8 6 15 -11 27 -25 17 -29 34 -9 34 8 0 14 12 14 30 0 32 -2 36
-12 20z"/>
<path d="M10024 5017 c-2 -7 2 -28 9 -47 14 -31 15 -32 21 -12 5 16 15 22 37
22 24 0 29 4 29 25 0 23 -4 25 -45 25 -28 0 -48 -5 -51 -13z"/>
<path d="M8288 4952 c9 -10 19 -17 21 -16 6 5 -20 34 -30 34 -5 0 -1 -8 9 -18z"/>
<path d="M8845 4926 c-7 -41 -1 -85 9 -75 2 2 7 22 10 43 12 74 28 62 30 -21
1 -42 -3 -57 -11 -55 -16 3 -16 0 -1 -33 17 -38 33 -25 36 31 3 73 -19 148
-45 152 -19 3 -23 -3 -28 -42z"/>
<path d="M10440 4906 c0 -9 5 -16 10 -16 6 0 10 4 10 9 0 6 -4 13 -10 16 -5 3
-10 -1 -10 -9z"/>
<path d="M10480 4865 c0 -9 6 -12 15 -9 8 4 12 10 9 15 -8 14 -24 10 -24 -6z"/>
<path d="M9056 4801 c17 -13 19 -22 12 -35 -5 -10 -8 -19 -6 -22 3 -2 11 7 18
21 7 14 18 25 24 25 6 1 -4 7 -23 15 -44 20 -51 18 -25 -4z"/>
<path d="M8220 4789 c0 -10 5 -21 12 -25 6 -4 8 -3 4 4 -3 6 -2 13 4 17 15 9
12 22 -5 22 -8 0 -15 -8 -15 -18z"/>
<path d="M10696 4795 c4 -8 10 -15 15 -15 5 0 9 7 9 15 0 8 -7 15 -15 15 -9 0
-12 -6 -9 -15z"/>
<path d="M9213 4783 c-13 -2 -23 -9 -23 -14 0 -5 -9 -9 -20 -9 -22 0 -18 -22
8 -53 12 -13 13 -22 4 -42 -16 -35 1 -39 22 -4 18 30 30 36 41 19 3 -5 21 -10
39 -10 25 0 35 6 44 25 16 35 15 37 -8 30 -13 -4 -22 -1 -26 9 -3 9 -12 16
-20 16 -13 0 -18 12 -15 33 1 7 -8 7 -46 0z"/>
<path d="M10110 4770 c0 -5 5 -10 10 -10 6 0 10 5 10 10 0 6 -4 10 -10 10 -5
0 -10 -4 -10 -10z"/>
<path d="M8715 4739 c-11 -17 1 -21 15 -4 8 9 8 15 2 15 -6 0 -14 -5 -17 -11z"/>
<path d="M10115 4731 c-3 -5 -1 -12 5 -16 5 -3 10 1 10 9 0 18 -6 21 -15 7z"/>
<path d="M8885 4690 c-3 -5 -1 -10 4 -10 6 0 11 5 11 10 0 6 -2 10 -4 10 -3 0
-8 -4 -11 -10z"/>
<path d="M10810 4653 c-1 -13 -3 -29 -4 -35 -1 -7 2 -18 7 -25 4 -6 6 -26 4
-42 -5 -30 -4 -31 34 -31 34 0 38 2 30 18 -5 9 -14 36 -20 60 -7 24 -18 42
-26 42 -7 0 -16 8 -18 18 -4 13 -5 12 -7 -5z"/>
<path d="M10054 4646 c-3 -8 -3 -19 0 -25 4 -5 0 -13 -7 -18 -19 -12 -58 -79
-50 -86 13 -14 91 -7 104 9 10 13 10 17 0 24 -11 6 -11 8 -1 12 10 3 10 9 1
27 -7 12 -10 29 -7 37 3 7 -3 18 -15 24 -15 8 -21 7 -25 -4z"/>
<path d="M9285 4642 c-6 -4 -24 -29 -39 -57 -36 -62 -36 -62 -44 -48 -8 12
-16 -13 -39 -114 -12 -52 -1 -56 22 -8 12 27 21 34 34 30 10 -3 24 1 31 10 10
12 10 15 -1 16 -8 0 -7 3 4 8 10 4 17 9 15 12 -2 3 2 12 8 20 11 14 27 59 38
112 6 27 -6 36 -29 19z"/>
<path d="M10222 4614 c-32 -36 -40 -54 -23 -54 10 0 64 80 59 86 -3 2 -19 -12
-36 -32z"/>
<path d="M10278 4605 c-66 -68 -78 -84 -71 -88 4 -2 40 -4 78 -3 67 1 70 2 73
26 3 20 1 23 -9 13 -18 -18 -34 -16 -19 2 10 12 10 15 -4 15 -9 0 -16 7 -16
15 0 8 5 15 10 15 12 0 13 27 1 34 -5 3 -24 -10 -43 -29z m32 -61 c0 -2 -7 -4
-15 -4 -8 0 -15 4 -15 10 0 5 7 7 15 4 8 -4 15 -8 15 -10z"/>
<path d="M10660 4620 c-2 -14 -3 -34 -4 -45 -1 -15 -7 -19 -23 -18 -16 2 -23
-3 -23 -15 0 -10 6 -19 13 -19 6 0 20 -4 29 -8 19 -8 43 28 32 47 -5 7 -11 28
-15 48 -6 29 -7 31 -9 10z"/>
<path d="M9990 4600 c-6 -11 -8 -20 -6 -20 3 0 10 9 16 20 6 11 8 20 6 20 -3
0 -10 -9 -16 -20z"/>
<path d="M10408 4593 c-30 -15 -38 -43 -13 -43 9 0 12 6 9 15 -4 9 0 15 9 15
8 0 17 7 21 15 3 8 4 15 3 14 -1 -1 -14 -8 -29 -16z"/>
<path d="M8982 4578 c-18 -18 -15 -55 5 -62 10 -4 14 -4 10 0 -4 4 -1 14 6 22
9 13 9 14 0 8 -8 -4 -13 -2 -13 7 0 18 71 18 83 -1 5 -7 13 -9 19 -6 6 4 8 2
4 -4 -3 -6 -18 -9 -31 -6 -14 2 -25 0 -25 -6 0 -5 12 -10 27 -10 14 0 24 -3
21 -6 -8 -7 -36 -12 -77 -13 -33 -1 -34 -1 -16 -21 11 -12 31 -20 51 -20 56 0
107 83 72 118 -15 15 -50 16 -65 1 -8 -8 -13 -8 -17 0 -9 15 -39 14 -54 -1z"/>
<path d="M10470 4570 c0 -5 9 -14 19 -20 25 -13 31 -13 31 0 0 6 -7 10 -15 10
-8 0 -15 5 -15 10 0 6 -4 10 -10 10 -5 0 -10 -4 -10 -10z"/>
<path d="M10751 4554 c0 -11 3 -14 6 -6 3 7 2 16 -1 19 -3 4 -6 -2 -5 -13z"/>
<path d="M8240 4540 c0 -5 5 -10 11 -10 5 0 7 5 4 10 -3 6 -8 10 -11 10 -2 0
-4 -4 -4 -10z"/>
<path d="M10156 4534 c-12 -31 3 -34 22 -4 10 16 10 20 -2 20 -8 0 -17 -7 -20
-16z"/>
<path d="M10778 4533 c7 -3 16 -2 19 1 4 3 -2 6 -13 5 -11 0 -14 -3 -6 -6z"/>
<path d="M9931 4504 c-17 -21 -19 -29 -9 -36 21 -13 26 -10 33 23 9 41 2 45
-24 13z"/>
<path d="M10930 4500 c0 -11 7 -20 15 -20 17 0 18 2 9 24 -9 23 -24 20 -24 -4z"/>
<path d="M8924 4438 c3 -15 96 -20 96 -5 0 6 -18 7 -44 4 -26 -4 -47 -2 -50 4
-2 5 -3 4 -2 -3z"/>
<path d="M9990 4433 c0 -17 17 -25 25 -12 5 7 41 10 105 7 54 -1 102 0 105 4
4 4 -47 8 -114 10 -89 2 -121 0 -121 -9z"/>
<path d="M9036 4432 c-3 -5 4 -12 17 -16 34 -9 75 -7 82 4 4 6 -6 10 -22 10
-15 0 -38 3 -49 6 -12 3 -24 1 -28 -4z"/>
<path d="M10650 4436 c0 -8 51 -13 56 -5 3 5 -9 9 -25 9 -17 0 -31 -2 -31 -4z"/>
<path d="M10862 4365 c0 -16 2 -22 5 -12 2 9 2 23 0 30 -3 6 -5 -1 -5 -18z"/>
<path d="M9109 4355 c-22 -23 -27 -24 -56 -13 -35 13 -91 0 -124 -29 -19 -16
-14 -51 10 -71 9 -8 10 -10 3 -7 -10 5 -13 1 -10 -16 4 -30 26 -34 75 -14 41
18 41 17 -22 41 -19 7 -19 8 3 11 12 3 26 13 32 23 6 11 17 16 29 13 10 -3 22
0 25 6 4 6 16 11 27 11 12 0 19 5 16 13 -2 6 2 20 11 30 24 27 9 29 -19 2z
m-91 -55 c-8 -12 -23 -20 -38 -19 -23 0 -23 1 -5 9 11 5 14 9 7 9 -24 2 -1 21
24 21 22 0 23 -2 12 -20z"/>
<path d="M10852 4295 c0 -16 2 -22 5 -12 2 9 2 23 0 30 -3 6 -5 -1 -5 -18z"/>
<path d="M8357 4238 c-9 -26 12 -58 38 -58 29 0 30 2 10 40 -16 31 -39 39 -48
18z"/>
<path d="M10842 4230 c0 -14 2 -19 5 -12 2 6 2 18 0 25 -3 6 -5 1 -5 -13z"/>
<path d="M7306 4174 c-9 -8 -16 -19 -16 -24 0 -11 29 -40 40 -40 11 0 40 29
40 40 0 11 -29 40 -40 40 -5 0 -16 -7 -24 -16z"/>
<path d="M8545 4100 c-19 -7 -19 -7 3 -19 30 -16 44 -11 29 10 -8 10 -19 14
-32 9z"/>
<path d="M13700 4015 c0 -35 5 -40 34 -29 34 13 14 64 -25 64 -5 0 -9 -16 -9
-35z"/>
<path d="M13520 4020 c0 -5 5 -10 10 -10 6 0 10 5 10 10 0 6 -4 10 -10 10 -5
0 -10 -4 -10 -10z"/>
<path d="M13600 4000 c0 -26 4 -30 26 -30 l25 0 -21 30 c-12 17 -23 30 -26 30
-2 0 -4 -13 -4 -30z"/>
<path d="M13920 4020 c0 -5 5 -10 10 -10 6 0 10 5 10 10 0 6 -4 10 -10 10 -5
0 -10 -4 -10 -10z"/>
<path d="M13507 3993 c-15 -14 -6 -23 23 -23 22 0 28 4 24 15 -6 15 -35 20
-47 8z"/>
<path d="M13907 3994 c-15 -15 -6 -24 24 -24 20 0 29 4 27 13 -5 14 -40 21
-51 11z"/>
<path d="M18380 3590 c0 -6 78 -10 215 -10 202 0 216 -1 235 -20 19 -19 20
-33 20 -285 0 -252 -1 -266 -20 -285 -19 -19 -33 -20 -285 -20 -252 0 -266 1
-285 20 -19 19 -20 33 -20 235 0 137 -4 215 -10 215 -6 0 -10 -79 -10 -216 l0
-216 29 -29 29 -29 267 0 267 0 29 29 29 29 0 267 0 267 -29 29 -29 29 -216 0
c-137 0 -216 -4 -216 -10z"/>
<path d="M13750 2919 c7 -11 14 -19 16 -16 7 7 -7 37 -17 37 -6 0 -5 -9 1 -21z"/>
<path d="M14197 2933 c-4 -3 -7 -11 -7 -17 0 -6 5 -5 12 2 6 6 9 14 7 17 -3 3
-9 2 -12 -2z"/>
<path d="M13733 2871 c4 -29 17 -39 17 -13 0 11 -5 24 -10 27 -6 4 -9 -2 -7
-14z"/>
<path d="M14207 2877 c-11 -29 -9 -43 4 -30 6 6 9 19 7 29 -3 18 -4 18 -11 1z"/>
<path d="M15235 2810 c-4 -6 8 -10 27 -10 53 0 69 -18 75 -85 5 -52 3 -62 -16
-79 -27 -24 -27 -46 -1 -46 11 0 20 7 20 15 0 8 14 17 35 21 41 7 43 16 13 38
-15 10 -17 14 -5 10 21 -8 23 12 1 20 -12 4 -15 15 -12 37 4 25 -1 35 -33 59
-37 30 -91 40 -104 20z"/>
<path d="M13733 2798 c3 -9 1 -19 -6 -21 -8 -3 -5 -7 6 -12 26 -11 31 1 12 27
-10 13 -15 16 -12 6z"/>
<path d="M14201 2781 c-10 -18 -9 -21 9 -21 22 0 25 7 11 29 -7 11 -11 9 -20
-8z"/>
<path d="M15184 2753 c-3 -10 -10 -26 -15 -35 -24 -46 -1 -147 44 -197 51 -55
151 -76 223 -46 32 13 34 16 22 37 -10 19 -13 20 -16 6 -3 -13 -13 -17 -48
-16 -39 0 -44 3 -44 24 0 13 -6 24 -12 24 -7 0 -29 14 -48 30 -31 25 -34 31
-23 49 10 16 10 20 -5 24 -14 4 -13 6 6 12 12 4 22 12 22 17 0 6 -10 7 -22 4
-50 -15 -53 -13 -56 37 -3 47 -18 63 -28 30z"/>
<path d="M14081 2744 c0 -11 3 -14 6 -6 3 7 2 16 -1 19 -3 4 -6 -2 -5 -13z"/>
<path d="M13790 2733 c0 -10 5 -25 10 -33 9 -13 11 -13 20 0 13 21 13 23 -10
38 -17 10 -20 10 -20 -5z"/>
<path d="M14138 2736 c-15 -11 -16 -15 -3 -32 12 -17 14 -18 20 -2 4 9 5 24 3
32 -2 12 -6 12 -20 2z"/>
<path d="M15222 2741 c2 -7 7 -12 11 -12 12 1 9 15 -3 20 -7 2 -11 -2 -8 -8z"/>
<path d="M15295 2741 c-6 -11 9 -23 19 -14 9 9 7 23 -3 23 -6 0 -12 -4 -16 -9z"/>
<path d="M13670 2726 c0 -2 7 -9 15 -16 12 -10 15 -10 15 4 0 9 -7 16 -15 16
-8 0 -15 -2 -15 -4z"/>
<path d="M13750 2722 c0 -6 -3 -17 -6 -26 -5 -13 1 -16 26 -16 31 0 32 1 18
22 -16 24 -38 35 -38 20z"/>
<path d="M14177 2712 c-24 -26 -21 -32 14 -32 26 0 30 2 19 15 -6 8 -9 19 -5
25 11 17 -11 11 -28 -8z"/>
<path d="M14250 2720 c0 -5 6 -10 14 -10 8 0 18 5 21 10 3 6 -3 10 -14 10 -12
0 -21 -4 -21 -10z"/>
<path d="M13855 2684 c-22 -8 -48 -14 -57 -14 -10 0 -18 -7 -18 -15 0 -8 -5
-15 -11 -15 -6 0 -9 -12 -7 -27 2 -17 -4 -35 -15 -46 -17 -17 -17 -19 2 -44
12 -14 18 -30 14 -37 -4 -6 1 -5 10 3 10 7 16 21 15 30 -2 8 2 16 7 16 6 1 24
9 42 18 18 9 38 17 46 17 8 0 20 7 27 15 10 12 30 14 97 10 86 -4 107 -10 98
-25 -3 -5 4 -11 15 -15 11 -3 33 -22 49 -42 l30 -37 10 27 c6 15 15 27 21 27
7 0 7 6 0 20 -6 11 -16 17 -22 14 -6 -4 -8 -3 -4 4 3 5 1 12 -5 14 -20 7 2 36
24 32 16 -3 15 -1 -6 9 -16 8 -32 19 -37 26 -4 7 -24 13 -45 14 -21 1 -33 3
-27 5 6 2 9 9 6 15 -3 8 -36 13 -97 14 l-92 1 73 -8 c40 -4 75 -10 77 -12 2
-1 -42 -3 -96 -3 -55 0 -90 2 -77 5 17 5 19 7 8 12 -9 3 -34 0 -55 -8z m103
-71 c-10 -2 -28 -2 -40 0 -13 2 -5 4 17 4 22 1 32 -1 23 -4z m90 0 c-10 -2
-28 -2 -40 0 -13 2 -5 4 17 4 22 1 32 -1 23 -4z"/>
<path d="M13720 2630 c0 -5 4 -10 9 -10 6 0 13 5 16 10 3 6 -1 10 -9 10 -9 0
-16 -4 -16 -10z"/>
<path d="M15450 2606 c0 -11 -11 -14 -40 -12 -22 2 -40 -1 -40 -5 0 -5 22 -9
49 -9 44 0 49 2 44 20 -6 23 -13 26 -13 6z"/>
<path d="M15487 2571 c3 -10 0 -22 -6 -25 -13 -9 -15 -46 -2 -46 12 0 51 49
51 63 0 6 -7 2 -15 -9 -14 -19 -14 -19 -15 3 0 12 -4 24 -9 27 -5 4 -7 -2 -4
-13z"/>
<path d="M3420 1135 l0 -145 25 0 25 0 0 145 0 145 -25 0 -25 0 0 -145z"/>
<path d="M3520 1135 l0 -145 30 0 30 0 0 145 0 145 -30 0 -30 0 0 -145z"/>
<path d="M4480 1220 c0 -55 -10 -75 -25 -50 -12 20 -57 10 -86 -19 -75 -75 4
-205 89 -145 20 14 22 14 22 0 0 -10 9 -16 25 -16 l25 0 0 145 0 145 -25 0
c-24 0 -25 -3 -25 -60z m-19 -90 c23 -13 26 -62 3 -84 -18 -19 -20 -19 -45 -6
-25 14 -26 75 -1 89 21 13 20 13 43 1z"/>
<path d="M3176 1134 c-25 -69 -46 -130 -46 -135 0 -5 13 -9 29 -9 23 0 30 6
37 33 9 29 13 32 56 35 45 3 46 2 58 -32 10 -31 16 -36 41 -36 35 0 37 -14
-23 158 -40 112 -40 112 -73 112 l-33 0 -46 -126z m81 -32 c-16 -2 -31 -2 -33
1 -2 2 4 26 13 53 l16 49 17 -50 17 -50 -30 -3z"/>
<path d="M3740 1126 l0 -136 30 0 c29 0 30 1 30 50 l0 50 40 0 c77 0 118 83
71 141 -16 20 -30 24 -95 27 l-76 4 0 -136z m104 84 c46 -17 29 -80 -21 -80
-21 0 -23 5 -23 45 0 48 4 51 44 35z"/>
<path d="M5033 1230 c-13 -6 -23 -18 -23 -30 0 -11 -7 -20 -15 -20 -8 0 -15
-9 -15 -20 0 -11 7 -20 15 -20 11 0 15 -13 15 -53 0 -69 20 -99 63 -95 24 2
33 9 35 24 2 16 -2 22 -15 20 -15 -1 -19 8 -21 52 -3 47 -1 52 17 52 14 0 21
6 21 20 0 13 -7 20 -20 20 -16 0 -20 7 -20 30 0 32 -3 34 -37 20z"/>
<path d="M5600 1165 l-24 -26 27 -26 c30 -30 50 -24 22 7 -17 19 -17 21 -2 38
35 38 12 45 -23 7z"/>
<path d="M5980 1183 c0 -3 7 -15 17 -25 15 -17 15 -19 -2 -38 -28 -31 -8 -37
22 -7 l27 26 -24 26 c-23 24 -40 32 -40 18z"/>
<path d="M15070 1182 c0 -24 34 -102 43 -99 13 4 49 107 38 107 -5 0 -14 -20
-21 -45 -14 -51 -26 -50 -36 0 -6 32 -24 60 -24 37z"/>
<path d="M15472 1133 l1 -58 7 45 6 45 21 -45 21 -45 20 45 21 45 0 -42 c1
-24 6 -43 11 -43 6 0 10 25 10 55 0 68 -19 74 -44 13 l-18 -43 -18 43 c-27 59
-40 53 -38 -15z"/>
<path d="M3970 1085 l0 -95 30 0 c30 0 30 0 30 58 0 60 11 82 42 82 13 0 18 8
18 25 0 29 -21 33 -44 9 -15 -14 -16 -14 -16 0 0 11 -9 16 -30 16 l-30 0 0
-95z"/>
<path d="M4155 1168 c-32 -18 -44 -40 -45 -80 0 -50 8 -66 41 -83 62 -33 131
-8 150 54 9 30 9 44 -2 67 -23 48 -96 69 -144 42z m76 -38 c13 -7 19 -21 19
-45 0 -49 -42 -71 -74 -39 -23 22 -20 60 6 78 27 19 24 19 49 6z"/>
<path d="M4580 1115 c0 -35 5 -76 12 -90 15 -33 54 -43 90 -22 24 14 28 14 28
2 0 -9 10 -15 25 -15 25 0 25 0 25 95 0 95 0 95 -25 95 -24 0 -25 -3 -25 -59
0 -41 -5 -65 -16 -75 -34 -35 -54 -8 -54 71 l0 63 -30 0 -30 0 0 -65z"/>
<path d="M4865 1171 c-71 -29 -80 -133 -14 -166 50 -26 109 -17 109 17 0 17
-4 19 -26 14 -35 -9 -74 17 -74 49 0 32 39 58 74 49 22 -5 26 -3 26 14 0 30
-48 42 -95 23z"/>
<path d="M5162 1164 c-14 -10 -22 -25 -22 -45 0 -26 6 -33 40 -46 57 -23 54
-48 -5 -40 -40 6 -45 4 -45 -13 0 -14 9 -21 35 -26 48 -9 82 2 101 30 20 32 6
61 -41 81 -47 19 -44 35 5 35 28 0 40 4 40 14 0 29 -72 36 -108 10z"/>
<path d="M15980 1174 c0 -5 5 -15 12 -22 8 -8 8 -15 -2 -27 -20 -24 -6 -28 15
-5 18 20 18 21 -3 43 -12 12 -22 17 -22 11z"/>
<path d="M15183 1120 c0 -25 2 -35 4 -22 2 12 2 32 0 45 -2 12 -4 2 -4 -23z"/>
<path d="M15219 1136 c-14 -31 2 -56 35 -55 21 0 21 0 -1 9 -31 13 -29 30 3
30 19 0 25 5 22 18 -5 28 -46 27 -59 -2z m46 4 c3 -5 -3 -10 -15 -10 -12 0
-18 5 -15 10 3 6 10 10 15 10 5 0 12 -4 15 -10z"/>
<path d="M15303 1120 c12 -42 30 -48 35 -12 4 27 22 29 22 3 0 -11 5 -23 10
-26 11 -7 30 36 29 63 0 9 -6 1 -13 -18 l-13 -35 -7 33 c-4 17 -11 32 -16 32
-5 0 -12 -15 -16 -32 l-7 -33 -10 33 c-14 46 -26 40 -14 -8z"/>
<path d="M15619 1136 c-9 -20 -9 -29 1 -41 28 -34 87 5 64 43 -18 28 -52 27
-65 -2z m51 -2 c11 -12 11 -18 -2 -31 -19 -18 -38 -10 -38 16 0 33 20 40 40
15z"/>
<path d="M15710 1120 c0 -22 5 -40 10 -40 6 0 10 18 10 40 0 22 -4 40 -10 40
-5 0 -10 -18 -10 -40z"/>
<path d="M15776 1145 c-19 -19 -19 -21 -6 -46 6 -10 21 -19 33 -18 l22 0 -22
9 c-31 13 -29 30 3 30 19 0 25 5 22 17 -4 24 -32 28 -52 8z m39 -5 c3 -5 -3
-10 -15 -10 -12 0 -18 5 -15 10 3 6 10 10 15 10 5 0 12 -4 15 -10z"/>
<path d="M3412 699 c-78 -24 -142 -128 -127 -208 24 -131 175 -200 282 -129
117 77 119 238 4 314 -42 27 -111 38 -159 23z m124 -28 c48 -22 80 -59 96
-112 34 -114 -89 -234 -204 -200 -87 26 -143 121 -120 200 16 53 48 90 96 112
52 23 80 23 132 0z"/>
<path d="M6032 699 c-78 -24 -142 -128 -127 -208 24 -131 175 -200 282 -129
117 77 119 238 4 314 -42 27 -111 38 -159 23z m124 -28 c48 -22 80 -59 96
-112 34 -114 -89 -234 -204 -200 -87 26 -143 121 -120 200 16 53 48 90 96 112
52 23 80 23 132 0z"/>
<path d="M8662 699 c-78 -24 -142 -128 -127 -208 24 -131 175 -200 282 -129
117 77 119 238 4 314 -42 27 -111 38 -159 23z m124 -28 c48 -22 80 -59 96
-112 34 -114 -89 -234 -204 -200 -87 26 -143 121 -120 200 16 53 48 90 96 112
52 23 80 23 132 0z"/>
<path d="M11282 699 c-78 -24 -142 -128 -127 -208 24 -131 175 -200 282 -129
117 77 119 238 4 314 -42 27 -111 38 -159 23z m124 -28 c48 -22 80 -59 96
-112 23 -79 -33 -174 -120 -200 -115 -34 -238 86 -204 200 16 53 48 90 96 112
52 23 80 23 132 0z"/>
<path d="M13912 699 c-78 -24 -142 -128 -127 -208 24 -131 175 -200 282 -129
117 77 119 238 4 314 -42 27 -111 38 -159 23z m124 -28 c48 -22 80 -59 96
-112 34 -114 -89 -234 -204 -200 -87 26 -143 121 -120 200 16 53 48 90 96 112
52 23 80 23 132 0z"/>
<path d="M4435 434 c-99 -6 -244 -16 -322 -20 l-143 -7 2 -146 c1 -90 3 -127
7 -96 5 42 8 46 15 27 8 -24 18 -23 22 3 1 8 -6 17 -17 20 -14 5 -19 16 -19
46 0 30 3 38 13 32 6 -4 20 -6 30 -5 14 3 17 -5 18 -40 1 -24 1 -51 0 -60 -1
-10 2 -18 8 -18 5 0 8 22 7 50 -2 28 1 50 5 50 5 0 9 -26 10 -57 0 -32 2 -77
6 -101 4 -38 2 -44 -16 -49 -12 -3 -21 -13 -21 -24 0 -22 11 -24 28 -7 9 9 12
8 12 -6 0 -14 -7 -17 -32 -14 -30 3 -33 6 -30 32 2 16 -2 32 -10 37 -7 5 -8 9
-2 9 7 0 9 11 6 25 -7 40 -20 29 -24 -21 -2 -30 1 -48 9 -51 6 -3 9 -11 6 -19
-4 -12 -292 -14 -2007 -17 -1100 -1 2283 -2 7519 -2 5236 0 8673 1 7638 2
l-1883 3 0 41 c0 41 0 41 -31 35 -17 -3 -37 -6 -45 -6 -9 0 -11 -10 -7 -33 l5
-33 -63 -1 c-53 -1 -60 1 -39 10 14 5 35 9 46 8 14 -1 23 5 27 18 6 26 -1 26
-116 4 -77 -14 -90 -15 -98 -2 -7 10 -8 6 -3 -12 l6 -27 -1196 -1 -1196 -2 0
35 c0 19 -3 43 -6 53 -5 15 -4 15 5 3 9 -12 11 -11 11 8 0 12 6 22 13 22 7 1
5 6 -5 14 -13 10 -15 15 -6 24 9 9 7 12 -10 12 -18 0 -21 4 -17 23 35 153 36
146 -22 135 -27 -4 -82 -10 -123 -12 -91 -5 -115 -13 -99 -32 9 -11 8 -15 -5
-20 -23 -9 -49 4 -43 20 3 8 3 17 0 20 -10 9 -43 -14 -43 -30 0 -9 -6 -14 -12
-11 -7 2 -23 0 -35 -4 -20 -7 -23 -5 -23 18 l0 26 -107 -7 c-60 -4 -109 -12
-111 -17 -2 -5 -8 -9 -13 -9 -6 0 -7 5 -4 11 8 12 -23 49 -41 49 -7 0 -18 8
-23 18 -10 16 -11 15 -12 -3 -1 -11 -1 -27 0 -35 1 -8 1 -80 1 -160 0 -106 3
-141 11 -130 9 13 10 13 6 0 -3 -13 -269 -15 -2306 -18 l-2303 -2 6 27 c24
121 28 163 15 192 -18 41 -43 45 -116 18 -48 -17 -62 -26 -58 -38 6 -19 -27
-103 -45 -114 -7 -4 -5 3 4 17 9 14 13 35 10 53 -8 43 -21 51 -16 10 5 -44
-11 -65 -53 -65 -40 0 -69 30 -63 64 4 17 1 23 -6 18 -22 -13 -36 -10 -36 9 0
11 5 17 10 14 6 -3 10 -4 10 -1 0 3 -27 19 -59 36 -64 32 -117 33 -128 1 -3
-9 -12 -23 -20 -32 -10 -12 -11 -23 -3 -43 5 -15 13 -58 16 -97 l7 -69 -972 0
-971 0 0 203 0 203 -72 17 c-40 10 -75 17 -78 16 -3 -1 -86 -8 -185 -15z m268
-41 c-7 -2 -19 -2 -25 0 -7 3 -2 5 12 5 14 0 19 -2 13 -5z m-43 -13 c0 -5 11
-10 25 -10 14 0 25 -4 25 -10 0 -5 -19 -10 -42 -11 -24 0 -60 -2 -80 -4 -25
-2 -38 1 -38 9 0 7 8 13 18 13 9 -1 33 1 52 3 32 3 31 4 -15 10 l-50 7 53 1
c29 1 52 -2 52 -8z m7204 -75 c-4 -8 -10 -15 -15 -15 -4 0 -6 7 -3 15 4 8 10
15 15 15 4 0 6 -7 3 -15z m-7254 -15 c0 -5 -5 -10 -11 -10 -5 0 -7 5 -4 10 3
6 8 10 11 10 2 0 4 -4 4 -10z m67 4 c-3 -3 -12 -4 -19 -1 -8 3 -5 6 6 6 11 1
17 -2 13 -5z m-190 -62 c28 -27 37 -32 44 -21 6 10 9 10 9 2 0 -7 10 -13 23
-13 12 0 29 -5 37 -10 12 -8 8 -10 -15 -11 l-30 -1 34 -8 c62 -15 114 -68 125
-127 5 -32 4 -33 -29 -33 -35 0 -35 0 -35 45 0 25 -4 45 -10 45 -5 0 -10 -15
-10 -32 l0 -33 -20 25 -20 25 0 -37 c0 -30 -4 -38 -17 -37 -12 0 -13 2 -5 6
10 4 10 8 1 20 -10 12 -10 16 2 24 11 7 9 9 -8 9 -19 0 -23 -6 -24 -32 0 -18
-3 -27 -6 -20 -2 6 -11 12 -19 12 -9 0 -12 -4 -9 -10 3 -5 1 -10 -4 -10 -6 0
-11 9 -11 20 0 11 7 20 15 20 8 0 15 5 15 10 0 23 -32 8 -44 -21 l-13 -31 -7
26 c-9 35 -44 32 -64 -4 l-14 -25 7 29 c5 26 4 28 -17 22 -13 -3 -33 -6 -45
-6 -13 0 -24 -8 -28 -20 -7 -23 -25 -27 -25 -5 0 19 -26 19 -34 0 -9 -24 -26
-17 -26 10 0 14 -4 25 -10 25 -5 0 -10 -11 -10 -25 0 -23 -4 -25 -45 -25 l-44
0 5 33 c17 98 64 178 115 196 47 16 47 14 2 -24 -22 -19 -50 -55 -62 -80 -30
-64 -26 -69 8 -10 30 51 70 87 118 106 37 14 126 13 155 -1 21 -12 22 -11 7 5
-10 10 -40 19 -80 23 l-64 7 50 5 c72 7 93 1 132 -38z m-190 22 c-3 -3 -12 -4
-19 -1 -8 3 -5 6 6 6 11 1 17 -2 13 -5z m8000 -13 c91 0 168 -2 171 -5 3 -4 6
-26 7 -51 2 -35 -1 -45 -14 -46 -14 -1 -14 -2 1 -6 20 -5 13 -33 -9 -33 -8 0
-11 -5 -7 -12 5 -8 2 -9 -9 -5 -16 6 -47 -16 -47 -33 0 -5 10 -16 22 -24 21
-15 -1 -16 -250 -16 -153 0 -272 4 -272 9 0 5 13 23 29 40 21 22 25 31 14 31
-13 0 -15 11 -10 66 3 40 10 70 18 75 8 5 51 9 97 9 58 0 82 4 83 13 0 9 2 9
6 -1 4 -9 46 -12 170 -11z m-7652 -71 c3 -6 -1 -7 -9 -4 -18 7 -21 14 -7 14 6
0 13 -4 16 -10z m2275 -52 c15 -21 17 -28 6 -19 -16 13 -41 51 -33 51 2 0 14
-15 27 -32z m4974 -13 c-9 -14 -18 -25 -21 -25 -5 0 5 18 20 38 17 22 18 13 1
-13z m531 -45 c3 -5 1 -10 -4 -10 -6 0 -11 5 -11 10 0 6 2 10 4 10 3 0 8 -4
11 -10z m75 -37 c0 -8 -12 -13 -32 -13 -29 0 -30 1 -13 14 12 9 16 19 11 31
-7 18 -6 18 14 0 11 -10 20 -24 20 -32z m-5449 27 c24 0 29 -4 28 -22 0 -22
-1 -22 -9 -3 -7 17 -9 17 -9 3 -1 -21 -23 -19 -33 2 -5 12 -7 12 -7 -2 -1 -11
-9 -18 -21 -18 -12 0 -20 7 -21 18 0 16 -1 16 -7 -1 -7 -16 -10 -16 -27 -3
-17 12 -17 15 -5 20 29 10 55 14 68 10 8 -2 27 -4 43 -4z m-124 -21 c1 -15 -3
-19 -19 -17 -30 4 -33 38 -4 38 15 0 22 -7 23 -21z m8318 7 c17 -17 9 -26 -22
-26 -25 0 -29 10 -11 28 15 15 16 15 33 -2z m-10885 -11 c0 -9 -9 -15 -25 -15
-24 0 -32 10 -18 23 12 13 43 7 43 -8z m84 0 c4 -10 -1 -15 -14 -15 -11 0 -20
7 -20 15 0 8 6 15 14 15 8 0 16 -7 20 -15z"/>
<path d="M4310 79 c0 -5 5 -7 10 -4 6 3 10 8 10 11 0 2 -4 4 -10 4 -5 0 -10
-5 -10 -11z"/>
<path d="M4258 73 c7 -3 16 -2 19 1 4 3 -2 6 -13 5 -11 0 -14 -3 -6 -6z"/>
<path d="M12050 68 l0 -31 113 6 c61 4 131 7 155 7 38 0 42 2 42 25 l0 25
-155 0 -155 0 0 -32z"/>
<path d="M6750 408 c151 -13 493 -13 515 0 16 9 -48 11 -290 9 -216 -1 -284
-4 -225 -9z"/>
<path d="M11788 343 c7 -3 16 -2 19 1 4 3 -2 6 -13 5 -11 0 -14 -3 -6 -6z"/>
<path d="M12063 323 c9 -2 23 -2 30 0 6 3 -1 5 -18 5 -16 0 -22 -2 -12 -5z"/>
<path d="M11988 313 c7 -3 16 -2 19 1 4 3 -2 6 -13 5 -11 0 -14 -3 -6 -6z"/>
<path d="M3990 261 c0 -6 5 -13 10 -16 6 -3 10 1 10 9 0 9 -4 16 -10 16 -5 0
-10 -4 -10 -9z"/>
<path d="M14780 249 c-58 -4 -154 -7 -214 -8 -107 -1 -108 -1 -102 -24 3 -12
10 -47 17 -76 l11 -54 157 7 c86 4 207 14 269 22 75 9 119 11 131 5 15 -8 219
4 229 14 1 1 -13 10 -32 19 -34 16 -76 76 -54 76 6 0 9 3 6 6 -3 3 -22 2 -41
-1 -27 -5 -36 -13 -40 -33 l-5 -26 17 23 c14 18 21 20 41 13 l25 -9 -23 -8
c-23 -7 -23 -7 -5 -24 12 -13 20 -15 25 -7 6 8 8 8 8 -1 0 -17 -23 -29 -28
-15 -2 7 -8 12 -14 12 -6 0 -8 -7 -4 -15 3 -10 -1 -15 -11 -15 -9 0 -14 3 -10
6 3 3 0 12 -6 19 -9 10 -16 9 -35 -3 -12 -8 -25 -12 -29 -8 -3 3 -1 6 5 6 7 0
12 7 12 16 0 8 5 12 10 9 14 -8 13 -3 -6 34 -23 46 -39 34 -37 -27 3 -50 2
-51 -17 -40 -11 7 -18 18 -16 24 2 6 -2 11 -10 11 -7 0 -11 -4 -8 -9 8 -12
-10 -10 -24 4 -7 7 -12 8 -12 2 0 -5 -11 -11 -25 -12 -14 -1 -25 3 -25 8 0 6
-6 10 -14 10 -23 0 -31 22 -12 35 9 7 26 11 36 8 20 -5 25 4 12 22 -8 13 -14
13 -152 4z m-74 -41 c23 -22 34 -66 14 -53 -6 4 -16 3 -23 -2 -15 -12 -107
-11 -126 2 -10 5 -16 4 -19 -3 -3 -9 -9 -9 -24 -1 -11 6 -17 17 -14 24 3 8 0
16 -7 19 -7 2 8 5 34 5 25 1 51 7 57 13 10 10 17 10 34 -1 18 -11 22 -11 30 3
12 21 16 20 44 -6z m158 -28 c5 -27 4 -32 -6 -22 -8 8 -15 8 -24 1 -8 -7 -14
-7 -19 1 -3 5 -11 10 -16 10 -6 0 -7 -4 -4 -10 3 -5 2 -10 -2 -10 -14 0 -40
23 -46 42 -5 15 2 17 51 20 31 2 57 3 58 3 1 0 4 -16 8 -35z"/>
<path d="M14975 250 c3 -5 -1 -11 -7 -14 -7 -2 1 -4 18 -3 36 1 42 21 7 23
-12 1 -21 -2 -18 -6z"/>
<path d="M15244 239 c-8 -13 13 -29 39 -29 15 0 16 3 7 20 -12 22 -35 26 -46
9z"/>
<path d="M7067 193 c-4 -3 -7 -11 -7 -17 0 -6 5 -5 12 2 6 6 9 14 7 17 -3 3
-9 2 -12 -2z"/>
<path d="M15217 189 c7 -7 15 -10 18 -7 3 3 -2 9 -12 12 -14 6 -15 5 -6 -5z"/>
<path d="M15266 171 c-3 -5 1 -11 9 -14 9 -4 12 -1 8 9 -6 16 -10 17 -17 5z"/>
<path d="M9551 144 c-6 -15 -9 -29 -7 -32 3 -2 10 8 16 23 14 36 7 43 -9 9z"/>
<path d="M4038 117 c-5 -27 0 -47 13 -47 5 0 9 16 9 35 0 39 -15 48 -22 12z"/>
</g>
</svg>
