<?xml version="1.0" encoding="utf-8" standalone="yes"?>
<!DOCTYPE svg PUBLIC "-//W3C//DTD SVG 1.1//EN" "http://www.w3.org/Graphics/SVG/1.1/DTD/svg11.dtd">
<svg width="976" height="507" viewBox="0 0 976 507" style="fill:none;stroke:none;fill-rule:evenodd;clip-rule:evenodd;stroke-linecap:round;stroke-linejoin:round;stroke-miterlimit:1.5;" version="1.1" xmlns="http://www.w3.org/2000/svg" xmlns:xlink="http://www.w3.org/1999/xlink"><style id="fontImports">@import url("https://fonts.googleapis.com/css2?family=Roboto:wght@400;700&amp;display=block");</style><g id="items" style="isolation: isolate"><g id="blend" style="mix-blend-mode:normal"><g id="g-root--1.cu_sy_1q7lmy81cbd4p4-fill" data-item-order="999749710" data-item-id="-1.cu_sy_1q7lmy81cbd4p4" data-item-class="Part Fill Stroke ColorFillGray ColorStrokeBlack" data-item-index="-1" data-renderer-id="0" transform="translate(284.32818603515625, 150.1075439453125)"><g id="-1.cu_sy_1q7lmy81cbd4p4-fill" stroke="none" fill="#A3A3A3"><g><path d="M 158.670578 41.026886L 127.643677 9.99999L 10.000013 211.674835L 41.026917 242.701721L 158.670578 41.026886ZM 158.670578 41.026886L 41.026917 242.701721L 276.31424 242.701721L 158.670578 41.026886Z"></path></g></g></g><g id="g-root-0.line-start_sy_1lrs4ts1cbd5hd-fill" data-item-order="999749713" data-item-id="0.line-start_sy_1lrs4ts1cbd5hd" data-item-class="Curve Stroke Part Indexed_0 ColorStrokeBlack" data-item-index="0" data-renderer-id="0" transform="translate(254.59420776367188, 281.971923828125)"></g><g id="g-root-0.cr-small_cr_1lrs4ts1cbd5he-fill" data-item-order="999749714" data-item-id="0.cr-small_cr_1lrs4ts1cbd5he" data-item-class="Shape Stroke Fill Part Indexed_0 ColorStrokeBlack" data-item-index="0" data-renderer-id="0" transform="translate(161.513427734375, 235.4315185546875)"><g id="0.cr-small_cr_1lrs4ts1cbd5he-fill" stroke="none" fill="#562d69"><g><path d="M 10 56.536826C 10.000001 82.24016 30.836669 103.076828 56.540002 103.076828C 82.243334 103.076828 103.080002 82.24016 103.080002 56.536827C 103.080002 30.833495 82.243334 9.996826 56.540002 9.996826C 30.836669 9.996826 10.000001 30.833495 10.000001 56.536827"></path></g></g></g><g id="g-root-4.line_sy_v5hl681cbd5hl-fill" data-item-order="999749717" data-item-id="4.line_sy_v5hl681cbd5hl" data-item-class="Curve Stroke Part Indexed ColorStrokeBlack" data-item-index="4" data-renderer-id="0" transform="translate(374.1768798828125, 281.971923828125)"></g><g id="g-root-4.cr-small_cr_qpo31s1cbd69u-fill" data-item-order="999749718" data-item-id="4.cr-small_cr_qpo31s1cbd69u" data-item-class="Shape Stroke Fill Part Indexed ColorStrokeBlack" data-item-index="4" data-renderer-id="0" transform="translate(704.4841918945312, 406.0794677734375)"><g id="4.cr-small_cr_qpo31s1cbd69u-fill" stroke="none" fill="#de9ffb"><g><path d="M 10.003719 48.785125C 10.00372 70.20549 27.368356 87.570126 48.78872 87.570126C 70.209084 87.570126 87.57372 70.20549 87.57372 48.785126C 87.57372 27.364762 70.209084 10.000126 48.78872 10.000126C 27.368356 10.000126 10.00372 27.364762 10.00372 48.785126"></path></g></g></g><g id="g-root-3.line_sy_zlb3ao1cbd4pb-fill" data-item-order="999749721" data-item-id="3.line_sy_zlb3ao1cbd4pb" data-item-class="Curve Stroke Part Indexed ColorStrokeBlack" data-item-index="3" data-renderer-id="0" transform="translate(374.8233947753906, 281.971923828125)"></g><g id="g-root-3.cr-small_cr_1414lf41cbd4ow-fill" data-item-order="999749722" data-item-id="3.cr-small_cr_1414lf41cbd4ow" data-item-class="Shape Stroke Fill Part Indexed ColorStrokeBlack" data-item-index="3" data-renderer-id="0" transform="translate(704.484130859375, 297.4853515625)"><g id="3.cr-small_cr_1414lf41cbd4ow-fill" stroke="none" fill="#bc83d7"><g><path d="M 10.003719 48.78439C 10.00372 70.204755 27.368356 87.569391 48.78872 87.569391C 70.209084 87.569391 87.57372 70.204755 87.57372 48.784391C 87.57372 27.364027 70.209084 9.999391 48.78872 9.999391C 27.368356 9.999391 10.00372 27.364027 10.00372 48.784391"></path></g></g></g><g id="g-root-2.line_sy_18gy3jk1cbd3wl-fill" data-item-order="999749725" data-item-id="2.line_sy_18gy3jk1cbd3wl" data-item-class="Curve Stroke Part Indexed ColorStrokeBlack" data-item-index="2" data-renderer-id="0" transform="translate(374.1768798828125, 227.6749267578125)"></g><g id="g-root-2.cr-small_cr_18gy3jk1cbd3wm-fill" data-item-order="999749726" data-item-id="2.cr-small_cr_18gy3jk1cbd3wm" data-item-class="Shape Stroke Fill Part Indexed ColorStrokeBlack" data-item-index="2" data-renderer-id="0" transform="translate(704.4841918945312, 188.89117431640625)"><g id="2.cr-small_cr_18gy3jk1cbd3wm-fill" stroke="none" fill="#9a66b2"><g><path d="M 10.003719 48.783659C 10.00372 70.204024 27.368356 87.56866 48.78872 87.56866C 70.209084 87.56866 87.57372 70.204024 87.57372 48.78366C 87.57372 27.363296 70.209084 9.998661 48.78872 9.998661C 27.368356 9.998661 10.00372 27.363296 10.00372 48.78366"></path></g></g></g><g id="g-root-1.line_sy_1cw54kw1cbd6a3-fill" data-item-order="999749729" data-item-id="1.line_sy_1cw54kw1cbd6a3" data-item-class="Curve Stroke Part Indexed Indexed_1 ColorStrokeBlack" data-item-index="1" data-renderer-id="0" transform="translate(374.1768798828125, 119.0806884765625)"></g><g id="g-root-1.cr-small_cr_1cw54kw1cbd6a4-fill" data-item-order="999749730" data-item-id="1.cr-small_cr_1cw54kw1cbd6a4" data-item-class="Shape Stroke Fill Part Indexed Indexed_1 ColorStrokeBlack" data-item-index="1" data-renderer-id="0" transform="translate(704.4841918945312, 80.2969970703125)"><g id="1.cr-small_cr_1cw54kw1cbd6a4-fill" stroke="none" fill="#784a8e"><g><path d="M 10.003715 48.782929C 10.003716 70.203294 27.368352 87.567929 48.788716 87.567929C 70.20908 87.567929 87.573716 70.203294 87.573716 48.78293C 87.573716 27.362566 70.20908 9.99793 48.788716 9.99793C 27.368352 9.99793 10.003716 27.362566 10.003716 48.78293"></path></g></g></g><g id="g-root-tx_strategi_1unf52o1cbd3wv-fill" data-item-order="1000000000" data-item-id="tx_strategi_1unf52o1cbd3wv" data-item-class="Label Stroke Title ColorStrokeBlack" data-item-index="none" data-renderer-id="0" transform="translate(309.782470703125, 2)"><g id="tx_strategi_1unf52o1cbd3wv-fill" stroke="none" fill="#666666"><g><text style="font: 20px Roboto, sans-serif; white-space: pre;" font-weight="20px" font-size="Roboto," font-family="sans-serif"><tspan x="14.68" y="34" dominant-baseline="ideographic">Strategies for Boosting Gross Sales</tspan></text></g></g></g><g id="g-root-tx_increase_4hbm9c1cbd6h2-fill" data-item-order="1000000000" data-item-id="tx_increase_4hbm9c1cbd6h2" data-item-class="Label Stroke Indexed Indexed_1 ColorStrokeBlack" data-item-index="1" data-renderer-id="0" transform="translate(797.5648803710938, 83.0806884765625)"><g id="tx_increase_4hbm9c1cbd6h2-fill" stroke="none" fill="#666666"><g><text style="font: 20px Roboto, sans-serif; white-space: pre;" font-weight="20px" font-size="Roboto," font-family="sans-serif"><tspan x="12" y="34" dominant-baseline="ideographic">Increase </tspan><tspan x="12" y="58" dominant-baseline="ideographic">Effective </tspan><tspan x="12" y="82" dominant-baseline="ideographic">Coverage 67%</tspan></text></g></g></g><g id="g-root-mega_m7yjjk1cls6j0-fill" data-item-order="1000000000" data-item-id="mega_m7yjjk1cls6j0" data-item-class="Icon Stroke Indexed Indexed_1 InsideFill InsideColorFill ColorStrokeBlack" data-item-index="1" data-renderer-id="0" transform="translate(719.9976196289062, 95.810546875)"></g><g id="g-root-serv_8vw67k1cbeih4-fill" data-item-order="1000000000" data-item-id="serv_8vw67k1cbeih4" data-item-class="Icon Stroke Indexed InsideFill InsideColorFill ColorStrokeBlack" data-item-index="2" data-renderer-id="0" transform="translate(719.99755859375, 204.4046630859375)"></g><g id="g-root-tx_increase_4hbm9c1cbd6h1-fill" data-item-order="1000000000" data-item-id="tx_increase_4hbm9c1cbd6h1" data-item-class="Label Stroke Indexed ColorStrokeBlack" data-item-index="2" data-renderer-id="0" transform="translate(797.5648803710938, 203.6748046875)"><g id="tx_increase_4hbm9c1cbd6h1-fill" stroke="none" fill="#666666"><g><text style="font: 20px Roboto, sans-serif; white-space: pre;" font-weight="20px" font-size="Roboto," font-family="sans-serif"><tspan x="12" y="34" dominant-baseline="ideographic">Increase Face-</tspan><tspan x="12" y="58" dominant-baseline="ideographic">Time 30%</tspan></text></g></g></g><g id="g-root-tx_increase_v3m5ww1cbd6gy-fill" data-item-order="1000000000" data-item-id="tx_increase_v3m5ww1cbd6gy" data-item-class="Label Stroke ColorStrokeBlack" data-item-index="none" data-renderer-id="0" transform="translate(2, 257.971923828125)"><g id="tx_increase_v3m5ww1cbd6gy-fill" stroke="none" fill="#666666"><g><text style="font: 20px Roboto, sans-serif; white-space: pre;" font-weight="20px" font-size="Roboto," font-family="sans-serif"><tspan x="18.91" y="34" dominant-baseline="ideographic">Increase Gross </tspan><tspan x="61.42" y="58" dominant-baseline="ideographic">Sales 20%</tspan></text></g></g></g><g id="g-root-grap_zs6b8w1cbd3wl-fill" data-item-order="1000000000" data-item-id="grap_zs6b8w1cbd3wl" data-item-class="Icon Stroke InsideFill ColorStrokeBlack" data-item-index="none" data-renderer-id="0" transform="translate(177.73806762695312, 251.65625)"></g><g id="g-root-tx_increase_8x54ds1cbd5os-fill" data-item-order="1000000000" data-item-id="tx_increase_8x54ds1cbd5os" data-item-class="Label Stroke Indexed ColorStrokeBlack" data-item-index="3" data-renderer-id="0" transform="translate(797.5648803710938, 300.26904296875)"><g id="tx_increase_8x54ds1cbd5os-fill" stroke="none" fill="#666666"><g><text style="font: 20px Roboto, sans-serif; white-space: pre;" font-weight="20px" font-size="Roboto," font-family="sans-serif"><tspan x="12" y="34" dominant-baseline="ideographic">Increase </tspan><tspan x="12" y="58" dominant-baseline="ideographic">Productive </tspan><tspan x="12" y="82" dominant-baseline="ideographic">Outlet 25%</tspan></text></g></g></g><g id="g-root-2_mgpsvk1cbd5hj-fill" data-item-order="1000000000" data-item-id="2_mgpsvk1cbd5hj" data-item-class="Icon Stroke Indexed InsideFill InsideColorFill ColorStrokeBlack" data-item-index="3" data-renderer-id="0" transform="translate(719.9976196289062, 312.998779296875)"></g><g id="g-root-cons_mgpsvk1cbd5hi-fill" data-item-order="1000000000" data-item-id="cons_mgpsvk1cbd5hi" data-item-class="Icon Stroke Indexed InsideFill InsideColorFill ColorStrokeBlack" data-item-index="4" data-renderer-id="0" transform="translate(719.9976196289062, 421.5931396484375)"></g><g id="g-root-tx_increase_hss4mo1cbd4w3-fill" data-item-order="1000000000" data-item-id="tx_increase_hss4mo1cbd4w3" data-item-class="Label Stroke Indexed ColorStrokeBlack" data-item-index="4" data-renderer-id="0" transform="translate(797.5648803710938, 420.8631591796875)"><g id="tx_increase_hss4mo1cbd4w3-fill" stroke="none" fill="#666666"><g><text style="font: 20px Roboto, sans-serif; white-space: pre;" font-weight="20px" font-size="Roboto," font-family="sans-serif"><tspan x="12" y="34" dominant-baseline="ideographic">Increase Market </tspan><tspan x="12" y="58" dominant-baseline="ideographic">Visit 89%</tspan></text></g></g></g><g id="g-root--1.cu_sy_1q7lmy81cbd4p4-stroke" data-item-order="999749710" data-item-id="-1.cu_sy_1q7lmy81cbd4p4" data-item-class="Part Fill Stroke ColorFillGray ColorStrokeBlack" data-item-index="-1" data-renderer-id="0" transform="translate(284.32818603515625, 150.1075439453125)"><g id="-1.cu_sy_1q7lmy81cbd4p4-stroke" fill="none" stroke-linecap="round" stroke-linejoin="round" stroke-miterlimit="4" stroke="#ffffff" stroke-width="2"><g><path d="M 158.670578 41.026886L 127.643677 9.99999L 10.000013 211.674835L 41.026917 242.701721L 158.670578 41.026886ZM 158.670578 41.026886L 41.026917 242.701721L 276.31424 242.701721L 158.670578 41.026886Z"></path></g></g></g><g id="g-root-0.line-start_sy_1lrs4ts1cbd5hd-stroke" data-item-order="999749713" data-item-id="0.line-start_sy_1lrs4ts1cbd5hd" data-item-class="Curve Stroke Part Indexed_0 ColorStrokeBlack" data-item-index="0" data-renderer-id="0" transform="translate(254.59420776367188, 281.971923828125)"><g id="0.line-start_sy_1lrs4ts1cbd5hd-stroke" fill="none" stroke-linecap="round" stroke-linejoin="round" stroke-miterlimit="4" stroke="#666666" stroke-width="2"><g><path d="M 10 10L 129.582809 10"></path></g></g></g><g id="g-root-0.cr-small_cr_1lrs4ts1cbd5he-stroke" data-item-order="999749714" data-item-id="0.cr-small_cr_1lrs4ts1cbd5he" data-item-class="Shape Stroke Fill Part Indexed_0 ColorStrokeBlack" data-item-index="0" data-renderer-id="0" transform="translate(161.513427734375, 235.4315185546875)"><g id="0.cr-small_cr_1lrs4ts1cbd5he-stroke" fill="none" stroke-linecap="round" stroke-linejoin="round" stroke-miterlimit="4" stroke="#ffffff" stroke-width="2"><g><path d="M 10 56.536826C 10.000001 82.24016 30.836669 103.076828 56.540002 103.076828C 82.243334 103.076828 103.080002 82.24016 103.080002 56.536827C 103.080002 30.833495 82.243334 9.996826 56.540002 9.996826C 30.836669 9.996826 10.000001 30.833495 10.000001 56.536827"></path></g></g></g><g id="g-root-4.line_sy_v5hl681cbd5hl-stroke" data-item-order="999749717" data-item-id="4.line_sy_v5hl681cbd5hl" data-item-class="Curve Stroke Part Indexed ColorStrokeBlack" data-item-index="4" data-renderer-id="0" transform="translate(374.1768798828125, 281.971923828125)"><g id="4.line_sy_v5hl681cbd5hl-stroke" fill="none" stroke-linecap="round" stroke-linejoin="round" stroke-miterlimit="4" stroke="#666666" stroke-width="2"><g><path d="M 330.93762 171.711953L 141.21762 33.271953L 9.99762 10.001953"></path><path d="M 322.29762 173.401953L 331.29762 172.001953L 329.89762 162.901953" stroke-dasharray="none"></path></g></g></g><g id="g-root-4.cr-small_cr_qpo31s1cbd69u-stroke" data-item-order="999749718" data-item-id="4.cr-small_cr_qpo31s1cbd69u" data-item-class="Shape Stroke Fill Part Indexed ColorStrokeBlack" data-item-index="4" data-renderer-id="0" transform="translate(704.4841918945312, 406.0794677734375)"><g id="4.cr-small_cr_qpo31s1cbd69u-stroke" fill="none" stroke-linecap="round" stroke-linejoin="round" stroke-miterlimit="4" stroke="#ffffff" stroke-width="2"><g><path d="M 10.003719 48.785125C 10.00372 70.20549 27.368356 87.570126 48.78872 87.570126C 70.209084 87.570126 87.57372 70.20549 87.57372 48.785126C 87.57372 27.364762 70.209084 10.000126 48.78872 10.000126C 27.368356 10.000126 10.00372 27.364762 10.00372 48.785126"></path></g></g></g><g id="g-root-3.line_sy_zlb3ao1cbd4pb-stroke" data-item-order="999749721" data-item-id="3.line_sy_zlb3ao1cbd4pb" data-item-class="Curve Stroke Part Indexed ColorStrokeBlack" data-item-index="3" data-renderer-id="0" transform="translate(374.8233947753906, 281.971923828125)"><g id="3.line_sy_zlb3ao1cbd4pb-stroke" fill="none" stroke-linecap="round" stroke-linejoin="round" stroke-miterlimit="4" stroke="#666666" stroke-width="2"><g><path d="M 329.951312 63.841953L 131.521312 17.751953L 10.001312 10.001953"></path><path d="M 322.601312 68.801953L 330.401312 64.001953L 325.601312 56.201953" stroke-dasharray="none"></path></g></g></g><g id="g-root-3.cr-small_cr_1414lf41cbd4ow-stroke" data-item-order="999749722" data-item-id="3.cr-small_cr_1414lf41cbd4ow" data-item-class="Shape Stroke Fill Part Indexed ColorStrokeBlack" data-item-index="3" data-renderer-id="0" transform="translate(704.484130859375, 297.4853515625)"><g id="3.cr-small_cr_1414lf41cbd4ow-stroke" fill="none" stroke-linecap="round" stroke-linejoin="round" stroke-miterlimit="4" stroke="#ffffff" stroke-width="2"><g><path d="M 10.003719 48.78439C 10.00372 70.204755 27.368356 87.569391 48.78872 87.569391C 70.209084 87.569391 87.57372 70.204755 87.57372 48.784391C 87.57372 27.364027 70.209084 9.999391 48.78872 9.999391C 27.368356 9.999391 10.00372 27.364027 10.00372 48.784391"></path></g></g></g><g id="g-root-2.line_sy_18gy3jk1cbd3wl-stroke" data-item-order="999749725" data-item-id="2.line_sy_18gy3jk1cbd3wl" data-item-class="Curve Stroke Part Indexed ColorStrokeBlack" data-item-index="2" data-renderer-id="0" transform="translate(374.1768798828125, 227.6749267578125)"><g id="2.line_sy_18gy3jk1cbd3wl-stroke" fill="none" stroke-linecap="round" stroke-linejoin="round" stroke-miterlimit="4" stroke="#666666" stroke-width="2"><g><path d="M 330.59762 10.428955L 123.11762 56.538955L 9.99762 64.298955"></path><path d="M 326.19762 18.128955L 331.09762 10.328955L 323.29762 5.428955" stroke-dasharray="none"></path></g></g></g><g id="g-root-2.cr-small_cr_18gy3jk1cbd3wm-stroke" data-item-order="999749726" data-item-id="2.cr-small_cr_18gy3jk1cbd3wm" data-item-class="Shape Stroke Fill Part Indexed ColorStrokeBlack" data-item-index="2" data-renderer-id="0" transform="translate(704.4841918945312, 188.89117431640625)"><g id="2.cr-small_cr_18gy3jk1cbd3wm-stroke" fill="none" stroke-linecap="round" stroke-linejoin="round" stroke-miterlimit="4" stroke="#ffffff" stroke-width="2"><g><path d="M 10.003719 48.783659C 10.00372 70.204024 27.368356 87.56866 48.78872 87.56866C 70.209084 87.56866 87.57372 70.204024 87.57372 48.78366C 87.57372 27.363296 70.209084 9.998661 48.78872 9.998661C 27.368356 9.998661 10.00372 27.363296 10.00372 48.78366"></path></g></g></g><g id="g-root-1.line_sy_1cw54kw1cbd6a3-stroke" data-item-order="999749729" data-item-id="1.line_sy_1cw54kw1cbd6a3" data-item-class="Curve Stroke Part Indexed Indexed_1 ColorStrokeBlack" data-item-index="1" data-renderer-id="0" transform="translate(374.1768798828125, 119.0806884765625)"><g id="1.line_sy_1cw54kw1cbd6a3-stroke" fill="none" stroke-linecap="round" stroke-linejoin="round" stroke-miterlimit="4" stroke="#666666" stroke-width="2"><g><path d="M 9.99762 172.89312L 114.06762 149.62312L 330.86762 11.07312"></path><path d="M 329.29762 19.77312L 331.29762 10.77312L 322.29762 8.87312" stroke-dasharray="none"></path></g></g></g><g id="g-root-1.cr-small_cr_1cw54kw1cbd6a4-stroke" data-item-order="999749730" data-item-id="1.cr-small_cr_1cw54kw1cbd6a4" data-item-class="Shape Stroke Fill Part Indexed Indexed_1 ColorStrokeBlack" data-item-index="1" data-renderer-id="0" transform="translate(704.4841918945312, 80.2969970703125)"><g id="1.cr-small_cr_1cw54kw1cbd6a4-stroke" fill="none" stroke-linecap="round" stroke-linejoin="round" stroke-miterlimit="4" stroke="#ffffff" stroke-width="2"><g><path d="M 10.003715 48.782929C 10.003716 70.203294 27.368352 87.567929 48.788716 87.567929C 70.20908 87.567929 87.573716 70.203294 87.573716 48.78293C 87.573716 27.362566 70.20908 9.99793 48.788716 9.99793C 27.368352 9.99793 10.003716 27.362566 10.003716 48.78293"></path></g></g></g><g id="g-root-tx_strategi_1unf52o1cbd3wv-stroke" data-item-order="1000000000" data-item-id="tx_strategi_1unf52o1cbd3wv" data-item-class="Label Stroke Title ColorStrokeBlack" data-item-index="none" data-renderer-id="0" transform="translate(309.782470703125, 2)"></g><g id="g-root-tx_increase_4hbm9c1cbd6h2-stroke" data-item-order="1000000000" data-item-id="tx_increase_4hbm9c1cbd6h2" data-item-class="Label Stroke Indexed Indexed_1 ColorStrokeBlack" data-item-index="1" data-renderer-id="0" transform="translate(797.5648803710938, 83.0806884765625)"></g><g id="g-root-mega_m7yjjk1cls6j0-stroke" data-item-order="1000000000" data-item-id="mega_m7yjjk1cls6j0" data-item-class="Icon Stroke Indexed Indexed_1 InsideFill InsideColorFill ColorStrokeBlack" data-item-index="1" data-renderer-id="0" transform="translate(719.9976196289062, 95.810546875)"><g id="mega_m7yjjk1cls6j0-stroke" fill="none" stroke-linecap="round" stroke-linejoin="round" stroke-miterlimit="4" stroke="#ffffff" stroke-width="2"><g><path d="M 11.151874 47.876076L 14.407758 52.782204M 29.157166 26.027328L 41.531078 44.668671M 40.881454 43.687447L 13.756193 51.800976L 11.803438 48.8573L 29.806791 27.008553L 40.881454 43.687447ZM 27.871489 47.577442C 28.879969 48.73444 29.161865 50.356033 28.603012 51.785496C 28.044159 53.214954 26.737175 54.21537 25.211382 54.38158C 23.685589 54.547794 22.193855 53.852253 21.340328 52.576649L 19.639668 50.014992M 16.957781 34.162189L 15.65659 32.783432C 15.304437 32.409924 15.304437 31.826664 15.65659 31.453156L 19.147116 27.768713L 17.983606 22.831558C 17.865665 22.331505 18.158264 21.826262 18.650684 21.679684L 23.514151 20.231117L 24.962719 15.367652C 25.106508 14.881984 25.599895 14.588825 26.0952 14.694757L 31.030416 15.867961L 34.714859 12.377436C 35.088367 12.025282 35.671627 12.025282 36.045135 12.377436L 39.72958 15.867961L 44.666737 14.704453C 45.166786 14.58651 45.672028 14.879107 45.818607 15.371531L 47.267178 20.234995L 52.130642 21.683563C 52.628632 21.830267 52.922707 22.343191 52.797718 22.847071L 51.641968 27.762894L 55.132492 31.447338C 55.484646 31.820847 55.484646 32.404106 55.132492 32.777615L 51.641968 36.462059L 52.815174 41.397274C 52.93428 41.897968 52.641438 42.404484 52.148094 42.551083L 47.284626 43.999657L 45.83606 48.863121C 45.688644 49.355682 45.182369 49.647533 44.682247 49.528259L 39.747032 48.36475L 36.062588 51.855274C 35.689079 52.207428 35.10582 52.207428 34.732311 51.855274L 34.032265 51.194016"></path></g></g></g><g id="g-root-serv_8vw67k1cbeih4-stroke" data-item-order="1000000000" data-item-id="serv_8vw67k1cbeih4" data-item-class="Icon Stroke Indexed InsideFill InsideColorFill ColorStrokeBlack" data-item-index="2" data-renderer-id="0" transform="translate(719.99755859375, 204.4046630859375)"><g id="serv_8vw67k1cbeih4-stroke" fill="none" stroke-linecap="round" stroke-linejoin="round" stroke-miterlimit="4" stroke="#ffffff" stroke-width="2"><g><path d="M 38.971359 15.926136C 38.971119 18.663729 41.190311 20.883114 43.927906 20.883114C 46.665497 20.883114 48.884693 18.663729 48.884453 15.926136C 48.884693 13.188542 46.665497 10.969157 43.927906 10.969157C 41.190311 10.969157 38.971119 13.188542 38.971359 15.926136M 51.857216 55.57074C 50.215092 55.57074 48.883583 54.240105 48.882515 52.597977L 48.882515 39.66946L 46.650517 32.40723C 43.440502 35.302914 39.332573 37.007019 35.01543 37.233849C 33.373894 37.239346 32.038605 35.913284 32.032715 34.271751C 32.026825 32.630215 33.352566 31.294605 34.994099 31.288322C 39.310379 30.931643 43.182281 28.494608 45.370659 24.757164C 45.9879 23.770874 47.123512 23.234983 48.277237 23.385561C 49.430965 23.536137 50.390995 24.345537 50.734432 25.457207L 54.698112 38.341122C 54.785343 38.625126 54.829784 38.920536 54.829979 39.217632L 54.829979 52.597977C 54.828911 54.239346 53.498585 55.569672 51.857216 55.57074ZM 28.559898 55.57074L 11.710358 55.57074L 11.710358 22.862583L 17.45809 22.862583L 23.603354 42.686829L 32.523582 42.686829L 28.559898 55.57074Z"></path></g></g></g><g id="g-root-tx_increase_4hbm9c1cbd6h1-stroke" data-item-order="1000000000" data-item-id="tx_increase_4hbm9c1cbd6h1" data-item-class="Label Stroke Indexed ColorStrokeBlack" data-item-index="2" data-renderer-id="0" transform="translate(797.5648803710938, 203.6748046875)"></g><g id="g-root-tx_increase_v3m5ww1cbd6gy-stroke" data-item-order="1000000000" data-item-id="tx_increase_v3m5ww1cbd6gy" data-item-class="Label Stroke ColorStrokeBlack" data-item-index="none" data-renderer-id="0" transform="translate(2, 257.971923828125)"></g><g id="g-root-grap_zs6b8w1cbd3wl-stroke" data-item-order="1000000000" data-item-id="grap_zs6b8w1cbd3wl" data-item-class="Icon Stroke InsideFill ColorStrokeBlack" data-item-index="none" data-renderer-id="0" transform="translate(177.73806762695312, 251.65625)"><g id="grap_zs6b8w1cbd3wl-stroke" fill="none" stroke-linecap="round" stroke-linejoin="round" stroke-miterlimit="4" stroke="#ffffff" stroke-width="2"><g><path d="M 22.631536 40.315681L 22.631536 47.8946M 27.684151 69.368202L 28.947306 56.736671L 33.99992 56.736671L 33.99992 46.631447C 33.99992 40.352863 28.910122 35.263065 22.631536 35.263065C 16.352953 35.263065 11.263154 40.352863 11.263154 46.631447L 11.263154 56.736671L 16.315769 56.736671L 17.578922 69.368202M 16.138927 20.105227C 18.51421 22.5285 21.764582 23.894201 25.157845 23.894686C 26.895363 23.900604 28.615417 23.547993 30.210459 22.858902M 15.103141 23.894686C 15.102709 28.080715 18.484724 31.474392 22.656799 31.474392C 26.828876 31.474392 30.21089 28.080715 30.210459 23.894686C 30.21089 19.708658 26.828876 16.314981 22.656799 16.314981C 18.484724 16.314981 15.102709 19.708658 15.103141 23.894686M 30.210459 11.263153L 66.841919 11.263153C 68.237152 11.263153 69.368225 12.394219 69.368225 13.78946L 69.368225 39.052525C 69.368225 40.447769 68.237152 41.578835 66.841919 41.578835L 40.315689 41.578835M 46.631458 41.578835L 46.631458 56.736671M 41.578842 56.736671L 51.684071 56.736671M 37.789379 28.9473L 45.368301 21.36838L 49.157764 25.157841L 57.99984 16.315767M 51.684071 16.315767L 57.99984 16.315767L 57.99984 22.631533M 54.210377 31.473606L 59.262993 31.473606M 54.210377 36.526218L 61.789299 36.526218"></path></g></g></g><g id="g-root-tx_increase_8x54ds1cbd5os-stroke" data-item-order="1000000000" data-item-id="tx_increase_8x54ds1cbd5os" data-item-class="Label Stroke Indexed ColorStrokeBlack" data-item-index="3" data-renderer-id="0" transform="translate(797.5648803710938, 300.26904296875)"></g><g id="g-root-2_mgpsvk1cbd5hj-stroke" data-item-order="1000000000" data-item-id="2_mgpsvk1cbd5hj" data-item-class="Icon Stroke Indexed InsideFill InsideColorFill ColorStrokeBlack" data-item-index="3" data-renderer-id="0" transform="translate(719.9976196289062, 312.998779296875)"><g id="2_mgpsvk1cbd5hj-stroke" fill="none" stroke-linecap="round" stroke-linejoin="round" stroke-miterlimit="4" stroke="#ffffff" stroke-width="2"><g><path d="M 55.085953 50.274841C 55.085953 52.952293 52.915451 55.122799 50.237999 55.122799L 16.302338 55.122795C 13.624887 55.122799 11.454386 52.952293 11.454386 50.274845C 11.454386 47.597397 13.624887 45.426895 16.302338 45.426895L 50.237999 45.426891C 52.915451 45.426895 55.085953 47.597397 55.085953 50.274845ZM 18.066992 35.502167L 29.225037 35.502167L 29.225037 45.426895L 18.066992 45.426895ZM 17.756723 50.274841C 17.756723 50.810337 18.190823 51.244434 18.726313 51.244434C 19.261805 51.244434 19.695904 50.810337 19.695904 50.274841C 19.695904 49.739353 19.261805 49.305252 18.726313 49.305252C 18.190823 49.305252 17.756723 49.739353 17.756723 50.274841M 27.452627 50.274841C 27.452627 50.810337 27.886728 51.244434 28.422216 51.244434C 28.957706 51.244434 29.391808 50.810337 29.391808 50.274841C 29.391808 49.739353 28.957706 49.305252 28.422216 49.305252C 27.886728 49.305252 27.452627 49.739353 27.452627 50.274841M 37.229977 50.274841C 37.229977 50.810337 37.664078 51.244434 38.199566 51.244434C 38.735054 51.244434 39.169155 50.810337 39.169155 50.274841C 39.169155 49.739353 38.735054 49.305252 38.199566 49.305252C 37.664078 49.305252 37.229977 49.739353 37.229977 50.274841M 46.92588 50.274841C 46.92588 50.810337 47.359982 51.244434 47.89547 51.244434C 48.430958 51.244434 48.865059 50.810337 48.865059 50.274841C 48.865059 49.739353 48.430958 49.305252 47.89547 49.305252C 47.359982 49.305252 46.92588 49.739353 46.92588 50.274841M 23.646015 39.463913L 23.646015 35.502167M 38.199566 35.502167L 49.357613 35.502167L 49.357613 45.426895L 38.199566 45.426895ZM 43.778591 39.463913L 43.778591 35.502167M 53.18943 21.092113L 43.51292 11.417542L 43.51292 17.706305L 15.864082 17.706305L 15.864082 24.797888L 43.51292 24.797888L 43.51292 30.768625L 53.18943 21.092113Z"></path></g></g></g><g id="g-root-cons_mgpsvk1cbd5hi-stroke" data-item-order="1000000000" data-item-id="cons_mgpsvk1cbd5hi" data-item-class="Icon Stroke Indexed InsideFill InsideColorFill ColorStrokeBlack" data-item-index="4" data-renderer-id="0" transform="translate(719.9976196289062, 421.5931396484375)"><g id="cons_mgpsvk1cbd5hi-stroke" fill="none" stroke-linecap="round" stroke-linejoin="round" stroke-miterlimit="4" stroke="#ffffff" stroke-width="2"><g><path d="M 38.71151 28.583172L 38.71151 42.07793C 38.710945 45.082703 36.274937 47.51825 33.270168 47.51825C 30.265398 47.51825 27.829391 45.082703 27.828829 42.07793L 27.828829 28.583172L 20.211725 28.583172L 20.211725 42.51231C 20.213404 49.723103 26.059378 55.567715 33.270168 55.567715C 40.480961 55.567715 46.326935 49.723103 46.328609 42.51231L 46.328609 28.583172ZM 46.328609 35.003799L 38.71151 35.003799M 27.828829 35.003799L 20.211725 35.003799M 18.889204 14.409698C 18.889204 16.309616 20.429394 17.849806 22.329311 17.849806C 24.229231 17.849806 25.769417 16.309616 25.769417 14.409698C 25.769417 12.509779 24.229231 10.96959 22.329311 10.96959C 20.429394 10.96959 18.889204 12.509779 18.889204 14.409698M 29.830061 14.409698C 29.830063 16.309616 31.370251 17.849806 33.270172 17.849806C 35.17009 17.849806 36.710278 16.309616 36.710278 14.409698C 36.710278 12.509779 35.17009 10.96959 33.270172 10.96959C 31.370251 10.96959 29.830063 12.509779 29.830063 14.409698M 39.229271 24.737776C 38.832336 21.749985 36.28421 19.517994 33.270168 19.517994C 30.256126 19.517994 27.707998 21.749985 27.311064 24.737774M 25.26329 20.330017C 23.531694 19.359118 21.432417 19.305716 19.653694 20.187319C 17.874973 21.068922 16.646194 22.771837 16.370209 24.737774M 41.277046 20.330017C 43.00864 19.359118 45.107918 19.305716 46.886639 20.187319C 48.665359 21.068922 49.894138 22.771837 50.170124 24.737774M 40.77092 14.409698C 40.770924 16.309616 42.311111 17.849806 44.211025 17.849806C 46.110947 17.849806 47.651134 16.309616 47.651134 14.409698C 47.651134 12.509779 46.110947 10.96959 44.211025 10.96959C 42.311111 10.96959 40.770924 12.509779 40.770924 14.409698"></path></g></g></g><g id="g-root-tx_increase_hss4mo1cbd4w3-stroke" data-item-order="1000000000" data-item-id="tx_increase_hss4mo1cbd4w3" data-item-class="Label Stroke Indexed ColorStrokeBlack" data-item-index="4" data-renderer-id="0" transform="translate(797.5648803710938, 420.8631591796875)"></g></g></g></svg>